<svg width="5510" height="2210" viewBox="-1275 -110 5510 2210" xmlns="http://www.w3.org/2000/svg"><path d="M -863.1403 1953.4838 A 60050.0000 60050.0000 0 0 0 3595.5739 1963.4241 A 400.0000 400.0000 0 0 0 3980.7649 1589.7333 A 9050.0000 9050.0000 0 0 0 3980.7649 410.2667 A 400.0000 400.0000 0 0 0 3595.5739 36.5759 A 60050.0000 60050.0000 0 0 0 -863.1403 46.5162 A 100.0000 100.0000 0 0 0 -958.7492 136.9017 A 9050.0000 9050.0000 0 0 0 -958.7492 1863.0983 A 100.0000 100.0000 0 0 0 -863.1403 1953.4838 Z" stroke="green" stroke-width="1" fill="none" /></svg>