<svg width="5510" height="1990" viewBox="-1275 1 5510 1990" xmlns="http://www.w3.org/2000/svg"><path d="M -900.0000 1899.9941 L -346.4102 1899.9941 A 400.0000 400.0000 0 1 1 346.4102 1899.9941 L 2653.5898 1899.9941 A 400.0000 400.0000 0 1 1 3346.4102 1899.9941 L 3900.0000 1899.9941 A 100.0000 100.0000 0 0 0 4000.0000 1799.9941 L 4000.0000 1376.8061 A 500.0000 500.0000 0 0 0 3623.2768 892.2415 A 6650.0000 6650.0000 0 0 0 2424.2910 701.5624 A 100.0000 100.0000 0 0 1 2379.2774 687.4174 A 4250.0000 4250.0000 0 0 0 1202.0104 200.4892 A 100.0000 100.0000 0 0 1 1198.0279 199.4198 A 2500.0000 2500.0000 0 0 0 -187.5670 196.4027 A 100.0000 100.0000 0 0 0 -211.1144 206.5586 A 2850.0000 2850.0000 0 0 0 -977.9568 872.2048 A 100.0000 100.0000 0 0 0 -1000.0000 934.8365 L -1000.0000 1799.9941 A 100.0000 100.0000 0 0 0 -900.0000 1899.9941 Z" stroke="green" stroke-width="1" fill="none" /></svg>