<svg width="2209" height="1990" viewBox="-110 1 2209 1990" xmlns="http://www.w3.org/2000/svg"><path d="M 129.7993 1900.0000 L 1870.2007 1900.0000 A 100.0000 100.0000 0 0 0 1968.2466 1819.6721 A 1625.0000 1625.0000 0 0 0 1951.6545 1106.5718 A 100.0000 100.0000 0 0 1 1949.2677 1093.1923 A 2506.2500 2506.2500 0 0 0 1674.2749 194.8837 A 100.0000 100.0000 0 0 0 1599.9520 142.5593 A 4250.0000 4250.0000 0 0 0 400.0480 142.5593 A 100.0000 100.0000 0 0 0 325.7251 194.8837 A 2506.2500 2506.2500 0 0 0 50.7323 1093.1923 A 100.0000 100.0000 0 0 1 48.3455 1106.5718 A 1625.0000 1625.0000 0 0 0 31.7534 1819.6721 A 100.0000 100.0000 0 0 0 129.7993 1900.0000 Z" stroke="green" stroke-width="1" fill="none" /></svg>