<svg width="102" height="102" viewBox="-47 -47 102 102" xmlns="http://www.w3.org/2000/svg"><circle cx="0.0000" cy="0.0000" r="42.0000" stroke="green" stroke-width="1" fill="none" /><path d="M 8.8273 0.0000 L 10.9717 -0.0000 A 1.0000 1.0000 0 0 0 11.9509 -1.2028 L 11.4457 -3.6424 A 1.0000 1.0000 0 0 0 10.0693 -4.3574 L 8.1013 -3.5057 A 1.0000 1.0000 0 0 1 6.8770 -3.8614 L 6.1219 -4.9726 A 1.0000 1.0000 0 0 1 6.2418 -6.2418 L 7.7582 -7.7582 A 1.0000 1.0000 0 0 0 7.6001 -9.3011 L 5.5177 -10.6689 A 1.0000 1.0000 0 0 0 4.0389 -10.2012 L 3.2495 -8.2074 A 1.0000 1.0000 0 0 1 2.1324 -7.5932 L 0.8126 -7.8450 A 1.0000 1.0000 0 0 1 0.0000 -8.8273 L 0.0000 -10.9717 A 1.0000 1.0000 0 0 0 -1.2028 -11.9509 L -3.6424 -11.4457 A 1.0000 1.0000 0 0 0 -4.3574 -10.0693 L -3.5057 -8.1013 A 1.0000 1.0000 0 0 1 -3.8614 -6.8770 L -4.9726 -6.1219 A 1.0000 1.0000 0 0 1 -6.2418 -6.2418 L -7.7582 -7.7582 A 1.0000 1.0000 0 0 0 -9.3011 -7.6001 L -10.6689 -5.5177 A 1.0000 1.0000 0 0 0 -10.2012 -4.0389 L -8.2074 -3.2495 A 1.0000 1.0000 0 0 1 -7.5932 -2.1324 L -7.8450 -0.8126 A 1.0000 1.0000 0 0 1 -8.8273 -0.0000 L -10.9717 -0.0000 A 1.0000 1.0000 0 0 0 -11.9509 1.2028 L -11.4457 3.6424 A 1.0000 1.0000 0 0 0 -10.0693 4.3574 L -8.1013 3.5057 A 1.0000 1.0000 0 0 1 -6.8770 3.8614 L -6.1219 4.9726 A 1.0000 1.0000 0 0 1 -6.2418 6.2418 L -7.7582 7.7582 A 1.0000 1.0000 0 0 0 -7.6001 9.3011 L -5.5177 10.6689 A 1.0000 1.0000 0 0 0 -4.0389 10.2012 L -3.2495 8.2074 A 1.0000 1.0000 0 0 1 -2.1324 7.5932 L -0.8126 7.8450 A 1.0000 1.0000 0 0 1 -0.0000 8.8273 L -0.0000 10.9717 A 1.0000 1.0000 0 0 0 1.2028 11.9509 L 3.6424 11.4457 A 1.0000 1.0000 0 0 0 4.3574 10.0693 L 3.5057 8.1013 A 1.0000 1.0000 0 0 1 3.8614 6.8770 L 4.9726 6.1219 A 1.0000 1.0000 0 0 1 6.2418 6.2418 L 7.7582 7.7582 A 1.0000 1.0000 0 0 0 9.3011 7.6001 L 10.6689 5.5177 A 1.0000 1.0000 0 0 0 10.2012 4.0389 L 8.2074 3.2495 A 1.0000 1.0000 0 0 1 7.5932 2.1324 L 7.8450 0.8126 A 1.0000 1.0000 0 0 1 8.8273 0.0000 Z" stroke="green" stroke-width="1" fill="none" /><circle cx="15.0000" cy="0.0000" r="1.0000" stroke="green" stroke-width="1" fill="none" /><circle cx="10.6066" cy="-10.6066" r="1.0000" stroke="green" stroke-width="1" fill="none" /><circle cx="0.0000" cy="-15.0000" r="1.0000" stroke="green" stroke-width="1" fill="none" /><circle cx="-10.6066" cy="-10.6066" r="1.0000" stroke="green" stroke-width="1" fill="none" /><circle cx="-15.0000" cy="-0.0000" r="1.0000" stroke="green" stroke-width="1" fill="none" /><circle cx="-10.6066" cy="10.6066" r="1.0000" stroke="green" stroke-width="1" fill="none" /><circle cx="-0.0000" cy="15.0000" r="1.0000" stroke="green" stroke-width="1" fill="none" /><circle cx="10.6066" cy="10.6066" r="1.0000" stroke="green" stroke-width="1" fill="none" /><circle cx="40.0000" cy="0.0000" r="1.0000" stroke="green" stroke-width="1" fill="none" /><circle cx="36.9552" cy="-15.3073" r="1.0000" stroke="green" stroke-width="1" fill="none" /><circle cx="28.2843" cy="-28.2843" r="1.0000" stroke="green" stroke-width="1" fill="none" /><circle cx="15.3073" cy="-36.9552" r="1.0000" stroke="green" stroke-width="1" fill="none" /><circle cx="0.0000" cy="-40.0000" r="1.0000" stroke="green" stroke-width="1" fill="none" /><circle cx="-15.3073" cy="-36.9552" r="1.0000" stroke="green" stroke-width="1" fill="none" /><circle cx="-28.2843" cy="-28.2843" r="1.0000" stroke="green" stroke-width="1" fill="none" /><circle cx="-36.9552" cy="-15.3073" r="1.0000" stroke="green" stroke-width="1" fill="none" /><circle cx="-40.0000" cy="-0.0000" r="1.0000" stroke="green" stroke-width="1" fill="none" /><circle cx="-36.9552" cy="15.3073" r="1.0000" stroke="green" stroke-width="1" fill="none" /><circle cx="-28.2843" cy="28.2843" r="1.0000" stroke="green" stroke-width="1" fill="none" /><circle cx="-15.3073" cy="36.9552" r="1.0000" stroke="green" stroke-width="1" fill="none" /><circle cx="-0.0000" cy="40.0000" r="1.0000" stroke="green" stroke-width="1" fill="none" /><circle cx="15.3073" cy="36.9552" r="1.0000" stroke="green" stroke-width="1" fill="none" /><circle cx="28.2843" cy="28.2843" r="1.0000" stroke="green" stroke-width="1" fill="none" /><circle cx="36.9552" cy="15.3073" r="1.0000" stroke="green" stroke-width="1" fill="none" /><path d="M 17.9374 -0.5000 L 27.3523 -0.5000 A 0.2669 0.2669 0 0 0 27.5445 -0.9522 L 27.0921 -1.4215 A 1.2669 1.2669 0 0 1 27.8660 -3.5602 L 36.6946 -4.5288 A 1.0000 1.0000 0 0 0 37.5743 -5.6721 A 38.0000 38.0000 0 0 0 35.8005 -12.7407 A 1.0000 1.0000 0 0 0 34.4852 -13.3331 L 26.2453 -10.0186 A 0.2669 0.2669 0 0 0 26.2099 -9.5407 L 26.7721 -9.2108 A 1.2669 1.2669 0 0 1 26.4729 -6.8981 L 17.4071 -4.3580 A 1.0000 1.0000 0 0 0 16.6949 -3.2065 A 17.0000 17.0000 0 0 1 16.9409 -1.4167 A 1.0000 1.0000 0 0 0 17.9374 -0.5000 Z" stroke="green" stroke-width="1" fill="none" /><path d="M 17.1373 -5.3209 L 26.2031 -7.8610 A 0.2669 0.2669 0 0 0 26.2662 -8.3483 L 25.7039 -8.6781 A 1.2669 1.2669 0 0 1 25.8721 -10.9463 L 34.1120 -14.2609 A 1.0000 1.0000 0 0 0 34.6506 -15.5991 A 38.0000 38.0000 0 0 0 31.0355 -21.9271 A 1.0000 1.0000 0 0 0 29.6091 -22.1427 L 22.5691 -16.7279 A 0.2669 0.2669 0 0 0 22.6639 -16.2582 L 23.2943 -16.0923 A 1.2669 1.2669 0 0 1 23.6301 -13.7846 L 15.5858 -8.8928 A 1.0000 1.0000 0 0 0 15.2107 -7.5918 A 17.0000 17.0000 0 0 1 15.9304 -5.9347 A 1.0000 1.0000 0 0 0 17.1373 -5.3209 Z" stroke="green" stroke-width="1" fill="none" /><path d="M 15.0663 -9.7472 L 23.1106 -14.6390 A 0.2669 0.2669 0 0 0 23.0398 -15.1253 L 22.4094 -15.2911 A 1.2669 1.2669 0 0 1 21.9594 -17.5206 L 28.9995 -22.9354 A 1.0000 1.0000 0 0 0 29.1571 -24.3693 A 38.0000 38.0000 0 0 0 23.9688 -29.4872 A 1.0000 1.0000 0 0 0 22.5371 -29.3100 L 17.2190 -22.1967 A 0.2669 0.2669 0 0 0 17.4371 -21.7700 L 18.0888 -21.7803 A 1.2669 1.2669 0 0 1 19.0348 -19.6488 L 12.6086 -12.7680 A 1.0000 1.0000 0 0 0 12.5984 -11.4140 A 17.0000 17.0000 0 0 1 13.7385 -10.0126 A 1.0000 1.0000 0 0 0 15.0663 -9.7472 Z" stroke="green" stroke-width="1" fill="none" /><path d="M 11.8778 -13.4506 L 18.3040 -20.3313 A 0.2669 0.2669 0 0 0 18.1047 -20.7804 L 17.4529 -20.7701 A 1.2669 1.2669 0 0 1 16.4181 -22.7955 L 21.7362 -29.9088 A 1.0000 1.0000 0 0 0 21.5011 -31.3321 A 38.0000 38.0000 0 0 0 15.1244 -34.8605 A 1.0000 1.0000 0 0 0 13.7936 -34.3036 L 10.5919 -26.0192 A 0.2669 0.2669 0 0 0 10.9170 -25.6671 L 11.5418 -25.8529 A 1.2669 1.2669 0 0 1 13.0278 -24.0557 L 8.6963 -15.6963 A 1.0000 1.0000 0 0 0 9.0517 -14.3898 A 17.0000 17.0000 0 0 1 10.5277 -13.3479 A 1.0000 1.0000 0 0 0 11.8778 -13.4506 Z" stroke="green" stroke-width="1" fill="none" /><path d="M 7.8084 -16.1564 L 12.1399 -24.5158 A 0.2669 0.2669 0 0 0 11.8268 -24.8944 L 11.2020 -24.7086 A 1.2669 1.2669 0 0 1 9.6591 -26.3797 L 12.8609 -34.6641 A 1.0000 1.0000 0 0 0 12.2505 -35.9712 A 38.0000 38.0000 0 0 0 5.1583 -37.6483 A 1.0000 1.0000 0 0 0 4.0271 -36.7530 L 3.1792 -27.9120 A 0.2669 0.2669 0 0 0 3.5872 -27.6607 L 4.1387 -28.0082 A 1.2669 1.2669 0 0 1 6.0545 -26.6785 L 4.1390 -17.4605 A 1.0000 1.0000 0 0 0 4.8338 -16.2983 A 17.0000 17.0000 0 0 1 6.5361 -15.6933 A 1.0000 1.0000 0 0 0 7.8084 -16.1564 Z" stroke="green" stroke-width="1" fill="none" /><path d="M 3.1599 -17.6639 L 5.0755 -26.8819 A 0.2669 0.2669 0 0 0 4.6718 -27.1621 L 4.1203 -26.8146 A 1.2669 1.2669 0 0 1 2.1838 -28.0075 L 3.0317 -36.8485 A 1.0000 1.0000 0 0 0 2.0913 -37.9424 A 38.0000 38.0000 0 0 0 -5.1904 -37.6439 A 1.0000 1.0000 0 0 0 -6.0380 -36.4766 L -4.4692 -27.7347 A 0.2669 0.2669 0 0 0 -4.0086 -27.6028 L -3.5712 -28.0862 A 1.2669 1.2669 0 0 1 -1.3678 -27.3227 L -0.7253 -17.9297 A 1.0000 1.0000 0 0 0 0.2573 -16.9981 A 17.0000 17.0000 0 0 1 2.0597 -16.8748 A 1.0000 1.0000 0 0 0 3.1599 -17.6639 Z" stroke="green" stroke-width="1" fill="none" /><path d="M -1.7229 -17.8615 L -2.3654 -27.2544 A 0.2669 0.2669 0 0 0 -2.8297 -27.4153 L -3.2670 -26.9319 A 1.2669 1.2669 0 0 1 -5.4535 -27.5581 L -7.0223 -36.3000 A 1.0000 1.0000 0 0 0 -8.2230 -37.0996 A 38.0000 38.0000 0 0 0 -15.1541 -34.8476 A 1.0000 1.0000 0 0 0 -15.6554 -33.4949 L -11.7862 -25.5005 A 0.2669 0.2669 0 0 0 -11.3071 -25.4977 L -11.0164 -26.0812 A 1.2669 1.2669 0 0 1 -8.6886 -25.9405 L -5.5357 -17.0691 A 1.0000 1.0000 0 0 0 -4.3383 -16.4371 A 17.0000 17.0000 0 0 1 -2.5694 -16.8047 A 1.0000 1.0000 0 0 0 -1.7229 -17.8615 Z" stroke="green" stroke-width="1" fill="none" /><path d="M -6.4780 -16.7343 L -9.6309 -25.6056 A 0.2669 0.2669 0 0 0 -10.1213 -25.6352 L -10.4120 -25.0518 A 1.2669 1.2669 0 0 1 -12.6864 -25.0648 L -16.5555 -33.0593 A 1.0000 1.0000 0 0 0 -17.9274 -33.5053 A 38.0000 38.0000 0 0 0 -23.9939 -29.4668 A 1.0000 1.0000 0 0 0 -24.1117 -28.0290 L -18.2291 -21.3749 A 0.2669 0.2669 0 0 0 -17.7670 -21.5016 L -17.6445 -22.1418 A 1.2669 1.2669 0 0 1 -15.3651 -22.6344 L -9.9357 -14.9426 A 1.0000 1.0000 0 0 0 -8.6121 -14.6571 A 17.0000 17.0000 0 0 1 -7.0080 -15.4883 A 1.0000 1.0000 0 0 0 -6.4780 -16.7343 Z" stroke="green" stroke-width="1" fill="none" /><path d="M -10.7526 -14.3660 L -16.1820 -22.0577 A 0.2669 0.2669 0 0 0 -16.6623 -21.9539 L -16.7848 -21.3137 A 1.2669 1.2669 0 0 1 -18.9783 -20.7126 L -24.8609 -27.3667 A 1.0000 1.0000 0 0 0 -26.3023 -27.4261 A 38.0000 38.0000 0 0 0 -31.0542 -21.9006 A 1.0000 1.0000 0 0 0 -30.7797 -20.4844 L -23.3200 -15.6641 A 0.2669 0.2669 0 0 0 -22.9092 -15.9108 L -22.9640 -16.5603 A 1.2669 1.2669 0 0 1 -20.9020 -17.6496 L -13.5987 -11.7079 A 1.0000 1.0000 0 0 0 -12.2472 -11.7901 A 17.0000 17.0000 0 0 1 -10.9268 -13.0232 A 1.0000 1.0000 0 0 0 -10.7526 -14.3660 Z" stroke="green" stroke-width="1" fill="none" /><path d="M -14.2298 -10.9322 L -21.5330 -16.8739 A 0.2669 0.2669 0 0 0 -21.9675 -16.6444 L -21.9127 -15.9948 A 1.2669 1.2669 0 0 1 -23.8628 -14.8242 L -31.3224 -19.6445 A 1.0000 1.0000 0 0 0 -32.7264 -19.3128 A 38.0000 38.0000 0 0 0 -35.8113 -12.7102 A 1.0000 1.0000 0 0 0 -35.1649 -11.4205 L -26.6814 -8.7916 A 0.2669 0.2669 0 0 0 -26.3523 -9.1399 L -26.5803 -9.7506 A 1.2669 1.2669 0 0 1 -24.8887 -11.3558 L -16.2532 -7.6049 A 1.0000 1.0000 0 0 0 -14.9740 -8.0486 A 17.0000 17.0000 0 0 1 -14.0353 -9.5923 A 1.0000 1.0000 0 0 0 -14.2298 -10.9322 Z" stroke="green" stroke-width="1" fill="none" /><path d="M -16.6516 -6.6877 L -25.2871 -10.4386 A 0.2669 0.2669 0 0 0 -25.6435 -10.1004 L -25.4155 -9.4897 A 1.2669 1.2669 0 0 1 -26.9774 -7.8364 L -35.4609 -10.4653 A 1.0000 1.0000 0 0 0 -36.7233 -9.7672 A 38.0000 38.0000 0 0 0 -37.9125 -2.5771 A 1.0000 1.0000 0 0 0 -36.9421 -1.5096 L -28.0639 -1.2670 A 0.2669 0.2669 0 0 0 -27.8410 -1.6912 L -28.2253 -2.2178 A 1.2669 1.2669 0 0 1 -27.0295 -4.2198 L -17.7022 -2.9378 A 1.0000 1.0000 0 0 0 -16.5902 -3.7103 A 17.0000 17.0000 0 0 1 -16.1028 -5.4499 A 1.0000 1.0000 0 0 0 -16.6516 -6.6877 Z" stroke="green" stroke-width="1" fill="none" /><path d="M -17.8384 -1.9471 L -27.1656 -3.2291 A 0.2669 0.2669 0 0 0 -27.4176 -2.8073 L -27.0333 -2.2808 A 1.2669 1.2669 0 0 1 -28.0912 -0.2674 L -36.9694 -0.5100 A 1.0000 1.0000 0 0 0 -37.9967 0.5029 A 38.0000 38.0000 0 0 0 -37.2019 7.7472 A 1.0000 1.0000 0 0 0 -35.9795 8.5132 L -27.3651 6.3515 A 0.2669 0.2669 0 0 0 -27.2649 5.8829 L -27.7770 5.4796 A 1.2669 1.2669 0 0 1 -27.1656 3.2291 L -17.8384 1.9471 A 1.0000 1.0000 0 0 0 -16.9760 0.9033 A 17.0000 17.0000 0 0 1 -16.9760 -0.9033 A 1.0000 1.0000 0 0 0 -17.8384 -1.9471 Z" stroke="green" stroke-width="1" fill="none" /><path d="M -17.7022 2.9378 L -27.0295 4.2198 A 0.2669 0.2669 0 0 0 -27.1583 4.6940 L -26.6462 5.0973 A 1.2669 1.2669 0 0 1 -27.1217 7.3214 L -35.7361 9.4831 A 1.0000 1.0000 0 0 0 -36.4520 10.7356 A 38.0000 38.0000 0 0 0 -33.7322 17.4968 A 1.0000 1.0000 0 0 0 -32.3485 17.9047 L -24.6367 13.4990 A 0.2669 0.2669 0 0 0 -24.6666 13.0207 L -25.2686 12.7705 A 1.2669 1.2669 0 0 1 -25.2871 10.4386 L -16.6516 6.6877 A 1.0000 1.0000 0 0 0 -16.1028 5.4499 A 17.0000 17.0000 0 0 1 -16.5902 3.7103 A 1.0000 1.0000 0 0 0 -17.7022 2.9378 Z" stroke="green" stroke-width="1" fill="none" /><path d="M -16.2532 7.6049 L -24.8887 11.3558 A 0.2669 0.2669 0 0 0 -24.8848 11.8471 L -24.2828 12.0973 A 1.2669 1.2669 0 0 1 -24.1406 14.3673 L -31.8524 18.7730 A 1.0000 1.0000 0 0 0 -32.2038 20.1721 A 38.0000 38.0000 0 0 0 -27.7607 25.9488 A 1.0000 1.0000 0 0 0 -26.3183 25.9682 L -20.0811 19.6453 A 0.2669 0.2669 0 0 0 -20.2390 19.1929 L -20.8861 19.1143 A 1.2669 1.2669 0 0 1 -21.5330 16.8739 L -14.2298 10.9322 A 1.0000 1.0000 0 0 0 -14.0353 9.5923 A 17.0000 17.0000 0 0 1 -14.9740 8.0486 A 1.0000 1.0000 0 0 0 -16.2532 7.6049 Z" stroke="green" stroke-width="1" fill="none" /><path d="M -13.5987 11.7079 L -20.9020 17.6496 A 0.2669 0.2669 0 0 0 -20.7657 18.1216 L -20.1185 18.2001 A 1.2669 1.2669 0 0 1 -19.3692 20.3476 L -25.6063 26.6705 A 1.0000 1.0000 0 0 0 -25.5672 28.1126 A 38.0000 38.0000 0 0 0 -19.7304 32.4763 A 1.0000 1.0000 0 0 0 -18.3362 32.1058 L -14.0362 24.3346 A 0.2669 0.2669 0 0 0 -14.3103 23.9415 L -14.9546 24.0405 A 1.2669 1.2669 0 0 1 -16.1820 22.0577 L -10.7526 14.3660 A 1.0000 1.0000 0 0 0 -10.9268 13.0232 A 17.0000 17.0000 0 0 1 -12.2472 11.7901 A 1.0000 1.0000 0 0 0 -13.5987 11.7079 Z" stroke="green" stroke-width="1" fill="none" /><path d="M -9.9357 14.9426 L -15.3651 22.6344 A 0.2669 0.2669 0 0 0 -15.1064 23.0521 L -14.4622 22.9531 A 1.2669 1.2669 0 0 1 -13.1612 24.8188 L -17.4612 32.5900 A 1.0000 1.0000 0 0 0 -17.0345 33.9680 A 38.0000 38.0000 0 0 0 -10.2367 36.5952 A 1.0000 1.0000 0 0 0 -8.9942 35.8623 L -6.9503 27.2192 A 0.2669 0.2669 0 0 0 -7.3203 26.9146 L -7.9140 27.1837 A 1.2669 1.2669 0 0 1 -9.6309 25.6056 L -6.4780 16.7343 A 1.0000 1.0000 0 0 0 -7.0080 15.4883 A 17.0000 17.0000 0 0 1 -8.6121 14.6571 A 1.0000 1.0000 0 0 0 -9.9357 14.9426 Z" stroke="green" stroke-width="1" fill="none" /><path d="M -5.5357 17.0691 L -8.6886 25.9405 A 0.2669 0.2669 0 0 0 -8.3269 26.2730 L -7.7332 26.0038 A 1.2669 1.2669 0 0 1 -5.9771 27.4493 L -8.0210 36.0924 A 1.0000 1.0000 0 0 0 -7.2383 37.3042 A 38.0000 38.0000 0 0 0 0.0162 38.0000 A 1.0000 1.0000 0 0 0 1.0149 36.9590 L 0.6511 28.0850 A 0.2669 0.2669 0 0 0 0.2126 27.8915 L -0.2864 28.3109 A 1.2669 1.2669 0 0 1 -2.3654 27.2544 L -1.7229 17.8615 A 1.0000 1.0000 0 0 0 -2.5694 16.8047 A 17.0000 17.0000 0 0 1 -4.3383 16.4371 A 1.0000 1.0000 0 0 0 -5.5357 17.0691 Z" stroke="green" stroke-width="1" fill="none" /><path d="M -0.7253 17.9297 L -1.3678 27.3227 A 0.2669 0.2669 0 0 0 -0.9297 27.5453 L -0.4307 27.1259 A 1.2669 1.2669 0 0 1 1.6502 28.0440 L 2.0141 36.9181 A 1.0000 1.0000 0 0 0 3.0947 37.8738 A 38.0000 38.0000 0 0 0 10.2679 36.5865 A 1.0000 1.0000 0 0 0 10.9487 35.3147 L 8.2042 26.8678 A 0.2669 0.2669 0 0 0 7.7298 26.7999 L 7.3624 27.3383 A 1.2669 1.2669 0 0 1 5.0755 26.8819 L 3.1599 17.6639 A 1.0000 1.0000 0 0 0 2.0597 16.8748 A 17.0000 17.0000 0 0 1 0.2573 16.9981 A 1.0000 1.0000 0 0 0 -0.7253 17.9297 Z" stroke="green" stroke-width="1" fill="none" /><path d="M 4.1390 17.4605 L 6.0545 26.6785 A 0.2669 0.2669 0 0 0 6.5364 26.7746 L 6.9038 26.2362 A 1.2669 1.2669 0 0 1 9.1552 26.5588 L 11.8998 35.0057 A 1.0000 1.0000 0 0 0 13.1981 35.6344 A 38.0000 38.0000 0 0 0 19.7580 32.4595 A 1.0000 1.0000 0 0 0 20.0705 31.0512 L 15.1488 23.6580 A 0.2669 0.2669 0 0 0 14.6737 23.7206 L 14.4651 24.3382 A 1.2669 1.2669 0 0 1 12.1399 24.5158 L 7.8084 16.1564 A 1.0000 1.0000 0 0 0 6.5361 15.6933 A 17.0000 17.0000 0 0 1 4.8338 16.2983 A 1.0000 1.0000 0 0 0 4.1390 17.4605 Z" stroke="green" stroke-width="1" fill="none" /><path d="M 8.6963 15.6963 L 13.0278 24.0557 A 0.2669 0.2669 0 0 0 13.5177 24.0183 L 13.7262 23.4007 A 1.2669 1.2669 0 0 1 15.9812 23.1039 L 20.9029 30.4970 A 1.0000 1.0000 0 0 0 22.3228 30.7522 A 38.0000 38.0000 0 0 0 27.7828 25.9252 A 1.0000 1.0000 0 0 0 27.7037 24.4848 L 20.9699 18.6937 A 0.2669 0.2669 0 0 0 20.5293 18.8820 L 20.4951 19.5330 A 1.2669 1.2669 0 0 1 18.3040 20.3313 L 11.8778 13.4506 A 1.0000 1.0000 0 0 0 10.5277 13.3479 A 17.0000 17.0000 0 0 1 9.0517 14.3898 A 1.0000 1.0000 0 0 0 8.6963 15.6963 Z" stroke="green" stroke-width="1" fill="none" /><path d="M 12.6086 12.7680 L 19.0348 19.6488 A 0.2669 0.2669 0 0 0 19.4965 19.4806 L 19.5306 18.8296 A 1.2669 1.2669 0 0 1 21.6219 17.9355 L 28.3558 23.7266 A 1.0000 1.0000 0 0 0 29.7918 23.5892 A 38.0000 38.0000 0 0 0 33.7471 17.4681 A 1.0000 1.0000 0 0 0 33.2823 16.1024 L 25.2358 12.3428 A 0.2669 0.2669 0 0 0 24.8623 12.6431 L 25.0050 13.2791 A 1.2669 1.2669 0 0 1 23.1106 14.6390 L 15.0663 9.7472 A 1.0000 1.0000 0 0 0 13.7385 10.0126 A 17.0000 17.0000 0 0 1 12.5984 11.4140 A 1.0000 1.0000 0 0 0 12.6086 12.7680 Z" stroke="green" stroke-width="1" fill="none" /><path d="M 15.5858 8.8928 L 23.6301 13.7846 A 0.2669 0.2669 0 0 0 24.0293 13.4981 L 23.8866 12.8621 A 1.2669 1.2669 0 0 1 25.6591 11.4368 L 33.7056 15.1964 A 1.0000 1.0000 0 0 0 35.0513 14.6767 A 38.0000 38.0000 0 0 0 37.2085 7.7155 A 1.0000 1.0000 0 0 0 36.3925 6.5259 L 27.6300 5.0766 A 0.2669 0.2669 0 0 0 27.3514 5.4665 L 27.6604 6.0404 A 1.2669 1.2669 0 0 1 26.2031 7.8610 L 17.1373 5.3209 A 1.0000 1.0000 0 0 0 15.9304 5.9347 A 17.0000 17.0000 0 0 1 15.2107 7.5918 A 1.0000 1.0000 0 0 0 15.5858 8.8928 Z" stroke="green" stroke-width="1" fill="none" /><path d="M 17.4071 4.3580 L 26.4729 6.8981 A 0.2669 0.2669 0 0 0 26.7800 6.5145 L 26.4709 5.9406 A 1.2669 1.2669 0 0 1 27.7932 4.0900 L 36.5557 5.5393 A 1.0000 1.0000 0 0 0 37.7112 4.6757 A 38.0000 38.0000 0 0 0 37.9103 -2.6093 A 1.0000 1.0000 0 0 0 36.8036 -3.5347 L 27.9751 -2.5661 A 0.2669 0.2669 0 0 0 27.8120 -2.1155 L 28.2644 -1.6462 A 1.2669 1.2669 0 0 1 27.3523 0.5000 L 17.9374 0.5000 A 1.0000 1.0000 0 0 0 16.9409 1.4167 A 17.0000 17.0000 0 0 1 16.6949 3.2065 A 1.0000 1.0000 0 0 0 17.4071 4.3580 Z" stroke="green" stroke-width="1" fill="none" /></svg>