0
SECTION
2
ENTITIES
0
CIRCLE
8
PARAMETRIX
10
0.0000
20
0.0000
40
42.0000
0
LINE
8
PARAMETRIX
10
8.8273
20
-0.0000
11
10.9717
21
0.0000
0
ARC
8
PARAMETRIX
10
10.9717
20
1.0000
40
1.0000
50
270.0000
51
11.7000
0
LINE
8
PARAMETRIX
10
11.9509
20
1.2028
11
11.4457
21
3.6424
0
ARC
8
PARAMETRIX
10
10.4665
20
3.4396
40
1.0000
50
11.7000
51
113.4000
0
LINE
8
PARAMETRIX
10
10.0693
20
4.3574
11
8.1013
21
3.5057
0
ARC
8
PARAMETRIX
10
7.7041
20
4.4235
40
1.0000
50
214.2000
51
293.4000
0
LINE
8
PARAMETRIX
10
6.8770
20
3.8614
11
6.1219
21
4.9726
0
ARC
8
PARAMETRIX
10
6.9489
20
5.5347
40
1.0000
50
135.0000
51
214.2000
0
LINE
8
PARAMETRIX
10
6.2418
20
6.2418
11
7.7582
21
7.7582
0
ARC
8
PARAMETRIX
10
7.0511
20
8.4653
40
1.0000
50
315.0000
51
56.7000
0
LINE
8
PARAMETRIX
10
7.6001
20
9.3011
11
5.5177
21
10.6689
0
ARC
8
PARAMETRIX
10
4.9687
20
9.8331
40
1.0000
50
56.7000
51
158.4000
0
LINE
8
PARAMETRIX
10
4.0389
20
10.2012
11
3.2495
21
8.2074
0
ARC
8
PARAMETRIX
10
2.3198
20
8.5755
40
1.0000
50
259.2000
51
338.4000
0
LINE
8
PARAMETRIX
10
2.1324
20
7.5932
11
0.8126
21
7.8450
0
ARC
8
PARAMETRIX
10
1.0000
20
8.8273
40
1.0000
50
180.0000
51
259.2000
0
LINE
8
PARAMETRIX
10
0.0000
20
8.8273
11
0.0000
21
10.9717
0
ARC
8
PARAMETRIX
10
-1.0000
20
10.9717
40
1.0000
50
0.0000
51
101.7000
0
LINE
8
PARAMETRIX
10
-1.2028
20
11.9509
11
-3.6424
21
11.4457
0
ARC
8
PARAMETRIX
10
-3.4396
20
10.4665
40
1.0000
50
101.7000
51
203.4000
0
LINE
8
PARAMETRIX
10
-4.3574
20
10.0693
11
-3.5057
21
8.1013
0
ARC
8
PARAMETRIX
10
-4.4235
20
7.7041
40
1.0000
50
304.2000
51
23.4000
0
LINE
8
PARAMETRIX
10
-3.8614
20
6.8770
11
-4.9726
21
6.1219
0
ARC
8
PARAMETRIX
10
-5.5347
20
6.9489
40
1.0000
50
225.0000
51
304.2000
0
LINE
8
PARAMETRIX
10
-6.2418
20
6.2418
11
-7.7582
21
7.7582
0
ARC
8
PARAMETRIX
10
-8.4653
20
7.0511
40
1.0000
50
45.0000
51
146.7000
0
LINE
8
PARAMETRIX
10
-9.3011
20
7.6001
11
-10.6689
21
5.5177
0
ARC
8
PARAMETRIX
10
-9.8331
20
4.9687
40
1.0000
50
146.7000
51
248.4000
0
LINE
8
PARAMETRIX
10
-10.2012
20
4.0389
11
-8.2074
21
3.2495
0
ARC
8
PARAMETRIX
10
-8.5755
20
2.3198
40
1.0000
50
349.2000
51
68.4000
0
LINE
8
PARAMETRIX
10
-7.5932
20
2.1324
11
-7.8450
21
0.8126
0
ARC
8
PARAMETRIX
10
-8.8273
20
1.0000
40
1.0000
50
270.0000
51
349.2000
0
LINE
8
PARAMETRIX
10
-8.8273
20
0.0000
11
-10.9717
21
0.0000
0
ARC
8
PARAMETRIX
10
-10.9717
20
-1.0000
40
1.0000
50
90.0000
51
191.7000
0
LINE
8
PARAMETRIX
10
-11.9509
20
-1.2028
11
-11.4457
21
-3.6424
0
ARC
8
PARAMETRIX
10
-10.4665
20
-3.4396
40
1.0000
50
191.7000
51
293.4000
0
LINE
8
PARAMETRIX
10
-10.0693
20
-4.3574
11
-8.1013
21
-3.5057
0
ARC
8
PARAMETRIX
10
-7.7041
20
-4.4235
40
1.0000
50
34.2000
51
113.4000
0
LINE
8
PARAMETRIX
10
-6.8770
20
-3.8614
11
-6.1219
21
-4.9726
0
ARC
8
PARAMETRIX
10
-6.9489
20
-5.5347
40
1.0000
50
315.0000
51
34.2000
0
LINE
8
PARAMETRIX
10
-6.2418
20
-6.2418
11
-7.7582
21
-7.7582
0
ARC
8
PARAMETRIX
10
-7.0511
20
-8.4653
40
1.0000
50
135.0000
51
236.7000
0
LINE
8
PARAMETRIX
10
-7.6001
20
-9.3011
11
-5.5177
21
-10.6689
0
ARC
8
PARAMETRIX
10
-4.9687
20
-9.8331
40
1.0000
50
236.7000
51
338.4000
0
LINE
8
PARAMETRIX
10
-4.0389
20
-10.2012
11
-3.2495
21
-8.2074
0
ARC
8
PARAMETRIX
10
-2.3198
20
-8.5755
40
1.0000
50
79.2000
51
158.4000
0
LINE
8
PARAMETRIX
10
-2.1324
20
-7.5932
11
-0.8126
21
-7.8450
0
ARC
8
PARAMETRIX
10
-1.0000
20
-8.8273
40
1.0000
50
0.0000
51
79.2000
0
LINE
8
PARAMETRIX
10
-0.0000
20
-8.8273
11
-0.0000
21
-10.9717
0
ARC
8
PARAMETRIX
10
1.0000
20
-10.9717
40
1.0000
50
180.0000
51
281.7000
0
LINE
8
PARAMETRIX
10
1.2028
20
-11.9509
11
3.6424
21
-11.4457
0
ARC
8
PARAMETRIX
10
3.4396
20
-10.4665
40
1.0000
50
281.7000
51
23.4000
0
LINE
8
PARAMETRIX
10
4.3574
20
-10.0693
11
3.5057
21
-8.1013
0
ARC
8
PARAMETRIX
10
4.4235
20
-7.7041
40
1.0000
50
124.2000
51
203.4000
0
LINE
8
PARAMETRIX
10
3.8614
20
-6.8770
11
4.9726
21
-6.1219
0
ARC
8
PARAMETRIX
10
5.5347
20
-6.9489
40
1.0000
50
45.0000
51
124.2000
0
LINE
8
PARAMETRIX
10
6.2418
20
-6.2418
11
7.7582
21
-7.7582
0
ARC
8
PARAMETRIX
10
8.4653
20
-7.0511
40
1.0000
50
225.0000
51
326.7000
0
LINE
8
PARAMETRIX
10
9.3011
20
-7.6001
11
10.6689
21
-5.5177
0
ARC
8
PARAMETRIX
10
9.8331
20
-4.9687
40
1.0000
50
326.7000
51
68.4000
0
LINE
8
PARAMETRIX
10
10.2012
20
-4.0389
11
8.2074
21
-3.2495
0
ARC
8
PARAMETRIX
10
8.5755
20
-2.3198
40
1.0000
50
169.2000
51
248.4000
0
LINE
8
PARAMETRIX
10
7.5932
20
-2.1324
11
7.8450
21
-0.8126
0
ARC
8
PARAMETRIX
10
8.8273
20
-1.0000
40
1.0000
50
90.0000
51
169.2000
0
CIRCLE
8
PARAMETRIX
10
15.0000
20
0.0000
40
1.0000
0
CIRCLE
8
PARAMETRIX
10
10.6066
20
10.6066
40
1.0000
0
CIRCLE
8
PARAMETRIX
10
0.0000
20
15.0000
40
1.0000
0
CIRCLE
8
PARAMETRIX
10
-10.6066
20
10.6066
40
1.0000
0
CIRCLE
8
PARAMETRIX
10
-15.0000
20
0.0000
40
1.0000
0
CIRCLE
8
PARAMETRIX
10
-10.6066
20
-10.6066
40
1.0000
0
CIRCLE
8
PARAMETRIX
10
-0.0000
20
-15.0000
40
1.0000
0
CIRCLE
8
PARAMETRIX
10
10.6066
20
-10.6066
40
1.0000
0
CIRCLE
8
PARAMETRIX
10
40.0000
20
0.0000
40
1.0000
0
CIRCLE
8
PARAMETRIX
10
36.9552
20
15.3073
40
1.0000
0
CIRCLE
8
PARAMETRIX
10
28.2843
20
28.2843
40
1.0000
0
CIRCLE
8
PARAMETRIX
10
15.3073
20
36.9552
40
1.0000
0
CIRCLE
8
PARAMETRIX
10
0.0000
20
40.0000
40
1.0000
0
CIRCLE
8
PARAMETRIX
10
-15.3073
20
36.9552
40
1.0000
0
CIRCLE
8
PARAMETRIX
10
-28.2843
20
28.2843
40
1.0000
0
CIRCLE
8
PARAMETRIX
10
-36.9552
20
15.3073
40
1.0000
0
CIRCLE
8
PARAMETRIX
10
-40.0000
20
0.0000
40
1.0000
0
CIRCLE
8
PARAMETRIX
10
-36.9552
20
-15.3073
40
1.0000
0
CIRCLE
8
PARAMETRIX
10
-28.2843
20
-28.2843
40
1.0000
0
CIRCLE
8
PARAMETRIX
10
-15.3073
20
-36.9552
40
1.0000
0
CIRCLE
8
PARAMETRIX
10
-0.0000
20
-40.0000
40
1.0000
0
CIRCLE
8
PARAMETRIX
10
15.3073
20
-36.9552
40
1.0000
0
CIRCLE
8
PARAMETRIX
10
28.2843
20
-28.2843
40
1.0000
0
CIRCLE
8
PARAMETRIX
10
36.9552
20
-15.3073
40
1.0000
0
LINE
8
PARAMETRIX
10
17.9374
20
0.5000
11
27.3523
21
0.5000
0
ARC
8
PARAMETRIX
10
27.3523
20
0.7669
40
0.2669
50
270.0000
51
43.9517
0
LINE
8
PARAMETRIX
10
27.5445
20
0.9522
11
27.0921
21
1.4215
0
ARC
8
PARAMETRIX
10
28.0042
20
2.3008
40
1.2669
50
96.2609
51
223.9517
0
LINE
8
PARAMETRIX
10
27.8660
20
3.5602
11
36.6946
21
4.5288
0
ARC
8
PARAMETRIX
10
36.5855
20
5.5228
40
1.0000
50
276.2609
51
8.5843
0
ARC
8
PARAMETRIX
10
-0.0000
20
-0.0000
40
38.0000
50
8.5843
51
19.5896
0
ARC
8
PARAMETRIX
10
34.8584
20
12.4054
40
1.0000
50
19.5896
51
111.9130
0
LINE
8
PARAMETRIX
10
34.4852
20
13.3331
11
26.2453
21
10.0186
0
ARC
8
PARAMETRIX
10
26.3449
20
9.7709
40
0.2669
50
111.9130
51
239.6039
0
LINE
8
PARAMETRIX
10
26.2099
20
9.5407
11
26.7721
21
9.2108
0
ARC
8
PARAMETRIX
10
26.1311
20
8.1181
40
1.2669
50
285.6522
51
59.6039
0
LINE
8
PARAMETRIX
10
26.4729
20
6.8981
11
17.4071
21
4.3580
0
ARC
8
PARAMETRIX
10
17.6769
20
3.3951
40
1.0000
50
105.6522
51
190.8720
0
ARC
8
PARAMETRIX
10
-0.0000
20
-0.0000
40
17.0000
50
4.7802
51
10.8720
0
ARC
8
PARAMETRIX
10
17.9374
20
1.5000
40
1.0000
50
184.7802
51
270.0000
0
LINE
8
PARAMETRIX
10
17.1373
20
5.3209
11
26.2031
21
7.8610
0
ARC
8
PARAMETRIX
10
26.1311
20
8.1181
40
0.2669
50
285.6522
51
59.6039
0
LINE
8
PARAMETRIX
10
26.2662
20
8.3483
11
25.7039
21
8.6781
0
ARC
8
PARAMETRIX
10
26.3449
20
9.7709
40
1.2669
50
111.9130
51
239.6039
0
LINE
8
PARAMETRIX
10
25.8721
20
10.9463
11
34.1120
21
14.2609
0
ARC
8
PARAMETRIX
10
33.7388
20
15.1886
40
1.0000
50
291.9130
51
24.2365
0
ARC
8
PARAMETRIX
10
-0.0000
20
-0.0000
40
38.0000
50
24.2365
51
35.2418
0
ARC
8
PARAMETRIX
10
30.2188
20
21.3500
40
1.0000
50
35.2418
51
127.5652
0
LINE
8
PARAMETRIX
10
29.6091
20
22.1427
11
22.5691
21
16.7279
0
ARC
8
PARAMETRIX
10
22.7318
20
16.5164
40
0.2669
50
127.5652
51
255.2561
0
LINE
8
PARAMETRIX
10
22.6639
20
16.2582
11
23.2943
21
16.0923
0
ARC
8
PARAMETRIX
10
22.9719
20
14.8671
40
1.2669
50
301.3043
51
75.2561
0
LINE
8
PARAMETRIX
10
23.6301
20
13.7846
11
15.5858
21
8.8928
0
ARC
8
PARAMETRIX
10
16.1054
20
8.0384
40
1.0000
50
121.3043
51
206.5242
0
ARC
8
PARAMETRIX
10
-0.0000
20
-0.0000
40
17.0000
50
20.4324
51
26.5242
0
ARC
8
PARAMETRIX
10
16.8675
20
6.2838
40
1.0000
50
200.4324
51
285.6522
0
LINE
8
PARAMETRIX
10
15.0663
20
9.7472
11
23.1106
21
14.6390
0
ARC
8
PARAMETRIX
10
22.9719
20
14.8671
40
0.2669
50
301.3043
51
75.2561
0
LINE
8
PARAMETRIX
10
23.0398
20
15.1253
11
22.4094
21
15.2911
0
ARC
8
PARAMETRIX
10
22.7318
20
16.5164
40
1.2669
50
127.5652
51
255.2561
0
LINE
8
PARAMETRIX
10
21.9594
20
17.5206
11
28.9995
21
22.9354
0
ARC
8
PARAMETRIX
10
28.3898
20
23.7280
40
1.0000
50
307.5652
51
39.8887
0
ARC
8
PARAMETRIX
10
-0.0000
20
-0.0000
40
38.0000
50
39.8887
51
50.8940
0
ARC
8
PARAMETRIX
10
23.3380
20
28.7113
40
1.0000
50
50.8940
51
143.2174
0
LINE
8
PARAMETRIX
10
22.5371
20
29.3100
11
17.2190
21
22.1967
0
ARC
8
PARAMETRIX
10
17.4328
20
22.0369
40
0.2669
50
143.2174
51
270.9082
0
LINE
8
PARAMETRIX
10
17.4371
20
21.7700
11
18.0888
21
21.7803
0
ARC
8
PARAMETRIX
10
18.1089
20
20.5135
40
1.2669
50
316.9565
51
90.9082
0
LINE
8
PARAMETRIX
10
19.0348
20
19.6488
11
12.6086
21
12.7680
0
ARC
8
PARAMETRIX
10
13.3395
20
12.0855
40
1.0000
50
136.9565
51
222.1763
0
ARC
8
PARAMETRIX
10
-0.0000
20
-0.0000
40
17.0000
50
36.0845
51
42.1763
0
ARC
8
PARAMETRIX
10
14.5467
20
10.6016
40
1.0000
50
216.0845
51
301.3043
0
LINE
8
PARAMETRIX
10
11.8778
20
13.4506
11
18.3040
21
20.3313
0
ARC
8
PARAMETRIX
10
18.1089
20
20.5135
40
0.2669
50
316.9565
51
90.9082
0
LINE
8
PARAMETRIX
10
18.1047
20
20.7804
11
17.4529
21
20.7701
0
ARC
8
PARAMETRIX
10
17.4328
20
22.0369
40
1.2669
50
143.2174
51
270.9082
0
LINE
8
PARAMETRIX
10
16.4181
20
22.7955
11
21.7362
21
29.9088
0
ARC
8
PARAMETRIX
10
20.9353
20
30.5076
40
1.0000
50
323.2174
51
55.5408
0
ARC
8
PARAMETRIX
10
-0.0000
20
-0.0000
40
38.0000
50
55.5408
51
66.5461
0
ARC
8
PARAMETRIX
10
14.7264
20
33.9431
40
1.0000
50
66.5461
51
158.8696
0
LINE
8
PARAMETRIX
10
13.7936
20
34.3036
11
10.5919
21
26.0192
0
ARC
8
PARAMETRIX
10
10.8409
20
25.9230
40
0.2669
50
158.8696
51
286.5604
0
LINE
8
PARAMETRIX
10
10.9170
20
25.6671
11
11.5418
21
25.8529
0
ARC
8
PARAMETRIX
10
11.9029
20
24.6386
40
1.2669
50
332.6087
51
106.5604
0
LINE
8
PARAMETRIX
10
13.0278
20
24.0557
11
8.6963
21
15.6963
0
ARC
8
PARAMETRIX
10
9.5842
20
15.2362
40
1.0000
50
152.6087
51
237.8285
0
ARC
8
PARAMETRIX
10
-0.0000
20
-0.0000
40
17.0000
50
51.7367
51
57.8285
0
ARC
8
PARAMETRIX
10
11.1470
20
14.1331
40
1.0000
50
231.7367
51
316.9565
0
LINE
8
PARAMETRIX
10
7.8084
20
16.1564
11
12.1399
21
24.5158
0
ARC
8
PARAMETRIX
10
11.9029
20
24.6386
40
0.2669
50
332.6087
51
106.5604
0
LINE
8
PARAMETRIX
10
11.8268
20
24.8944
11
11.2020
21
24.7086
0
ARC
8
PARAMETRIX
10
10.8409
20
25.9230
40
1.2669
50
158.8696
51
286.5604
0
LINE
8
PARAMETRIX
10
9.6591
20
26.3797
11
12.8609
21
34.6641
0
ARC
8
PARAMETRIX
10
11.9281
20
35.0246
40
1.0000
50
338.8696
51
71.1930
0
ARC
8
PARAMETRIX
10
-0.0000
20
-0.0000
40
38.0000
50
71.1930
51
82.1983
0
ARC
8
PARAMETRIX
10
5.0226
20
36.6575
40
1.0000
50
82.1983
51
174.5217
0
LINE
8
PARAMETRIX
10
4.0271
20
36.7530
11
3.1792
21
27.9120
0
ARC
8
PARAMETRIX
10
3.4449
20
27.8865
40
0.2669
50
174.5217
51
302.2126
0
LINE
8
PARAMETRIX
10
3.5872
20
27.6607
11
4.1387
21
28.0082
0
ARC
8
PARAMETRIX
10
4.8141
20
26.9363
40
1.2669
50
348.2609
51
122.2126
0
LINE
8
PARAMETRIX
10
6.0545
20
26.6785
11
4.1390
21
17.4605
0
ARC
8
PARAMETRIX
10
5.1181
20
17.2570
40
1.0000
50
168.2609
51
253.4807
0
ARC
8
PARAMETRIX
10
-0.0000
20
-0.0000
40
17.0000
50
67.3889
51
73.4807
0
ARC
8
PARAMETRIX
10
6.9205
20
16.6164
40
1.0000
50
247.3889
51
332.6087
0
LINE
8
PARAMETRIX
10
3.1599
20
17.6639
11
5.0755
21
26.8819
0
ARC
8
PARAMETRIX
10
4.8141
20
26.9363
40
0.2669
50
348.2609
51
122.2126
0
LINE
8
PARAMETRIX
10
4.6718
20
27.1621
11
4.1203
21
26.8146
0
ARC
8
PARAMETRIX
10
3.4449
20
27.8865
40
1.2669
50
174.5217
51
302.2126
0
LINE
8
PARAMETRIX
10
2.1838
20
28.0075
11
3.0317
21
36.8485
0
ARC
8
PARAMETRIX
10
2.0363
20
36.9439
40
1.0000
50
354.5217
51
86.8452
0
ARC
8
PARAMETRIX
10
-0.0000
20
-0.0000
40
38.0000
50
86.8452
51
97.8505
0
ARC
8
PARAMETRIX
10
-5.0538
20
36.6532
40
1.0000
50
97.8505
51
190.1739
0
LINE
8
PARAMETRIX
10
-6.0380
20
36.4766
11
-4.4692
21
27.7347
0
ARC
8
PARAMETRIX
10
-4.2065
20
27.7819
40
0.2669
50
190.1739
51
317.8648
0
LINE
8
PARAMETRIX
10
-4.0086
20
27.6028
11
-3.5712
21
28.0862
0
ARC
8
PARAMETRIX
10
-2.6317
20
27.2362
40
1.2669
50
3.9130
51
137.8648
0
LINE
8
PARAMETRIX
10
-1.3678
20
27.3227
11
-0.7253
21
17.9297
0
ARC
8
PARAMETRIX
10
0.2724
20
17.9979
40
1.0000
50
183.9130
51
269.1329
0
ARC
8
PARAMETRIX
10
-0.0000
20
-0.0000
40
17.0000
50
83.0411
51
89.1329
0
ARC
8
PARAMETRIX
10
2.1808
20
17.8674
40
1.0000
50
263.0411
51
348.2609
0
LINE
8
PARAMETRIX
10
-1.7229
20
17.8615
11
-2.3654
21
27.2544
0
ARC
8
PARAMETRIX
10
-2.6317
20
27.2362
40
0.2669
50
3.9130
51
137.8648
0
LINE
8
PARAMETRIX
10
-2.8297
20
27.4153
11
-3.2670
21
26.9319
0
ARC
8
PARAMETRIX
10
-4.2065
20
27.7819
40
1.2669
50
190.1739
51
317.8648
0
LINE
8
PARAMETRIX
10
-5.4535
20
27.5581
11
-7.0223
21
36.3000
0
ARC
8
PARAMETRIX
10
-8.0066
20
36.1233
40
1.0000
50
10.1739
51
102.4974
0
ARC
8
PARAMETRIX
10
0.0000
20
-0.0000
40
38.0000
50
102.4974
51
113.5026
0
ARC
8
PARAMETRIX
10
-14.7553
20
33.9305
40
1.0000
50
113.5026
51
205.8261
0
LINE
8
PARAMETRIX
10
-15.6554
20
33.4949
11
-11.7862
21
25.5005
0
ARC
8
PARAMETRIX
10
-11.5460
20
25.6167
40
0.2669
50
205.8261
51
333.5169
0
LINE
8
PARAMETRIX
10
-11.3071
20
25.4977
11
-11.0164
21
26.0812
0
ARC
8
PARAMETRIX
10
-9.8824
20
25.5162
40
1.2669
50
19.5652
51
153.5169
0
LINE
8
PARAMETRIX
10
-8.6886
20
25.9405
11
-5.5357
21
17.0691
0
ARC
8
PARAMETRIX
10
-4.5935
20
17.4040
40
1.0000
50
199.5652
51
284.7850
0
ARC
8
PARAMETRIX
10
-0.0000
20
-0.0000
40
17.0000
50
98.6932
51
104.7850
0
ARC
8
PARAMETRIX
10
-2.7206
20
17.7932
40
1.0000
50
278.6932
51
3.9130
0
LINE
8
PARAMETRIX
10
-6.4780
20
16.7343
11
-9.6309
21
25.6056
0
ARC
8
PARAMETRIX
10
-9.8824
20
25.5162
40
0.2669
50
19.5652
51
153.5169
0
LINE
8
PARAMETRIX
10
-10.1213
20
25.6352
11
-10.4120
21
25.0518
0
ARC
8
PARAMETRIX
10
-11.5460
20
25.6167
40
1.2669
50
205.8261
51
333.5169
0
LINE
8
PARAMETRIX
10
-12.6864
20
25.0648
11
-16.5555
21
33.0593
0
ARC
8
PARAMETRIX
10
-17.4556
20
32.6236
40
1.0000
50
25.8261
51
118.1495
0
ARC
8
PARAMETRIX
10
0.0000
20
-0.0000
40
38.0000
50
118.1495
51
129.1548
0
ARC
8
PARAMETRIX
10
-23.3625
20
28.6914
40
1.0000
50
129.1548
51
221.4783
0
LINE
8
PARAMETRIX
10
-24.1117
20
28.0290
11
-18.2291
21
21.3749
0
ARC
8
PARAMETRIX
10
-18.0291
20
21.5517
40
0.2669
50
221.4783
51
349.1691
0
LINE
8
PARAMETRIX
10
-17.7670
20
21.5016
11
-17.6445
21
22.1418
0
ARC
8
PARAMETRIX
10
-16.4001
20
21.9037
40
1.2669
50
35.2174
51
169.1691
0
LINE
8
PARAMETRIX
10
-15.3651
20
22.6344
11
-9.9357
21
14.9426
0
ARC
8
PARAMETRIX
10
-9.1187
20
15.5193
40
1.0000
50
215.2174
51
300.4372
0
ARC
8
PARAMETRIX
10
0.0000
20
-0.0000
40
17.0000
50
114.3454
51
120.4372
0
ARC
8
PARAMETRIX
10
-7.4203
20
16.3994
40
1.0000
50
294.3454
51
19.5652
0
LINE
8
PARAMETRIX
10
-10.7526
20
14.3660
11
-16.1820
21
22.0577
0
ARC
8
PARAMETRIX
10
-16.4001
20
21.9037
40
0.2669
50
35.2174
51
169.1691
0
LINE
8
PARAMETRIX
10
-16.6623
20
21.9539
11
-16.7848
21
21.3137
0
ARC
8
PARAMETRIX
10
-18.0291
20
21.5517
40
1.2669
50
221.4783
51
349.1691
0
LINE
8
PARAMETRIX
10
-18.9783
20
20.7126
11
-24.8609
21
27.3667
0
ARC
8
PARAMETRIX
10
-25.6101
20
26.7044
40
1.0000
50
41.4783
51
133.8017
0
ARC
8
PARAMETRIX
10
0.0000
20
-0.0000
40
38.0000
50
133.8017
51
144.8070
0
ARC
8
PARAMETRIX
10
-30.2370
20
21.3243
40
1.0000
50
144.8070
51
237.1304
0
LINE
8
PARAMETRIX
10
-30.7797
20
20.4844
11
-23.3200
21
15.6641
0
ARC
8
PARAMETRIX
10
-23.1752
20
15.8883
40
0.2669
50
237.1304
51
4.8213
0
LINE
8
PARAMETRIX
10
-22.9092
20
15.9108
11
-22.9640
21
16.5603
0
ARC
8
PARAMETRIX
10
-21.7015
20
16.6668
40
1.2669
50
50.8696
51
184.8213
0
LINE
8
PARAMETRIX
10
-20.9020
20
17.6496
11
-13.5987
21
11.7079
0
ARC
8
PARAMETRIX
10
-12.9676
20
12.4836
40
1.0000
50
230.8696
51
316.0894
0
ARC
8
PARAMETRIX
10
0.0000
20
-0.0000
40
17.0000
50
129.9976
51
136.0894
0
ARC
8
PARAMETRIX
10
-11.5696
20
13.7893
40
1.0000
50
309.9976
51
35.2174
0
LINE
8
PARAMETRIX
10
-14.2298
20
10.9322
11
-21.5330
21
16.8739
0
ARC
8
PARAMETRIX
10
-21.7015
20
16.6668
40
0.2669
50
50.8696
51
184.8213
0
LINE
8
PARAMETRIX
10
-21.9675
20
16.6444
11
-21.9127
21
15.9948
0
ARC
8
PARAMETRIX
10
-23.1752
20
15.8883
40
1.2669
50
237.1304
51
4.8213
0
LINE
8
PARAMETRIX
10
-23.8628
20
14.8242
11
-31.3224
21
19.6445
0
ARC
8
PARAMETRIX
10
-31.8652
20
18.8046
40
1.0000
50
57.1304
51
149.4539
0
ARC
8
PARAMETRIX
10
0.0000
20
-0.0000
40
38.0000
50
149.4539
51
160.4592
0
ARC
8
PARAMETRIX
10
-34.8689
20
12.3757
40
1.0000
50
160.4592
51
252.7826
0
LINE
8
PARAMETRIX
10
-35.1649
20
11.4205
11
-26.6814
21
8.7916
0
ARC
8
PARAMETRIX
10
-26.6024
20
9.0466
40
0.2669
50
252.7826
51
20.4735
0
LINE
8
PARAMETRIX
10
-26.3523
20
9.1399
11
-26.5803
21
9.7506
0
ARC
8
PARAMETRIX
10
-25.3934
20
10.1938
40
1.2669
50
66.5217
51
200.4735
0
LINE
8
PARAMETRIX
10
-24.8887
20
11.3558
11
-16.2532
21
7.6049
0
ARC
8
PARAMETRIX
10
-15.8548
20
8.5221
40
1.0000
50
246.5217
51
331.7415
0
ARC
8
PARAMETRIX
10
0.0000
20
-0.0000
40
17.0000
50
145.6498
51
151.7415
0
ARC
8
PARAMETRIX
10
-14.8609
20
10.1565
40
1.0000
50
325.6498
51
50.8696
0
LINE
8
PARAMETRIX
10
-16.6516
20
6.6877
11
-25.2871
21
10.4386
0
ARC
8
PARAMETRIX
10
-25.3934
20
10.1938
40
0.2669
50
66.5217
51
200.4735
0
LINE
8
PARAMETRIX
10
-25.6435
20
10.1004
11
-25.4155
21
9.4897
0
ARC
8
PARAMETRIX
10
-26.6024
20
9.0466
40
1.2669
50
252.7826
51
20.4735
0
LINE
8
PARAMETRIX
10
-26.9774
20
7.8364
11
-35.4609
21
10.4653
0
ARC
8
PARAMETRIX
10
-35.7569
20
9.5101
40
1.0000
50
72.7826
51
165.1060
0
ARC
8
PARAMETRIX
10
0.0000
20
0.0000
40
38.0000
50
165.1060
51
176.1113
0
ARC
8
PARAMETRIX
10
-36.9148
20
2.5093
40
1.0000
50
176.1113
51
268.4348
0
LINE
8
PARAMETRIX
10
-36.9421
20
1.5096
11
-28.0639
21
1.2670
0
ARC
8
PARAMETRIX
10
-28.0566
20
1.5339
40
0.2669
50
268.4348
51
36.1256
0
LINE
8
PARAMETRIX
10
-27.8410
20
1.6912
11
-28.2253
21
2.2178
0
ARC
8
PARAMETRIX
10
-27.2020
20
2.9647
40
1.2669
50
82.1739
51
216.1256
0
LINE
8
PARAMETRIX
10
-27.0295
20
4.2198
11
-17.7022
21
2.9378
0
ARC
8
PARAMETRIX
10
-17.5661
20
3.9285
40
1.0000
50
262.1739
51
347.3937
0
ARC
8
PARAMETRIX
10
0.0000
20
-0.0000
40
17.0000
50
161.3019
51
167.3937
0
ARC
8
PARAMETRIX
10
-17.0500
20
5.7705
40
1.0000
50
341.3019
51
66.5217
0
LINE
8
PARAMETRIX
10
-17.8384
20
1.9471
11
-27.1656
21
3.2291
0
ARC
8
PARAMETRIX
10
-27.2020
20
2.9647
40
0.2669
50
82.1739
51
216.1256
0
LINE
8
PARAMETRIX
10
-27.4176
20
2.8073
11
-27.0333
21
2.2808
0
ARC
8
PARAMETRIX
10
-28.0566
20
1.5339
40
1.2669
50
268.4348
51
36.1256
0
LINE
8
PARAMETRIX
10
-28.0912
20
0.2674
11
-36.9694
21
0.5100
0
ARC
8
PARAMETRIX
10
-36.9968
20
-0.4896
40
1.0000
50
88.4348
51
180.7582
0
ARC
8
PARAMETRIX
10
0.0000
20
0.0000
40
38.0000
50
180.7582
51
191.7635
0
ARC
8
PARAMETRIX
10
-36.2229
20
-7.5433
40
1.0000
50
191.7635
51
284.0870
0
LINE
8
PARAMETRIX
10
-35.9795
20
-8.5132
11
-27.3651
21
-6.3515
0
ARC
8
PARAMETRIX
10
-27.4300
20
-6.0926
40
0.2669
50
284.0870
51
51.7778
0
LINE
8
PARAMETRIX
10
-27.2649
20
-5.8829
11
-27.7770
21
-5.4796
0
ARC
8
PARAMETRIX
10
-26.9931
20
-4.4843
40
1.2669
50
97.8261
51
231.7778
0
LINE
8
PARAMETRIX
10
-27.1656
20
-3.2291
11
-17.8384
21
-1.9471
0
ARC
8
PARAMETRIX
10
-17.9746
20
-0.9564
40
1.0000
50
277.8261
51
3.0459
0
ARC
8
PARAMETRIX
10
0.0000
20
-0.0000
40
17.0000
50
176.9541
51
183.0459
0
ARC
8
PARAMETRIX
10
-17.9746
20
0.9564
40
1.0000
50
356.9541
51
82.1739
0
LINE
8
PARAMETRIX
10
-17.7022
20
-2.9378
11
-27.0295
21
-4.2198
0
ARC
8
PARAMETRIX
10
-26.9931
20
-4.4843
40
0.2669
50
97.8261
51
231.7778
0
LINE
8
PARAMETRIX
10
-27.1583
20
-4.6940
11
-26.6462
21
-5.0973
0
ARC
8
PARAMETRIX
10
-27.4300
20
-6.0926
40
1.2669
50
284.0870
51
51.7778
0
LINE
8
PARAMETRIX
10
-27.1217
20
-7.3214
11
-35.7361
21
-9.4831
0
ARC
8
PARAMETRIX
10
-35.4927
20
-10.4531
40
1.0000
50
104.0870
51
196.4104
0
ARC
8
PARAMETRIX
10
0.0000
20
0.0000
40
38.0000
50
196.4104
51
207.4157
0
ARC
8
PARAMETRIX
10
-32.8445
20
-17.0364
40
1.0000
50
207.4157
51
299.7391
0
LINE
8
PARAMETRIX
10
-32.3485
20
-17.9047
11
-24.6367
21
-13.4990
0
ARC
8
PARAMETRIX
10
-24.7691
20
-13.2672
40
0.2669
50
299.7391
51
67.4300
0
LINE
8
PARAMETRIX
10
-24.6666
20
-13.0207
11
-25.2686
21
-12.7705
0
ARC
8
PARAMETRIX
10
-24.7823
20
-11.6006
40
1.2669
50
113.4783
51
247.4300
0
LINE
8
PARAMETRIX
10
-25.2871
20
-10.4386
11
-16.6516
21
-6.6877
0
ARC
8
PARAMETRIX
10
-17.0500
20
-5.7705
40
1.0000
50
293.4783
51
18.6981
0
ARC
8
PARAMETRIX
10
0.0000
20
0.0000
40
17.0000
50
192.6063
51
198.6981
0
ARC
8
PARAMETRIX
10
-17.5661
20
-3.9285
40
1.0000
50
12.6063
51
97.8261
0
LINE
8
PARAMETRIX
10
-16.2532
20
-7.6049
11
-24.8887
21
-11.3558
0
ARC
8
PARAMETRIX
10
-24.7823
20
-11.6006
40
0.2669
50
113.4783
51
247.4300
0
LINE
8
PARAMETRIX
10
-24.8848
20
-11.8471
11
-24.2828
21
-12.0973
0
ARC
8
PARAMETRIX
10
-24.7691
20
-13.2672
40
1.2669
50
299.7391
51
67.4300
0
LINE
8
PARAMETRIX
10
-24.1406
20
-14.3673
11
-31.8524
21
-18.7730
0
ARC
8
PARAMETRIX
10
-31.3563
20
-19.6413
40
1.0000
50
119.7391
51
212.0626
0
ARC
8
PARAMETRIX
10
0.0000
20
0.0000
40
38.0000
50
212.0626
51
223.0679
0
ARC
8
PARAMETRIX
10
-27.0302
20
-25.2660
40
1.0000
50
223.0679
51
315.3913
0
LINE
8
PARAMETRIX
10
-26.3183
20
-25.9682
11
-20.0811
21
-19.6453
0
ARC
8
PARAMETRIX
10
-20.2711
20
-19.4578
40
0.2669
50
315.3913
51
83.0822
0
LINE
8
PARAMETRIX
10
-20.2390
20
-19.1929
11
-20.8861
21
-19.1143
0
ARC
8
PARAMETRIX
10
-20.7335
20
-17.8566
40
1.2669
50
129.1304
51
263.0822
0
LINE
8
PARAMETRIX
10
-21.5330
20
-16.8739
11
-14.2298
21
-10.9322
0
ARC
8
PARAMETRIX
10
-14.8609
20
-10.1565
40
1.0000
50
309.1304
51
34.3502
0
ARC
8
PARAMETRIX
10
0.0000
20
0.0000
40
17.0000
50
208.2585
51
214.3502
0
ARC
8
PARAMETRIX
10
-15.8548
20
-8.5221
40
1.0000
50
28.2585
51
113.4783
0
LINE
8
PARAMETRIX
10
-13.5987
20
-11.7079
11
-20.9020
21
-17.6496
0
ARC
8
PARAMETRIX
10
-20.7335
20
-17.8566
40
0.2669
50
129.1304
51
263.0822
0
LINE
8
PARAMETRIX
10
-20.7657
20
-18.1216
11
-20.1185
21
-18.2001
0
ARC
8
PARAMETRIX
10
-20.2711
20
-19.4578
40
1.2669
50
315.3913
51
83.0822
0
LINE
8
PARAMETRIX
10
-19.3692
20
-20.3476
11
-25.6063
21
-26.6705
0
ARC
8
PARAMETRIX
10
-24.8944
20
-27.3728
40
1.0000
50
135.3913
51
227.7147
0
ARC
8
PARAMETRIX
10
0.0000
20
0.0000
40
38.0000
50
227.7147
51
238.7200
0
ARC
8
PARAMETRIX
10
-19.2111
20
-31.6217
40
1.0000
50
238.7200
51
331.0435
0
LINE
8
PARAMETRIX
10
-18.3362
20
-32.1058
11
-14.0362
21
-24.3346
0
ARC
8
PARAMETRIX
10
-14.2698
20
-24.2054
40
0.2669
50
331.0435
51
98.7343
0
LINE
8
PARAMETRIX
10
-14.3103
20
-23.9415
11
-14.9546
21
-24.0405
0
ARC
8
PARAMETRIX
10
-15.1470
20
-22.7883
40
1.2669
50
144.7826
51
278.7343
0
LINE
8
PARAMETRIX
10
-16.1820
20
-22.0577
11
-10.7526
21
-14.3660
0
ARC
8
PARAMETRIX
10
-11.5696
20
-13.7893
40
1.0000
50
324.7826
51
50.0024
0
ARC
8
PARAMETRIX
10
0.0000
20
0.0000
40
17.0000
50
223.9106
51
230.0024
0
ARC
8
PARAMETRIX
10
-12.9676
20
-12.4836
40
1.0000
50
43.9106
51
129.1304
0
LINE
8
PARAMETRIX
10
-9.9357
20
-14.9426
11
-15.3651
21
-22.6344
0
ARC
8
PARAMETRIX
10
-15.1470
20
-22.7883
40
0.2669
50
144.7826
51
278.7343
0
LINE
8
PARAMETRIX
10
-15.1064
20
-23.0521
11
-14.4622
21
-22.9531
0
ARC
8
PARAMETRIX
10
-14.2698
20
-24.2054
40
1.2669
50
331.0435
51
98.7343
0
LINE
8
PARAMETRIX
10
-13.1612
20
-24.8188
11
-17.4612
21
-32.5900
0
ARC
8
PARAMETRIX
10
-16.5862
20
-33.0741
40
1.0000
50
151.0435
51
243.3669
0
ARC
8
PARAMETRIX
10
0.0000
20
0.0000
40
38.0000
50
243.3669
51
254.3722
0
ARC
8
PARAMETRIX
10
-9.9673
20
-35.6322
40
1.0000
50
254.3722
51
346.6957
0
LINE
8
PARAMETRIX
10
-8.9942
20
-35.8623
11
-6.9503
21
-27.2192
0
ARC
8
PARAMETRIX
10
-7.2101
20
-27.1577
40
0.2669
50
346.6957
51
114.3865
0
LINE
8
PARAMETRIX
10
-7.3203
20
-26.9146
11
-7.9140
21
-27.1837
0
ARC
8
PARAMETRIX
10
-8.4371
20
-26.0299
40
1.2669
50
160.4348
51
294.3865
0
LINE
8
PARAMETRIX
10
-9.6309
20
-25.6056
11
-6.4780
21
-16.7343
0
ARC
8
PARAMETRIX
10
-7.4203
20
-16.3994
40
1.0000
50
340.4348
51
65.6546
0
ARC
8
PARAMETRIX
10
0.0000
20
0.0000
40
17.0000
50
239.5628
51
245.6546
0
ARC
8
PARAMETRIX
10
-9.1187
20
-15.5193
40
1.0000
50
59.5628
51
144.7826
0
LINE
8
PARAMETRIX
10
-5.5357
20
-17.0691
11
-8.6886
21
-25.9405
0
ARC
8
PARAMETRIX
10
-8.4371
20
-26.0299
40
0.2669
50
160.4348
51
294.3865
0
LINE
8
PARAMETRIX
10
-8.3269
20
-26.2730
11
-7.7332
21
-26.0038
0
ARC
8
PARAMETRIX
10
-7.2101
20
-27.1577
40
1.2669
50
346.6957
51
114.3865
0
LINE
8
PARAMETRIX
10
-5.9771
20
-27.4493
11
-8.0210
21
-36.0924
0
ARC
8
PARAMETRIX
10
-7.0478
20
-36.3226
40
1.0000
50
166.6957
51
259.0191
0
ARC
8
PARAMETRIX
10
0.0000
20
0.0000
40
38.0000
50
259.0191
51
270.0244
0
ARC
8
PARAMETRIX
10
0.0157
20
-37.0000
40
1.0000
50
270.0244
51
2.3478
0
LINE
8
PARAMETRIX
10
1.0149
20
-36.9590
11
0.6511
21
-28.0850
0
ARC
8
PARAMETRIX
10
0.3844
20
-28.0959
40
0.2669
50
2.3478
51
130.0387
0
LINE
8
PARAMETRIX
10
0.2126
20
-27.8915
11
-0.2864
21
-28.3109
0
ARC
8
PARAMETRIX
10
-1.1014
20
-27.3409
40
1.2669
50
176.0870
51
310.0387
0
LINE
8
PARAMETRIX
10
-2.3654
20
-27.2544
11
-1.7229
21
-17.8615
0
ARC
8
PARAMETRIX
10
-2.7206
20
-17.7932
40
1.0000
50
356.0870
51
81.3068
0
ARC
8
PARAMETRIX
10
0.0000
20
0.0000
40
17.0000
50
255.2150
51
261.3068
0
ARC
8
PARAMETRIX
10
-4.5935
20
-17.4040
40
1.0000
50
75.2150
51
160.4348
0
LINE
8
PARAMETRIX
10
-0.7253
20
-17.9297
11
-1.3678
21
-27.3227
0
ARC
8
PARAMETRIX
10
-1.1014
20
-27.3409
40
0.2669
50
176.0870
51
310.0387
0
LINE
8
PARAMETRIX
10
-0.9297
20
-27.5453
11
-0.4307
21
-27.1259
0
ARC
8
PARAMETRIX
10
0.3844
20
-28.0959
40
1.2669
50
2.3478
51
130.0387
0
LINE
8
PARAMETRIX
10
1.6502
20
-28.0440
11
2.0141
21
-36.9181
0
ARC
8
PARAMETRIX
10
3.0132
20
-36.8771
40
1.0000
50
182.3478
51
274.6713
0
ARC
8
PARAMETRIX
10
0.0000
20
0.0000
40
38.0000
50
274.6713
51
285.6766
0
ARC
8
PARAMETRIX
10
9.9976
20
-35.6237
40
1.0000
50
285.6766
51
18.0000
0
LINE
8
PARAMETRIX
10
10.9487
20
-35.3147
11
8.2042
21
-26.8678
0
ARC
8
PARAMETRIX
10
7.9503
20
-26.9503
40
0.2669
50
18.0000
51
145.6909
0
LINE
8
PARAMETRIX
10
7.7298
20
-26.7999
11
7.3624
21
-27.3383
0
ARC
8
PARAMETRIX
10
6.3159
20
-26.6242
40
1.2669
50
191.7391
51
325.6909
0
LINE
8
PARAMETRIX
10
5.0755
20
-26.8819
11
3.1599
21
-17.6639
0
ARC
8
PARAMETRIX
10
2.1808
20
-17.8674
40
1.0000
50
11.7391
51
96.9589
0
ARC
8
PARAMETRIX
10
-0.0000
20
0.0000
40
17.0000
50
270.8671
51
276.9589
0
ARC
8
PARAMETRIX
10
0.2724
20
-17.9979
40
1.0000
50
90.8671
51
176.0870
0
LINE
8
PARAMETRIX
10
4.1390
20
-17.4605
11
6.0545
21
-26.6785
0
ARC
8
PARAMETRIX
10
6.3159
20
-26.6242
40
0.2669
50
191.7391
51
325.6909
0
LINE
8
PARAMETRIX
10
6.5364
20
-26.7746
11
6.9038
21
-26.2362
0
ARC
8
PARAMETRIX
10
7.9503
20
-26.9503
40
1.2669
50
18.0000
51
145.6909
0
LINE
8
PARAMETRIX
10
9.1552
20
-26.5588
11
11.8998
21
-35.0057
0
ARC
8
PARAMETRIX
10
12.8508
20
-34.6966
40
1.0000
50
198.0000
51
290.3234
0
ARC
8
PARAMETRIX
10
-0.0000
20
0.0000
40
38.0000
50
290.3234
51
301.3287
0
ARC
8
PARAMETRIX
10
19.2381
20
-31.6053
40
1.0000
50
301.3287
51
33.6522
0
LINE
8
PARAMETRIX
10
20.0705
20
-31.0512
11
15.1488
21
-23.6580
0
ARC
8
PARAMETRIX
10
14.9266
20
-23.8060
40
0.2669
50
33.6522
51
161.3430
0
LINE
8
PARAMETRIX
10
14.6737
20
-23.7206
11
14.4651
21
-24.3382
0
ARC
8
PARAMETRIX
10
13.2648
20
-23.9329
40
1.2669
50
207.3913
51
341.3430
0
LINE
8
PARAMETRIX
10
12.1399
20
-24.5158
11
7.8084
21
-16.1564
0
ARC
8
PARAMETRIX
10
6.9205
20
-16.6164
40
1.0000
50
27.3913
51
112.6111
0
ARC
8
PARAMETRIX
10
-0.0000
20
0.0000
40
17.0000
50
286.5193
51
292.6111
0
ARC
8
PARAMETRIX
10
5.1181
20
-17.2570
40
1.0000
50
106.5193
51
191.7391
0
LINE
8
PARAMETRIX
10
8.6963
20
-15.6963
11
13.0278
21
-24.0557
0
ARC
8
PARAMETRIX
10
13.2648
20
-23.9329
40
0.2669
50
207.3913
51
341.3430
0
LINE
8
PARAMETRIX
10
13.5177
20
-24.0183
11
13.7262
21
-23.4007
0
ARC
8
PARAMETRIX
10
14.9266
20
-23.8060
40
1.2669
50
33.6522
51
161.3430
0
LINE
8
PARAMETRIX
10
15.9812
20
-23.1039
11
20.9029
21
-30.4970
0
ARC
8
PARAMETRIX
10
21.7353
20
-29.9429
40
1.0000
50
213.6522
51
305.9756
0
ARC
8
PARAMETRIX
10
-0.0000
20
0.0000
40
38.0000
50
305.9756
51
316.9809
0
ARC
8
PARAMETRIX
10
27.0517
20
-25.2430
40
1.0000
50
316.9809
51
49.3043
0
LINE
8
PARAMETRIX
10
27.7037
20
-24.4848
11
20.9699
21
-18.6937
0
ARC
8
PARAMETRIX
10
20.7958
20
-18.8960
40
0.2669
50
49.3043
51
176.9952
0
LINE
8
PARAMETRIX
10
20.5293
20
-18.8820
11
20.4951
21
-19.5330
0
ARC
8
PARAMETRIX
10
19.2299
20
-19.4666
40
1.2669
50
223.0435
51
356.9952
0
LINE
8
PARAMETRIX
10
18.3040
20
-20.3313
11
11.8778
21
-13.4506
0
ARC
8
PARAMETRIX
10
11.1470
20
-14.1331
40
1.0000
50
43.0435
51
128.2633
0
ARC
8
PARAMETRIX
10
-0.0000
20
0.0000
40
17.0000
50
302.1715
51
308.2633
0
ARC
8
PARAMETRIX
10
9.5842
20
-15.2362
40
1.0000
50
122.1715
51
207.3913
0
LINE
8
PARAMETRIX
10
12.6086
20
-12.7680
11
19.0348
21
-19.6488
0
ARC
8
PARAMETRIX
10
19.2299
20
-19.4666
40
0.2669
50
223.0435
51
356.9952
0
LINE
8
PARAMETRIX
10
19.4965
20
-19.4806
11
19.5306
21
-18.8296
0
ARC
8
PARAMETRIX
10
20.7958
20
-18.8960
40
1.2669
50
49.3043
51
176.9952
0
LINE
8
PARAMETRIX
10
21.6219
20
-17.9355
11
28.3558
21
-23.7266
0
ARC
8
PARAMETRIX
10
29.0078
20
-22.9684
40
1.0000
50
229.3043
51
321.6278
0
ARC
8
PARAMETRIX
10
-0.0000
20
0.0000
40
38.0000
50
321.6278
51
332.6331
0
ARC
8
PARAMETRIX
10
32.8590
20
-17.0084
40
1.0000
50
332.6331
51
64.9565
0
LINE
8
PARAMETRIX
10
33.2823
20
-16.1024
11
25.2358
21
-12.3428
0
ARC
8
PARAMETRIX
10
25.1228
20
-12.5847
40
0.2669
50
64.9565
51
192.6474
0
LINE
8
PARAMETRIX
10
24.8623
20
-12.6431
11
25.0050
21
-13.2791
0
ARC
8
PARAMETRIX
10
23.7688
20
-13.5565
40
1.2669
50
238.6957
51
12.6474
0
LINE
8
PARAMETRIX
10
23.1106
20
-14.6390
11
15.0663
21
-9.7472
0
ARC
8
PARAMETRIX
10
14.5467
20
-10.6016
40
1.0000
50
58.6957
51
143.9155
0
ARC
8
PARAMETRIX
10
-0.0000
20
0.0000
40
17.0000
50
317.8237
51
323.9155
0
ARC
8
PARAMETRIX
10
13.3395
20
-12.0855
40
1.0000
50
137.8237
51
223.0435
0
LINE
8
PARAMETRIX
10
15.5858
20
-8.8928
11
23.6301
21
-13.7846
0
ARC
8
PARAMETRIX
10
23.7688
20
-13.5565
40
0.2669
50
238.6957
51
12.6474
0
LINE
8
PARAMETRIX
10
24.0293
20
-13.4981
11
23.8866
21
-12.8621
0
ARC
8
PARAMETRIX
10
25.1228
20
-12.5847
40
1.2669
50
64.9565
51
192.6474
0
LINE
8
PARAMETRIX
10
25.6591
20
-11.4368
11
33.7056
21
-15.1964
0
ARC
8
PARAMETRIX
10
34.1289
20
-14.2905
40
1.0000
50
244.9565
51
337.2800
0
ARC
8
PARAMETRIX
10
-0.0000
20
0.0000
40
38.0000
50
337.2800
51
348.2853
0
ARC
8
PARAMETRIX
10
36.2293
20
-7.5125
40
1.0000
50
348.2853
51
80.6087
0
LINE
8
PARAMETRIX
10
36.3925
20
-6.5259
11
27.6300
21
-5.0766
0
ARC
8
PARAMETRIX
10
27.5864
20
-5.3400
40
0.2669
50
80.6087
51
208.2995
0
LINE
8
PARAMETRIX
10
27.3514
20
-5.4665
11
27.6604
21
-6.0404
0
ARC
8
PARAMETRIX
10
26.5449
20
-6.6411
40
1.2669
50
254.3478
51
28.2995
0
LINE
8
PARAMETRIX
10
26.2031
20
-7.8610
11
17.1373
21
-5.3209
0
ARC
8
PARAMETRIX
10
16.8675
20
-6.2838
40
1.0000
50
74.3478
51
159.5676
0
ARC
8
PARAMETRIX
10
-0.0000
20
0.0000
40
17.0000
50
333.4758
51
339.5676
0
ARC
8
PARAMETRIX
10
16.1054
20
-8.0384
40
1.0000
50
153.4758
51
238.6957
0
LINE
8
PARAMETRIX
10
17.4071
20
-4.3580
11
26.4729
21
-6.8981
0
ARC
8
PARAMETRIX
10
26.5449
20
-6.6411
40
0.2669
50
254.3478
51
28.2995
0
LINE
8
PARAMETRIX
10
26.7800
20
-6.5145
11
26.4709
21
-5.9406
0
ARC
8
PARAMETRIX
10
27.5864
20
-5.3400
40
1.2669
50
80.6087
51
208.2995
0
LINE
8
PARAMETRIX
10
27.7932
20
-4.0900
11
36.5557
21
-5.5393
0
ARC
8
PARAMETRIX
10
36.7188
20
-4.5527
40
1.0000
50
260.6087
51
352.9321
0
ARC
8
PARAMETRIX
10
-0.0000
20
0.0000
40
38.0000
50
352.9321
51
3.9374
0
ARC
8
PARAMETRIX
10
36.9127
20
2.5407
40
1.0000
50
3.9374
51
96.2609
0
LINE
8
PARAMETRIX
10
36.8036
20
3.5347
11
27.9751
21
2.5661
0
ARC
8
PARAMETRIX
10
28.0042
20
2.3008
40
0.2669
50
96.2609
51
223.9517
0
LINE
8
PARAMETRIX
10
27.8120
20
2.1155
11
28.2644
21
1.6462
0
ARC
8
PARAMETRIX
10
27.3523
20
0.7669
40
1.2669
50
270.0000
51
43.9517
0
LINE
8
PARAMETRIX
10
27.3523
20
-0.5000
11
17.9374
21
-0.5000
0
ARC
8
PARAMETRIX
10
17.9374
20
-1.5000
40
1.0000
50
90.0000
51
175.2198
0
ARC
8
PARAMETRIX
10
-0.0000
20
0.0000
40
17.0000
50
349.1280
51
355.2198
0
ARC
8
PARAMETRIX
10
17.6769
20
-3.3951
40
1.0000
50
169.1280
51
254.3478
0
ENDSEC
0
EOF
