0
SECTION
2
ENTITIES
0
CIRCLE
8
PARAMETRIX
10
0.0000
20
0.0000
40
42.0000
0
LINE
8
PARAMETRIX
10
8.8273
20
-0.0000
11
10.9717
21
0.0000
0
ARC
8
PARAMETRIX
10
10.9717
20
1.0000
40
1.0000
50
270.0000
51
11.7000
0
LINE
8
PARAMETRIX
10
11.9509
20
1.2028
11
11.4457
21
3.6424
0
ARC
8
PARAMETRIX
10
10.4665
20
3.4396
40
1.0000
50
11.7000
51
113.4000
0
LINE
8
PARAMETRIX
10
10.0693
20
4.3574
11
8.1013
21
3.5057
0
ARC
8
PARAMETRIX
10
7.7041
20
4.4235
40
1.0000
50
214.2000
51
293.4000
0
LINE
8
PARAMETRIX
10
6.8770
20
3.8614
11
6.1219
21
4.9726
0
ARC
8
PARAMETRIX
10
6.9489
20
5.5347
40
1.0000
50
135.0000
51
214.2000
0
LINE
8
PARAMETRIX
10
6.2418
20
6.2418
11
7.7582
21
7.7582
0
ARC
8
PARAMETRIX
10
7.0511
20
8.4653
40
1.0000
50
315.0000
51
56.7000
0
LINE
8
PARAMETRIX
10
7.6001
20
9.3011
11
5.5177
21
10.6689
0
ARC
8
PARAMETRIX
10
4.9687
20
9.8331
40
1.0000
50
56.7000
51
158.4000
0
LINE
8
PARAMETRIX
10
4.0389
20
10.2012
11
3.2495
21
8.2074
0
ARC
8
PARAMETRIX
10
2.3198
20
8.5755
40
1.0000
50
259.2000
51
338.4000
0
LINE
8
PARAMETRIX
10
2.1324
20
7.5932
11
0.8126
21
7.8450
0
ARC
8
PARAMETRIX
10
1.0000
20
8.8273
40
1.0000
50
180.0000
51
259.2000
0
LINE
8
PARAMETRIX
10
0.0000
20
8.8273
11
0.0000
21
10.9717
0
ARC
8
PARAMETRIX
10
-1.0000
20
10.9717
40
1.0000
50
0.0000
51
101.7000
0
LINE
8
PARAMETRIX
10
-1.2028
20
11.9509
11
-3.6424
21
11.4457
0
ARC
8
PARAMETRIX
10
-3.4396
20
10.4665
40
1.0000
50
101.7000
51
203.4000
0
LINE
8
PARAMETRIX
10
-4.3574
20
10.0693
11
-3.5057
21
8.1013
0
ARC
8
PARAMETRIX
10
-4.4235
20
7.7041
40
1.0000
50
304.2000
51
23.4000
0
LINE
8
PARAMETRIX
10
-3.8614
20
6.8770
11
-4.9726
21
6.1219
0
ARC
8
PARAMETRIX
10
-5.5347
20
6.9489
40
1.0000
50
225.0000
51
304.2000
0
LINE
8
PARAMETRIX
10
-6.2418
20
6.2418
11
-7.7582
21
7.7582
0
ARC
8
PARAMETRIX
10
-8.4653
20
7.0511
40
1.0000
50
45.0000
51
146.7000
0
LINE
8
PARAMETRIX
10
-9.3011
20
7.6001
11
-10.6689
21
5.5177
0
ARC
8
PARAMETRIX
10
-9.8331
20
4.9687
40
1.0000
50
146.7000
51
248.4000
0
LINE
8
PARAMETRIX
10
-10.2012
20
4.0389
11
-8.2074
21
3.2495
0
ARC
8
PARAMETRIX
10
-8.5755
20
2.3198
40
1.0000
50
349.2000
51
68.4000
0
LINE
8
PARAMETRIX
10
-7.5932
20
2.1324
11
-7.8450
21
0.8126
0
ARC
8
PARAMETRIX
10
-8.8273
20
1.0000
40
1.0000
50
270.0000
51
349.2000
0
LINE
8
PARAMETRIX
10
-8.8273
20
0.0000
11
-10.9717
21
0.0000
0
ARC
8
PARAMETRIX
10
-10.9717
20
-1.0000
40
1.0000
50
90.0000
51
191.7000
0
LINE
8
PARAMETRIX
10
-11.9509
20
-1.2028
11
-11.4457
21
-3.6424
0
ARC
8
PARAMETRIX
10
-10.4665
20
-3.4396
40
1.0000
50
191.7000
51
293.4000
0
LINE
8
PARAMETRIX
10
-10.0693
20
-4.3574
11
-8.1013
21
-3.5057
0
ARC
8
PARAMETRIX
10
-7.7041
20
-4.4235
40
1.0000
50
34.2000
51
113.4000
0
LINE
8
PARAMETRIX
10
-6.8770
20
-3.8614
11
-6.1219
21
-4.9726
0
ARC
8
PARAMETRIX
10
-6.9489
20
-5.5347
40
1.0000
50
315.0000
51
34.2000
0
LINE
8
PARAMETRIX
10
-6.2418
20
-6.2418
11
-7.7582
21
-7.7582
0
ARC
8
PARAMETRIX
10
-7.0511
20
-8.4653
40
1.0000
50
135.0000
51
236.7000
0
LINE
8
PARAMETRIX
10
-7.6001
20
-9.3011
11
-5.5177
21
-10.6689
0
ARC
8
PARAMETRIX
10
-4.9687
20
-9.8331
40
1.0000
50
236.7000
51
338.4000
0
LINE
8
PARAMETRIX
10
-4.0389
20
-10.2012
11
-3.2495
21
-8.2074
0
ARC
8
PARAMETRIX
10
-2.3198
20
-8.5755
40
1.0000
50
79.2000
51
158.4000
0
LINE
8
PARAMETRIX
10
-2.1324
20
-7.5932
11
-0.8126
21
-7.8450
0
ARC
8
PARAMETRIX
10
-1.0000
20
-8.8273
40
1.0000
50
0.0000
51
79.2000
0
LINE
8
PARAMETRIX
10
-0.0000
20
-8.8273
11
-0.0000
21
-10.9717
0
ARC
8
PARAMETRIX
10
1.0000
20
-10.9717
40
1.0000
50
180.0000
51
281.7000
0
LINE
8
PARAMETRIX
10
1.2028
20
-11.9509
11
3.6424
21
-11.4457
0
ARC
8
PARAMETRIX
10
3.4396
20
-10.4665
40
1.0000
50
281.7000
51
23.4000
0
LINE
8
PARAMETRIX
10
4.3574
20
-10.0693
11
3.5057
21
-8.1013
0
ARC
8
PARAMETRIX
10
4.4235
20
-7.7041
40
1.0000
50
124.2000
51
203.4000
0
LINE
8
PARAMETRIX
10
3.8614
20
-6.8770
11
4.9726
21
-6.1219
0
ARC
8
PARAMETRIX
10
5.5347
20
-6.9489
40
1.0000
50
45.0000
51
124.2000
0
LINE
8
PARAMETRIX
10
6.2418
20
-6.2418
11
7.7582
21
-7.7582
0
ARC
8
PARAMETRIX
10
8.4653
20
-7.0511
40
1.0000
50
225.0000
51
326.7000
0
LINE
8
PARAMETRIX
10
9.3011
20
-7.6001
11
10.6689
21
-5.5177
0
ARC
8
PARAMETRIX
10
9.8331
20
-4.9687
40
1.0000
50
326.7000
51
68.4000
0
LINE
8
PARAMETRIX
10
10.2012
20
-4.0389
11
8.2074
21
-3.2495
0
ARC
8
PARAMETRIX
10
8.5755
20
-2.3198
40
1.0000
50
169.2000
51
248.4000
0
LINE
8
PARAMETRIX
10
7.5932
20
-2.1324
11
7.8450
21
-0.8126
0
ARC
8
PARAMETRIX
10
8.8273
20
-1.0000
40
1.0000
50
90.0000
51
169.2000
0
CIRCLE
8
PARAMETRIX
10
15.0000
20
0.0000
40
1.0000
0
CIRCLE
8
PARAMETRIX
10
10.6066
20
10.6066
40
1.0000
0
CIRCLE
8
PARAMETRIX
10
0.0000
20
15.0000
40
1.0000
0
CIRCLE
8
PARAMETRIX
10
-10.6066
20
10.6066
40
1.0000
0
CIRCLE
8
PARAMETRIX
10
-15.0000
20
0.0000
40
1.0000
0
CIRCLE
8
PARAMETRIX
10
-10.6066
20
-10.6066
40
1.0000
0
CIRCLE
8
PARAMETRIX
10
-0.0000
20
-15.0000
40
1.0000
0
CIRCLE
8
PARAMETRIX
10
10.6066
20
-10.6066
40
1.0000
0
CIRCLE
8
PARAMETRIX
10
40.0000
20
0.0000
40
1.0000
0
CIRCLE
8
PARAMETRIX
10
36.9552
20
15.3073
40
1.0000
0
CIRCLE
8
PARAMETRIX
10
28.2843
20
28.2843
40
1.0000
0
CIRCLE
8
PARAMETRIX
10
15.3073
20
36.9552
40
1.0000
0
CIRCLE
8
PARAMETRIX
10
0.0000
20
40.0000
40
1.0000
0
CIRCLE
8
PARAMETRIX
10
-15.3073
20
36.9552
40
1.0000
0
CIRCLE
8
PARAMETRIX
10
-28.2843
20
28.2843
40
1.0000
0
CIRCLE
8
PARAMETRIX
10
-36.9552
20
15.3073
40
1.0000
0
CIRCLE
8
PARAMETRIX
10
-40.0000
20
0.0000
40
1.0000
0
CIRCLE
8
PARAMETRIX
10
-36.9552
20
-15.3073
40
1.0000
0
CIRCLE
8
PARAMETRIX
10
-28.2843
20
-28.2843
40
1.0000
0
CIRCLE
8
PARAMETRIX
10
-15.3073
20
-36.9552
40
1.0000
0
CIRCLE
8
PARAMETRIX
10
-0.0000
20
-40.0000
40
1.0000
0
CIRCLE
8
PARAMETRIX
10
15.3073
20
-36.9552
40
1.0000
0
CIRCLE
8
PARAMETRIX
10
28.2843
20
-28.2843
40
1.0000
0
CIRCLE
8
PARAMETRIX
10
36.9552
20
-15.3073
40
1.0000
0
LINE
8
PARAMETRIX
10
17.9374
20
0.5000
11
33.3921
21
0.5000
0
ARC
8
PARAMETRIX
10
33.3921
20
2.4203
40
1.9203
50
270.0000
51
90.0000
0
LINE
8
PARAMETRIX
10
33.3921
20
4.3406
11
20.2584
21
4.3406
0
ARC
8
PARAMETRIX
10
20.2584
20
7.2609
40
2.9203
50
90.0000
51
270.0000
0
LINE
8
PARAMETRIX
10
20.2584
20
10.1812
11
31.2161
21
10.1812
0
ARC
8
PARAMETRIX
10
31.2161
20
12.1015
40
1.9203
50
270.0000
51
90.0000
0
LINE
8
PARAMETRIX
10
31.2161
20
14.0219
11
15.3009
21
14.0219
0
ARC
8
PARAMETRIX
10
15.3009
20
16.9422
40
2.9203
50
90.0000
51
270.0000
0
LINE
8
PARAMETRIX
10
15.3009
20
19.8625
11
25.4244
21
19.8625
0
ARC
8
PARAMETRIX
10
25.4244
20
21.7828
40
1.9203
50
270.0000
51
90.0000
0
LINE
8
PARAMETRIX
10
25.4244
20
23.7031
11
22.3347
21
23.7031
0
ARC
8
PARAMETRIX
10
22.3347
20
26.6234
40
2.9203
50
144.0000
51
270.0000
0
LINE
8
PARAMETRIX
10
19.9721
20
28.3399
11
21.3257
21
30.2029
0
ARC
8
PARAMETRIX
10
20.5166
20
30.7907
40
1.0000
50
324.0000
51
56.3234
0
ARC
8
PARAMETRIX
10
-0.0000
20
0.0000
40
38.0000
50
56.3234
51
111.6766
0
ARC
8
PARAMETRIX
10
-13.6666
20
34.3835
40
1.0000
50
111.6766
51
204.0000
0
LINE
8
PARAMETRIX
10
-14.5801
20
33.9768
11
-13.6435
21
31.8731
0
ARC
8
PARAMETRIX
10
-11.8892
20
32.6541
40
1.9203
50
204.0000
51
330.0000
0
LINE
8
PARAMETRIX
10
-10.2262
20
31.6940
11
-8.6813
21
34.3697
0
ARC
8
PARAMETRIX
10
-6.1522
20
32.9096
40
2.9203
50
330.0000
51
150.0000
0
LINE
8
PARAMETRIX
10
-3.6232
20
31.4494
11
-8.6849
21
22.6822
0
ARC
8
PARAMETRIX
10
-7.0219
20
21.7220
40
1.9203
50
150.0000
51
330.0000
0
LINE
8
PARAMETRIX
10
-5.3589
20
20.7619
11
2.5987
21
34.5448
0
ARC
8
PARAMETRIX
10
5.1278
20
33.0847
40
2.9203
50
330.0000
51
150.0000
0
LINE
8
PARAMETRIX
10
7.6568
20
31.6245
11
2.1780
21
22.1349
0
ARC
8
PARAMETRIX
10
3.8411
20
21.1747
40
1.9203
50
150.0000
51
330.0000
0
LINE
8
PARAMETRIX
10
5.5041
20
20.2146
11
12.0709
21
31.5887
0
ARC
8
PARAMETRIX
10
14.6000
20
30.1286
40
2.9203
50
330.0000
51
150.0000
0
LINE
8
PARAMETRIX
10
17.1291
20
28.6684
11
9.4017
21
15.2842
0
ARC
8
PARAMETRIX
10
10.2677
20
14.7842
40
1.0000
50
150.0000
51
235.2198
0
ARC
8
PARAMETRIX
10
-0.0000
20
0.0000
40
17.0000
50
4.7802
51
55.2198
0
ARC
8
PARAMETRIX
10
17.9374
20
1.5000
40
1.0000
50
184.7802
51
270.0000
0
LINE
8
PARAMETRIX
10
8.5357
20
15.7842
11
16.2630
21
29.1684
0
ARC
8
PARAMETRIX
10
14.6000
20
30.1286
40
1.9203
50
330.0000
51
150.0000
0
LINE
8
PARAMETRIX
10
12.9370
20
31.0887
11
6.3701
21
19.7146
0
ARC
8
PARAMETRIX
10
3.8411
20
21.1747
40
2.9203
50
150.0000
51
330.0000
0
LINE
8
PARAMETRIX
10
1.3120
20
22.6349
11
6.7908
21
32.1245
0
ARC
8
PARAMETRIX
10
5.1278
20
33.0847
40
1.9203
50
330.0000
51
150.0000
0
LINE
8
PARAMETRIX
10
3.4647
20
34.0448
11
-4.4928
21
20.2619
0
ARC
8
PARAMETRIX
10
-7.0219
20
21.7220
40
2.9203
50
150.0000
51
330.0000
0
LINE
8
PARAMETRIX
10
-9.5510
20
23.1822
11
-4.4892
21
31.9494
0
ARC
8
PARAMETRIX
10
-6.1522
20
32.9096
40
1.9203
50
330.0000
51
150.0000
0
LINE
8
PARAMETRIX
10
-7.8153
20
33.8697
11
-9.3601
21
31.1940
0
ARC
8
PARAMETRIX
10
-11.8892
20
32.6541
40
2.9203
50
204.0000
51
330.0000
0
LINE
8
PARAMETRIX
10
-14.5570
20
31.4663
11
-15.4937
21
33.5700
0
ARC
8
PARAMETRIX
10
-16.4072
20
33.1633
40
1.0000
50
24.0000
51
116.3234
0
ARC
8
PARAMETRIX
10
-0.0000
20
0.0000
40
38.0000
50
116.3234
51
171.6766
0
ARC
8
PARAMETRIX
10
-36.6103
20
5.3562
40
1.0000
50
171.6766
51
264.0000
0
LINE
8
PARAMETRIX
10
-36.7148
20
4.3616
11
-34.4246
21
4.1209
0
ARC
8
PARAMETRIX
10
-34.2239
20
6.0307
40
1.9203
50
264.0000
51
30.0000
0
LINE
8
PARAMETRIX
10
-32.5609
20
6.9909
11
-34.1057
21
9.6666
0
ARC
8
PARAMETRIX
10
-31.5766
20
11.1268
40
2.9203
50
30.0000
51
210.0000
0
LINE
8
PARAMETRIX
10
-29.0476
20
12.5869
11
-23.9858
21
3.8197
0
ARC
8
PARAMETRIX
10
-22.3228
20
4.7799
40
1.9203
50
210.0000
51
30.0000
0
LINE
8
PARAMETRIX
10
-20.6597
20
5.7400
11
-28.6173
21
19.5230
0
ARC
8
PARAMETRIX
10
-26.0883
20
20.9831
40
2.9203
50
30.0000
51
210.0000
0
LINE
8
PARAMETRIX
10
-23.5592
20
22.4433
11
-18.0804
21
12.9537
0
ARC
8
PARAMETRIX
10
-16.4173
20
13.9138
40
1.9203
50
210.0000
51
30.0000
0
LINE
8
PARAMETRIX
10
-14.7543
20
14.8740
11
-21.3212
21
26.2481
0
ARC
8
PARAMETRIX
10
-18.7921
20
27.7082
40
2.9203
50
30.0000
51
210.0000
0
LINE
8
PARAMETRIX
10
-16.2630
20
29.1684
11
-8.5357
21
15.7842
0
ARC
8
PARAMETRIX
10
-7.6697
20
16.2842
40
1.0000
50
210.0000
51
295.2198
0
ARC
8
PARAMETRIX
10
-0.0000
20
0.0000
40
17.0000
50
64.7802
51
115.2198
0
ARC
8
PARAMETRIX
10
7.6697
20
16.2842
40
1.0000
50
244.7802
51
330.0000
0
LINE
8
PARAMETRIX
10
-9.4017
20
15.2842
11
-17.1291
21
28.6684
0
ARC
8
PARAMETRIX
10
-18.7921
20
27.7082
40
1.9203
50
30.0000
51
210.0000
0
LINE
8
PARAMETRIX
10
-20.4551
20
26.7481
11
-13.8883
21
15.3740
0
ARC
8
PARAMETRIX
10
-16.4173
20
13.9138
40
2.9203
50
210.0000
51
30.0000
0
LINE
8
PARAMETRIX
10
-18.9464
20
12.4537
11
-24.4252
21
21.9433
0
ARC
8
PARAMETRIX
10
-26.0883
20
20.9831
40
1.9203
50
30.0000
51
210.0000
0
LINE
8
PARAMETRIX
10
-27.7513
20
20.0230
11
-19.7937
21
6.2400
0
ARC
8
PARAMETRIX
10
-22.3228
20
4.7799
40
2.9203
50
210.0000
51
30.0000
0
LINE
8
PARAMETRIX
10
-24.8518
20
3.3197
11
-29.9136
21
12.0869
0
ARC
8
PARAMETRIX
10
-31.5766
20
11.1268
40
1.9203
50
30.0000
51
210.0000
0
LINE
8
PARAMETRIX
10
-33.2397
20
10.1666
11
-31.6948
21
7.4909
0
ARC
8
PARAMETRIX
10
-34.2239
20
6.0307
40
2.9203
50
264.0000
51
30.0000
0
LINE
8
PARAMETRIX
10
-34.5291
20
3.1264
11
-36.8193
21
3.3671
0
ARC
8
PARAMETRIX
10
-36.9239
20
2.3726
40
1.0000
50
84.0000
51
176.3234
0
ARC
8
PARAMETRIX
10
0.0000
20
-0.0000
40
38.0000
50
176.3234
51
231.6766
0
ARC
8
PARAMETRIX
10
-22.9437
20
-29.0273
40
1.0000
50
231.6766
51
324.0000
0
LINE
8
PARAMETRIX
10
-22.1347
20
-29.6151
11
-20.7811
21
-27.7521
0
ARC
8
PARAMETRIX
10
-22.3347
20
-26.6234
40
1.9203
50
324.0000
51
90.0000
0
LINE
8
PARAMETRIX
10
-22.3347
20
-24.7031
11
-25.4244
21
-24.7031
0
ARC
8
PARAMETRIX
10
-25.4244
20
-21.7828
40
2.9203
50
90.0000
51
270.0000
0
LINE
8
PARAMETRIX
10
-25.4244
20
-18.8625
11
-15.3009
21
-18.8625
0
ARC
8
PARAMETRIX
10
-15.3009
20
-16.9422
40
1.9203
50
270.0000
51
90.0000
0
LINE
8
PARAMETRIX
10
-15.3009
20
-15.0219
11
-31.2161
21
-15.0219
0
ARC
8
PARAMETRIX
10
-31.2161
20
-12.1015
40
2.9203
50
90.0000
51
270.0000
0
LINE
8
PARAMETRIX
10
-31.2161
20
-9.1812
11
-20.2584
21
-9.1812
0
ARC
8
PARAMETRIX
10
-20.2584
20
-7.2609
40
1.9203
50
270.0000
51
90.0000
0
LINE
8
PARAMETRIX
10
-20.2584
20
-5.3406
11
-33.3921
21
-5.3406
0
ARC
8
PARAMETRIX
10
-33.3921
20
-2.4203
40
2.9203
50
90.0000
51
270.0000
0
LINE
8
PARAMETRIX
10
-33.3921
20
0.5000
11
-17.9374
21
0.5000
0
ARC
8
PARAMETRIX
10
-17.9374
20
1.5000
40
1.0000
50
270.0000
51
355.2198
0
ARC
8
PARAMETRIX
10
-0.0000
20
-0.0000
40
17.0000
50
124.7802
51
175.2198
0
ARC
8
PARAMETRIX
10
-10.2677
20
14.7842
40
1.0000
50
304.7802
51
30.0000
0
LINE
8
PARAMETRIX
10
-17.9374
20
-0.5000
11
-33.3921
21
-0.5000
0
ARC
8
PARAMETRIX
10
-33.3921
20
-2.4203
40
1.9203
50
90.0000
51
270.0000
0
LINE
8
PARAMETRIX
10
-33.3921
20
-4.3406
11
-20.2584
21
-4.3406
0
ARC
8
PARAMETRIX
10
-20.2584
20
-7.2609
40
2.9203
50
270.0000
51
90.0000
0
LINE
8
PARAMETRIX
10
-20.2584
20
-10.1812
11
-31.2161
21
-10.1812
0
ARC
8
PARAMETRIX
10
-31.2161
20
-12.1015
40
1.9203
50
90.0000
51
270.0000
0
LINE
8
PARAMETRIX
10
-31.2161
20
-14.0219
11
-15.3009
21
-14.0219
0
ARC
8
PARAMETRIX
10
-15.3009
20
-16.9422
40
2.9203
50
270.0000
51
90.0000
0
LINE
8
PARAMETRIX
10
-15.3009
20
-19.8625
11
-25.4244
21
-19.8625
0
ARC
8
PARAMETRIX
10
-25.4244
20
-21.7828
40
1.9203
50
90.0000
51
270.0000
0
LINE
8
PARAMETRIX
10
-25.4244
20
-23.7031
11
-22.3347
21
-23.7031
0
ARC
8
PARAMETRIX
10
-22.3347
20
-26.6234
40
2.9203
50
324.0000
51
90.0000
0
LINE
8
PARAMETRIX
10
-19.9721
20
-28.3399
11
-21.3257
21
-30.2029
0
ARC
8
PARAMETRIX
10
-20.5166
20
-30.7907
40
1.0000
50
144.0000
51
236.3234
0
ARC
8
PARAMETRIX
10
0.0000
20
0.0000
40
38.0000
50
236.3234
51
291.6766
0
ARC
8
PARAMETRIX
10
13.6666
20
-34.3835
40
1.0000
50
291.6766
51
24.0000
0
LINE
8
PARAMETRIX
10
14.5801
20
-33.9768
11
13.6435
21
-31.8731
0
ARC
8
PARAMETRIX
10
11.8892
20
-32.6541
40
1.9203
50
24.0000
51
150.0000
0
LINE
8
PARAMETRIX
10
10.2262
20
-31.6940
11
8.6813
21
-34.3697
0
ARC
8
PARAMETRIX
10
6.1522
20
-32.9096
40
2.9203
50
150.0000
51
330.0000
0
LINE
8
PARAMETRIX
10
3.6232
20
-31.4494
11
8.6849
21
-22.6822
0
ARC
8
PARAMETRIX
10
7.0219
20
-21.7220
40
1.9203
50
330.0000
51
150.0000
0
LINE
8
PARAMETRIX
10
5.3589
20
-20.7619
11
-2.5987
21
-34.5448
0
ARC
8
PARAMETRIX
10
-5.1278
20
-33.0847
40
2.9203
50
150.0000
51
330.0000
0
LINE
8
PARAMETRIX
10
-7.6568
20
-31.6245
11
-2.1780
21
-22.1349
0
ARC
8
PARAMETRIX
10
-3.8411
20
-21.1747
40
1.9203
50
330.0000
51
150.0000
0
LINE
8
PARAMETRIX
10
-5.5041
20
-20.2146
11
-12.0709
21
-31.5887
0
ARC
8
PARAMETRIX
10
-14.6000
20
-30.1286
40
2.9203
50
150.0000
51
330.0000
0
LINE
8
PARAMETRIX
10
-17.1291
20
-28.6684
11
-9.4017
21
-15.2842
0
ARC
8
PARAMETRIX
10
-10.2677
20
-14.7842
40
1.0000
50
330.0000
51
55.2198
0
ARC
8
PARAMETRIX
10
0.0000
20
-0.0000
40
17.0000
50
184.7802
51
235.2198
0
ARC
8
PARAMETRIX
10
-17.9374
20
-1.5000
40
1.0000
50
4.7802
51
90.0000
0
LINE
8
PARAMETRIX
10
-8.5357
20
-15.7842
11
-16.2630
21
-29.1684
0
ARC
8
PARAMETRIX
10
-14.6000
20
-30.1286
40
1.9203
50
150.0000
51
330.0000
0
LINE
8
PARAMETRIX
10
-12.9370
20
-31.0887
11
-6.3701
21
-19.7146
0
ARC
8
PARAMETRIX
10
-3.8411
20
-21.1747
40
2.9203
50
330.0000
51
150.0000
0
LINE
8
PARAMETRIX
10
-1.3120
20
-22.6349
11
-6.7908
21
-32.1245
0
ARC
8
PARAMETRIX
10
-5.1278
20
-33.0847
40
1.9203
50
150.0000
51
330.0000
0
LINE
8
PARAMETRIX
10
-3.4647
20
-34.0448
11
4.4928
21
-20.2619
0
ARC
8
PARAMETRIX
10
7.0219
20
-21.7220
40
2.9203
50
330.0000
51
150.0000
0
LINE
8
PARAMETRIX
10
9.5510
20
-23.1822
11
4.4892
21
-31.9494
0
ARC
8
PARAMETRIX
10
6.1522
20
-32.9096
40
1.9203
50
150.0000
51
330.0000
0
LINE
8
PARAMETRIX
10
7.8153
20
-33.8697
11
9.3601
21
-31.1940
0
ARC
8
PARAMETRIX
10
11.8892
20
-32.6541
40
2.9203
50
24.0000
51
150.0000
0
LINE
8
PARAMETRIX
10
14.5570
20
-31.4663
11
15.4937
21
-33.5700
0
ARC
8
PARAMETRIX
10
16.4072
20
-33.1633
40
1.0000
50
204.0000
51
296.3234
0
ARC
8
PARAMETRIX
10
0.0000
20
-0.0000
40
38.0000
50
296.3234
51
351.6766
0
ARC
8
PARAMETRIX
10
36.6103
20
-5.3562
40
1.0000
50
351.6766
51
84.0000
0
LINE
8
PARAMETRIX
10
36.7148
20
-4.3616
11
34.4246
21
-4.1209
0
ARC
8
PARAMETRIX
10
34.2239
20
-6.0307
40
1.9203
50
84.0000
51
210.0000
0
LINE
8
PARAMETRIX
10
32.5609
20
-6.9909
11
34.1057
21
-9.6666
0
ARC
8
PARAMETRIX
10
31.5766
20
-11.1268
40
2.9203
50
210.0000
51
30.0000
0
LINE
8
PARAMETRIX
10
29.0476
20
-12.5869
11
23.9858
21
-3.8197
0
ARC
8
PARAMETRIX
10
22.3228
20
-4.7799
40
1.9203
50
30.0000
51
210.0000
0
LINE
8
PARAMETRIX
10
20.6597
20
-5.7400
11
28.6173
21
-19.5230
0
ARC
8
PARAMETRIX
10
26.0883
20
-20.9831
40
2.9203
50
210.0000
51
30.0000
0
LINE
8
PARAMETRIX
10
23.5592
20
-22.4433
11
18.0804
21
-12.9537
0
ARC
8
PARAMETRIX
10
16.4173
20
-13.9138
40
1.9203
50
30.0000
51
210.0000
0
LINE
8
PARAMETRIX
10
14.7543
20
-14.8740
11
21.3212
21
-26.2481
0
ARC
8
PARAMETRIX
10
18.7921
20
-27.7082
40
2.9203
50
210.0000
51
30.0000
0
LINE
8
PARAMETRIX
10
16.2630
20
-29.1684
11
8.5357
21
-15.7842
0
ARC
8
PARAMETRIX
10
7.6697
20
-16.2842
40
1.0000
50
30.0000
51
115.2198
0
ARC
8
PARAMETRIX
10
-0.0000
20
-0.0000
40
17.0000
50
244.7802
51
295.2198
0
ARC
8
PARAMETRIX
10
-7.6697
20
-16.2842
40
1.0000
50
64.7802
51
150.0000
0
LINE
8
PARAMETRIX
10
9.4017
20
-15.2842
11
17.1291
21
-28.6684
0
ARC
8
PARAMETRIX
10
18.7921
20
-27.7082
40
1.9203
50
210.0000
51
30.0000
0
LINE
8
PARAMETRIX
10
20.4551
20
-26.7481
11
13.8883
21
-15.3740
0
ARC
8
PARAMETRIX
10
16.4173
20
-13.9138
40
2.9203
50
30.0000
51
210.0000
0
LINE
8
PARAMETRIX
10
18.9464
20
-12.4537
11
24.4252
21
-21.9433
0
ARC
8
PARAMETRIX
10
26.0883
20
-20.9831
40
1.9203
50
210.0000
51
30.0000
0
LINE
8
PARAMETRIX
10
27.7513
20
-20.0230
11
19.7937
21
-6.2400
0
ARC
8
PARAMETRIX
10
22.3228
20
-4.7799
40
2.9203
50
30.0000
51
210.0000
0
LINE
8
PARAMETRIX
10
24.8518
20
-3.3197
11
29.9136
21
-12.0869
0
ARC
8
PARAMETRIX
10
31.5766
20
-11.1268
40
1.9203
50
210.0000
51
30.0000
0
LINE
8
PARAMETRIX
10
33.2397
20
-10.1666
11
31.6948
21
-7.4909
0
ARC
8
PARAMETRIX
10
34.2239
20
-6.0307
40
2.9203
50
84.0000
51
210.0000
0
LINE
8
PARAMETRIX
10
34.5291
20
-3.1264
11
36.8193
21
-3.3671
0
ARC
8
PARAMETRIX
10
36.9239
20
-2.3726
40
1.0000
50
264.0000
51
356.3234
0
ARC
8
PARAMETRIX
10
0.0000
20
0.0000
40
38.0000
50
356.3234
51
51.6766
0
ARC
8
PARAMETRIX
10
22.9437
20
29.0273
40
1.0000
50
51.6766
51
144.0000
0
LINE
8
PARAMETRIX
10
22.1347
20
29.6151
11
20.7811
21
27.7521
0
ARC
8
PARAMETRIX
10
22.3347
20
26.6234
40
1.9203
50
144.0000
51
270.0000
0
LINE
8
PARAMETRIX
10
22.3347
20
24.7031
11
25.4244
21
24.7031
0
ARC
8
PARAMETRIX
10
25.4244
20
21.7828
40
2.9203
50
270.0000
51
90.0000
0
LINE
8
PARAMETRIX
10
25.4244
20
18.8625
11
15.3009
21
18.8625
0
ARC
8
PARAMETRIX
10
15.3009
20
16.9422
40
1.9203
50
90.0000
51
270.0000
0
LINE
8
PARAMETRIX
10
15.3009
20
15.0219
11
31.2161
21
15.0219
0
ARC
8
PARAMETRIX
10
31.2161
20
12.1015
40
2.9203
50
270.0000
51
90.0000
0
LINE
8
PARAMETRIX
10
31.2161
20
9.1812
11
20.2584
21
9.1812
0
ARC
8
PARAMETRIX
10
20.2584
20
7.2609
40
1.9203
50
90.0000
51
270.0000
0
LINE
8
PARAMETRIX
10
20.2584
20
5.3406
11
33.3921
21
5.3406
0
ARC
8
PARAMETRIX
10
33.3921
20
2.4203
40
2.9203
50
270.0000
51
90.0000
0
LINE
8
PARAMETRIX
10
33.3921
20
-0.5000
11
17.9374
21
-0.5000
0
ARC
8
PARAMETRIX
10
17.9374
20
-1.5000
40
1.0000
50
90.0000
51
175.2198
0
ARC
8
PARAMETRIX
10
0.0000
20
0.0000
40
17.0000
50
304.7802
51
355.2198
0
ARC
8
PARAMETRIX
10
10.2677
20
-14.7842
40
1.0000
50
124.7802
51
210.0000
0
ENDSEC
0
EOF
