<svg width="102" height="102" viewBox="-47 -47 102 102" xmlns="http://www.w3.org/2000/svg"><circle cx="0.0000" cy="0.0000" r="42.0000" stroke="green" stroke-width="1" fill="none" /><path d="M 8.8273 0.0000 L 10.9717 -0.0000 A 1.0000 1.0000 0 0 0 11.9509 -1.2028 L 11.4457 -3.6424 A 1.0000 1.0000 0 0 0 10.0693 -4.3574 L 8.1013 -3.5057 A 1.0000 1.0000 0 0 1 6.8770 -3.8614 L 6.1219 -4.9726 A 1.0000 1.0000 0 0 1 6.2418 -6.2418 L 7.7582 -7.7582 A 1.0000 1.0000 0 0 0 7.6001 -9.3011 L 5.5177 -10.6689 A 1.0000 1.0000 0 0 0 4.0389 -10.2012 L 3.2495 -8.2074 A 1.0000 1.0000 0 0 1 2.1324 -7.5932 L 0.8126 -7.8450 A 1.0000 1.0000 0 0 1 0.0000 -8.8273 L 0.0000 -10.9717 A 1.0000 1.0000 0 0 0 -1.2028 -11.9509 L -3.6424 -11.4457 A 1.0000 1.0000 0 0 0 -4.3574 -10.0693 L -3.5057 -8.1013 A 1.0000 1.0000 0 0 1 -3.8614 -6.8770 L -4.9726 -6.1219 A 1.0000 1.0000 0 0 1 -6.2418 -6.2418 L -7.7582 -7.7582 A 1.0000 1.0000 0 0 0 -9.3011 -7.6001 L -10.6689 -5.5177 A 1.0000 1.0000 0 0 0 -10.2012 -4.0389 L -8.2074 -3.2495 A 1.0000 1.0000 0 0 1 -7.5932 -2.1324 L -7.8450 -0.8126 A 1.0000 1.0000 0 0 1 -8.8273 -0.0000 L -10.9717 -0.0000 A 1.0000 1.0000 0 0 0 -11.9509 1.2028 L -11.4457 3.6424 A 1.0000 1.0000 0 0 0 -10.0693 4.3574 L -8.1013 3.5057 A 1.0000 1.0000 0 0 1 -6.8770 3.8614 L -6.1219 4.9726 A 1.0000 1.0000 0 0 1 -6.2418 6.2418 L -7.7582 7.7582 A 1.0000 1.0000 0 0 0 -7.6001 9.3011 L -5.5177 10.6689 A 1.0000 1.0000 0 0 0 -4.0389 10.2012 L -3.2495 8.2074 A 1.0000 1.0000 0 0 1 -2.1324 7.5932 L -0.8126 7.8450 A 1.0000 1.0000 0 0 1 -0.0000 8.8273 L -0.0000 10.9717 A 1.0000 1.0000 0 0 0 1.2028 11.9509 L 3.6424 11.4457 A 1.0000 1.0000 0 0 0 4.3574 10.0693 L 3.5057 8.1013 A 1.0000 1.0000 0 0 1 3.8614 6.8770 L 4.9726 6.1219 A 1.0000 1.0000 0 0 1 6.2418 6.2418 L 7.7582 7.7582 A 1.0000 1.0000 0 0 0 9.3011 7.6001 L 10.6689 5.5177 A 1.0000 1.0000 0 0 0 10.2012 4.0389 L 8.2074 3.2495 A 1.0000 1.0000 0 0 1 7.5932 2.1324 L 7.8450 0.8126 A 1.0000 1.0000 0 0 1 8.8273 0.0000 Z" stroke="green" stroke-width="1" fill="none" /><circle cx="15.0000" cy="0.0000" r="1.0000" stroke="green" stroke-width="1" fill="none" /><circle cx="10.6066" cy="-10.6066" r="1.0000" stroke="green" stroke-width="1" fill="none" /><circle cx="0.0000" cy="-15.0000" r="1.0000" stroke="green" stroke-width="1" fill="none" /><circle cx="-10.6066" cy="-10.6066" r="1.0000" stroke="green" stroke-width="1" fill="none" /><circle cx="-15.0000" cy="-0.0000" r="1.0000" stroke="green" stroke-width="1" fill="none" /><circle cx="-10.6066" cy="10.6066" r="1.0000" stroke="green" stroke-width="1" fill="none" /><circle cx="-0.0000" cy="15.0000" r="1.0000" stroke="green" stroke-width="1" fill="none" /><circle cx="10.6066" cy="10.6066" r="1.0000" stroke="green" stroke-width="1" fill="none" /><circle cx="40.0000" cy="0.0000" r="1.0000" stroke="green" stroke-width="1" fill="none" /><circle cx="36.9552" cy="-15.3073" r="1.0000" stroke="green" stroke-width="1" fill="none" /><circle cx="28.2843" cy="-28.2843" r="1.0000" stroke="green" stroke-width="1" fill="none" /><circle cx="15.3073" cy="-36.9552" r="1.0000" stroke="green" stroke-width="1" fill="none" /><circle cx="0.0000" cy="-40.0000" r="1.0000" stroke="green" stroke-width="1" fill="none" /><circle cx="-15.3073" cy="-36.9552" r="1.0000" stroke="green" stroke-width="1" fill="none" /><circle cx="-28.2843" cy="-28.2843" r="1.0000" stroke="green" stroke-width="1" fill="none" /><circle cx="-36.9552" cy="-15.3073" r="1.0000" stroke="green" stroke-width="1" fill="none" /><circle cx="-40.0000" cy="-0.0000" r="1.0000" stroke="green" stroke-width="1" fill="none" /><circle cx="-36.9552" cy="15.3073" r="1.0000" stroke="green" stroke-width="1" fill="none" /><circle cx="-28.2843" cy="28.2843" r="1.0000" stroke="green" stroke-width="1" fill="none" /><circle cx="-15.3073" cy="36.9552" r="1.0000" stroke="green" stroke-width="1" fill="none" /><circle cx="-0.0000" cy="40.0000" r="1.0000" stroke="green" stroke-width="1" fill="none" /><circle cx="15.3073" cy="36.9552" r="1.0000" stroke="green" stroke-width="1" fill="none" /><circle cx="28.2843" cy="28.2843" r="1.0000" stroke="green" stroke-width="1" fill="none" /><circle cx="36.9552" cy="15.3073" r="1.0000" stroke="green" stroke-width="1" fill="none" /><path d="M 17.9374 -0.5000 L 33.3921 -0.5000 A 1.9203 1.9203 0 0 0 33.3921 -4.3406 L 20.2584 -4.3406 A 2.9203 2.9203 0 0 1 20.2584 -10.1812 L 31.2161 -10.1812 A 1.9203 1.9203 0 1 0 31.2161 -14.0219 L 15.3009 -14.0219 A 2.9203 2.9203 0 0 1 15.3009 -19.8625 L 25.4244 -19.8625 A 1.9203 1.9203 0 1 0 25.4244 -23.7031 L 22.3347 -23.7031 A 2.9203 2.9203 0 0 1 19.9721 -28.3399 L 21.3257 -30.2029 A 1.0000 1.0000 0 0 0 21.0712 -31.6229 A 38.0000 38.0000 0 0 0 -14.0359 -35.3128 A 1.0000 1.0000 0 0 0 -14.5801 -33.9768 L -13.6435 -31.8731 A 1.9203 1.9203 0 0 0 -10.2262 -31.6940 L -8.6813 -34.3697 A 2.9203 2.9203 0 1 1 -3.6232 -31.4494 L -8.6849 -22.6822 A 1.9203 1.9203 0 0 0 -5.3589 -20.7619 L 2.5987 -34.5448 A 2.9203 2.9203 0 0 1 7.6568 -31.6245 L 2.1780 -22.1349 A 1.9203 1.9203 0 0 0 5.5041 -20.2146 L 12.0709 -31.5887 A 2.9203 2.9203 0 0 1 17.1291 -28.6684 L 9.4017 -15.2842 A 1.0000 1.0000 0 0 0 9.6973 -13.9629 A 17.0000 17.0000 0 0 1 16.9409 -1.4167 A 1.0000 1.0000 0 0 0 17.9374 -0.5000 Z" stroke="green" stroke-width="1" fill="none" /><path d="M 8.5357 -15.7842 L 16.2630 -29.1684 A 1.9203 1.9203 0 1 0 12.9370 -31.0887 L 6.3701 -19.7146 A 2.9203 2.9203 0 0 1 1.3120 -22.6349 L 6.7908 -32.1245 A 1.9203 1.9203 0 0 0 3.4647 -34.0448 L -4.4928 -20.2619 A 2.9203 2.9203 0 0 1 -9.5510 -23.1822 L -4.4892 -31.9494 A 1.9203 1.9203 0 0 0 -7.8153 -33.8697 L -9.3601 -31.1940 A 2.9203 2.9203 0 0 1 -14.5570 -31.4663 L -15.4937 -33.5700 A 1.0000 1.0000 0 0 0 -16.8506 -34.0596 A 38.0000 38.0000 0 0 0 -37.5997 -5.5009 A 1.0000 1.0000 0 0 0 -36.7148 -4.3616 L -34.4246 -4.1209 A 1.9203 1.9203 0 0 0 -32.5609 -6.9909 L -34.1057 -9.6666 A 2.9203 2.9203 0 0 1 -29.0476 -12.5869 L -23.9858 -3.8197 A 1.9203 1.9203 0 1 0 -20.6597 -5.7400 L -28.6173 -19.5230 A 2.9203 2.9203 0 0 1 -23.5592 -22.4433 L -18.0804 -12.9537 A 1.9203 1.9203 0 1 0 -14.7543 -14.8740 L -21.3212 -26.2481 A 2.9203 2.9203 0 0 1 -16.2630 -29.1684 L -8.5357 -15.7842 A 1.0000 1.0000 0 0 0 -7.2436 -15.3796 A 17.0000 17.0000 0 0 1 7.2436 -15.3796 A 1.0000 1.0000 0 0 0 8.5357 -15.7842 Z" stroke="green" stroke-width="1" fill="none" /><path d="M -9.4017 -15.2842 L -17.1291 -28.6684 A 1.9203 1.9203 0 0 0 -20.4551 -26.7481 L -13.8883 -15.3740 A 2.9203 2.9203 0 0 1 -18.9464 -12.4537 L -24.4252 -21.9433 A 1.9203 1.9203 0 0 0 -27.7513 -20.0230 L -19.7937 -6.2400 A 2.9203 2.9203 0 0 1 -24.8518 -3.3197 L -29.9136 -12.0869 A 1.9203 1.9203 0 1 0 -33.2397 -10.1666 L -31.6948 -7.4909 A 2.9203 2.9203 0 0 1 -34.5291 -3.1264 L -36.8193 -3.3671 A 1.0000 1.0000 0 0 0 -37.9218 -2.4367 A 38.0000 38.0000 0 0 0 -23.5638 29.8119 A 1.0000 1.0000 0 0 0 -22.1347 29.6151 L -20.7811 27.7521 A 1.9203 1.9203 0 0 0 -22.3347 24.7031 L -25.4244 24.7031 A 2.9203 2.9203 0 0 1 -25.4244 18.8625 L -15.3009 18.8625 A 1.9203 1.9203 0 0 0 -15.3009 15.0219 L -31.2161 15.0219 A 2.9203 2.9203 0 1 1 -31.2161 9.1812 L -20.2584 9.1812 A 1.9203 1.9203 0 0 0 -20.2584 5.3406 L -33.3921 5.3406 A 2.9203 2.9203 0 1 1 -33.3921 -0.5000 L -17.9374 -0.5000 A 1.0000 1.0000 0 0 0 -16.9409 -1.4167 A 17.0000 17.0000 0 0 1 -9.6973 -13.9629 A 1.0000 1.0000 0 0 0 -9.4017 -15.2842 Z" stroke="green" stroke-width="1" fill="none" /><path d="M -17.9374 0.5000 L -33.3921 0.5000 A 1.9203 1.9203 0 0 0 -33.3921 4.3406 L -20.2584 4.3406 A 2.9203 2.9203 0 1 1 -20.2584 10.1812 L -31.2161 10.1812 A 1.9203 1.9203 0 0 0 -31.2161 14.0219 L -15.3009 14.0219 A 2.9203 2.9203 0 1 1 -15.3009 19.8625 L -25.4244 19.8625 A 1.9203 1.9203 0 0 0 -25.4244 23.7031 L -22.3347 23.7031 A 2.9203 2.9203 0 0 1 -19.9721 28.3399 L -21.3257 30.2029 A 1.0000 1.0000 0 0 0 -21.0712 31.6229 A 38.0000 38.0000 0 0 0 14.0359 35.3128 A 1.0000 1.0000 0 0 0 14.5801 33.9768 L 13.6435 31.8731 A 1.9203 1.9203 0 0 0 10.2262 31.6940 L 8.6813 34.3697 A 2.9203 2.9203 0 0 1 3.6232 31.4494 L 8.6849 22.6822 A 1.9203 1.9203 0 0 0 5.3589 20.7619 L -2.5987 34.5448 A 2.9203 2.9203 0 0 1 -7.6568 31.6245 L -2.1780 22.1349 A 1.9203 1.9203 0 0 0 -5.5041 20.2146 L -12.0709 31.5887 A 2.9203 2.9203 0 0 1 -17.1291 28.6684 L -9.4017 15.2842 A 1.0000 1.0000 0 0 0 -9.6973 13.9629 A 17.0000 17.0000 0 0 1 -16.9409 1.4167 A 1.0000 1.0000 0 0 0 -17.9374 0.5000 Z" stroke="green" stroke-width="1" fill="none" /><path d="M -8.5357 15.7842 L -16.2630 29.1684 A 1.9203 1.9203 0 1 0 -12.9370 31.0887 L -6.3701 19.7146 A 2.9203 2.9203 0 1 1 -1.3120 22.6349 L -6.7908 32.1245 A 1.9203 1.9203 0 0 0 -3.4647 34.0448 L 4.4928 20.2619 A 2.9203 2.9203 0 0 1 9.5510 23.1822 L 4.4892 31.9494 A 1.9203 1.9203 0 0 0 7.8153 33.8697 L 9.3601 31.1940 A 2.9203 2.9203 0 0 1 14.5570 31.4663 L 15.4937 33.5700 A 1.0000 1.0000 0 0 0 16.8506 34.0596 A 38.0000 38.0000 0 0 0 37.5997 5.5009 A 1.0000 1.0000 0 0 0 36.7148 4.3616 L 34.4246 4.1209 A 1.9203 1.9203 0 0 0 32.5609 6.9909 L 34.1057 9.6666 A 2.9203 2.9203 0 0 1 29.0476 12.5869 L 23.9858 3.8197 A 1.9203 1.9203 0 0 0 20.6597 5.7400 L 28.6173 19.5230 A 2.9203 2.9203 0 0 1 23.5592 22.4433 L 18.0804 12.9537 A 1.9203 1.9203 0 1 0 14.7543 14.8740 L 21.3212 26.2481 A 2.9203 2.9203 0 0 1 16.2630 29.1684 L 8.5357 15.7842 A 1.0000 1.0000 0 0 0 7.2436 15.3796 A 17.0000 17.0000 0 0 1 -7.2436 15.3796 A 1.0000 1.0000 0 0 0 -8.5357 15.7842 Z" stroke="green" stroke-width="1" fill="none" /><path d="M 9.4017 15.2842 L 17.1291 28.6684 A 1.9203 1.9203 0 0 0 20.4551 26.7481 L 13.8883 15.3740 A 2.9203 2.9203 0 1 1 18.9464 12.4537 L 24.4252 21.9433 A 1.9203 1.9203 0 0 0 27.7513 20.0230 L 19.7937 6.2400 A 2.9203 2.9203 0 1 1 24.8518 3.3197 L 29.9136 12.0869 A 1.9203 1.9203 0 1 0 33.2397 10.1666 L 31.6948 7.4909 A 2.9203 2.9203 0 0 1 34.5291 3.1264 L 36.8193 3.3671 A 1.0000 1.0000 0 0 0 37.9218 2.4367 A 38.0000 38.0000 0 0 0 23.5638 -29.8119 A 1.0000 1.0000 0 0 0 22.1347 -29.6151 L 20.7811 -27.7521 A 1.9203 1.9203 0 0 0 22.3347 -24.7031 L 25.4244 -24.7031 A 2.9203 2.9203 0 0 1 25.4244 -18.8625 L 15.3009 -18.8625 A 1.9203 1.9203 0 1 0 15.3009 -15.0219 L 31.2161 -15.0219 A 2.9203 2.9203 0 1 1 31.2161 -9.1812 L 20.2584 -9.1812 A 1.9203 1.9203 0 1 0 20.2584 -5.3406 L 33.3921 -5.3406 A 2.9203 2.9203 0 1 1 33.3921 0.5000 L 17.9374 0.5000 A 1.0000 1.0000 0 0 0 16.9409 1.4167 A 17.0000 17.0000 0 0 1 9.6973 13.9629 A 1.0000 1.0000 0 0 0 9.4017 15.2842 Z" stroke="green" stroke-width="1" fill="none" /></svg>