0
SECTION
2
ENTITIES
0
CIRCLE
8
PARAMETRIX
10
0.0000
20
0.0000
40
42.0000
0
LINE
8
PARAMETRIX
10
8.8273
20
-0.0000
11
10.9717
21
0.0000
0
ARC
8
PARAMETRIX
10
10.9717
20
1.0000
40
1.0000
50
270.0000
51
11.7000
0
LINE
8
PARAMETRIX
10
11.9509
20
1.2028
11
11.4457
21
3.6424
0
ARC
8
PARAMETRIX
10
10.4665
20
3.4396
40
1.0000
50
11.7000
51
113.4000
0
LINE
8
PARAMETRIX
10
10.0693
20
4.3574
11
8.1013
21
3.5057
0
ARC
8
PARAMETRIX
10
7.7041
20
4.4235
40
1.0000
50
214.2000
51
293.4000
0
LINE
8
PARAMETRIX
10
6.8770
20
3.8614
11
6.1219
21
4.9726
0
ARC
8
PARAMETRIX
10
6.9489
20
5.5347
40
1.0000
50
135.0000
51
214.2000
0
LINE
8
PARAMETRIX
10
6.2418
20
6.2418
11
7.7582
21
7.7582
0
ARC
8
PARAMETRIX
10
7.0511
20
8.4653
40
1.0000
50
315.0000
51
56.7000
0
LINE
8
PARAMETRIX
10
7.6001
20
9.3011
11
5.5177
21
10.6689
0
ARC
8
PARAMETRIX
10
4.9687
20
9.8331
40
1.0000
50
56.7000
51
158.4000
0
LINE
8
PARAMETRIX
10
4.0389
20
10.2012
11
3.2495
21
8.2074
0
ARC
8
PARAMETRIX
10
2.3198
20
8.5755
40
1.0000
50
259.2000
51
338.4000
0
LINE
8
PARAMETRIX
10
2.1324
20
7.5932
11
0.8126
21
7.8450
0
ARC
8
PARAMETRIX
10
1.0000
20
8.8273
40
1.0000
50
180.0000
51
259.2000
0
LINE
8
PARAMETRIX
10
0.0000
20
8.8273
11
0.0000
21
10.9717
0
ARC
8
PARAMETRIX
10
-1.0000
20
10.9717
40
1.0000
50
0.0000
51
101.7000
0
LINE
8
PARAMETRIX
10
-1.2028
20
11.9509
11
-3.6424
21
11.4457
0
ARC
8
PARAMETRIX
10
-3.4396
20
10.4665
40
1.0000
50
101.7000
51
203.4000
0
LINE
8
PARAMETRIX
10
-4.3574
20
10.0693
11
-3.5057
21
8.1013
0
ARC
8
PARAMETRIX
10
-4.4235
20
7.7041
40
1.0000
50
304.2000
51
23.4000
0
LINE
8
PARAMETRIX
10
-3.8614
20
6.8770
11
-4.9726
21
6.1219
0
ARC
8
PARAMETRIX
10
-5.5347
20
6.9489
40
1.0000
50
225.0000
51
304.2000
0
LINE
8
PARAMETRIX
10
-6.2418
20
6.2418
11
-7.7582
21
7.7582
0
ARC
8
PARAMETRIX
10
-8.4653
20
7.0511
40
1.0000
50
45.0000
51
146.7000
0
LINE
8
PARAMETRIX
10
-9.3011
20
7.6001
11
-10.6689
21
5.5177
0
ARC
8
PARAMETRIX
10
-9.8331
20
4.9687
40
1.0000
50
146.7000
51
248.4000
0
LINE
8
PARAMETRIX
10
-10.2012
20
4.0389
11
-8.2074
21
3.2495
0
ARC
8
PARAMETRIX
10
-8.5755
20
2.3198
40
1.0000
50
349.2000
51
68.4000
0
LINE
8
PARAMETRIX
10
-7.5932
20
2.1324
11
-7.8450
21
0.8126
0
ARC
8
PARAMETRIX
10
-8.8273
20
1.0000
40
1.0000
50
270.0000
51
349.2000
0
LINE
8
PARAMETRIX
10
-8.8273
20
0.0000
11
-10.9717
21
0.0000
0
ARC
8
PARAMETRIX
10
-10.9717
20
-1.0000
40
1.0000
50
90.0000
51
191.7000
0
LINE
8
PARAMETRIX
10
-11.9509
20
-1.2028
11
-11.4457
21
-3.6424
0
ARC
8
PARAMETRIX
10
-10.4665
20
-3.4396
40
1.0000
50
191.7000
51
293.4000
0
LINE
8
PARAMETRIX
10
-10.0693
20
-4.3574
11
-8.1013
21
-3.5057
0
ARC
8
PARAMETRIX
10
-7.7041
20
-4.4235
40
1.0000
50
34.2000
51
113.4000
0
LINE
8
PARAMETRIX
10
-6.8770
20
-3.8614
11
-6.1219
21
-4.9726
0
ARC
8
PARAMETRIX
10
-6.9489
20
-5.5347
40
1.0000
50
315.0000
51
34.2000
0
LINE
8
PARAMETRIX
10
-6.2418
20
-6.2418
11
-7.7582
21
-7.7582
0
ARC
8
PARAMETRIX
10
-7.0511
20
-8.4653
40
1.0000
50
135.0000
51
236.7000
0
LINE
8
PARAMETRIX
10
-7.6001
20
-9.3011
11
-5.5177
21
-10.6689
0
ARC
8
PARAMETRIX
10
-4.9687
20
-9.8331
40
1.0000
50
236.7000
51
338.4000
0
LINE
8
PARAMETRIX
10
-4.0389
20
-10.2012
11
-3.2495
21
-8.2074
0
ARC
8
PARAMETRIX
10
-2.3198
20
-8.5755
40
1.0000
50
79.2000
51
158.4000
0
LINE
8
PARAMETRIX
10
-2.1324
20
-7.5932
11
-0.8126
21
-7.8450
0
ARC
8
PARAMETRIX
10
-1.0000
20
-8.8273
40
1.0000
50
0.0000
51
79.2000
0
LINE
8
PARAMETRIX
10
-0.0000
20
-8.8273
11
-0.0000
21
-10.9717
0
ARC
8
PARAMETRIX
10
1.0000
20
-10.9717
40
1.0000
50
180.0000
51
281.7000
0
LINE
8
PARAMETRIX
10
1.2028
20
-11.9509
11
3.6424
21
-11.4457
0
ARC
8
PARAMETRIX
10
3.4396
20
-10.4665
40
1.0000
50
281.7000
51
23.4000
0
LINE
8
PARAMETRIX
10
4.3574
20
-10.0693
11
3.5057
21
-8.1013
0
ARC
8
PARAMETRIX
10
4.4235
20
-7.7041
40
1.0000
50
124.2000
51
203.4000
0
LINE
8
PARAMETRIX
10
3.8614
20
-6.8770
11
4.9726
21
-6.1219
0
ARC
8
PARAMETRIX
10
5.5347
20
-6.9489
40
1.0000
50
45.0000
51
124.2000
0
LINE
8
PARAMETRIX
10
6.2418
20
-6.2418
11
7.7582
21
-7.7582
0
ARC
8
PARAMETRIX
10
8.4653
20
-7.0511
40
1.0000
50
225.0000
51
326.7000
0
LINE
8
PARAMETRIX
10
9.3011
20
-7.6001
11
10.6689
21
-5.5177
0
ARC
8
PARAMETRIX
10
9.8331
20
-4.9687
40
1.0000
50
326.7000
51
68.4000
0
LINE
8
PARAMETRIX
10
10.2012
20
-4.0389
11
8.2074
21
-3.2495
0
ARC
8
PARAMETRIX
10
8.5755
20
-2.3198
40
1.0000
50
169.2000
51
248.4000
0
LINE
8
PARAMETRIX
10
7.5932
20
-2.1324
11
7.8450
21
-0.8126
0
ARC
8
PARAMETRIX
10
8.8273
20
-1.0000
40
1.0000
50
90.0000
51
169.2000
0
CIRCLE
8
PARAMETRIX
10
15.0000
20
0.0000
40
1.0000
0
CIRCLE
8
PARAMETRIX
10
10.6066
20
10.6066
40
1.0000
0
CIRCLE
8
PARAMETRIX
10
0.0000
20
15.0000
40
1.0000
0
CIRCLE
8
PARAMETRIX
10
-10.6066
20
10.6066
40
1.0000
0
CIRCLE
8
PARAMETRIX
10
-15.0000
20
0.0000
40
1.0000
0
CIRCLE
8
PARAMETRIX
10
-10.6066
20
-10.6066
40
1.0000
0
CIRCLE
8
PARAMETRIX
10
-0.0000
20
-15.0000
40
1.0000
0
CIRCLE
8
PARAMETRIX
10
10.6066
20
-10.6066
40
1.0000
0
CIRCLE
8
PARAMETRIX
10
40.0000
20
0.0000
40
1.0000
0
CIRCLE
8
PARAMETRIX
10
36.9552
20
15.3073
40
1.0000
0
CIRCLE
8
PARAMETRIX
10
28.2843
20
28.2843
40
1.0000
0
CIRCLE
8
PARAMETRIX
10
15.3073
20
36.9552
40
1.0000
0
CIRCLE
8
PARAMETRIX
10
0.0000
20
40.0000
40
1.0000
0
CIRCLE
8
PARAMETRIX
10
-15.3073
20
36.9552
40
1.0000
0
CIRCLE
8
PARAMETRIX
10
-28.2843
20
28.2843
40
1.0000
0
CIRCLE
8
PARAMETRIX
10
-36.9552
20
15.3073
40
1.0000
0
CIRCLE
8
PARAMETRIX
10
-40.0000
20
0.0000
40
1.0000
0
CIRCLE
8
PARAMETRIX
10
-36.9552
20
-15.3073
40
1.0000
0
CIRCLE
8
PARAMETRIX
10
-28.2843
20
-28.2843
40
1.0000
0
CIRCLE
8
PARAMETRIX
10
-15.3073
20
-36.9552
40
1.0000
0
CIRCLE
8
PARAMETRIX
10
-0.0000
20
-40.0000
40
1.0000
0
CIRCLE
8
PARAMETRIX
10
15.3073
20
-36.9552
40
1.0000
0
CIRCLE
8
PARAMETRIX
10
28.2843
20
-28.2843
40
1.0000
0
CIRCLE
8
PARAMETRIX
10
36.9552
20
-15.3073
40
1.0000
0
LINE
8
PARAMETRIX
10
17.9374
20
0.5000
11
34.9358
21
0.5000
0
ARC
8
PARAMETRIX
10
34.9358
20
0.9512
40
0.4512
50
270.0000
51
90.0000
0
LINE
8
PARAMETRIX
10
34.9358
20
1.4024
11
19.8471
21
1.4024
0
ARC
8
PARAMETRIX
10
19.8471
20
2.8536
40
1.4512
50
90.0000
51
270.0000
0
LINE
8
PARAMETRIX
10
19.8471
20
4.3048
11
34.6237
21
4.3048
0
ARC
8
PARAMETRIX
10
34.6237
20
4.7560
40
0.4512
50
270.0000
51
90.0000
0
LINE
8
PARAMETRIX
10
34.6237
20
5.2072
11
18.9134
21
5.2072
0
ARC
8
PARAMETRIX
10
18.9134
20
6.6584
40
1.4512
50
90.0000
51
270.0000
0
LINE
8
PARAMETRIX
10
18.9134
20
8.1096
11
33.8841
21
8.1096
0
ARC
8
PARAMETRIX
10
33.8841
20
8.5608
40
0.4512
50
270.0000
51
90.0000
0
LINE
8
PARAMETRIX
10
33.8841
20
9.0121
11
18.5397
21
9.0121
0
ARC
8
PARAMETRIX
10
18.5397
20
10.4633
40
1.4512
50
90.0000
51
270.0000
0
LINE
8
PARAMETRIX
10
18.5397
20
11.9145
11
32.6880
21
11.9145
0
ARC
8
PARAMETRIX
10
32.6880
20
12.3657
40
0.4512
50
270.0000
51
90.0000
0
LINE
8
PARAMETRIX
10
32.6880
20
12.8169
11
24.6287
21
12.8169
0
ARC
8
PARAMETRIX
10
24.6287
20
14.2681
40
1.4512
50
90.0000
51
270.0000
0
LINE
8
PARAMETRIX
10
24.6287
20
15.7193
11
30.9828
21
15.7193
0
ARC
8
PARAMETRIX
10
30.9828
20
16.1705
40
0.4512
50
270.0000
51
90.0000
0
LINE
8
PARAMETRIX
10
30.9828
20
16.6217
11
30.7177
21
16.6217
0
ARC
8
PARAMETRIX
10
30.7177
20
18.0729
40
1.4512
50
122.0000
51
270.0000
0
LINE
8
PARAMETRIX
10
29.9487
20
19.3036
11
31.0870
21
20.0149
0
ARC
8
PARAMETRIX
10
30.5571
20
20.8630
40
1.0000
50
302.0000
51
34.3234
0
ARC
8
PARAMETRIX
10
0.0000
20
0.0000
40
38.0000
50
34.3234
51
69.6766
0
ARC
8
PARAMETRIX
10
12.8508
20
34.6966
40
1.0000
50
69.6766
51
162.0000
0
LINE
8
PARAMETRIX
10
11.8998
20
35.0057
11
11.4850
21
33.7290
0
ARC
8
PARAMETRIX
10
11.9141
20
33.5896
40
0.4512
50
162.0000
51
310.0000
0
LINE
8
PARAMETRIX
10
12.2041
20
33.2439
11
12.4072
21
33.4144
0
ARC
8
PARAMETRIX
10
13.3400
20
32.3027
40
1.4512
50
310.0000
51
130.0000
0
LINE
8
PARAMETRIX
10
14.2728
20
31.1910
11
9.4053
21
27.1066
0
ARC
8
PARAMETRIX
10
9.6953
20
26.7610
40
0.4512
50
130.0000
51
310.0000
0
LINE
8
PARAMETRIX
10
9.9854
20
26.4154
11
16.1592
21
31.5958
0
ARC
8
PARAMETRIX
10
17.0920
20
30.4841
40
1.4512
50
310.0000
51
130.0000
0
LINE
8
PARAMETRIX
10
18.0248
20
29.3724
11
7.1866
21
20.2781
0
ARC
8
PARAMETRIX
10
7.4766
20
19.9324
40
0.4512
50
130.0000
51
310.0000
0
LINE
8
PARAMETRIX
10
7.7666
20
19.5868
11
19.5211
21
29.4499
0
ARC
8
PARAMETRIX
10
20.4539
20
28.3382
40
1.4512
50
310.0000
51
130.0000
0
LINE
8
PARAMETRIX
10
21.3867
20
27.2266
11
9.9185
21
17.6036
0
ARC
8
PARAMETRIX
10
10.2085
20
17.2579
40
0.4512
50
130.0000
51
310.0000
0
LINE
8
PARAMETRIX
10
10.4986
20
16.9123
11
22.5333
21
27.0107
0
ARC
8
PARAMETRIX
10
23.4662
20
25.8990
40
1.4512
50
310.0000
51
130.0000
0
LINE
8
PARAMETRIX
10
24.3990
20
24.7873
11
13.0795
21
15.2891
0
ARC
8
PARAMETRIX
10
13.3695
20
14.9435
40
0.4512
50
130.0000
51
310.0000
0
LINE
8
PARAMETRIX
10
13.6595
20
14.5978
11
25.2182
21
24.2967
0
ARC
8
PARAMETRIX
10
26.1510
20
23.1850
40
1.4512
50
310.0000
51
130.0000
0
LINE
8
PARAMETRIX
10
27.0838
20
22.0733
11
14.0622
21
11.1469
0
ARC
8
PARAMETRIX
10
14.7050
20
10.3809
40
1.0000
50
130.0000
51
215.2198
0
ARC
8
PARAMETRIX
10
0.0000
20
0.0000
40
17.0000
50
4.7802
51
35.2198
0
ARC
8
PARAMETRIX
10
17.9374
20
1.5000
40
1.0000
50
184.7802
51
270.0000
0
LINE
8
PARAMETRIX
10
13.4194
20
11.9130
11
26.4410
21
22.8394
0
ARC
8
PARAMETRIX
10
26.1510
20
23.1850
40
0.4512
50
310.0000
51
130.0000
0
LINE
8
PARAMETRIX
10
25.8610
20
23.5306
11
14.3023
21
13.8318
0
ARC
8
PARAMETRIX
10
13.3695
20
14.9435
40
1.4512
50
130.0000
51
310.0000
0
LINE
8
PARAMETRIX
10
12.4367
20
16.0552
11
23.7562
21
25.5533
0
ARC
8
PARAMETRIX
10
23.4662
20
25.8990
40
0.4512
50
310.0000
51
130.0000
0
LINE
8
PARAMETRIX
10
23.1761
20
26.2446
11
11.1413
21
16.1463
0
ARC
8
PARAMETRIX
10
10.2085
20
17.2579
40
1.4512
50
130.0000
51
310.0000
0
LINE
8
PARAMETRIX
10
9.2757
20
18.3696
11
20.7439
21
27.9926
0
ARC
8
PARAMETRIX
10
20.4539
20
28.3382
40
0.4512
50
310.0000
51
130.0000
0
LINE
8
PARAMETRIX
10
20.1639
20
28.6839
11
8.4094
21
18.8207
0
ARC
8
PARAMETRIX
10
7.4766
20
19.9324
40
1.4512
50
130.0000
51
310.0000
0
LINE
8
PARAMETRIX
10
6.5438
20
21.0441
11
17.3820
21
30.1385
0
ARC
8
PARAMETRIX
10
17.0920
20
30.4841
40
0.4512
50
310.0000
51
130.0000
0
LINE
8
PARAMETRIX
10
16.8020
20
30.8298
11
10.6281
21
25.6493
0
ARC
8
PARAMETRIX
10
9.6953
20
26.7610
40
1.4512
50
130.0000
51
310.0000
0
LINE
8
PARAMETRIX
10
8.7625
20
27.8727
11
13.6300
21
31.9570
0
ARC
8
PARAMETRIX
10
13.3400
20
32.3027
40
0.4512
50
310.0000
51
130.0000
0
LINE
8
PARAMETRIX
10
13.0500
20
32.6483
11
12.8469
21
32.4779
0
ARC
8
PARAMETRIX
10
11.9141
20
33.5896
40
1.4512
50
162.0000
51
310.0000
0
LINE
8
PARAMETRIX
10
10.5339
20
34.0380
11
10.9487
21
35.3147
0
ARC
8
PARAMETRIX
10
9.9976
20
35.6237
40
1.0000
50
342.0000
51
74.3234
0
ARC
8
PARAMETRIX
10
-0.0000
20
0.0000
40
38.0000
50
74.3234
51
109.6766
0
ARC
8
PARAMETRIX
10
-12.4583
20
34.8395
40
1.0000
50
109.6766
51
202.0000
0
LINE
8
PARAMETRIX
10
-13.3855
20
34.4649
11
-12.8826
21
33.2203
0
ARC
8
PARAMETRIX
10
-12.4643
20
33.3893
40
0.4512
50
202.0000
51
350.0000
0
LINE
8
PARAMETRIX
10
-12.0199
20
33.3110
11
-11.9739
21
33.5721
0
ARC
8
PARAMETRIX
10
-10.5447
20
33.3201
40
1.4512
50
350.0000
51
170.0000
0
LINE
8
PARAMETRIX
10
-9.1156
20
33.0681
11
-10.2189
21
26.8105
0
ARC
8
PARAMETRIX
10
-9.7746
20
26.7322
40
0.4512
50
170.0000
51
350.0000
0
LINE
8
PARAMETRIX
10
-9.3302
20
26.6538
11
-7.9307
21
34.5907
0
ARC
8
PARAMETRIX
10
-6.5016
20
34.3387
40
1.4512
50
350.0000
51
170.0000
0
LINE
8
PARAMETRIX
10
-5.0724
20
34.0867
11
-7.5293
21
20.1533
0
ARC
8
PARAMETRIX
10
-7.0849
20
20.0750
40
0.4512
50
170.0000
51
350.0000
0
LINE
8
PARAMETRIX
10
-6.6406
20
19.9966
11
-3.9760
21
35.1079
0
ARC
8
PARAMETRIX
10
-2.5469
20
34.8559
40
1.4512
50
350.0000
51
170.0000
0
LINE
8
PARAMETRIX
10
-1.1177
20
34.6039
11
-3.7174
21
19.8606
0
ARC
8
PARAMETRIX
10
-3.2730
20
19.7823
40
0.4512
50
170.0000
51
350.0000
0
LINE
8
PARAMETRIX
10
-2.8287
20
19.7039
11
-0.1006
21
35.1755
0
ARC
8
PARAMETRIX
10
1.3286
20
34.9235
40
1.4512
50
350.0000
51
170.0000
0
LINE
8
PARAMETRIX
10
2.7577
20
34.6715
11
0.1918
21
20.1195
0
ARC
8
PARAMETRIX
10
0.6362
20
20.0411
40
0.4512
50
170.0000
51
350.0000
0
LINE
8
PARAMETRIX
10
1.0805
20
19.9628
11
3.7006
21
34.8223
0
ARC
8
PARAMETRIX
10
5.1298
20
34.5703
40
1.4512
50
350.0000
51
170.0000
0
LINE
8
PARAMETRIX
10
6.5590
20
34.3183
11
3.6072
21
17.5781
0
ARC
8
PARAMETRIX
10
4.5920
20
17.4044
40
1.0000
50
170.0000
51
255.2198
0
ARC
8
PARAMETRIX
10
0.0000
20
0.0000
40
17.0000
50
44.7802
51
75.2198
0
ARC
8
PARAMETRIX
10
12.7767
20
12.6790
40
1.0000
50
224.7802
51
310.0000
0
LINE
8
PARAMETRIX
10
2.6224
20
17.7517
11
5.5741
21
34.4919
0
ARC
8
PARAMETRIX
10
5.1298
20
34.5703
40
0.4512
50
350.0000
51
170.0000
0
LINE
8
PARAMETRIX
10
4.6854
20
34.6486
11
2.0653
21
19.7891
0
ARC
8
PARAMETRIX
10
0.6362
20
20.0411
40
1.4512
50
170.0000
51
350.0000
0
LINE
8
PARAMETRIX
10
-0.7930
20
20.2931
11
1.7729
21
34.8452
0
ARC
8
PARAMETRIX
10
1.3286
20
34.9235
40
0.4512
50
350.0000
51
170.0000
0
LINE
8
PARAMETRIX
10
0.8842
20
35.0019
11
-1.8438
21
19.5303
0
ARC
8
PARAMETRIX
10
-3.2730
20
19.7823
40
1.4512
50
170.0000
51
350.0000
0
LINE
8
PARAMETRIX
10
-4.7022
20
20.0343
11
-2.1025
21
34.7775
0
ARC
8
PARAMETRIX
10
-2.5469
20
34.8559
40
0.4512
50
350.0000
51
170.0000
0
LINE
8
PARAMETRIX
10
-2.9912
20
34.9342
11
-5.6558
21
19.8230
0
ARC
8
PARAMETRIX
10
-7.0849
20
20.0750
40
1.4512
50
170.0000
51
350.0000
0
LINE
8
PARAMETRIX
10
-8.5141
20
20.3270
11
-6.0572
21
34.2604
0
ARC
8
PARAMETRIX
10
-6.5016
20
34.3387
40
0.4512
50
350.0000
51
170.0000
0
LINE
8
PARAMETRIX
10
-6.9459
20
34.4171
11
-8.3454
21
26.4802
0
ARC
8
PARAMETRIX
10
-9.7746
20
26.7322
40
1.4512
50
170.0000
51
350.0000
0
LINE
8
PARAMETRIX
10
-11.2037
20
26.9842
11
-10.1004
21
33.2417
0
ARC
8
PARAMETRIX
10
-10.5447
20
33.3201
40
0.4512
50
350.0000
51
170.0000
0
LINE
8
PARAMETRIX
10
-10.9891
20
33.3984
11
-11.0351
21
33.1373
0
ARC
8
PARAMETRIX
10
-12.4643
20
33.3893
40
1.4512
50
202.0000
51
350.0000
0
LINE
8
PARAMETRIX
10
-13.8098
20
32.8457
11
-14.3126
21
34.0903
0
ARC
8
PARAMETRIX
10
-15.2398
20
33.7157
40
1.0000
50
22.0000
51
114.3234
0
ARC
8
PARAMETRIX
10
-0.0000
20
0.0000
40
38.0000
50
114.3234
51
149.6766
0
ARC
8
PARAMETRIX
10
-31.9380
20
18.6806
40
1.0000
50
149.6766
51
242.0000
0
LINE
8
PARAMETRIX
10
-32.4075
20
17.7976
11
-31.2223
21
17.1675
0
ARC
8
PARAMETRIX
10
-31.0104
20
17.5658
40
0.4512
50
242.0000
51
30.0000
0
LINE
8
PARAMETRIX
10
-30.6197
20
17.7914
11
-30.7522
21
18.0210
0
ARC
8
PARAMETRIX
10
-29.4954
20
18.7466
40
1.4512
50
30.0000
51
210.0000
0
LINE
8
PARAMETRIX
10
-28.2387
20
19.4722
11
-25.0616
21
13.9694
0
ARC
8
PARAMETRIX
10
-24.6709
20
14.1950
40
0.4512
50
210.0000
51
30.0000
0
LINE
8
PARAMETRIX
10
-24.2801
20
14.4206
11
-28.3098
21
21.4002
0
ARC
8
PARAMETRIX
10
-27.0530
20
22.1258
40
1.4512
50
30.0000
51
210.0000
0
LINE
8
PARAMETRIX
10
-25.7962
20
22.8515
11
-18.7221
21
10.5986
0
ARC
8
PARAMETRIX
10
-18.3313
20
10.8242
40
0.4512
50
210.0000
51
30.0000
0
LINE
8
PARAMETRIX
10
-17.9405
20
11.0498
11
-25.6127
21
24.3384
0
ARC
8
PARAMETRIX
10
-24.3559
20
25.0640
40
1.4512
50
30.0000
51
210.0000
0
LINE
8
PARAMETRIX
10
-23.0992
20
25.7896
11
-15.6138
21
12.8246
0
ARC
8
PARAMETRIX
10
-15.2231
20
13.0503
40
0.4512
50
210.0000
51
30.0000
0
LINE
8
PARAMETRIX
10
-14.8323
20
13.2759
11
-22.6875
21
26.8814
0
ARC
8
PARAMETRIX
10
-21.4307
20
27.6070
40
1.4512
50
30.0000
51
210.0000
0
LINE
8
PARAMETRIX
10
-20.1739
20
28.3326
11
-12.7856
21
15.5357
0
ARC
8
PARAMETRIX
10
-12.3949
20
15.7613
40
0.4512
50
210.0000
51
30.0000
0
LINE
8
PARAMETRIX
10
-12.0041
20
15.9869
11
-19.5485
21
29.0541
0
ARC
8
PARAMETRIX
10
-18.2917
20
29.7797
40
1.4512
50
30.0000
51
210.0000
0
LINE
8
PARAMETRIX
10
-17.0349
20
30.5053
11
-8.5357
21
15.7842
0
ARC
8
PARAMETRIX
10
-7.6697
20
16.2842
40
1.0000
50
210.0000
51
295.2198
0
ARC
8
PARAMETRIX
10
-0.0000
20
0.0000
40
17.0000
50
84.7802
51
115.2198
0
ARC
8
PARAMETRIX
10
1.6376
20
17.9254
40
1.0000
50
264.7802
51
350.0000
0
LINE
8
PARAMETRIX
10
-9.4017
20
15.2842
11
-17.9009
21
30.0053
0
ARC
8
PARAMETRIX
10
-18.2917
20
29.7797
40
0.4512
50
30.0000
51
210.0000
0
LINE
8
PARAMETRIX
10
-18.6824
20
29.5541
11
-11.1381
21
16.4869
0
ARC
8
PARAMETRIX
10
-12.3949
20
15.7613
40
1.4512
50
210.0000
51
30.0000
0
LINE
8
PARAMETRIX
10
-13.6516
20
15.0357
11
-21.0399
21
27.8326
0
ARC
8
PARAMETRIX
10
-21.4307
20
27.6070
40
0.4512
50
30.0000
51
210.0000
0
LINE
8
PARAMETRIX
10
-21.8214
20
27.3814
11
-13.9663
21
13.7759
0
ARC
8
PARAMETRIX
10
-15.2231
20
13.0503
40
1.4512
50
210.0000
51
30.0000
0
LINE
8
PARAMETRIX
10
-16.4798
20
12.3246
11
-23.9652
21
25.2896
0
ARC
8
PARAMETRIX
10
-24.3559
20
25.0640
40
0.4512
50
30.0000
51
210.0000
0
LINE
8
PARAMETRIX
10
-24.7467
20
24.8384
11
-17.0745
21
11.5498
0
ARC
8
PARAMETRIX
10
-18.3313
20
10.8242
40
1.4512
50
210.0000
51
30.0000
0
LINE
8
PARAMETRIX
10
-19.5881
20
10.0986
11
-26.6623
21
22.3515
0
ARC
8
PARAMETRIX
10
-27.0530
20
22.1258
40
0.4512
50
30.0000
51
210.0000
0
LINE
8
PARAMETRIX
10
-27.4438
20
21.9002
11
-23.4141
21
14.9206
0
ARC
8
PARAMETRIX
10
-24.6709
20
14.1950
40
1.4512
50
210.0000
51
30.0000
0
LINE
8
PARAMETRIX
10
-25.9276
20
13.4694
11
-29.1047
21
18.9722
0
ARC
8
PARAMETRIX
10
-29.4954
20
18.7466
40
0.4512
50
30.0000
51
210.0000
0
LINE
8
PARAMETRIX
10
-29.8862
20
18.5210
11
-29.7536
21
18.2914
0
ARC
8
PARAMETRIX
10
-31.0104
20
17.5658
40
1.4512
50
242.0000
51
30.0000
0
LINE
8
PARAMETRIX
10
-31.6917
20
16.2845
11
-32.8769
21
16.9147
0
ARC
8
PARAMETRIX
10
-33.3464
20
16.0317
40
1.0000
50
62.0000
51
154.3234
0
ARC
8
PARAMETRIX
10
-0.0000
20
-0.0000
40
38.0000
50
154.3234
51
189.6766
0
ARC
8
PARAMETRIX
10
-36.4736
20
-6.2192
40
1.0000
50
189.6766
51
282.0000
0
LINE
8
PARAMETRIX
10
-36.2657
20
-7.1973
11
-34.9527
21
-6.9182
0
ARC
8
PARAMETRIX
10
-35.0465
20
-6.4769
40
0.4512
50
282.0000
51
70.0000
0
LINE
8
PARAMETRIX
10
-34.8922
20
-6.0529
11
-35.1413
21
-5.9622
0
ARC
8
PARAMETRIX
10
-34.6449
20
-4.5985
40
1.4512
50
70.0000
51
250.0000
0
LINE
8
PARAMETRIX
10
-34.1486
20
-3.2349
11
-28.1777
21
-5.4081
0
ARC
8
PARAMETRIX
10
-28.0234
20
-4.9841
40
0.4512
50
250.0000
51
70.0000
0
LINE
8
PARAMETRIX
10
-27.8691
20
-4.5601
11
-35.4424
21
-1.8036
0
ARC
8
PARAMETRIX
10
-34.9460
20
-0.4400
40
1.4512
50
70.0000
51
250.0000
0
LINE
8
PARAMETRIX
10
-34.4497
20
0.9237
11
-21.1546
21
-3.9153
0
ARC
8
PARAMETRIX
10
-21.0003
20
-3.4913
40
0.4512
50
250.0000
51
70.0000
0
LINE
8
PARAMETRIX
10
-20.8460
20
-3.0673
11
-35.2649
21
2.1808
0
ARC
8
PARAMETRIX
10
-34.7686
20
3.5445
40
1.4512
50
70.0000
51
250.0000
0
LINE
8
PARAMETRIX
10
-34.2723
20
4.9082
11
-20.2044
21
-0.2121
0
ARC
8
PARAMETRIX
10
-20.0501
20
0.2119
40
0.4512
50
250.0000
51
70.0000
0
LINE
8
PARAMETRIX
10
-19.8958
20
0.6359
11
-34.6586
21
6.0091
0
ARC
8
PARAMETRIX
10
-34.1623
20
7.3728
40
1.4512
50
70.0000
51
250.0000
0
LINE
8
PARAMETRIX
10
-33.6659
20
8.7365
11
-19.7805
21
3.6826
0
ARC
8
PARAMETRIX
10
-19.6262
20
4.1066
40
0.4512
50
250.0000
51
70.0000
0
LINE
8
PARAMETRIX
10
-19.4719
20
4.5306
11
-33.6506
21
9.6912
0
ARC
8
PARAMETRIX
10
-33.1543
20
11.0549
40
1.4512
50
70.0000
51
250.0000
0
LINE
8
PARAMETRIX
10
-32.6579
20
12.4186
11
-16.6846
21
6.6048
0
ARC
8
PARAMETRIX
10
-16.3426
20
7.5445
40
1.0000
50
250.0000
51
335.2198
0
ARC
8
PARAMETRIX
10
-0.0000
20
0.0000
40
17.0000
50
124.7802
51
155.2198
0
ARC
8
PARAMETRIX
10
-10.2677
20
14.7842
40
1.0000
50
304.7802
51
30.0000
0
LINE
8
PARAMETRIX
10
-17.0266
20
5.6651
11
-33.0000
21
11.4789
0
ARC
8
PARAMETRIX
10
-33.1543
20
11.0549
40
0.4512
50
70.0000
51
250.0000
0
LINE
8
PARAMETRIX
10
-33.3086
20
10.6309
11
-19.1298
21
5.4703
0
ARC
8
PARAMETRIX
10
-19.6262
20
4.1066
40
1.4512
50
250.0000
51
70.0000
0
LINE
8
PARAMETRIX
10
-20.1225
20
2.7429
11
-34.0079
21
7.7968
0
ARC
8
PARAMETRIX
10
-34.1623
20
7.3728
40
0.4512
50
70.0000
51
250.0000
0
LINE
8
PARAMETRIX
10
-34.3166
20
6.9488
11
-19.5537
21
1.5756
0
ARC
8
PARAMETRIX
10
-20.0501
20
0.2119
40
1.4512
50
250.0000
51
70.0000
0
LINE
8
PARAMETRIX
10
-20.5464
20
-1.1518
11
-34.6143
21
3.9685
0
ARC
8
PARAMETRIX
10
-34.7686
20
3.5445
40
0.4512
50
70.0000
51
250.0000
0
LINE
8
PARAMETRIX
10
-34.9229
20
3.1205
11
-20.5039
21
-2.1276
0
ARC
8
PARAMETRIX
10
-21.0003
20
-3.4913
40
1.4512
50
250.0000
51
70.0000
0
LINE
8
PARAMETRIX
10
-21.4966
20
-4.8550
11
-34.7917
21
-0.0160
0
ARC
8
PARAMETRIX
10
-34.9460
20
-0.4400
40
0.4512
50
70.0000
51
250.0000
0
LINE
8
PARAMETRIX
10
-35.1003
20
-0.8639
11
-27.5270
21
-3.6204
0
ARC
8
PARAMETRIX
10
-28.0234
20
-4.9841
40
1.4512
50
250.0000
51
70.0000
0
LINE
8
PARAMETRIX
10
-28.5197
20
-6.3478
11
-34.4906
21
-4.1746
0
ARC
8
PARAMETRIX
10
-34.6449
20
-4.5985
40
0.4512
50
70.0000
51
250.0000
0
LINE
8
PARAMETRIX
10
-34.7993
20
-5.0225
11
-34.5501
21
-5.1132
0
ARC
8
PARAMETRIX
10
-35.0465
20
-6.4769
40
1.4512
50
282.0000
51
70.0000
0
LINE
8
PARAMETRIX
10
-34.7447
20
-7.8964
11
-36.0578
21
-8.1755
0
ARC
8
PARAMETRIX
10
-35.8498
20
-9.1536
40
1.0000
50
102.0000
51
194.3234
0
ARC
8
PARAMETRIX
10
-0.0000
20
-0.0000
40
38.0000
50
194.3234
51
229.6766
0
ARC
8
PARAMETRIX
10
-23.9428
20
-28.2089
40
1.0000
50
229.6766
51
322.0000
0
LINE
8
PARAMETRIX
10
-23.1548
20
-28.8246
11
-22.3283
21
-27.7668
0
ARC
8
PARAMETRIX
10
-22.6839
20
-27.4890
40
0.4512
50
322.0000
51
110.0000
0
LINE
8
PARAMETRIX
10
-22.8382
20
-27.0650
11
-23.0873
21
-27.1557
0
ARC
8
PARAMETRIX
10
-23.5837
20
-25.7920
40
1.4512
50
110.0000
51
290.0000
0
LINE
8
PARAMETRIX
10
-24.0800
20
-24.4283
11
-18.1091
21
-22.2551
0
ARC
8
PARAMETRIX
10
-18.2634
20
-21.8311
40
0.4512
50
290.0000
51
110.0000
0
LINE
8
PARAMETRIX
10
-18.4178
20
-21.4071
11
-25.9911
21
-24.1636
0
ARC
8
PARAMETRIX
10
-26.4874
20
-22.7999
40
1.4512
50
110.0000
51
290.0000
0
LINE
8
PARAMETRIX
10
-26.9838
20
-21.4362
11
-13.6887
21
-16.5972
0
ARC
8
PARAMETRIX
10
-13.8430
20
-16.1732
40
0.4512
50
290.0000
51
110.0000
0
LINE
8
PARAMETRIX
10
-13.9973
20
-15.7492
11
-28.4163
21
-20.9973
0
ARC
8
PARAMETRIX
10
-28.9126
20
-19.6336
40
1.4512
50
110.0000
51
290.0000
0
LINE
8
PARAMETRIX
10
-29.4090
20
-18.2699
11
-15.3411
21
-13.1496
0
ARC
8
PARAMETRIX
10
-15.4954
20
-12.7256
40
0.4512
50
290.0000
51
110.0000
0
LINE
8
PARAMETRIX
10
-15.6498
20
-12.3016
11
-30.4126
21
-17.6749
0
ARC
8
PARAMETRIX
10
-30.9090
20
-16.3112
40
1.4512
50
110.0000
51
290.0000
0
LINE
8
PARAMETRIX
10
-31.4053
20
-14.9475
11
-17.5199
21
-9.8936
0
ARC
8
PARAMETRIX
10
-17.6742
20
-9.4696
40
0.4512
50
290.0000
51
110.0000
0
LINE
8
PARAMETRIX
10
-17.8285
20
-9.0456
11
-32.0073
21
-14.2063
0
ARC
8
PARAMETRIX
10
-32.5036
20
-12.8426
40
1.4512
50
110.0000
51
290.0000
0
LINE
8
PARAMETRIX
10
-33.0000
20
-11.4789
11
-17.0266
21
-5.6651
0
ARC
8
PARAMETRIX
10
-17.3687
20
-4.7254
40
1.0000
50
290.0000
51
15.2198
0
ARC
8
PARAMETRIX
10
-0.0000
20
0.0000
40
17.0000
50
164.7802
51
195.2198
0
ARC
8
PARAMETRIX
10
-17.3687
20
4.7254
40
1.0000
50
344.7802
51
70.0000
0
LINE
8
PARAMETRIX
10
-16.6846
20
-6.6048
11
-32.6579
21
-12.4186
0
ARC
8
PARAMETRIX
10
-32.5036
20
-12.8426
40
0.4512
50
110.0000
51
290.0000
0
LINE
8
PARAMETRIX
10
-32.3493
20
-13.2666
11
-18.1705
21
-8.1059
0
ARC
8
PARAMETRIX
10
-17.6742
20
-9.4696
40
1.4512
50
290.0000
51
110.0000
0
LINE
8
PARAMETRIX
10
-17.1778
20
-10.8333
11
-31.0633
21
-15.8872
0
ARC
8
PARAMETRIX
10
-30.9090
20
-16.3112
40
0.4512
50
110.0000
51
290.0000
0
LINE
8
PARAMETRIX
10
-30.7546
20
-16.7352
11
-15.9918
21
-11.3620
0
ARC
8
PARAMETRIX
10
-15.4954
20
-12.7256
40
1.4512
50
290.0000
51
110.0000
0
LINE
8
PARAMETRIX
10
-14.9991
20
-14.0893
11
-29.0669
21
-19.2096
0
ARC
8
PARAMETRIX
10
-28.9126
20
-19.6336
40
0.4512
50
110.0000
51
290.0000
0
LINE
8
PARAMETRIX
10
-28.7583
20
-20.0576
11
-14.3393
21
-14.8095
0
ARC
8
PARAMETRIX
10
-13.8430
20
-16.1732
40
1.4512
50
290.0000
51
110.0000
0
LINE
8
PARAMETRIX
10
-13.3466
20
-17.5369
11
-26.6417
21
-22.3759
0
ARC
8
PARAMETRIX
10
-26.4874
20
-22.7999
40
0.4512
50
110.0000
51
290.0000
0
LINE
8
PARAMETRIX
10
-26.3331
20
-23.2239
11
-18.7598
21
-20.4674
0
ARC
8
PARAMETRIX
10
-18.2634
20
-21.8311
40
1.4512
50
290.0000
51
110.0000
0
LINE
8
PARAMETRIX
10
-17.7671
20
-23.1948
11
-23.7380
21
-25.3680
0
ARC
8
PARAMETRIX
10
-23.5837
20
-25.7920
40
0.4512
50
110.0000
51
290.0000
0
LINE
8
PARAMETRIX
10
-23.4294
20
-26.2160
11
-23.1802
21
-26.1253
0
ARC
8
PARAMETRIX
10
-22.6839
20
-27.4890
40
1.4512
50
322.0000
51
110.0000
0
LINE
8
PARAMETRIX
10
-21.5403
20
-28.3825
11
-22.3667
21
-29.4403
0
ARC
8
PARAMETRIX
10
-21.5787
20
-30.0559
40
1.0000
50
142.0000
51
234.3234
0
ARC
8
PARAMETRIX
10
-0.0000
20
-0.0000
40
38.0000
50
234.3234
51
269.6766
0
ARC
8
PARAMETRIX
10
-0.2089
20
-36.9994
40
1.0000
50
269.6766
51
2.0000
0
LINE
8
PARAMETRIX
10
0.7905
20
-36.9645
11
0.7437
21
-35.6230
0
ARC
8
PARAMETRIX
10
0.2927
20
-35.6387
40
0.4512
50
2.0000
51
150.0000
0
LINE
8
PARAMETRIX
10
-0.0980
20
-35.4131
11
-0.2306
21
-35.6427
0
ARC
8
PARAMETRIX
10
-1.4873
20
-34.9171
40
1.4512
50
150.0000
51
330.0000
0
LINE
8
PARAMETRIX
10
-2.7441
20
-34.1915
11
0.4329
21
-28.6887
0
ARC
8
PARAMETRIX
10
0.0422
20
-28.4631
40
0.4512
50
330.0000
51
150.0000
0
LINE
8
PARAMETRIX
10
-0.3486
20
-28.2375
11
-4.3783
21
-35.2171
0
ARC
8
PARAMETRIX
10
-5.6350
20
-34.4915
40
1.4512
50
150.0000
51
330.0000
0
LINE
8
PARAMETRIX
10
-6.8918
20
-33.7659
11
0.1823
21
-21.5131
0
ARC
8
PARAMETRIX
10
-0.2084
20
-21.2875
40
0.4512
50
330.0000
51
150.0000
0
LINE
8
PARAMETRIX
10
-0.5992
20
-21.0619
11
-8.2713
21
-34.3505
0
ARC
8
PARAMETRIX
10
-9.5281
20
-33.6249
40
1.4512
50
150.0000
51
330.0000
0
LINE
8
PARAMETRIX
10
-10.7849
20
-32.8993
11
-3.2996
21
-19.9343
0
ARC
8
PARAMETRIX
10
-3.6903
20
-19.7087
40
0.4512
50
330.0000
51
150.0000
0
LINE
8
PARAMETRIX
10
-4.0811
20
-19.4831
11
-11.9362
21
-33.0886
0
ARC
8
PARAMETRIX
10
-13.1930
20
-32.3630
40
1.4512
50
150.0000
51
330.0000
0
LINE
8
PARAMETRIX
10
-14.4498
20
-31.6374
11
-7.0615
21
-18.8405
0
ARC
8
PARAMETRIX
10
-7.4523
20
-18.6149
40
0.4512
50
330.0000
51
150.0000
0
LINE
8
PARAMETRIX
10
-7.8430
20
-18.3893
11
-15.3874
21
-31.4565
0
ARC
8
PARAMETRIX
10
-16.6442
20
-30.7309
40
1.4512
50
150.0000
51
330.0000
0
LINE
8
PARAMETRIX
10
-17.9009
20
-30.0053
11
-9.4017
21
-15.2842
0
ARC
8
PARAMETRIX
10
-10.2677
20
-14.7842
40
1.0000
50
330.0000
51
55.2198
0
ARC
8
PARAMETRIX
10
-0.0000
20
-0.0000
40
17.0000
50
204.7802
51
235.2198
0
ARC
8
PARAMETRIX
10
-16.3426
20
-7.5445
40
1.0000
50
24.7802
51
110.0000
0
LINE
8
PARAMETRIX
10
-8.5357
20
-15.7842
11
-17.0349
21
-30.5053
0
ARC
8
PARAMETRIX
10
-16.6442
20
-30.7309
40
0.4512
50
150.0000
51
330.0000
0
LINE
8
PARAMETRIX
10
-16.2534
20
-30.9565
11
-8.7090
21
-17.8893
0
ARC
8
PARAMETRIX
10
-7.4523
20
-18.6149
40
1.4512
50
330.0000
51
150.0000
0
LINE
8
PARAMETRIX
10
-6.1955
20
-19.3405
11
-13.5838
21
-32.1374
0
ARC
8
PARAMETRIX
10
-13.1930
20
-32.3630
40
0.4512
50
150.0000
51
330.0000
0
LINE
8
PARAMETRIX
10
-12.8022
20
-32.5886
11
-4.9471
21
-18.9831
0
ARC
8
PARAMETRIX
10
-3.6903
20
-19.7087
40
1.4512
50
330.0000
51
150.0000
0
LINE
8
PARAMETRIX
10
-2.4335
20
-20.4343
11
-9.9189
21
-33.3993
0
ARC
8
PARAMETRIX
10
-9.5281
20
-33.6249
40
0.4512
50
150.0000
51
330.0000
0
LINE
8
PARAMETRIX
10
-9.1374
20
-33.8505
11
-1.4652
21
-20.5619
0
ARC
8
PARAMETRIX
10
-0.2084
20
-21.2875
40
1.4512
50
330.0000
51
150.0000
0
LINE
8
PARAMETRIX
10
1.0484
20
-22.0131
11
-6.0258
21
-34.2659
0
ARC
8
PARAMETRIX
10
-5.6350
20
-34.4915
40
0.4512
50
150.0000
51
330.0000
0
LINE
8
PARAMETRIX
10
-5.2443
20
-34.7171
11
-1.2146
21
-27.7375
0
ARC
8
PARAMETRIX
10
0.0422
20
-28.4631
40
1.4512
50
330.0000
51
150.0000
0
LINE
8
PARAMETRIX
10
1.2989
20
-29.1887
11
-1.8781
21
-34.6915
0
ARC
8
PARAMETRIX
10
-1.4873
20
-34.9171
40
0.4512
50
150.0000
51
330.0000
0
LINE
8
PARAMETRIX
10
-1.0966
20
-35.1427
11
-0.9640
21
-34.9131
0
ARC
8
PARAMETRIX
10
0.2927
20
-35.6387
40
1.4512
50
2.0000
51
150.0000
0
LINE
8
PARAMETRIX
10
1.7431
20
-35.5881
11
1.7899
21
-36.9296
0
ARC
8
PARAMETRIX
10
2.7893
20
-36.8947
40
1.0000
50
182.0000
51
274.3234
0
ARC
8
PARAMETRIX
10
0.0000
20
-0.0000
40
38.0000
50
274.3234
51
309.6766
0
ARC
8
PARAMETRIX
10
23.6228
20
-28.4774
40
1.0000
50
309.6766
51
42.0000
0
LINE
8
PARAMETRIX
10
24.3659
20
-27.8083
11
23.4677
21
-26.8108
0
ARC
8
PARAMETRIX
10
23.1324
20
-27.1127
40
0.4512
50
42.0000
51
190.0000
0
LINE
8
PARAMETRIX
10
22.6880
20
-27.1910
11
22.7341
21
-27.4521
0
ARC
8
PARAMETRIX
10
21.3049
20
-27.7041
40
1.4512
50
190.0000
51
10.0000
0
LINE
8
PARAMETRIX
10
19.8758
20
-27.9561
11
18.7724
21
-21.6986
0
ARC
8
PARAMETRIX
10
18.3280
20
-21.7769
40
0.4512
50
10.0000
51
190.0000
0
LINE
8
PARAMETRIX
10
17.8837
20
-21.8553
11
19.2832
21
-29.7922
0
ARC
8
PARAMETRIX
10
17.8540
20
-30.0442
40
1.4512
50
190.0000
51
10.0000
0
LINE
8
PARAMETRIX
10
16.4249
20
-30.2962
11
13.9680
21
-16.3628
0
ARC
8
PARAMETRIX
10
13.5237
20
-16.4411
40
0.4512
50
10.0000
51
190.0000
0
LINE
8
PARAMETRIX
10
13.0793
20
-16.5195
11
15.7439
21
-31.6307
0
ARC
8
PARAMETRIX
10
14.3147
20
-31.8827
40
1.4512
50
190.0000
51
10.0000
0
LINE
8
PARAMETRIX
10
12.8855
20
-32.1347
11
10.2859
21
-17.3915
0
ARC
8
PARAMETRIX
10
9.8416
20
-17.4698
40
0.4512
50
10.0000
51
190.0000
0
LINE
8
PARAMETRIX
10
9.3972
20
-17.5482
11
12.1253
21
-33.0198
0
ARC
8
PARAMETRIX
10
10.6961
20
-33.2718
40
1.4512
50
190.0000
51
10.0000
0
LINE
8
PARAMETRIX
10
9.2669
20
-33.5238
11
6.7010
21
-18.9717
0
ARC
8
PARAMETRIX
10
6.2567
20
-19.0501
40
0.4512
50
10.0000
51
190.0000
0
LINE
8
PARAMETRIX
10
5.8123
20
-19.1284
11
8.4325
21
-33.9879
0
ARC
8
PARAMETRIX
10
7.0033
20
-34.2399
40
1.4512
50
190.0000
51
10.0000
0
LINE
8
PARAMETRIX
10
5.5741
20
-34.4919
11
2.6224
21
-17.7517
0
ARC
8
PARAMETRIX
10
1.6376
20
-17.9254
40
1.0000
50
10.0000
51
95.2198
0
ARC
8
PARAMETRIX
10
-0.0000
20
-0.0000
40
17.0000
50
244.7802
51
275.2198
0
ARC
8
PARAMETRIX
10
-7.6697
20
-16.2842
40
1.0000
50
64.7802
51
150.0000
0
LINE
8
PARAMETRIX
10
3.6072
20
-17.5781
11
6.5590
21
-34.3183
0
ARC
8
PARAMETRIX
10
7.0033
20
-34.2399
40
0.4512
50
190.0000
51
10.0000
0
LINE
8
PARAMETRIX
10
7.4477
20
-34.1616
11
4.8275
21
-19.3021
0
ARC
8
PARAMETRIX
10
6.2567
20
-19.0501
40
1.4512
50
10.0000
51
190.0000
0
LINE
8
PARAMETRIX
10
7.6858
20
-18.7981
11
10.2518
21
-33.3501
0
ARC
8
PARAMETRIX
10
10.6961
20
-33.2718
40
0.4512
50
190.0000
51
10.0000
0
LINE
8
PARAMETRIX
10
11.1405
20
-33.1934
11
8.4124
21
-17.7218
0
ARC
8
PARAMETRIX
10
9.8416
20
-17.4698
40
1.4512
50
10.0000
51
190.0000
0
LINE
8
PARAMETRIX
10
11.2707
20
-17.2178
11
13.8703
21
-31.9611
0
ARC
8
PARAMETRIX
10
14.3147
20
-31.8827
40
0.4512
50
190.0000
51
10.0000
0
LINE
8
PARAMETRIX
10
14.7590
20
-31.8044
11
12.0945
21
-16.6931
0
ARC
8
PARAMETRIX
10
13.5237
20
-16.4411
40
1.4512
50
10.0000
51
190.0000
0
LINE
8
PARAMETRIX
10
14.9528
20
-16.1891
11
17.4097
21
-30.1225
0
ARC
8
PARAMETRIX
10
17.8540
20
-30.0442
40
0.4512
50
190.0000
51
10.0000
0
LINE
8
PARAMETRIX
10
18.2984
20
-29.9658
11
16.8989
21
-22.0289
0
ARC
8
PARAMETRIX
10
18.3280
20
-21.7769
40
1.4512
50
10.0000
51
190.0000
0
LINE
8
PARAMETRIX
10
19.7572
20
-21.5249
11
20.8606
21
-27.7825
0
ARC
8
PARAMETRIX
10
21.3049
20
-27.7041
40
0.4512
50
190.0000
51
10.0000
0
LINE
8
PARAMETRIX
10
21.7493
20
-27.6258
11
21.7032
21
-27.3647
0
ARC
8
PARAMETRIX
10
23.1324
20
-27.1127
40
1.4512
50
42.0000
51
190.0000
0
LINE
8
PARAMETRIX
10
24.2109
20
-26.1416
11
25.1091
21
-27.1392
0
ARC
8
PARAMETRIX
10
25.8522
20
-26.4701
40
1.0000
50
222.0000
51
314.3234
0
ARC
8
PARAMETRIX
10
0.0000
20
-0.0000
40
38.0000
50
314.3234
51
349.6766
0
ARC
8
PARAMETRIX
10
36.4010
20
-6.6306
40
1.0000
50
349.6766
51
82.0000
0
LINE
8
PARAMETRIX
10
36.5402
20
-5.6403
11
35.2109
21
-5.4535
0
ARC
8
PARAMETRIX
10
35.1481
20
-5.9003
40
0.4512
50
82.0000
51
230.0000
0
LINE
8
PARAMETRIX
10
34.8581
20
-6.2459
11
35.0612
21
-6.4164
0
ARC
8
PARAMETRIX
10
34.1284
20
-7.5280
40
1.4512
50
230.0000
51
50.0000
0
LINE
8
PARAMETRIX
10
33.1956
20
-8.6397
11
28.3280
21
-4.5554
0
ARC
8
PARAMETRIX
10
28.0380
20
-4.9010
40
0.4512
50
50.0000
51
230.0000
0
LINE
8
PARAMETRIX
10
27.7480
20
-5.2467
11
33.9218
21
-10.4271
0
ARC
8
PARAMETRIX
10
32.9890
20
-11.5388
40
1.4512
50
230.0000
51
50.0000
0
LINE
8
PARAMETRIX
10
32.0562
20
-12.6505
11
21.2179
21
-3.5561
0
ARC
8
PARAMETRIX
10
20.9279
20
-3.9018
40
0.4512
50
50.0000
51
230.0000
0
LINE
8
PARAMETRIX
10
20.6379
20
-4.2474
11
32.3923
21
-14.1106
0
ARC
8
PARAMETRIX
10
31.4595
20
-15.2223
40
1.4512
50
230.0000
51
50.0000
0
LINE
8
PARAMETRIX
10
30.5267
20
-16.3340
11
19.0585
21
-6.7110
0
ARC
8
PARAMETRIX
10
18.7685
20
-7.0566
40
0.4512
50
50.0000
51
230.0000
0
LINE
8
PARAMETRIX
10
18.4784
20
-7.4023
11
30.5132
21
-17.5007
0
ARC
8
PARAMETRIX
10
29.5804
20
-18.6123
40
1.4512
50
230.0000
51
50.0000
0
LINE
8
PARAMETRIX
10
28.6476
20
-19.7240
11
17.3281
21
-10.2258
0
ARC
8
PARAMETRIX
10
17.0380
20
-10.5715
40
0.4512
50
50.0000
51
230.0000
0
LINE
8
PARAMETRIX
10
16.7480
20
-10.9171
11
28.3067
21
-20.6160
0
ARC
8
PARAMETRIX
10
27.3738
20
-21.7277
40
1.4512
50
230.0000
51
50.0000
0
LINE
8
PARAMETRIX
10
26.4410
20
-22.8394
11
13.4194
21
-11.9130
0
ARC
8
PARAMETRIX
10
12.7767
20
-12.6790
40
1.0000
50
50.0000
51
135.2198
0
ARC
8
PARAMETRIX
10
0.0000
20
-0.0000
40
17.0000
50
284.7802
51
315.2198
0
ARC
8
PARAMETRIX
10
4.5920
20
-17.4044
40
1.0000
50
104.7802
51
190.0000
0
LINE
8
PARAMETRIX
10
14.0622
20
-11.1469
11
27.0838
21
-22.0733
0
ARC
8
PARAMETRIX
10
27.3738
20
-21.7277
40
0.4512
50
230.0000
51
50.0000
0
LINE
8
PARAMETRIX
10
27.6639
20
-21.3820
11
16.1052
21
-11.6832
0
ARC
8
PARAMETRIX
10
17.0380
20
-10.5715
40
1.4512
50
50.0000
51
230.0000
0
LINE
8
PARAMETRIX
10
17.9709
20
-9.4598
11
29.2904
21
-18.9580
0
ARC
8
PARAMETRIX
10
29.5804
20
-18.6123
40
0.4512
50
230.0000
51
50.0000
0
LINE
8
PARAMETRIX
10
29.8704
20
-18.2667
11
17.8356
21
-8.1683
0
ARC
8
PARAMETRIX
10
18.7685
20
-7.0566
40
1.4512
50
50.0000
51
230.0000
0
LINE
8
PARAMETRIX
10
19.7013
20
-5.9449
11
31.1695
21
-15.5679
0
ARC
8
PARAMETRIX
10
31.4595
20
-15.2223
40
0.4512
50
230.0000
51
50.0000
0
LINE
8
PARAMETRIX
10
31.7495
20
-14.8766
11
19.9951
21
-5.0135
0
ARC
8
PARAMETRIX
10
20.9279
20
-3.9018
40
1.4512
50
50.0000
51
230.0000
0
LINE
8
PARAMETRIX
10
21.8607
20
-2.7901
11
32.6990
21
-11.8845
0
ARC
8
PARAMETRIX
10
32.9890
20
-11.5388
40
0.4512
50
230.0000
51
50.0000
0
LINE
8
PARAMETRIX
10
33.2790
20
-11.1932
11
27.1052
21
-6.0127
0
ARC
8
PARAMETRIX
10
28.0380
20
-4.9010
40
1.4512
50
50.0000
51
230.0000
0
LINE
8
PARAMETRIX
10
28.9708
20
-3.7894
11
33.8384
21
-7.8737
0
ARC
8
PARAMETRIX
10
34.1284
20
-7.5280
40
0.4512
50
230.0000
51
50.0000
0
LINE
8
PARAMETRIX
10
34.4184
20
-7.1824
11
34.2153
21
-7.0120
0
ARC
8
PARAMETRIX
10
35.1481
20
-5.9003
40
1.4512
50
82.0000
51
230.0000
0
LINE
8
PARAMETRIX
10
35.3501
20
-4.4632
11
36.6794
21
-4.6500
0
ARC
8
PARAMETRIX
10
36.8186
20
-3.6598
40
1.0000
50
262.0000
51
354.3234
0
ARC
8
PARAMETRIX
10
0.0000
20
0.0000
40
38.0000
50
354.3234
51
29.6766
0
ARC
8
PARAMETRIX
10
32.1469
20
18.3188
40
1.0000
50
29.6766
51
122.0000
0
LINE
8
PARAMETRIX
10
31.6169
20
19.1669
11
30.4786
21
18.4555
0
ARC
8
PARAMETRIX
10
30.7177
20
18.0729
40
0.4512
50
122.0000
51
270.0000
0
LINE
8
PARAMETRIX
10
30.7177
20
17.6217
11
30.9828
21
17.6217
0
ARC
8
PARAMETRIX
10
30.9828
20
16.1705
40
1.4512
50
270.0000
51
90.0000
0
LINE
8
PARAMETRIX
10
30.9828
20
14.7193
11
24.6287
21
14.7193
0
ARC
8
PARAMETRIX
10
24.6287
20
14.2681
40
0.4512
50
90.0000
51
270.0000
0
LINE
8
PARAMETRIX
10
24.6287
20
13.8169
11
32.6880
21
13.8169
0
ARC
8
PARAMETRIX
10
32.6880
20
12.3657
40
1.4512
50
270.0000
51
90.0000
0
LINE
8
PARAMETRIX
10
32.6880
20
10.9145
11
18.5397
21
10.9145
0
ARC
8
PARAMETRIX
10
18.5397
20
10.4633
40
0.4512
50
90.0000
51
270.0000
0
LINE
8
PARAMETRIX
10
18.5397
20
10.0121
11
33.8841
21
10.0121
0
ARC
8
PARAMETRIX
10
33.8841
20
8.5608
40
1.4512
50
270.0000
51
90.0000
0
LINE
8
PARAMETRIX
10
33.8841
20
7.1096
11
18.9134
21
7.1096
0
ARC
8
PARAMETRIX
10
18.9134
20
6.6584
40
0.4512
50
90.0000
51
270.0000
0
LINE
8
PARAMETRIX
10
18.9134
20
6.2072
11
34.6237
21
6.2072
0
ARC
8
PARAMETRIX
10
34.6237
20
4.7560
40
1.4512
50
270.0000
51
90.0000
0
LINE
8
PARAMETRIX
10
34.6237
20
3.3048
11
19.8471
21
3.3048
0
ARC
8
PARAMETRIX
10
19.8471
20
2.8536
40
0.4512
50
90.0000
51
270.0000
0
LINE
8
PARAMETRIX
10
19.8471
20
2.4024
11
34.9358
21
2.4024
0
ARC
8
PARAMETRIX
10
34.9358
20
0.9512
40
1.4512
50
270.0000
51
90.0000
0
LINE
8
PARAMETRIX
10
34.9358
20
-0.5000
11
17.9374
21
-0.5000
0
ARC
8
PARAMETRIX
10
17.9374
20
-1.5000
40
1.0000
50
90.0000
51
175.2198
0
ARC
8
PARAMETRIX
10
0.0000
20
-0.0000
40
17.0000
50
324.7802
51
355.2198
0
ARC
8
PARAMETRIX
10
14.7050
20
-10.3809
40
1.0000
50
144.7802
51
230.0000
0
ENDSEC
0
EOF
