<svg width="102" height="102" viewBox="-47 -47 102 102" xmlns="http://www.w3.org/2000/svg"><circle cx="0.0000" cy="0.0000" r="42.0000" stroke="green" stroke-width="1" fill="none" /><path d="M 8.8273 0.0000 L 10.9717 -0.0000 A 1.0000 1.0000 0 0 0 11.9509 -1.2028 L 11.4457 -3.6424 A 1.0000 1.0000 0 0 0 10.0693 -4.3574 L 8.1013 -3.5057 A 1.0000 1.0000 0 0 1 6.8770 -3.8614 L 6.1219 -4.9726 A 1.0000 1.0000 0 0 1 6.2418 -6.2418 L 7.7582 -7.7582 A 1.0000 1.0000 0 0 0 7.6001 -9.3011 L 5.5177 -10.6689 A 1.0000 1.0000 0 0 0 4.0389 -10.2012 L 3.2495 -8.2074 A 1.0000 1.0000 0 0 1 2.1324 -7.5932 L 0.8126 -7.8450 A 1.0000 1.0000 0 0 1 0.0000 -8.8273 L 0.0000 -10.9717 A 1.0000 1.0000 0 0 0 -1.2028 -11.9509 L -3.6424 -11.4457 A 1.0000 1.0000 0 0 0 -4.3574 -10.0693 L -3.5057 -8.1013 A 1.0000 1.0000 0 0 1 -3.8614 -6.8770 L -4.9726 -6.1219 A 1.0000 1.0000 0 0 1 -6.2418 -6.2418 L -7.7582 -7.7582 A 1.0000 1.0000 0 0 0 -9.3011 -7.6001 L -10.6689 -5.5177 A 1.0000 1.0000 0 0 0 -10.2012 -4.0389 L -8.2074 -3.2495 A 1.0000 1.0000 0 0 1 -7.5932 -2.1324 L -7.8450 -0.8126 A 1.0000 1.0000 0 0 1 -8.8273 -0.0000 L -10.9717 -0.0000 A 1.0000 1.0000 0 0 0 -11.9509 1.2028 L -11.4457 3.6424 A 1.0000 1.0000 0 0 0 -10.0693 4.3574 L -8.1013 3.5057 A 1.0000 1.0000 0 0 1 -6.8770 3.8614 L -6.1219 4.9726 A 1.0000 1.0000 0 0 1 -6.2418 6.2418 L -7.7582 7.7582 A 1.0000 1.0000 0 0 0 -7.6001 9.3011 L -5.5177 10.6689 A 1.0000 1.0000 0 0 0 -4.0389 10.2012 L -3.2495 8.2074 A 1.0000 1.0000 0 0 1 -2.1324 7.5932 L -0.8126 7.8450 A 1.0000 1.0000 0 0 1 -0.0000 8.8273 L -0.0000 10.9717 A 1.0000 1.0000 0 0 0 1.2028 11.9509 L 3.6424 11.4457 A 1.0000 1.0000 0 0 0 4.3574 10.0693 L 3.5057 8.1013 A 1.0000 1.0000 0 0 1 3.8614 6.8770 L 4.9726 6.1219 A 1.0000 1.0000 0 0 1 6.2418 6.2418 L 7.7582 7.7582 A 1.0000 1.0000 0 0 0 9.3011 7.6001 L 10.6689 5.5177 A 1.0000 1.0000 0 0 0 10.2012 4.0389 L 8.2074 3.2495 A 1.0000 1.0000 0 0 1 7.5932 2.1324 L 7.8450 0.8126 A 1.0000 1.0000 0 0 1 8.8273 0.0000 Z" stroke="green" stroke-width="1" fill="none" /><circle cx="15.0000" cy="0.0000" r="1.0000" stroke="green" stroke-width="1" fill="none" /><circle cx="10.6066" cy="-10.6066" r="1.0000" stroke="green" stroke-width="1" fill="none" /><circle cx="0.0000" cy="-15.0000" r="1.0000" stroke="green" stroke-width="1" fill="none" /><circle cx="-10.6066" cy="-10.6066" r="1.0000" stroke="green" stroke-width="1" fill="none" /><circle cx="-15.0000" cy="-0.0000" r="1.0000" stroke="green" stroke-width="1" fill="none" /><circle cx="-10.6066" cy="10.6066" r="1.0000" stroke="green" stroke-width="1" fill="none" /><circle cx="-0.0000" cy="15.0000" r="1.0000" stroke="green" stroke-width="1" fill="none" /><circle cx="10.6066" cy="10.6066" r="1.0000" stroke="green" stroke-width="1" fill="none" /><circle cx="40.0000" cy="0.0000" r="1.0000" stroke="green" stroke-width="1" fill="none" /><circle cx="36.9552" cy="-15.3073" r="1.0000" stroke="green" stroke-width="1" fill="none" /><circle cx="28.2843" cy="-28.2843" r="1.0000" stroke="green" stroke-width="1" fill="none" /><circle cx="15.3073" cy="-36.9552" r="1.0000" stroke="green" stroke-width="1" fill="none" /><circle cx="0.0000" cy="-40.0000" r="1.0000" stroke="green" stroke-width="1" fill="none" /><circle cx="-15.3073" cy="-36.9552" r="1.0000" stroke="green" stroke-width="1" fill="none" /><circle cx="-28.2843" cy="-28.2843" r="1.0000" stroke="green" stroke-width="1" fill="none" /><circle cx="-36.9552" cy="-15.3073" r="1.0000" stroke="green" stroke-width="1" fill="none" /><circle cx="-40.0000" cy="-0.0000" r="1.0000" stroke="green" stroke-width="1" fill="none" /><circle cx="-36.9552" cy="15.3073" r="1.0000" stroke="green" stroke-width="1" fill="none" /><circle cx="-28.2843" cy="28.2843" r="1.0000" stroke="green" stroke-width="1" fill="none" /><circle cx="-15.3073" cy="36.9552" r="1.0000" stroke="green" stroke-width="1" fill="none" /><circle cx="-0.0000" cy="40.0000" r="1.0000" stroke="green" stroke-width="1" fill="none" /><circle cx="15.3073" cy="36.9552" r="1.0000" stroke="green" stroke-width="1" fill="none" /><circle cx="28.2843" cy="28.2843" r="1.0000" stroke="green" stroke-width="1" fill="none" /><circle cx="36.9552" cy="15.3073" r="1.0000" stroke="green" stroke-width="1" fill="none" /><path d="M 17.9374 -0.5000 L 34.9358 -0.5000 A 0.4512 0.4512 0 0 0 34.9358 -1.4024 L 19.8471 -1.4024 A 1.4512 1.4512 0 0 1 19.8471 -4.3048 L 34.6237 -4.3048 A 0.4512 0.4512 0 1 0 34.6237 -5.2072 L 18.9134 -5.2072 A 1.4512 1.4512 0 0 1 18.9134 -8.1096 L 33.8841 -8.1096 A 0.4512 0.4512 0 1 0 33.8841 -9.0121 L 18.5397 -9.0121 A 1.4512 1.4512 0 0 1 18.5397 -11.9145 L 32.6880 -11.9145 A 0.4512 0.4512 0 0 0 32.6880 -12.8169 L 24.6287 -12.8169 A 1.4512 1.4512 0 0 1 24.6287 -15.7193 L 30.9828 -15.7193 A 0.4512 0.4512 0 0 0 30.9828 -16.6217 L 30.7177 -16.6217 A 1.4512 1.4512 0 0 1 29.9487 -19.3036 L 31.0870 -20.0149 A 1.0000 1.0000 0 0 0 31.3830 -21.4268 A 38.0000 38.0000 0 0 0 13.1981 -35.6344 A 1.0000 1.0000 0 0 0 11.8998 -35.0057 L 11.4850 -33.7290 A 0.4512 0.4512 0 0 0 12.2041 -33.2439 L 12.4072 -33.4144 A 1.4512 1.4512 0 0 1 14.2728 -31.1910 L 9.4053 -27.1066 A 0.4512 0.4512 0 0 0 9.9854 -26.4154 L 16.1592 -31.5958 A 1.4512 1.4512 0 0 1 18.0248 -29.3724 L 7.1866 -20.2781 A 0.4512 0.4512 0 0 0 7.7666 -19.5868 L 19.5211 -29.4499 A 1.4512 1.4512 0 0 1 21.3867 -27.2266 L 9.9185 -17.6036 A 0.4512 0.4512 0 0 0 10.4986 -16.9123 L 22.5333 -27.0107 A 1.4512 1.4512 0 0 1 24.3990 -24.7873 L 13.0795 -15.2891 A 0.4512 0.4512 0 0 0 13.6595 -14.5978 L 25.2182 -24.2967 A 1.4512 1.4512 0 0 1 27.0838 -22.0733 L 14.0622 -11.1469 A 1.0000 1.0000 0 0 0 13.8881 -9.8042 A 17.0000 17.0000 0 0 1 16.9409 -1.4167 A 1.0000 1.0000 0 0 0 17.9374 -0.5000 Z" stroke="green" stroke-width="1" fill="none" /><path d="M 13.4194 -11.9130 L 26.4410 -22.8394 A 0.4512 0.4512 0 1 0 25.8610 -23.5306 L 14.3023 -13.8318 A 1.4512 1.4512 0 0 1 12.4367 -16.0552 L 23.7562 -25.5533 A 0.4512 0.4512 0 0 0 23.1761 -26.2446 L 11.1413 -16.1463 A 1.4512 1.4512 0 1 1 9.2757 -18.3696 L 20.7439 -27.9926 A 0.4512 0.4512 0 1 0 20.1639 -28.6839 L 8.4094 -18.8207 A 1.4512 1.4512 0 0 1 6.5438 -21.0441 L 17.3820 -30.1385 A 0.4512 0.4512 0 0 0 16.8020 -30.8298 L 10.6281 -25.6493 A 1.4512 1.4512 0 0 1 8.7625 -27.8727 L 13.6300 -31.9570 A 0.4512 0.4512 0 1 0 13.0500 -32.6483 L 12.8469 -32.4779 A 1.4512 1.4512 0 0 1 10.5339 -34.0380 L 10.9487 -35.3147 A 1.0000 1.0000 0 0 0 10.2679 -36.5865 A 38.0000 38.0000 0 0 0 -12.7950 -35.7811 A 1.0000 1.0000 0 0 0 -13.3855 -34.4649 L -12.8826 -33.2203 A 0.4512 0.4512 0 0 0 -12.0199 -33.3110 L -11.9739 -33.5721 A 1.4512 1.4512 0 0 1 -9.1156 -33.0681 L -10.2189 -26.8105 A 0.4512 0.4512 0 0 0 -9.3302 -26.6538 L -7.9307 -34.5907 A 1.4512 1.4512 0 0 1 -5.0724 -34.0867 L -7.5293 -20.1533 A 0.4512 0.4512 0 0 0 -6.6406 -19.9966 L -3.9760 -35.1079 A 1.4512 1.4512 0 1 1 -1.1177 -34.6039 L -3.7174 -19.8606 A 0.4512 0.4512 0 0 0 -2.8287 -19.7039 L -0.1006 -35.1755 A 1.4512 1.4512 0 1 1 2.7577 -34.6715 L 0.1918 -20.1195 A 0.4512 0.4512 0 1 0 1.0805 -19.9628 L 3.7006 -34.8223 A 1.4512 1.4512 0 1 1 6.5590 -34.3183 L 3.6072 -17.5781 A 1.0000 1.0000 0 0 0 4.3369 -16.4375 A 17.0000 17.0000 0 0 1 12.0668 -11.9746 A 1.0000 1.0000 0 0 0 13.4194 -11.9130 Z" stroke="green" stroke-width="1" fill="none" /><path d="M 2.6224 -17.7517 L 5.5741 -34.4919 A 0.4512 0.4512 0 1 0 4.6854 -34.6486 L 2.0653 -19.7891 A 1.4512 1.4512 0 1 1 -0.7930 -20.2931 L 1.7729 -34.8452 A 0.4512 0.4512 0 0 0 0.8842 -35.0019 L -1.8438 -19.5303 A 1.4512 1.4512 0 0 1 -4.7022 -20.0343 L -2.1025 -34.7775 A 0.4512 0.4512 0 0 0 -2.9912 -34.9342 L -5.6558 -19.8230 A 1.4512 1.4512 0 0 1 -8.5141 -20.3270 L -6.0572 -34.2604 A 0.4512 0.4512 0 1 0 -6.9459 -34.4171 L -8.3454 -26.4802 A 1.4512 1.4512 0 0 1 -11.2037 -26.9842 L -10.1004 -33.2417 A 0.4512 0.4512 0 1 0 -10.9891 -33.3984 L -11.0351 -33.1373 A 1.4512 1.4512 0 0 1 -13.8098 -32.8457 L -14.3126 -34.0903 A 1.0000 1.0000 0 0 0 -15.6517 -34.6269 A 38.0000 38.0000 0 0 0 -32.8012 -19.1855 A 1.0000 1.0000 0 0 0 -32.4075 -17.7976 L -31.2223 -17.1675 A 0.4512 0.4512 0 0 0 -30.6197 -17.7914 L -30.7522 -18.0210 A 1.4512 1.4512 0 0 1 -28.2387 -19.4722 L -25.0616 -13.9694 A 0.4512 0.4512 0 0 0 -24.2801 -14.4206 L -28.3098 -21.4002 A 1.4512 1.4512 0 0 1 -25.7962 -22.8515 L -18.7221 -10.5986 A 0.4512 0.4512 0 0 0 -17.9405 -11.0498 L -25.6127 -24.3384 A 1.4512 1.4512 0 0 1 -23.0992 -25.7896 L -15.6138 -12.8246 A 0.4512 0.4512 0 1 0 -14.8323 -13.2759 L -22.6875 -26.8814 A 1.4512 1.4512 0 0 1 -20.1739 -28.3326 L -12.7856 -15.5357 A 0.4512 0.4512 0 0 0 -12.0041 -15.9869 L -19.5485 -29.0541 A 1.4512 1.4512 0 0 1 -17.0349 -30.5053 L -8.5357 -15.7842 A 1.0000 1.0000 0 0 0 -7.2436 -15.3796 A 17.0000 17.0000 0 0 1 1.5466 -16.9295 A 1.0000 1.0000 0 0 0 2.6224 -17.7517 Z" stroke="green" stroke-width="1" fill="none" /><path d="M -9.4017 -15.2842 L -17.9009 -30.0053 A 0.4512 0.4512 0 1 0 -18.6824 -29.5541 L -11.1381 -16.4869 A 1.4512 1.4512 0 1 1 -13.6516 -15.0357 L -21.0399 -27.8326 A 0.4512 0.4512 0 1 0 -21.8214 -27.3814 L -13.9663 -13.7759 A 1.4512 1.4512 0 0 1 -16.4798 -12.3246 L -23.9652 -25.2896 A 0.4512 0.4512 0 1 0 -24.7467 -24.8384 L -17.0745 -11.5498 A 1.4512 1.4512 0 0 1 -19.5881 -10.0986 L -26.6623 -22.3515 A 0.4512 0.4512 0 0 0 -27.4438 -21.9002 L -23.4141 -14.9206 A 1.4512 1.4512 0 1 1 -25.9276 -13.4694 L -29.1047 -18.9722 A 0.4512 0.4512 0 0 0 -29.8862 -18.5210 L -29.7536 -18.2914 A 1.4512 1.4512 0 0 1 -31.6917 -16.2845 L -32.8769 -16.9147 A 1.0000 1.0000 0 0 0 -34.2477 -16.4650 A 38.0000 38.0000 0 0 0 -37.4593 6.3873 A 1.0000 1.0000 0 0 0 -36.2657 7.1973 L -34.9527 6.9182 A 0.4512 0.4512 0 0 0 -34.8922 6.0529 L -35.1413 5.9622 A 1.4512 1.4512 0 1 1 -34.1486 3.2349 L -28.1777 5.4081 A 0.4512 0.4512 0 1 0 -27.8691 4.5601 L -35.4424 1.8036 A 1.4512 1.4512 0 0 1 -34.4497 -0.9237 L -21.1546 3.9153 A 0.4512 0.4512 0 1 0 -20.8460 3.0673 L -35.2649 -2.1808 A 1.4512 1.4512 0 1 1 -34.2723 -4.9082 L -20.2044 0.2121 A 0.4512 0.4512 0 0 0 -19.8958 -0.6359 L -34.6586 -6.0091 A 1.4512 1.4512 0 0 1 -33.6659 -8.7365 L -19.7805 -3.6826 A 0.4512 0.4512 0 0 0 -19.4719 -4.5306 L -33.6506 -9.6912 A 1.4512 1.4512 0 0 1 -32.6579 -12.4186 L -16.6846 -6.6048 A 1.0000 1.0000 0 0 0 -15.4347 -7.1253 A 17.0000 17.0000 0 0 1 -9.6973 -13.9629 A 1.0000 1.0000 0 0 0 -9.4017 -15.2842 Z" stroke="green" stroke-width="1" fill="none" /><path d="M -17.0266 -5.6651 L -33.0000 -11.4789 A 0.4512 0.4512 0 1 0 -33.3086 -10.6309 L -19.1298 -5.4703 A 1.4512 1.4512 0 1 1 -20.1225 -2.7429 L -34.0079 -7.7968 A 0.4512 0.4512 0 0 0 -34.3166 -6.9488 L -19.5537 -1.5756 A 1.4512 1.4512 0 0 1 -20.5464 1.1518 L -34.6143 -3.9685 A 0.4512 0.4512 0 0 0 -34.9229 -3.1205 L -20.5039 2.1276 A 1.4512 1.4512 0 0 1 -21.4966 4.8550 L -34.7917 0.0160 A 0.4512 0.4512 0 0 0 -35.1003 0.8639 L -27.5270 3.6204 A 1.4512 1.4512 0 0 1 -28.5197 6.3478 L -34.4906 4.1746 A 0.4512 0.4512 0 1 0 -34.7993 5.0225 L -34.5501 5.1132 A 1.4512 1.4512 0 0 1 -34.7447 7.8964 L -36.0578 8.1755 A 1.0000 1.0000 0 0 0 -36.8188 9.4010 A 38.0000 38.0000 0 0 0 -24.5899 28.9713 A 1.0000 1.0000 0 0 0 -23.1548 28.8246 L -22.3283 27.7668 A 0.4512 0.4512 0 0 0 -22.8382 27.0650 L -23.0873 27.1557 A 1.4512 1.4512 0 0 1 -24.0800 24.4283 L -18.1091 22.2551 A 0.4512 0.4512 0 1 0 -18.4178 21.4071 L -25.9911 24.1636 A 1.4512 1.4512 0 1 1 -26.9838 21.4362 L -13.6887 16.5972 A 0.4512 0.4512 0 1 0 -13.9973 15.7492 L -28.4163 20.9973 A 1.4512 1.4512 0 0 1 -29.4090 18.2699 L -15.3411 13.1496 A 0.4512 0.4512 0 1 0 -15.6498 12.3016 L -30.4126 17.6749 A 1.4512 1.4512 0 1 1 -31.4053 14.9475 L -17.5199 9.8936 A 0.4512 0.4512 0 0 0 -17.8285 9.0456 L -32.0073 14.2063 A 1.4512 1.4512 0 0 1 -33.0000 11.4789 L -17.0266 5.6651 A 1.0000 1.0000 0 0 0 -16.4037 4.4629 A 17.0000 17.0000 0 0 1 -16.4037 -4.4629 A 1.0000 1.0000 0 0 0 -17.0266 -5.6651 Z" stroke="green" stroke-width="1" fill="none" /><path d="M -16.6846 6.6048 L -32.6579 12.4186 A 0.4512 0.4512 0 1 0 -32.3493 13.2666 L -18.1705 8.1059 A 1.4512 1.4512 0 0 1 -17.1778 10.8333 L -31.0633 15.8872 A 0.4512 0.4512 0 0 0 -30.7546 16.7352 L -15.9918 11.3620 A 1.4512 1.4512 0 0 1 -14.9991 14.0893 L -29.0669 19.2096 A 0.4512 0.4512 0 0 0 -28.7583 20.0576 L -14.3393 14.8095 A 1.4512 1.4512 0 1 1 -13.3466 17.5369 L -26.6417 22.3759 A 0.4512 0.4512 0 0 0 -26.3331 23.2239 L -18.7598 20.4674 A 1.4512 1.4512 0 0 1 -17.7671 23.1948 L -23.7380 25.3680 A 0.4512 0.4512 0 0 0 -23.4294 26.2160 L -23.1802 26.1253 A 1.4512 1.4512 0 0 1 -21.5403 28.3825 L -22.3667 29.4403 A 1.0000 1.0000 0 0 0 -22.1619 30.8682 A 38.0000 38.0000 0 0 0 -0.2145 37.9994 A 1.0000 1.0000 0 0 0 0.7905 36.9645 L 0.7437 35.6230 A 0.4512 0.4512 0 0 0 -0.0980 35.4131 L -0.2306 35.6427 A 1.4512 1.4512 0 0 1 -2.7441 34.1915 L 0.4329 28.6887 A 0.4512 0.4512 0 0 0 -0.3486 28.2375 L -4.3783 35.2171 A 1.4512 1.4512 0 0 1 -6.8918 33.7659 L 0.1823 21.5131 A 0.4512 0.4512 0 0 0 -0.5992 21.0619 L -8.2713 34.3505 A 1.4512 1.4512 0 1 1 -10.7849 32.8993 L -3.2996 19.9343 A 0.4512 0.4512 0 0 0 -4.0811 19.4831 L -11.9362 33.0886 A 1.4512 1.4512 0 1 1 -14.4498 31.6374 L -7.0615 18.8405 A 0.4512 0.4512 0 1 0 -7.8430 18.3893 L -15.3874 31.4565 A 1.4512 1.4512 0 1 1 -17.9009 30.0053 L -9.4017 15.2842 A 1.0000 1.0000 0 0 0 -9.6973 13.9629 A 17.0000 17.0000 0 0 1 -15.4347 7.1253 A 1.0000 1.0000 0 0 0 -16.6846 6.6048 Z" stroke="green" stroke-width="1" fill="none" /><path d="M -8.5357 15.7842 L -17.0349 30.5053 A 0.4512 0.4512 0 0 0 -16.2534 30.9565 L -8.7090 17.8893 A 1.4512 1.4512 0 1 1 -6.1955 19.3405 L -13.5838 32.1374 A 0.4512 0.4512 0 1 0 -12.8022 32.5886 L -4.9471 18.9831 A 1.4512 1.4512 0 1 1 -2.4335 20.4343 L -9.9189 33.3993 A 0.4512 0.4512 0 0 0 -9.1374 33.8505 L -1.4652 20.5619 A 1.4512 1.4512 0 0 1 1.0484 22.0131 L -6.0258 34.2659 A 0.4512 0.4512 0 1 0 -5.2443 34.7171 L -1.2146 27.7375 A 1.4512 1.4512 0 0 1 1.2989 29.1887 L -1.8781 34.6915 A 0.4512 0.4512 0 1 0 -1.0966 35.1427 L -0.9640 34.9131 A 1.4512 1.4512 0 0 1 1.7431 35.5881 L 1.7899 36.9296 A 1.0000 1.0000 0 0 0 2.8647 37.8919 A 38.0000 38.0000 0 0 0 24.2612 29.2471 A 1.0000 1.0000 0 0 0 24.3659 27.8083 L 23.4677 26.8108 A 0.4512 0.4512 0 0 0 22.6880 27.1910 L 22.7341 27.4521 A 1.4512 1.4512 0 0 1 19.8758 27.9561 L 18.7724 21.6986 A 0.4512 0.4512 0 0 0 17.8837 21.8553 L 19.2832 29.7922 A 1.4512 1.4512 0 1 1 16.4249 30.2962 L 13.9680 16.3628 A 0.4512 0.4512 0 0 0 13.0793 16.5195 L 15.7439 31.6307 A 1.4512 1.4512 0 1 1 12.8855 32.1347 L 10.2859 17.3915 A 0.4512 0.4512 0 0 0 9.3972 17.5482 L 12.1253 33.0198 A 1.4512 1.4512 0 1 1 9.2669 33.5238 L 6.7010 18.9717 A 0.4512 0.4512 0 1 0 5.8123 19.1284 L 8.4325 33.9879 A 1.4512 1.4512 0 0 1 5.5741 34.4919 L 2.6224 17.7517 A 1.0000 1.0000 0 0 0 1.5466 16.9295 A 17.0000 17.0000 0 0 1 -7.2436 15.3796 A 1.0000 1.0000 0 0 0 -8.5357 15.7842 Z" stroke="green" stroke-width="1" fill="none" /><path d="M 3.6072 17.5781 L 6.5590 34.3183 A 0.4512 0.4512 0 1 0 7.4477 34.1616 L 4.8275 19.3021 A 1.4512 1.4512 0 0 1 7.6858 18.7981 L 10.2518 33.3501 A 0.4512 0.4512 0 0 0 11.1405 33.1934 L 8.4124 17.7218 A 1.4512 1.4512 0 1 1 11.2707 17.2178 L 13.8703 31.9611 A 0.4512 0.4512 0 0 0 14.7590 31.8044 L 12.0945 16.6931 A 1.4512 1.4512 0 0 1 14.9528 16.1891 L 17.4097 30.1225 A 0.4512 0.4512 0 1 0 18.2984 29.9658 L 16.8989 22.0289 A 1.4512 1.4512 0 0 1 19.7572 21.5249 L 20.8606 27.7825 A 0.4512 0.4512 0 0 0 21.7493 27.6258 L 21.7032 27.3647 A 1.4512 1.4512 0 0 1 24.2109 26.1416 L 25.1091 27.1392 A 1.0000 1.0000 0 0 0 26.5509 27.1855 A 38.0000 38.0000 0 0 0 37.3848 6.8098 A 1.0000 1.0000 0 0 0 36.5402 5.6403 L 35.2109 5.4535 A 0.4512 0.4512 0 0 0 34.8581 6.2459 L 35.0612 6.4164 A 1.4512 1.4512 0 1 1 33.1956 8.6397 L 28.3280 4.5554 A 0.4512 0.4512 0 0 0 27.7480 5.2467 L 33.9218 10.4271 A 1.4512 1.4512 0 1 1 32.0562 12.6505 L 21.2179 3.5561 A 0.4512 0.4512 0 0 0 20.6379 4.2474 L 32.3923 14.1106 A 1.4512 1.4512 0 0 1 30.5267 16.3340 L 19.0585 6.7110 A 0.4512 0.4512 0 1 0 18.4784 7.4023 L 30.5132 17.5007 A 1.4512 1.4512 0 1 1 28.6476 19.7240 L 17.3281 10.2258 A 0.4512 0.4512 0 0 0 16.7480 10.9171 L 28.3067 20.6160 A 1.4512 1.4512 0 1 1 26.4410 22.8394 L 13.4194 11.9130 A 1.0000 1.0000 0 0 0 12.0668 11.9746 A 17.0000 17.0000 0 0 1 4.3369 16.4375 A 1.0000 1.0000 0 0 0 3.6072 17.5781 Z" stroke="green" stroke-width="1" fill="none" /><path d="M 14.0622 11.1469 L 27.0838 22.0733 A 0.4512 0.4512 0 0 0 27.6639 21.3820 L 16.1052 11.6832 A 1.4512 1.4512 0 1 1 17.9709 9.4598 L 29.2904 18.9580 A 0.4512 0.4512 0 0 0 29.8704 18.2667 L 17.8356 8.1683 A 1.4512 1.4512 0 1 1 19.7013 5.9449 L 31.1695 15.5679 A 0.4512 0.4512 0 0 0 31.7495 14.8766 L 19.9951 5.0135 A 1.4512 1.4512 0 1 1 21.8607 2.7901 L 32.6990 11.8845 A 0.4512 0.4512 0 0 0 33.2790 11.1932 L 27.1052 6.0127 A 1.4512 1.4512 0 0 1 28.9708 3.7894 L 33.8384 7.8737 A 0.4512 0.4512 0 0 0 34.4184 7.1824 L 34.2153 7.0120 A 1.4512 1.4512 0 0 1 35.3501 4.4632 L 36.6794 4.6500 A 1.0000 1.0000 0 0 0 37.8137 3.7587 A 38.0000 38.0000 0 0 0 33.0157 -18.8139 A 1.0000 1.0000 0 0 0 31.6169 -19.1669 L 30.4786 -18.4555 A 0.4512 0.4512 0 0 0 30.7177 -17.6217 L 30.9828 -17.6217 A 1.4512 1.4512 0 0 1 30.9828 -14.7193 L 24.6287 -14.7193 A 0.4512 0.4512 0 1 0 24.6287 -13.8169 L 32.6880 -13.8169 A 1.4512 1.4512 0 1 1 32.6880 -10.9145 L 18.5397 -10.9145 A 0.4512 0.4512 0 1 0 18.5397 -10.0121 L 33.8841 -10.0121 A 1.4512 1.4512 0 1 1 33.8841 -7.1096 L 18.9134 -7.1096 A 0.4512 0.4512 0 1 0 18.9134 -6.2072 L 34.6237 -6.2072 A 1.4512 1.4512 0 0 1 34.6237 -3.3048 L 19.8471 -3.3048 A 0.4512 0.4512 0 0 0 19.8471 -2.4024 L 34.9358 -2.4024 A 1.4512 1.4512 0 1 1 34.9358 0.5000 L 17.9374 0.5000 A 1.0000 1.0000 0 0 0 16.9409 1.4167 A 17.0000 17.0000 0 0 1 13.8881 9.8042 A 1.0000 1.0000 0 0 0 14.0622 11.1469 Z" stroke="green" stroke-width="1" fill="none" /></svg>