<svg width="230" height="186" viewBox="-111 -9 230 186" xmlns="http://www.w3.org/2000/svg"><path d="M 40.0000 160.0000 L 80.0000 160.0000 A 20.0000 20.0000 0 0 0 80.0000 120.0000 L 50.0000 120.0000 L 50.0000 40.0000 L 80.0000 40.0000 A 20.0000 20.0000 0 0 0 80.0000 0.0000 L 40.0000 0.0000 L 40.0000 160.0000 Z" stroke="green" stroke-width="1" fill="none" /><circle cx="80.0000" cy="140.0000" r="10.0000" stroke="green" stroke-width="1" fill="none" /><circle cx="80.0000" cy="20.0000" r="10.0000" stroke="green" stroke-width="1" fill="none" /><path d="M -40.0000 160.0000 L -80.0000 160.0000 A 20.0000 20.0000 0 0 1 -80.0000 120.0000 L -50.0000 120.0000 L -50.0000 40.0000 L -80.0000 40.0000 A 20.0000 20.0000 0 0 1 -80.0000 0.0000 L -40.0000 0.0000 L -40.0000 160.0000 Z" stroke="green" stroke-width="1" fill="none" /><circle cx="-80.0000" cy="140.0000" r="10.0000" stroke="green" stroke-width="1" fill="none" /><circle cx="-80.0000" cy="20.0000" r="10.0000" stroke="green" stroke-width="1" fill="none" /></svg>