<svg width="2540" height="2590" viewBox="-527 -329 2540 2590" xmlns="http://www.w3.org/2000/svg"><path d="M 1500.0000 946.2722 L 1900.0000 946.2722 L 1884.3155 756.9884 L 1489.7710 822.8262 L 1500.0000 946.2722 Z" stroke="green" stroke-width="1" fill="none" /><path d="M 1489.7710 822.8262 L 1884.3155 756.9884 L 1837.6898 572.8678 L 1459.3629 702.7476 L 1489.7710 822.8262 Z" stroke="green" stroke-width="1" fill="none" /><path d="M 1459.3629 702.7476 L 1837.6898 572.8678 L 1761.3948 398.9327 L 1409.6053 589.3116 L 1459.3629 702.7476 Z" stroke="green" stroke-width="1" fill="none" /><path d="M 1409.6053 589.3116 L 1761.3948 398.9327 L 1657.5116 239.9275 L 1341.8554 485.6126 L 1409.6053 589.3116 Z" stroke="green" stroke-width="1" fill="none" /><path d="M 1341.8554 485.6126 L 1657.5116 239.9275 L 1528.8738 100.1897 L 1257.9612 394.4792 L 1341.8554 485.6126 Z" stroke="green" stroke-width="1" fill="none" /><path d="M 1257.9612 394.4792 L 1528.8738 100.1897 L 1378.9904 -16.4693 L 1160.2111 318.3973 L 1257.9612 394.4792 Z" stroke="green" stroke-width="1" fill="none" /><path d="M 1160.2111 318.3973 L 1378.9904 -16.4693 L 1211.9497 -106.8672 L 1051.2716 259.4422 L 1160.2111 318.3973 Z" stroke="green" stroke-width="1" fill="none" /><path d="M 1051.2716 259.4422 L 1211.9497 -106.8672 L 1032.3083 -168.5381 L 934.1141 219.2220 L 1051.2716 259.4422 Z" stroke="green" stroke-width="1" fill="none" /><path d="M 934.1141 219.2220 L 1032.3083 -168.5381 L 844.9662 -199.8000 L 811.9345 198.8338 L 934.1141 219.2220 Z" stroke="green" stroke-width="1" fill="none" /><path d="M 811.9345 198.8338 L 844.9662 -199.8000 L 655.0338 -199.8000 L 688.0655 198.8338 L 811.9345 198.8338 Z" stroke="green" stroke-width="1" fill="none" /><path d="M 688.0655 198.8338 L 655.0338 -199.8000 L 467.6917 -168.5381 L 565.8859 219.2220 L 688.0655 198.8338 Z" stroke="green" stroke-width="1" fill="none" /><path d="M 565.8859 219.2220 L 467.6917 -168.5381 L 288.0503 -106.8672 L 448.7284 259.4422 L 565.8859 219.2220 Z" stroke="green" stroke-width="1" fill="none" /><path d="M 448.7284 259.4422 L 288.0503 -106.8672 L 121.0096 -16.4693 L 339.7889 318.3973 L 448.7284 259.4422 Z" stroke="green" stroke-width="1" fill="none" /><path d="M 339.7889 318.3973 L 121.0096 -16.4693 L -28.8738 100.1897 L 242.0388 394.4792 L 339.7889 318.3973 Z" stroke="green" stroke-width="1" fill="none" /><path d="M 242.0388 394.4792 L -28.8738 100.1897 L -157.5116 239.9275 L 158.1446 485.6126 L 242.0388 394.4792 Z" stroke="green" stroke-width="1" fill="none" /><path d="M 158.1446 485.6126 L -157.5116 239.9275 L -261.3948 398.9327 L 90.3947 589.3116 L 158.1446 485.6126 Z" stroke="green" stroke-width="1" fill="none" /><path d="M 90.3947 589.3116 L -261.3948 398.9327 L -337.6898 572.8678 L 40.6371 702.7476 L 90.3947 589.3116 Z" stroke="green" stroke-width="1" fill="none" /><path d="M 40.6371 702.7476 L -337.6898 572.8678 L -384.3155 756.9884 L 10.2290 822.8262 L 40.6371 702.7476 Z" stroke="green" stroke-width="1" fill="none" /><path d="M 10.2290 822.8262 L -384.3155 756.9884 L -400.0000 946.2722 L 0.0000 946.2722 L 10.2290 822.8262 Z" stroke="green" stroke-width="1" fill="none" /><path d="M -399.8000 1946.0722 L -0.2000 1946.0722 L -0.2000 1746.4722 L -399.8000 1746.4722 L -399.8000 1946.0722 Z" stroke="green" stroke-width="1" fill="none" /><path d="M 1500.2000 1946.0722 L 1899.8000 1946.0722 L 1899.8000 1746.4722 L 1500.2000 1746.4722 L 1500.2000 1946.0722 Z" stroke="green" stroke-width="1" fill="none" /><path d="M -199.8000 1746.0722 L -0.2000 1746.0722 L -0.2000 1546.4722 L -199.8000 1546.4722 L -199.8000 1746.0722 Z" stroke="green" stroke-width="1" fill="none" /><path d="M 1500.2000 1746.0722 L 1699.8000 1746.0722 L 1699.8000 1546.4722 L 1500.2000 1546.4722 L 1500.2000 1746.0722 Z" stroke="green" stroke-width="1" fill="none" /><path d="M -399.8000 1546.0722 L -0.2000 1546.0722 L -0.2000 1346.4722 L -399.8000 1346.4722 L -399.8000 1546.0722 Z" stroke="green" stroke-width="1" fill="none" /><path d="M 1500.2000 1546.0722 L 1899.8000 1546.0722 L 1899.8000 1346.4722 L 1500.2000 1346.4722 L 1500.2000 1546.0722 Z" stroke="green" stroke-width="1" fill="none" /><path d="M -199.8000 1346.0722 L -0.2000 1346.0722 L -0.2000 1146.4722 L -199.8000 1146.4722 L -199.8000 1346.0722 Z" stroke="green" stroke-width="1" fill="none" /><path d="M 1500.2000 1346.0722 L 1699.8000 1346.0722 L 1699.8000 1146.4722 L 1500.2000 1146.4722 L 1500.2000 1346.0722 Z" stroke="green" stroke-width="1" fill="none" /><path d="M -399.8000 1146.0722 L -0.2000 1146.0722 L -0.2000 946.4722 L -399.8000 946.4722 L -399.8000 1146.0722 Z" stroke="green" stroke-width="1" fill="none" /><path d="M 1500.2000 1146.0722 L 1899.8000 1146.0722 L 1899.8000 946.4722 L 1500.2000 946.4722 L 1500.2000 1146.0722 Z" stroke="green" stroke-width="1" fill="none" /><path d="M -199.8000 2146.0722 L 149.8000 2146.0722 L 149.8000 1946.4722 L -199.8000 1946.4722 L -199.8000 2146.0722 Z" stroke="green" stroke-width="1" fill="none" /><path d="M 150.2000 2146.0722 L 549.8000 2146.0722 L 549.8000 1946.4722 L 150.2000 1946.4722 L 150.2000 2146.0722 Z" stroke="green" stroke-width="1" fill="none" /><path d="M 550.2000 2146.0722 L 949.8000 2146.0722 L 949.8000 1946.4722 L 550.2000 1946.4722 L 550.2000 2146.0722 Z" stroke="green" stroke-width="1" fill="none" /><path d="M 950.2000 2146.0722 L 1349.8000 2146.0722 L 1349.8000 1946.4722 L 950.2000 1946.4722 L 950.2000 2146.0722 Z" stroke="green" stroke-width="1" fill="none" /><path d="M 1350.2000 2146.0722 L 1699.8000 2146.0722 L 1699.8000 1946.4722 L 1350.2000 1946.4722 L 1350.2000 2146.0722 Z" stroke="green" stroke-width="1" fill="none" /></svg>