0
SECTION
2
ENTITIES
0
LINE
8
PARAMETRIX
10
1500.0000
20
1000.0000
11
1900.0000
21
1000.0000
0
LINE
8
PARAMETRIX
10
1900.0000
20
1000.0000
11
1884.3155
21
1189.2838
0
LINE
8
PARAMETRIX
10
1884.3155
20
1189.2838
11
1489.7710
21
1123.4459
0
LINE
8
PARAMETRIX
10
1489.7710
20
1123.4459
11
1500.0000
21
1000.0000
0
LINE
8
PARAMETRIX
10
1489.7710
20
1123.4459
11
1884.3155
21
1189.2838
0
LINE
8
PARAMETRIX
10
1884.3155
20
1189.2838
11
1837.6898
21
1373.4044
0
LINE
8
PARAMETRIX
10
1837.6898
20
1373.4044
11
1459.3629
21
1243.5246
0
LINE
8
PARAMETRIX
10
1459.3629
20
1243.5246
11
1489.7710
21
1123.4459
0
LINE
8
PARAMETRIX
10
1459.3629
20
1243.5246
11
1837.6898
21
1373.4044
0
LINE
8
PARAMETRIX
10
1837.6898
20
1373.4044
11
1761.3948
21
1547.3395
0
LINE
8
PARAMETRIX
10
1761.3948
20
1547.3395
11
1409.6053
21
1356.9605
0
LINE
8
PARAMETRIX
10
1409.6053
20
1356.9605
11
1459.3629
21
1243.5246
0
LINE
8
PARAMETRIX
10
1409.6053
20
1356.9605
11
1761.3948
21
1547.3395
0
LINE
8
PARAMETRIX
10
1761.3948
20
1547.3395
11
1657.5116
21
1706.3446
0
LINE
8
PARAMETRIX
10
1657.5116
20
1706.3446
11
1341.8554
21
1460.6595
0
LINE
8
PARAMETRIX
10
1341.8554
20
1460.6595
11
1409.6053
21
1356.9605
0
LINE
8
PARAMETRIX
10
1341.8554
20
1460.6595
11
1657.5116
21
1706.3446
0
LINE
8
PARAMETRIX
10
1657.5116
20
1706.3446
11
1528.8738
21
1846.0825
0
LINE
8
PARAMETRIX
10
1528.8738
20
1846.0825
11
1257.9612
21
1551.7929
0
LINE
8
PARAMETRIX
10
1257.9612
20
1551.7929
11
1341.8554
21
1460.6595
0
LINE
8
PARAMETRIX
10
1257.9612
20
1551.7929
11
1528.8738
21
1846.0825
0
LINE
8
PARAMETRIX
10
1528.8738
20
1846.0825
11
1378.9904
21
1962.7415
0
LINE
8
PARAMETRIX
10
1378.9904
20
1962.7415
11
1160.2111
21
1627.8749
0
LINE
8
PARAMETRIX
10
1160.2111
20
1627.8749
11
1257.9612
21
1551.7929
0
LINE
8
PARAMETRIX
10
1160.2111
20
1627.8749
11
1378.9904
21
1962.7415
0
LINE
8
PARAMETRIX
10
1378.9904
20
1962.7415
11
1211.9497
21
2053.1393
0
LINE
8
PARAMETRIX
10
1211.9497
20
2053.1393
11
1051.2716
21
1686.8300
0
LINE
8
PARAMETRIX
10
1051.2716
20
1686.8300
11
1160.2111
21
1627.8749
0
LINE
8
PARAMETRIX
10
1051.2716
20
1686.8300
11
1211.9497
21
2053.1393
0
LINE
8
PARAMETRIX
10
1211.9497
20
2053.1393
11
1032.3083
21
2114.8103
0
LINE
8
PARAMETRIX
10
1032.3083
20
2114.8103
11
934.1141
21
1727.0502
0
LINE
8
PARAMETRIX
10
934.1141
20
1727.0502
11
1051.2716
21
1686.8300
0
LINE
8
PARAMETRIX
10
934.1141
20
1727.0502
11
1032.3083
21
2114.8103
0
LINE
8
PARAMETRIX
10
1032.3083
20
2114.8103
11
844.9662
21
2146.0722
0
LINE
8
PARAMETRIX
10
844.9662
20
2146.0722
11
811.9345
21
1747.4384
0
LINE
8
PARAMETRIX
10
811.9345
20
1747.4384
11
934.1141
21
1727.0502
0
LINE
8
PARAMETRIX
10
811.9345
20
1747.4384
11
844.9662
21
2146.0722
0
LINE
8
PARAMETRIX
10
844.9662
20
2146.0722
11
655.0338
21
2146.0722
0
LINE
8
PARAMETRIX
10
655.0338
20
2146.0722
11
688.0655
21
1747.4384
0
LINE
8
PARAMETRIX
10
688.0655
20
1747.4384
11
811.9345
21
1747.4384
0
LINE
8
PARAMETRIX
10
688.0655
20
1747.4384
11
655.0338
21
2146.0722
0
LINE
8
PARAMETRIX
10
655.0338
20
2146.0722
11
467.6917
21
2114.8103
0
LINE
8
PARAMETRIX
10
467.6917
20
2114.8103
11
565.8859
21
1727.0502
0
LINE
8
PARAMETRIX
10
565.8859
20
1727.0502
11
688.0655
21
1747.4384
0
LINE
8
PARAMETRIX
10
565.8859
20
1727.0502
11
467.6917
21
2114.8103
0
LINE
8
PARAMETRIX
10
467.6917
20
2114.8103
11
288.0503
21
2053.1393
0
LINE
8
PARAMETRIX
10
288.0503
20
2053.1393
11
448.7284
21
1686.8300
0
LINE
8
PARAMETRIX
10
448.7284
20
1686.8300
11
565.8859
21
1727.0502
0
LINE
8
PARAMETRIX
10
448.7284
20
1686.8300
11
288.0503
21
2053.1393
0
LINE
8
PARAMETRIX
10
288.0503
20
2053.1393
11
121.0096
21
1962.7415
0
LINE
8
PARAMETRIX
10
121.0096
20
1962.7415
11
339.7889
21
1627.8749
0
LINE
8
PARAMETRIX
10
339.7889
20
1627.8749
11
448.7284
21
1686.8300
0
LINE
8
PARAMETRIX
10
339.7889
20
1627.8749
11
121.0096
21
1962.7415
0
LINE
8
PARAMETRIX
10
121.0096
20
1962.7415
11
-28.8738
21
1846.0825
0
LINE
8
PARAMETRIX
10
-28.8738
20
1846.0825
11
242.0388
21
1551.7929
0
LINE
8
PARAMETRIX
10
242.0388
20
1551.7929
11
339.7889
21
1627.8749
0
LINE
8
PARAMETRIX
10
242.0388
20
1551.7929
11
-28.8738
21
1846.0825
0
LINE
8
PARAMETRIX
10
-28.8738
20
1846.0825
11
-157.5116
21
1706.3446
0
LINE
8
PARAMETRIX
10
-157.5116
20
1706.3446
11
158.1446
21
1460.6595
0
LINE
8
PARAMETRIX
10
158.1446
20
1460.6595
11
242.0388
21
1551.7929
0
LINE
8
PARAMETRIX
10
158.1446
20
1460.6595
11
-157.5116
21
1706.3446
0
LINE
8
PARAMETRIX
10
-157.5116
20
1706.3446
11
-261.3948
21
1547.3395
0
LINE
8
PARAMETRIX
10
-261.3948
20
1547.3395
11
90.3947
21
1356.9605
0
LINE
8
PARAMETRIX
10
90.3947
20
1356.9605
11
158.1446
21
1460.6595
0
LINE
8
PARAMETRIX
10
90.3947
20
1356.9605
11
-261.3948
21
1547.3395
0
LINE
8
PARAMETRIX
10
-261.3948
20
1547.3395
11
-337.6898
21
1373.4044
0
LINE
8
PARAMETRIX
10
-337.6898
20
1373.4044
11
40.6371
21
1243.5246
0
LINE
8
PARAMETRIX
10
40.6371
20
1243.5246
11
90.3947
21
1356.9605
0
LINE
8
PARAMETRIX
10
40.6371
20
1243.5246
11
-337.6898
21
1373.4044
0
LINE
8
PARAMETRIX
10
-337.6898
20
1373.4044
11
-384.3155
21
1189.2838
0
LINE
8
PARAMETRIX
10
-384.3155
20
1189.2838
11
10.2290
21
1123.4459
0
LINE
8
PARAMETRIX
10
10.2290
20
1123.4459
11
40.6371
21
1243.5246
0
LINE
8
PARAMETRIX
10
10.2290
20
1123.4459
11
-384.3155
21
1189.2838
0
LINE
8
PARAMETRIX
10
-384.3155
20
1189.2838
11
-400.0000
21
1000.0000
0
LINE
8
PARAMETRIX
10
-400.0000
20
1000.0000
11
0.0000
21
1000.0000
0
LINE
8
PARAMETRIX
10
0.0000
20
1000.0000
11
10.2290
21
1123.4459
0
LINE
8
PARAMETRIX
10
-399.8000
20
0.2000
11
-0.2000
21
0.2000
0
LINE
8
PARAMETRIX
10
-0.2000
20
0.2000
11
-0.2000
21
199.8000
0
LINE
8
PARAMETRIX
10
-0.2000
20
199.8000
11
-399.8000
21
199.8000
0
LINE
8
PARAMETRIX
10
-399.8000
20
199.8000
11
-399.8000
21
0.2000
0
LINE
8
PARAMETRIX
10
1500.2000
20
0.2000
11
1899.8000
21
0.2000
0
LINE
8
PARAMETRIX
10
1899.8000
20
0.2000
11
1899.8000
21
199.8000
0
LINE
8
PARAMETRIX
10
1899.8000
20
199.8000
11
1500.2000
21
199.8000
0
LINE
8
PARAMETRIX
10
1500.2000
20
199.8000
11
1500.2000
21
0.2000
0
LINE
8
PARAMETRIX
10
-199.8000
20
200.2000
11
-0.2000
21
200.2000
0
LINE
8
PARAMETRIX
10
-0.2000
20
200.2000
11
-0.2000
21
399.8000
0
LINE
8
PARAMETRIX
10
-0.2000
20
399.8000
11
-199.8000
21
399.8000
0
LINE
8
PARAMETRIX
10
-199.8000
20
399.8000
11
-199.8000
21
200.2000
0
LINE
8
PARAMETRIX
10
1500.2000
20
200.2000
11
1699.8000
21
200.2000
0
LINE
8
PARAMETRIX
10
1699.8000
20
200.2000
11
1699.8000
21
399.8000
0
LINE
8
PARAMETRIX
10
1699.8000
20
399.8000
11
1500.2000
21
399.8000
0
LINE
8
PARAMETRIX
10
1500.2000
20
399.8000
11
1500.2000
21
200.2000
0
LINE
8
PARAMETRIX
10
-399.8000
20
400.2000
11
-0.2000
21
400.2000
0
LINE
8
PARAMETRIX
10
-0.2000
20
400.2000
11
-0.2000
21
599.8000
0
LINE
8
PARAMETRIX
10
-0.2000
20
599.8000
11
-399.8000
21
599.8000
0
LINE
8
PARAMETRIX
10
-399.8000
20
599.8000
11
-399.8000
21
400.2000
0
LINE
8
PARAMETRIX
10
1500.2000
20
400.2000
11
1899.8000
21
400.2000
0
LINE
8
PARAMETRIX
10
1899.8000
20
400.2000
11
1899.8000
21
599.8000
0
LINE
8
PARAMETRIX
10
1899.8000
20
599.8000
11
1500.2000
21
599.8000
0
LINE
8
PARAMETRIX
10
1500.2000
20
599.8000
11
1500.2000
21
400.2000
0
LINE
8
PARAMETRIX
10
-199.8000
20
600.2000
11
-0.2000
21
600.2000
0
LINE
8
PARAMETRIX
10
-0.2000
20
600.2000
11
-0.2000
21
799.8000
0
LINE
8
PARAMETRIX
10
-0.2000
20
799.8000
11
-199.8000
21
799.8000
0
LINE
8
PARAMETRIX
10
-199.8000
20
799.8000
11
-199.8000
21
600.2000
0
LINE
8
PARAMETRIX
10
1500.2000
20
600.2000
11
1699.8000
21
600.2000
0
LINE
8
PARAMETRIX
10
1699.8000
20
600.2000
11
1699.8000
21
799.8000
0
LINE
8
PARAMETRIX
10
1699.8000
20
799.8000
11
1500.2000
21
799.8000
0
LINE
8
PARAMETRIX
10
1500.2000
20
799.8000
11
1500.2000
21
600.2000
0
LINE
8
PARAMETRIX
10
-399.8000
20
800.2000
11
-0.2000
21
800.2000
0
LINE
8
PARAMETRIX
10
-0.2000
20
800.2000
11
-0.2000
21
999.8000
0
LINE
8
PARAMETRIX
10
-0.2000
20
999.8000
11
-399.8000
21
999.8000
0
LINE
8
PARAMETRIX
10
-399.8000
20
999.8000
11
-399.8000
21
800.2000
0
LINE
8
PARAMETRIX
10
1500.2000
20
800.2000
11
1899.8000
21
800.2000
0
LINE
8
PARAMETRIX
10
1899.8000
20
800.2000
11
1899.8000
21
999.8000
0
LINE
8
PARAMETRIX
10
1899.8000
20
999.8000
11
1500.2000
21
999.8000
0
LINE
8
PARAMETRIX
10
1500.2000
20
999.8000
11
1500.2000
21
800.2000
0
LINE
8
PARAMETRIX
10
-199.8000
20
-199.8000
11
149.8000
21
-199.8000
0
LINE
8
PARAMETRIX
10
149.8000
20
-199.8000
11
149.8000
21
-0.2000
0
LINE
8
PARAMETRIX
10
149.8000
20
-0.2000
11
-199.8000
21
-0.2000
0
LINE
8
PARAMETRIX
10
-199.8000
20
-0.2000
11
-199.8000
21
-199.8000
0
LINE
8
PARAMETRIX
10
150.2000
20
-199.8000
11
549.8000
21
-199.8000
0
LINE
8
PARAMETRIX
10
549.8000
20
-199.8000
11
549.8000
21
-0.2000
0
LINE
8
PARAMETRIX
10
549.8000
20
-0.2000
11
150.2000
21
-0.2000
0
LINE
8
PARAMETRIX
10
150.2000
20
-0.2000
11
150.2000
21
-199.8000
0
LINE
8
PARAMETRIX
10
550.2000
20
-199.8000
11
949.8000
21
-199.8000
0
LINE
8
PARAMETRIX
10
949.8000
20
-199.8000
11
949.8000
21
-0.2000
0
LINE
8
PARAMETRIX
10
949.8000
20
-0.2000
11
550.2000
21
-0.2000
0
LINE
8
PARAMETRIX
10
550.2000
20
-0.2000
11
550.2000
21
-199.8000
0
LINE
8
PARAMETRIX
10
950.2000
20
-199.8000
11
1349.8000
21
-199.8000
0
LINE
8
PARAMETRIX
10
1349.8000
20
-199.8000
11
1349.8000
21
-0.2000
0
LINE
8
PARAMETRIX
10
1349.8000
20
-0.2000
11
950.2000
21
-0.2000
0
LINE
8
PARAMETRIX
10
950.2000
20
-0.2000
11
950.2000
21
-199.8000
0
LINE
8
PARAMETRIX
10
1350.2000
20
-199.8000
11
1699.8000
21
-199.8000
0
LINE
8
PARAMETRIX
10
1699.8000
20
-199.8000
11
1699.8000
21
-0.2000
0
LINE
8
PARAMETRIX
10
1699.8000
20
-0.2000
11
1350.2000
21
-0.2000
0
LINE
8
PARAMETRIX
10
1350.2000
20
-0.2000
11
1350.2000
21
-199.8000
0
ENDSEC
0
EOF
