<svg width="736" height="2154" viewBox="3 127 736 2154" xmlns="http://www.w3.org/2000/svg"><path d="M 460.0000 1996.9231 L 480.0000 1996.9231 L 480.0000 1994.3846 L 460.0000 1994.3846 L 460.0000 1996.9231 Z" stroke="green" stroke-width="1" fill="none" /><path d="M 480.0000 2013.8462 L 500.0000 2013.8462 L 500.0000 2011.3077 L 480.0000 2011.3077 L 480.0000 2013.8462 Z" stroke="green" stroke-width="1" fill="none" /><path d="M 500.0000 2030.7692 L 520.0000 2030.7692 L 520.0000 2028.2308 L 500.0000 2028.2308 L 500.0000 2030.7692 Z" stroke="green" stroke-width="1" fill="none" /><path d="M 520.0000 2047.6923 L 540.0000 2047.6923 L 540.0000 2045.1538 L 520.0000 2045.1538 L 520.0000 2047.6923 Z" stroke="green" stroke-width="1" fill="none" /><path d="M 540.0000 2064.6154 L 560.0000 2064.6154 L 560.0000 2062.0769 L 540.0000 2062.0769 L 540.0000 2064.6154 Z" stroke="green" stroke-width="1" fill="none" /><path d="M 560.0000 2081.5385 L 580.0000 2081.5385 L 580.0000 2079.0000 L 560.0000 2079.0000 L 560.0000 2081.5385 Z" stroke="green" stroke-width="1" fill="none" /><path d="M 580.0000 2098.4615 L 600.0000 2098.4615 L 600.0000 2095.9231 L 580.0000 2095.9231 L 580.0000 2098.4615 Z" stroke="green" stroke-width="1" fill="none" /><path d="M 600.0000 2115.3846 L 620.0000 2115.3846 L 620.0000 2112.8462 L 600.0000 2112.8462 L 600.0000 2115.3846 Z" stroke="green" stroke-width="1" fill="none" /><path d="M 620.0000 2132.3077 L 640.0000 2132.3077 L 640.0000 2129.7692 L 620.0000 2129.7692 L 620.0000 2132.3077 Z" stroke="green" stroke-width="1" fill="none" /><path d="M 640.0000 2149.2308 L 660.0000 2149.2308 L 660.0000 2146.6923 L 640.0000 2146.6923 L 640.0000 2149.2308 Z" stroke="green" stroke-width="1" fill="none" /><path d="M 660.0000 2166.1538 L 680.0000 2166.1538 L 680.0000 2163.6154 L 660.0000 2163.6154 L 660.0000 2166.1538 Z" stroke="green" stroke-width="1" fill="none" /><path d="M 680.0000 2183.0769 L 700.0000 2183.0769 L 700.0000 2180.5385 L 680.0000 2180.5385 L 680.0000 2183.0769 Z" stroke="green" stroke-width="1" fill="none" /><path d="M 340.0000 1963.0769 L 360.0000 1963.0769 L 360.0000 1960.5385 L 340.0000 1960.5385 L 340.0000 1963.0769 Z" stroke="green" stroke-width="1" fill="none" /><path d="M 320.0000 1946.1538 L 340.0000 1946.1538 L 340.0000 1943.6154 L 320.0000 1943.6154 L 320.0000 1946.1538 Z" stroke="green" stroke-width="1" fill="none" /><path d="M 300.0000 1929.2308 L 320.0000 1929.2308 L 320.0000 1926.6923 L 300.0000 1926.6923 L 300.0000 1929.2308 Z" stroke="green" stroke-width="1" fill="none" /><path d="M 280.0000 1912.3077 L 300.0000 1912.3077 L 300.0000 1909.7692 L 280.0000 1909.7692 L 280.0000 1912.3077 Z" stroke="green" stroke-width="1" fill="none" /><path d="M 260.0000 1895.3846 L 280.0000 1895.3846 L 280.0000 1892.8462 L 260.0000 1892.8462 L 260.0000 1895.3846 Z" stroke="green" stroke-width="1" fill="none" /><path d="M 240.0000 1878.4615 L 260.0000 1878.4615 L 260.0000 1875.9231 L 240.0000 1875.9231 L 240.0000 1878.4615 Z" stroke="green" stroke-width="1" fill="none" /><path d="M 220.0000 1861.5385 L 240.0000 1861.5385 L 240.0000 1859.0000 L 220.0000 1859.0000 L 220.0000 1861.5385 Z" stroke="green" stroke-width="1" fill="none" /><path d="M 200.0000 1844.6154 L 220.0000 1844.6154 L 220.0000 1842.0769 L 200.0000 1842.0769 L 200.0000 1844.6154 Z" stroke="green" stroke-width="1" fill="none" /><path d="M 180.0000 1827.6923 L 200.0000 1827.6923 L 200.0000 1825.1538 L 180.0000 1825.1538 L 180.0000 1827.6923 Z" stroke="green" stroke-width="1" fill="none" /><path d="M 160.0000 1810.7692 L 180.0000 1810.7692 L 180.0000 1808.2308 L 160.0000 1808.2308 L 160.0000 1810.7692 Z" stroke="green" stroke-width="1" fill="none" /><path d="M 140.0000 1793.8462 L 160.0000 1793.8462 L 160.0000 1791.3077 L 140.0000 1791.3077 L 140.0000 1793.8462 Z" stroke="green" stroke-width="1" fill="none" /><path d="M 120.0000 1776.9231 L 140.0000 1776.9231 L 140.0000 1774.3846 L 120.0000 1774.3846 L 120.0000 1776.9231 Z" stroke="green" stroke-width="1" fill="none" /><path d="M 40.0000 1760.0000 L 120.0000 1760.0000 L 120.0000 1757.4615 L 40.0000 1757.4615 L 40.0000 1760.0000 Z" stroke="green" stroke-width="1" fill="none" /><path d="M 460.0000 236.9231 L 480.0000 236.9231 L 480.0000 234.3846 L 460.0000 234.3846 L 460.0000 236.9231 Z" stroke="green" stroke-width="1" fill="none" /><path d="M 480.0000 253.8462 L 500.0000 253.8462 L 500.0000 251.3077 L 480.0000 251.3077 L 480.0000 253.8462 Z" stroke="green" stroke-width="1" fill="none" /><path d="M 500.0000 270.7692 L 520.0000 270.7692 L 520.0000 268.2308 L 500.0000 268.2308 L 500.0000 270.7692 Z" stroke="green" stroke-width="1" fill="none" /><path d="M 520.0000 287.6923 L 540.0000 287.6923 L 540.0000 285.1538 L 520.0000 285.1538 L 520.0000 287.6923 Z" stroke="green" stroke-width="1" fill="none" /><path d="M 540.0000 304.6154 L 560.0000 304.6154 L 560.0000 302.0769 L 540.0000 302.0769 L 540.0000 304.6154 Z" stroke="green" stroke-width="1" fill="none" /><path d="M 560.0000 321.5385 L 580.0000 321.5385 L 580.0000 319.0000 L 560.0000 319.0000 L 560.0000 321.5385 Z" stroke="green" stroke-width="1" fill="none" /><path d="M 580.0000 338.4615 L 600.0000 338.4615 L 600.0000 335.9231 L 580.0000 335.9231 L 580.0000 338.4615 Z" stroke="green" stroke-width="1" fill="none" /><path d="M 600.0000 355.3846 L 620.0000 355.3846 L 620.0000 352.8462 L 600.0000 352.8462 L 600.0000 355.3846 Z" stroke="green" stroke-width="1" fill="none" /><path d="M 620.0000 372.3077 L 640.0000 372.3077 L 640.0000 369.7692 L 620.0000 369.7692 L 620.0000 372.3077 Z" stroke="green" stroke-width="1" fill="none" /><path d="M 640.0000 389.2308 L 660.0000 389.2308 L 660.0000 386.6923 L 640.0000 386.6923 L 640.0000 389.2308 Z" stroke="green" stroke-width="1" fill="none" /><path d="M 660.0000 406.1538 L 680.0000 406.1538 L 680.0000 403.6154 L 660.0000 403.6154 L 660.0000 406.1538 Z" stroke="green" stroke-width="1" fill="none" /><path d="M 680.0000 423.0769 L 700.0000 423.0769 L 700.0000 420.5385 L 680.0000 420.5385 L 680.0000 423.0769 Z" stroke="green" stroke-width="1" fill="none" /></svg>