<svg width="1066" height="478" viewBox="67 650 1066 478" xmlns="http://www.w3.org/2000/svg"><path d="M 477.5000 913.8462 L 510.0000 913.8462 L 510.0000 911.3077 L 477.5000 911.3077 L 477.5000 913.8462 Z" stroke="green" stroke-width="1" fill="none" /><path d="M 445.0000 930.7692 L 477.5000 930.7692 L 477.5000 928.2308 L 445.0000 928.2308 L 445.0000 930.7692 Z" stroke="green" stroke-width="1" fill="none" /><path d="M 412.5000 947.6923 L 445.0000 947.6923 L 445.0000 945.1538 L 412.5000 945.1538 L 412.5000 947.6923 Z" stroke="green" stroke-width="1" fill="none" /><path d="M 380.0000 964.6154 L 412.5000 964.6154 L 412.5000 962.0769 L 380.0000 962.0769 L 380.0000 964.6154 Z" stroke="green" stroke-width="1" fill="none" /><path d="M 347.5000 981.5385 L 380.0000 981.5385 L 380.0000 979.0000 L 347.5000 979.0000 L 347.5000 981.5385 Z" stroke="green" stroke-width="1" fill="none" /><path d="M 315.0000 998.4615 L 347.5000 998.4615 L 347.5000 995.9231 L 315.0000 995.9231 L 315.0000 998.4615 Z" stroke="green" stroke-width="1" fill="none" /><path d="M 282.5000 1015.3846 L 315.0000 1015.3846 L 315.0000 1012.8462 L 282.5000 1012.8462 L 282.5000 1015.3846 Z" stroke="green" stroke-width="1" fill="none" /><path d="M 250.0000 1032.3077 L 282.5000 1032.3077 L 282.5000 1029.7692 L 250.0000 1029.7692 L 250.0000 1032.3077 Z" stroke="green" stroke-width="1" fill="none" /><path d="M 217.5000 1049.2308 L 250.0000 1049.2308 L 250.0000 1046.6923 L 217.5000 1046.6923 L 217.5000 1049.2308 Z" stroke="green" stroke-width="1" fill="none" /><path d="M 185.0000 1066.1538 L 217.5000 1066.1538 L 217.5000 1063.6154 L 185.0000 1063.6154 L 185.0000 1066.1538 Z" stroke="green" stroke-width="1" fill="none" /><path d="M 152.5000 1083.0769 L 185.0000 1083.0769 L 185.0000 1080.5385 L 152.5000 1080.5385 L 152.5000 1083.0769 Z" stroke="green" stroke-width="1" fill="none" /><path d="M 120.0000 1100.0000 L 152.5000 1100.0000 L 152.5000 1097.4615 L 120.0000 1097.4615 L 120.0000 1100.0000 Z" stroke="green" stroke-width="1" fill="none" /><path d="M 610.0000 880.0000 L 642.5000 880.0000 L 642.5000 877.4615 L 610.0000 877.4615 L 610.0000 880.0000 Z" stroke="green" stroke-width="1" fill="none" /><path d="M 642.5000 863.0769 L 675.0000 863.0769 L 675.0000 860.5385 L 642.5000 860.5385 L 642.5000 863.0769 Z" stroke="green" stroke-width="1" fill="none" /><path d="M 675.0000 846.1538 L 707.5000 846.1538 L 707.5000 843.6154 L 675.0000 843.6154 L 675.0000 846.1538 Z" stroke="green" stroke-width="1" fill="none" /><path d="M 707.5000 829.2308 L 740.0000 829.2308 L 740.0000 826.6923 L 707.5000 826.6923 L 707.5000 829.2308 Z" stroke="green" stroke-width="1" fill="none" /><path d="M 740.0000 812.3077 L 772.5000 812.3077 L 772.5000 809.7692 L 740.0000 809.7692 L 740.0000 812.3077 Z" stroke="green" stroke-width="1" fill="none" /><path d="M 772.5000 795.3846 L 805.0000 795.3846 L 805.0000 792.8462 L 772.5000 792.8462 L 772.5000 795.3846 Z" stroke="green" stroke-width="1" fill="none" /><path d="M 805.0000 778.4615 L 837.5000 778.4615 L 837.5000 775.9231 L 805.0000 775.9231 L 805.0000 778.4615 Z" stroke="green" stroke-width="1" fill="none" /><path d="M 837.5000 761.5385 L 870.0000 761.5385 L 870.0000 759.0000 L 837.5000 759.0000 L 837.5000 761.5385 Z" stroke="green" stroke-width="1" fill="none" /><path d="M 870.0000 744.6154 L 902.5000 744.6154 L 902.5000 742.0769 L 870.0000 742.0769 L 870.0000 744.6154 Z" stroke="green" stroke-width="1" fill="none" /><path d="M 902.5000 727.6923 L 935.0000 727.6923 L 935.0000 725.1538 L 902.5000 725.1538 L 902.5000 727.6923 Z" stroke="green" stroke-width="1" fill="none" /><path d="M 935.0000 710.7692 L 967.5000 710.7692 L 967.5000 708.2308 L 935.0000 708.2308 L 935.0000 710.7692 Z" stroke="green" stroke-width="1" fill="none" /><path d="M 967.5000 693.8462 L 1000.0000 693.8462 L 1000.0000 691.3077 L 967.5000 691.3077 L 967.5000 693.8462 Z" stroke="green" stroke-width="1" fill="none" /><path d="M 1000.0000 676.9231 L 1080.0000 676.9231 L 1080.0000 674.3846 L 1000.0000 674.3846 L 1000.0000 676.9231 Z" stroke="green" stroke-width="1" fill="none" /></svg>