0
SECTION
2
ENTITIES
0
LINE
8
PARAMETRIX
10
477.5000
20
14.3846
11
510.0000
21
14.3846
0
LINE
8
PARAMETRIX
10
510.0000
20
14.3846
11
510.0000
21
16.9231
0
LINE
8
PARAMETRIX
10
510.0000
20
16.9231
11
477.5000
21
16.9231
0
LINE
8
PARAMETRIX
10
477.5000
20
16.9231
11
477.5000
21
14.3846
0
LINE
8
PARAMETRIX
10
445.0000
20
31.3077
11
477.5000
21
31.3077
0
LINE
8
PARAMETRIX
10
477.5000
20
31.3077
11
477.5000
21
33.8462
0
LINE
8
PARAMETRIX
10
477.5000
20
33.8462
11
445.0000
21
33.8462
0
LINE
8
PARAMETRIX
10
445.0000
20
33.8462
11
445.0000
21
31.3077
0
LINE
8
PARAMETRIX
10
412.5000
20
48.2308
11
445.0000
21
48.2308
0
LINE
8
PARAMETRIX
10
445.0000
20
48.2308
11
445.0000
21
50.7692
0
LINE
8
PARAMETRIX
10
445.0000
20
50.7692
11
412.5000
21
50.7692
0
LINE
8
PARAMETRIX
10
412.5000
20
50.7692
11
412.5000
21
48.2308
0
LINE
8
PARAMETRIX
10
380.0000
20
65.1538
11
412.5000
21
65.1538
0
LINE
8
PARAMETRIX
10
412.5000
20
65.1538
11
412.5000
21
67.6923
0
LINE
8
PARAMETRIX
10
412.5000
20
67.6923
11
380.0000
21
67.6923
0
LINE
8
PARAMETRIX
10
380.0000
20
67.6923
11
380.0000
21
65.1538
0
LINE
8
PARAMETRIX
10
347.5000
20
82.0769
11
380.0000
21
82.0769
0
LINE
8
PARAMETRIX
10
380.0000
20
82.0769
11
380.0000
21
84.6154
0
LINE
8
PARAMETRIX
10
380.0000
20
84.6154
11
347.5000
21
84.6154
0
LINE
8
PARAMETRIX
10
347.5000
20
84.6154
11
347.5000
21
82.0769
0
LINE
8
PARAMETRIX
10
315.0000
20
99.0000
11
347.5000
21
99.0000
0
LINE
8
PARAMETRIX
10
347.5000
20
99.0000
11
347.5000
21
101.5385
0
LINE
8
PARAMETRIX
10
347.5000
20
101.5385
11
315.0000
21
101.5385
0
LINE
8
PARAMETRIX
10
315.0000
20
101.5385
11
315.0000
21
99.0000
0
LINE
8
PARAMETRIX
10
282.5000
20
115.9231
11
315.0000
21
115.9231
0
LINE
8
PARAMETRIX
10
315.0000
20
115.9231
11
315.0000
21
118.4615
0
LINE
8
PARAMETRIX
10
315.0000
20
118.4615
11
282.5000
21
118.4615
0
LINE
8
PARAMETRIX
10
282.5000
20
118.4615
11
282.5000
21
115.9231
0
LINE
8
PARAMETRIX
10
250.0000
20
132.8462
11
282.5000
21
132.8462
0
LINE
8
PARAMETRIX
10
282.5000
20
132.8462
11
282.5000
21
135.3846
0
LINE
8
PARAMETRIX
10
282.5000
20
135.3846
11
250.0000
21
135.3846
0
LINE
8
PARAMETRIX
10
250.0000
20
135.3846
11
250.0000
21
132.8462
0
LINE
8
PARAMETRIX
10
217.5000
20
149.7692
11
250.0000
21
149.7692
0
LINE
8
PARAMETRIX
10
250.0000
20
149.7692
11
250.0000
21
152.3077
0
LINE
8
PARAMETRIX
10
250.0000
20
152.3077
11
217.5000
21
152.3077
0
LINE
8
PARAMETRIX
10
217.5000
20
152.3077
11
217.5000
21
149.7692
0
LINE
8
PARAMETRIX
10
185.0000
20
166.6923
11
217.5000
21
166.6923
0
LINE
8
PARAMETRIX
10
217.5000
20
166.6923
11
217.5000
21
169.2308
0
LINE
8
PARAMETRIX
10
217.5000
20
169.2308
11
185.0000
21
169.2308
0
LINE
8
PARAMETRIX
10
185.0000
20
169.2308
11
185.0000
21
166.6923
0
LINE
8
PARAMETRIX
10
152.5000
20
183.6154
11
185.0000
21
183.6154
0
LINE
8
PARAMETRIX
10
185.0000
20
183.6154
11
185.0000
21
186.1538
0
LINE
8
PARAMETRIX
10
185.0000
20
186.1538
11
152.5000
21
186.1538
0
LINE
8
PARAMETRIX
10
152.5000
20
186.1538
11
152.5000
21
183.6154
0
LINE
8
PARAMETRIX
10
120.0000
20
200.5385
11
152.5000
21
200.5385
0
LINE
8
PARAMETRIX
10
152.5000
20
200.5385
11
152.5000
21
203.0769
0
LINE
8
PARAMETRIX
10
152.5000
20
203.0769
11
120.0000
21
203.0769
0
LINE
8
PARAMETRIX
10
120.0000
20
203.0769
11
120.0000
21
200.5385
0
LINE
8
PARAMETRIX
10
40.0000
20
217.4615
11
120.0000
21
217.4615
0
LINE
8
PARAMETRIX
10
120.0000
20
217.4615
11
120.0000
21
220.0000
0
LINE
8
PARAMETRIX
10
120.0000
20
220.0000
11
40.0000
21
220.0000
0
LINE
8
PARAMETRIX
10
40.0000
20
220.0000
11
40.0000
21
217.4615
0
LINE
8
PARAMETRIX
10
610.0000
20
1740.5385
11
642.5000
21
1740.5385
0
LINE
8
PARAMETRIX
10
642.5000
20
1740.5385
11
642.5000
21
1743.0769
0
LINE
8
PARAMETRIX
10
642.5000
20
1743.0769
11
610.0000
21
1743.0769
0
LINE
8
PARAMETRIX
10
610.0000
20
1743.0769
11
610.0000
21
1740.5385
0
LINE
8
PARAMETRIX
10
642.5000
20
1723.6154
11
675.0000
21
1723.6154
0
LINE
8
PARAMETRIX
10
675.0000
20
1723.6154
11
675.0000
21
1726.1538
0
LINE
8
PARAMETRIX
10
675.0000
20
1726.1538
11
642.5000
21
1726.1538
0
LINE
8
PARAMETRIX
10
642.5000
20
1726.1538
11
642.5000
21
1723.6154
0
LINE
8
PARAMETRIX
10
675.0000
20
1706.6923
11
707.5000
21
1706.6923
0
LINE
8
PARAMETRIX
10
707.5000
20
1706.6923
11
707.5000
21
1709.2308
0
LINE
8
PARAMETRIX
10
707.5000
20
1709.2308
11
675.0000
21
1709.2308
0
LINE
8
PARAMETRIX
10
675.0000
20
1709.2308
11
675.0000
21
1706.6923
0
LINE
8
PARAMETRIX
10
707.5000
20
1689.7692
11
740.0000
21
1689.7692
0
LINE
8
PARAMETRIX
10
740.0000
20
1689.7692
11
740.0000
21
1692.3077
0
LINE
8
PARAMETRIX
10
740.0000
20
1692.3077
11
707.5000
21
1692.3077
0
LINE
8
PARAMETRIX
10
707.5000
20
1692.3077
11
707.5000
21
1689.7692
0
LINE
8
PARAMETRIX
10
740.0000
20
1672.8462
11
772.5000
21
1672.8462
0
LINE
8
PARAMETRIX
10
772.5000
20
1672.8462
11
772.5000
21
1675.3846
0
LINE
8
PARAMETRIX
10
772.5000
20
1675.3846
11
740.0000
21
1675.3846
0
LINE
8
PARAMETRIX
10
740.0000
20
1675.3846
11
740.0000
21
1672.8462
0
LINE
8
PARAMETRIX
10
772.5000
20
1655.9231
11
805.0000
21
1655.9231
0
LINE
8
PARAMETRIX
10
805.0000
20
1655.9231
11
805.0000
21
1658.4615
0
LINE
8
PARAMETRIX
10
805.0000
20
1658.4615
11
772.5000
21
1658.4615
0
LINE
8
PARAMETRIX
10
772.5000
20
1658.4615
11
772.5000
21
1655.9231
0
LINE
8
PARAMETRIX
10
805.0000
20
1639.0000
11
837.5000
21
1639.0000
0
LINE
8
PARAMETRIX
10
837.5000
20
1639.0000
11
837.5000
21
1641.5385
0
LINE
8
PARAMETRIX
10
837.5000
20
1641.5385
11
805.0000
21
1641.5385
0
LINE
8
PARAMETRIX
10
805.0000
20
1641.5385
11
805.0000
21
1639.0000
0
LINE
8
PARAMETRIX
10
837.5000
20
1622.0769
11
870.0000
21
1622.0769
0
LINE
8
PARAMETRIX
10
870.0000
20
1622.0769
11
870.0000
21
1624.6154
0
LINE
8
PARAMETRIX
10
870.0000
20
1624.6154
11
837.5000
21
1624.6154
0
LINE
8
PARAMETRIX
10
837.5000
20
1624.6154
11
837.5000
21
1622.0769
0
LINE
8
PARAMETRIX
10
870.0000
20
1605.1538
11
902.5000
21
1605.1538
0
LINE
8
PARAMETRIX
10
902.5000
20
1605.1538
11
902.5000
21
1607.6923
0
LINE
8
PARAMETRIX
10
902.5000
20
1607.6923
11
870.0000
21
1607.6923
0
LINE
8
PARAMETRIX
10
870.0000
20
1607.6923
11
870.0000
21
1605.1538
0
LINE
8
PARAMETRIX
10
902.5000
20
1588.2308
11
935.0000
21
1588.2308
0
LINE
8
PARAMETRIX
10
935.0000
20
1588.2308
11
935.0000
21
1590.7692
0
LINE
8
PARAMETRIX
10
935.0000
20
1590.7692
11
902.5000
21
1590.7692
0
LINE
8
PARAMETRIX
10
902.5000
20
1590.7692
11
902.5000
21
1588.2308
0
LINE
8
PARAMETRIX
10
935.0000
20
1571.3077
11
967.5000
21
1571.3077
0
LINE
8
PARAMETRIX
10
967.5000
20
1571.3077
11
967.5000
21
1573.8462
0
LINE
8
PARAMETRIX
10
967.5000
20
1573.8462
11
935.0000
21
1573.8462
0
LINE
8
PARAMETRIX
10
935.0000
20
1573.8462
11
935.0000
21
1571.3077
0
LINE
8
PARAMETRIX
10
967.5000
20
1554.3846
11
1000.0000
21
1554.3846
0
LINE
8
PARAMETRIX
10
1000.0000
20
1554.3846
11
1000.0000
21
1556.9231
0
LINE
8
PARAMETRIX
10
1000.0000
20
1556.9231
11
967.5000
21
1556.9231
0
LINE
8
PARAMETRIX
10
967.5000
20
1556.9231
11
967.5000
21
1554.3846
0
LINE
8
PARAMETRIX
10
477.5000
20
1774.3846
11
510.0000
21
1774.3846
0
LINE
8
PARAMETRIX
10
510.0000
20
1774.3846
11
510.0000
21
1776.9231
0
LINE
8
PARAMETRIX
10
510.0000
20
1776.9231
11
477.5000
21
1776.9231
0
LINE
8
PARAMETRIX
10
477.5000
20
1776.9231
11
477.5000
21
1774.3846
0
LINE
8
PARAMETRIX
10
445.0000
20
1791.3077
11
477.5000
21
1791.3077
0
LINE
8
PARAMETRIX
10
477.5000
20
1791.3077
11
477.5000
21
1793.8462
0
LINE
8
PARAMETRIX
10
477.5000
20
1793.8462
11
445.0000
21
1793.8462
0
LINE
8
PARAMETRIX
10
445.0000
20
1793.8462
11
445.0000
21
1791.3077
0
LINE
8
PARAMETRIX
10
412.5000
20
1808.2308
11
445.0000
21
1808.2308
0
LINE
8
PARAMETRIX
10
445.0000
20
1808.2308
11
445.0000
21
1810.7692
0
LINE
8
PARAMETRIX
10
445.0000
20
1810.7692
11
412.5000
21
1810.7692
0
LINE
8
PARAMETRIX
10
412.5000
20
1810.7692
11
412.5000
21
1808.2308
0
LINE
8
PARAMETRIX
10
380.0000
20
1825.1538
11
412.5000
21
1825.1538
0
LINE
8
PARAMETRIX
10
412.5000
20
1825.1538
11
412.5000
21
1827.6923
0
LINE
8
PARAMETRIX
10
412.5000
20
1827.6923
11
380.0000
21
1827.6923
0
LINE
8
PARAMETRIX
10
380.0000
20
1827.6923
11
380.0000
21
1825.1538
0
LINE
8
PARAMETRIX
10
347.5000
20
1842.0769
11
380.0000
21
1842.0769
0
LINE
8
PARAMETRIX
10
380.0000
20
1842.0769
11
380.0000
21
1844.6154
0
LINE
8
PARAMETRIX
10
380.0000
20
1844.6154
11
347.5000
21
1844.6154
0
LINE
8
PARAMETRIX
10
347.5000
20
1844.6154
11
347.5000
21
1842.0769
0
LINE
8
PARAMETRIX
10
315.0000
20
1859.0000
11
347.5000
21
1859.0000
0
LINE
8
PARAMETRIX
10
347.5000
20
1859.0000
11
347.5000
21
1861.5385
0
LINE
8
PARAMETRIX
10
347.5000
20
1861.5385
11
315.0000
21
1861.5385
0
LINE
8
PARAMETRIX
10
315.0000
20
1861.5385
11
315.0000
21
1859.0000
0
LINE
8
PARAMETRIX
10
282.5000
20
1875.9231
11
315.0000
21
1875.9231
0
LINE
8
PARAMETRIX
10
315.0000
20
1875.9231
11
315.0000
21
1878.4615
0
LINE
8
PARAMETRIX
10
315.0000
20
1878.4615
11
282.5000
21
1878.4615
0
LINE
8
PARAMETRIX
10
282.5000
20
1878.4615
11
282.5000
21
1875.9231
0
LINE
8
PARAMETRIX
10
250.0000
20
1892.8462
11
282.5000
21
1892.8462
0
LINE
8
PARAMETRIX
10
282.5000
20
1892.8462
11
282.5000
21
1895.3846
0
LINE
8
PARAMETRIX
10
282.5000
20
1895.3846
11
250.0000
21
1895.3846
0
LINE
8
PARAMETRIX
10
250.0000
20
1895.3846
11
250.0000
21
1892.8462
0
LINE
8
PARAMETRIX
10
217.5000
20
1909.7692
11
250.0000
21
1909.7692
0
LINE
8
PARAMETRIX
10
250.0000
20
1909.7692
11
250.0000
21
1912.3077
0
LINE
8
PARAMETRIX
10
250.0000
20
1912.3077
11
217.5000
21
1912.3077
0
LINE
8
PARAMETRIX
10
217.5000
20
1912.3077
11
217.5000
21
1909.7692
0
LINE
8
PARAMETRIX
10
185.0000
20
1926.6923
11
217.5000
21
1926.6923
0
LINE
8
PARAMETRIX
10
217.5000
20
1926.6923
11
217.5000
21
1929.2308
0
LINE
8
PARAMETRIX
10
217.5000
20
1929.2308
11
185.0000
21
1929.2308
0
LINE
8
PARAMETRIX
10
185.0000
20
1929.2308
11
185.0000
21
1926.6923
0
LINE
8
PARAMETRIX
10
152.5000
20
1943.6154
11
185.0000
21
1943.6154
0
LINE
8
PARAMETRIX
10
185.0000
20
1943.6154
11
185.0000
21
1946.1538
0
LINE
8
PARAMETRIX
10
185.0000
20
1946.1538
11
152.5000
21
1946.1538
0
LINE
8
PARAMETRIX
10
152.5000
20
1946.1538
11
152.5000
21
1943.6154
0
LINE
8
PARAMETRIX
10
120.0000
20
1960.5385
11
152.5000
21
1960.5385
0
LINE
8
PARAMETRIX
10
152.5000
20
1960.5385
11
152.5000
21
1963.0769
0
LINE
8
PARAMETRIX
10
152.5000
20
1963.0769
11
120.0000
21
1963.0769
0
LINE
8
PARAMETRIX
10
120.0000
20
1963.0769
11
120.0000
21
1960.5385
0
LINE
8
PARAMETRIX
10
40.0000
20
1977.4615
11
120.0000
21
1977.4615
0
LINE
8
PARAMETRIX
10
120.0000
20
1977.4615
11
120.0000
21
1980.0000
0
LINE
8
PARAMETRIX
10
120.0000
20
1980.0000
11
40.0000
21
1980.0000
0
LINE
8
PARAMETRIX
10
40.0000
20
1980.0000
11
40.0000
21
1977.4615
0
ENDSEC
0
EOF
