0
SECTION
2
ENTITIES
0
LINE
8
PARAMETRIX
10
477.5000
20
860.5385
11
510.0000
21
860.5385
0
LINE
8
PARAMETRIX
10
510.0000
20
860.5385
11
510.0000
21
863.0769
0
LINE
8
PARAMETRIX
10
510.0000
20
863.0769
11
477.5000
21
863.0769
0
LINE
8
PARAMETRIX
10
477.5000
20
863.0769
11
477.5000
21
860.5385
0
LINE
8
PARAMETRIX
10
445.0000
20
843.6154
11
477.5000
21
843.6154
0
LINE
8
PARAMETRIX
10
477.5000
20
843.6154
11
477.5000
21
846.1538
0
LINE
8
PARAMETRIX
10
477.5000
20
846.1538
11
445.0000
21
846.1538
0
LINE
8
PARAMETRIX
10
445.0000
20
846.1538
11
445.0000
21
843.6154
0
LINE
8
PARAMETRIX
10
412.5000
20
826.6923
11
445.0000
21
826.6923
0
LINE
8
PARAMETRIX
10
445.0000
20
826.6923
11
445.0000
21
829.2308
0
LINE
8
PARAMETRIX
10
445.0000
20
829.2308
11
412.5000
21
829.2308
0
LINE
8
PARAMETRIX
10
412.5000
20
829.2308
11
412.5000
21
826.6923
0
LINE
8
PARAMETRIX
10
380.0000
20
809.7692
11
412.5000
21
809.7692
0
LINE
8
PARAMETRIX
10
412.5000
20
809.7692
11
412.5000
21
812.3077
0
LINE
8
PARAMETRIX
10
412.5000
20
812.3077
11
380.0000
21
812.3077
0
LINE
8
PARAMETRIX
10
380.0000
20
812.3077
11
380.0000
21
809.7692
0
LINE
8
PARAMETRIX
10
347.5000
20
792.8462
11
380.0000
21
792.8462
0
LINE
8
PARAMETRIX
10
380.0000
20
792.8462
11
380.0000
21
795.3846
0
LINE
8
PARAMETRIX
10
380.0000
20
795.3846
11
347.5000
21
795.3846
0
LINE
8
PARAMETRIX
10
347.5000
20
795.3846
11
347.5000
21
792.8462
0
LINE
8
PARAMETRIX
10
315.0000
20
775.9231
11
347.5000
21
775.9231
0
LINE
8
PARAMETRIX
10
347.5000
20
775.9231
11
347.5000
21
778.4615
0
LINE
8
PARAMETRIX
10
347.5000
20
778.4615
11
315.0000
21
778.4615
0
LINE
8
PARAMETRIX
10
315.0000
20
778.4615
11
315.0000
21
775.9231
0
LINE
8
PARAMETRIX
10
282.5000
20
759.0000
11
315.0000
21
759.0000
0
LINE
8
PARAMETRIX
10
315.0000
20
759.0000
11
315.0000
21
761.5385
0
LINE
8
PARAMETRIX
10
315.0000
20
761.5385
11
282.5000
21
761.5385
0
LINE
8
PARAMETRIX
10
282.5000
20
761.5385
11
282.5000
21
759.0000
0
LINE
8
PARAMETRIX
10
250.0000
20
742.0769
11
282.5000
21
742.0769
0
LINE
8
PARAMETRIX
10
282.5000
20
742.0769
11
282.5000
21
744.6154
0
LINE
8
PARAMETRIX
10
282.5000
20
744.6154
11
250.0000
21
744.6154
0
LINE
8
PARAMETRIX
10
250.0000
20
744.6154
11
250.0000
21
742.0769
0
LINE
8
PARAMETRIX
10
217.5000
20
725.1538
11
250.0000
21
725.1538
0
LINE
8
PARAMETRIX
10
250.0000
20
725.1538
11
250.0000
21
727.6923
0
LINE
8
PARAMETRIX
10
250.0000
20
727.6923
11
217.5000
21
727.6923
0
LINE
8
PARAMETRIX
10
217.5000
20
727.6923
11
217.5000
21
725.1538
0
LINE
8
PARAMETRIX
10
185.0000
20
708.2308
11
217.5000
21
708.2308
0
LINE
8
PARAMETRIX
10
217.5000
20
708.2308
11
217.5000
21
710.7692
0
LINE
8
PARAMETRIX
10
217.5000
20
710.7692
11
185.0000
21
710.7692
0
LINE
8
PARAMETRIX
10
185.0000
20
710.7692
11
185.0000
21
708.2308
0
LINE
8
PARAMETRIX
10
152.5000
20
691.3077
11
185.0000
21
691.3077
0
LINE
8
PARAMETRIX
10
185.0000
20
691.3077
11
185.0000
21
693.8462
0
LINE
8
PARAMETRIX
10
185.0000
20
693.8462
11
152.5000
21
693.8462
0
LINE
8
PARAMETRIX
10
152.5000
20
693.8462
11
152.5000
21
691.3077
0
LINE
8
PARAMETRIX
10
120.0000
20
674.3846
11
152.5000
21
674.3846
0
LINE
8
PARAMETRIX
10
152.5000
20
674.3846
11
152.5000
21
676.9231
0
LINE
8
PARAMETRIX
10
152.5000
20
676.9231
11
120.0000
21
676.9231
0
LINE
8
PARAMETRIX
10
120.0000
20
676.9231
11
120.0000
21
674.3846
0
LINE
8
PARAMETRIX
10
610.0000
20
894.3846
11
642.5000
21
894.3846
0
LINE
8
PARAMETRIX
10
642.5000
20
894.3846
11
642.5000
21
896.9231
0
LINE
8
PARAMETRIX
10
642.5000
20
896.9231
11
610.0000
21
896.9231
0
LINE
8
PARAMETRIX
10
610.0000
20
896.9231
11
610.0000
21
894.3846
0
LINE
8
PARAMETRIX
10
642.5000
20
911.3077
11
675.0000
21
911.3077
0
LINE
8
PARAMETRIX
10
675.0000
20
911.3077
11
675.0000
21
913.8462
0
LINE
8
PARAMETRIX
10
675.0000
20
913.8462
11
642.5000
21
913.8462
0
LINE
8
PARAMETRIX
10
642.5000
20
913.8462
11
642.5000
21
911.3077
0
LINE
8
PARAMETRIX
10
675.0000
20
928.2308
11
707.5000
21
928.2308
0
LINE
8
PARAMETRIX
10
707.5000
20
928.2308
11
707.5000
21
930.7692
0
LINE
8
PARAMETRIX
10
707.5000
20
930.7692
11
675.0000
21
930.7692
0
LINE
8
PARAMETRIX
10
675.0000
20
930.7692
11
675.0000
21
928.2308
0
LINE
8
PARAMETRIX
10
707.5000
20
945.1538
11
740.0000
21
945.1538
0
LINE
8
PARAMETRIX
10
740.0000
20
945.1538
11
740.0000
21
947.6923
0
LINE
8
PARAMETRIX
10
740.0000
20
947.6923
11
707.5000
21
947.6923
0
LINE
8
PARAMETRIX
10
707.5000
20
947.6923
11
707.5000
21
945.1538
0
LINE
8
PARAMETRIX
10
740.0000
20
962.0769
11
772.5000
21
962.0769
0
LINE
8
PARAMETRIX
10
772.5000
20
962.0769
11
772.5000
21
964.6154
0
LINE
8
PARAMETRIX
10
772.5000
20
964.6154
11
740.0000
21
964.6154
0
LINE
8
PARAMETRIX
10
740.0000
20
964.6154
11
740.0000
21
962.0769
0
LINE
8
PARAMETRIX
10
772.5000
20
979.0000
11
805.0000
21
979.0000
0
LINE
8
PARAMETRIX
10
805.0000
20
979.0000
11
805.0000
21
981.5385
0
LINE
8
PARAMETRIX
10
805.0000
20
981.5385
11
772.5000
21
981.5385
0
LINE
8
PARAMETRIX
10
772.5000
20
981.5385
11
772.5000
21
979.0000
0
LINE
8
PARAMETRIX
10
805.0000
20
995.9231
11
837.5000
21
995.9231
0
LINE
8
PARAMETRIX
10
837.5000
20
995.9231
11
837.5000
21
998.4615
0
LINE
8
PARAMETRIX
10
837.5000
20
998.4615
11
805.0000
21
998.4615
0
LINE
8
PARAMETRIX
10
805.0000
20
998.4615
11
805.0000
21
995.9231
0
LINE
8
PARAMETRIX
10
837.5000
20
1012.8462
11
870.0000
21
1012.8462
0
LINE
8
PARAMETRIX
10
870.0000
20
1012.8462
11
870.0000
21
1015.3846
0
LINE
8
PARAMETRIX
10
870.0000
20
1015.3846
11
837.5000
21
1015.3846
0
LINE
8
PARAMETRIX
10
837.5000
20
1015.3846
11
837.5000
21
1012.8462
0
LINE
8
PARAMETRIX
10
870.0000
20
1029.7692
11
902.5000
21
1029.7692
0
LINE
8
PARAMETRIX
10
902.5000
20
1029.7692
11
902.5000
21
1032.3077
0
LINE
8
PARAMETRIX
10
902.5000
20
1032.3077
11
870.0000
21
1032.3077
0
LINE
8
PARAMETRIX
10
870.0000
20
1032.3077
11
870.0000
21
1029.7692
0
LINE
8
PARAMETRIX
10
902.5000
20
1046.6923
11
935.0000
21
1046.6923
0
LINE
8
PARAMETRIX
10
935.0000
20
1046.6923
11
935.0000
21
1049.2308
0
LINE
8
PARAMETRIX
10
935.0000
20
1049.2308
11
902.5000
21
1049.2308
0
LINE
8
PARAMETRIX
10
902.5000
20
1049.2308
11
902.5000
21
1046.6923
0
LINE
8
PARAMETRIX
10
935.0000
20
1063.6154
11
967.5000
21
1063.6154
0
LINE
8
PARAMETRIX
10
967.5000
20
1063.6154
11
967.5000
21
1066.1538
0
LINE
8
PARAMETRIX
10
967.5000
20
1066.1538
11
935.0000
21
1066.1538
0
LINE
8
PARAMETRIX
10
935.0000
20
1066.1538
11
935.0000
21
1063.6154
0
LINE
8
PARAMETRIX
10
967.5000
20
1080.5385
11
1000.0000
21
1080.5385
0
LINE
8
PARAMETRIX
10
1000.0000
20
1080.5385
11
1000.0000
21
1083.0769
0
LINE
8
PARAMETRIX
10
1000.0000
20
1083.0769
11
967.5000
21
1083.0769
0
LINE
8
PARAMETRIX
10
967.5000
20
1083.0769
11
967.5000
21
1080.5385
0
LINE
8
PARAMETRIX
10
1000.0000
20
1097.4615
11
1080.0000
21
1097.4615
0
LINE
8
PARAMETRIX
10
1080.0000
20
1097.4615
11
1080.0000
21
1100.0000
0
LINE
8
PARAMETRIX
10
1080.0000
20
1100.0000
11
1000.0000
21
1100.0000
0
LINE
8
PARAMETRIX
10
1000.0000
20
1100.0000
11
1000.0000
21
1097.4615
0
ENDSEC
0
EOF
