<svg width="736" height="478" viewBox="83 1090 736 478" xmlns="http://www.w3.org/2000/svg"><path d="M 340.0000 1353.8462 L 360.0000 1353.8462 L 360.0000 1351.3077 L 340.0000 1351.3077 L 340.0000 1353.8462 Z" stroke="green" stroke-width="1" fill="none" /><path d="M 320.0000 1370.7692 L 340.0000 1370.7692 L 340.0000 1368.2308 L 320.0000 1368.2308 L 320.0000 1370.7692 Z" stroke="green" stroke-width="1" fill="none" /><path d="M 300.0000 1387.6923 L 320.0000 1387.6923 L 320.0000 1385.1538 L 300.0000 1385.1538 L 300.0000 1387.6923 Z" stroke="green" stroke-width="1" fill="none" /><path d="M 280.0000 1404.6154 L 300.0000 1404.6154 L 300.0000 1402.0769 L 280.0000 1402.0769 L 280.0000 1404.6154 Z" stroke="green" stroke-width="1" fill="none" /><path d="M 260.0000 1421.5385 L 280.0000 1421.5385 L 280.0000 1419.0000 L 260.0000 1419.0000 L 260.0000 1421.5385 Z" stroke="green" stroke-width="1" fill="none" /><path d="M 240.0000 1438.4615 L 260.0000 1438.4615 L 260.0000 1435.9231 L 240.0000 1435.9231 L 240.0000 1438.4615 Z" stroke="green" stroke-width="1" fill="none" /><path d="M 220.0000 1455.3846 L 240.0000 1455.3846 L 240.0000 1452.8462 L 220.0000 1452.8462 L 220.0000 1455.3846 Z" stroke="green" stroke-width="1" fill="none" /><path d="M 200.0000 1472.3077 L 220.0000 1472.3077 L 220.0000 1469.7692 L 200.0000 1469.7692 L 200.0000 1472.3077 Z" stroke="green" stroke-width="1" fill="none" /><path d="M 180.0000 1489.2308 L 200.0000 1489.2308 L 200.0000 1486.6923 L 180.0000 1486.6923 L 180.0000 1489.2308 Z" stroke="green" stroke-width="1" fill="none" /><path d="M 160.0000 1506.1538 L 180.0000 1506.1538 L 180.0000 1503.6154 L 160.0000 1503.6154 L 160.0000 1506.1538 Z" stroke="green" stroke-width="1" fill="none" /><path d="M 140.0000 1523.0769 L 160.0000 1523.0769 L 160.0000 1520.5385 L 140.0000 1520.5385 L 140.0000 1523.0769 Z" stroke="green" stroke-width="1" fill="none" /><path d="M 120.0000 1540.0000 L 140.0000 1540.0000 L 140.0000 1537.4615 L 120.0000 1537.4615 L 120.0000 1540.0000 Z" stroke="green" stroke-width="1" fill="none" /><path d="M 460.0000 1320.0000 L 480.0000 1320.0000 L 480.0000 1317.4615 L 460.0000 1317.4615 L 460.0000 1320.0000 Z" stroke="green" stroke-width="1" fill="none" /><path d="M 480.0000 1303.0769 L 500.0000 1303.0769 L 500.0000 1300.5385 L 480.0000 1300.5385 L 480.0000 1303.0769 Z" stroke="green" stroke-width="1" fill="none" /><path d="M 500.0000 1286.1538 L 520.0000 1286.1538 L 520.0000 1283.6154 L 500.0000 1283.6154 L 500.0000 1286.1538 Z" stroke="green" stroke-width="1" fill="none" /><path d="M 520.0000 1269.2308 L 540.0000 1269.2308 L 540.0000 1266.6923 L 520.0000 1266.6923 L 520.0000 1269.2308 Z" stroke="green" stroke-width="1" fill="none" /><path d="M 540.0000 1252.3077 L 560.0000 1252.3077 L 560.0000 1249.7692 L 540.0000 1249.7692 L 540.0000 1252.3077 Z" stroke="green" stroke-width="1" fill="none" /><path d="M 560.0000 1235.3846 L 580.0000 1235.3846 L 580.0000 1232.8462 L 560.0000 1232.8462 L 560.0000 1235.3846 Z" stroke="green" stroke-width="1" fill="none" /><path d="M 580.0000 1218.4615 L 600.0000 1218.4615 L 600.0000 1215.9231 L 580.0000 1215.9231 L 580.0000 1218.4615 Z" stroke="green" stroke-width="1" fill="none" /><path d="M 600.0000 1201.5385 L 620.0000 1201.5385 L 620.0000 1199.0000 L 600.0000 1199.0000 L 600.0000 1201.5385 Z" stroke="green" stroke-width="1" fill="none" /><path d="M 620.0000 1184.6154 L 640.0000 1184.6154 L 640.0000 1182.0769 L 620.0000 1182.0769 L 620.0000 1184.6154 Z" stroke="green" stroke-width="1" fill="none" /><path d="M 640.0000 1167.6923 L 660.0000 1167.6923 L 660.0000 1165.1538 L 640.0000 1165.1538 L 640.0000 1167.6923 Z" stroke="green" stroke-width="1" fill="none" /><path d="M 660.0000 1150.7692 L 680.0000 1150.7692 L 680.0000 1148.2308 L 660.0000 1148.2308 L 660.0000 1150.7692 Z" stroke="green" stroke-width="1" fill="none" /><path d="M 680.0000 1133.8462 L 700.0000 1133.8462 L 700.0000 1131.3077 L 680.0000 1131.3077 L 680.0000 1133.8462 Z" stroke="green" stroke-width="1" fill="none" /><path d="M 700.0000 1116.9231 L 780.0000 1116.9231 L 780.0000 1114.3846 L 700.0000 1114.3846 L 700.0000 1116.9231 Z" stroke="green" stroke-width="1" fill="none" /></svg>