<svg width="1066" height="2172" viewBox="-13 -94 1066 2172" xmlns="http://www.w3.org/2000/svg"><path d="M 477.5000 1980.0000 L 510.0000 1980.0000 L 510.0000 1977.4615 L 477.5000 1977.4615 L 477.5000 1980.0000 Z" stroke="green" stroke-width="1" fill="none" /><path d="M 445.0000 1963.0769 L 477.5000 1963.0769 L 477.5000 1960.5385 L 445.0000 1960.5385 L 445.0000 1963.0769 Z" stroke="green" stroke-width="1" fill="none" /><path d="M 412.5000 1946.1538 L 445.0000 1946.1538 L 445.0000 1943.6154 L 412.5000 1943.6154 L 412.5000 1946.1538 Z" stroke="green" stroke-width="1" fill="none" /><path d="M 380.0000 1929.2308 L 412.5000 1929.2308 L 412.5000 1926.6923 L 380.0000 1926.6923 L 380.0000 1929.2308 Z" stroke="green" stroke-width="1" fill="none" /><path d="M 347.5000 1912.3077 L 380.0000 1912.3077 L 380.0000 1909.7692 L 347.5000 1909.7692 L 347.5000 1912.3077 Z" stroke="green" stroke-width="1" fill="none" /><path d="M 315.0000 1895.3846 L 347.5000 1895.3846 L 347.5000 1892.8462 L 315.0000 1892.8462 L 315.0000 1895.3846 Z" stroke="green" stroke-width="1" fill="none" /><path d="M 282.5000 1878.4615 L 315.0000 1878.4615 L 315.0000 1875.9231 L 282.5000 1875.9231 L 282.5000 1878.4615 Z" stroke="green" stroke-width="1" fill="none" /><path d="M 250.0000 1861.5385 L 282.5000 1861.5385 L 282.5000 1859.0000 L 250.0000 1859.0000 L 250.0000 1861.5385 Z" stroke="green" stroke-width="1" fill="none" /><path d="M 217.5000 1844.6154 L 250.0000 1844.6154 L 250.0000 1842.0769 L 217.5000 1842.0769 L 217.5000 1844.6154 Z" stroke="green" stroke-width="1" fill="none" /><path d="M 185.0000 1827.6923 L 217.5000 1827.6923 L 217.5000 1825.1538 L 185.0000 1825.1538 L 185.0000 1827.6923 Z" stroke="green" stroke-width="1" fill="none" /><path d="M 152.5000 1810.7692 L 185.0000 1810.7692 L 185.0000 1808.2308 L 152.5000 1808.2308 L 152.5000 1810.7692 Z" stroke="green" stroke-width="1" fill="none" /><path d="M 120.0000 1793.8462 L 152.5000 1793.8462 L 152.5000 1791.3077 L 120.0000 1791.3077 L 120.0000 1793.8462 Z" stroke="green" stroke-width="1" fill="none" /><path d="M 40.0000 1776.9231 L 120.0000 1776.9231 L 120.0000 1774.3846 L 40.0000 1774.3846 L 40.0000 1776.9231 Z" stroke="green" stroke-width="1" fill="none" /><path d="M 610.0000 253.8462 L 642.5000 253.8462 L 642.5000 251.3077 L 610.0000 251.3077 L 610.0000 253.8462 Z" stroke="green" stroke-width="1" fill="none" /><path d="M 642.5000 270.7692 L 675.0000 270.7692 L 675.0000 268.2308 L 642.5000 268.2308 L 642.5000 270.7692 Z" stroke="green" stroke-width="1" fill="none" /><path d="M 675.0000 287.6923 L 707.5000 287.6923 L 707.5000 285.1538 L 675.0000 285.1538 L 675.0000 287.6923 Z" stroke="green" stroke-width="1" fill="none" /><path d="M 707.5000 304.6154 L 740.0000 304.6154 L 740.0000 302.0769 L 707.5000 302.0769 L 707.5000 304.6154 Z" stroke="green" stroke-width="1" fill="none" /><path d="M 740.0000 321.5385 L 772.5000 321.5385 L 772.5000 319.0000 L 740.0000 319.0000 L 740.0000 321.5385 Z" stroke="green" stroke-width="1" fill="none" /><path d="M 772.5000 338.4615 L 805.0000 338.4615 L 805.0000 335.9231 L 772.5000 335.9231 L 772.5000 338.4615 Z" stroke="green" stroke-width="1" fill="none" /><path d="M 805.0000 355.3846 L 837.5000 355.3846 L 837.5000 352.8462 L 805.0000 352.8462 L 805.0000 355.3846 Z" stroke="green" stroke-width="1" fill="none" /><path d="M 837.5000 372.3077 L 870.0000 372.3077 L 870.0000 369.7692 L 837.5000 369.7692 L 837.5000 372.3077 Z" stroke="green" stroke-width="1" fill="none" /><path d="M 870.0000 389.2308 L 902.5000 389.2308 L 902.5000 386.6923 L 870.0000 386.6923 L 870.0000 389.2308 Z" stroke="green" stroke-width="1" fill="none" /><path d="M 902.5000 406.1538 L 935.0000 406.1538 L 935.0000 403.6154 L 902.5000 403.6154 L 902.5000 406.1538 Z" stroke="green" stroke-width="1" fill="none" /><path d="M 935.0000 423.0769 L 967.5000 423.0769 L 967.5000 420.5385 L 935.0000 420.5385 L 935.0000 423.0769 Z" stroke="green" stroke-width="1" fill="none" /><path d="M 967.5000 440.0000 L 1000.0000 440.0000 L 1000.0000 437.4615 L 967.5000 437.4615 L 967.5000 440.0000 Z" stroke="green" stroke-width="1" fill="none" /><path d="M 477.5000 220.0000 L 510.0000 220.0000 L 510.0000 217.4615 L 477.5000 217.4615 L 477.5000 220.0000 Z" stroke="green" stroke-width="1" fill="none" /><path d="M 445.0000 203.0769 L 477.5000 203.0769 L 477.5000 200.5385 L 445.0000 200.5385 L 445.0000 203.0769 Z" stroke="green" stroke-width="1" fill="none" /><path d="M 412.5000 186.1538 L 445.0000 186.1538 L 445.0000 183.6154 L 412.5000 183.6154 L 412.5000 186.1538 Z" stroke="green" stroke-width="1" fill="none" /><path d="M 380.0000 169.2308 L 412.5000 169.2308 L 412.5000 166.6923 L 380.0000 166.6923 L 380.0000 169.2308 Z" stroke="green" stroke-width="1" fill="none" /><path d="M 347.5000 152.3077 L 380.0000 152.3077 L 380.0000 149.7692 L 347.5000 149.7692 L 347.5000 152.3077 Z" stroke="green" stroke-width="1" fill="none" /><path d="M 315.0000 135.3846 L 347.5000 135.3846 L 347.5000 132.8462 L 315.0000 132.8462 L 315.0000 135.3846 Z" stroke="green" stroke-width="1" fill="none" /><path d="M 282.5000 118.4615 L 315.0000 118.4615 L 315.0000 115.9231 L 282.5000 115.9231 L 282.5000 118.4615 Z" stroke="green" stroke-width="1" fill="none" /><path d="M 250.0000 101.5385 L 282.5000 101.5385 L 282.5000 99.0000 L 250.0000 99.0000 L 250.0000 101.5385 Z" stroke="green" stroke-width="1" fill="none" /><path d="M 217.5000 84.6154 L 250.0000 84.6154 L 250.0000 82.0769 L 217.5000 82.0769 L 217.5000 84.6154 Z" stroke="green" stroke-width="1" fill="none" /><path d="M 185.0000 67.6923 L 217.5000 67.6923 L 217.5000 65.1538 L 185.0000 65.1538 L 185.0000 67.6923 Z" stroke="green" stroke-width="1" fill="none" /><path d="M 152.5000 50.7692 L 185.0000 50.7692 L 185.0000 48.2308 L 152.5000 48.2308 L 152.5000 50.7692 Z" stroke="green" stroke-width="1" fill="none" /><path d="M 120.0000 33.8462 L 152.5000 33.8462 L 152.5000 31.3077 L 120.0000 31.3077 L 120.0000 33.8462 Z" stroke="green" stroke-width="1" fill="none" /><path d="M 40.0000 16.9231 L 120.0000 16.9231 L 120.0000 14.3846 L 40.0000 14.3846 L 40.0000 16.9231 Z" stroke="green" stroke-width="1" fill="none" /></svg>