0
SECTION
2
ENTITIES
0
LINE
8
PARAMETRIX
10
340.0000
20
1300.5385
11
360.0000
21
1300.5385
0
LINE
8
PARAMETRIX
10
360.0000
20
1300.5385
11
360.0000
21
1303.0769
0
LINE
8
PARAMETRIX
10
360.0000
20
1303.0769
11
340.0000
21
1303.0769
0
LINE
8
PARAMETRIX
10
340.0000
20
1303.0769
11
340.0000
21
1300.5385
0
LINE
8
PARAMETRIX
10
320.0000
20
1283.6154
11
340.0000
21
1283.6154
0
LINE
8
PARAMETRIX
10
340.0000
20
1283.6154
11
340.0000
21
1286.1538
0
LINE
8
PARAMETRIX
10
340.0000
20
1286.1538
11
320.0000
21
1286.1538
0
LINE
8
PARAMETRIX
10
320.0000
20
1286.1538
11
320.0000
21
1283.6154
0
LINE
8
PARAMETRIX
10
300.0000
20
1266.6923
11
320.0000
21
1266.6923
0
LINE
8
PARAMETRIX
10
320.0000
20
1266.6923
11
320.0000
21
1269.2308
0
LINE
8
PARAMETRIX
10
320.0000
20
1269.2308
11
300.0000
21
1269.2308
0
LINE
8
PARAMETRIX
10
300.0000
20
1269.2308
11
300.0000
21
1266.6923
0
LINE
8
PARAMETRIX
10
280.0000
20
1249.7692
11
300.0000
21
1249.7692
0
LINE
8
PARAMETRIX
10
300.0000
20
1249.7692
11
300.0000
21
1252.3077
0
LINE
8
PARAMETRIX
10
300.0000
20
1252.3077
11
280.0000
21
1252.3077
0
LINE
8
PARAMETRIX
10
280.0000
20
1252.3077
11
280.0000
21
1249.7692
0
LINE
8
PARAMETRIX
10
260.0000
20
1232.8462
11
280.0000
21
1232.8462
0
LINE
8
PARAMETRIX
10
280.0000
20
1232.8462
11
280.0000
21
1235.3846
0
LINE
8
PARAMETRIX
10
280.0000
20
1235.3846
11
260.0000
21
1235.3846
0
LINE
8
PARAMETRIX
10
260.0000
20
1235.3846
11
260.0000
21
1232.8462
0
LINE
8
PARAMETRIX
10
240.0000
20
1215.9231
11
260.0000
21
1215.9231
0
LINE
8
PARAMETRIX
10
260.0000
20
1215.9231
11
260.0000
21
1218.4615
0
LINE
8
PARAMETRIX
10
260.0000
20
1218.4615
11
240.0000
21
1218.4615
0
LINE
8
PARAMETRIX
10
240.0000
20
1218.4615
11
240.0000
21
1215.9231
0
LINE
8
PARAMETRIX
10
220.0000
20
1199.0000
11
240.0000
21
1199.0000
0
LINE
8
PARAMETRIX
10
240.0000
20
1199.0000
11
240.0000
21
1201.5385
0
LINE
8
PARAMETRIX
10
240.0000
20
1201.5385
11
220.0000
21
1201.5385
0
LINE
8
PARAMETRIX
10
220.0000
20
1201.5385
11
220.0000
21
1199.0000
0
LINE
8
PARAMETRIX
10
200.0000
20
1182.0769
11
220.0000
21
1182.0769
0
LINE
8
PARAMETRIX
10
220.0000
20
1182.0769
11
220.0000
21
1184.6154
0
LINE
8
PARAMETRIX
10
220.0000
20
1184.6154
11
200.0000
21
1184.6154
0
LINE
8
PARAMETRIX
10
200.0000
20
1184.6154
11
200.0000
21
1182.0769
0
LINE
8
PARAMETRIX
10
180.0000
20
1165.1538
11
200.0000
21
1165.1538
0
LINE
8
PARAMETRIX
10
200.0000
20
1165.1538
11
200.0000
21
1167.6923
0
LINE
8
PARAMETRIX
10
200.0000
20
1167.6923
11
180.0000
21
1167.6923
0
LINE
8
PARAMETRIX
10
180.0000
20
1167.6923
11
180.0000
21
1165.1538
0
LINE
8
PARAMETRIX
10
160.0000
20
1148.2308
11
180.0000
21
1148.2308
0
LINE
8
PARAMETRIX
10
180.0000
20
1148.2308
11
180.0000
21
1150.7692
0
LINE
8
PARAMETRIX
10
180.0000
20
1150.7692
11
160.0000
21
1150.7692
0
LINE
8
PARAMETRIX
10
160.0000
20
1150.7692
11
160.0000
21
1148.2308
0
LINE
8
PARAMETRIX
10
140.0000
20
1131.3077
11
160.0000
21
1131.3077
0
LINE
8
PARAMETRIX
10
160.0000
20
1131.3077
11
160.0000
21
1133.8462
0
LINE
8
PARAMETRIX
10
160.0000
20
1133.8462
11
140.0000
21
1133.8462
0
LINE
8
PARAMETRIX
10
140.0000
20
1133.8462
11
140.0000
21
1131.3077
0
LINE
8
PARAMETRIX
10
120.0000
20
1114.3846
11
140.0000
21
1114.3846
0
LINE
8
PARAMETRIX
10
140.0000
20
1114.3846
11
140.0000
21
1116.9231
0
LINE
8
PARAMETRIX
10
140.0000
20
1116.9231
11
120.0000
21
1116.9231
0
LINE
8
PARAMETRIX
10
120.0000
20
1116.9231
11
120.0000
21
1114.3846
0
LINE
8
PARAMETRIX
10
460.0000
20
1334.3846
11
480.0000
21
1334.3846
0
LINE
8
PARAMETRIX
10
480.0000
20
1334.3846
11
480.0000
21
1336.9231
0
LINE
8
PARAMETRIX
10
480.0000
20
1336.9231
11
460.0000
21
1336.9231
0
LINE
8
PARAMETRIX
10
460.0000
20
1336.9231
11
460.0000
21
1334.3846
0
LINE
8
PARAMETRIX
10
480.0000
20
1351.3077
11
500.0000
21
1351.3077
0
LINE
8
PARAMETRIX
10
500.0000
20
1351.3077
11
500.0000
21
1353.8462
0
LINE
8
PARAMETRIX
10
500.0000
20
1353.8462
11
480.0000
21
1353.8462
0
LINE
8
PARAMETRIX
10
480.0000
20
1353.8462
11
480.0000
21
1351.3077
0
LINE
8
PARAMETRIX
10
500.0000
20
1368.2308
11
520.0000
21
1368.2308
0
LINE
8
PARAMETRIX
10
520.0000
20
1368.2308
11
520.0000
21
1370.7692
0
LINE
8
PARAMETRIX
10
520.0000
20
1370.7692
11
500.0000
21
1370.7692
0
LINE
8
PARAMETRIX
10
500.0000
20
1370.7692
11
500.0000
21
1368.2308
0
LINE
8
PARAMETRIX
10
520.0000
20
1385.1538
11
540.0000
21
1385.1538
0
LINE
8
PARAMETRIX
10
540.0000
20
1385.1538
11
540.0000
21
1387.6923
0
LINE
8
PARAMETRIX
10
540.0000
20
1387.6923
11
520.0000
21
1387.6923
0
LINE
8
PARAMETRIX
10
520.0000
20
1387.6923
11
520.0000
21
1385.1538
0
LINE
8
PARAMETRIX
10
540.0000
20
1402.0769
11
560.0000
21
1402.0769
0
LINE
8
PARAMETRIX
10
560.0000
20
1402.0769
11
560.0000
21
1404.6154
0
LINE
8
PARAMETRIX
10
560.0000
20
1404.6154
11
540.0000
21
1404.6154
0
LINE
8
PARAMETRIX
10
540.0000
20
1404.6154
11
540.0000
21
1402.0769
0
LINE
8
PARAMETRIX
10
560.0000
20
1419.0000
11
580.0000
21
1419.0000
0
LINE
8
PARAMETRIX
10
580.0000
20
1419.0000
11
580.0000
21
1421.5385
0
LINE
8
PARAMETRIX
10
580.0000
20
1421.5385
11
560.0000
21
1421.5385
0
LINE
8
PARAMETRIX
10
560.0000
20
1421.5385
11
560.0000
21
1419.0000
0
LINE
8
PARAMETRIX
10
580.0000
20
1435.9231
11
600.0000
21
1435.9231
0
LINE
8
PARAMETRIX
10
600.0000
20
1435.9231
11
600.0000
21
1438.4615
0
LINE
8
PARAMETRIX
10
600.0000
20
1438.4615
11
580.0000
21
1438.4615
0
LINE
8
PARAMETRIX
10
580.0000
20
1438.4615
11
580.0000
21
1435.9231
0
LINE
8
PARAMETRIX
10
600.0000
20
1452.8462
11
620.0000
21
1452.8462
0
LINE
8
PARAMETRIX
10
620.0000
20
1452.8462
11
620.0000
21
1455.3846
0
LINE
8
PARAMETRIX
10
620.0000
20
1455.3846
11
600.0000
21
1455.3846
0
LINE
8
PARAMETRIX
10
600.0000
20
1455.3846
11
600.0000
21
1452.8462
0
LINE
8
PARAMETRIX
10
620.0000
20
1469.7692
11
640.0000
21
1469.7692
0
LINE
8
PARAMETRIX
10
640.0000
20
1469.7692
11
640.0000
21
1472.3077
0
LINE
8
PARAMETRIX
10
640.0000
20
1472.3077
11
620.0000
21
1472.3077
0
LINE
8
PARAMETRIX
10
620.0000
20
1472.3077
11
620.0000
21
1469.7692
0
LINE
8
PARAMETRIX
10
640.0000
20
1486.6923
11
660.0000
21
1486.6923
0
LINE
8
PARAMETRIX
10
660.0000
20
1486.6923
11
660.0000
21
1489.2308
0
LINE
8
PARAMETRIX
10
660.0000
20
1489.2308
11
640.0000
21
1489.2308
0
LINE
8
PARAMETRIX
10
640.0000
20
1489.2308
11
640.0000
21
1486.6923
0
LINE
8
PARAMETRIX
10
660.0000
20
1503.6154
11
680.0000
21
1503.6154
0
LINE
8
PARAMETRIX
10
680.0000
20
1503.6154
11
680.0000
21
1506.1538
0
LINE
8
PARAMETRIX
10
680.0000
20
1506.1538
11
660.0000
21
1506.1538
0
LINE
8
PARAMETRIX
10
660.0000
20
1506.1538
11
660.0000
21
1503.6154
0
LINE
8
PARAMETRIX
10
680.0000
20
1520.5385
11
700.0000
21
1520.5385
0
LINE
8
PARAMETRIX
10
700.0000
20
1520.5385
11
700.0000
21
1523.0769
0
LINE
8
PARAMETRIX
10
700.0000
20
1523.0769
11
680.0000
21
1523.0769
0
LINE
8
PARAMETRIX
10
680.0000
20
1523.0769
11
680.0000
21
1520.5385
0
LINE
8
PARAMETRIX
10
700.0000
20
1537.4615
11
780.0000
21
1537.4615
0
LINE
8
PARAMETRIX
10
780.0000
20
1537.4615
11
780.0000
21
1540.0000
0
LINE
8
PARAMETRIX
10
780.0000
20
1540.0000
11
700.0000
21
1540.0000
0
LINE
8
PARAMETRIX
10
700.0000
20
1540.0000
11
700.0000
21
1537.4615
0
ENDSEC
0
EOF
