0
SECTION
2
ENTITIES
0
LINE
8
PARAMETRIX
10
460.0000
20
420.5385
11
480.0000
21
420.5385
0
LINE
8
PARAMETRIX
10
480.0000
20
420.5385
11
480.0000
21
423.0769
0
LINE
8
PARAMETRIX
10
480.0000
20
423.0769
11
460.0000
21
423.0769
0
LINE
8
PARAMETRIX
10
460.0000
20
423.0769
11
460.0000
21
420.5385
0
LINE
8
PARAMETRIX
10
480.0000
20
403.6154
11
500.0000
21
403.6154
0
LINE
8
PARAMETRIX
10
500.0000
20
403.6154
11
500.0000
21
406.1538
0
LINE
8
PARAMETRIX
10
500.0000
20
406.1538
11
480.0000
21
406.1538
0
LINE
8
PARAMETRIX
10
480.0000
20
406.1538
11
480.0000
21
403.6154
0
LINE
8
PARAMETRIX
10
500.0000
20
386.6923
11
520.0000
21
386.6923
0
LINE
8
PARAMETRIX
10
520.0000
20
386.6923
11
520.0000
21
389.2308
0
LINE
8
PARAMETRIX
10
520.0000
20
389.2308
11
500.0000
21
389.2308
0
LINE
8
PARAMETRIX
10
500.0000
20
389.2308
11
500.0000
21
386.6923
0
LINE
8
PARAMETRIX
10
520.0000
20
369.7692
11
540.0000
21
369.7692
0
LINE
8
PARAMETRIX
10
540.0000
20
369.7692
11
540.0000
21
372.3077
0
LINE
8
PARAMETRIX
10
540.0000
20
372.3077
11
520.0000
21
372.3077
0
LINE
8
PARAMETRIX
10
520.0000
20
372.3077
11
520.0000
21
369.7692
0
LINE
8
PARAMETRIX
10
540.0000
20
352.8462
11
560.0000
21
352.8462
0
LINE
8
PARAMETRIX
10
560.0000
20
352.8462
11
560.0000
21
355.3846
0
LINE
8
PARAMETRIX
10
560.0000
20
355.3846
11
540.0000
21
355.3846
0
LINE
8
PARAMETRIX
10
540.0000
20
355.3846
11
540.0000
21
352.8462
0
LINE
8
PARAMETRIX
10
560.0000
20
335.9231
11
580.0000
21
335.9231
0
LINE
8
PARAMETRIX
10
580.0000
20
335.9231
11
580.0000
21
338.4615
0
LINE
8
PARAMETRIX
10
580.0000
20
338.4615
11
560.0000
21
338.4615
0
LINE
8
PARAMETRIX
10
560.0000
20
338.4615
11
560.0000
21
335.9231
0
LINE
8
PARAMETRIX
10
580.0000
20
319.0000
11
600.0000
21
319.0000
0
LINE
8
PARAMETRIX
10
600.0000
20
319.0000
11
600.0000
21
321.5385
0
LINE
8
PARAMETRIX
10
600.0000
20
321.5385
11
580.0000
21
321.5385
0
LINE
8
PARAMETRIX
10
580.0000
20
321.5385
11
580.0000
21
319.0000
0
LINE
8
PARAMETRIX
10
600.0000
20
302.0769
11
620.0000
21
302.0769
0
LINE
8
PARAMETRIX
10
620.0000
20
302.0769
11
620.0000
21
304.6154
0
LINE
8
PARAMETRIX
10
620.0000
20
304.6154
11
600.0000
21
304.6154
0
LINE
8
PARAMETRIX
10
600.0000
20
304.6154
11
600.0000
21
302.0769
0
LINE
8
PARAMETRIX
10
620.0000
20
285.1538
11
640.0000
21
285.1538
0
LINE
8
PARAMETRIX
10
640.0000
20
285.1538
11
640.0000
21
287.6923
0
LINE
8
PARAMETRIX
10
640.0000
20
287.6923
11
620.0000
21
287.6923
0
LINE
8
PARAMETRIX
10
620.0000
20
287.6923
11
620.0000
21
285.1538
0
LINE
8
PARAMETRIX
10
640.0000
20
268.2308
11
660.0000
21
268.2308
0
LINE
8
PARAMETRIX
10
660.0000
20
268.2308
11
660.0000
21
270.7692
0
LINE
8
PARAMETRIX
10
660.0000
20
270.7692
11
640.0000
21
270.7692
0
LINE
8
PARAMETRIX
10
640.0000
20
270.7692
11
640.0000
21
268.2308
0
LINE
8
PARAMETRIX
10
660.0000
20
251.3077
11
680.0000
21
251.3077
0
LINE
8
PARAMETRIX
10
680.0000
20
251.3077
11
680.0000
21
253.8462
0
LINE
8
PARAMETRIX
10
680.0000
20
253.8462
11
660.0000
21
253.8462
0
LINE
8
PARAMETRIX
10
660.0000
20
253.8462
11
660.0000
21
251.3077
0
LINE
8
PARAMETRIX
10
680.0000
20
234.3846
11
700.0000
21
234.3846
0
LINE
8
PARAMETRIX
10
700.0000
20
234.3846
11
700.0000
21
236.9231
0
LINE
8
PARAMETRIX
10
700.0000
20
236.9231
11
680.0000
21
236.9231
0
LINE
8
PARAMETRIX
10
680.0000
20
236.9231
11
680.0000
21
234.3846
0
LINE
8
PARAMETRIX
10
340.0000
20
454.3846
11
360.0000
21
454.3846
0
LINE
8
PARAMETRIX
10
360.0000
20
454.3846
11
360.0000
21
456.9231
0
LINE
8
PARAMETRIX
10
360.0000
20
456.9231
11
340.0000
21
456.9231
0
LINE
8
PARAMETRIX
10
340.0000
20
456.9231
11
340.0000
21
454.3846
0
LINE
8
PARAMETRIX
10
320.0000
20
471.3077
11
340.0000
21
471.3077
0
LINE
8
PARAMETRIX
10
340.0000
20
471.3077
11
340.0000
21
473.8462
0
LINE
8
PARAMETRIX
10
340.0000
20
473.8462
11
320.0000
21
473.8462
0
LINE
8
PARAMETRIX
10
320.0000
20
473.8462
11
320.0000
21
471.3077
0
LINE
8
PARAMETRIX
10
300.0000
20
488.2308
11
320.0000
21
488.2308
0
LINE
8
PARAMETRIX
10
320.0000
20
488.2308
11
320.0000
21
490.7692
0
LINE
8
PARAMETRIX
10
320.0000
20
490.7692
11
300.0000
21
490.7692
0
LINE
8
PARAMETRIX
10
300.0000
20
490.7692
11
300.0000
21
488.2308
0
LINE
8
PARAMETRIX
10
280.0000
20
505.1538
11
300.0000
21
505.1538
0
LINE
8
PARAMETRIX
10
300.0000
20
505.1538
11
300.0000
21
507.6923
0
LINE
8
PARAMETRIX
10
300.0000
20
507.6923
11
280.0000
21
507.6923
0
LINE
8
PARAMETRIX
10
280.0000
20
507.6923
11
280.0000
21
505.1538
0
LINE
8
PARAMETRIX
10
260.0000
20
522.0769
11
280.0000
21
522.0769
0
LINE
8
PARAMETRIX
10
280.0000
20
522.0769
11
280.0000
21
524.6154
0
LINE
8
PARAMETRIX
10
280.0000
20
524.6154
11
260.0000
21
524.6154
0
LINE
8
PARAMETRIX
10
260.0000
20
524.6154
11
260.0000
21
522.0769
0
LINE
8
PARAMETRIX
10
240.0000
20
539.0000
11
260.0000
21
539.0000
0
LINE
8
PARAMETRIX
10
260.0000
20
539.0000
11
260.0000
21
541.5385
0
LINE
8
PARAMETRIX
10
260.0000
20
541.5385
11
240.0000
21
541.5385
0
LINE
8
PARAMETRIX
10
240.0000
20
541.5385
11
240.0000
21
539.0000
0
LINE
8
PARAMETRIX
10
220.0000
20
555.9231
11
240.0000
21
555.9231
0
LINE
8
PARAMETRIX
10
240.0000
20
555.9231
11
240.0000
21
558.4615
0
LINE
8
PARAMETRIX
10
240.0000
20
558.4615
11
220.0000
21
558.4615
0
LINE
8
PARAMETRIX
10
220.0000
20
558.4615
11
220.0000
21
555.9231
0
LINE
8
PARAMETRIX
10
200.0000
20
572.8462
11
220.0000
21
572.8462
0
LINE
8
PARAMETRIX
10
220.0000
20
572.8462
11
220.0000
21
575.3846
0
LINE
8
PARAMETRIX
10
220.0000
20
575.3846
11
200.0000
21
575.3846
0
LINE
8
PARAMETRIX
10
200.0000
20
575.3846
11
200.0000
21
572.8462
0
LINE
8
PARAMETRIX
10
180.0000
20
589.7692
11
200.0000
21
589.7692
0
LINE
8
PARAMETRIX
10
200.0000
20
589.7692
11
200.0000
21
592.3077
0
LINE
8
PARAMETRIX
10
200.0000
20
592.3077
11
180.0000
21
592.3077
0
LINE
8
PARAMETRIX
10
180.0000
20
592.3077
11
180.0000
21
589.7692
0
LINE
8
PARAMETRIX
10
160.0000
20
606.6923
11
180.0000
21
606.6923
0
LINE
8
PARAMETRIX
10
180.0000
20
606.6923
11
180.0000
21
609.2308
0
LINE
8
PARAMETRIX
10
180.0000
20
609.2308
11
160.0000
21
609.2308
0
LINE
8
PARAMETRIX
10
160.0000
20
609.2308
11
160.0000
21
606.6923
0
LINE
8
PARAMETRIX
10
140.0000
20
623.6154
11
160.0000
21
623.6154
0
LINE
8
PARAMETRIX
10
160.0000
20
623.6154
11
160.0000
21
626.1538
0
LINE
8
PARAMETRIX
10
160.0000
20
626.1538
11
140.0000
21
626.1538
0
LINE
8
PARAMETRIX
10
140.0000
20
626.1538
11
140.0000
21
623.6154
0
LINE
8
PARAMETRIX
10
120.0000
20
640.5385
11
140.0000
21
640.5385
0
LINE
8
PARAMETRIX
10
140.0000
20
640.5385
11
140.0000
21
643.0769
0
LINE
8
PARAMETRIX
10
140.0000
20
643.0769
11
120.0000
21
643.0769
0
LINE
8
PARAMETRIX
10
120.0000
20
643.0769
11
120.0000
21
640.5385
0
LINE
8
PARAMETRIX
10
40.0000
20
657.4615
11
120.0000
21
657.4615
0
LINE
8
PARAMETRIX
10
120.0000
20
657.4615
11
120.0000
21
660.0000
0
LINE
8
PARAMETRIX
10
120.0000
20
660.0000
11
40.0000
21
660.0000
0
LINE
8
PARAMETRIX
10
40.0000
20
660.0000
11
40.0000
21
657.4615
0
LINE
8
PARAMETRIX
10
460.0000
20
2180.5385
11
480.0000
21
2180.5385
0
LINE
8
PARAMETRIX
10
480.0000
20
2180.5385
11
480.0000
21
2183.0769
0
LINE
8
PARAMETRIX
10
480.0000
20
2183.0769
11
460.0000
21
2183.0769
0
LINE
8
PARAMETRIX
10
460.0000
20
2183.0769
11
460.0000
21
2180.5385
0
LINE
8
PARAMETRIX
10
480.0000
20
2163.6154
11
500.0000
21
2163.6154
0
LINE
8
PARAMETRIX
10
500.0000
20
2163.6154
11
500.0000
21
2166.1538
0
LINE
8
PARAMETRIX
10
500.0000
20
2166.1538
11
480.0000
21
2166.1538
0
LINE
8
PARAMETRIX
10
480.0000
20
2166.1538
11
480.0000
21
2163.6154
0
LINE
8
PARAMETRIX
10
500.0000
20
2146.6923
11
520.0000
21
2146.6923
0
LINE
8
PARAMETRIX
10
520.0000
20
2146.6923
11
520.0000
21
2149.2308
0
LINE
8
PARAMETRIX
10
520.0000
20
2149.2308
11
500.0000
21
2149.2308
0
LINE
8
PARAMETRIX
10
500.0000
20
2149.2308
11
500.0000
21
2146.6923
0
LINE
8
PARAMETRIX
10
520.0000
20
2129.7692
11
540.0000
21
2129.7692
0
LINE
8
PARAMETRIX
10
540.0000
20
2129.7692
11
540.0000
21
2132.3077
0
LINE
8
PARAMETRIX
10
540.0000
20
2132.3077
11
520.0000
21
2132.3077
0
LINE
8
PARAMETRIX
10
520.0000
20
2132.3077
11
520.0000
21
2129.7692
0
LINE
8
PARAMETRIX
10
540.0000
20
2112.8462
11
560.0000
21
2112.8462
0
LINE
8
PARAMETRIX
10
560.0000
20
2112.8462
11
560.0000
21
2115.3846
0
LINE
8
PARAMETRIX
10
560.0000
20
2115.3846
11
540.0000
21
2115.3846
0
LINE
8
PARAMETRIX
10
540.0000
20
2115.3846
11
540.0000
21
2112.8462
0
LINE
8
PARAMETRIX
10
560.0000
20
2095.9231
11
580.0000
21
2095.9231
0
LINE
8
PARAMETRIX
10
580.0000
20
2095.9231
11
580.0000
21
2098.4615
0
LINE
8
PARAMETRIX
10
580.0000
20
2098.4615
11
560.0000
21
2098.4615
0
LINE
8
PARAMETRIX
10
560.0000
20
2098.4615
11
560.0000
21
2095.9231
0
LINE
8
PARAMETRIX
10
580.0000
20
2079.0000
11
600.0000
21
2079.0000
0
LINE
8
PARAMETRIX
10
600.0000
20
2079.0000
11
600.0000
21
2081.5385
0
LINE
8
PARAMETRIX
10
600.0000
20
2081.5385
11
580.0000
21
2081.5385
0
LINE
8
PARAMETRIX
10
580.0000
20
2081.5385
11
580.0000
21
2079.0000
0
LINE
8
PARAMETRIX
10
600.0000
20
2062.0769
11
620.0000
21
2062.0769
0
LINE
8
PARAMETRIX
10
620.0000
20
2062.0769
11
620.0000
21
2064.6154
0
LINE
8
PARAMETRIX
10
620.0000
20
2064.6154
11
600.0000
21
2064.6154
0
LINE
8
PARAMETRIX
10
600.0000
20
2064.6154
11
600.0000
21
2062.0769
0
LINE
8
PARAMETRIX
10
620.0000
20
2045.1538
11
640.0000
21
2045.1538
0
LINE
8
PARAMETRIX
10
640.0000
20
2045.1538
11
640.0000
21
2047.6923
0
LINE
8
PARAMETRIX
10
640.0000
20
2047.6923
11
620.0000
21
2047.6923
0
LINE
8
PARAMETRIX
10
620.0000
20
2047.6923
11
620.0000
21
2045.1538
0
LINE
8
PARAMETRIX
10
640.0000
20
2028.2308
11
660.0000
21
2028.2308
0
LINE
8
PARAMETRIX
10
660.0000
20
2028.2308
11
660.0000
21
2030.7692
0
LINE
8
PARAMETRIX
10
660.0000
20
2030.7692
11
640.0000
21
2030.7692
0
LINE
8
PARAMETRIX
10
640.0000
20
2030.7692
11
640.0000
21
2028.2308
0
LINE
8
PARAMETRIX
10
660.0000
20
2011.3077
11
680.0000
21
2011.3077
0
LINE
8
PARAMETRIX
10
680.0000
20
2011.3077
11
680.0000
21
2013.8462
0
LINE
8
PARAMETRIX
10
680.0000
20
2013.8462
11
660.0000
21
2013.8462
0
LINE
8
PARAMETRIX
10
660.0000
20
2013.8462
11
660.0000
21
2011.3077
0
LINE
8
PARAMETRIX
10
680.0000
20
1994.3846
11
700.0000
21
1994.3846
0
LINE
8
PARAMETRIX
10
700.0000
20
1994.3846
11
700.0000
21
1996.9231
0
LINE
8
PARAMETRIX
10
700.0000
20
1996.9231
11
680.0000
21
1996.9231
0
LINE
8
PARAMETRIX
10
680.0000
20
1996.9231
11
680.0000
21
1994.3846
0
ENDSEC
0
EOF
