<svg width="6170" height="2540" viewBox="-3108 173 6170 2540" xmlns="http://www.w3.org/2000/svg"><path d="M -2458.5786 2300.0000 L -1100.0000 2300.0000 L -1100.0000 2600.0000 L 1100.0000 2600.0000 L 1100.0000 2300.0000 L 2458.5786 2300.0000 A 100.0000 100.0000 0 0 0 2529.2893 2270.7107 L 2770.7107 2029.2893 A 100.0000 100.0000 0 0 0 2800.0000 1958.5786 L 2800.0000 1525.0404 A 100.0000 100.0000 0 0 0 2787.9451 1477.4414 A 2406.2500 2406.2500 0 0 0 1313.2301 303.6188 A 100.0000 100.0000 0 0 0 1286.5719 300.0000 L -1286.5719 300.0000 A 100.0000 100.0000 0 0 0 -1313.2301 303.6188 A 2406.2500 2406.2500 0 0 0 -2787.9451 1477.4414 A 100.0000 100.0000 0 0 0 -2800.0000 1525.0404 L -2800.0000 1958.5786 A 100.0000 100.0000 0 0 0 -2770.7107 2029.2893 L -2529.2893 2270.7107 A 100.0000 100.0000 0 0 0 -2458.5786 2300.0000 Z" stroke="green" stroke-width="1" fill="none" /><path d="M -2458.5786 2290.0000 L 2458.5786 2290.0000 A 90.0000 90.0000 0 0 0 2522.2183 2263.6396 L 2763.6396 2022.2183 A 90.0000 90.0000 0 0 0 2790.0000 1958.5786 L 2790.0000 1526.6191 A 90.0000 90.0000 0 0 0 2779.2262 1483.9200 A 2386.8175 2386.8175 0 0 0 1306.9541 313.8139 A 90.0000 90.0000 0 0 0 1283.2431 310.6343 L -1283.2431 310.6343 A 90.0000 90.0000 0 0 0 -1306.9541 313.8139 A 2386.8175 2386.8175 0 0 0 -2779.2262 1483.9200 A 90.0000 90.0000 0 0 0 -2790.0000 1526.6191 L -2790.0000 1958.5786 A 90.0000 90.0000 0 0 0 -2763.6396 2022.2183 L -2522.2183 2263.6396 A 90.0000 90.0000 0 0 0 -2458.5786 2290.0000 Z" stroke="green" stroke-width="1" fill="none" /><path d="M -1090.0000 2590.0000 L 1090.0000 2590.0000 L 1090.0000 2300.0000 L -1090.0000 2300.0000 L -1090.0000 2590.0000 Z" stroke="green" stroke-width="1" fill="none" /></svg>