0
SECTION
2
ENTITIES
0
LINE
8
PARAMETRIX
10
-2458.5786
20
600.0000
11
-1100.0000
21
600.0000
0
LINE
8
PARAMETRIX
10
-1100.0000
20
600.0000
11
-1100.0000
21
300.0000
0
LINE
8
PARAMETRIX
10
-1100.0000
20
300.0000
11
1100.0000
21
300.0000
0
LINE
8
PARAMETRIX
10
1100.0000
20
300.0000
11
1100.0000
21
600.0000
0
LINE
8
PARAMETRIX
10
1100.0000
20
600.0000
11
2458.5786
21
600.0000
0
ARC
8
PARAMETRIX
10
2458.5786
20
700.0000
40
100.0000
50
270.0000
51
315.0000
0
LINE
8
PARAMETRIX
10
2529.2893
20
629.2893
11
2770.7107
21
870.7107
0
ARC
8
PARAMETRIX
10
2700.0000
20
941.4214
40
100.0000
50
315.0000
51
0.0000
0
LINE
8
PARAMETRIX
10
2800.0000
20
941.4214
11
2800.0000
21
1374.9596
0
ARC
8
PARAMETRIX
10
2700.0000
20
1374.9596
40
100.0000
50
0.0000
51
28.4238
0
ARC
8
PARAMETRIX
10
671.7666
20
277.2082
40
2406.2500
50
28.4238
51
74.5390
0
ARC
8
PARAMETRIX
10
1286.5719
20
2500.0000
40
100.0000
50
74.5390
51
90.0000
0
LINE
8
PARAMETRIX
10
1286.5719
20
2600.0000
11
-1286.5719
21
2600.0000
0
ARC
8
PARAMETRIX
10
-1286.5719
20
2500.0000
40
100.0000
50
90.0000
51
105.4610
0
ARC
8
PARAMETRIX
10
-671.7666
20
277.2082
40
2406.2500
50
105.4610
51
151.5762
0
ARC
8
PARAMETRIX
10
-2700.0000
20
1374.9596
40
100.0000
50
151.5762
51
180.0000
0
LINE
8
PARAMETRIX
10
-2800.0000
20
1374.9596
11
-2800.0000
21
941.4214
0
ARC
8
PARAMETRIX
10
-2700.0000
20
941.4214
40
100.0000
50
180.0000
51
225.0000
0
LINE
8
PARAMETRIX
10
-2770.7107
20
870.7107
11
-2529.2893
21
629.2893
0
ARC
8
PARAMETRIX
10
-2458.5786
20
700.0000
40
100.0000
50
225.0000
51
270.0000
0
LINE
8
PARAMETRIX
10
-2458.5786
20
610.0000
11
2458.5786
21
610.0000
0
ARC
8
PARAMETRIX
10
2458.5786
20
700.0000
40
90.0000
50
270.0000
51
315.0000
0
LINE
8
PARAMETRIX
10
2522.2183
20
636.3604
11
2763.6396
21
877.7817
0
ARC
8
PARAMETRIX
10
2700.0000
20
941.4214
40
90.0000
50
315.0000
51
360.0000
0
LINE
8
PARAMETRIX
10
2790.0000
20
941.4214
11
2790.0000
21
1373.3809
0
ARC
8
PARAMETRIX
10
2700.0000
20
1373.3809
40
90.0000
50
360.0000
51
28.3225
0
ARC
8
PARAMETRIX
10
678.1326
20
283.6915
40
2386.8175
50
28.3225
51
74.7248
0
ARC
8
PARAMETRIX
10
1283.2431
20
2499.3657
40
90.0000
50
74.7248
51
90.0000
0
LINE
8
PARAMETRIX
10
1283.2431
20
2589.3657
11
-1283.2431
21
2589.3657
0
ARC
8
PARAMETRIX
10
-1283.2431
20
2499.3657
40
90.0000
50
90.0000
51
105.2752
0
ARC
8
PARAMETRIX
10
-678.1326
20
283.6915
40
2386.8175
50
105.2752
51
151.6775
0
ARC
8
PARAMETRIX
10
-2700.0000
20
1373.3809
40
90.0000
50
151.6775
51
180.0000
0
LINE
8
PARAMETRIX
10
-2790.0000
20
1373.3809
11
-2790.0000
21
941.4214
0
ARC
8
PARAMETRIX
10
-2700.0000
20
941.4214
40
90.0000
50
180.0000
51
225.0000
0
LINE
8
PARAMETRIX
10
-2763.6396
20
877.7817
11
-2522.2183
21
636.3604
0
ARC
8
PARAMETRIX
10
-2458.5786
20
700.0000
40
90.0000
50
225.0000
51
270.0000
0
LINE
8
PARAMETRIX
10
-1090.0000
20
310.0000
11
1090.0000
21
310.0000
0
LINE
8
PARAMETRIX
10
1090.0000
20
310.0000
11
1090.0000
21
600.0000
0
LINE
8
PARAMETRIX
10
1090.0000
20
600.0000
11
-1090.0000
21
600.0000
0
LINE
8
PARAMETRIX
10
-1090.0000
20
600.0000
11
-1090.0000
21
310.0000
0
ENDSEC
0
EOF
