<svg width="1770" height="1110" viewBox="-888 -555 1770 1110" xmlns="http://www.w3.org/2000/svg"><path d="M -800.0000 75.0000 A 425.0000 425.0000 0 0 0 -375.0000 500.0000 L 375.0000 500.0000 A 425.0000 425.0000 0 0 0 800.0000 75.0000 L 800.0000 -75.0000 A 425.0000 425.0000 0 0 0 375.0000 -500.0000 L -375.0000 -500.0000 A 425.0000 425.0000 0 0 0 -800.0000 -75.0000 L -800.0000 75.0000 Z" stroke="green" stroke-width="1" fill="none" /><path d="M -790.0000 75.0000 A 415.0000 415.0000 0 0 0 -375.0000 490.0000 L 375.0000 490.0000 A 415.0000 415.0000 0 0 0 790.0000 75.0000 L 790.0000 -75.0000 A 415.0000 415.0000 0 0 0 375.0000 -490.0000 L -375.0000 -490.0000 A 415.0000 415.0000 0 0 0 -790.0000 -75.0000 L -790.0000 75.0000 Z" stroke="green" stroke-width="1" fill="none" /></svg>