0
SECTION
2
ENTITIES
0
LINE
8
PARAMETRIX
10
-2458.5786
20
600.0000
11
2458.5786
21
600.0000
0
ARC
8
PARAMETRIX
10
2458.5786
20
700.0000
40
100.0000
50
270.0000
51
315.0000
0
LINE
8
PARAMETRIX
10
2529.2893
20
629.2893
11
2770.7107
21
870.7107
0
ARC
8
PARAMETRIX
10
2700.0000
20
941.4214
40
100.0000
50
315.0000
51
0.0000
0
LINE
8
PARAMETRIX
10
2800.0000
20
941.4214
11
2800.0000
21
1374.9596
0
ARC
8
PARAMETRIX
10
2700.0000
20
1374.9596
40
100.0000
50
0.0000
51
28.4238
0
ARC
8
PARAMETRIX
10
671.7666
20
277.2082
40
2406.2500
50
28.4238
51
74.5390
0
ARC
8
PARAMETRIX
10
1286.5719
20
2500.0000
40
100.0000
50
74.5390
51
90.0000
0
LINE
8
PARAMETRIX
10
1286.5719
20
2600.0000
11
-1286.5719
21
2600.0000
0
ARC
8
PARAMETRIX
10
-1286.5719
20
2500.0000
40
100.0000
50
90.0000
51
105.4610
0
ARC
8
PARAMETRIX
10
-671.7666
20
277.2082
40
2406.2500
50
105.4610
51
151.5762
0
ARC
8
PARAMETRIX
10
-2700.0000
20
1374.9596
40
100.0000
50
151.5762
51
180.0000
0
LINE
8
PARAMETRIX
10
-2800.0000
20
1374.9596
11
-2800.0000
21
941.4214
0
ARC
8
PARAMETRIX
10
-2700.0000
20
941.4214
40
100.0000
50
180.0000
51
225.0000
0
LINE
8
PARAMETRIX
10
-2770.7107
20
870.7107
11
-2529.2893
21
629.2893
0
ARC
8
PARAMETRIX
10
-2458.5786
20
700.0000
40
100.0000
50
225.0000
51
270.0000
0
ARC
8
PARAMETRIX
10
732.3199
20
339.5474
40
2215.8948
50
31.9291
51
76.1198
0
ARC
8
PARAMETRIX
10
1239.9077
20
2393.6567
40
100.0000
50
76.1198
51
90.0000
0
LINE
8
PARAMETRIX
10
1239.9077
20
2493.6567
11
851.9375
21
2493.6567
0
ARC
8
PARAMETRIX
10
851.9375
20
2393.6567
40
100.0000
50
90.0000
51
180.0000
0
LINE
8
PARAMETRIX
10
751.9375
20
2393.6567
11
751.9375
21
1458.5786
0
ARC
8
PARAMETRIX
10
851.9375
20
1458.5786
40
100.0000
50
180.0000
51
270.0000
0
LINE
8
PARAMETRIX
10
851.9375
20
1358.5786
11
2528.0871
21
1358.5786
0
ARC
8
PARAMETRIX
10
2528.0871
20
1458.5786
40
100.0000
50
270.0000
51
31.9291
0
ARC
8
PARAMETRIX
10
-732.3199
20
339.5474
40
2215.8948
50
103.8802
51
148.0709
0
ARC
8
PARAMETRIX
10
-1239.9077
20
2393.6567
40
100.0000
50
90.0000
51
103.8802
0
LINE
8
PARAMETRIX
10
-1239.9077
20
2493.6567
11
-851.9375
21
2493.6567
0
ARC
8
PARAMETRIX
10
-851.9375
20
2393.6567
40
100.0000
50
0.0000
51
90.0000
0
LINE
8
PARAMETRIX
10
-751.9375
20
2393.6567
11
-751.9375
21
1458.5786
0
ARC
8
PARAMETRIX
10
-851.9375
20
1458.5786
40
100.0000
50
270.0000
51
0.0000
0
LINE
8
PARAMETRIX
10
-851.9375
20
1358.5786
11
-2528.0871
21
1358.5786
0
ARC
8
PARAMETRIX
10
-2528.0871
20
1458.5786
40
100.0000
50
148.0709
51
270.0000
0
LINE
8
PARAMETRIX
10
-251.9375
20
1200.0000
11
251.9375
21
1200.0000
0
ARC
8
PARAMETRIX
10
251.9375
20
1300.0000
40
100.0000
50
270.0000
51
0.0000
0
LINE
8
PARAMETRIX
10
351.9375
20
1300.0000
11
351.9375
21
2100.0000
0
ARC
8
PARAMETRIX
10
251.9375
20
2100.0000
40
100.0000
50
0.0000
51
90.0000
0
LINE
8
PARAMETRIX
10
251.9375
20
2200.0000
11
-251.9375
21
2200.0000
0
ARC
8
PARAMETRIX
10
-251.9375
20
2100.0000
40
100.0000
50
90.0000
51
180.0000
0
LINE
8
PARAMETRIX
10
-351.9375
20
2100.0000
11
-351.9375
21
1300.0000
0
ARC
8
PARAMETRIX
10
-251.9375
20
1300.0000
40
100.0000
50
180.0000
51
270.0000
0
ENDSEC
0
EOF
