<svg width="6170" height="2210" viewBox="-3108 490 6170 2210" xmlns="http://www.w3.org/2000/svg"><path d="M -2458.5786 2600.0000 L 2458.5786 2600.0000 A 100.0000 100.0000 0 0 0 2529.2893 2570.7107 L 2770.7107 2329.2893 A 100.0000 100.0000 0 0 0 2800.0000 2258.5786 L 2800.0000 1825.0404 A 100.0000 100.0000 0 0 0 2787.9451 1777.4414 A 2406.2500 2406.2500 0 0 0 1313.2301 603.6188 A 100.0000 100.0000 0 0 0 1286.5719 600.0000 L -1286.5719 600.0000 A 100.0000 100.0000 0 0 0 -1313.2301 603.6188 A 2406.2500 2406.2500 0 0 0 -2787.9451 1777.4414 A 100.0000 100.0000 0 0 0 -2800.0000 1825.0404 L -2800.0000 2258.5786 A 100.0000 100.0000 0 0 0 -2770.7107 2329.2893 L -2529.2893 2570.7107 A 100.0000 100.0000 0 0 0 -2458.5786 2600.0000 Z" stroke="green" stroke-width="1" fill="none" /><path d="M 2612.9574 1688.5345 A 2215.8948 2215.8948 0 0 0 1263.8970 709.2633 A 100.0000 100.0000 0 0 0 1239.9077 706.3433 L 851.9375 706.3433 A 100.0000 100.0000 0 0 0 751.9375 806.3433 L 751.9375 1741.4214 A 100.0000 100.0000 0 0 0 851.9375 1841.4214 L 2528.0871 1841.4214 A 100.0000 100.0000 0 0 0 2612.9574 1688.5345 Z" stroke="green" stroke-width="1" fill="none" /><path d="M -2612.9574 1688.5345 A 2215.8948 2215.8948 0 0 1 -1263.8970 709.2633 A 100.0000 100.0000 0 0 1 -1239.9077 706.3433 L -851.9375 706.3433 A 100.0000 100.0000 0 0 1 -751.9375 806.3433 L -751.9375 1741.4214 A 100.0000 100.0000 0 0 1 -851.9375 1841.4214 L -2528.0871 1841.4214 A 100.0000 100.0000 0 0 1 -2612.9574 1688.5345 Z" stroke="green" stroke-width="1" fill="none" /><path d="M -251.9375 2000.0000 L 251.9375 2000.0000 A 100.0000 100.0000 0 0 0 351.9375 1900.0000 L 351.9375 1100.0000 A 100.0000 100.0000 0 0 0 251.9375 1000.0000 L -251.9375 1000.0000 A 100.0000 100.0000 0 0 0 -351.9375 1100.0000 L -351.9375 1900.0000 A 100.0000 100.0000 0 0 0 -251.9375 2000.0000 Z" stroke="green" stroke-width="1" fill="none" /></svg>