<svg width="505" height="330" viewBox="-235 -106 505 330" xmlns="http://www.w3.org/2000/svg"><path d="M 87.3007 73.4092 A 20.0000 20.0000 0 1 0 97.5613 101.6000 L 213.6532 59.3460 A 20.0000 20.0000 0 1 0 203.3926 31.1552 L 87.3007 73.4092 Z" stroke="green" stroke-width="1" fill="none" /><circle cx="80.0000" cy="92.0291" r="10.0000" stroke="green" stroke-width="1" fill="none" /><circle cx="220.9539" cy="40.7261" r="10.0000" stroke="green" stroke-width="1" fill="none" /><path d="M 87.3007 -46.5908 A 20.0000 20.0000 0 1 0 97.5613 -18.4000 L 213.6532 -60.6540 A 20.0000 20.0000 0 1 0 203.3926 -88.8448 L 87.3007 -46.5908 Z" stroke="green" stroke-width="1" fill="none" /><circle cx="80.0000" cy="-27.9709" r="10.0000" stroke="green" stroke-width="1" fill="none" /><circle cx="220.9539" cy="-79.2739" r="10.0000" stroke="green" stroke-width="1" fill="none" /><path d="M -80.4920 112.0231 A 20.0000 20.0000 0 1 0 -99.7756 89.0417 L -194.4147 168.4533 A 20.0000 20.0000 0 1 0 -175.1310 191.4347 L -80.4920 112.0231 Z" stroke="green" stroke-width="1" fill="none" /><circle cx="-80.0000" cy="92.0291" r="10.0000" stroke="green" stroke-width="1" fill="none" /><circle cx="-194.9067" cy="188.4473" r="10.0000" stroke="green" stroke-width="1" fill="none" /><path d="M -80.4920 -7.9769 A 20.0000 20.0000 0 1 0 -99.7756 -30.9583 L -194.4147 48.4533 A 20.0000 20.0000 0 1 0 -175.1310 71.4347 L -80.4920 -7.9769 Z" stroke="green" stroke-width="1" fill="none" /><circle cx="-80.0000" cy="-27.9709" r="10.0000" stroke="green" stroke-width="1" fill="none" /><circle cx="-194.9067" cy="68.4473" r="10.0000" stroke="green" stroke-width="1" fill="none" /></svg>