<svg width="291" height="1570" viewBox="257 -17 291 1570" xmlns="http://www.w3.org/2000/svg"><path d="M 366.3474 1291.6093 A 90.0000 90.0000 0 0 0 355.5604 1471.2858 L 495.3088 1479.6756 L 506.0958 1299.9992 L 366.3474 1291.6093 Z" stroke="green" stroke-width="1" fill="none" /><circle cx="360.9539" cy="1381.4475" r="20.0000" stroke="green" stroke-width="1" fill="none" /><path d="M 376.5846 982.8153 A 90.0000 90.0000 0 0 0 345.3232 1160.0798 L 483.1957 1184.3942 L 514.4570 1007.1296 L 376.5846 982.8153 Z" stroke="green" stroke-width="1" fill="none" /><circle cx="360.9539" cy="1071.4475" r="20.0000" stroke="green" stroke-width="1" fill="none" /><path d="M 386.2340 675.0709 A 90.0000 90.0000 0 0 0 335.6738 847.8242 L 470.0374 887.1487 L 520.5976 714.3955 L 386.2340 675.0709 Z" stroke="green" stroke-width="1" fill="none" /><circle cx="360.9539" cy="761.4475" r="20.0000" stroke="green" stroke-width="1" fill="none" /><path d="M 395.0237 368.1454 A 90.0000 90.0000 0 0 0 326.8840 534.7497 L 456.4651 587.7472 L 524.6048 421.1430 L 395.0237 368.1454 Z" stroke="green" stroke-width="1" fill="none" /><circle cx="360.9539" cy="451.4475" r="20.0000" stroke="green" stroke-width="1" fill="none" /><path d="M 402.8083 61.7719 A 90.0000 90.0000 0 0 0 319.0995 221.1232 L 443.0394 286.2300 L 526.7482 126.8788 L 402.8083 61.7719 Z" stroke="green" stroke-width="1" fill="none" /><circle cx="360.9539" cy="141.4475" r="20.0000" stroke="green" stroke-width="1" fill="none" /></svg>