<svg width="230" height="1572" viewBox="239 -9 230 1572" xmlns="http://www.w3.org/2000/svg"><path d="M 360.9539 1490.0000 A 90.0000 90.0000 0 0 0 360.9539 1310.0000 L 250.9539 1310.0000 L 250.9539 1490.0000 L 360.9539 1490.0000 Z" stroke="green" stroke-width="1" fill="none" /><circle cx="360.9539" cy="1400.0000" r="20.0000" stroke="green" stroke-width="1" fill="none" /><path d="M 360.9539 1180.0000 A 90.0000 90.0000 0 0 0 360.9539 1000.0000 L 250.9539 1000.0000 L 250.9539 1180.0000 L 360.9539 1180.0000 Z" stroke="green" stroke-width="1" fill="none" /><circle cx="360.9539" cy="1090.0000" r="20.0000" stroke="green" stroke-width="1" fill="none" /><path d="M 360.9539 870.0000 A 90.0000 90.0000 0 0 0 360.9539 690.0000 L 250.9539 690.0000 L 250.9539 870.0000 L 360.9539 870.0000 Z" stroke="green" stroke-width="1" fill="none" /><circle cx="360.9539" cy="780.0000" r="20.0000" stroke="green" stroke-width="1" fill="none" /><path d="M 360.9539 560.0000 A 90.0000 90.0000 0 0 0 360.9539 380.0000 L 250.9539 380.0000 L 250.9539 560.0000 L 360.9539 560.0000 Z" stroke="green" stroke-width="1" fill="none" /><circle cx="360.9539" cy="470.0000" r="20.0000" stroke="green" stroke-width="1" fill="none" /><path d="M 360.9539 250.0000 A 90.0000 90.0000 0 0 0 360.9539 70.0000 L 250.9539 70.0000 L 250.9539 250.0000 L 360.9539 250.0000 Z" stroke="green" stroke-width="1" fill="none" /><circle cx="360.9539" cy="160.0000" r="20.0000" stroke="green" stroke-width="1" fill="none" /></svg>