<svg width="289" height="1624" viewBox="-513 -11 289 1624" xmlns="http://www.w3.org/2000/svg"><path d="M -339.2197 1537.1751 A 90.0000 90.0000 0 0 0 -330.5937 1357.3819 L -470.4328 1350.6728 L -479.0588 1530.4660 L -339.2197 1537.1751 Z" stroke="green" stroke-width="1" fill="none" /><circle cx="-334.9067" cy="1447.2785" r="20.0000" stroke="green" stroke-width="1" fill="none" /><path d="M -347.4666 1226.3978 A 90.0000 90.0000 0 1 0 -322.3468 1048.1592 L -460.9768 1028.6216 L -486.0966 1206.8602 L -347.4666 1226.3978 Z" stroke="green" stroke-width="1" fill="none" /><circle cx="-334.9067" cy="1137.2785" r="20.0000" stroke="green" stroke-width="1" fill="none" /><path d="M -355.4036 914.9134 A 90.0000 90.0000 0 0 0 -314.4098 739.6436 L -450.7307 707.7595 L -491.7245 883.0293 L -355.4036 914.9134 Z" stroke="green" stroke-width="1" fill="none" /><circle cx="-334.9067" cy="827.2785" r="20.0000" stroke="green" stroke-width="1" fill="none" /><path d="M -362.8672 602.8250 A 90.0000 90.0000 0 0 0 -306.9461 431.7319 L -440.0185 388.2378 L -495.9396 559.3309 L -362.8672 602.8250 Z" stroke="green" stroke-width="1" fill="none" /><circle cx="-334.9067" cy="517.2785" r="20.0000" stroke="green" stroke-width="1" fill="none" /><path d="M -369.7436 290.2627 A 90.0000 90.0000 0 0 0 -300.0697 124.2942 L -429.1563 70.1034 L -498.8302 236.0719 L -369.7436 290.2627 Z" stroke="green" stroke-width="1" fill="none" /><circle cx="-334.9067" cy="207.2785" r="20.0000" stroke="green" stroke-width="1" fill="none" /></svg>