<svg width="555" height="348" viewBox="-263 -114 555 348" xmlns="http://www.w3.org/2000/svg"><path d="M 260.9539 63.5819 L 220.9539 63.5819 A 20.0000 20.0000 0 0 1 220.9539 23.5819 L 250.9539 23.5819 L 250.9539 -56.4181 L 220.9539 -56.4181 A 20.0000 20.0000 0 0 1 220.9539 -96.4181 L 260.9539 -96.4181 L 260.9539 63.5819 Z" stroke="green" stroke-width="1" fill="none" /><circle cx="220.9539" cy="43.5819" r="10.0000" stroke="green" stroke-width="1" fill="none" /><circle cx="220.9539" cy="-76.4181" r="10.0000" stroke="green" stroke-width="1" fill="none" /><path d="M -234.9067 211.3030 L -194.9067 211.3030 A 20.0000 20.0000 0 0 0 -194.9067 171.3030 L -224.9067 171.3030 L -224.9067 91.3030 L -194.9067 91.3030 A 20.0000 20.0000 0 0 0 -194.9067 51.3030 L -234.9067 51.3030 L -234.9067 211.3030 Z" stroke="green" stroke-width="1" fill="none" /><circle cx="-194.9067" cy="191.3030" r="10.0000" stroke="green" stroke-width="1" fill="none" /><circle cx="-194.9067" cy="71.3030" r="10.0000" stroke="green" stroke-width="1" fill="none" /></svg>