<svg width="279" height="1281" viewBox="243 18 279 1281" xmlns="http://www.w3.org/2000/svg"><path d="M 289.9067 1082.0577 A 90.0000 90.0000 0 0 0 379.9067 1237.9423 L 501.1502 1167.9423 L 411.1502 1012.0577 L 289.9067 1082.0577 Z" stroke="green" stroke-width="1" fill="none" /><circle cx="334.9067" cy="1160.0000" r="20.0000" stroke="green" stroke-width="1" fill="none" /><path d="M 289.9067 772.0577 A 90.0000 90.0000 0 0 0 379.9067 927.9423 L 501.1502 857.9423 L 411.1502 702.0577 L 289.9067 772.0577 Z" stroke="green" stroke-width="1" fill="none" /><circle cx="334.9067" cy="850.0000" r="20.0000" stroke="green" stroke-width="1" fill="none" /><path d="M 289.9067 462.0577 A 90.0000 90.0000 0 0 0 379.9067 617.9423 L 501.1502 547.9423 L 411.1502 392.0577 L 289.9067 462.0577 Z" stroke="green" stroke-width="1" fill="none" /><circle cx="334.9067" cy="540.0000" r="20.0000" stroke="green" stroke-width="1" fill="none" /><path d="M 289.9067 152.0577 A 90.0000 90.0000 0 0 0 379.9067 307.9423 L 501.1502 237.9423 L 411.1502 82.0577 L 289.9067 152.0577 Z" stroke="green" stroke-width="1" fill="none" /><circle cx="334.9067" cy="230.0000" r="20.0000" stroke="green" stroke-width="1" fill="none" /></svg>