<svg width="279" height="1281" viewBox="-515 -52 279 1281" xmlns="http://www.w3.org/2000/svg"><path d="M -289.9067 1097.9423 A 90.0000 90.0000 0 0 0 -379.9067 942.0577 L -501.1502 1012.0577 L -411.1502 1167.9423 L -289.9067 1097.9423 Z" stroke="green" stroke-width="1" fill="none" /><circle cx="-334.9067" cy="1020.0000" r="20.0000" stroke="green" stroke-width="1" fill="none" /><path d="M -289.9067 787.9423 A 90.0000 90.0000 0 0 0 -379.9067 632.0577 L -501.1502 702.0577 L -411.1502 857.9423 L -289.9067 787.9423 Z" stroke="green" stroke-width="1" fill="none" /><circle cx="-334.9067" cy="710.0000" r="20.0000" stroke="green" stroke-width="1" fill="none" /><path d="M -289.9067 477.9423 A 90.0000 90.0000 0 0 0 -379.9067 322.0577 L -501.1502 392.0577 L -411.1502 547.9423 L -289.9067 477.9423 Z" stroke="green" stroke-width="1" fill="none" /><circle cx="-334.9067" cy="400.0000" r="20.0000" stroke="green" stroke-width="1" fill="none" /><path d="M -289.9067 167.9423 A 90.0000 90.0000 0 1 0 -379.9067 12.0577 L -501.1502 82.0577 L -411.1502 237.9423 L -289.9067 167.9423 Z" stroke="green" stroke-width="1" fill="none" /><circle cx="-334.9067" cy="90.0000" r="20.0000" stroke="green" stroke-width="1" fill="none" /></svg>