<svg width="307" height="69" viewBox="-50 -30 307 69" xmlns="http://www.w3.org/2000/svg"><path d="M 22.5533 -26.7647 A 35.0000 35.0000 0 1 0 22.5533 26.7647 A 50.0000 50.0000 0 0 1 54.7723 15.0000 L 145.2277 15.0000 A 50.0000 50.0000 0 0 1 177.4467 26.7647 A 35.0000 35.0000 0 1 0 177.4467 -26.7647 A 50.0000 50.0000 0 0 1 145.2277 -15.0000 L 54.7723 -15.0000 A 50.0000 50.0000 0 0 1 22.5533 -26.7647 Z" stroke="green" stroke-width="1" fill="none" /><circle cx="0.0000" cy="-0.0000" r="15.0000" stroke="green" stroke-width="1" fill="none" /><circle cx="200.0000" cy="-0.0000" r="15.0000" stroke="green" stroke-width="1" fill="none" /><circle cx="56.5000" cy="-0.0000" r="7.5000" stroke="green" stroke-width="1" fill="none" /><circle cx="85.5000" cy="-0.0000" r="7.5000" stroke="green" stroke-width="1" fill="none" /><circle cx="114.5000" cy="-0.0000" r="7.5000" stroke="green" stroke-width="1" fill="none" /><circle cx="143.5000" cy="-0.0000" r="7.5000" stroke="green" stroke-width="1" fill="none" /></svg>