<svg width="116" height="179" viewBox="-35 -125 116 179" xmlns="http://www.w3.org/2000/svg"><path d="M 0.0000 -78.5000 L 17.0000 -78.5000 L 17.0000 -79.5000 L 0.0000 -79.5000 L 0.0000 -78.5000 Z" stroke="green" stroke-width="1" fill="none" /><path d="M 17.0000 -78.5000 A 2.5000 2.5000 0 0 0 19.5000 -81.0000 L 18.5000 -81.0000 A 1.5000 1.5000 0 0 1 17.0000 -79.5000 L 17.0000 -78.5000 Z" stroke="green" stroke-width="1" fill="none" /><path d="M 19.5000 -81.0000 L 19.5000 -116.0000 L 18.5000 -116.0000 L 18.5000 -81.0000 L 19.5000 -81.0000 Z" stroke="green" stroke-width="1" fill="none" /><path d="M 0.0000 -79.5000 A 1.5000 1.5000 0 0 1 -1.5000 -81.0000 L -2.5000 -81.0000 A 2.5000 2.5000 0 0 0 -0.0000 -78.5000 L 0.0000 -79.5000 Z" stroke="green" stroke-width="1" fill="none" /><path d="M -1.5000 -81.0000 L -1.5000 -116.0000 L -2.5000 -116.0000 L -2.5000 -81.0000 L -1.5000 -81.0000 Z" stroke="green" stroke-width="1" fill="none" /><path d="M 0.0000 -57.5000 L 37.6934 -57.5000 L 37.6934 -58.5000 L 0.0000 -58.5000 L 0.0000 -57.5000 Z" stroke="green" stroke-width="1" fill="none" /><path d="M 37.6934 -57.5000 A 1.5000 1.5000 0 0 1 38.7541 -57.0607 L 39.4612 -57.7678 A 2.5000 2.5000 0 0 0 37.6934 -58.5000 L 37.6934 -57.5000 Z" stroke="green" stroke-width="1" fill="none" /><path d="M 38.7541 -57.0607 L 65.4074 -30.4074 L 66.1145 -31.1145 L 39.4612 -57.7678 L 38.7541 -57.0607 Z" stroke="green" stroke-width="1" fill="none" /><path d="M 65.4074 -30.4074 A 1.5000 1.5000 0 0 1 65.8467 -29.3467 L 66.8467 -29.3467 A 2.5000 2.5000 0 0 0 66.1145 -31.1145 L 65.4074 -30.4074 Z" stroke="green" stroke-width="1" fill="none" /><path d="M 65.8467 -29.3467 L 65.8467 8.3467 L 66.8467 8.3467 L 66.8467 -29.3467 L 65.8467 -29.3467 Z" stroke="green" stroke-width="1" fill="none" /><path d="M 65.8467 8.3467 A 1.5000 1.5000 0 0 1 65.4074 9.4074 L 66.1145 10.1145 A 2.5000 2.5000 0 0 0 66.8467 8.3467 L 65.8467 8.3467 Z" stroke="green" stroke-width="1" fill="none" /><path d="M 65.4074 9.4074 L 38.7541 36.0607 L 39.4612 36.7678 L 66.1145 10.1145 L 65.4074 9.4074 Z" stroke="green" stroke-width="1" fill="none" /><path d="M 38.7541 36.0607 A 1.5000 1.5000 0 0 1 37.6934 36.5000 L 37.6934 37.5000 A 2.5000 2.5000 0 0 0 39.4612 36.7678 L 38.7541 36.0607 Z" stroke="green" stroke-width="1" fill="none" /><path d="M 37.6934 36.5000 L 0.0000 36.5000 L 0.0000 37.5000 L 37.6934 37.5000 L 37.6934 36.5000 Z" stroke="green" stroke-width="1" fill="none" /><path d="M 0.0000 36.5000 A 1.5000 1.5000 0 0 1 -1.0607 36.0607 L -1.7678 36.7678 A 2.5000 2.5000 0 0 0 0.0000 37.5000 L 0.0000 36.5000 Z" stroke="green" stroke-width="1" fill="none" /><path d="M -1.0607 36.0607 L -27.7139 9.4074 L -28.4210 10.1145 L -1.7678 36.7678 L -1.0607 36.0607 Z" stroke="green" stroke-width="1" fill="none" /><path d="M -27.7139 9.4074 A 1.5000 1.5000 0 0 1 -28.1533 8.3467 L -29.1533 8.3467 A 2.5000 2.5000 0 0 0 -28.4210 10.1145 L -27.7139 9.4074 Z" stroke="green" stroke-width="1" fill="none" /><path d="M -28.1533 8.3467 L -28.1533 -29.3467 L -29.1533 -29.3467 L -29.1533 8.3467 L -28.1533 8.3467 Z" stroke="green" stroke-width="1" fill="none" /><path d="M -28.1533 -29.3467 A 1.5000 1.5000 0 0 1 -27.7139 -30.4074 L -28.4210 -31.1145 A 2.5000 2.5000 0 0 0 -29.1533 -29.3467 L -28.1533 -29.3467 Z" stroke="green" stroke-width="1" fill="none" /><path d="M -27.7139 -30.4074 L -1.0607 -57.0607 L -1.7678 -57.7678 L -28.4210 -31.1145 L -27.7139 -30.4074 Z" stroke="green" stroke-width="1" fill="none" /><path d="M 0.0000 -58.5000 A 2.5000 2.5000 0 0 0 -1.7678 -57.7678 L -1.0607 -57.0607 A 1.5000 1.5000 0 0 1 -0.0000 -57.5000 L 0.0000 -58.5000 Z" stroke="green" stroke-width="1" fill="none" /></svg>