0
SECTION
2
ENTITIES
0
LINE
8
PARAMETRIX
10
0.0000
20
0.0000
11
17.0000
21
0.0000
0
LINE
8
PARAMETRIX
10
17.0000
20
0.0000
11
17.0000
21
1.0000
0
LINE
8
PARAMETRIX
10
17.0000
20
1.0000
11
0.0000
21
1.0000
0
LINE
8
PARAMETRIX
10
0.0000
20
1.0000
11
0.0000
21
0.0000
0
ARC
8
PARAMETRIX
10
17.0000
20
2.5000
40
2.5000
50
270.0000
51
0.0000
0
LINE
8
PARAMETRIX
10
19.5000
20
2.5000
11
18.5000
21
2.5000
0
ARC
8
PARAMETRIX
10
17.0000
20
2.5000
40
1.5000
50
270.0000
51
360.0000
0
LINE
8
PARAMETRIX
10
17.0000
20
1.0000
11
17.0000
21
0.0000
0
LINE
8
PARAMETRIX
10
19.5000
20
2.5000
11
19.5000
21
37.5000
0
LINE
8
PARAMETRIX
10
19.5000
20
37.5000
11
18.5000
21
37.5000
0
LINE
8
PARAMETRIX
10
18.5000
20
37.5000
11
18.5000
21
2.5000
0
LINE
8
PARAMETRIX
10
18.5000
20
2.5000
11
19.5000
21
2.5000
0
ARC
8
PARAMETRIX
10
0.0000
20
2.5000
40
1.5000
50
180.0000
51
270.0000
0
LINE
8
PARAMETRIX
10
-1.5000
20
2.5000
11
-2.5000
21
2.5000
0
ARC
8
PARAMETRIX
10
0.0000
20
2.5000
40
2.5000
50
180.0000
51
270.0000
0
LINE
8
PARAMETRIX
10
-0.0000
20
0.0000
11
0.0000
21
1.0000
0
LINE
8
PARAMETRIX
10
-1.5000
20
2.5000
11
-1.5000
21
37.5000
0
LINE
8
PARAMETRIX
10
-1.5000
20
37.5000
11
-2.5000
21
37.5000
0
LINE
8
PARAMETRIX
10
-2.5000
20
37.5000
11
-2.5000
21
2.5000
0
LINE
8
PARAMETRIX
10
-2.5000
20
2.5000
11
-1.5000
21
2.5000
0
LINE
8
PARAMETRIX
10
0.0000
20
-21.0000
11
37.6934
21
-21.0000
0
LINE
8
PARAMETRIX
10
37.6934
20
-21.0000
11
37.6934
21
-20.0000
0
LINE
8
PARAMETRIX
10
37.6934
20
-20.0000
11
0.0000
21
-20.0000
0
LINE
8
PARAMETRIX
10
0.0000
20
-20.0000
11
0.0000
21
-21.0000
0
ARC
8
PARAMETRIX
10
37.6934
20
-22.5000
40
1.5000
50
45.0000
51
90.0000
0
LINE
8
PARAMETRIX
10
38.7541
20
-21.4393
11
39.4612
21
-20.7322
0
ARC
8
PARAMETRIX
10
37.6934
20
-22.5000
40
2.5000
50
45.0000
51
90.0000
0
LINE
8
PARAMETRIX
10
37.6934
20
-20.0000
11
37.6934
21
-21.0000
0
LINE
8
PARAMETRIX
10
38.7541
20
-21.4393
11
65.4074
21
-48.0926
0
LINE
8
PARAMETRIX
10
65.4074
20
-48.0926
11
66.1145
21
-47.3855
0
LINE
8
PARAMETRIX
10
66.1145
20
-47.3855
11
39.4612
21
-20.7322
0
LINE
8
PARAMETRIX
10
39.4612
20
-20.7322
11
38.7541
21
-21.4393
0
ARC
8
PARAMETRIX
10
64.3467
20
-49.1533
40
1.5000
50
0.0000
51
45.0000
0
LINE
8
PARAMETRIX
10
65.8467
20
-49.1533
11
66.8467
21
-49.1533
0
ARC
8
PARAMETRIX
10
64.3467
20
-49.1533
40
2.5000
50
0.0000
51
45.0000
0
LINE
8
PARAMETRIX
10
66.1145
20
-47.3855
11
65.4074
21
-48.0926
0
LINE
8
PARAMETRIX
10
65.8467
20
-49.1533
11
65.8467
21
-86.8467
0
LINE
8
PARAMETRIX
10
65.8467
20
-86.8467
11
66.8467
21
-86.8467
0
LINE
8
PARAMETRIX
10
66.8467
20
-86.8467
11
66.8467
21
-49.1533
0
LINE
8
PARAMETRIX
10
66.8467
20
-49.1533
11
65.8467
21
-49.1533
0
ARC
8
PARAMETRIX
10
64.3467
20
-86.8467
40
1.5000
50
315.0000
51
360.0000
0
LINE
8
PARAMETRIX
10
65.4074
20
-87.9074
11
66.1145
21
-88.6145
0
ARC
8
PARAMETRIX
10
64.3467
20
-86.8467
40
2.5000
50
315.0000
51
0.0000
0
LINE
8
PARAMETRIX
10
66.8467
20
-86.8467
11
65.8467
21
-86.8467
0
LINE
8
PARAMETRIX
10
65.4074
20
-87.9074
11
38.7541
21
-114.5607
0
LINE
8
PARAMETRIX
10
38.7541
20
-114.5607
11
39.4612
21
-115.2678
0
LINE
8
PARAMETRIX
10
39.4612
20
-115.2678
11
66.1145
21
-88.6145
0
LINE
8
PARAMETRIX
10
66.1145
20
-88.6145
11
65.4074
21
-87.9074
0
ARC
8
PARAMETRIX
10
37.6934
20
-113.5000
40
1.5000
50
270.0000
51
315.0000
0
LINE
8
PARAMETRIX
10
37.6934
20
-115.0000
11
37.6934
21
-116.0000
0
ARC
8
PARAMETRIX
10
37.6934
20
-113.5000
40
2.5000
50
270.0000
51
315.0000
0
LINE
8
PARAMETRIX
10
39.4612
20
-115.2678
11
38.7541
21
-114.5607
0
LINE
8
PARAMETRIX
10
37.6934
20
-115.0000
11
0.0000
21
-115.0000
0
LINE
8
PARAMETRIX
10
0.0000
20
-115.0000
11
0.0000
21
-116.0000
0
LINE
8
PARAMETRIX
10
0.0000
20
-116.0000
11
37.6934
21
-116.0000
0
LINE
8
PARAMETRIX
10
37.6934
20
-116.0000
11
37.6934
21
-115.0000
0
ARC
8
PARAMETRIX
10
0.0000
20
-113.5000
40
1.5000
50
225.0000
51
270.0000
0
LINE
8
PARAMETRIX
10
-1.0607
20
-114.5607
11
-1.7678
21
-115.2678
0
ARC
8
PARAMETRIX
10
-0.0000
20
-113.5000
40
2.5000
50
225.0000
51
270.0000
0
LINE
8
PARAMETRIX
10
0.0000
20
-116.0000
11
0.0000
21
-115.0000
0
LINE
8
PARAMETRIX
10
-1.0607
20
-114.5607
11
-27.7139
21
-87.9074
0
LINE
8
PARAMETRIX
10
-27.7139
20
-87.9074
11
-28.4210
21
-88.6145
0
LINE
8
PARAMETRIX
10
-28.4210
20
-88.6145
11
-1.7678
21
-115.2678
0
LINE
8
PARAMETRIX
10
-1.7678
20
-115.2678
11
-1.0607
21
-114.5607
0
ARC
8
PARAMETRIX
10
-26.6533
20
-86.8467
40
1.5000
50
180.0000
51
225.0000
0
LINE
8
PARAMETRIX
10
-28.1533
20
-86.8467
11
-29.1533
21
-86.8467
0
ARC
8
PARAMETRIX
10
-26.6533
20
-86.8467
40
2.5000
50
180.0000
51
225.0000
0
LINE
8
PARAMETRIX
10
-28.4210
20
-88.6145
11
-27.7139
21
-87.9074
0
LINE
8
PARAMETRIX
10
-28.1533
20
-86.8467
11
-28.1533
21
-49.1533
0
LINE
8
PARAMETRIX
10
-28.1533
20
-49.1533
11
-29.1533
21
-49.1533
0
LINE
8
PARAMETRIX
10
-29.1533
20
-49.1533
11
-29.1533
21
-86.8467
0
LINE
8
PARAMETRIX
10
-29.1533
20
-86.8467
11
-28.1533
21
-86.8467
0
ARC
8
PARAMETRIX
10
-26.6533
20
-49.1533
40
1.5000
50
135.0000
51
180.0000
0
LINE
8
PARAMETRIX
10
-27.7139
20
-48.0926
11
-28.4210
21
-47.3855
0
ARC
8
PARAMETRIX
10
-26.6533
20
-49.1533
40
2.5000
50
135.0000
51
180.0000
0
LINE
8
PARAMETRIX
10
-29.1533
20
-49.1533
11
-28.1533
21
-49.1533
0
LINE
8
PARAMETRIX
10
-27.7139
20
-48.0926
11
-1.0607
21
-21.4393
0
LINE
8
PARAMETRIX
10
-1.0607
20
-21.4393
11
-1.7678
21
-20.7322
0
LINE
8
PARAMETRIX
10
-1.7678
20
-20.7322
11
-28.4210
21
-47.3855
0
LINE
8
PARAMETRIX
10
-28.4210
20
-47.3855
11
-27.7139
21
-48.0926
0
ARC
8
PARAMETRIX
10
-0.0000
20
-22.5000
40
2.5000
50
90.0000
51
135.0000
0
LINE
8
PARAMETRIX
10
-1.7678
20
-20.7322
11
-1.0607
21
-21.4393
0
ARC
8
PARAMETRIX
10
0.0000
20
-22.5000
40
1.5000
50
90.0000
51
135.0000
0
LINE
8
PARAMETRIX
10
-0.0000
20
-21.0000
11
0.0000
21
-20.0000
0
ENDSEC
0
EOF
