<svg width="49" height="51" viewBox="-2 -3 49 51" xmlns="http://www.w3.org/2000/svg"><path d="M 0.0000 0.0000 L 0.0000 37.6934 L 5.0000 37.6934 L 23.3661 33.4642 A 15.0000 15.0000 0 0 0 23.3661 4.2293 L 5.0000 0.0000 L 0.0000 0.0000 Z" stroke="green" stroke-width="1" fill="none" /><circle cx="20.0000" cy="18.8467" r="8.0000" stroke="green" stroke-width="1" fill="none" /><path d="M 2.0000 0.9500 L 2.0000 5.3322 A 0.4500 0.4500 0 0 0 2.4500 5.7822 L 2.5500 5.7822 A 0.4500 0.4500 0 0 0 3.0000 5.3322 L 3.0000 0.9500 A 0.4500 0.4500 0 0 0 2.5500 0.5000 L 2.4500 0.5000 A 0.4500 0.4500 0 0 0 2.0000 0.9500 Z" stroke="green" stroke-width="1" fill="none" /><path d="M 2.0000 7.2322 L 2.0000 17.8967 A 0.4500 0.4500 0 0 0 2.4500 18.3467 L 2.5500 18.3467 A 0.4500 0.4500 0 0 0 3.0000 17.8967 L 3.0000 7.2322 A 0.4500 0.4500 0 0 0 2.5500 6.7822 L 2.4500 6.7822 A 0.4500 0.4500 0 0 0 2.0000 7.2322 Z" stroke="green" stroke-width="1" fill="none" /><path d="M 2.0000 19.7967 L 2.0000 30.4612 A 0.4500 0.4500 0 0 0 2.4500 30.9112 L 2.5500 30.9112 A 0.4500 0.4500 0 0 0 3.0000 30.4612 L 3.0000 19.7967 A 0.4500 0.4500 0 0 0 2.5500 19.3467 L 2.4500 19.3467 A 0.4500 0.4500 0 0 0 2.0000 19.7967 Z" stroke="green" stroke-width="1" fill="none" /><path d="M 2.0000 32.3612 L 2.0000 36.7434 A 0.4500 0.4500 0 0 0 2.4500 37.1934 L 2.5500 37.1934 A 0.4500 0.4500 0 0 0 3.0000 36.7434 L 3.0000 32.3612 A 0.4500 0.4500 0 0 0 2.5500 31.9112 L 2.4500 31.9112 A 0.4500 0.4500 0 0 0 2.0000 32.3612 Z" stroke="green" stroke-width="1" fill="none" /><path d="M 4.0000 0.9500 L 4.0000 11.6145 A 0.4500 0.4500 0 0 0 4.4500 12.0645 L 4.5500 12.0645 A 0.4500 0.4500 0 0 0 5.0000 11.6145 L 5.0000 0.9500 A 0.4500 0.4500 0 0 0 4.5500 0.5000 L 4.4500 0.5000 A 0.4500 0.4500 0 0 0 4.0000 0.9500 Z" stroke="green" stroke-width="1" fill="none" /><path d="M 4.0000 13.5145 L 4.0000 24.1790 A 0.4500 0.4500 0 0 0 4.4500 24.6290 L 4.5500 24.6290 A 0.4500 0.4500 0 0 0 5.0000 24.1790 L 5.0000 13.5145 A 0.4500 0.4500 0 0 0 4.5500 13.0645 L 4.4500 13.0645 A 0.4500 0.4500 0 0 0 4.0000 13.5145 Z" stroke="green" stroke-width="1" fill="none" /><path d="M 4.0000 26.0790 L 4.0000 36.7434 A 0.4500 0.4500 0 0 0 4.4500 37.1934 L 4.5500 37.1934 A 0.4500 0.4500 0 0 0 5.0000 36.7434 L 5.0000 26.0790 A 0.4500 0.4500 0 0 0 4.5500 25.6290 L 4.4500 25.6290 A 0.4500 0.4500 0 0 0 4.0000 26.0790 Z" stroke="green" stroke-width="1" fill="none" /><path d="M 6.0000 1.2954 L 6.0000 5.5625 A 0.4500 0.4500 0 0 0 6.4500 6.0125 L 6.5500 6.0125 A 0.4500 0.4500 0 0 0 7.0000 5.5625 L 7.0000 1.2954 A 0.4500 0.4500 0 0 0 6.5500 0.8454 L 6.4500 0.8454 A 0.4500 0.4500 0 0 0 6.0000 1.2954 Z" stroke="green" stroke-width="1" fill="none" /><path d="M 6.0000 7.4625 L 6.0000 17.8967 A 0.4500 0.4500 0 0 0 6.4500 18.3467 L 6.5500 18.3467 A 0.4500 0.4500 0 0 0 7.0000 17.8967 L 7.0000 7.4625 A 0.4500 0.4500 0 0 0 6.5500 7.0125 L 6.4500 7.0125 A 0.4500 0.4500 0 0 0 6.0000 7.4625 Z" stroke="green" stroke-width="1" fill="none" /><path d="M 6.0000 19.7967 L 6.0000 30.2309 A 0.4500 0.4500 0 0 0 6.4500 30.6809 L 6.5500 30.6809 A 0.4500 0.4500 0 0 0 7.0000 30.2309 L 7.0000 19.7967 A 0.4500 0.4500 0 0 0 6.5500 19.3467 L 6.4500 19.3467 A 0.4500 0.4500 0 0 0 6.0000 19.7967 Z" stroke="green" stroke-width="1" fill="none" /><path d="M 6.0000 32.1309 L 6.0000 36.3980 A 0.4500 0.4500 0 0 0 6.4500 36.8480 L 6.5500 36.8480 A 0.4500 0.4500 0 0 0 7.0000 36.3980 L 7.0000 32.1309 A 0.4500 0.4500 0 0 0 6.5500 31.6809 L 6.4500 31.6809 A 0.4500 0.4500 0 0 0 6.0000 32.1309 Z" stroke="green" stroke-width="1" fill="none" /><path d="M 8.0000 1.7560 L 8.0000 11.8831 A 0.4500 0.4500 0 0 0 8.4500 12.3331 L 8.5500 12.3331 A 0.4500 0.4500 0 0 0 9.0000 11.8831 L 9.0000 1.7560 A 0.4500 0.4500 0 0 0 8.5500 1.3060 L 8.4500 1.3060 A 0.4500 0.4500 0 0 0 8.0000 1.7560 Z" stroke="green" stroke-width="1" fill="none" /><path d="M 8.0000 13.7831 L 8.0000 23.9103 A 0.4500 0.4500 0 0 0 8.4500 24.3603 L 8.5500 24.3603 A 0.4500 0.4500 0 0 0 9.0000 23.9103 L 9.0000 13.7831 A 0.4500 0.4500 0 0 0 8.5500 13.3331 L 8.4500 13.3331 A 0.4500 0.4500 0 0 0 8.0000 13.7831 Z" stroke="green" stroke-width="1" fill="none" /><path d="M 8.0000 25.8103 L 8.0000 35.9375 A 0.4500 0.4500 0 0 0 8.4500 36.3875 L 8.5500 36.3875 A 0.4500 0.4500 0 0 0 9.0000 35.9375 L 9.0000 25.8103 A 0.4500 0.4500 0 0 0 8.5500 25.3603 L 8.4500 25.3603 A 0.4500 0.4500 0 0 0 8.0000 25.8103 Z" stroke="green" stroke-width="1" fill="none" /></svg>