0
SECTION
2
ENTITIES
0
LINE
8
PARAMETRIX
10
0.0000
20
0.0000
11
0.0000
21
-3.1416
0
LINE
8
PARAMETRIX
10
0.0000
20
-3.1416
11
0.0000
21
-8.1416
0
LINE
8
PARAMETRIX
10
0.0000
20
-8.1416
11
4.2293
21
-26.5076
0
ARC
8
PARAMETRIX
10
18.8467
20
-23.1416
40
15.0000
50
192.9678
51
347.0322
0
LINE
8
PARAMETRIX
10
33.4642
20
-26.5076
11
37.6934
21
-8.1416
0
LINE
8
PARAMETRIX
10
37.6934
20
-8.1416
11
37.6934
21
-3.1416
0
LINE
8
PARAMETRIX
10
37.6934
20
-3.1416
11
37.6934
21
0.0000
0
LINE
8
PARAMETRIX
10
37.6934
20
0.0000
11
39.2642
21
0.0000
0
LINE
8
PARAMETRIX
10
39.2642
20
0.0000
11
39.2642
21
17.0000
0
LINE
8
PARAMETRIX
10
39.2642
20
17.0000
11
37.6934
21
17.0000
0
LINE
8
PARAMETRIX
10
37.6934
20
17.0000
11
37.6934
21
20.1416
0
LINE
8
PARAMETRIX
10
37.6934
20
20.1416
11
37.6934
21
25.1416
0
LINE
8
PARAMETRIX
10
37.6934
20
25.1416
11
33.4642
21
43.5076
0
ARC
8
PARAMETRIX
10
18.8467
20
40.1416
40
15.0000
50
12.9678
51
167.0322
0
LINE
8
PARAMETRIX
10
4.2293
20
43.5076
11
0.0000
21
25.1416
0
LINE
8
PARAMETRIX
10
0.0000
20
25.1416
11
0.0000
21
20.1416
0
LINE
8
PARAMETRIX
10
0.0000
20
20.1416
11
0.0000
21
17.0000
0
LINE
8
PARAMETRIX
10
0.0000
20
17.0000
11
-1.5708
21
17.0000
0
LINE
8
PARAMETRIX
10
-1.5708
20
17.0000
11
-1.5708
21
20.1416
0
LINE
8
PARAMETRIX
10
-1.5708
20
20.1416
11
-1.5708
21
25.1416
0
LINE
8
PARAMETRIX
10
-1.5708
20
25.1416
11
-5.8001
21
43.5076
0
ARC
8
PARAMETRIX
10
-20.4175
20
40.1416
40
15.0000
50
12.9678
51
167.0322
0
LINE
8
PARAMETRIX
10
-35.0350
20
43.5076
11
-39.2642
21
25.1416
0
LINE
8
PARAMETRIX
10
-39.2642
20
25.1416
11
-39.2642
21
20.1416
0
LINE
8
PARAMETRIX
10
-39.2642
20
20.1416
11
-39.2642
21
17.0000
0
LINE
8
PARAMETRIX
10
-39.2642
20
17.0000
11
-40.8350
21
17.0000
0
LINE
8
PARAMETRIX
10
-40.8350
20
17.0000
11
-40.8350
21
20.1416
0
LINE
8
PARAMETRIX
10
-40.8350
20
20.1416
11
-40.8350
21
25.1416
0
LINE
8
PARAMETRIX
10
-40.8350
20
25.1416
11
-45.0643
21
43.5076
0
ARC
8
PARAMETRIX
10
-59.6817
20
40.1416
40
15.0000
50
12.9678
51
167.0322
0
LINE
8
PARAMETRIX
10
-74.2992
20
43.5076
11
-78.5285
21
25.1416
0
LINE
8
PARAMETRIX
10
-78.5285
20
25.1416
11
-78.5285
21
20.1416
0
LINE
8
PARAMETRIX
10
-78.5285
20
20.1416
11
-78.5285
21
17.0000
0
LINE
8
PARAMETRIX
10
-78.5285
20
17.0000
11
-80.0993
21
17.0000
0
LINE
8
PARAMETRIX
10
-80.0993
20
17.0000
11
-80.0993
21
20.1416
0
LINE
8
PARAMETRIX
10
-80.0993
20
20.1416
11
-80.0993
21
25.1416
0
LINE
8
PARAMETRIX
10
-80.0993
20
25.1416
11
-84.3285
21
43.5076
0
ARC
8
PARAMETRIX
10
-98.9460
20
40.1416
40
15.0000
50
12.9678
51
167.0322
0
LINE
8
PARAMETRIX
10
-113.5634
20
43.5076
11
-117.7927
21
25.1416
0
LINE
8
PARAMETRIX
10
-117.7927
20
25.1416
11
-117.7927
21
20.1416
0
LINE
8
PARAMETRIX
10
-117.7927
20
20.1416
11
-117.7927
21
17.0000
0
LINE
8
PARAMETRIX
10
-117.7927
20
17.0000
11
-119.3635
21
17.0000
0
LINE
8
PARAMETRIX
10
-119.3635
20
17.0000
11
-119.3635
21
20.1416
0
LINE
8
PARAMETRIX
10
-119.3635
20
20.1416
11
-119.3635
21
25.1416
0
LINE
8
PARAMETRIX
10
-119.3635
20
25.1416
11
-123.5928
21
43.5076
0
ARC
8
PARAMETRIX
10
-138.2102
20
40.1416
40
15.0000
50
12.9678
51
167.0322
0
LINE
8
PARAMETRIX
10
-152.8276
20
43.5076
11
-157.0569
21
25.1416
0
LINE
8
PARAMETRIX
10
-157.0569
20
25.1416
11
-157.0569
21
20.1416
0
LINE
8
PARAMETRIX
10
-157.0569
20
20.1416
11
-157.0569
21
17.0000
0
LINE
8
PARAMETRIX
10
-157.0569
20
17.0000
11
-158.6277
21
17.0000
0
LINE
8
PARAMETRIX
10
-158.6277
20
17.0000
11
-158.6277
21
20.1416
0
LINE
8
PARAMETRIX
10
-158.6277
20
20.1416
11
-158.6277
21
25.1416
0
LINE
8
PARAMETRIX
10
-158.6277
20
25.1416
11
-162.8570
21
43.5076
0
ARC
8
PARAMETRIX
10
-177.4744
20
40.1416
40
15.0000
50
12.9678
51
167.0322
0
LINE
8
PARAMETRIX
10
-192.0919
20
43.5076
11
-196.3212
21
25.1416
0
LINE
8
PARAMETRIX
10
-196.3212
20
25.1416
11
-196.3212
21
20.1416
0
LINE
8
PARAMETRIX
10
-196.3212
20
20.1416
11
-196.3212
21
17.0000
0
LINE
8
PARAMETRIX
10
-196.3212
20
17.0000
11
-197.8919
21
17.0000
0
LINE
8
PARAMETRIX
10
-197.8919
20
17.0000
11
-197.8919
21
20.1416
0
LINE
8
PARAMETRIX
10
-197.8919
20
20.1416
11
-197.8919
21
25.1416
0
LINE
8
PARAMETRIX
10
-197.8919
20
25.1416
11
-202.1212
21
43.5076
0
ARC
8
PARAMETRIX
10
-216.7387
20
40.1416
40
15.0000
50
12.9678
51
167.0322
0
LINE
8
PARAMETRIX
10
-231.3561
20
43.5076
11
-235.5854
21
25.1416
0
LINE
8
PARAMETRIX
10
-235.5854
20
25.1416
11
-235.5854
21
20.1416
0
LINE
8
PARAMETRIX
10
-235.5854
20
20.1416
11
-235.5854
21
17.0000
0
LINE
8
PARAMETRIX
10
-235.5854
20
17.0000
11
-237.1562
21
17.0000
0
LINE
8
PARAMETRIX
10
-237.1562
20
17.0000
11
-237.1562
21
20.1416
0
LINE
8
PARAMETRIX
10
-237.1562
20
20.1416
11
-237.1562
21
25.1416
0
LINE
8
PARAMETRIX
10
-237.1562
20
25.1416
11
-241.3855
21
43.5076
0
ARC
8
PARAMETRIX
10
-256.0029
20
40.1416
40
15.0000
50
12.9678
51
167.0322
0
LINE
8
PARAMETRIX
10
-270.6203
20
43.5076
11
-274.8496
21
25.1416
0
LINE
8
PARAMETRIX
10
-274.8496
20
25.1416
11
-274.8496
21
20.1416
0
LINE
8
PARAMETRIX
10
-274.8496
20
20.1416
11
-274.8496
21
17.0000
0
LINE
8
PARAMETRIX
10
-274.8496
20
17.0000
11
-274.8496
21
0.0000
0
LINE
8
PARAMETRIX
10
-274.8496
20
0.0000
11
-274.8496
21
-3.1416
0
LINE
8
PARAMETRIX
10
-274.8496
20
-3.1416
11
-274.8496
21
-8.1416
0
LINE
8
PARAMETRIX
10
-274.8496
20
-8.1416
11
-270.6203
21
-26.5076
0
ARC
8
PARAMETRIX
10
-256.0029
20
-23.1416
40
15.0000
50
192.9678
51
347.0322
0
LINE
8
PARAMETRIX
10
-241.3855
20
-26.5076
11
-237.1562
21
-8.1416
0
LINE
8
PARAMETRIX
10
-237.1562
20
-8.1416
11
-237.1562
21
-3.1416
0
LINE
8
PARAMETRIX
10
-237.1562
20
-3.1416
11
-237.1562
21
0.0000
0
LINE
8
PARAMETRIX
10
-237.1562
20
0.0000
11
-235.5854
21
0.0000
0
LINE
8
PARAMETRIX
10
-235.5854
20
0.0000
11
-235.5854
21
-3.1416
0
LINE
8
PARAMETRIX
10
-235.5854
20
-3.1416
11
-235.5854
21
-8.1416
0
LINE
8
PARAMETRIX
10
-235.5854
20
-8.1416
11
-231.3561
21
-26.5076
0
ARC
8
PARAMETRIX
10
-216.7387
20
-23.1416
40
15.0000
50
192.9678
51
347.0322
0
LINE
8
PARAMETRIX
10
-202.1212
20
-26.5076
11
-197.8919
21
-8.1416
0
LINE
8
PARAMETRIX
10
-197.8919
20
-8.1416
11
-197.8919
21
-3.1416
0
LINE
8
PARAMETRIX
10
-197.8919
20
-3.1416
11
-197.8919
21
0.0000
0
LINE
8
PARAMETRIX
10
-197.8919
20
0.0000
11
-196.3212
21
0.0000
0
LINE
8
PARAMETRIX
10
-196.3212
20
0.0000
11
-196.3212
21
-3.1416
0
LINE
8
PARAMETRIX
10
-196.3212
20
-3.1416
11
-196.3212
21
-8.1416
0
LINE
8
PARAMETRIX
10
-196.3212
20
-8.1416
11
-192.0919
21
-26.5076
0
ARC
8
PARAMETRIX
10
-177.4744
20
-23.1416
40
15.0000
50
192.9678
51
347.0322
0
LINE
8
PARAMETRIX
10
-162.8570
20
-26.5076
11
-158.6277
21
-8.1416
0
LINE
8
PARAMETRIX
10
-158.6277
20
-8.1416
11
-158.6277
21
-3.1416
0
LINE
8
PARAMETRIX
10
-158.6277
20
-3.1416
11
-158.6277
21
0.0000
0
LINE
8
PARAMETRIX
10
-158.6277
20
0.0000
11
-157.0569
21
0.0000
0
LINE
8
PARAMETRIX
10
-157.0569
20
0.0000
11
-157.0569
21
-3.1416
0
LINE
8
PARAMETRIX
10
-157.0569
20
-3.1416
11
-157.0569
21
-8.1416
0
LINE
8
PARAMETRIX
10
-157.0569
20
-8.1416
11
-152.8276
21
-26.5076
0
ARC
8
PARAMETRIX
10
-138.2102
20
-23.1416
40
15.0000
50
192.9678
51
347.0322
0
LINE
8
PARAMETRIX
10
-123.5928
20
-26.5076
11
-119.3635
21
-8.1416
0
LINE
8
PARAMETRIX
10
-119.3635
20
-8.1416
11
-119.3635
21
-3.1416
0
LINE
8
PARAMETRIX
10
-119.3635
20
-3.1416
11
-119.3635
21
0.0000
0
LINE
8
PARAMETRIX
10
-119.3635
20
0.0000
11
-117.7927
21
0.0000
0
LINE
8
PARAMETRIX
10
-117.7927
20
0.0000
11
-117.7927
21
-3.1416
0
LINE
8
PARAMETRIX
10
-117.7927
20
-3.1416
11
-117.7927
21
-8.1416
0
LINE
8
PARAMETRIX
10
-117.7927
20
-8.1416
11
-113.5634
21
-26.5076
0
ARC
8
PARAMETRIX
10
-98.9460
20
-23.1416
40
15.0000
50
192.9678
51
347.0322
0
LINE
8
PARAMETRIX
10
-84.3285
20
-26.5076
11
-80.0993
21
-8.1416
0
LINE
8
PARAMETRIX
10
-80.0993
20
-8.1416
11
-80.0993
21
-3.1416
0
LINE
8
PARAMETRIX
10
-80.0993
20
-3.1416
11
-80.0993
21
0.0000
0
LINE
8
PARAMETRIX
10
-80.0993
20
0.0000
11
-78.5285
21
0.0000
0
LINE
8
PARAMETRIX
10
-78.5285
20
0.0000
11
-78.5285
21
-3.1416
0
LINE
8
PARAMETRIX
10
-78.5285
20
-3.1416
11
-78.5285
21
-8.1416
0
LINE
8
PARAMETRIX
10
-78.5285
20
-8.1416
11
-74.2992
21
-26.5076
0
ARC
8
PARAMETRIX
10
-59.6817
20
-23.1416
40
15.0000
50
192.9678
51
347.0322
0
LINE
8
PARAMETRIX
10
-45.0643
20
-26.5076
11
-40.8350
21
-8.1416
0
LINE
8
PARAMETRIX
10
-40.8350
20
-8.1416
11
-40.8350
21
-3.1416
0
LINE
8
PARAMETRIX
10
-40.8350
20
-3.1416
11
-40.8350
21
0.0000
0
LINE
8
PARAMETRIX
10
-40.8350
20
0.0000
11
-39.2642
21
0.0000
0
LINE
8
PARAMETRIX
10
-39.2642
20
0.0000
11
-39.2642
21
-3.1416
0
LINE
8
PARAMETRIX
10
-39.2642
20
-3.1416
11
-39.2642
21
-8.1416
0
LINE
8
PARAMETRIX
10
-39.2642
20
-8.1416
11
-35.0350
21
-26.5076
0
ARC
8
PARAMETRIX
10
-20.4175
20
-23.1416
40
15.0000
50
192.9678
51
347.0322
0
LINE
8
PARAMETRIX
10
-5.8001
20
-26.5076
11
-1.5708
21
-8.1416
0
LINE
8
PARAMETRIX
10
-1.5708
20
-8.1416
11
-1.5708
21
-3.1416
0
LINE
8
PARAMETRIX
10
-1.5708
20
-3.1416
11
-1.5708
21
0.0000
0
LINE
8
PARAMETRIX
10
-1.5708
20
0.0000
11
0.0000
21
0.0000
0
LINE
8
PARAMETRIX
10
0.0000
20
0.0000
11
0.0000
21
-3.1416
0
LINE
8
PARAMETRIX
10
0.0000
20
-3.1416
11
0.0000
21
-8.1416
0
LINE
8
PARAMETRIX
10
0.0000
20
-8.1416
11
4.2293
21
-26.5076
0
ARC
8
PARAMETRIX
10
18.8467
20
-23.1416
40
15.0000
50
192.9678
51
347.0322
0
LINE
8
PARAMETRIX
10
33.4642
20
-26.5076
11
37.6934
21
-8.1416
0
LINE
8
PARAMETRIX
10
37.6934
20
-8.1416
11
37.6934
21
-3.1416
0
LINE
8
PARAMETRIX
10
37.6934
20
-3.1416
11
37.6934
21
0.0000
0
LINE
8
PARAMETRIX
10
37.6934
20
0.0000
11
39.2642
21
0.0000
0
LINE
8
PARAMETRIX
10
39.2642
20
0.0000
11
39.2642
21
17.0000
0
LINE
8
PARAMETRIX
10
39.2642
20
17.0000
11
37.6934
21
17.0000
0
LINE
8
PARAMETRIX
10
37.6934
20
17.0000
11
37.6934
21
20.1416
0
LINE
8
PARAMETRIX
10
37.6934
20
20.1416
11
37.6934
21
25.1416
0
LINE
8
PARAMETRIX
10
37.6934
20
25.1416
11
33.4642
21
43.5076
0
ARC
8
PARAMETRIX
10
18.8467
20
40.1416
40
15.0000
50
12.9678
51
167.0322
0
LINE
8
PARAMETRIX
10
4.2293
20
43.5076
11
0.0000
21
25.1416
0
LINE
8
PARAMETRIX
10
0.0000
20
25.1416
11
0.0000
21
20.1416
0
LINE
8
PARAMETRIX
10
0.0000
20
20.1416
11
0.0000
21
17.0000
0
LINE
8
PARAMETRIX
10
0.0000
20
17.0000
11
-1.5708
21
17.0000
0
LINE
8
PARAMETRIX
10
-1.5708
20
17.0000
11
-1.5708
21
20.1416
0
LINE
8
PARAMETRIX
10
-1.5708
20
20.1416
11
-1.5708
21
25.1416
0
LINE
8
PARAMETRIX
10
-1.5708
20
25.1416
11
-5.8001
21
43.5076
0
ARC
8
PARAMETRIX
10
-20.4175
20
40.1416
40
15.0000
50
12.9678
51
167.0322
0
LINE
8
PARAMETRIX
10
-35.0350
20
43.5076
11
-39.2642
21
25.1416
0
LINE
8
PARAMETRIX
10
-39.2642
20
25.1416
11
-39.2642
21
20.1416
0
LINE
8
PARAMETRIX
10
-39.2642
20
20.1416
11
-39.2642
21
17.0000
0
LINE
8
PARAMETRIX
10
-39.2642
20
17.0000
11
-40.8350
21
17.0000
0
LINE
8
PARAMETRIX
10
-40.8350
20
17.0000
11
-40.8350
21
20.1416
0
LINE
8
PARAMETRIX
10
-40.8350
20
20.1416
11
-40.8350
21
25.1416
0
LINE
8
PARAMETRIX
10
-40.8350
20
25.1416
11
-45.0643
21
43.5076
0
ARC
8
PARAMETRIX
10
-59.6817
20
40.1416
40
15.0000
50
12.9678
51
167.0322
0
LINE
8
PARAMETRIX
10
-74.2992
20
43.5076
11
-78.5285
21
25.1416
0
LINE
8
PARAMETRIX
10
-78.5285
20
25.1416
11
-78.5285
21
20.1416
0
LINE
8
PARAMETRIX
10
-78.5285
20
20.1416
11
-78.5285
21
17.0000
0
LINE
8
PARAMETRIX
10
-78.5285
20
17.0000
11
-80.0993
21
17.0000
0
LINE
8
PARAMETRIX
10
-80.0993
20
17.0000
11
-80.0993
21
20.1416
0
LINE
8
PARAMETRIX
10
-80.0993
20
20.1416
11
-80.0993
21
25.1416
0
LINE
8
PARAMETRIX
10
-80.0993
20
25.1416
11
-84.3285
21
43.5076
0
ARC
8
PARAMETRIX
10
-98.9460
20
40.1416
40
15.0000
50
12.9678
51
167.0322
0
LINE
8
PARAMETRIX
10
-113.5634
20
43.5076
11
-117.7927
21
25.1416
0
LINE
8
PARAMETRIX
10
-117.7927
20
25.1416
11
-117.7927
21
20.1416
0
LINE
8
PARAMETRIX
10
-117.7927
20
20.1416
11
-117.7927
21
17.0000
0
LINE
8
PARAMETRIX
10
-117.7927
20
17.0000
11
-119.3635
21
17.0000
0
LINE
8
PARAMETRIX
10
-119.3635
20
17.0000
11
-119.3635
21
20.1416
0
LINE
8
PARAMETRIX
10
-119.3635
20
20.1416
11
-119.3635
21
25.1416
0
LINE
8
PARAMETRIX
10
-119.3635
20
25.1416
11
-123.5928
21
43.5076
0
ARC
8
PARAMETRIX
10
-138.2102
20
40.1416
40
15.0000
50
12.9678
51
167.0322
0
LINE
8
PARAMETRIX
10
-152.8276
20
43.5076
11
-157.0569
21
25.1416
0
LINE
8
PARAMETRIX
10
-157.0569
20
25.1416
11
-157.0569
21
20.1416
0
LINE
8
PARAMETRIX
10
-157.0569
20
20.1416
11
-157.0569
21
17.0000
0
LINE
8
PARAMETRIX
10
-157.0569
20
17.0000
11
-158.6277
21
17.0000
0
LINE
8
PARAMETRIX
10
-158.6277
20
17.0000
11
-158.6277
21
20.1416
0
LINE
8
PARAMETRIX
10
-158.6277
20
20.1416
11
-158.6277
21
25.1416
0
LINE
8
PARAMETRIX
10
-158.6277
20
25.1416
11
-162.8570
21
43.5076
0
ARC
8
PARAMETRIX
10
-177.4744
20
40.1416
40
15.0000
50
12.9678
51
167.0322
0
LINE
8
PARAMETRIX
10
-192.0919
20
43.5076
11
-196.3212
21
25.1416
0
LINE
8
PARAMETRIX
10
-196.3212
20
25.1416
11
-196.3212
21
20.1416
0
LINE
8
PARAMETRIX
10
-196.3212
20
20.1416
11
-196.3212
21
17.0000
0
LINE
8
PARAMETRIX
10
-196.3212
20
17.0000
11
-197.8919
21
17.0000
0
LINE
8
PARAMETRIX
10
-197.8919
20
17.0000
11
-197.8919
21
20.1416
0
LINE
8
PARAMETRIX
10
-197.8919
20
20.1416
11
-197.8919
21
25.1416
0
LINE
8
PARAMETRIX
10
-197.8919
20
25.1416
11
-202.1212
21
43.5076
0
ARC
8
PARAMETRIX
10
-216.7387
20
40.1416
40
15.0000
50
12.9678
51
167.0322
0
LINE
8
PARAMETRIX
10
-231.3561
20
43.5076
11
-235.5854
21
25.1416
0
LINE
8
PARAMETRIX
10
-235.5854
20
25.1416
11
-235.5854
21
20.1416
0
LINE
8
PARAMETRIX
10
-235.5854
20
20.1416
11
-235.5854
21
17.0000
0
LINE
8
PARAMETRIX
10
-235.5854
20
17.0000
11
-237.1562
21
17.0000
0
LINE
8
PARAMETRIX
10
-237.1562
20
17.0000
11
-237.1562
21
20.1416
0
LINE
8
PARAMETRIX
10
-237.1562
20
20.1416
11
-237.1562
21
25.1416
0
LINE
8
PARAMETRIX
10
-237.1562
20
25.1416
11
-241.3855
21
43.5076
0
ARC
8
PARAMETRIX
10
-256.0029
20
40.1416
40
15.0000
50
12.9678
51
167.0322
0
LINE
8
PARAMETRIX
10
-270.6203
20
43.5076
11
-274.8496
21
25.1416
0
LINE
8
PARAMETRIX
10
-274.8496
20
25.1416
11
-274.8496
21
20.1416
0
LINE
8
PARAMETRIX
10
-274.8496
20
20.1416
11
-274.8496
21
17.0000
0
LINE
8
PARAMETRIX
10
-274.8496
20
17.0000
11
-274.8496
21
0.0000
0
LINE
8
PARAMETRIX
10
-274.8496
20
0.0000
11
-274.8496
21
-3.1416
0
LINE
8
PARAMETRIX
10
-274.8496
20
-3.1416
11
-274.8496
21
-8.1416
0
LINE
8
PARAMETRIX
10
-274.8496
20
-8.1416
11
-270.6203
21
-26.5076
0
ARC
8
PARAMETRIX
10
-256.0029
20
-23.1416
40
15.0000
50
192.9678
51
347.0322
0
LINE
8
PARAMETRIX
10
-241.3855
20
-26.5076
11
-237.1562
21
-8.1416
0
LINE
8
PARAMETRIX
10
-237.1562
20
-8.1416
11
-237.1562
21
-3.1416
0
LINE
8
PARAMETRIX
10
-237.1562
20
-3.1416
11
-237.1562
21
0.0000
0
LINE
8
PARAMETRIX
10
-237.1562
20
0.0000
11
-235.5854
21
0.0000
0
LINE
8
PARAMETRIX
10
-235.5854
20
0.0000
11
-235.5854
21
-3.1416
0
LINE
8
PARAMETRIX
10
-235.5854
20
-3.1416
11
-235.5854
21
-8.1416
0
LINE
8
PARAMETRIX
10
-235.5854
20
-8.1416
11
-231.3561
21
-26.5076
0
ARC
8
PARAMETRIX
10
-216.7387
20
-23.1416
40
15.0000
50
192.9678
51
347.0322
0
LINE
8
PARAMETRIX
10
-202.1212
20
-26.5076
11
-197.8919
21
-8.1416
0
LINE
8
PARAMETRIX
10
-197.8919
20
-8.1416
11
-197.8919
21
-3.1416
0
LINE
8
PARAMETRIX
10
-197.8919
20
-3.1416
11
-197.8919
21
0.0000
0
LINE
8
PARAMETRIX
10
-197.8919
20
0.0000
11
-196.3212
21
0.0000
0
LINE
8
PARAMETRIX
10
-196.3212
20
0.0000
11
-196.3212
21
-3.1416
0
LINE
8
PARAMETRIX
10
-196.3212
20
-3.1416
11
-196.3212
21
-8.1416
0
LINE
8
PARAMETRIX
10
-196.3212
20
-8.1416
11
-192.0919
21
-26.5076
0
ARC
8
PARAMETRIX
10
-177.4744
20
-23.1416
40
15.0000
50
192.9678
51
347.0322
0
LINE
8
PARAMETRIX
10
-162.8570
20
-26.5076
11
-158.6277
21
-8.1416
0
LINE
8
PARAMETRIX
10
-158.6277
20
-8.1416
11
-158.6277
21
-3.1416
0
LINE
8
PARAMETRIX
10
-158.6277
20
-3.1416
11
-158.6277
21
0.0000
0
LINE
8
PARAMETRIX
10
-158.6277
20
0.0000
11
-157.0569
21
0.0000
0
LINE
8
PARAMETRIX
10
-157.0569
20
0.0000
11
-157.0569
21
-3.1416
0
LINE
8
PARAMETRIX
10
-157.0569
20
-3.1416
11
-157.0569
21
-8.1416
0
LINE
8
PARAMETRIX
10
-157.0569
20
-8.1416
11
-152.8276
21
-26.5076
0
ARC
8
PARAMETRIX
10
-138.2102
20
-23.1416
40
15.0000
50
192.9678
51
347.0322
0
LINE
8
PARAMETRIX
10
-123.5928
20
-26.5076
11
-119.3635
21
-8.1416
0
LINE
8
PARAMETRIX
10
-119.3635
20
-8.1416
11
-119.3635
21
-3.1416
0
LINE
8
PARAMETRIX
10
-119.3635
20
-3.1416
11
-119.3635
21
0.0000
0
LINE
8
PARAMETRIX
10
-119.3635
20
0.0000
11
-117.7927
21
0.0000
0
LINE
8
PARAMETRIX
10
-117.7927
20
0.0000
11
-117.7927
21
-3.1416
0
LINE
8
PARAMETRIX
10
-117.7927
20
-3.1416
11
-117.7927
21
-8.1416
0
LINE
8
PARAMETRIX
10
-117.7927
20
-8.1416
11
-113.5634
21
-26.5076
0
ARC
8
PARAMETRIX
10
-98.9460
20
-23.1416
40
15.0000
50
192.9678
51
347.0322
0
LINE
8
PARAMETRIX
10
-84.3285
20
-26.5076
11
-80.0993
21
-8.1416
0
LINE
8
PARAMETRIX
10
-80.0993
20
-8.1416
11
-80.0993
21
-3.1416
0
LINE
8
PARAMETRIX
10
-80.0993
20
-3.1416
11
-80.0993
21
0.0000
0
LINE
8
PARAMETRIX
10
-80.0993
20
0.0000
11
-78.5285
21
0.0000
0
LINE
8
PARAMETRIX
10
-78.5285
20
0.0000
11
-78.5285
21
-3.1416
0
LINE
8
PARAMETRIX
10
-78.5285
20
-3.1416
11
-78.5285
21
-8.1416
0
LINE
8
PARAMETRIX
10
-78.5285
20
-8.1416
11
-74.2992
21
-26.5076
0
ARC
8
PARAMETRIX
10
-59.6817
20
-23.1416
40
15.0000
50
192.9678
51
347.0322
0
LINE
8
PARAMETRIX
10
-45.0643
20
-26.5076
11
-40.8350
21
-8.1416
0
LINE
8
PARAMETRIX
10
-40.8350
20
-8.1416
11
-40.8350
21
-3.1416
0
LINE
8
PARAMETRIX
10
-40.8350
20
-3.1416
11
-40.8350
21
0.0000
0
LINE
8
PARAMETRIX
10
-40.8350
20
0.0000
11
-39.2642
21
0.0000
0
LINE
8
PARAMETRIX
10
-39.2642
20
0.0000
11
-39.2642
21
-3.1416
0
LINE
8
PARAMETRIX
10
-39.2642
20
-3.1416
11
-39.2642
21
-8.1416
0
LINE
8
PARAMETRIX
10
-39.2642
20
-8.1416
11
-35.0350
21
-26.5076
0
ARC
8
PARAMETRIX
10
-20.4175
20
-23.1416
40
15.0000
50
192.9678
51
347.0322
0
LINE
8
PARAMETRIX
10
-5.8001
20
-26.5076
11
-1.5708
21
-8.1416
0
LINE
8
PARAMETRIX
10
-1.5708
20
-8.1416
11
-1.5708
21
-3.1416
0
LINE
8
PARAMETRIX
10
-1.5708
20
-3.1416
11
-1.5708
21
0.0000
0
LINE
8
PARAMETRIX
10
-1.5708
20
0.0000
11
0.0000
21
0.0000
0
CIRCLE
8
PARAMETRIX
10
4.2500
20
4.2500
40
2.1250
0
CIRCLE
8
PARAMETRIX
10
33.4434
20
4.2500
40
2.1250
0
CIRCLE
8
PARAMETRIX
10
4.2500
20
12.7500
40
2.1250
0
CIRCLE
8
PARAMETRIX
10
33.4434
20
12.7500
40
2.1250
0
CIRCLE
8
PARAMETRIX
10
18.8467
20
-23.1416
40
8.0000
0
LINE
8
PARAMETRIX
10
36.7434
20
-5.1416
11
32.3612
21
-5.1416
0
ARC
8
PARAMETRIX
10
32.3612
20
-5.5916
40
0.4500
50
90.0000
51
180.0000
0
LINE
8
PARAMETRIX
10
31.9112
20
-5.5916
11
31.9112
21
-5.6916
0
ARC
8
PARAMETRIX
10
32.3612
20
-5.6916
40
0.4500
50
180.0000
51
270.0000
0
LINE
8
PARAMETRIX
10
32.3612
20
-6.1416
11
36.7434
21
-6.1416
0
ARC
8
PARAMETRIX
10
36.7434
20
-5.6916
40
0.4500
50
270.0000
51
0.0000
0
LINE
8
PARAMETRIX
10
37.1934
20
-5.6916
11
37.1934
21
-5.5916
0
ARC
8
PARAMETRIX
10
36.7434
20
-5.5916
40
0.4500
50
0.0000
51
90.0000
0
LINE
8
PARAMETRIX
10
30.4612
20
-5.1416
11
19.7967
21
-5.1416
0
ARC
8
PARAMETRIX
10
19.7967
20
-5.5916
40
0.4500
50
90.0000
51
180.0000
0
LINE
8
PARAMETRIX
10
19.3467
20
-5.5916
11
19.3467
21
-5.6916
0
ARC
8
PARAMETRIX
10
19.7967
20
-5.6916
40
0.4500
50
180.0000
51
270.0000
0
LINE
8
PARAMETRIX
10
19.7967
20
-6.1416
11
30.4612
21
-6.1416
0
ARC
8
PARAMETRIX
10
30.4612
20
-5.6916
40
0.4500
50
270.0000
51
0.0000
0
LINE
8
PARAMETRIX
10
30.9112
20
-5.6916
11
30.9112
21
-5.5916
0
ARC
8
PARAMETRIX
10
30.4612
20
-5.5916
40
0.4500
50
360.0000
51
90.0000
0
LINE
8
PARAMETRIX
10
17.8967
20
-5.1416
11
7.2322
21
-5.1416
0
ARC
8
PARAMETRIX
10
7.2322
20
-5.5916
40
0.4500
50
90.0000
51
180.0000
0
LINE
8
PARAMETRIX
10
6.7822
20
-5.5916
11
6.7822
21
-5.6916
0
ARC
8
PARAMETRIX
10
7.2322
20
-5.6916
40
0.4500
50
180.0000
51
270.0000
0
LINE
8
PARAMETRIX
10
7.2322
20
-6.1416
11
17.8967
21
-6.1416
0
ARC
8
PARAMETRIX
10
17.8967
20
-5.6916
40
0.4500
50
270.0000
51
0.0000
0
LINE
8
PARAMETRIX
10
18.3467
20
-5.6916
11
18.3467
21
-5.5916
0
ARC
8
PARAMETRIX
10
17.8967
20
-5.5916
40
0.4500
50
360.0000
51
90.0000
0
LINE
8
PARAMETRIX
10
5.3322
20
-5.1416
11
0.9500
21
-5.1416
0
ARC
8
PARAMETRIX
10
0.9500
20
-5.5916
40
0.4500
50
90.0000
51
180.0000
0
LINE
8
PARAMETRIX
10
0.5000
20
-5.5916
11
0.5000
21
-5.6916
0
ARC
8
PARAMETRIX
10
0.9500
20
-5.6916
40
0.4500
50
180.0000
51
270.0000
0
LINE
8
PARAMETRIX
10
0.9500
20
-6.1416
11
5.3322
21
-6.1416
0
ARC
8
PARAMETRIX
10
5.3322
20
-5.6916
40
0.4500
50
270.0000
51
0.0000
0
LINE
8
PARAMETRIX
10
5.7822
20
-5.6916
11
5.7822
21
-5.5916
0
ARC
8
PARAMETRIX
10
5.3322
20
-5.5916
40
0.4500
50
0.0000
51
90.0000
0
LINE
8
PARAMETRIX
10
36.7434
20
-7.1416
11
26.0790
21
-7.1416
0
ARC
8
PARAMETRIX
10
26.0790
20
-7.5916
40
0.4500
50
90.0000
51
180.0000
0
LINE
8
PARAMETRIX
10
25.6290
20
-7.5916
11
25.6290
21
-7.6916
0
ARC
8
PARAMETRIX
10
26.0790
20
-7.6916
40
0.4500
50
180.0000
51
270.0000
0
LINE
8
PARAMETRIX
10
26.0790
20
-8.1416
11
36.7434
21
-8.1416
0
ARC
8
PARAMETRIX
10
36.7434
20
-7.6916
40
0.4500
50
270.0000
51
0.0000
0
LINE
8
PARAMETRIX
10
37.1934
20
-7.6916
11
37.1934
21
-7.5916
0
ARC
8
PARAMETRIX
10
36.7434
20
-7.5916
40
0.4500
50
360.0000
51
90.0000
0
LINE
8
PARAMETRIX
10
24.1790
20
-7.1416
11
13.5145
21
-7.1416
0
ARC
8
PARAMETRIX
10
13.5145
20
-7.5916
40
0.4500
50
90.0000
51
180.0000
0
LINE
8
PARAMETRIX
10
13.0645
20
-7.5916
11
13.0645
21
-7.6916
0
ARC
8
PARAMETRIX
10
13.5145
20
-7.6916
40
0.4500
50
180.0000
51
270.0000
0
LINE
8
PARAMETRIX
10
13.5145
20
-8.1416
11
24.1790
21
-8.1416
0
ARC
8
PARAMETRIX
10
24.1790
20
-7.6916
40
0.4500
50
270.0000
51
0.0000
0
LINE
8
PARAMETRIX
10
24.6290
20
-7.6916
11
24.6290
21
-7.5916
0
ARC
8
PARAMETRIX
10
24.1790
20
-7.5916
40
0.4500
50
360.0000
51
90.0000
0
LINE
8
PARAMETRIX
10
11.6145
20
-7.1416
11
0.9500
21
-7.1416
0
ARC
8
PARAMETRIX
10
0.9500
20
-7.5916
40
0.4500
50
90.0000
51
180.0000
0
LINE
8
PARAMETRIX
10
0.5000
20
-7.5916
11
0.5000
21
-7.6916
0
ARC
8
PARAMETRIX
10
0.9500
20
-7.6916
40
0.4500
50
180.0000
51
270.0000
0
LINE
8
PARAMETRIX
10
0.9500
20
-8.1416
11
11.6145
21
-8.1416
0
ARC
8
PARAMETRIX
10
11.6145
20
-7.6916
40
0.4500
50
270.0000
51
0.0000
0
LINE
8
PARAMETRIX
10
12.0645
20
-7.6916
11
12.0645
21
-7.5916
0
ARC
8
PARAMETRIX
10
11.6145
20
-7.5916
40
0.4500
50
0.0000
51
90.0000
0
LINE
8
PARAMETRIX
10
36.3980
20
-9.1416
11
32.1309
21
-9.1416
0
ARC
8
PARAMETRIX
10
32.1309
20
-9.5916
40
0.4500
50
90.0000
51
180.0000
0
LINE
8
PARAMETRIX
10
31.6809
20
-9.5916
11
31.6809
21
-9.6916
0
ARC
8
PARAMETRIX
10
32.1309
20
-9.6916
40
0.4500
50
180.0000
51
270.0000
0
LINE
8
PARAMETRIX
10
32.1309
20
-10.1416
11
36.3980
21
-10.1416
0
ARC
8
PARAMETRIX
10
36.3980
20
-9.6916
40
0.4500
50
270.0000
51
0.0000
0
LINE
8
PARAMETRIX
10
36.8480
20
-9.6916
11
36.8480
21
-9.5916
0
ARC
8
PARAMETRIX
10
36.3980
20
-9.5916
40
0.4500
50
0.0000
51
90.0000
0
LINE
8
PARAMETRIX
10
30.2309
20
-9.1416
11
19.7967
21
-9.1416
0
ARC
8
PARAMETRIX
10
19.7967
20
-9.5916
40
0.4500
50
90.0000
51
180.0000
0
LINE
8
PARAMETRIX
10
19.3467
20
-9.5916
11
19.3467
21
-9.6916
0
ARC
8
PARAMETRIX
10
19.7967
20
-9.6916
40
0.4500
50
180.0000
51
270.0000
0
LINE
8
PARAMETRIX
10
19.7967
20
-10.1416
11
30.2309
21
-10.1416
0
ARC
8
PARAMETRIX
10
30.2309
20
-9.6916
40
0.4500
50
270.0000
51
0.0000
0
LINE
8
PARAMETRIX
10
30.6809
20
-9.6916
11
30.6809
21
-9.5916
0
ARC
8
PARAMETRIX
10
30.2309
20
-9.5916
40
0.4500
50
360.0000
51
90.0000
0
LINE
8
PARAMETRIX
10
17.8967
20
-9.1416
11
7.4625
21
-9.1416
0
ARC
8
PARAMETRIX
10
7.4625
20
-9.5916
40
0.4500
50
90.0000
51
180.0000
0
LINE
8
PARAMETRIX
10
7.0125
20
-9.5916
11
7.0125
21
-9.6916
0
ARC
8
PARAMETRIX
10
7.4625
20
-9.6916
40
0.4500
50
180.0000
51
270.0000
0
LINE
8
PARAMETRIX
10
7.4625
20
-10.1416
11
17.8967
21
-10.1416
0
ARC
8
PARAMETRIX
10
17.8967
20
-9.6916
40
0.4500
50
270.0000
51
0.0000
0
LINE
8
PARAMETRIX
10
18.3467
20
-9.6916
11
18.3467
21
-9.5916
0
ARC
8
PARAMETRIX
10
17.8967
20
-9.5916
40
0.4500
50
360.0000
51
90.0000
0
LINE
8
PARAMETRIX
10
5.5625
20
-9.1416
11
1.2954
21
-9.1416
0
ARC
8
PARAMETRIX
10
1.2954
20
-9.5916
40
0.4500
50
90.0000
51
180.0000
0
LINE
8
PARAMETRIX
10
0.8454
20
-9.5916
11
0.8454
21
-9.6916
0
ARC
8
PARAMETRIX
10
1.2954
20
-9.6916
40
0.4500
50
180.0000
51
270.0000
0
LINE
8
PARAMETRIX
10
1.2954
20
-10.1416
11
5.5625
21
-10.1416
0
ARC
8
PARAMETRIX
10
5.5625
20
-9.6916
40
0.4500
50
270.0000
51
0.0000
0
LINE
8
PARAMETRIX
10
6.0125
20
-9.6916
11
6.0125
21
-9.5916
0
ARC
8
PARAMETRIX
10
5.5625
20
-9.5916
40
0.4500
50
0.0000
51
90.0000
0
LINE
8
PARAMETRIX
10
35.9375
20
-11.1416
11
25.8103
21
-11.1416
0
ARC
8
PARAMETRIX
10
25.8103
20
-11.5916
40
0.4500
50
90.0000
51
180.0000
0
LINE
8
PARAMETRIX
10
25.3603
20
-11.5916
11
25.3603
21
-11.6916
0
ARC
8
PARAMETRIX
10
25.8103
20
-11.6916
40
0.4500
50
180.0000
51
270.0000
0
LINE
8
PARAMETRIX
10
25.8103
20
-12.1416
11
35.9375
21
-12.1416
0
ARC
8
PARAMETRIX
10
35.9375
20
-11.6916
40
0.4500
50
270.0000
51
0.0000
0
LINE
8
PARAMETRIX
10
36.3875
20
-11.6916
11
36.3875
21
-11.5916
0
ARC
8
PARAMETRIX
10
35.9375
20
-11.5916
40
0.4500
50
0.0000
51
90.0000
0
LINE
8
PARAMETRIX
10
23.9103
20
-11.1416
11
13.7831
21
-11.1416
0
ARC
8
PARAMETRIX
10
13.7831
20
-11.5916
40
0.4500
50
90.0000
51
180.0000
0
LINE
8
PARAMETRIX
10
13.3331
20
-11.5916
11
13.3331
21
-11.6916
0
ARC
8
PARAMETRIX
10
13.7831
20
-11.6916
40
0.4500
50
180.0000
51
270.0000
0
LINE
8
PARAMETRIX
10
13.7831
20
-12.1416
11
23.9103
21
-12.1416
0
ARC
8
PARAMETRIX
10
23.9103
20
-11.6916
40
0.4500
50
270.0000
51
0.0000
0
LINE
8
PARAMETRIX
10
24.3603
20
-11.6916
11
24.3603
21
-11.5916
0
ARC
8
PARAMETRIX
10
23.9103
20
-11.5916
40
0.4500
50
0.0000
51
90.0000
0
LINE
8
PARAMETRIX
10
11.8831
20
-11.1416
11
1.7560
21
-11.1416
0
ARC
8
PARAMETRIX
10
1.7560
20
-11.5916
40
0.4500
50
90.0000
51
180.0000
0
LINE
8
PARAMETRIX
10
1.3060
20
-11.5916
11
1.3060
21
-11.6916
0
ARC
8
PARAMETRIX
10
1.7560
20
-11.6916
40
0.4500
50
180.0000
51
270.0000
0
LINE
8
PARAMETRIX
10
1.7560
20
-12.1416
11
11.8831
21
-12.1416
0
ARC
8
PARAMETRIX
10
11.8831
20
-11.6916
40
0.4500
50
270.0000
51
0.0000
0
LINE
8
PARAMETRIX
10
12.3331
20
-11.6916
11
12.3331
21
-11.5916
0
ARC
8
PARAMETRIX
10
11.8831
20
-11.5916
40
0.4500
50
0.0000
51
90.0000
0
CIRCLE
8
PARAMETRIX
10
18.8467
20
40.1416
40
8.0000
0
LINE
8
PARAMETRIX
10
0.9500
20
22.1416
11
5.3322
21
22.1416
0
ARC
8
PARAMETRIX
10
5.3322
20
22.5916
40
0.4500
50
270.0000
51
0.0000
0
LINE
8
PARAMETRIX
10
5.7822
20
22.5916
11
5.7822
21
22.6916
0
ARC
8
PARAMETRIX
10
5.3322
20
22.6916
40
0.4500
50
0.0000
51
90.0000
0
LINE
8
PARAMETRIX
10
5.3322
20
23.1416
11
0.9500
21
23.1416
0
ARC
8
PARAMETRIX
10
0.9500
20
22.6916
40
0.4500
50
90.0000
51
180.0000
0
LINE
8
PARAMETRIX
10
0.5000
20
22.6916
11
0.5000
21
22.5916
0
ARC
8
PARAMETRIX
10
0.9500
20
22.5916
40
0.4500
50
180.0000
51
270.0000
0
LINE
8
PARAMETRIX
10
7.2322
20
22.1416
11
17.8967
21
22.1416
0
ARC
8
PARAMETRIX
10
17.8967
20
22.5916
40
0.4500
50
270.0000
51
0.0000
0
LINE
8
PARAMETRIX
10
18.3467
20
22.5916
11
18.3467
21
22.6916
0
ARC
8
PARAMETRIX
10
17.8967
20
22.6916
40
0.4500
50
0.0000
51
90.0000
0
LINE
8
PARAMETRIX
10
17.8967
20
23.1416
11
7.2322
21
23.1416
0
ARC
8
PARAMETRIX
10
7.2322
20
22.6916
40
0.4500
50
90.0000
51
180.0000
0
LINE
8
PARAMETRIX
10
6.7822
20
22.6916
11
6.7822
21
22.5916
0
ARC
8
PARAMETRIX
10
7.2322
20
22.5916
40
0.4500
50
180.0000
51
270.0000
0
LINE
8
PARAMETRIX
10
19.7967
20
22.1416
11
30.4612
21
22.1416
0
ARC
8
PARAMETRIX
10
30.4612
20
22.5916
40
0.4500
50
270.0000
51
0.0000
0
LINE
8
PARAMETRIX
10
30.9112
20
22.5916
11
30.9112
21
22.6916
0
ARC
8
PARAMETRIX
10
30.4612
20
22.6916
40
0.4500
50
0.0000
51
90.0000
0
LINE
8
PARAMETRIX
10
30.4612
20
23.1416
11
19.7967
21
23.1416
0
ARC
8
PARAMETRIX
10
19.7967
20
22.6916
40
0.4500
50
90.0000
51
180.0000
0
LINE
8
PARAMETRIX
10
19.3467
20
22.6916
11
19.3467
21
22.5916
0
ARC
8
PARAMETRIX
10
19.7967
20
22.5916
40
0.4500
50
180.0000
51
270.0000
0
LINE
8
PARAMETRIX
10
32.3612
20
22.1416
11
36.7434
21
22.1416
0
ARC
8
PARAMETRIX
10
36.7434
20
22.5916
40
0.4500
50
270.0000
51
0.0000
0
LINE
8
PARAMETRIX
10
37.1934
20
22.5916
11
37.1934
21
22.6916
0
ARC
8
PARAMETRIX
10
36.7434
20
22.6916
40
0.4500
50
0.0000
51
90.0000
0
LINE
8
PARAMETRIX
10
36.7434
20
23.1416
11
32.3612
21
23.1416
0
ARC
8
PARAMETRIX
10
32.3612
20
22.6916
40
0.4500
50
90.0000
51
180.0000
0
LINE
8
PARAMETRIX
10
31.9112
20
22.6916
11
31.9112
21
22.5916
0
ARC
8
PARAMETRIX
10
32.3612
20
22.5916
40
0.4500
50
180.0000
51
270.0000
0
LINE
8
PARAMETRIX
10
0.9500
20
24.1416
11
11.6145
21
24.1416
0
ARC
8
PARAMETRIX
10
11.6145
20
24.5916
40
0.4500
50
270.0000
51
0.0000
0
LINE
8
PARAMETRIX
10
12.0645
20
24.5916
11
12.0645
21
24.6916
0
ARC
8
PARAMETRIX
10
11.6145
20
24.6916
40
0.4500
50
0.0000
51
90.0000
0
LINE
8
PARAMETRIX
10
11.6145
20
25.1416
11
0.9500
21
25.1416
0
ARC
8
PARAMETRIX
10
0.9500
20
24.6916
40
0.4500
50
90.0000
51
180.0000
0
LINE
8
PARAMETRIX
10
0.5000
20
24.6916
11
0.5000
21
24.5916
0
ARC
8
PARAMETRIX
10
0.9500
20
24.5916
40
0.4500
50
180.0000
51
270.0000
0
LINE
8
PARAMETRIX
10
13.5145
20
24.1416
11
24.1790
21
24.1416
0
ARC
8
PARAMETRIX
10
24.1790
20
24.5916
40
0.4500
50
270.0000
51
0.0000
0
LINE
8
PARAMETRIX
10
24.6290
20
24.5916
11
24.6290
21
24.6916
0
ARC
8
PARAMETRIX
10
24.1790
20
24.6916
40
0.4500
50
360.0000
51
90.0000
0
LINE
8
PARAMETRIX
10
24.1790
20
25.1416
11
13.5145
21
25.1416
0
ARC
8
PARAMETRIX
10
13.5145
20
24.6916
40
0.4500
50
90.0000
51
180.0000
0
LINE
8
PARAMETRIX
10
13.0645
20
24.6916
11
13.0645
21
24.5916
0
ARC
8
PARAMETRIX
10
13.5145
20
24.5916
40
0.4500
50
180.0000
51
270.0000
0
LINE
8
PARAMETRIX
10
26.0790
20
24.1416
11
36.7434
21
24.1416
0
ARC
8
PARAMETRIX
10
36.7434
20
24.5916
40
0.4500
50
270.0000
51
0.0000
0
LINE
8
PARAMETRIX
10
37.1934
20
24.5916
11
37.1934
21
24.6916
0
ARC
8
PARAMETRIX
10
36.7434
20
24.6916
40
0.4500
50
0.0000
51
90.0000
0
LINE
8
PARAMETRIX
10
36.7434
20
25.1416
11
26.0790
21
25.1416
0
ARC
8
PARAMETRIX
10
26.0790
20
24.6916
40
0.4500
50
90.0000
51
180.0000
0
LINE
8
PARAMETRIX
10
25.6290
20
24.6916
11
25.6290
21
24.5916
0
ARC
8
PARAMETRIX
10
26.0790
20
24.5916
40
0.4500
50
180.0000
51
270.0000
0
LINE
8
PARAMETRIX
10
1.2954
20
26.1416
11
5.5625
21
26.1416
0
ARC
8
PARAMETRIX
10
5.5625
20
26.5916
40
0.4500
50
270.0000
51
0.0000
0
LINE
8
PARAMETRIX
10
6.0125
20
26.5916
11
6.0125
21
26.6916
0
ARC
8
PARAMETRIX
10
5.5625
20
26.6916
40
0.4500
50
0.0000
51
90.0000
0
LINE
8
PARAMETRIX
10
5.5625
20
27.1416
11
1.2954
21
27.1416
0
ARC
8
PARAMETRIX
10
1.2954
20
26.6916
40
0.4500
50
90.0000
51
180.0000
0
LINE
8
PARAMETRIX
10
0.8454
20
26.6916
11
0.8454
21
26.5916
0
ARC
8
PARAMETRIX
10
1.2954
20
26.5916
40
0.4500
50
180.0000
51
270.0000
0
LINE
8
PARAMETRIX
10
7.4625
20
26.1416
11
17.8967
21
26.1416
0
ARC
8
PARAMETRIX
10
17.8967
20
26.5916
40
0.4500
50
270.0000
51
0.0000
0
LINE
8
PARAMETRIX
10
18.3467
20
26.5916
11
18.3467
21
26.6916
0
ARC
8
PARAMETRIX
10
17.8967
20
26.6916
40
0.4500
50
0.0000
51
90.0000
0
LINE
8
PARAMETRIX
10
17.8967
20
27.1416
11
7.4625
21
27.1416
0
ARC
8
PARAMETRIX
10
7.4625
20
26.6916
40
0.4500
50
90.0000
51
180.0000
0
LINE
8
PARAMETRIX
10
7.0125
20
26.6916
11
7.0125
21
26.5916
0
ARC
8
PARAMETRIX
10
7.4625
20
26.5916
40
0.4500
50
180.0000
51
270.0000
0
LINE
8
PARAMETRIX
10
19.7967
20
26.1416
11
30.2309
21
26.1416
0
ARC
8
PARAMETRIX
10
30.2309
20
26.5916
40
0.4500
50
270.0000
51
0.0000
0
LINE
8
PARAMETRIX
10
30.6809
20
26.5916
11
30.6809
21
26.6916
0
ARC
8
PARAMETRIX
10
30.2309
20
26.6916
40
0.4500
50
0.0000
51
90.0000
0
LINE
8
PARAMETRIX
10
30.2309
20
27.1416
11
19.7967
21
27.1416
0
ARC
8
PARAMETRIX
10
19.7967
20
26.6916
40
0.4500
50
90.0000
51
180.0000
0
LINE
8
PARAMETRIX
10
19.3467
20
26.6916
11
19.3467
21
26.5916
0
ARC
8
PARAMETRIX
10
19.7967
20
26.5916
40
0.4500
50
180.0000
51
270.0000
0
LINE
8
PARAMETRIX
10
32.1309
20
26.1416
11
36.3980
21
26.1416
0
ARC
8
PARAMETRIX
10
36.3980
20
26.5916
40
0.4500
50
270.0000
51
360.0000
0
LINE
8
PARAMETRIX
10
36.8480
20
26.5916
11
36.8480
21
26.6916
0
ARC
8
PARAMETRIX
10
36.3980
20
26.6916
40
0.4500
50
360.0000
51
90.0000
0
LINE
8
PARAMETRIX
10
36.3980
20
27.1416
11
32.1309
21
27.1416
0
ARC
8
PARAMETRIX
10
32.1309
20
26.6916
40
0.4500
50
90.0000
51
180.0000
0
LINE
8
PARAMETRIX
10
31.6809
20
26.6916
11
31.6809
21
26.5916
0
ARC
8
PARAMETRIX
10
32.1309
20
26.5916
40
0.4500
50
180.0000
51
270.0000
0
LINE
8
PARAMETRIX
10
1.7560
20
28.1416
11
11.8831
21
28.1416
0
ARC
8
PARAMETRIX
10
11.8831
20
28.5916
40
0.4500
50
270.0000
51
0.0000
0
LINE
8
PARAMETRIX
10
12.3331
20
28.5916
11
12.3331
21
28.6916
0
ARC
8
PARAMETRIX
10
11.8831
20
28.6916
40
0.4500
50
0.0000
51
90.0000
0
LINE
8
PARAMETRIX
10
11.8831
20
29.1416
11
1.7560
21
29.1416
0
ARC
8
PARAMETRIX
10
1.7560
20
28.6916
40
0.4500
50
90.0000
51
180.0000
0
LINE
8
PARAMETRIX
10
1.3060
20
28.6916
11
1.3060
21
28.5916
0
ARC
8
PARAMETRIX
10
1.7560
20
28.5916
40
0.4500
50
180.0000
51
270.0000
0
LINE
8
PARAMETRIX
10
13.7831
20
28.1416
11
23.9103
21
28.1416
0
ARC
8
PARAMETRIX
10
23.9103
20
28.5916
40
0.4500
50
270.0000
51
0.0000
0
LINE
8
PARAMETRIX
10
24.3603
20
28.5916
11
24.3603
21
28.6916
0
ARC
8
PARAMETRIX
10
23.9103
20
28.6916
40
0.4500
50
0.0000
51
90.0000
0
LINE
8
PARAMETRIX
10
23.9103
20
29.1416
11
13.7831
21
29.1416
0
ARC
8
PARAMETRIX
10
13.7831
20
28.6916
40
0.4500
50
90.0000
51
180.0000
0
LINE
8
PARAMETRIX
10
13.3331
20
28.6916
11
13.3331
21
28.5916
0
ARC
8
PARAMETRIX
10
13.7831
20
28.5916
40
0.4500
50
180.0000
51
270.0000
0
LINE
8
PARAMETRIX
10
25.8103
20
28.1416
11
35.9375
21
28.1416
0
ARC
8
PARAMETRIX
10
35.9375
20
28.5916
40
0.4500
50
270.0000
51
360.0000
0
LINE
8
PARAMETRIX
10
36.3875
20
28.5916
11
36.3875
21
28.6916
0
ARC
8
PARAMETRIX
10
35.9375
20
28.6916
40
0.4500
50
0.0000
51
90.0000
0
LINE
8
PARAMETRIX
10
35.9375
20
29.1416
11
25.8103
21
29.1416
0
ARC
8
PARAMETRIX
10
25.8103
20
28.6916
40
0.4500
50
90.0000
51
180.0000
0
LINE
8
PARAMETRIX
10
25.3603
20
28.6916
11
25.3603
21
28.5916
0
ARC
8
PARAMETRIX
10
25.8103
20
28.5916
40
0.4500
50
180.0000
51
270.0000
0
CIRCLE
8
PARAMETRIX
10
-35.0142
20
4.2500
40
2.1250
0
CIRCLE
8
PARAMETRIX
10
-5.8208
20
4.2500
40
2.1250
0
CIRCLE
8
PARAMETRIX
10
-35.0142
20
12.7500
40
2.1250
0
CIRCLE
8
PARAMETRIX
10
-5.8208
20
12.7500
40
2.1250
0
CIRCLE
8
PARAMETRIX
10
-20.4175
20
-23.1416
40
8.0000
0
LINE
8
PARAMETRIX
10
-2.5208
20
-5.1416
11
-6.9030
21
-5.1416
0
ARC
8
PARAMETRIX
10
-6.9030
20
-5.5916
40
0.4500
50
90.0000
51
180.0000
0
LINE
8
PARAMETRIX
10
-7.3530
20
-5.5916
11
-7.3530
21
-5.6916
0
ARC
8
PARAMETRIX
10
-6.9030
20
-5.6916
40
0.4500
50
180.0000
51
270.0000
0
LINE
8
PARAMETRIX
10
-6.9030
20
-6.1416
11
-2.5208
21
-6.1416
0
ARC
8
PARAMETRIX
10
-2.5208
20
-5.6916
40
0.4500
50
270.0000
51
0.0000
0
LINE
8
PARAMETRIX
10
-2.0708
20
-5.6916
11
-2.0708
21
-5.5916
0
ARC
8
PARAMETRIX
10
-2.5208
20
-5.5916
40
0.4500
50
360.0000
51
90.0000
0
LINE
8
PARAMETRIX
10
-8.8030
20
-5.1416
11
-19.4675
21
-5.1416
0
ARC
8
PARAMETRIX
10
-19.4675
20
-5.5916
40
0.4500
50
90.0000
51
180.0000
0
LINE
8
PARAMETRIX
10
-19.9175
20
-5.5916
11
-19.9175
21
-5.6916
0
ARC
8
PARAMETRIX
10
-19.4675
20
-5.6916
40
0.4500
50
180.0000
51
270.0000
0
LINE
8
PARAMETRIX
10
-19.4675
20
-6.1416
11
-8.8030
21
-6.1416
0
ARC
8
PARAMETRIX
10
-8.8030
20
-5.6916
40
0.4500
50
270.0000
51
0.0000
0
LINE
8
PARAMETRIX
10
-8.3530
20
-5.6916
11
-8.3530
21
-5.5916
0
ARC
8
PARAMETRIX
10
-8.8030
20
-5.5916
40
0.4500
50
0.0000
51
90.0000
0
LINE
8
PARAMETRIX
10
-21.3675
20
-5.1416
11
-32.0320
21
-5.1416
0
ARC
8
PARAMETRIX
10
-32.0320
20
-5.5916
40
0.4500
50
90.0000
51
180.0000
0
LINE
8
PARAMETRIX
10
-32.4820
20
-5.5916
11
-32.4820
21
-5.6916
0
ARC
8
PARAMETRIX
10
-32.0320
20
-5.6916
40
0.4500
50
180.0000
51
270.0000
0
LINE
8
PARAMETRIX
10
-32.0320
20
-6.1416
11
-21.3675
21
-6.1416
0
ARC
8
PARAMETRIX
10
-21.3675
20
-5.6916
40
0.4500
50
270.0000
51
0.0000
0
LINE
8
PARAMETRIX
10
-20.9175
20
-5.6916
11
-20.9175
21
-5.5916
0
ARC
8
PARAMETRIX
10
-21.3675
20
-5.5916
40
0.4500
50
0.0000
51
90.0000
0
LINE
8
PARAMETRIX
10
-33.9320
20
-5.1416
11
-38.3142
21
-5.1416
0
ARC
8
PARAMETRIX
10
-38.3142
20
-5.5916
40
0.4500
50
90.0000
51
180.0000
0
LINE
8
PARAMETRIX
10
-38.7642
20
-5.5916
11
-38.7642
21
-5.6916
0
ARC
8
PARAMETRIX
10
-38.3142
20
-5.6916
40
0.4500
50
180.0000
51
270.0000
0
LINE
8
PARAMETRIX
10
-38.3142
20
-6.1416
11
-33.9320
21
-6.1416
0
ARC
8
PARAMETRIX
10
-33.9320
20
-5.6916
40
0.4500
50
270.0000
51
0.0000
0
LINE
8
PARAMETRIX
10
-33.4820
20
-5.6916
11
-33.4820
21
-5.5916
0
ARC
8
PARAMETRIX
10
-33.9320
20
-5.5916
40
0.4500
50
360.0000
51
90.0000
0
LINE
8
PARAMETRIX
10
-2.5208
20
-7.1416
11
-13.1853
21
-7.1416
0
ARC
8
PARAMETRIX
10
-13.1853
20
-7.5916
40
0.4500
50
90.0000
51
180.0000
0
LINE
8
PARAMETRIX
10
-13.6353
20
-7.5916
11
-13.6353
21
-7.6916
0
ARC
8
PARAMETRIX
10
-13.1853
20
-7.6916
40
0.4500
50
180.0000
51
270.0000
0
LINE
8
PARAMETRIX
10
-13.1853
20
-8.1416
11
-2.5208
21
-8.1416
0
ARC
8
PARAMETRIX
10
-2.5208
20
-7.6916
40
0.4500
50
270.0000
51
0.0000
0
LINE
8
PARAMETRIX
10
-2.0708
20
-7.6916
11
-2.0708
21
-7.5916
0
ARC
8
PARAMETRIX
10
-2.5208
20
-7.5916
40
0.4500
50
0.0000
51
90.0000
0
LINE
8
PARAMETRIX
10
-15.0853
20
-7.1416
11
-25.7498
21
-7.1416
0
ARC
8
PARAMETRIX
10
-25.7498
20
-7.5916
40
0.4500
50
90.0000
51
180.0000
0
LINE
8
PARAMETRIX
10
-26.1998
20
-7.5916
11
-26.1998
21
-7.6916
0
ARC
8
PARAMETRIX
10
-25.7498
20
-7.6916
40
0.4500
50
180.0000
51
270.0000
0
LINE
8
PARAMETRIX
10
-25.7498
20
-8.1416
11
-15.0853
21
-8.1416
0
ARC
8
PARAMETRIX
10
-15.0853
20
-7.6916
40
0.4500
50
270.0000
51
0.0000
0
LINE
8
PARAMETRIX
10
-14.6353
20
-7.6916
11
-14.6353
21
-7.5916
0
ARC
8
PARAMETRIX
10
-15.0853
20
-7.5916
40
0.4500
50
0.0000
51
90.0000
0
LINE
8
PARAMETRIX
10
-27.6498
20
-7.1416
11
-38.3142
21
-7.1416
0
ARC
8
PARAMETRIX
10
-38.3142
20
-7.5916
40
0.4500
50
90.0000
51
180.0000
0
LINE
8
PARAMETRIX
10
-38.7642
20
-7.5916
11
-38.7642
21
-7.6916
0
ARC
8
PARAMETRIX
10
-38.3142
20
-7.6916
40
0.4500
50
180.0000
51
270.0000
0
LINE
8
PARAMETRIX
10
-38.3142
20
-8.1416
11
-27.6498
21
-8.1416
0
ARC
8
PARAMETRIX
10
-27.6498
20
-7.6916
40
0.4500
50
270.0000
51
0.0000
0
LINE
8
PARAMETRIX
10
-27.1998
20
-7.6916
11
-27.1998
21
-7.5916
0
ARC
8
PARAMETRIX
10
-27.6498
20
-7.5916
40
0.4500
50
0.0000
51
90.0000
0
LINE
8
PARAMETRIX
10
-2.8662
20
-9.1416
11
-7.1333
21
-9.1416
0
ARC
8
PARAMETRIX
10
-7.1333
20
-9.5916
40
0.4500
50
90.0000
51
180.0000
0
LINE
8
PARAMETRIX
10
-7.5833
20
-9.5916
11
-7.5833
21
-9.6916
0
ARC
8
PARAMETRIX
10
-7.1333
20
-9.6916
40
0.4500
50
180.0000
51
270.0000
0
LINE
8
PARAMETRIX
10
-7.1333
20
-10.1416
11
-2.8662
21
-10.1416
0
ARC
8
PARAMETRIX
10
-2.8662
20
-9.6916
40
0.4500
50
270.0000
51
0.0000
0
LINE
8
PARAMETRIX
10
-2.4162
20
-9.6916
11
-2.4162
21
-9.5916
0
ARC
8
PARAMETRIX
10
-2.8662
20
-9.5916
40
0.4500
50
0.0000
51
90.0000
0
LINE
8
PARAMETRIX
10
-9.0333
20
-9.1416
11
-19.4675
21
-9.1416
0
ARC
8
PARAMETRIX
10
-19.4675
20
-9.5916
40
0.4500
50
90.0000
51
180.0000
0
LINE
8
PARAMETRIX
10
-19.9175
20
-9.5916
11
-19.9175
21
-9.6916
0
ARC
8
PARAMETRIX
10
-19.4675
20
-9.6916
40
0.4500
50
180.0000
51
270.0000
0
LINE
8
PARAMETRIX
10
-19.4675
20
-10.1416
11
-9.0333
21
-10.1416
0
ARC
8
PARAMETRIX
10
-9.0333
20
-9.6916
40
0.4500
50
270.0000
51
0.0000
0
LINE
8
PARAMETRIX
10
-8.5833
20
-9.6916
11
-8.5833
21
-9.5916
0
ARC
8
PARAMETRIX
10
-9.0333
20
-9.5916
40
0.4500
50
0.0000
51
90.0000
0
LINE
8
PARAMETRIX
10
-21.3675
20
-9.1416
11
-31.8017
21
-9.1416
0
ARC
8
PARAMETRIX
10
-31.8017
20
-9.5916
40
0.4500
50
90.0000
51
180.0000
0
LINE
8
PARAMETRIX
10
-32.2517
20
-9.5916
11
-32.2517
21
-9.6916
0
ARC
8
PARAMETRIX
10
-31.8017
20
-9.6916
40
0.4500
50
180.0000
51
270.0000
0
LINE
8
PARAMETRIX
10
-31.8017
20
-10.1416
11
-21.3675
21
-10.1416
0
ARC
8
PARAMETRIX
10
-21.3675
20
-9.6916
40
0.4500
50
270.0000
51
360.0000
0
LINE
8
PARAMETRIX
10
-20.9175
20
-9.6916
11
-20.9175
21
-9.5916
0
ARC
8
PARAMETRIX
10
-21.3675
20
-9.5916
40
0.4500
50
360.0000
51
90.0000
0
LINE
8
PARAMETRIX
10
-33.7017
20
-9.1416
11
-37.9688
21
-9.1416
0
ARC
8
PARAMETRIX
10
-37.9688
20
-9.5916
40
0.4500
50
90.0000
51
180.0000
0
LINE
8
PARAMETRIX
10
-38.4188
20
-9.5916
11
-38.4188
21
-9.6916
0
ARC
8
PARAMETRIX
10
-37.9688
20
-9.6916
40
0.4500
50
180.0000
51
270.0000
0
LINE
8
PARAMETRIX
10
-37.9688
20
-10.1416
11
-33.7017
21
-10.1416
0
ARC
8
PARAMETRIX
10
-33.7017
20
-9.6916
40
0.4500
50
270.0000
51
0.0000
0
LINE
8
PARAMETRIX
10
-33.2517
20
-9.6916
11
-33.2517
21
-9.5916
0
ARC
8
PARAMETRIX
10
-33.7017
20
-9.5916
40
0.4500
50
0.0000
51
90.0000
0
LINE
8
PARAMETRIX
10
-3.3268
20
-11.1416
11
-13.4539
21
-11.1416
0
ARC
8
PARAMETRIX
10
-13.4539
20
-11.5916
40
0.4500
50
90.0000
51
180.0000
0
LINE
8
PARAMETRIX
10
-13.9039
20
-11.5916
11
-13.9039
21
-11.6916
0
ARC
8
PARAMETRIX
10
-13.4539
20
-11.6916
40
0.4500
50
180.0000
51
270.0000
0
LINE
8
PARAMETRIX
10
-13.4539
20
-12.1416
11
-3.3268
21
-12.1416
0
ARC
8
PARAMETRIX
10
-3.3268
20
-11.6916
40
0.4500
50
270.0000
51
0.0000
0
LINE
8
PARAMETRIX
10
-2.8768
20
-11.6916
11
-2.8768
21
-11.5916
0
ARC
8
PARAMETRIX
10
-3.3268
20
-11.5916
40
0.4500
50
360.0000
51
90.0000
0
LINE
8
PARAMETRIX
10
-15.3539
20
-11.1416
11
-25.4811
21
-11.1416
0
ARC
8
PARAMETRIX
10
-25.4811
20
-11.5916
40
0.4500
50
90.0000
51
180.0000
0
LINE
8
PARAMETRIX
10
-25.9311
20
-11.5916
11
-25.9311
21
-11.6916
0
ARC
8
PARAMETRIX
10
-25.4811
20
-11.6916
40
0.4500
50
180.0000
51
270.0000
0
LINE
8
PARAMETRIX
10
-25.4811
20
-12.1416
11
-15.3539
21
-12.1416
0
ARC
8
PARAMETRIX
10
-15.3539
20
-11.6916
40
0.4500
50
270.0000
51
0.0000
0
LINE
8
PARAMETRIX
10
-14.9039
20
-11.6916
11
-14.9039
21
-11.5916
0
ARC
8
PARAMETRIX
10
-15.3539
20
-11.5916
40
0.4500
50
0.0000
51
90.0000
0
LINE
8
PARAMETRIX
10
-27.3811
20
-11.1416
11
-37.5083
21
-11.1416
0
ARC
8
PARAMETRIX
10
-37.5083
20
-11.5916
40
0.4500
50
90.0000
51
180.0000
0
LINE
8
PARAMETRIX
10
-37.9583
20
-11.5916
11
-37.9583
21
-11.6916
0
ARC
8
PARAMETRIX
10
-37.5083
20
-11.6916
40
0.4500
50
180.0000
51
270.0000
0
LINE
8
PARAMETRIX
10
-37.5083
20
-12.1416
11
-27.3811
21
-12.1416
0
ARC
8
PARAMETRIX
10
-27.3811
20
-11.6916
40
0.4500
50
270.0000
51
0.0000
0
LINE
8
PARAMETRIX
10
-26.9311
20
-11.6916
11
-26.9311
21
-11.5916
0
ARC
8
PARAMETRIX
10
-27.3811
20
-11.5916
40
0.4500
50
360.0000
51
90.0000
0
CIRCLE
8
PARAMETRIX
10
-20.4175
20
40.1416
40
8.0000
0
LINE
8
PARAMETRIX
10
-38.3142
20
22.1416
11
-33.9320
21
22.1416
0
ARC
8
PARAMETRIX
10
-33.9320
20
22.5916
40
0.4500
50
270.0000
51
0.0000
0
LINE
8
PARAMETRIX
10
-33.4820
20
22.5916
11
-33.4820
21
22.6916
0
ARC
8
PARAMETRIX
10
-33.9320
20
22.6916
40
0.4500
50
0.0000
51
90.0000
0
LINE
8
PARAMETRIX
10
-33.9320
20
23.1416
11
-38.3142
21
23.1416
0
ARC
8
PARAMETRIX
10
-38.3142
20
22.6916
40
0.4500
50
90.0000
51
180.0000
0
LINE
8
PARAMETRIX
10
-38.7642
20
22.6916
11
-38.7642
21
22.5916
0
ARC
8
PARAMETRIX
10
-38.3142
20
22.5916
40
0.4500
50
180.0000
51
270.0000
0
LINE
8
PARAMETRIX
10
-32.0320
20
22.1416
11
-21.3675
21
22.1416
0
ARC
8
PARAMETRIX
10
-21.3675
20
22.5916
40
0.4500
50
270.0000
51
0.0000
0
LINE
8
PARAMETRIX
10
-20.9175
20
22.5916
11
-20.9175
21
22.6916
0
ARC
8
PARAMETRIX
10
-21.3675
20
22.6916
40
0.4500
50
0.0000
51
90.0000
0
LINE
8
PARAMETRIX
10
-21.3675
20
23.1416
11
-32.0320
21
23.1416
0
ARC
8
PARAMETRIX
10
-32.0320
20
22.6916
40
0.4500
50
90.0000
51
180.0000
0
LINE
8
PARAMETRIX
10
-32.4820
20
22.6916
11
-32.4820
21
22.5916
0
ARC
8
PARAMETRIX
10
-32.0320
20
22.5916
40
0.4500
50
180.0000
51
270.0000
0
LINE
8
PARAMETRIX
10
-19.4675
20
22.1416
11
-8.8030
21
22.1416
0
ARC
8
PARAMETRIX
10
-8.8030
20
22.5916
40
0.4500
50
270.0000
51
0.0000
0
LINE
8
PARAMETRIX
10
-8.3530
20
22.5916
11
-8.3530
21
22.6916
0
ARC
8
PARAMETRIX
10
-8.8030
20
22.6916
40
0.4500
50
0.0000
51
90.0000
0
LINE
8
PARAMETRIX
10
-8.8030
20
23.1416
11
-19.4675
21
23.1416
0
ARC
8
PARAMETRIX
10
-19.4675
20
22.6916
40
0.4500
50
90.0000
51
180.0000
0
LINE
8
PARAMETRIX
10
-19.9175
20
22.6916
11
-19.9175
21
22.5916
0
ARC
8
PARAMETRIX
10
-19.4675
20
22.5916
40
0.4500
50
180.0000
51
270.0000
0
LINE
8
PARAMETRIX
10
-6.9030
20
22.1416
11
-2.5208
21
22.1416
0
ARC
8
PARAMETRIX
10
-2.5208
20
22.5916
40
0.4500
50
270.0000
51
0.0000
0
LINE
8
PARAMETRIX
10
-2.0708
20
22.5916
11
-2.0708
21
22.6916
0
ARC
8
PARAMETRIX
10
-2.5208
20
22.6916
40
0.4500
50
0.0000
51
90.0000
0
LINE
8
PARAMETRIX
10
-2.5208
20
23.1416
11
-6.9030
21
23.1416
0
ARC
8
PARAMETRIX
10
-6.9030
20
22.6916
40
0.4500
50
90.0000
51
180.0000
0
LINE
8
PARAMETRIX
10
-7.3530
20
22.6916
11
-7.3530
21
22.5916
0
ARC
8
PARAMETRIX
10
-6.9030
20
22.5916
40
0.4500
50
180.0000
51
270.0000
0
LINE
8
PARAMETRIX
10
-38.3142
20
24.1416
11
-27.6498
21
24.1416
0
ARC
8
PARAMETRIX
10
-27.6498
20
24.5916
40
0.4500
50
270.0000
51
0.0000
0
LINE
8
PARAMETRIX
10
-27.1998
20
24.5916
11
-27.1998
21
24.6916
0
ARC
8
PARAMETRIX
10
-27.6498
20
24.6916
40
0.4500
50
0.0000
51
90.0000
0
LINE
8
PARAMETRIX
10
-27.6498
20
25.1416
11
-38.3142
21
25.1416
0
ARC
8
PARAMETRIX
10
-38.3142
20
24.6916
40
0.4500
50
90.0000
51
180.0000
0
LINE
8
PARAMETRIX
10
-38.7642
20
24.6916
11
-38.7642
21
24.5916
0
ARC
8
PARAMETRIX
10
-38.3142
20
24.5916
40
0.4500
50
180.0000
51
270.0000
0
LINE
8
PARAMETRIX
10
-25.7498
20
24.1416
11
-15.0853
21
24.1416
0
ARC
8
PARAMETRIX
10
-15.0853
20
24.5916
40
0.4500
50
270.0000
51
0.0000
0
LINE
8
PARAMETRIX
10
-14.6353
20
24.5916
11
-14.6353
21
24.6916
0
ARC
8
PARAMETRIX
10
-15.0853
20
24.6916
40
0.4500
50
360.0000
51
90.0000
0
LINE
8
PARAMETRIX
10
-15.0853
20
25.1416
11
-25.7498
21
25.1416
0
ARC
8
PARAMETRIX
10
-25.7498
20
24.6916
40
0.4500
50
90.0000
51
180.0000
0
LINE
8
PARAMETRIX
10
-26.1998
20
24.6916
11
-26.1998
21
24.5916
0
ARC
8
PARAMETRIX
10
-25.7498
20
24.5916
40
0.4500
50
180.0000
51
270.0000
0
LINE
8
PARAMETRIX
10
-13.1853
20
24.1416
11
-2.5208
21
24.1416
0
ARC
8
PARAMETRIX
10
-2.5208
20
24.5916
40
0.4500
50
270.0000
51
0.0000
0
LINE
8
PARAMETRIX
10
-2.0708
20
24.5916
11
-2.0708
21
24.6916
0
ARC
8
PARAMETRIX
10
-2.5208
20
24.6916
40
0.4500
50
0.0000
51
90.0000
0
LINE
8
PARAMETRIX
10
-2.5208
20
25.1416
11
-13.1853
21
25.1416
0
ARC
8
PARAMETRIX
10
-13.1853
20
24.6916
40
0.4500
50
90.0000
51
180.0000
0
LINE
8
PARAMETRIX
10
-13.6353
20
24.6916
11
-13.6353
21
24.5916
0
ARC
8
PARAMETRIX
10
-13.1853
20
24.5916
40
0.4500
50
180.0000
51
270.0000
0
LINE
8
PARAMETRIX
10
-37.9688
20
26.1416
11
-33.7017
21
26.1416
0
ARC
8
PARAMETRIX
10
-33.7017
20
26.5916
40
0.4500
50
270.0000
51
0.0000
0
LINE
8
PARAMETRIX
10
-33.2517
20
26.5916
11
-33.2517
21
26.6916
0
ARC
8
PARAMETRIX
10
-33.7017
20
26.6916
40
0.4500
50
0.0000
51
90.0000
0
LINE
8
PARAMETRIX
10
-33.7017
20
27.1416
11
-37.9688
21
27.1416
0
ARC
8
PARAMETRIX
10
-37.9688
20
26.6916
40
0.4500
50
90.0000
51
180.0000
0
LINE
8
PARAMETRIX
10
-38.4188
20
26.6916
11
-38.4188
21
26.5916
0
ARC
8
PARAMETRIX
10
-37.9688
20
26.5916
40
0.4500
50
180.0000
51
270.0000
0
LINE
8
PARAMETRIX
10
-31.8017
20
26.1416
11
-21.3675
21
26.1416
0
ARC
8
PARAMETRIX
10
-21.3675
20
26.5916
40
0.4500
50
270.0000
51
0.0000
0
LINE
8
PARAMETRIX
10
-20.9175
20
26.5916
11
-20.9175
21
26.6916
0
ARC
8
PARAMETRIX
10
-21.3675
20
26.6916
40
0.4500
50
0.0000
51
90.0000
0
LINE
8
PARAMETRIX
10
-21.3675
20
27.1416
11
-31.8017
21
27.1416
0
ARC
8
PARAMETRIX
10
-31.8017
20
26.6916
40
0.4500
50
90.0000
51
180.0000
0
LINE
8
PARAMETRIX
10
-32.2517
20
26.6916
11
-32.2517
21
26.5916
0
ARC
8
PARAMETRIX
10
-31.8017
20
26.5916
40
0.4500
50
180.0000
51
270.0000
0
LINE
8
PARAMETRIX
10
-19.4675
20
26.1416
11
-9.0333
21
26.1416
0
ARC
8
PARAMETRIX
10
-9.0333
20
26.5916
40
0.4500
50
270.0000
51
0.0000
0
LINE
8
PARAMETRIX
10
-8.5833
20
26.5916
11
-8.5833
21
26.6916
0
ARC
8
PARAMETRIX
10
-9.0333
20
26.6916
40
0.4500
50
0.0000
51
90.0000
0
LINE
8
PARAMETRIX
10
-9.0333
20
27.1416
11
-19.4675
21
27.1416
0
ARC
8
PARAMETRIX
10
-19.4675
20
26.6916
40
0.4500
50
90.0000
51
180.0000
0
LINE
8
PARAMETRIX
10
-19.9175
20
26.6916
11
-19.9175
21
26.5916
0
ARC
8
PARAMETRIX
10
-19.4675
20
26.5916
40
0.4500
50
180.0000
51
270.0000
0
LINE
8
PARAMETRIX
10
-7.1333
20
26.1416
11
-2.8662
21
26.1416
0
ARC
8
PARAMETRIX
10
-2.8662
20
26.5916
40
0.4500
50
270.0000
51
360.0000
0
LINE
8
PARAMETRIX
10
-2.4162
20
26.5916
11
-2.4162
21
26.6916
0
ARC
8
PARAMETRIX
10
-2.8662
20
26.6916
40
0.4500
50
360.0000
51
90.0000
0
LINE
8
PARAMETRIX
10
-2.8662
20
27.1416
11
-7.1333
21
27.1416
0
ARC
8
PARAMETRIX
10
-7.1333
20
26.6916
40
0.4500
50
90.0000
51
180.0000
0
LINE
8
PARAMETRIX
10
-7.5833
20
26.6916
11
-7.5833
21
26.5916
0
ARC
8
PARAMETRIX
10
-7.1333
20
26.5916
40
0.4500
50
180.0000
51
270.0000
0
LINE
8
PARAMETRIX
10
-37.5083
20
28.1416
11
-27.3811
21
28.1416
0
ARC
8
PARAMETRIX
10
-27.3811
20
28.5916
40
0.4500
50
270.0000
51
0.0000
0
LINE
8
PARAMETRIX
10
-26.9311
20
28.5916
11
-26.9311
21
28.6916
0
ARC
8
PARAMETRIX
10
-27.3811
20
28.6916
40
0.4500
50
0.0000
51
90.0000
0
LINE
8
PARAMETRIX
10
-27.3811
20
29.1416
11
-37.5083
21
29.1416
0
ARC
8
PARAMETRIX
10
-37.5083
20
28.6916
40
0.4500
50
90.0000
51
180.0000
0
LINE
8
PARAMETRIX
10
-37.9583
20
28.6916
11
-37.9583
21
28.5916
0
ARC
8
PARAMETRIX
10
-37.5083
20
28.5916
40
0.4500
50
180.0000
51
270.0000
0
LINE
8
PARAMETRIX
10
-25.4811
20
28.1416
11
-15.3539
21
28.1416
0
ARC
8
PARAMETRIX
10
-15.3539
20
28.5916
40
0.4500
50
270.0000
51
0.0000
0
LINE
8
PARAMETRIX
10
-14.9039
20
28.5916
11
-14.9039
21
28.6916
0
ARC
8
PARAMETRIX
10
-15.3539
20
28.6916
40
0.4500
50
0.0000
51
90.0000
0
LINE
8
PARAMETRIX
10
-15.3539
20
29.1416
11
-25.4811
21
29.1416
0
ARC
8
PARAMETRIX
10
-25.4811
20
28.6916
40
0.4500
50
90.0000
51
180.0000
0
LINE
8
PARAMETRIX
10
-25.9311
20
28.6916
11
-25.9311
21
28.5916
0
ARC
8
PARAMETRIX
10
-25.4811
20
28.5916
40
0.4500
50
180.0000
51
270.0000
0
LINE
8
PARAMETRIX
10
-13.4539
20
28.1416
11
-3.3268
21
28.1416
0
ARC
8
PARAMETRIX
10
-3.3268
20
28.5916
40
0.4500
50
270.0000
51
360.0000
0
LINE
8
PARAMETRIX
10
-2.8768
20
28.5916
11
-2.8768
21
28.6916
0
ARC
8
PARAMETRIX
10
-3.3268
20
28.6916
40
0.4500
50
0.0000
51
90.0000
0
LINE
8
PARAMETRIX
10
-3.3268
20
29.1416
11
-13.4539
21
29.1416
0
ARC
8
PARAMETRIX
10
-13.4539
20
28.6916
40
0.4500
50
90.0000
51
180.0000
0
LINE
8
PARAMETRIX
10
-13.9039
20
28.6916
11
-13.9039
21
28.5916
0
ARC
8
PARAMETRIX
10
-13.4539
20
28.5916
40
0.4500
50
180.0000
51
270.0000
0
CIRCLE
8
PARAMETRIX
10
-74.2785
20
4.2500
40
2.1250
0
CIRCLE
8
PARAMETRIX
10
-45.0850
20
4.2500
40
2.1250
0
CIRCLE
8
PARAMETRIX
10
-74.2785
20
12.7500
40
2.1250
0
CIRCLE
8
PARAMETRIX
10
-45.0850
20
12.7500
40
2.1250
0
CIRCLE
8
PARAMETRIX
10
-59.6817
20
-23.1416
40
8.0000
0
LINE
8
PARAMETRIX
10
-41.7850
20
-5.1416
11
-46.1673
21
-5.1416
0
ARC
8
PARAMETRIX
10
-46.1673
20
-5.5916
40
0.4500
50
90.0000
51
180.0000
0
LINE
8
PARAMETRIX
10
-46.6173
20
-5.5916
11
-46.6173
21
-5.6916
0
ARC
8
PARAMETRIX
10
-46.1673
20
-5.6916
40
0.4500
50
180.0000
51
270.0000
0
LINE
8
PARAMETRIX
10
-46.1673
20
-6.1416
11
-41.7850
21
-6.1416
0
ARC
8
PARAMETRIX
10
-41.7850
20
-5.6916
40
0.4500
50
270.0000
51
0.0000
0
LINE
8
PARAMETRIX
10
-41.3350
20
-5.6916
11
-41.3350
21
-5.5916
0
ARC
8
PARAMETRIX
10
-41.7850
20
-5.5916
40
0.4500
50
360.0000
51
90.0000
0
LINE
8
PARAMETRIX
10
-48.0673
20
-5.1416
11
-58.7317
21
-5.1416
0
ARC
8
PARAMETRIX
10
-58.7317
20
-5.5916
40
0.4500
50
90.0000
51
180.0000
0
LINE
8
PARAMETRIX
10
-59.1817
20
-5.5916
11
-59.1817
21
-5.6916
0
ARC
8
PARAMETRIX
10
-58.7317
20
-5.6916
40
0.4500
50
180.0000
51
270.0000
0
LINE
8
PARAMETRIX
10
-58.7317
20
-6.1416
11
-48.0673
21
-6.1416
0
ARC
8
PARAMETRIX
10
-48.0673
20
-5.6916
40
0.4500
50
270.0000
51
0.0000
0
LINE
8
PARAMETRIX
10
-47.6173
20
-5.6916
11
-47.6173
21
-5.5916
0
ARC
8
PARAMETRIX
10
-48.0673
20
-5.5916
40
0.4500
50
360.0000
51
90.0000
0
LINE
8
PARAMETRIX
10
-60.6317
20
-5.1416
11
-71.2962
21
-5.1416
0
ARC
8
PARAMETRIX
10
-71.2962
20
-5.5916
40
0.4500
50
90.0000
51
180.0000
0
LINE
8
PARAMETRIX
10
-71.7462
20
-5.5916
11
-71.7462
21
-5.6916
0
ARC
8
PARAMETRIX
10
-71.2962
20
-5.6916
40
0.4500
50
180.0000
51
270.0000
0
LINE
8
PARAMETRIX
10
-71.2962
20
-6.1416
11
-60.6317
21
-6.1416
0
ARC
8
PARAMETRIX
10
-60.6317
20
-5.6916
40
0.4500
50
270.0000
51
0.0000
0
LINE
8
PARAMETRIX
10
-60.1817
20
-5.6916
11
-60.1817
21
-5.5916
0
ARC
8
PARAMETRIX
10
-60.6317
20
-5.5916
40
0.4500
50
360.0000
51
90.0000
0
LINE
8
PARAMETRIX
10
-73.1962
20
-5.1416
11
-77.5785
21
-5.1416
0
ARC
8
PARAMETRIX
10
-77.5785
20
-5.5916
40
0.4500
50
90.0000
51
180.0000
0
LINE
8
PARAMETRIX
10
-78.0285
20
-5.5916
11
-78.0285
21
-5.6916
0
ARC
8
PARAMETRIX
10
-77.5785
20
-5.6916
40
0.4500
50
180.0000
51
270.0000
0
LINE
8
PARAMETRIX
10
-77.5785
20
-6.1416
11
-73.1962
21
-6.1416
0
ARC
8
PARAMETRIX
10
-73.1962
20
-5.6916
40
0.4500
50
270.0000
51
0.0000
0
LINE
8
PARAMETRIX
10
-72.7462
20
-5.6916
11
-72.7462
21
-5.5916
0
ARC
8
PARAMETRIX
10
-73.1962
20
-5.5916
40
0.4500
50
0.0000
51
90.0000
0
LINE
8
PARAMETRIX
10
-41.7850
20
-7.1416
11
-52.4495
21
-7.1416
0
ARC
8
PARAMETRIX
10
-52.4495
20
-7.5916
40
0.4500
50
90.0000
51
180.0000
0
LINE
8
PARAMETRIX
10
-52.8995
20
-7.5916
11
-52.8995
21
-7.6916
0
ARC
8
PARAMETRIX
10
-52.4495
20
-7.6916
40
0.4500
50
180.0000
51
270.0000
0
LINE
8
PARAMETRIX
10
-52.4495
20
-8.1416
11
-41.7850
21
-8.1416
0
ARC
8
PARAMETRIX
10
-41.7850
20
-7.6916
40
0.4500
50
270.0000
51
0.0000
0
LINE
8
PARAMETRIX
10
-41.3350
20
-7.6916
11
-41.3350
21
-7.5916
0
ARC
8
PARAMETRIX
10
-41.7850
20
-7.5916
40
0.4500
50
360.0000
51
90.0000
0
LINE
8
PARAMETRIX
10
-54.3495
20
-7.1416
11
-65.0140
21
-7.1416
0
ARC
8
PARAMETRIX
10
-65.0140
20
-7.5916
40
0.4500
50
90.0000
51
180.0000
0
LINE
8
PARAMETRIX
10
-65.4640
20
-7.5916
11
-65.4640
21
-7.6916
0
ARC
8
PARAMETRIX
10
-65.0140
20
-7.6916
40
0.4500
50
180.0000
51
270.0000
0
LINE
8
PARAMETRIX
10
-65.0140
20
-8.1416
11
-54.3495
21
-8.1416
0
ARC
8
PARAMETRIX
10
-54.3495
20
-7.6916
40
0.4500
50
270.0000
51
0.0000
0
LINE
8
PARAMETRIX
10
-53.8995
20
-7.6916
11
-53.8995
21
-7.5916
0
ARC
8
PARAMETRIX
10
-54.3495
20
-7.5916
40
0.4500
50
360.0000
51
90.0000
0
LINE
8
PARAMETRIX
10
-66.9140
20
-7.1416
11
-77.5785
21
-7.1416
0
ARC
8
PARAMETRIX
10
-77.5785
20
-7.5916
40
0.4500
50
90.0000
51
180.0000
0
LINE
8
PARAMETRIX
10
-78.0285
20
-7.5916
11
-78.0285
21
-7.6916
0
ARC
8
PARAMETRIX
10
-77.5785
20
-7.6916
40
0.4500
50
180.0000
51
270.0000
0
LINE
8
PARAMETRIX
10
-77.5785
20
-8.1416
11
-66.9140
21
-8.1416
0
ARC
8
PARAMETRIX
10
-66.9140
20
-7.6916
40
0.4500
50
270.0000
51
0.0000
0
LINE
8
PARAMETRIX
10
-66.4640
20
-7.6916
11
-66.4640
21
-7.5916
0
ARC
8
PARAMETRIX
10
-66.9140
20
-7.5916
40
0.4500
50
0.0000
51
90.0000
0
LINE
8
PARAMETRIX
10
-42.1304
20
-9.1416
11
-46.3975
21
-9.1416
0
ARC
8
PARAMETRIX
10
-46.3975
20
-9.5916
40
0.4500
50
90.0000
51
180.0000
0
LINE
8
PARAMETRIX
10
-46.8475
20
-9.5916
11
-46.8475
21
-9.6916
0
ARC
8
PARAMETRIX
10
-46.3975
20
-9.6916
40
0.4500
50
180.0000
51
270.0000
0
LINE
8
PARAMETRIX
10
-46.3975
20
-10.1416
11
-42.1304
21
-10.1416
0
ARC
8
PARAMETRIX
10
-42.1304
20
-9.6916
40
0.4500
50
270.0000
51
0.0000
0
LINE
8
PARAMETRIX
10
-41.6804
20
-9.6916
11
-41.6804
21
-9.5916
0
ARC
8
PARAMETRIX
10
-42.1304
20
-9.5916
40
0.4500
50
0.0000
51
90.0000
0
LINE
8
PARAMETRIX
10
-48.2975
20
-9.1416
11
-58.7317
21
-9.1416
0
ARC
8
PARAMETRIX
10
-58.7317
20
-9.5916
40
0.4500
50
90.0000
51
180.0000
0
LINE
8
PARAMETRIX
10
-59.1817
20
-9.5916
11
-59.1817
21
-9.6916
0
ARC
8
PARAMETRIX
10
-58.7317
20
-9.6916
40
0.4500
50
180.0000
51
270.0000
0
LINE
8
PARAMETRIX
10
-58.7317
20
-10.1416
11
-48.2975
21
-10.1416
0
ARC
8
PARAMETRIX
10
-48.2975
20
-9.6916
40
0.4500
50
270.0000
51
0.0000
0
LINE
8
PARAMETRIX
10
-47.8475
20
-9.6916
11
-47.8475
21
-9.5916
0
ARC
8
PARAMETRIX
10
-48.2975
20
-9.5916
40
0.4500
50
0.0000
51
90.0000
0
LINE
8
PARAMETRIX
10
-60.6317
20
-9.1416
11
-71.0659
21
-9.1416
0
ARC
8
PARAMETRIX
10
-71.0659
20
-9.5916
40
0.4500
50
90.0000
51
180.0000
0
LINE
8
PARAMETRIX
10
-71.5159
20
-9.5916
11
-71.5159
21
-9.6916
0
ARC
8
PARAMETRIX
10
-71.0659
20
-9.6916
40
0.4500
50
180.0000
51
270.0000
0
LINE
8
PARAMETRIX
10
-71.0659
20
-10.1416
11
-60.6317
21
-10.1416
0
ARC
8
PARAMETRIX
10
-60.6317
20
-9.6916
40
0.4500
50
270.0000
51
360.0000
0
LINE
8
PARAMETRIX
10
-60.1817
20
-9.6916
11
-60.1817
21
-9.5916
0
ARC
8
PARAMETRIX
10
-60.6317
20
-9.5916
40
0.4500
50
360.0000
51
90.0000
0
LINE
8
PARAMETRIX
10
-72.9659
20
-9.1416
11
-77.2330
21
-9.1416
0
ARC
8
PARAMETRIX
10
-77.2330
20
-9.5916
40
0.4500
50
90.0000
51
180.0000
0
LINE
8
PARAMETRIX
10
-77.6830
20
-9.5916
11
-77.6830
21
-9.6916
0
ARC
8
PARAMETRIX
10
-77.2330
20
-9.6916
40
0.4500
50
180.0000
51
270.0000
0
LINE
8
PARAMETRIX
10
-77.2330
20
-10.1416
11
-72.9659
21
-10.1416
0
ARC
8
PARAMETRIX
10
-72.9659
20
-9.6916
40
0.4500
50
270.0000
51
0.0000
0
LINE
8
PARAMETRIX
10
-72.5159
20
-9.6916
11
-72.5159
21
-9.5916
0
ARC
8
PARAMETRIX
10
-72.9659
20
-9.5916
40
0.4500
50
0.0000
51
90.0000
0
LINE
8
PARAMETRIX
10
-42.5910
20
-11.1416
11
-52.7182
21
-11.1416
0
ARC
8
PARAMETRIX
10
-52.7182
20
-11.5916
40
0.4500
50
90.0000
51
180.0000
0
LINE
8
PARAMETRIX
10
-53.1682
20
-11.5916
11
-53.1682
21
-11.6916
0
ARC
8
PARAMETRIX
10
-52.7182
20
-11.6916
40
0.4500
50
180.0000
51
270.0000
0
LINE
8
PARAMETRIX
10
-52.7182
20
-12.1416
11
-42.5910
21
-12.1416
0
ARC
8
PARAMETRIX
10
-42.5910
20
-11.6916
40
0.4500
50
270.0000
51
0.0000
0
LINE
8
PARAMETRIX
10
-42.1410
20
-11.6916
11
-42.1410
21
-11.5916
0
ARC
8
PARAMETRIX
10
-42.5910
20
-11.5916
40
0.4500
50
0.0000
51
90.0000
0
LINE
8
PARAMETRIX
10
-54.6182
20
-11.1416
11
-64.7453
21
-11.1416
0
ARC
8
PARAMETRIX
10
-64.7453
20
-11.5916
40
0.4500
50
90.0000
51
180.0000
0
LINE
8
PARAMETRIX
10
-65.1953
20
-11.5916
11
-65.1953
21
-11.6916
0
ARC
8
PARAMETRIX
10
-64.7453
20
-11.6916
40
0.4500
50
180.0000
51
270.0000
0
LINE
8
PARAMETRIX
10
-64.7453
20
-12.1416
11
-54.6182
21
-12.1416
0
ARC
8
PARAMETRIX
10
-54.6182
20
-11.6916
40
0.4500
50
270.0000
51
0.0000
0
LINE
8
PARAMETRIX
10
-54.1682
20
-11.6916
11
-54.1682
21
-11.5916
0
ARC
8
PARAMETRIX
10
-54.6182
20
-11.5916
40
0.4500
50
0.0000
51
90.0000
0
LINE
8
PARAMETRIX
10
-66.6453
20
-11.1416
11
-76.7725
21
-11.1416
0
ARC
8
PARAMETRIX
10
-76.7725
20
-11.5916
40
0.4500
50
90.0000
51
180.0000
0
LINE
8
PARAMETRIX
10
-77.2225
20
-11.5916
11
-77.2225
21
-11.6916
0
ARC
8
PARAMETRIX
10
-76.7725
20
-11.6916
40
0.4500
50
180.0000
51
270.0000
0
LINE
8
PARAMETRIX
10
-76.7725
20
-12.1416
11
-66.6453
21
-12.1416
0
ARC
8
PARAMETRIX
10
-66.6453
20
-11.6916
40
0.4500
50
270.0000
51
0.0000
0
LINE
8
PARAMETRIX
10
-66.1953
20
-11.6916
11
-66.1953
21
-11.5916
0
ARC
8
PARAMETRIX
10
-66.6453
20
-11.5916
40
0.4500
50
0.0000
51
90.0000
0
CIRCLE
8
PARAMETRIX
10
-59.6817
20
40.1416
40
8.0000
0
LINE
8
PARAMETRIX
10
-77.5785
20
22.1416
11
-73.1962
21
22.1416
0
ARC
8
PARAMETRIX
10
-73.1962
20
22.5916
40
0.4500
50
270.0000
51
0.0000
0
LINE
8
PARAMETRIX
10
-72.7462
20
22.5916
11
-72.7462
21
22.6916
0
ARC
8
PARAMETRIX
10
-73.1962
20
22.6916
40
0.4500
50
0.0000
51
90.0000
0
LINE
8
PARAMETRIX
10
-73.1962
20
23.1416
11
-77.5785
21
23.1416
0
ARC
8
PARAMETRIX
10
-77.5785
20
22.6916
40
0.4500
50
90.0000
51
180.0000
0
LINE
8
PARAMETRIX
10
-78.0285
20
22.6916
11
-78.0285
21
22.5916
0
ARC
8
PARAMETRIX
10
-77.5785
20
22.5916
40
0.4500
50
180.0000
51
270.0000
0
LINE
8
PARAMETRIX
10
-71.2962
20
22.1416
11
-60.6317
21
22.1416
0
ARC
8
PARAMETRIX
10
-60.6317
20
22.5916
40
0.4500
50
270.0000
51
0.0000
0
LINE
8
PARAMETRIX
10
-60.1817
20
22.5916
11
-60.1817
21
22.6916
0
ARC
8
PARAMETRIX
10
-60.6317
20
22.6916
40
0.4500
50
0.0000
51
90.0000
0
LINE
8
PARAMETRIX
10
-60.6317
20
23.1416
11
-71.2962
21
23.1416
0
ARC
8
PARAMETRIX
10
-71.2962
20
22.6916
40
0.4500
50
90.0000
51
180.0000
0
LINE
8
PARAMETRIX
10
-71.7462
20
22.6916
11
-71.7462
21
22.5916
0
ARC
8
PARAMETRIX
10
-71.2962
20
22.5916
40
0.4500
50
180.0000
51
270.0000
0
LINE
8
PARAMETRIX
10
-58.7317
20
22.1416
11
-48.0673
21
22.1416
0
ARC
8
PARAMETRIX
10
-48.0673
20
22.5916
40
0.4500
50
270.0000
51
0.0000
0
LINE
8
PARAMETRIX
10
-47.6173
20
22.5916
11
-47.6173
21
22.6916
0
ARC
8
PARAMETRIX
10
-48.0673
20
22.6916
40
0.4500
50
0.0000
51
90.0000
0
LINE
8
PARAMETRIX
10
-48.0673
20
23.1416
11
-58.7317
21
23.1416
0
ARC
8
PARAMETRIX
10
-58.7317
20
22.6916
40
0.4500
50
90.0000
51
180.0000
0
LINE
8
PARAMETRIX
10
-59.1817
20
22.6916
11
-59.1817
21
22.5916
0
ARC
8
PARAMETRIX
10
-58.7317
20
22.5916
40
0.4500
50
180.0000
51
270.0000
0
LINE
8
PARAMETRIX
10
-46.1673
20
22.1416
11
-41.7850
21
22.1416
0
ARC
8
PARAMETRIX
10
-41.7850
20
22.5916
40
0.4500
50
270.0000
51
0.0000
0
LINE
8
PARAMETRIX
10
-41.3350
20
22.5916
11
-41.3350
21
22.6916
0
ARC
8
PARAMETRIX
10
-41.7850
20
22.6916
40
0.4500
50
0.0000
51
90.0000
0
LINE
8
PARAMETRIX
10
-41.7850
20
23.1416
11
-46.1673
21
23.1416
0
ARC
8
PARAMETRIX
10
-46.1673
20
22.6916
40
0.4500
50
90.0000
51
180.0000
0
LINE
8
PARAMETRIX
10
-46.6173
20
22.6916
11
-46.6173
21
22.5916
0
ARC
8
PARAMETRIX
10
-46.1673
20
22.5916
40
0.4500
50
180.0000
51
270.0000
0
LINE
8
PARAMETRIX
10
-77.5785
20
24.1416
11
-66.9140
21
24.1416
0
ARC
8
PARAMETRIX
10
-66.9140
20
24.5916
40
0.4500
50
270.0000
51
0.0000
0
LINE
8
PARAMETRIX
10
-66.4640
20
24.5916
11
-66.4640
21
24.6916
0
ARC
8
PARAMETRIX
10
-66.9140
20
24.6916
40
0.4500
50
0.0000
51
90.0000
0
LINE
8
PARAMETRIX
10
-66.9140
20
25.1416
11
-77.5785
21
25.1416
0
ARC
8
PARAMETRIX
10
-77.5785
20
24.6916
40
0.4500
50
90.0000
51
180.0000
0
LINE
8
PARAMETRIX
10
-78.0285
20
24.6916
11
-78.0285
21
24.5916
0
ARC
8
PARAMETRIX
10
-77.5785
20
24.5916
40
0.4500
50
180.0000
51
270.0000
0
LINE
8
PARAMETRIX
10
-65.0140
20
24.1416
11
-54.3495
21
24.1416
0
ARC
8
PARAMETRIX
10
-54.3495
20
24.5916
40
0.4500
50
270.0000
51
360.0000
0
LINE
8
PARAMETRIX
10
-53.8995
20
24.5916
11
-53.8995
21
24.6916
0
ARC
8
PARAMETRIX
10
-54.3495
20
24.6916
40
0.4500
50
360.0000
51
90.0000
0
LINE
8
PARAMETRIX
10
-54.3495
20
25.1416
11
-65.0140
21
25.1416
0
ARC
8
PARAMETRIX
10
-65.0140
20
24.6916
40
0.4500
50
90.0000
51
180.0000
0
LINE
8
PARAMETRIX
10
-65.4640
20
24.6916
11
-65.4640
21
24.5916
0
ARC
8
PARAMETRIX
10
-65.0140
20
24.5916
40
0.4500
50
180.0000
51
270.0000
0
LINE
8
PARAMETRIX
10
-52.4495
20
24.1416
11
-41.7850
21
24.1416
0
ARC
8
PARAMETRIX
10
-41.7850
20
24.5916
40
0.4500
50
270.0000
51
0.0000
0
LINE
8
PARAMETRIX
10
-41.3350
20
24.5916
11
-41.3350
21
24.6916
0
ARC
8
PARAMETRIX
10
-41.7850
20
24.6916
40
0.4500
50
0.0000
51
90.0000
0
LINE
8
PARAMETRIX
10
-41.7850
20
25.1416
11
-52.4495
21
25.1416
0
ARC
8
PARAMETRIX
10
-52.4495
20
24.6916
40
0.4500
50
90.0000
51
180.0000
0
LINE
8
PARAMETRIX
10
-52.8995
20
24.6916
11
-52.8995
21
24.5916
0
ARC
8
PARAMETRIX
10
-52.4495
20
24.5916
40
0.4500
50
180.0000
51
270.0000
0
LINE
8
PARAMETRIX
10
-77.2330
20
26.1416
11
-72.9659
21
26.1416
0
ARC
8
PARAMETRIX
10
-72.9659
20
26.5916
40
0.4500
50
270.0000
51
0.0000
0
LINE
8
PARAMETRIX
10
-72.5159
20
26.5916
11
-72.5159
21
26.6916
0
ARC
8
PARAMETRIX
10
-72.9659
20
26.6916
40
0.4500
50
0.0000
51
90.0000
0
LINE
8
PARAMETRIX
10
-72.9659
20
27.1416
11
-77.2330
21
27.1416
0
ARC
8
PARAMETRIX
10
-77.2330
20
26.6916
40
0.4500
50
90.0000
51
180.0000
0
LINE
8
PARAMETRIX
10
-77.6830
20
26.6916
11
-77.6830
21
26.5916
0
ARC
8
PARAMETRIX
10
-77.2330
20
26.5916
40
0.4500
50
180.0000
51
270.0000
0
LINE
8
PARAMETRIX
10
-71.0659
20
26.1416
11
-60.6317
21
26.1416
0
ARC
8
PARAMETRIX
10
-60.6317
20
26.5916
40
0.4500
50
270.0000
51
0.0000
0
LINE
8
PARAMETRIX
10
-60.1817
20
26.5916
11
-60.1817
21
26.6916
0
ARC
8
PARAMETRIX
10
-60.6317
20
26.6916
40
0.4500
50
0.0000
51
90.0000
0
LINE
8
PARAMETRIX
10
-60.6317
20
27.1416
11
-71.0659
21
27.1416
0
ARC
8
PARAMETRIX
10
-71.0659
20
26.6916
40
0.4500
50
90.0000
51
180.0000
0
LINE
8
PARAMETRIX
10
-71.5159
20
26.6916
11
-71.5159
21
26.5916
0
ARC
8
PARAMETRIX
10
-71.0659
20
26.5916
40
0.4500
50
180.0000
51
270.0000
0
LINE
8
PARAMETRIX
10
-58.7317
20
26.1416
11
-48.2975
21
26.1416
0
ARC
8
PARAMETRIX
10
-48.2975
20
26.5916
40
0.4500
50
270.0000
51
0.0000
0
LINE
8
PARAMETRIX
10
-47.8475
20
26.5916
11
-47.8475
21
26.6916
0
ARC
8
PARAMETRIX
10
-48.2975
20
26.6916
40
0.4500
50
0.0000
51
90.0000
0
LINE
8
PARAMETRIX
10
-48.2975
20
27.1416
11
-58.7317
21
27.1416
0
ARC
8
PARAMETRIX
10
-58.7317
20
26.6916
40
0.4500
50
90.0000
51
180.0000
0
LINE
8
PARAMETRIX
10
-59.1817
20
26.6916
11
-59.1817
21
26.5916
0
ARC
8
PARAMETRIX
10
-58.7317
20
26.5916
40
0.4500
50
180.0000
51
270.0000
0
LINE
8
PARAMETRIX
10
-46.3975
20
26.1416
11
-42.1304
21
26.1416
0
ARC
8
PARAMETRIX
10
-42.1304
20
26.5916
40
0.4500
50
270.0000
51
360.0000
0
LINE
8
PARAMETRIX
10
-41.6804
20
26.5916
11
-41.6804
21
26.6916
0
ARC
8
PARAMETRIX
10
-42.1304
20
26.6916
40
0.4500
50
360.0000
51
90.0000
0
LINE
8
PARAMETRIX
10
-42.1304
20
27.1416
11
-46.3975
21
27.1416
0
ARC
8
PARAMETRIX
10
-46.3975
20
26.6916
40
0.4500
50
90.0000
51
180.0000
0
LINE
8
PARAMETRIX
10
-46.8475
20
26.6916
11
-46.8475
21
26.5916
0
ARC
8
PARAMETRIX
10
-46.3975
20
26.5916
40
0.4500
50
180.0000
51
270.0000
0
LINE
8
PARAMETRIX
10
-76.7725
20
28.1416
11
-66.6453
21
28.1416
0
ARC
8
PARAMETRIX
10
-66.6453
20
28.5916
40
0.4500
50
270.0000
51
0.0000
0
LINE
8
PARAMETRIX
10
-66.1953
20
28.5916
11
-66.1953
21
28.6916
0
ARC
8
PARAMETRIX
10
-66.6453
20
28.6916
40
0.4500
50
0.0000
51
90.0000
0
LINE
8
PARAMETRIX
10
-66.6453
20
29.1416
11
-76.7725
21
29.1416
0
ARC
8
PARAMETRIX
10
-76.7725
20
28.6916
40
0.4500
50
90.0000
51
180.0000
0
LINE
8
PARAMETRIX
10
-77.2225
20
28.6916
11
-77.2225
21
28.5916
0
ARC
8
PARAMETRIX
10
-76.7725
20
28.5916
40
0.4500
50
180.0000
51
270.0000
0
LINE
8
PARAMETRIX
10
-64.7453
20
28.1416
11
-54.6182
21
28.1416
0
ARC
8
PARAMETRIX
10
-54.6182
20
28.5916
40
0.4500
50
270.0000
51
0.0000
0
LINE
8
PARAMETRIX
10
-54.1682
20
28.5916
11
-54.1682
21
28.6916
0
ARC
8
PARAMETRIX
10
-54.6182
20
28.6916
40
0.4500
50
0.0000
51
90.0000
0
LINE
8
PARAMETRIX
10
-54.6182
20
29.1416
11
-64.7453
21
29.1416
0
ARC
8
PARAMETRIX
10
-64.7453
20
28.6916
40
0.4500
50
90.0000
51
180.0000
0
LINE
8
PARAMETRIX
10
-65.1953
20
28.6916
11
-65.1953
21
28.5916
0
ARC
8
PARAMETRIX
10
-64.7453
20
28.5916
40
0.4500
50
180.0000
51
270.0000
0
LINE
8
PARAMETRIX
10
-52.7182
20
28.1416
11
-42.5910
21
28.1416
0
ARC
8
PARAMETRIX
10
-42.5910
20
28.5916
40
0.4500
50
270.0000
51
360.0000
0
LINE
8
PARAMETRIX
10
-42.1410
20
28.5916
11
-42.1410
21
28.6916
0
ARC
8
PARAMETRIX
10
-42.5910
20
28.6916
40
0.4500
50
0.0000
51
90.0000
0
LINE
8
PARAMETRIX
10
-42.5910
20
29.1416
11
-52.7182
21
29.1416
0
ARC
8
PARAMETRIX
10
-52.7182
20
28.6916
40
0.4500
50
90.0000
51
180.0000
0
LINE
8
PARAMETRIX
10
-53.1682
20
28.6916
11
-53.1682
21
28.5916
0
ARC
8
PARAMETRIX
10
-52.7182
20
28.5916
40
0.4500
50
180.0000
51
270.0000
0
CIRCLE
8
PARAMETRIX
10
-113.5427
20
4.2500
40
2.1250
0
CIRCLE
8
PARAMETRIX
10
-84.3493
20
4.2500
40
2.1250
0
CIRCLE
8
PARAMETRIX
10
-113.5427
20
12.7500
40
2.1250
0
CIRCLE
8
PARAMETRIX
10
-84.3493
20
12.7500
40
2.1250
0
CIRCLE
8
PARAMETRIX
10
-98.9460
20
-23.1416
40
8.0000
0
LINE
8
PARAMETRIX
10
-81.0493
20
-5.1416
11
-85.4315
21
-5.1416
0
ARC
8
PARAMETRIX
10
-85.4315
20
-5.5916
40
0.4500
50
90.0000
51
180.0000
0
LINE
8
PARAMETRIX
10
-85.8815
20
-5.5916
11
-85.8815
21
-5.6916
0
ARC
8
PARAMETRIX
10
-85.4315
20
-5.6916
40
0.4500
50
180.0000
51
270.0000
0
LINE
8
PARAMETRIX
10
-85.4315
20
-6.1416
11
-81.0493
21
-6.1416
0
ARC
8
PARAMETRIX
10
-81.0493
20
-5.6916
40
0.4500
50
270.0000
51
0.0000
0
LINE
8
PARAMETRIX
10
-80.5993
20
-5.6916
11
-80.5993
21
-5.5916
0
ARC
8
PARAMETRIX
10
-81.0493
20
-5.5916
40
0.4500
50
360.0000
51
90.0000
0
LINE
8
PARAMETRIX
10
-87.3315
20
-5.1416
11
-97.9960
21
-5.1416
0
ARC
8
PARAMETRIX
10
-97.9960
20
-5.5916
40
0.4500
50
90.0000
51
180.0000
0
LINE
8
PARAMETRIX
10
-98.4460
20
-5.5916
11
-98.4460
21
-5.6916
0
ARC
8
PARAMETRIX
10
-97.9960
20
-5.6916
40
0.4500
50
180.0000
51
270.0000
0
LINE
8
PARAMETRIX
10
-97.9960
20
-6.1416
11
-87.3315
21
-6.1416
0
ARC
8
PARAMETRIX
10
-87.3315
20
-5.6916
40
0.4500
50
270.0000
51
0.0000
0
LINE
8
PARAMETRIX
10
-86.8815
20
-5.6916
11
-86.8815
21
-5.5916
0
ARC
8
PARAMETRIX
10
-87.3315
20
-5.5916
40
0.4500
50
360.0000
51
90.0000
0
LINE
8
PARAMETRIX
10
-99.8960
20
-5.1416
11
-110.5605
21
-5.1416
0
ARC
8
PARAMETRIX
10
-110.5605
20
-5.5916
40
0.4500
50
90.0000
51
180.0000
0
LINE
8
PARAMETRIX
10
-111.0105
20
-5.5916
11
-111.0105
21
-5.6916
0
ARC
8
PARAMETRIX
10
-110.5605
20
-5.6916
40
0.4500
50
180.0000
51
270.0000
0
LINE
8
PARAMETRIX
10
-110.5605
20
-6.1416
11
-99.8960
21
-6.1416
0
ARC
8
PARAMETRIX
10
-99.8960
20
-5.6916
40
0.4500
50
270.0000
51
0.0000
0
LINE
8
PARAMETRIX
10
-99.4460
20
-5.6916
11
-99.4460
21
-5.5916
0
ARC
8
PARAMETRIX
10
-99.8960
20
-5.5916
40
0.4500
50
360.0000
51
90.0000
0
LINE
8
PARAMETRIX
10
-112.4605
20
-5.1416
11
-116.8427
21
-5.1416
0
ARC
8
PARAMETRIX
10
-116.8427
20
-5.5916
40
0.4500
50
90.0000
51
180.0000
0
LINE
8
PARAMETRIX
10
-117.2927
20
-5.5916
11
-117.2927
21
-5.6916
0
ARC
8
PARAMETRIX
10
-116.8427
20
-5.6916
40
0.4500
50
180.0000
51
270.0000
0
LINE
8
PARAMETRIX
10
-116.8427
20
-6.1416
11
-112.4605
21
-6.1416
0
ARC
8
PARAMETRIX
10
-112.4605
20
-5.6916
40
0.4500
50
270.0000
51
0.0000
0
LINE
8
PARAMETRIX
10
-112.0105
20
-5.6916
11
-112.0105
21
-5.5916
0
ARC
8
PARAMETRIX
10
-112.4605
20
-5.5916
40
0.4500
50
0.0000
51
90.0000
0
LINE
8
PARAMETRIX
10
-81.0493
20
-7.1416
11
-91.7137
21
-7.1416
0
ARC
8
PARAMETRIX
10
-91.7137
20
-7.5916
40
0.4500
50
90.0000
51
180.0000
0
LINE
8
PARAMETRIX
10
-92.1637
20
-7.5916
11
-92.1637
21
-7.6916
0
ARC
8
PARAMETRIX
10
-91.7137
20
-7.6916
40
0.4500
50
180.0000
51
270.0000
0
LINE
8
PARAMETRIX
10
-91.7137
20
-8.1416
11
-81.0493
21
-8.1416
0
ARC
8
PARAMETRIX
10
-81.0493
20
-7.6916
40
0.4500
50
270.0000
51
0.0000
0
LINE
8
PARAMETRIX
10
-80.5993
20
-7.6916
11
-80.5993
21
-7.5916
0
ARC
8
PARAMETRIX
10
-81.0493
20
-7.5916
40
0.4500
50
360.0000
51
90.0000
0
LINE
8
PARAMETRIX
10
-93.6137
20
-7.1416
11
-104.2782
21
-7.1416
0
ARC
8
PARAMETRIX
10
-104.2782
20
-7.5916
40
0.4500
50
90.0000
51
180.0000
0
LINE
8
PARAMETRIX
10
-104.7282
20
-7.5916
11
-104.7282
21
-7.6916
0
ARC
8
PARAMETRIX
10
-104.2782
20
-7.6916
40
0.4500
50
180.0000
51
270.0000
0
LINE
8
PARAMETRIX
10
-104.2782
20
-8.1416
11
-93.6137
21
-8.1416
0
ARC
8
PARAMETRIX
10
-93.6137
20
-7.6916
40
0.4500
50
270.0000
51
0.0000
0
LINE
8
PARAMETRIX
10
-93.1637
20
-7.6916
11
-93.1637
21
-7.5916
0
ARC
8
PARAMETRIX
10
-93.6137
20
-7.5916
40
0.4500
50
360.0000
51
90.0000
0
LINE
8
PARAMETRIX
10
-106.1782
20
-7.1416
11
-116.8427
21
-7.1416
0
ARC
8
PARAMETRIX
10
-116.8427
20
-7.5916
40
0.4500
50
90.0000
51
180.0000
0
LINE
8
PARAMETRIX
10
-117.2927
20
-7.5916
11
-117.2927
21
-7.6916
0
ARC
8
PARAMETRIX
10
-116.8427
20
-7.6916
40
0.4500
50
180.0000
51
270.0000
0
LINE
8
PARAMETRIX
10
-116.8427
20
-8.1416
11
-106.1782
21
-8.1416
0
ARC
8
PARAMETRIX
10
-106.1782
20
-7.6916
40
0.4500
50
270.0000
51
0.0000
0
LINE
8
PARAMETRIX
10
-105.7282
20
-7.6916
11
-105.7282
21
-7.5916
0
ARC
8
PARAMETRIX
10
-106.1782
20
-7.5916
40
0.4500
50
0.0000
51
90.0000
0
LINE
8
PARAMETRIX
10
-81.3947
20
-9.1416
11
-85.6618
21
-9.1416
0
ARC
8
PARAMETRIX
10
-85.6618
20
-9.5916
40
0.4500
50
90.0000
51
180.0000
0
LINE
8
PARAMETRIX
10
-86.1118
20
-9.5916
11
-86.1118
21
-9.6916
0
ARC
8
PARAMETRIX
10
-85.6618
20
-9.6916
40
0.4500
50
180.0000
51
270.0000
0
LINE
8
PARAMETRIX
10
-85.6618
20
-10.1416
11
-81.3947
21
-10.1416
0
ARC
8
PARAMETRIX
10
-81.3947
20
-9.6916
40
0.4500
50
270.0000
51
360.0000
0
LINE
8
PARAMETRIX
10
-80.9447
20
-9.6916
11
-80.9447
21
-9.5916
0
ARC
8
PARAMETRIX
10
-81.3947
20
-9.5916
40
0.4500
50
360.0000
51
90.0000
0
LINE
8
PARAMETRIX
10
-87.5618
20
-9.1416
11
-97.9960
21
-9.1416
0
ARC
8
PARAMETRIX
10
-97.9960
20
-9.5916
40
0.4500
50
90.0000
51
180.0000
0
LINE
8
PARAMETRIX
10
-98.4460
20
-9.5916
11
-98.4460
21
-9.6916
0
ARC
8
PARAMETRIX
10
-97.9960
20
-9.6916
40
0.4500
50
180.0000
51
270.0000
0
LINE
8
PARAMETRIX
10
-97.9960
20
-10.1416
11
-87.5618
21
-10.1416
0
ARC
8
PARAMETRIX
10
-87.5618
20
-9.6916
40
0.4500
50
270.0000
51
0.0000
0
LINE
8
PARAMETRIX
10
-87.1118
20
-9.6916
11
-87.1118
21
-9.5916
0
ARC
8
PARAMETRIX
10
-87.5618
20
-9.5916
40
0.4500
50
0.0000
51
90.0000
0
LINE
8
PARAMETRIX
10
-99.8960
20
-9.1416
11
-110.3302
21
-9.1416
0
ARC
8
PARAMETRIX
10
-110.3302
20
-9.5916
40
0.4500
50
90.0000
51
180.0000
0
LINE
8
PARAMETRIX
10
-110.7802
20
-9.5916
11
-110.7802
21
-9.6916
0
ARC
8
PARAMETRIX
10
-110.3302
20
-9.6916
40
0.4500
50
180.0000
51
270.0000
0
LINE
8
PARAMETRIX
10
-110.3302
20
-10.1416
11
-99.8960
21
-10.1416
0
ARC
8
PARAMETRIX
10
-99.8960
20
-9.6916
40
0.4500
50
270.0000
51
0.0000
0
LINE
8
PARAMETRIX
10
-99.4460
20
-9.6916
11
-99.4460
21
-9.5916
0
ARC
8
PARAMETRIX
10
-99.8960
20
-9.5916
40
0.4500
50
0.0000
51
90.0000
0
LINE
8
PARAMETRIX
10
-112.2302
20
-9.1416
11
-116.4973
21
-9.1416
0
ARC
8
PARAMETRIX
10
-116.4973
20
-9.5916
40
0.4500
50
90.0000
51
180.0000
0
LINE
8
PARAMETRIX
10
-116.9473
20
-9.5916
11
-116.9473
21
-9.6916
0
ARC
8
PARAMETRIX
10
-116.4973
20
-9.6916
40
0.4500
50
180.0000
51
270.0000
0
LINE
8
PARAMETRIX
10
-116.4973
20
-10.1416
11
-112.2302
21
-10.1416
0
ARC
8
PARAMETRIX
10
-112.2302
20
-9.6916
40
0.4500
50
270.0000
51
0.0000
0
LINE
8
PARAMETRIX
10
-111.7802
20
-9.6916
11
-111.7802
21
-9.5916
0
ARC
8
PARAMETRIX
10
-112.2302
20
-9.5916
40
0.4500
50
0.0000
51
90.0000
0
LINE
8
PARAMETRIX
10
-81.8552
20
-11.1416
11
-91.9824
21
-11.1416
0
ARC
8
PARAMETRIX
10
-91.9824
20
-11.5916
40
0.4500
50
90.0000
51
180.0000
0
LINE
8
PARAMETRIX
10
-92.4324
20
-11.5916
11
-92.4324
21
-11.6916
0
ARC
8
PARAMETRIX
10
-91.9824
20
-11.6916
40
0.4500
50
180.0000
51
270.0000
0
LINE
8
PARAMETRIX
10
-91.9824
20
-12.1416
11
-81.8552
21
-12.1416
0
ARC
8
PARAMETRIX
10
-81.8552
20
-11.6916
40
0.4500
50
270.0000
51
0.0000
0
LINE
8
PARAMETRIX
10
-81.4052
20
-11.6916
11
-81.4052
21
-11.5916
0
ARC
8
PARAMETRIX
10
-81.8552
20
-11.5916
40
0.4500
50
0.0000
51
90.0000
0
LINE
8
PARAMETRIX
10
-93.8824
20
-11.1416
11
-104.0096
21
-11.1416
0
ARC
8
PARAMETRIX
10
-104.0096
20
-11.5916
40
0.4500
50
90.0000
51
180.0000
0
LINE
8
PARAMETRIX
10
-104.4596
20
-11.5916
11
-104.4596
21
-11.6916
0
ARC
8
PARAMETRIX
10
-104.0096
20
-11.6916
40
0.4500
50
180.0000
51
270.0000
0
LINE
8
PARAMETRIX
10
-104.0096
20
-12.1416
11
-93.8824
21
-12.1416
0
ARC
8
PARAMETRIX
10
-93.8824
20
-11.6916
40
0.4500
50
270.0000
51
0.0000
0
LINE
8
PARAMETRIX
10
-93.4324
20
-11.6916
11
-93.4324
21
-11.5916
0
ARC
8
PARAMETRIX
10
-93.8824
20
-11.5916
40
0.4500
50
0.0000
51
90.0000
0
LINE
8
PARAMETRIX
10
-105.9096
20
-11.1416
11
-116.0367
21
-11.1416
0
ARC
8
PARAMETRIX
10
-116.0367
20
-11.5916
40
0.4500
50
90.0000
51
180.0000
0
LINE
8
PARAMETRIX
10
-116.4867
20
-11.5916
11
-116.4867
21
-11.6916
0
ARC
8
PARAMETRIX
10
-116.0367
20
-11.6916
40
0.4500
50
180.0000
51
270.0000
0
LINE
8
PARAMETRIX
10
-116.0367
20
-12.1416
11
-105.9096
21
-12.1416
0
ARC
8
PARAMETRIX
10
-105.9096
20
-11.6916
40
0.4500
50
270.0000
51
0.0000
0
LINE
8
PARAMETRIX
10
-105.4596
20
-11.6916
11
-105.4596
21
-11.5916
0
ARC
8
PARAMETRIX
10
-105.9096
20
-11.5916
40
0.4500
50
0.0000
51
90.0000
0
CIRCLE
8
PARAMETRIX
10
-98.9460
20
40.1416
40
8.0000
0
LINE
8
PARAMETRIX
10
-116.8427
20
22.1416
11
-112.4605
21
22.1416
0
ARC
8
PARAMETRIX
10
-112.4605
20
22.5916
40
0.4500
50
270.0000
51
360.0000
0
LINE
8
PARAMETRIX
10
-112.0105
20
22.5916
11
-112.0105
21
22.6916
0
ARC
8
PARAMETRIX
10
-112.4605
20
22.6916
40
0.4500
50
0.0000
51
90.0000
0
LINE
8
PARAMETRIX
10
-112.4605
20
23.1416
11
-116.8427
21
23.1416
0
ARC
8
PARAMETRIX
10
-116.8427
20
22.6916
40
0.4500
50
90.0000
51
180.0000
0
LINE
8
PARAMETRIX
10
-117.2927
20
22.6916
11
-117.2927
21
22.5916
0
ARC
8
PARAMETRIX
10
-116.8427
20
22.5916
40
0.4500
50
180.0000
51
270.0000
0
LINE
8
PARAMETRIX
10
-110.5605
20
22.1416
11
-99.8960
21
22.1416
0
ARC
8
PARAMETRIX
10
-99.8960
20
22.5916
40
0.4500
50
270.0000
51
360.0000
0
LINE
8
PARAMETRIX
10
-99.4460
20
22.5916
11
-99.4460
21
22.6916
0
ARC
8
PARAMETRIX
10
-99.8960
20
22.6916
40
0.4500
50
0.0000
51
90.0000
0
LINE
8
PARAMETRIX
10
-99.8960
20
23.1416
11
-110.5605
21
23.1416
0
ARC
8
PARAMETRIX
10
-110.5605
20
22.6916
40
0.4500
50
90.0000
51
180.0000
0
LINE
8
PARAMETRIX
10
-111.0105
20
22.6916
11
-111.0105
21
22.5916
0
ARC
8
PARAMETRIX
10
-110.5605
20
22.5916
40
0.4500
50
180.0000
51
270.0000
0
LINE
8
PARAMETRIX
10
-97.9960
20
22.1416
11
-87.3315
21
22.1416
0
ARC
8
PARAMETRIX
10
-87.3315
20
22.5916
40
0.4500
50
270.0000
51
360.0000
0
LINE
8
PARAMETRIX
10
-86.8815
20
22.5916
11
-86.8815
21
22.6916
0
ARC
8
PARAMETRIX
10
-87.3315
20
22.6916
40
0.4500
50
0.0000
51
90.0000
0
LINE
8
PARAMETRIX
10
-87.3315
20
23.1416
11
-97.9960
21
23.1416
0
ARC
8
PARAMETRIX
10
-97.9960
20
22.6916
40
0.4500
50
90.0000
51
180.0000
0
LINE
8
PARAMETRIX
10
-98.4460
20
22.6916
11
-98.4460
21
22.5916
0
ARC
8
PARAMETRIX
10
-97.9960
20
22.5916
40
0.4500
50
180.0000
51
270.0000
0
LINE
8
PARAMETRIX
10
-85.4315
20
22.1416
11
-81.0493
21
22.1416
0
ARC
8
PARAMETRIX
10
-81.0493
20
22.5916
40
0.4500
50
270.0000
51
360.0000
0
LINE
8
PARAMETRIX
10
-80.5993
20
22.5916
11
-80.5993
21
22.6916
0
ARC
8
PARAMETRIX
10
-81.0493
20
22.6916
40
0.4500
50
0.0000
51
90.0000
0
LINE
8
PARAMETRIX
10
-81.0493
20
23.1416
11
-85.4315
21
23.1416
0
ARC
8
PARAMETRIX
10
-85.4315
20
22.6916
40
0.4500
50
90.0000
51
180.0000
0
LINE
8
PARAMETRIX
10
-85.8815
20
22.6916
11
-85.8815
21
22.5916
0
ARC
8
PARAMETRIX
10
-85.4315
20
22.5916
40
0.4500
50
180.0000
51
270.0000
0
LINE
8
PARAMETRIX
10
-116.8427
20
24.1416
11
-106.1782
21
24.1416
0
ARC
8
PARAMETRIX
10
-106.1782
20
24.5916
40
0.4500
50
270.0000
51
360.0000
0
LINE
8
PARAMETRIX
10
-105.7282
20
24.5916
11
-105.7282
21
24.6916
0
ARC
8
PARAMETRIX
10
-106.1782
20
24.6916
40
0.4500
50
0.0000
51
90.0000
0
LINE
8
PARAMETRIX
10
-106.1782
20
25.1416
11
-116.8427
21
25.1416
0
ARC
8
PARAMETRIX
10
-116.8427
20
24.6916
40
0.4500
50
90.0000
51
180.0000
0
LINE
8
PARAMETRIX
10
-117.2927
20
24.6916
11
-117.2927
21
24.5916
0
ARC
8
PARAMETRIX
10
-116.8427
20
24.5916
40
0.4500
50
180.0000
51
270.0000
0
LINE
8
PARAMETRIX
10
-104.2782
20
24.1416
11
-93.6137
21
24.1416
0
ARC
8
PARAMETRIX
10
-93.6137
20
24.5916
40
0.4500
50
270.0000
51
360.0000
0
LINE
8
PARAMETRIX
10
-93.1637
20
24.5916
11
-93.1637
21
24.6916
0
ARC
8
PARAMETRIX
10
-93.6137
20
24.6916
40
0.4500
50
0.0000
51
90.0000
0
LINE
8
PARAMETRIX
10
-93.6137
20
25.1416
11
-104.2782
21
25.1416
0
ARC
8
PARAMETRIX
10
-104.2782
20
24.6916
40
0.4500
50
90.0000
51
180.0000
0
LINE
8
PARAMETRIX
10
-104.7282
20
24.6916
11
-104.7282
21
24.5916
0
ARC
8
PARAMETRIX
10
-104.2782
20
24.5916
40
0.4500
50
180.0000
51
270.0000
0
LINE
8
PARAMETRIX
10
-91.7137
20
24.1416
11
-81.0493
21
24.1416
0
ARC
8
PARAMETRIX
10
-81.0493
20
24.5916
40
0.4500
50
270.0000
51
360.0000
0
LINE
8
PARAMETRIX
10
-80.5993
20
24.5916
11
-80.5993
21
24.6916
0
ARC
8
PARAMETRIX
10
-81.0493
20
24.6916
40
0.4500
50
0.0000
51
90.0000
0
LINE
8
PARAMETRIX
10
-81.0493
20
25.1416
11
-91.7137
21
25.1416
0
ARC
8
PARAMETRIX
10
-91.7137
20
24.6916
40
0.4500
50
90.0000
51
180.0000
0
LINE
8
PARAMETRIX
10
-92.1637
20
24.6916
11
-92.1637
21
24.5916
0
ARC
8
PARAMETRIX
10
-91.7137
20
24.5916
40
0.4500
50
180.0000
51
270.0000
0
LINE
8
PARAMETRIX
10
-116.4973
20
26.1416
11
-112.2302
21
26.1416
0
ARC
8
PARAMETRIX
10
-112.2302
20
26.5916
40
0.4500
50
270.0000
51
360.0000
0
LINE
8
PARAMETRIX
10
-111.7802
20
26.5916
11
-111.7802
21
26.6916
0
ARC
8
PARAMETRIX
10
-112.2302
20
26.6916
40
0.4500
50
0.0000
51
90.0000
0
LINE
8
PARAMETRIX
10
-112.2302
20
27.1416
11
-116.4973
21
27.1416
0
ARC
8
PARAMETRIX
10
-116.4973
20
26.6916
40
0.4500
50
90.0000
51
180.0000
0
LINE
8
PARAMETRIX
10
-116.9473
20
26.6916
11
-116.9473
21
26.5916
0
ARC
8
PARAMETRIX
10
-116.4973
20
26.5916
40
0.4500
50
180.0000
51
270.0000
0
LINE
8
PARAMETRIX
10
-110.3302
20
26.1416
11
-99.8960
21
26.1416
0
ARC
8
PARAMETRIX
10
-99.8960
20
26.5916
40
0.4500
50
270.0000
51
360.0000
0
LINE
8
PARAMETRIX
10
-99.4460
20
26.5916
11
-99.4460
21
26.6916
0
ARC
8
PARAMETRIX
10
-99.8960
20
26.6916
40
0.4500
50
0.0000
51
90.0000
0
LINE
8
PARAMETRIX
10
-99.8960
20
27.1416
11
-110.3302
21
27.1416
0
ARC
8
PARAMETRIX
10
-110.3302
20
26.6916
40
0.4500
50
90.0000
51
180.0000
0
LINE
8
PARAMETRIX
10
-110.7802
20
26.6916
11
-110.7802
21
26.5916
0
ARC
8
PARAMETRIX
10
-110.3302
20
26.5916
40
0.4500
50
180.0000
51
270.0000
0
LINE
8
PARAMETRIX
10
-97.9960
20
26.1416
11
-87.5618
21
26.1416
0
ARC
8
PARAMETRIX
10
-87.5618
20
26.5916
40
0.4500
50
270.0000
51
360.0000
0
LINE
8
PARAMETRIX
10
-87.1118
20
26.5916
11
-87.1118
21
26.6916
0
ARC
8
PARAMETRIX
10
-87.5618
20
26.6916
40
0.4500
50
0.0000
51
90.0000
0
LINE
8
PARAMETRIX
10
-87.5618
20
27.1416
11
-97.9960
21
27.1416
0
ARC
8
PARAMETRIX
10
-97.9960
20
26.6916
40
0.4500
50
90.0000
51
180.0000
0
LINE
8
PARAMETRIX
10
-98.4460
20
26.6916
11
-98.4460
21
26.5916
0
ARC
8
PARAMETRIX
10
-97.9960
20
26.5916
40
0.4500
50
180.0000
51
270.0000
0
LINE
8
PARAMETRIX
10
-85.6618
20
26.1416
11
-81.3947
21
26.1416
0
ARC
8
PARAMETRIX
10
-81.3947
20
26.5916
40
0.4500
50
270.0000
51
360.0000
0
LINE
8
PARAMETRIX
10
-80.9447
20
26.5916
11
-80.9447
21
26.6916
0
ARC
8
PARAMETRIX
10
-81.3947
20
26.6916
40
0.4500
50
360.0000
51
90.0000
0
LINE
8
PARAMETRIX
10
-81.3947
20
27.1416
11
-85.6618
21
27.1416
0
ARC
8
PARAMETRIX
10
-85.6618
20
26.6916
40
0.4500
50
90.0000
51
180.0000
0
LINE
8
PARAMETRIX
10
-86.1118
20
26.6916
11
-86.1118
21
26.5916
0
ARC
8
PARAMETRIX
10
-85.6618
20
26.5916
40
0.4500
50
180.0000
51
270.0000
0
LINE
8
PARAMETRIX
10
-116.0367
20
28.1416
11
-105.9096
21
28.1416
0
ARC
8
PARAMETRIX
10
-105.9096
20
28.5916
40
0.4500
50
270.0000
51
360.0000
0
LINE
8
PARAMETRIX
10
-105.4596
20
28.5916
11
-105.4596
21
28.6916
0
ARC
8
PARAMETRIX
10
-105.9096
20
28.6916
40
0.4500
50
0.0000
51
90.0000
0
LINE
8
PARAMETRIX
10
-105.9096
20
29.1416
11
-116.0367
21
29.1416
0
ARC
8
PARAMETRIX
10
-116.0367
20
28.6916
40
0.4500
50
90.0000
51
180.0000
0
LINE
8
PARAMETRIX
10
-116.4867
20
28.6916
11
-116.4867
21
28.5916
0
ARC
8
PARAMETRIX
10
-116.0367
20
28.5916
40
0.4500
50
180.0000
51
270.0000
0
LINE
8
PARAMETRIX
10
-104.0096
20
28.1416
11
-93.8824
21
28.1416
0
ARC
8
PARAMETRIX
10
-93.8824
20
28.5916
40
0.4500
50
270.0000
51
360.0000
0
LINE
8
PARAMETRIX
10
-93.4324
20
28.5916
11
-93.4324
21
28.6916
0
ARC
8
PARAMETRIX
10
-93.8824
20
28.6916
40
0.4500
50
0.0000
51
90.0000
0
LINE
8
PARAMETRIX
10
-93.8824
20
29.1416
11
-104.0096
21
29.1416
0
ARC
8
PARAMETRIX
10
-104.0096
20
28.6916
40
0.4500
50
90.0000
51
180.0000
0
LINE
8
PARAMETRIX
10
-104.4596
20
28.6916
11
-104.4596
21
28.5916
0
ARC
8
PARAMETRIX
10
-104.0096
20
28.5916
40
0.4500
50
180.0000
51
270.0000
0
LINE
8
PARAMETRIX
10
-91.9824
20
28.1416
11
-81.8552
21
28.1416
0
ARC
8
PARAMETRIX
10
-81.8552
20
28.5916
40
0.4500
50
270.0000
51
360.0000
0
LINE
8
PARAMETRIX
10
-81.4052
20
28.5916
11
-81.4052
21
28.6916
0
ARC
8
PARAMETRIX
10
-81.8552
20
28.6916
40
0.4500
50
0.0000
51
90.0000
0
LINE
8
PARAMETRIX
10
-81.8552
20
29.1416
11
-91.9824
21
29.1416
0
ARC
8
PARAMETRIX
10
-91.9824
20
28.6916
40
0.4500
50
90.0000
51
180.0000
0
LINE
8
PARAMETRIX
10
-92.4324
20
28.6916
11
-92.4324
21
28.5916
0
ARC
8
PARAMETRIX
10
-91.9824
20
28.5916
40
0.4500
50
180.0000
51
270.0000
0
CIRCLE
8
PARAMETRIX
10
-152.8069
20
4.2500
40
2.1250
0
CIRCLE
8
PARAMETRIX
10
-123.6135
20
4.2500
40
2.1250
0
CIRCLE
8
PARAMETRIX
10
-152.8069
20
12.7500
40
2.1250
0
CIRCLE
8
PARAMETRIX
10
-123.6135
20
12.7500
40
2.1250
0
CIRCLE
8
PARAMETRIX
10
-138.2102
20
-23.1416
40
8.0000
0
LINE
8
PARAMETRIX
10
-120.3135
20
-5.1416
11
-124.6957
21
-5.1416
0
ARC
8
PARAMETRIX
10
-124.6957
20
-5.5916
40
0.4500
50
90.0000
51
180.0000
0
LINE
8
PARAMETRIX
10
-125.1457
20
-5.5916
11
-125.1457
21
-5.6916
0
ARC
8
PARAMETRIX
10
-124.6957
20
-5.6916
40
0.4500
50
180.0000
51
270.0000
0
LINE
8
PARAMETRIX
10
-124.6957
20
-6.1416
11
-120.3135
21
-6.1416
0
ARC
8
PARAMETRIX
10
-120.3135
20
-5.6916
40
0.4500
50
270.0000
51
0.0000
0
LINE
8
PARAMETRIX
10
-119.8635
20
-5.6916
11
-119.8635
21
-5.5916
0
ARC
8
PARAMETRIX
10
-120.3135
20
-5.5916
40
0.4500
50
360.0000
51
90.0000
0
LINE
8
PARAMETRIX
10
-126.5957
20
-5.1416
11
-137.2602
21
-5.1416
0
ARC
8
PARAMETRIX
10
-137.2602
20
-5.5916
40
0.4500
50
90.0000
51
180.0000
0
LINE
8
PARAMETRIX
10
-137.7102
20
-5.5916
11
-137.7102
21
-5.6916
0
ARC
8
PARAMETRIX
10
-137.2602
20
-5.6916
40
0.4500
50
180.0000
51
270.0000
0
LINE
8
PARAMETRIX
10
-137.2602
20
-6.1416
11
-126.5957
21
-6.1416
0
ARC
8
PARAMETRIX
10
-126.5957
20
-5.6916
40
0.4500
50
270.0000
51
0.0000
0
LINE
8
PARAMETRIX
10
-126.1457
20
-5.6916
11
-126.1457
21
-5.5916
0
ARC
8
PARAMETRIX
10
-126.5957
20
-5.5916
40
0.4500
50
0.0000
51
90.0000
0
LINE
8
PARAMETRIX
10
-139.1602
20
-5.1416
11
-149.8247
21
-5.1416
0
ARC
8
PARAMETRIX
10
-149.8247
20
-5.5916
40
0.4500
50
90.0000
51
180.0000
0
LINE
8
PARAMETRIX
10
-150.2747
20
-5.5916
11
-150.2747
21
-5.6916
0
ARC
8
PARAMETRIX
10
-149.8247
20
-5.6916
40
0.4500
50
180.0000
51
270.0000
0
LINE
8
PARAMETRIX
10
-149.8247
20
-6.1416
11
-139.1602
21
-6.1416
0
ARC
8
PARAMETRIX
10
-139.1602
20
-5.6916
40
0.4500
50
270.0000
51
0.0000
0
LINE
8
PARAMETRIX
10
-138.7102
20
-5.6916
11
-138.7102
21
-5.5916
0
ARC
8
PARAMETRIX
10
-139.1602
20
-5.5916
40
0.4500
50
0.0000
51
90.0000
0
LINE
8
PARAMETRIX
10
-151.7247
20
-5.1416
11
-156.1069
21
-5.1416
0
ARC
8
PARAMETRIX
10
-156.1069
20
-5.5916
40
0.4500
50
90.0000
51
180.0000
0
LINE
8
PARAMETRIX
10
-156.5569
20
-5.5916
11
-156.5569
21
-5.6916
0
ARC
8
PARAMETRIX
10
-156.1069
20
-5.6916
40
0.4500
50
180.0000
51
270.0000
0
LINE
8
PARAMETRIX
10
-156.1069
20
-6.1416
11
-151.7247
21
-6.1416
0
ARC
8
PARAMETRIX
10
-151.7247
20
-5.6916
40
0.4500
50
270.0000
51
0.0000
0
LINE
8
PARAMETRIX
10
-151.2747
20
-5.6916
11
-151.2747
21
-5.5916
0
ARC
8
PARAMETRIX
10
-151.7247
20
-5.5916
40
0.4500
50
360.0000
51
90.0000
0
LINE
8
PARAMETRIX
10
-120.3135
20
-7.1416
11
-130.9780
21
-7.1416
0
ARC
8
PARAMETRIX
10
-130.9780
20
-7.5916
40
0.4500
50
90.0000
51
180.0000
0
LINE
8
PARAMETRIX
10
-131.4280
20
-7.5916
11
-131.4280
21
-7.6916
0
ARC
8
PARAMETRIX
10
-130.9780
20
-7.6916
40
0.4500
50
180.0000
51
270.0000
0
LINE
8
PARAMETRIX
10
-130.9780
20
-8.1416
11
-120.3135
21
-8.1416
0
ARC
8
PARAMETRIX
10
-120.3135
20
-7.6916
40
0.4500
50
270.0000
51
0.0000
0
LINE
8
PARAMETRIX
10
-119.8635
20
-7.6916
11
-119.8635
21
-7.5916
0
ARC
8
PARAMETRIX
10
-120.3135
20
-7.5916
40
0.4500
50
0.0000
51
90.0000
0
LINE
8
PARAMETRIX
10
-132.8780
20
-7.1416
11
-143.5424
21
-7.1416
0
ARC
8
PARAMETRIX
10
-143.5424
20
-7.5916
40
0.4500
50
90.0000
51
180.0000
0
LINE
8
PARAMETRIX
10
-143.9924
20
-7.5916
11
-143.9924
21
-7.6916
0
ARC
8
PARAMETRIX
10
-143.5424
20
-7.6916
40
0.4500
50
180.0000
51
270.0000
0
LINE
8
PARAMETRIX
10
-143.5424
20
-8.1416
11
-132.8780
21
-8.1416
0
ARC
8
PARAMETRIX
10
-132.8780
20
-7.6916
40
0.4500
50
270.0000
51
0.0000
0
LINE
8
PARAMETRIX
10
-132.4280
20
-7.6916
11
-132.4280
21
-7.5916
0
ARC
8
PARAMETRIX
10
-132.8780
20
-7.5916
40
0.4500
50
0.0000
51
90.0000
0
LINE
8
PARAMETRIX
10
-145.4424
20
-7.1416
11
-156.1069
21
-7.1416
0
ARC
8
PARAMETRIX
10
-156.1069
20
-7.5916
40
0.4500
50
90.0000
51
180.0000
0
LINE
8
PARAMETRIX
10
-156.5569
20
-7.5916
11
-156.5569
21
-7.6916
0
ARC
8
PARAMETRIX
10
-156.1069
20
-7.6916
40
0.4500
50
180.0000
51
270.0000
0
LINE
8
PARAMETRIX
10
-156.1069
20
-8.1416
11
-145.4424
21
-8.1416
0
ARC
8
PARAMETRIX
10
-145.4424
20
-7.6916
40
0.4500
50
270.0000
51
0.0000
0
LINE
8
PARAMETRIX
10
-144.9924
20
-7.6916
11
-144.9924
21
-7.5916
0
ARC
8
PARAMETRIX
10
-145.4424
20
-7.5916
40
0.4500
50
0.0000
51
90.0000
0
LINE
8
PARAMETRIX
10
-120.6589
20
-9.1416
11
-124.9260
21
-9.1416
0
ARC
8
PARAMETRIX
10
-124.9260
20
-9.5916
40
0.4500
50
90.0000
51
180.0000
0
LINE
8
PARAMETRIX
10
-125.3760
20
-9.5916
11
-125.3760
21
-9.6916
0
ARC
8
PARAMETRIX
10
-124.9260
20
-9.6916
40
0.4500
50
180.0000
51
270.0000
0
LINE
8
PARAMETRIX
10
-124.9260
20
-10.1416
11
-120.6589
21
-10.1416
0
ARC
8
PARAMETRIX
10
-120.6589
20
-9.6916
40
0.4500
50
270.0000
51
360.0000
0
LINE
8
PARAMETRIX
10
-120.2089
20
-9.6916
11
-120.2089
21
-9.5916
0
ARC
8
PARAMETRIX
10
-120.6589
20
-9.5916
40
0.4500
50
360.0000
51
90.0000
0
LINE
8
PARAMETRIX
10
-126.8260
20
-9.1416
11
-137.2602
21
-9.1416
0
ARC
8
PARAMETRIX
10
-137.2602
20
-9.5916
40
0.4500
50
90.0000
51
180.0000
0
LINE
8
PARAMETRIX
10
-137.7102
20
-9.5916
11
-137.7102
21
-9.6916
0
ARC
8
PARAMETRIX
10
-137.2602
20
-9.6916
40
0.4500
50
180.0000
51
270.0000
0
LINE
8
PARAMETRIX
10
-137.2602
20
-10.1416
11
-126.8260
21
-10.1416
0
ARC
8
PARAMETRIX
10
-126.8260
20
-9.6916
40
0.4500
50
270.0000
51
0.0000
0
LINE
8
PARAMETRIX
10
-126.3760
20
-9.6916
11
-126.3760
21
-9.5916
0
ARC
8
PARAMETRIX
10
-126.8260
20
-9.5916
40
0.4500
50
0.0000
51
90.0000
0
LINE
8
PARAMETRIX
10
-139.1602
20
-9.1416
11
-149.5944
21
-9.1416
0
ARC
8
PARAMETRIX
10
-149.5944
20
-9.5916
40
0.4500
50
90.0000
51
180.0000
0
LINE
8
PARAMETRIX
10
-150.0444
20
-9.5916
11
-150.0444
21
-9.6916
0
ARC
8
PARAMETRIX
10
-149.5944
20
-9.6916
40
0.4500
50
180.0000
51
270.0000
0
LINE
8
PARAMETRIX
10
-149.5944
20
-10.1416
11
-139.1602
21
-10.1416
0
ARC
8
PARAMETRIX
10
-139.1602
20
-9.6916
40
0.4500
50
270.0000
51
0.0000
0
LINE
8
PARAMETRIX
10
-138.7102
20
-9.6916
11
-138.7102
21
-9.5916
0
ARC
8
PARAMETRIX
10
-139.1602
20
-9.5916
40
0.4500
50
0.0000
51
90.0000
0
LINE
8
PARAMETRIX
10
-151.4944
20
-9.1416
11
-155.7615
21
-9.1416
0
ARC
8
PARAMETRIX
10
-155.7615
20
-9.5916
40
0.4500
50
90.0000
51
180.0000
0
LINE
8
PARAMETRIX
10
-156.2115
20
-9.5916
11
-156.2115
21
-9.6916
0
ARC
8
PARAMETRIX
10
-155.7615
20
-9.6916
40
0.4500
50
180.0000
51
270.0000
0
LINE
8
PARAMETRIX
10
-155.7615
20
-10.1416
11
-151.4944
21
-10.1416
0
ARC
8
PARAMETRIX
10
-151.4944
20
-9.6916
40
0.4500
50
270.0000
51
0.0000
0
LINE
8
PARAMETRIX
10
-151.0444
20
-9.6916
11
-151.0444
21
-9.5916
0
ARC
8
PARAMETRIX
10
-151.4944
20
-9.5916
40
0.4500
50
0.0000
51
90.0000
0
LINE
8
PARAMETRIX
10
-121.1195
20
-11.1416
11
-131.2466
21
-11.1416
0
ARC
8
PARAMETRIX
10
-131.2466
20
-11.5916
40
0.4500
50
90.0000
51
180.0000
0
LINE
8
PARAMETRIX
10
-131.6966
20
-11.5916
11
-131.6966
21
-11.6916
0
ARC
8
PARAMETRIX
10
-131.2466
20
-11.6916
40
0.4500
50
180.0000
51
270.0000
0
LINE
8
PARAMETRIX
10
-131.2466
20
-12.1416
11
-121.1195
21
-12.1416
0
ARC
8
PARAMETRIX
10
-121.1195
20
-11.6916
40
0.4500
50
270.0000
51
0.0000
0
LINE
8
PARAMETRIX
10
-120.6695
20
-11.6916
11
-120.6695
21
-11.5916
0
ARC
8
PARAMETRIX
10
-121.1195
20
-11.5916
40
0.4500
50
0.0000
51
90.0000
0
LINE
8
PARAMETRIX
10
-133.1466
20
-11.1416
11
-143.2738
21
-11.1416
0
ARC
8
PARAMETRIX
10
-143.2738
20
-11.5916
40
0.4500
50
90.0000
51
180.0000
0
LINE
8
PARAMETRIX
10
-143.7238
20
-11.5916
11
-143.7238
21
-11.6916
0
ARC
8
PARAMETRIX
10
-143.2738
20
-11.6916
40
0.4500
50
180.0000
51
270.0000
0
LINE
8
PARAMETRIX
10
-143.2738
20
-12.1416
11
-133.1466
21
-12.1416
0
ARC
8
PARAMETRIX
10
-133.1466
20
-11.6916
40
0.4500
50
270.0000
51
0.0000
0
LINE
8
PARAMETRIX
10
-132.6966
20
-11.6916
11
-132.6966
21
-11.5916
0
ARC
8
PARAMETRIX
10
-133.1466
20
-11.5916
40
0.4500
50
0.0000
51
90.0000
0
LINE
8
PARAMETRIX
10
-145.1738
20
-11.1416
11
-155.3010
21
-11.1416
0
ARC
8
PARAMETRIX
10
-155.3010
20
-11.5916
40
0.4500
50
90.0000
51
180.0000
0
LINE
8
PARAMETRIX
10
-155.7510
20
-11.5916
11
-155.7510
21
-11.6916
0
ARC
8
PARAMETRIX
10
-155.3010
20
-11.6916
40
0.4500
50
180.0000
51
270.0000
0
LINE
8
PARAMETRIX
10
-155.3010
20
-12.1416
11
-145.1738
21
-12.1416
0
ARC
8
PARAMETRIX
10
-145.1738
20
-11.6916
40
0.4500
50
270.0000
51
0.0000
0
LINE
8
PARAMETRIX
10
-144.7238
20
-11.6916
11
-144.7238
21
-11.5916
0
ARC
8
PARAMETRIX
10
-145.1738
20
-11.5916
40
0.4500
50
0.0000
51
90.0000
0
CIRCLE
8
PARAMETRIX
10
-138.2102
20
40.1416
40
8.0000
0
LINE
8
PARAMETRIX
10
-156.1069
20
22.1416
11
-151.7247
21
22.1416
0
ARC
8
PARAMETRIX
10
-151.7247
20
22.5916
40
0.4500
50
270.0000
51
360.0000
0
LINE
8
PARAMETRIX
10
-151.2747
20
22.5916
11
-151.2747
21
22.6916
0
ARC
8
PARAMETRIX
10
-151.7247
20
22.6916
40
0.4500
50
0.0000
51
90.0000
0
LINE
8
PARAMETRIX
10
-151.7247
20
23.1416
11
-156.1069
21
23.1416
0
ARC
8
PARAMETRIX
10
-156.1069
20
22.6916
40
0.4500
50
90.0000
51
180.0000
0
LINE
8
PARAMETRIX
10
-156.5569
20
22.6916
11
-156.5569
21
22.5916
0
ARC
8
PARAMETRIX
10
-156.1069
20
22.5916
40
0.4500
50
180.0000
51
270.0000
0
LINE
8
PARAMETRIX
10
-149.8247
20
22.1416
11
-139.1602
21
22.1416
0
ARC
8
PARAMETRIX
10
-139.1602
20
22.5916
40
0.4500
50
270.0000
51
360.0000
0
LINE
8
PARAMETRIX
10
-138.7102
20
22.5916
11
-138.7102
21
22.6916
0
ARC
8
PARAMETRIX
10
-139.1602
20
22.6916
40
0.4500
50
0.0000
51
90.0000
0
LINE
8
PARAMETRIX
10
-139.1602
20
23.1416
11
-149.8247
21
23.1416
0
ARC
8
PARAMETRIX
10
-149.8247
20
22.6916
40
0.4500
50
90.0000
51
180.0000
0
LINE
8
PARAMETRIX
10
-150.2747
20
22.6916
11
-150.2747
21
22.5916
0
ARC
8
PARAMETRIX
10
-149.8247
20
22.5916
40
0.4500
50
180.0000
51
270.0000
0
LINE
8
PARAMETRIX
10
-137.2602
20
22.1416
11
-126.5957
21
22.1416
0
ARC
8
PARAMETRIX
10
-126.5957
20
22.5916
40
0.4500
50
270.0000
51
360.0000
0
LINE
8
PARAMETRIX
10
-126.1457
20
22.5916
11
-126.1457
21
22.6916
0
ARC
8
PARAMETRIX
10
-126.5957
20
22.6916
40
0.4500
50
0.0000
51
90.0000
0
LINE
8
PARAMETRIX
10
-126.5957
20
23.1416
11
-137.2602
21
23.1416
0
ARC
8
PARAMETRIX
10
-137.2602
20
22.6916
40
0.4500
50
90.0000
51
180.0000
0
LINE
8
PARAMETRIX
10
-137.7102
20
22.6916
11
-137.7102
21
22.5916
0
ARC
8
PARAMETRIX
10
-137.2602
20
22.5916
40
0.4500
50
180.0000
51
270.0000
0
LINE
8
PARAMETRIX
10
-124.6957
20
22.1416
11
-120.3135
21
22.1416
0
ARC
8
PARAMETRIX
10
-120.3135
20
22.5916
40
0.4500
50
270.0000
51
360.0000
0
LINE
8
PARAMETRIX
10
-119.8635
20
22.5916
11
-119.8635
21
22.6916
0
ARC
8
PARAMETRIX
10
-120.3135
20
22.6916
40
0.4500
50
0.0000
51
90.0000
0
LINE
8
PARAMETRIX
10
-120.3135
20
23.1416
11
-124.6957
21
23.1416
0
ARC
8
PARAMETRIX
10
-124.6957
20
22.6916
40
0.4500
50
90.0000
51
180.0000
0
LINE
8
PARAMETRIX
10
-125.1457
20
22.6916
11
-125.1457
21
22.5916
0
ARC
8
PARAMETRIX
10
-124.6957
20
22.5916
40
0.4500
50
180.0000
51
270.0000
0
LINE
8
PARAMETRIX
10
-156.1069
20
24.1416
11
-145.4424
21
24.1416
0
ARC
8
PARAMETRIX
10
-145.4424
20
24.5916
40
0.4500
50
270.0000
51
360.0000
0
LINE
8
PARAMETRIX
10
-144.9924
20
24.5916
11
-144.9924
21
24.6916
0
ARC
8
PARAMETRIX
10
-145.4424
20
24.6916
40
0.4500
50
0.0000
51
90.0000
0
LINE
8
PARAMETRIX
10
-145.4424
20
25.1416
11
-156.1069
21
25.1416
0
ARC
8
PARAMETRIX
10
-156.1069
20
24.6916
40
0.4500
50
90.0000
51
180.0000
0
LINE
8
PARAMETRIX
10
-156.5569
20
24.6916
11
-156.5569
21
24.5916
0
ARC
8
PARAMETRIX
10
-156.1069
20
24.5916
40
0.4500
50
180.0000
51
270.0000
0
LINE
8
PARAMETRIX
10
-143.5424
20
24.1416
11
-132.8780
21
24.1416
0
ARC
8
PARAMETRIX
10
-132.8780
20
24.5916
40
0.4500
50
270.0000
51
360.0000
0
LINE
8
PARAMETRIX
10
-132.4280
20
24.5916
11
-132.4280
21
24.6916
0
ARC
8
PARAMETRIX
10
-132.8780
20
24.6916
40
0.4500
50
0.0000
51
90.0000
0
LINE
8
PARAMETRIX
10
-132.8780
20
25.1416
11
-143.5424
21
25.1416
0
ARC
8
PARAMETRIX
10
-143.5424
20
24.6916
40
0.4500
50
90.0000
51
180.0000
0
LINE
8
PARAMETRIX
10
-143.9924
20
24.6916
11
-143.9924
21
24.5916
0
ARC
8
PARAMETRIX
10
-143.5424
20
24.5916
40
0.4500
50
180.0000
51
270.0000
0
LINE
8
PARAMETRIX
10
-130.9780
20
24.1416
11
-120.3135
21
24.1416
0
ARC
8
PARAMETRIX
10
-120.3135
20
24.5916
40
0.4500
50
270.0000
51
360.0000
0
LINE
8
PARAMETRIX
10
-119.8635
20
24.5916
11
-119.8635
21
24.6916
0
ARC
8
PARAMETRIX
10
-120.3135
20
24.6916
40
0.4500
50
0.0000
51
90.0000
0
LINE
8
PARAMETRIX
10
-120.3135
20
25.1416
11
-130.9780
21
25.1416
0
ARC
8
PARAMETRIX
10
-130.9780
20
24.6916
40
0.4500
50
90.0000
51
180.0000
0
LINE
8
PARAMETRIX
10
-131.4280
20
24.6916
11
-131.4280
21
24.5916
0
ARC
8
PARAMETRIX
10
-130.9780
20
24.5916
40
0.4500
50
180.0000
51
270.0000
0
LINE
8
PARAMETRIX
10
-155.7615
20
26.1416
11
-151.4944
21
26.1416
0
ARC
8
PARAMETRIX
10
-151.4944
20
26.5916
40
0.4500
50
270.0000
51
360.0000
0
LINE
8
PARAMETRIX
10
-151.0444
20
26.5916
11
-151.0444
21
26.6916
0
ARC
8
PARAMETRIX
10
-151.4944
20
26.6916
40
0.4500
50
0.0000
51
90.0000
0
LINE
8
PARAMETRIX
10
-151.4944
20
27.1416
11
-155.7615
21
27.1416
0
ARC
8
PARAMETRIX
10
-155.7615
20
26.6916
40
0.4500
50
90.0000
51
180.0000
0
LINE
8
PARAMETRIX
10
-156.2115
20
26.6916
11
-156.2115
21
26.5916
0
ARC
8
PARAMETRIX
10
-155.7615
20
26.5916
40
0.4500
50
180.0000
51
270.0000
0
LINE
8
PARAMETRIX
10
-149.5944
20
26.1416
11
-139.1602
21
26.1416
0
ARC
8
PARAMETRIX
10
-139.1602
20
26.5916
40
0.4500
50
270.0000
51
360.0000
0
LINE
8
PARAMETRIX
10
-138.7102
20
26.5916
11
-138.7102
21
26.6916
0
ARC
8
PARAMETRIX
10
-139.1602
20
26.6916
40
0.4500
50
0.0000
51
90.0000
0
LINE
8
PARAMETRIX
10
-139.1602
20
27.1416
11
-149.5944
21
27.1416
0
ARC
8
PARAMETRIX
10
-149.5944
20
26.6916
40
0.4500
50
90.0000
51
180.0000
0
LINE
8
PARAMETRIX
10
-150.0444
20
26.6916
11
-150.0444
21
26.5916
0
ARC
8
PARAMETRIX
10
-149.5944
20
26.5916
40
0.4500
50
180.0000
51
270.0000
0
LINE
8
PARAMETRIX
10
-137.2602
20
26.1416
11
-126.8260
21
26.1416
0
ARC
8
PARAMETRIX
10
-126.8260
20
26.5916
40
0.4500
50
270.0000
51
360.0000
0
LINE
8
PARAMETRIX
10
-126.3760
20
26.5916
11
-126.3760
21
26.6916
0
ARC
8
PARAMETRIX
10
-126.8260
20
26.6916
40
0.4500
50
0.0000
51
90.0000
0
LINE
8
PARAMETRIX
10
-126.8260
20
27.1416
11
-137.2602
21
27.1416
0
ARC
8
PARAMETRIX
10
-137.2602
20
26.6916
40
0.4500
50
90.0000
51
180.0000
0
LINE
8
PARAMETRIX
10
-137.7102
20
26.6916
11
-137.7102
21
26.5916
0
ARC
8
PARAMETRIX
10
-137.2602
20
26.5916
40
0.4500
50
180.0000
51
270.0000
0
LINE
8
PARAMETRIX
10
-124.9260
20
26.1416
11
-120.6589
21
26.1416
0
ARC
8
PARAMETRIX
10
-120.6589
20
26.5916
40
0.4500
50
270.0000
51
360.0000
0
LINE
8
PARAMETRIX
10
-120.2089
20
26.5916
11
-120.2089
21
26.6916
0
ARC
8
PARAMETRIX
10
-120.6589
20
26.6916
40
0.4500
50
360.0000
51
90.0000
0
LINE
8
PARAMETRIX
10
-120.6589
20
27.1416
11
-124.9260
21
27.1416
0
ARC
8
PARAMETRIX
10
-124.9260
20
26.6916
40
0.4500
50
90.0000
51
180.0000
0
LINE
8
PARAMETRIX
10
-125.3760
20
26.6916
11
-125.3760
21
26.5916
0
ARC
8
PARAMETRIX
10
-124.9260
20
26.5916
40
0.4500
50
180.0000
51
270.0000
0
LINE
8
PARAMETRIX
10
-155.3010
20
28.1416
11
-145.1738
21
28.1416
0
ARC
8
PARAMETRIX
10
-145.1738
20
28.5916
40
0.4500
50
270.0000
51
360.0000
0
LINE
8
PARAMETRIX
10
-144.7238
20
28.5916
11
-144.7238
21
28.6916
0
ARC
8
PARAMETRIX
10
-145.1738
20
28.6916
40
0.4500
50
0.0000
51
90.0000
0
LINE
8
PARAMETRIX
10
-145.1738
20
29.1416
11
-155.3010
21
29.1416
0
ARC
8
PARAMETRIX
10
-155.3010
20
28.6916
40
0.4500
50
90.0000
51
180.0000
0
LINE
8
PARAMETRIX
10
-155.7510
20
28.6916
11
-155.7510
21
28.5916
0
ARC
8
PARAMETRIX
10
-155.3010
20
28.5916
40
0.4500
50
180.0000
51
270.0000
0
LINE
8
PARAMETRIX
10
-143.2738
20
28.1416
11
-133.1466
21
28.1416
0
ARC
8
PARAMETRIX
10
-133.1466
20
28.5916
40
0.4500
50
270.0000
51
360.0000
0
LINE
8
PARAMETRIX
10
-132.6966
20
28.5916
11
-132.6966
21
28.6916
0
ARC
8
PARAMETRIX
10
-133.1466
20
28.6916
40
0.4500
50
0.0000
51
90.0000
0
LINE
8
PARAMETRIX
10
-133.1466
20
29.1416
11
-143.2738
21
29.1416
0
ARC
8
PARAMETRIX
10
-143.2738
20
28.6916
40
0.4500
50
90.0000
51
180.0000
0
LINE
8
PARAMETRIX
10
-143.7238
20
28.6916
11
-143.7238
21
28.5916
0
ARC
8
PARAMETRIX
10
-143.2738
20
28.5916
40
0.4500
50
180.0000
51
270.0000
0
LINE
8
PARAMETRIX
10
-131.2466
20
28.1416
11
-121.1195
21
28.1416
0
ARC
8
PARAMETRIX
10
-121.1195
20
28.5916
40
0.4500
50
270.0000
51
360.0000
0
LINE
8
PARAMETRIX
10
-120.6695
20
28.5916
11
-120.6695
21
28.6916
0
ARC
8
PARAMETRIX
10
-121.1195
20
28.6916
40
0.4500
50
0.0000
51
90.0000
0
LINE
8
PARAMETRIX
10
-121.1195
20
29.1416
11
-131.2466
21
29.1416
0
ARC
8
PARAMETRIX
10
-131.2466
20
28.6916
40
0.4500
50
90.0000
51
180.0000
0
LINE
8
PARAMETRIX
10
-131.6966
20
28.6916
11
-131.6966
21
28.5916
0
ARC
8
PARAMETRIX
10
-131.2466
20
28.5916
40
0.4500
50
180.0000
51
270.0000
0
CIRCLE
8
PARAMETRIX
10
-192.0712
20
4.2500
40
2.1250
0
CIRCLE
8
PARAMETRIX
10
-162.8777
20
4.2500
40
2.1250
0
CIRCLE
8
PARAMETRIX
10
-192.0712
20
12.7500
40
2.1250
0
CIRCLE
8
PARAMETRIX
10
-162.8777
20
12.7500
40
2.1250
0
CIRCLE
8
PARAMETRIX
10
-177.4744
20
-23.1416
40
8.0000
0
LINE
8
PARAMETRIX
10
-159.5777
20
-5.1416
11
-163.9600
21
-5.1416
0
ARC
8
PARAMETRIX
10
-163.9600
20
-5.5916
40
0.4500
50
90.0000
51
180.0000
0
LINE
8
PARAMETRIX
10
-164.4100
20
-5.5916
11
-164.4100
21
-5.6916
0
ARC
8
PARAMETRIX
10
-163.9600
20
-5.6916
40
0.4500
50
180.0000
51
270.0000
0
LINE
8
PARAMETRIX
10
-163.9600
20
-6.1416
11
-159.5777
21
-6.1416
0
ARC
8
PARAMETRIX
10
-159.5777
20
-5.6916
40
0.4500
50
270.0000
51
0.0000
0
LINE
8
PARAMETRIX
10
-159.1277
20
-5.6916
11
-159.1277
21
-5.5916
0
ARC
8
PARAMETRIX
10
-159.5777
20
-5.5916
40
0.4500
50
0.0000
51
90.0000
0
LINE
8
PARAMETRIX
10
-165.8600
20
-5.1416
11
-176.5244
21
-5.1416
0
ARC
8
PARAMETRIX
10
-176.5244
20
-5.5916
40
0.4500
50
90.0000
51
180.0000
0
LINE
8
PARAMETRIX
10
-176.9744
20
-5.5916
11
-176.9744
21
-5.6916
0
ARC
8
PARAMETRIX
10
-176.5244
20
-5.6916
40
0.4500
50
180.0000
51
270.0000
0
LINE
8
PARAMETRIX
10
-176.5244
20
-6.1416
11
-165.8600
21
-6.1416
0
ARC
8
PARAMETRIX
10
-165.8600
20
-5.6916
40
0.4500
50
270.0000
51
0.0000
0
LINE
8
PARAMETRIX
10
-165.4100
20
-5.6916
11
-165.4100
21
-5.5916
0
ARC
8
PARAMETRIX
10
-165.8600
20
-5.5916
40
0.4500
50
360.0000
51
90.0000
0
LINE
8
PARAMETRIX
10
-178.4244
20
-5.1416
11
-189.0889
21
-5.1416
0
ARC
8
PARAMETRIX
10
-189.0889
20
-5.5916
40
0.4500
50
90.0000
51
180.0000
0
LINE
8
PARAMETRIX
10
-189.5389
20
-5.5916
11
-189.5389
21
-5.6916
0
ARC
8
PARAMETRIX
10
-189.0889
20
-5.6916
40
0.4500
50
180.0000
51
270.0000
0
LINE
8
PARAMETRIX
10
-189.0889
20
-6.1416
11
-178.4244
21
-6.1416
0
ARC
8
PARAMETRIX
10
-178.4244
20
-5.6916
40
0.4500
50
270.0000
51
0.0000
0
LINE
8
PARAMETRIX
10
-177.9744
20
-5.6916
11
-177.9744
21
-5.5916
0
ARC
8
PARAMETRIX
10
-178.4244
20
-5.5916
40
0.4500
50
360.0000
51
90.0000
0
LINE
8
PARAMETRIX
10
-190.9889
20
-5.1416
11
-195.3712
21
-5.1416
0
ARC
8
PARAMETRIX
10
-195.3712
20
-5.5916
40
0.4500
50
90.0000
51
180.0000
0
LINE
8
PARAMETRIX
10
-195.8212
20
-5.5916
11
-195.8212
21
-5.6916
0
ARC
8
PARAMETRIX
10
-195.3712
20
-5.6916
40
0.4500
50
180.0000
51
270.0000
0
LINE
8
PARAMETRIX
10
-195.3712
20
-6.1416
11
-190.9889
21
-6.1416
0
ARC
8
PARAMETRIX
10
-190.9889
20
-5.6916
40
0.4500
50
270.0000
51
0.0000
0
LINE
8
PARAMETRIX
10
-190.5389
20
-5.6916
11
-190.5389
21
-5.5916
0
ARC
8
PARAMETRIX
10
-190.9889
20
-5.5916
40
0.4500
50
0.0000
51
90.0000
0
LINE
8
PARAMETRIX
10
-159.5777
20
-7.1416
11
-170.2422
21
-7.1416
0
ARC
8
PARAMETRIX
10
-170.2422
20
-7.5916
40
0.4500
50
90.0000
51
180.0000
0
LINE
8
PARAMETRIX
10
-170.6922
20
-7.5916
11
-170.6922
21
-7.6916
0
ARC
8
PARAMETRIX
10
-170.2422
20
-7.6916
40
0.4500
50
180.0000
51
270.0000
0
LINE
8
PARAMETRIX
10
-170.2422
20
-8.1416
11
-159.5777
21
-8.1416
0
ARC
8
PARAMETRIX
10
-159.5777
20
-7.6916
40
0.4500
50
270.0000
51
0.0000
0
LINE
8
PARAMETRIX
10
-159.1277
20
-7.6916
11
-159.1277
21
-7.5916
0
ARC
8
PARAMETRIX
10
-159.5777
20
-7.5916
40
0.4500
50
360.0000
51
90.0000
0
LINE
8
PARAMETRIX
10
-172.1422
20
-7.1416
11
-182.8067
21
-7.1416
0
ARC
8
PARAMETRIX
10
-182.8067
20
-7.5916
40
0.4500
50
90.0000
51
180.0000
0
LINE
8
PARAMETRIX
10
-183.2567
20
-7.5916
11
-183.2567
21
-7.6916
0
ARC
8
PARAMETRIX
10
-182.8067
20
-7.6916
40
0.4500
50
180.0000
51
270.0000
0
LINE
8
PARAMETRIX
10
-182.8067
20
-8.1416
11
-172.1422
21
-8.1416
0
ARC
8
PARAMETRIX
10
-172.1422
20
-7.6916
40
0.4500
50
270.0000
51
0.0000
0
LINE
8
PARAMETRIX
10
-171.6922
20
-7.6916
11
-171.6922
21
-7.5916
0
ARC
8
PARAMETRIX
10
-172.1422
20
-7.5916
40
0.4500
50
360.0000
51
90.0000
0
LINE
8
PARAMETRIX
10
-184.7067
20
-7.1416
11
-195.3712
21
-7.1416
0
ARC
8
PARAMETRIX
10
-195.3712
20
-7.5916
40
0.4500
50
90.0000
51
180.0000
0
LINE
8
PARAMETRIX
10
-195.8212
20
-7.5916
11
-195.8212
21
-7.6916
0
ARC
8
PARAMETRIX
10
-195.3712
20
-7.6916
40
0.4500
50
180.0000
51
270.0000
0
LINE
8
PARAMETRIX
10
-195.3712
20
-8.1416
11
-184.7067
21
-8.1416
0
ARC
8
PARAMETRIX
10
-184.7067
20
-7.6916
40
0.4500
50
270.0000
51
0.0000
0
LINE
8
PARAMETRIX
10
-184.2567
20
-7.6916
11
-184.2567
21
-7.5916
0
ARC
8
PARAMETRIX
10
-184.7067
20
-7.5916
40
0.4500
50
0.0000
51
90.0000
0
LINE
8
PARAMETRIX
10
-159.9231
20
-9.1416
11
-164.1902
21
-9.1416
0
ARC
8
PARAMETRIX
10
-164.1902
20
-9.5916
40
0.4500
50
90.0000
51
180.0000
0
LINE
8
PARAMETRIX
10
-164.6402
20
-9.5916
11
-164.6402
21
-9.6916
0
ARC
8
PARAMETRIX
10
-164.1902
20
-9.6916
40
0.4500
50
180.0000
51
270.0000
0
LINE
8
PARAMETRIX
10
-164.1902
20
-10.1416
11
-159.9231
21
-10.1416
0
ARC
8
PARAMETRIX
10
-159.9231
20
-9.6916
40
0.4500
50
270.0000
51
0.0000
0
LINE
8
PARAMETRIX
10
-159.4731
20
-9.6916
11
-159.4731
21
-9.5916
0
ARC
8
PARAMETRIX
10
-159.9231
20
-9.5916
40
0.4500
50
0.0000
51
90.0000
0
LINE
8
PARAMETRIX
10
-166.0902
20
-9.1416
11
-176.5244
21
-9.1416
0
ARC
8
PARAMETRIX
10
-176.5244
20
-9.5916
40
0.4500
50
90.0000
51
180.0000
0
LINE
8
PARAMETRIX
10
-176.9744
20
-9.5916
11
-176.9744
21
-9.6916
0
ARC
8
PARAMETRIX
10
-176.5244
20
-9.6916
40
0.4500
50
180.0000
51
270.0000
0
LINE
8
PARAMETRIX
10
-176.5244
20
-10.1416
11
-166.0902
21
-10.1416
0
ARC
8
PARAMETRIX
10
-166.0902
20
-9.6916
40
0.4500
50
270.0000
51
0.0000
0
LINE
8
PARAMETRIX
10
-165.6402
20
-9.6916
11
-165.6402
21
-9.5916
0
ARC
8
PARAMETRIX
10
-166.0902
20
-9.5916
40
0.4500
50
0.0000
51
90.0000
0
LINE
8
PARAMETRIX
10
-178.4244
20
-9.1416
11
-188.8586
21
-9.1416
0
ARC
8
PARAMETRIX
10
-188.8586
20
-9.5916
40
0.4500
50
90.0000
51
180.0000
0
LINE
8
PARAMETRIX
10
-189.3086
20
-9.5916
11
-189.3086
21
-9.6916
0
ARC
8
PARAMETRIX
10
-188.8586
20
-9.6916
40
0.4500
50
180.0000
51
270.0000
0
LINE
8
PARAMETRIX
10
-188.8586
20
-10.1416
11
-178.4244
21
-10.1416
0
ARC
8
PARAMETRIX
10
-178.4244
20
-9.6916
40
0.4500
50
270.0000
51
360.0000
0
LINE
8
PARAMETRIX
10
-177.9744
20
-9.6916
11
-177.9744
21
-9.5916
0
ARC
8
PARAMETRIX
10
-178.4244
20
-9.5916
40
0.4500
50
360.0000
51
90.0000
0
LINE
8
PARAMETRIX
10
-190.7586
20
-9.1416
11
-195.0257
21
-9.1416
0
ARC
8
PARAMETRIX
10
-195.0257
20
-9.5916
40
0.4500
50
90.0000
51
180.0000
0
LINE
8
PARAMETRIX
10
-195.4757
20
-9.5916
11
-195.4757
21
-9.6916
0
ARC
8
PARAMETRIX
10
-195.0257
20
-9.6916
40
0.4500
50
180.0000
51
270.0000
0
LINE
8
PARAMETRIX
10
-195.0257
20
-10.1416
11
-190.7586
21
-10.1416
0
ARC
8
PARAMETRIX
10
-190.7586
20
-9.6916
40
0.4500
50
270.0000
51
0.0000
0
LINE
8
PARAMETRIX
10
-190.3086
20
-9.6916
11
-190.3086
21
-9.5916
0
ARC
8
PARAMETRIX
10
-190.7586
20
-9.5916
40
0.4500
50
0.0000
51
90.0000
0
LINE
8
PARAMETRIX
10
-160.3837
20
-11.1416
11
-170.5109
21
-11.1416
0
ARC
8
PARAMETRIX
10
-170.5109
20
-11.5916
40
0.4500
50
90.0000
51
180.0000
0
LINE
8
PARAMETRIX
10
-170.9609
20
-11.5916
11
-170.9609
21
-11.6916
0
ARC
8
PARAMETRIX
10
-170.5109
20
-11.6916
40
0.4500
50
180.0000
51
270.0000
0
LINE
8
PARAMETRIX
10
-170.5109
20
-12.1416
11
-160.3837
21
-12.1416
0
ARC
8
PARAMETRIX
10
-160.3837
20
-11.6916
40
0.4500
50
270.0000
51
0.0000
0
LINE
8
PARAMETRIX
10
-159.9337
20
-11.6916
11
-159.9337
21
-11.5916
0
ARC
8
PARAMETRIX
10
-160.3837
20
-11.5916
40
0.4500
50
0.0000
51
90.0000
0
LINE
8
PARAMETRIX
10
-172.4109
20
-11.1416
11
-182.5380
21
-11.1416
0
ARC
8
PARAMETRIX
10
-182.5380
20
-11.5916
40
0.4500
50
90.0000
51
180.0000
0
LINE
8
PARAMETRIX
10
-182.9880
20
-11.5916
11
-182.9880
21
-11.6916
0
ARC
8
PARAMETRIX
10
-182.5380
20
-11.6916
40
0.4500
50
180.0000
51
270.0000
0
LINE
8
PARAMETRIX
10
-182.5380
20
-12.1416
11
-172.4109
21
-12.1416
0
ARC
8
PARAMETRIX
10
-172.4109
20
-11.6916
40
0.4500
50
270.0000
51
0.0000
0
LINE
8
PARAMETRIX
10
-171.9609
20
-11.6916
11
-171.9609
21
-11.5916
0
ARC
8
PARAMETRIX
10
-172.4109
20
-11.5916
40
0.4500
50
0.0000
51
90.0000
0
LINE
8
PARAMETRIX
10
-184.4380
20
-11.1416
11
-194.5652
21
-11.1416
0
ARC
8
PARAMETRIX
10
-194.5652
20
-11.5916
40
0.4500
50
90.0000
51
180.0000
0
LINE
8
PARAMETRIX
10
-195.0152
20
-11.5916
11
-195.0152
21
-11.6916
0
ARC
8
PARAMETRIX
10
-194.5652
20
-11.6916
40
0.4500
50
180.0000
51
270.0000
0
LINE
8
PARAMETRIX
10
-194.5652
20
-12.1416
11
-184.4380
21
-12.1416
0
ARC
8
PARAMETRIX
10
-184.4380
20
-11.6916
40
0.4500
50
270.0000
51
0.0000
0
LINE
8
PARAMETRIX
10
-183.9880
20
-11.6916
11
-183.9880
21
-11.5916
0
ARC
8
PARAMETRIX
10
-184.4380
20
-11.5916
40
0.4500
50
0.0000
51
90.0000
0
CIRCLE
8
PARAMETRIX
10
-177.4744
20
40.1416
40
8.0000
0
LINE
8
PARAMETRIX
10
-195.3712
20
22.1416
11
-190.9889
21
22.1416
0
ARC
8
PARAMETRIX
10
-190.9889
20
22.5916
40
0.4500
50
270.0000
51
360.0000
0
LINE
8
PARAMETRIX
10
-190.5389
20
22.5916
11
-190.5389
21
22.6916
0
ARC
8
PARAMETRIX
10
-190.9889
20
22.6916
40
0.4500
50
0.0000
51
90.0000
0
LINE
8
PARAMETRIX
10
-190.9889
20
23.1416
11
-195.3712
21
23.1416
0
ARC
8
PARAMETRIX
10
-195.3712
20
22.6916
40
0.4500
50
90.0000
51
180.0000
0
LINE
8
PARAMETRIX
10
-195.8212
20
22.6916
11
-195.8212
21
22.5916
0
ARC
8
PARAMETRIX
10
-195.3712
20
22.5916
40
0.4500
50
180.0000
51
270.0000
0
LINE
8
PARAMETRIX
10
-189.0889
20
22.1416
11
-178.4244
21
22.1416
0
ARC
8
PARAMETRIX
10
-178.4244
20
22.5916
40
0.4500
50
270.0000
51
360.0000
0
LINE
8
PARAMETRIX
10
-177.9744
20
22.5916
11
-177.9744
21
22.6916
0
ARC
8
PARAMETRIX
10
-178.4244
20
22.6916
40
0.4500
50
0.0000
51
90.0000
0
LINE
8
PARAMETRIX
10
-178.4244
20
23.1416
11
-189.0889
21
23.1416
0
ARC
8
PARAMETRIX
10
-189.0889
20
22.6916
40
0.4500
50
90.0000
51
180.0000
0
LINE
8
PARAMETRIX
10
-189.5389
20
22.6916
11
-189.5389
21
22.5916
0
ARC
8
PARAMETRIX
10
-189.0889
20
22.5916
40
0.4500
50
180.0000
51
270.0000
0
LINE
8
PARAMETRIX
10
-176.5244
20
22.1416
11
-165.8600
21
22.1416
0
ARC
8
PARAMETRIX
10
-165.8600
20
22.5916
40
0.4500
50
270.0000
51
360.0000
0
LINE
8
PARAMETRIX
10
-165.4100
20
22.5916
11
-165.4100
21
22.6916
0
ARC
8
PARAMETRIX
10
-165.8600
20
22.6916
40
0.4500
50
0.0000
51
90.0000
0
LINE
8
PARAMETRIX
10
-165.8600
20
23.1416
11
-176.5244
21
23.1416
0
ARC
8
PARAMETRIX
10
-176.5244
20
22.6916
40
0.4500
50
90.0000
51
180.0000
0
LINE
8
PARAMETRIX
10
-176.9744
20
22.6916
11
-176.9744
21
22.5916
0
ARC
8
PARAMETRIX
10
-176.5244
20
22.5916
40
0.4500
50
180.0000
51
270.0000
0
LINE
8
PARAMETRIX
10
-163.9600
20
22.1416
11
-159.5777
21
22.1416
0
ARC
8
PARAMETRIX
10
-159.5777
20
22.5916
40
0.4500
50
270.0000
51
360.0000
0
LINE
8
PARAMETRIX
10
-159.1277
20
22.5916
11
-159.1277
21
22.6916
0
ARC
8
PARAMETRIX
10
-159.5777
20
22.6916
40
0.4500
50
0.0000
51
90.0000
0
LINE
8
PARAMETRIX
10
-159.5777
20
23.1416
11
-163.9600
21
23.1416
0
ARC
8
PARAMETRIX
10
-163.9600
20
22.6916
40
0.4500
50
90.0000
51
180.0000
0
LINE
8
PARAMETRIX
10
-164.4100
20
22.6916
11
-164.4100
21
22.5916
0
ARC
8
PARAMETRIX
10
-163.9600
20
22.5916
40
0.4500
50
180.0000
51
270.0000
0
LINE
8
PARAMETRIX
10
-195.3712
20
24.1416
11
-184.7067
21
24.1416
0
ARC
8
PARAMETRIX
10
-184.7067
20
24.5916
40
0.4500
50
270.0000
51
360.0000
0
LINE
8
PARAMETRIX
10
-184.2567
20
24.5916
11
-184.2567
21
24.6916
0
ARC
8
PARAMETRIX
10
-184.7067
20
24.6916
40
0.4500
50
0.0000
51
90.0000
0
LINE
8
PARAMETRIX
10
-184.7067
20
25.1416
11
-195.3712
21
25.1416
0
ARC
8
PARAMETRIX
10
-195.3712
20
24.6916
40
0.4500
50
90.0000
51
180.0000
0
LINE
8
PARAMETRIX
10
-195.8212
20
24.6916
11
-195.8212
21
24.5916
0
ARC
8
PARAMETRIX
10
-195.3712
20
24.5916
40
0.4500
50
180.0000
51
270.0000
0
LINE
8
PARAMETRIX
10
-182.8067
20
24.1416
11
-172.1422
21
24.1416
0
ARC
8
PARAMETRIX
10
-172.1422
20
24.5916
40
0.4500
50
270.0000
51
360.0000
0
LINE
8
PARAMETRIX
10
-171.6922
20
24.5916
11
-171.6922
21
24.6916
0
ARC
8
PARAMETRIX
10
-172.1422
20
24.6916
40
0.4500
50
0.0000
51
90.0000
0
LINE
8
PARAMETRIX
10
-172.1422
20
25.1416
11
-182.8067
21
25.1416
0
ARC
8
PARAMETRIX
10
-182.8067
20
24.6916
40
0.4500
50
90.0000
51
180.0000
0
LINE
8
PARAMETRIX
10
-183.2567
20
24.6916
11
-183.2567
21
24.5916
0
ARC
8
PARAMETRIX
10
-182.8067
20
24.5916
40
0.4500
50
180.0000
51
270.0000
0
LINE
8
PARAMETRIX
10
-170.2422
20
24.1416
11
-159.5777
21
24.1416
0
ARC
8
PARAMETRIX
10
-159.5777
20
24.5916
40
0.4500
50
270.0000
51
360.0000
0
LINE
8
PARAMETRIX
10
-159.1277
20
24.5916
11
-159.1277
21
24.6916
0
ARC
8
PARAMETRIX
10
-159.5777
20
24.6916
40
0.4500
50
0.0000
51
90.0000
0
LINE
8
PARAMETRIX
10
-159.5777
20
25.1416
11
-170.2422
21
25.1416
0
ARC
8
PARAMETRIX
10
-170.2422
20
24.6916
40
0.4500
50
90.0000
51
180.0000
0
LINE
8
PARAMETRIX
10
-170.6922
20
24.6916
11
-170.6922
21
24.5916
0
ARC
8
PARAMETRIX
10
-170.2422
20
24.5916
40
0.4500
50
180.0000
51
270.0000
0
LINE
8
PARAMETRIX
10
-195.0257
20
26.1416
11
-190.7586
21
26.1416
0
ARC
8
PARAMETRIX
10
-190.7586
20
26.5916
40
0.4500
50
270.0000
51
360.0000
0
LINE
8
PARAMETRIX
10
-190.3086
20
26.5916
11
-190.3086
21
26.6916
0
ARC
8
PARAMETRIX
10
-190.7586
20
26.6916
40
0.4500
50
0.0000
51
90.0000
0
LINE
8
PARAMETRIX
10
-190.7586
20
27.1416
11
-195.0257
21
27.1416
0
ARC
8
PARAMETRIX
10
-195.0257
20
26.6916
40
0.4500
50
90.0000
51
180.0000
0
LINE
8
PARAMETRIX
10
-195.4757
20
26.6916
11
-195.4757
21
26.5916
0
ARC
8
PARAMETRIX
10
-195.0257
20
26.5916
40
0.4500
50
180.0000
51
270.0000
0
LINE
8
PARAMETRIX
10
-188.8586
20
26.1416
11
-178.4244
21
26.1416
0
ARC
8
PARAMETRIX
10
-178.4244
20
26.5916
40
0.4500
50
270.0000
51
360.0000
0
LINE
8
PARAMETRIX
10
-177.9744
20
26.5916
11
-177.9744
21
26.6916
0
ARC
8
PARAMETRIX
10
-178.4244
20
26.6916
40
0.4500
50
0.0000
51
90.0000
0
LINE
8
PARAMETRIX
10
-178.4244
20
27.1416
11
-188.8586
21
27.1416
0
ARC
8
PARAMETRIX
10
-188.8586
20
26.6916
40
0.4500
50
90.0000
51
180.0000
0
LINE
8
PARAMETRIX
10
-189.3086
20
26.6916
11
-189.3086
21
26.5916
0
ARC
8
PARAMETRIX
10
-188.8586
20
26.5916
40
0.4500
50
180.0000
51
270.0000
0
LINE
8
PARAMETRIX
10
-176.5244
20
26.1416
11
-166.0902
21
26.1416
0
ARC
8
PARAMETRIX
10
-166.0902
20
26.5916
40
0.4500
50
270.0000
51
360.0000
0
LINE
8
PARAMETRIX
10
-165.6402
20
26.5916
11
-165.6402
21
26.6916
0
ARC
8
PARAMETRIX
10
-166.0902
20
26.6916
40
0.4500
50
0.0000
51
90.0000
0
LINE
8
PARAMETRIX
10
-166.0902
20
27.1416
11
-176.5244
21
27.1416
0
ARC
8
PARAMETRIX
10
-176.5244
20
26.6916
40
0.4500
50
90.0000
51
180.0000
0
LINE
8
PARAMETRIX
10
-176.9744
20
26.6916
11
-176.9744
21
26.5916
0
ARC
8
PARAMETRIX
10
-176.5244
20
26.5916
40
0.4500
50
180.0000
51
270.0000
0
LINE
8
PARAMETRIX
10
-164.1902
20
26.1416
11
-159.9231
21
26.1416
0
ARC
8
PARAMETRIX
10
-159.9231
20
26.5916
40
0.4500
50
270.0000
51
360.0000
0
LINE
8
PARAMETRIX
10
-159.4731
20
26.5916
11
-159.4731
21
26.6916
0
ARC
8
PARAMETRIX
10
-159.9231
20
26.6916
40
0.4500
50
0.0000
51
90.0000
0
LINE
8
PARAMETRIX
10
-159.9231
20
27.1416
11
-164.1902
21
27.1416
0
ARC
8
PARAMETRIX
10
-164.1902
20
26.6916
40
0.4500
50
90.0000
51
180.0000
0
LINE
8
PARAMETRIX
10
-164.6402
20
26.6916
11
-164.6402
21
26.5916
0
ARC
8
PARAMETRIX
10
-164.1902
20
26.5916
40
0.4500
50
180.0000
51
270.0000
0
LINE
8
PARAMETRIX
10
-194.5652
20
28.1416
11
-184.4380
21
28.1416
0
ARC
8
PARAMETRIX
10
-184.4380
20
28.5916
40
0.4500
50
270.0000
51
360.0000
0
LINE
8
PARAMETRIX
10
-183.9880
20
28.5916
11
-183.9880
21
28.6916
0
ARC
8
PARAMETRIX
10
-184.4380
20
28.6916
40
0.4500
50
0.0000
51
90.0000
0
LINE
8
PARAMETRIX
10
-184.4380
20
29.1416
11
-194.5652
21
29.1416
0
ARC
8
PARAMETRIX
10
-194.5652
20
28.6916
40
0.4500
50
90.0000
51
180.0000
0
LINE
8
PARAMETRIX
10
-195.0152
20
28.6916
11
-195.0152
21
28.5916
0
ARC
8
PARAMETRIX
10
-194.5652
20
28.5916
40
0.4500
50
180.0000
51
270.0000
0
LINE
8
PARAMETRIX
10
-182.5380
20
28.1416
11
-172.4109
21
28.1416
0
ARC
8
PARAMETRIX
10
-172.4109
20
28.5916
40
0.4500
50
270.0000
51
360.0000
0
LINE
8
PARAMETRIX
10
-171.9609
20
28.5916
11
-171.9609
21
28.6916
0
ARC
8
PARAMETRIX
10
-172.4109
20
28.6916
40
0.4500
50
0.0000
51
90.0000
0
LINE
8
PARAMETRIX
10
-172.4109
20
29.1416
11
-182.5380
21
29.1416
0
ARC
8
PARAMETRIX
10
-182.5380
20
28.6916
40
0.4500
50
90.0000
51
180.0000
0
LINE
8
PARAMETRIX
10
-182.9880
20
28.6916
11
-182.9880
21
28.5916
0
ARC
8
PARAMETRIX
10
-182.5380
20
28.5916
40
0.4500
50
180.0000
51
270.0000
0
LINE
8
PARAMETRIX
10
-170.5109
20
28.1416
11
-160.3837
21
28.1416
0
ARC
8
PARAMETRIX
10
-160.3837
20
28.5916
40
0.4500
50
270.0000
51
360.0000
0
LINE
8
PARAMETRIX
10
-159.9337
20
28.5916
11
-159.9337
21
28.6916
0
ARC
8
PARAMETRIX
10
-160.3837
20
28.6916
40
0.4500
50
0.0000
51
90.0000
0
LINE
8
PARAMETRIX
10
-160.3837
20
29.1416
11
-170.5109
21
29.1416
0
ARC
8
PARAMETRIX
10
-170.5109
20
28.6916
40
0.4500
50
90.0000
51
180.0000
0
LINE
8
PARAMETRIX
10
-170.9609
20
28.6916
11
-170.9609
21
28.5916
0
ARC
8
PARAMETRIX
10
-170.5109
20
28.5916
40
0.4500
50
180.0000
51
270.0000
0
CIRCLE
8
PARAMETRIX
10
-231.3354
20
4.2500
40
2.1250
0
CIRCLE
8
PARAMETRIX
10
-202.1419
20
4.2500
40
2.1250
0
CIRCLE
8
PARAMETRIX
10
-231.3354
20
12.7500
40
2.1250
0
CIRCLE
8
PARAMETRIX
10
-202.1419
20
12.7500
40
2.1250
0
CIRCLE
8
PARAMETRIX
10
-216.7387
20
-23.1416
40
8.0000
0
LINE
8
PARAMETRIX
10
-198.8419
20
-5.1416
11
-203.2242
21
-5.1416
0
ARC
8
PARAMETRIX
10
-203.2242
20
-5.5916
40
0.4500
50
90.0000
51
180.0000
0
LINE
8
PARAMETRIX
10
-203.6742
20
-5.5916
11
-203.6742
21
-5.6916
0
ARC
8
PARAMETRIX
10
-203.2242
20
-5.6916
40
0.4500
50
180.0000
51
270.0000
0
LINE
8
PARAMETRIX
10
-203.2242
20
-6.1416
11
-198.8419
21
-6.1416
0
ARC
8
PARAMETRIX
10
-198.8419
20
-5.6916
40
0.4500
50
270.0000
51
0.0000
0
LINE
8
PARAMETRIX
10
-198.3919
20
-5.6916
11
-198.3919
21
-5.5916
0
ARC
8
PARAMETRIX
10
-198.8419
20
-5.5916
40
0.4500
50
360.0000
51
90.0000
0
LINE
8
PARAMETRIX
10
-205.1242
20
-5.1416
11
-215.7887
21
-5.1416
0
ARC
8
PARAMETRIX
10
-215.7887
20
-5.5916
40
0.4500
50
90.0000
51
180.0000
0
LINE
8
PARAMETRIX
10
-216.2387
20
-5.5916
11
-216.2387
21
-5.6916
0
ARC
8
PARAMETRIX
10
-215.7887
20
-5.6916
40
0.4500
50
180.0000
51
270.0000
0
LINE
8
PARAMETRIX
10
-215.7887
20
-6.1416
11
-205.1242
21
-6.1416
0
ARC
8
PARAMETRIX
10
-205.1242
20
-5.6916
40
0.4500
50
270.0000
51
0.0000
0
LINE
8
PARAMETRIX
10
-204.6742
20
-5.6916
11
-204.6742
21
-5.5916
0
ARC
8
PARAMETRIX
10
-205.1242
20
-5.5916
40
0.4500
50
0.0000
51
90.0000
0
LINE
8
PARAMETRIX
10
-217.6887
20
-5.1416
11
-228.3531
21
-5.1416
0
ARC
8
PARAMETRIX
10
-228.3531
20
-5.5916
40
0.4500
50
90.0000
51
180.0000
0
LINE
8
PARAMETRIX
10
-228.8031
20
-5.5916
11
-228.8031
21
-5.6916
0
ARC
8
PARAMETRIX
10
-228.3531
20
-5.6916
40
0.4500
50
180.0000
51
270.0000
0
LINE
8
PARAMETRIX
10
-228.3531
20
-6.1416
11
-217.6887
21
-6.1416
0
ARC
8
PARAMETRIX
10
-217.6887
20
-5.6916
40
0.4500
50
270.0000
51
0.0000
0
LINE
8
PARAMETRIX
10
-217.2387
20
-5.6916
11
-217.2387
21
-5.5916
0
ARC
8
PARAMETRIX
10
-217.6887
20
-5.5916
40
0.4500
50
0.0000
51
90.0000
0
LINE
8
PARAMETRIX
10
-230.2531
20
-5.1416
11
-234.6354
21
-5.1416
0
ARC
8
PARAMETRIX
10
-234.6354
20
-5.5916
40
0.4500
50
90.0000
51
180.0000
0
LINE
8
PARAMETRIX
10
-235.0854
20
-5.5916
11
-235.0854
21
-5.6916
0
ARC
8
PARAMETRIX
10
-234.6354
20
-5.6916
40
0.4500
50
180.0000
51
270.0000
0
LINE
8
PARAMETRIX
10
-234.6354
20
-6.1416
11
-230.2531
21
-6.1416
0
ARC
8
PARAMETRIX
10
-230.2531
20
-5.6916
40
0.4500
50
270.0000
51
0.0000
0
LINE
8
PARAMETRIX
10
-229.8031
20
-5.6916
11
-229.8031
21
-5.5916
0
ARC
8
PARAMETRIX
10
-230.2531
20
-5.5916
40
0.4500
50
360.0000
51
90.0000
0
LINE
8
PARAMETRIX
10
-198.8419
20
-7.1416
11
-209.5064
21
-7.1416
0
ARC
8
PARAMETRIX
10
-209.5064
20
-7.5916
40
0.4500
50
90.0000
51
180.0000
0
LINE
8
PARAMETRIX
10
-209.9564
20
-7.5916
11
-209.9564
21
-7.6916
0
ARC
8
PARAMETRIX
10
-209.5064
20
-7.6916
40
0.4500
50
180.0000
51
270.0000
0
LINE
8
PARAMETRIX
10
-209.5064
20
-8.1416
11
-198.8419
21
-8.1416
0
ARC
8
PARAMETRIX
10
-198.8419
20
-7.6916
40
0.4500
50
270.0000
51
0.0000
0
LINE
8
PARAMETRIX
10
-198.3919
20
-7.6916
11
-198.3919
21
-7.5916
0
ARC
8
PARAMETRIX
10
-198.8419
20
-7.5916
40
0.4500
50
0.0000
51
90.0000
0
LINE
8
PARAMETRIX
10
-211.4064
20
-7.1416
11
-222.0709
21
-7.1416
0
ARC
8
PARAMETRIX
10
-222.0709
20
-7.5916
40
0.4500
50
90.0000
51
180.0000
0
LINE
8
PARAMETRIX
10
-222.5209
20
-7.5916
11
-222.5209
21
-7.6916
0
ARC
8
PARAMETRIX
10
-222.0709
20
-7.6916
40
0.4500
50
180.0000
51
270.0000
0
LINE
8
PARAMETRIX
10
-222.0709
20
-8.1416
11
-211.4064
21
-8.1416
0
ARC
8
PARAMETRIX
10
-211.4064
20
-7.6916
40
0.4500
50
270.0000
51
0.0000
0
LINE
8
PARAMETRIX
10
-210.9564
20
-7.6916
11
-210.9564
21
-7.5916
0
ARC
8
PARAMETRIX
10
-211.4064
20
-7.5916
40
0.4500
50
0.0000
51
90.0000
0
LINE
8
PARAMETRIX
10
-223.9709
20
-7.1416
11
-234.6354
21
-7.1416
0
ARC
8
PARAMETRIX
10
-234.6354
20
-7.5916
40
0.4500
50
90.0000
51
180.0000
0
LINE
8
PARAMETRIX
10
-235.0854
20
-7.5916
11
-235.0854
21
-7.6916
0
ARC
8
PARAMETRIX
10
-234.6354
20
-7.6916
40
0.4500
50
180.0000
51
270.0000
0
LINE
8
PARAMETRIX
10
-234.6354
20
-8.1416
11
-223.9709
21
-8.1416
0
ARC
8
PARAMETRIX
10
-223.9709
20
-7.6916
40
0.4500
50
270.0000
51
0.0000
0
LINE
8
PARAMETRIX
10
-223.5209
20
-7.6916
11
-223.5209
21
-7.5916
0
ARC
8
PARAMETRIX
10
-223.9709
20
-7.5916
40
0.4500
50
0.0000
51
90.0000
0
LINE
8
PARAMETRIX
10
-199.1874
20
-9.1416
11
-203.4545
21
-9.1416
0
ARC
8
PARAMETRIX
10
-203.4545
20
-9.5916
40
0.4500
50
90.0000
51
180.0000
0
LINE
8
PARAMETRIX
10
-203.9045
20
-9.5916
11
-203.9045
21
-9.6916
0
ARC
8
PARAMETRIX
10
-203.4545
20
-9.6916
40
0.4500
50
180.0000
51
270.0000
0
LINE
8
PARAMETRIX
10
-203.4545
20
-10.1416
11
-199.1874
21
-10.1416
0
ARC
8
PARAMETRIX
10
-199.1874
20
-9.6916
40
0.4500
50
270.0000
51
0.0000
0
LINE
8
PARAMETRIX
10
-198.7374
20
-9.6916
11
-198.7374
21
-9.5916
0
ARC
8
PARAMETRIX
10
-199.1874
20
-9.5916
40
0.4500
50
0.0000
51
90.0000
0
LINE
8
PARAMETRIX
10
-205.3545
20
-9.1416
11
-215.7887
21
-9.1416
0
ARC
8
PARAMETRIX
10
-215.7887
20
-9.5916
40
0.4500
50
90.0000
51
180.0000
0
LINE
8
PARAMETRIX
10
-216.2387
20
-9.5916
11
-216.2387
21
-9.6916
0
ARC
8
PARAMETRIX
10
-215.7887
20
-9.6916
40
0.4500
50
180.0000
51
270.0000
0
LINE
8
PARAMETRIX
10
-215.7887
20
-10.1416
11
-205.3545
21
-10.1416
0
ARC
8
PARAMETRIX
10
-205.3545
20
-9.6916
40
0.4500
50
270.0000
51
0.0000
0
LINE
8
PARAMETRIX
10
-204.9045
20
-9.6916
11
-204.9045
21
-9.5916
0
ARC
8
PARAMETRIX
10
-205.3545
20
-9.5916
40
0.4500
50
0.0000
51
90.0000
0
LINE
8
PARAMETRIX
10
-217.6887
20
-9.1416
11
-228.1229
21
-9.1416
0
ARC
8
PARAMETRIX
10
-228.1229
20
-9.5916
40
0.4500
50
90.0000
51
180.0000
0
LINE
8
PARAMETRIX
10
-228.5729
20
-9.5916
11
-228.5729
21
-9.6916
0
ARC
8
PARAMETRIX
10
-228.1229
20
-9.6916
40
0.4500
50
180.0000
51
270.0000
0
LINE
8
PARAMETRIX
10
-228.1229
20
-10.1416
11
-217.6887
21
-10.1416
0
ARC
8
PARAMETRIX
10
-217.6887
20
-9.6916
40
0.4500
50
270.0000
51
0.0000
0
LINE
8
PARAMETRIX
10
-217.2387
20
-9.6916
11
-217.2387
21
-9.5916
0
ARC
8
PARAMETRIX
10
-217.6887
20
-9.5916
40
0.4500
50
0.0000
51
90.0000
0
LINE
8
PARAMETRIX
10
-230.0229
20
-9.1416
11
-234.2900
21
-9.1416
0
ARC
8
PARAMETRIX
10
-234.2900
20
-9.5916
40
0.4500
50
90.0000
51
180.0000
0
LINE
8
PARAMETRIX
10
-234.7400
20
-9.5916
11
-234.7400
21
-9.6916
0
ARC
8
PARAMETRIX
10
-234.2900
20
-9.6916
40
0.4500
50
180.0000
51
270.0000
0
LINE
8
PARAMETRIX
10
-234.2900
20
-10.1416
11
-230.0229
21
-10.1416
0
ARC
8
PARAMETRIX
10
-230.0229
20
-9.6916
40
0.4500
50
270.0000
51
0.0000
0
LINE
8
PARAMETRIX
10
-229.5729
20
-9.6916
11
-229.5729
21
-9.5916
0
ARC
8
PARAMETRIX
10
-230.0229
20
-9.5916
40
0.4500
50
0.0000
51
90.0000
0
LINE
8
PARAMETRIX
10
-199.6479
20
-11.1416
11
-209.7751
21
-11.1416
0
ARC
8
PARAMETRIX
10
-209.7751
20
-11.5916
40
0.4500
50
90.0000
51
180.0000
0
LINE
8
PARAMETRIX
10
-210.2251
20
-11.5916
11
-210.2251
21
-11.6916
0
ARC
8
PARAMETRIX
10
-209.7751
20
-11.6916
40
0.4500
50
180.0000
51
270.0000
0
LINE
8
PARAMETRIX
10
-209.7751
20
-12.1416
11
-199.6479
21
-12.1416
0
ARC
8
PARAMETRIX
10
-199.6479
20
-11.6916
40
0.4500
50
270.0000
51
0.0000
0
LINE
8
PARAMETRIX
10
-199.1979
20
-11.6916
11
-199.1979
21
-11.5916
0
ARC
8
PARAMETRIX
10
-199.6479
20
-11.5916
40
0.4500
50
0.0000
51
90.0000
0
LINE
8
PARAMETRIX
10
-211.6751
20
-11.1416
11
-221.8022
21
-11.1416
0
ARC
8
PARAMETRIX
10
-221.8022
20
-11.5916
40
0.4500
50
90.0000
51
180.0000
0
LINE
8
PARAMETRIX
10
-222.2522
20
-11.5916
11
-222.2522
21
-11.6916
0
ARC
8
PARAMETRIX
10
-221.8022
20
-11.6916
40
0.4500
50
180.0000
51
270.0000
0
LINE
8
PARAMETRIX
10
-221.8022
20
-12.1416
11
-211.6751
21
-12.1416
0
ARC
8
PARAMETRIX
10
-211.6751
20
-11.6916
40
0.4500
50
270.0000
51
0.0000
0
LINE
8
PARAMETRIX
10
-211.2251
20
-11.6916
11
-211.2251
21
-11.5916
0
ARC
8
PARAMETRIX
10
-211.6751
20
-11.5916
40
0.4500
50
0.0000
51
90.0000
0
LINE
8
PARAMETRIX
10
-223.7022
20
-11.1416
11
-233.8294
21
-11.1416
0
ARC
8
PARAMETRIX
10
-233.8294
20
-11.5916
40
0.4500
50
90.0000
51
180.0000
0
LINE
8
PARAMETRIX
10
-234.2794
20
-11.5916
11
-234.2794
21
-11.6916
0
ARC
8
PARAMETRIX
10
-233.8294
20
-11.6916
40
0.4500
50
180.0000
51
270.0000
0
LINE
8
PARAMETRIX
10
-233.8294
20
-12.1416
11
-223.7022
21
-12.1416
0
ARC
8
PARAMETRIX
10
-223.7022
20
-11.6916
40
0.4500
50
270.0000
51
0.0000
0
LINE
8
PARAMETRIX
10
-223.2522
20
-11.6916
11
-223.2522
21
-11.5916
0
ARC
8
PARAMETRIX
10
-223.7022
20
-11.5916
40
0.4500
50
0.0000
51
90.0000
0
CIRCLE
8
PARAMETRIX
10
-216.7387
20
40.1416
40
8.0000
0
LINE
8
PARAMETRIX
10
-234.6354
20
22.1416
11
-230.2531
21
22.1416
0
ARC
8
PARAMETRIX
10
-230.2531
20
22.5916
40
0.4500
50
270.0000
51
0.0000
0
LINE
8
PARAMETRIX
10
-229.8031
20
22.5916
11
-229.8031
21
22.6916
0
ARC
8
PARAMETRIX
10
-230.2531
20
22.6916
40
0.4500
50
0.0000
51
90.0000
0
LINE
8
PARAMETRIX
10
-230.2531
20
23.1416
11
-234.6354
21
23.1416
0
ARC
8
PARAMETRIX
10
-234.6354
20
22.6916
40
0.4500
50
90.0000
51
180.0000
0
LINE
8
PARAMETRIX
10
-235.0854
20
22.6916
11
-235.0854
21
22.5916
0
ARC
8
PARAMETRIX
10
-234.6354
20
22.5916
40
0.4500
50
180.0000
51
270.0000
0
LINE
8
PARAMETRIX
10
-228.3531
20
22.1416
11
-217.6887
21
22.1416
0
ARC
8
PARAMETRIX
10
-217.6887
20
22.5916
40
0.4500
50
270.0000
51
0.0000
0
LINE
8
PARAMETRIX
10
-217.2387
20
22.5916
11
-217.2387
21
22.6916
0
ARC
8
PARAMETRIX
10
-217.6887
20
22.6916
40
0.4500
50
0.0000
51
90.0000
0
LINE
8
PARAMETRIX
10
-217.6887
20
23.1416
11
-228.3531
21
23.1416
0
ARC
8
PARAMETRIX
10
-228.3531
20
22.6916
40
0.4500
50
90.0000
51
180.0000
0
LINE
8
PARAMETRIX
10
-228.8031
20
22.6916
11
-228.8031
21
22.5916
0
ARC
8
PARAMETRIX
10
-228.3531
20
22.5916
40
0.4500
50
180.0000
51
270.0000
0
LINE
8
PARAMETRIX
10
-215.7887
20
22.1416
11
-205.1242
21
22.1416
0
ARC
8
PARAMETRIX
10
-205.1242
20
22.5916
40
0.4500
50
270.0000
51
0.0000
0
LINE
8
PARAMETRIX
10
-204.6742
20
22.5916
11
-204.6742
21
22.6916
0
ARC
8
PARAMETRIX
10
-205.1242
20
22.6916
40
0.4500
50
0.0000
51
90.0000
0
LINE
8
PARAMETRIX
10
-205.1242
20
23.1416
11
-215.7887
21
23.1416
0
ARC
8
PARAMETRIX
10
-215.7887
20
22.6916
40
0.4500
50
90.0000
51
180.0000
0
LINE
8
PARAMETRIX
10
-216.2387
20
22.6916
11
-216.2387
21
22.5916
0
ARC
8
PARAMETRIX
10
-215.7887
20
22.5916
40
0.4500
50
180.0000
51
270.0000
0
LINE
8
PARAMETRIX
10
-203.2242
20
22.1416
11
-198.8419
21
22.1416
0
ARC
8
PARAMETRIX
10
-198.8419
20
22.5916
40
0.4500
50
270.0000
51
0.0000
0
LINE
8
PARAMETRIX
10
-198.3919
20
22.5916
11
-198.3919
21
22.6916
0
ARC
8
PARAMETRIX
10
-198.8419
20
22.6916
40
0.4500
50
0.0000
51
90.0000
0
LINE
8
PARAMETRIX
10
-198.8419
20
23.1416
11
-203.2242
21
23.1416
0
ARC
8
PARAMETRIX
10
-203.2242
20
22.6916
40
0.4500
50
90.0000
51
180.0000
0
LINE
8
PARAMETRIX
10
-203.6742
20
22.6916
11
-203.6742
21
22.5916
0
ARC
8
PARAMETRIX
10
-203.2242
20
22.5916
40
0.4500
50
180.0000
51
270.0000
0
LINE
8
PARAMETRIX
10
-234.6354
20
24.1416
11
-223.9709
21
24.1416
0
ARC
8
PARAMETRIX
10
-223.9709
20
24.5916
40
0.4500
50
270.0000
51
0.0000
0
LINE
8
PARAMETRIX
10
-223.5209
20
24.5916
11
-223.5209
21
24.6916
0
ARC
8
PARAMETRIX
10
-223.9709
20
24.6916
40
0.4500
50
0.0000
51
90.0000
0
LINE
8
PARAMETRIX
10
-223.9709
20
25.1416
11
-234.6354
21
25.1416
0
ARC
8
PARAMETRIX
10
-234.6354
20
24.6916
40
0.4500
50
90.0000
51
180.0000
0
LINE
8
PARAMETRIX
10
-235.0854
20
24.6916
11
-235.0854
21
24.5916
0
ARC
8
PARAMETRIX
10
-234.6354
20
24.5916
40
0.4500
50
180.0000
51
270.0000
0
LINE
8
PARAMETRIX
10
-222.0709
20
24.1416
11
-211.4064
21
24.1416
0
ARC
8
PARAMETRIX
10
-211.4064
20
24.5916
40
0.4500
50
270.0000
51
0.0000
0
LINE
8
PARAMETRIX
10
-210.9564
20
24.5916
11
-210.9564
21
24.6916
0
ARC
8
PARAMETRIX
10
-211.4064
20
24.6916
40
0.4500
50
0.0000
51
90.0000
0
LINE
8
PARAMETRIX
10
-211.4064
20
25.1416
11
-222.0709
21
25.1416
0
ARC
8
PARAMETRIX
10
-222.0709
20
24.6916
40
0.4500
50
90.0000
51
180.0000
0
LINE
8
PARAMETRIX
10
-222.5209
20
24.6916
11
-222.5209
21
24.5916
0
ARC
8
PARAMETRIX
10
-222.0709
20
24.5916
40
0.4500
50
180.0000
51
270.0000
0
LINE
8
PARAMETRIX
10
-209.5064
20
24.1416
11
-198.8419
21
24.1416
0
ARC
8
PARAMETRIX
10
-198.8419
20
24.5916
40
0.4500
50
270.0000
51
0.0000
0
LINE
8
PARAMETRIX
10
-198.3919
20
24.5916
11
-198.3919
21
24.6916
0
ARC
8
PARAMETRIX
10
-198.8419
20
24.6916
40
0.4500
50
0.0000
51
90.0000
0
LINE
8
PARAMETRIX
10
-198.8419
20
25.1416
11
-209.5064
21
25.1416
0
ARC
8
PARAMETRIX
10
-209.5064
20
24.6916
40
0.4500
50
90.0000
51
180.0000
0
LINE
8
PARAMETRIX
10
-209.9564
20
24.6916
11
-209.9564
21
24.5916
0
ARC
8
PARAMETRIX
10
-209.5064
20
24.5916
40
0.4500
50
180.0000
51
270.0000
0
LINE
8
PARAMETRIX
10
-234.2900
20
26.1416
11
-230.0229
21
26.1416
0
ARC
8
PARAMETRIX
10
-230.0229
20
26.5916
40
0.4500
50
270.0000
51
0.0000
0
LINE
8
PARAMETRIX
10
-229.5729
20
26.5916
11
-229.5729
21
26.6916
0
ARC
8
PARAMETRIX
10
-230.0229
20
26.6916
40
0.4500
50
0.0000
51
90.0000
0
LINE
8
PARAMETRIX
10
-230.0229
20
27.1416
11
-234.2900
21
27.1416
0
ARC
8
PARAMETRIX
10
-234.2900
20
26.6916
40
0.4500
50
90.0000
51
180.0000
0
LINE
8
PARAMETRIX
10
-234.7400
20
26.6916
11
-234.7400
21
26.5916
0
ARC
8
PARAMETRIX
10
-234.2900
20
26.5916
40
0.4500
50
180.0000
51
270.0000
0
LINE
8
PARAMETRIX
10
-228.1229
20
26.1416
11
-217.6887
21
26.1416
0
ARC
8
PARAMETRIX
10
-217.6887
20
26.5916
40
0.4500
50
270.0000
51
0.0000
0
LINE
8
PARAMETRIX
10
-217.2387
20
26.5916
11
-217.2387
21
26.6916
0
ARC
8
PARAMETRIX
10
-217.6887
20
26.6916
40
0.4500
50
0.0000
51
90.0000
0
LINE
8
PARAMETRIX
10
-217.6887
20
27.1416
11
-228.1229
21
27.1416
0
ARC
8
PARAMETRIX
10
-228.1229
20
26.6916
40
0.4500
50
90.0000
51
180.0000
0
LINE
8
PARAMETRIX
10
-228.5729
20
26.6916
11
-228.5729
21
26.5916
0
ARC
8
PARAMETRIX
10
-228.1229
20
26.5916
40
0.4500
50
180.0000
51
270.0000
0
LINE
8
PARAMETRIX
10
-215.7887
20
26.1416
11
-205.3545
21
26.1416
0
ARC
8
PARAMETRIX
10
-205.3545
20
26.5916
40
0.4500
50
270.0000
51
0.0000
0
LINE
8
PARAMETRIX
10
-204.9045
20
26.5916
11
-204.9045
21
26.6916
0
ARC
8
PARAMETRIX
10
-205.3545
20
26.6916
40
0.4500
50
0.0000
51
90.0000
0
LINE
8
PARAMETRIX
10
-205.3545
20
27.1416
11
-215.7887
21
27.1416
0
ARC
8
PARAMETRIX
10
-215.7887
20
26.6916
40
0.4500
50
90.0000
51
180.0000
0
LINE
8
PARAMETRIX
10
-216.2387
20
26.6916
11
-216.2387
21
26.5916
0
ARC
8
PARAMETRIX
10
-215.7887
20
26.5916
40
0.4500
50
180.0000
51
270.0000
0
LINE
8
PARAMETRIX
10
-203.4545
20
26.1416
11
-199.1874
21
26.1416
0
ARC
8
PARAMETRIX
10
-199.1874
20
26.5916
40
0.4500
50
270.0000
51
360.0000
0
LINE
8
PARAMETRIX
10
-198.7374
20
26.5916
11
-198.7374
21
26.6916
0
ARC
8
PARAMETRIX
10
-199.1874
20
26.6916
40
0.4500
50
360.0000
51
90.0000
0
LINE
8
PARAMETRIX
10
-199.1874
20
27.1416
11
-203.4545
21
27.1416
0
ARC
8
PARAMETRIX
10
-203.4545
20
26.6916
40
0.4500
50
90.0000
51
180.0000
0
LINE
8
PARAMETRIX
10
-203.9045
20
26.6916
11
-203.9045
21
26.5916
0
ARC
8
PARAMETRIX
10
-203.4545
20
26.5916
40
0.4500
50
180.0000
51
270.0000
0
LINE
8
PARAMETRIX
10
-233.8294
20
28.1416
11
-223.7022
21
28.1416
0
ARC
8
PARAMETRIX
10
-223.7022
20
28.5916
40
0.4500
50
270.0000
51
0.0000
0
LINE
8
PARAMETRIX
10
-223.2522
20
28.5916
11
-223.2522
21
28.6916
0
ARC
8
PARAMETRIX
10
-223.7022
20
28.6916
40
0.4500
50
0.0000
51
90.0000
0
LINE
8
PARAMETRIX
10
-223.7022
20
29.1416
11
-233.8294
21
29.1416
0
ARC
8
PARAMETRIX
10
-233.8294
20
28.6916
40
0.4500
50
90.0000
51
180.0000
0
LINE
8
PARAMETRIX
10
-234.2794
20
28.6916
11
-234.2794
21
28.5916
0
ARC
8
PARAMETRIX
10
-233.8294
20
28.5916
40
0.4500
50
180.0000
51
270.0000
0
LINE
8
PARAMETRIX
10
-221.8022
20
28.1416
11
-211.6751
21
28.1416
0
ARC
8
PARAMETRIX
10
-211.6751
20
28.5916
40
0.4500
50
270.0000
51
0.0000
0
LINE
8
PARAMETRIX
10
-211.2251
20
28.5916
11
-211.2251
21
28.6916
0
ARC
8
PARAMETRIX
10
-211.6751
20
28.6916
40
0.4500
50
0.0000
51
90.0000
0
LINE
8
PARAMETRIX
10
-211.6751
20
29.1416
11
-221.8022
21
29.1416
0
ARC
8
PARAMETRIX
10
-221.8022
20
28.6916
40
0.4500
50
90.0000
51
180.0000
0
LINE
8
PARAMETRIX
10
-222.2522
20
28.6916
11
-222.2522
21
28.5916
0
ARC
8
PARAMETRIX
10
-221.8022
20
28.5916
40
0.4500
50
180.0000
51
270.0000
0
LINE
8
PARAMETRIX
10
-209.7751
20
28.1416
11
-199.6479
21
28.1416
0
ARC
8
PARAMETRIX
10
-199.6479
20
28.5916
40
0.4500
50
270.0000
51
360.0000
0
LINE
8
PARAMETRIX
10
-199.1979
20
28.5916
11
-199.1979
21
28.6916
0
ARC
8
PARAMETRIX
10
-199.6479
20
28.6916
40
0.4500
50
0.0000
51
90.0000
0
LINE
8
PARAMETRIX
10
-199.6479
20
29.1416
11
-209.7751
21
29.1416
0
ARC
8
PARAMETRIX
10
-209.7751
20
28.6916
40
0.4500
50
90.0000
51
180.0000
0
LINE
8
PARAMETRIX
10
-210.2251
20
28.6916
11
-210.2251
21
28.5916
0
ARC
8
PARAMETRIX
10
-209.7751
20
28.5916
40
0.4500
50
180.0000
51
270.0000
0
CIRCLE
8
PARAMETRIX
10
-270.5996
20
4.2500
40
2.1250
0
CIRCLE
8
PARAMETRIX
10
-241.4062
20
4.2500
40
2.1250
0
CIRCLE
8
PARAMETRIX
10
-270.5996
20
12.7500
40
2.1250
0
CIRCLE
8
PARAMETRIX
10
-241.4062
20
12.7500
40
2.1250
0
CIRCLE
8
PARAMETRIX
10
-256.0029
20
-23.1416
40
8.0000
0
LINE
8
PARAMETRIX
10
-238.1062
20
-5.1416
11
-242.4884
21
-5.1416
0
ARC
8
PARAMETRIX
10
-242.4884
20
-5.5916
40
0.4500
50
90.0000
51
180.0000
0
LINE
8
PARAMETRIX
10
-242.9384
20
-5.5916
11
-242.9384
21
-5.6916
0
ARC
8
PARAMETRIX
10
-242.4884
20
-5.6916
40
0.4500
50
180.0000
51
270.0000
0
LINE
8
PARAMETRIX
10
-242.4884
20
-6.1416
11
-238.1062
21
-6.1416
0
ARC
8
PARAMETRIX
10
-238.1062
20
-5.6916
40
0.4500
50
270.0000
51
0.0000
0
LINE
8
PARAMETRIX
10
-237.6562
20
-5.6916
11
-237.6562
21
-5.5916
0
ARC
8
PARAMETRIX
10
-238.1062
20
-5.5916
40
0.4500
50
360.0000
51
90.0000
0
LINE
8
PARAMETRIX
10
-244.3884
20
-5.1416
11
-255.0529
21
-5.1416
0
ARC
8
PARAMETRIX
10
-255.0529
20
-5.5916
40
0.4500
50
90.0000
51
180.0000
0
LINE
8
PARAMETRIX
10
-255.5029
20
-5.5916
11
-255.5029
21
-5.6916
0
ARC
8
PARAMETRIX
10
-255.0529
20
-5.6916
40
0.4500
50
180.0000
51
270.0000
0
LINE
8
PARAMETRIX
10
-255.0529
20
-6.1416
11
-244.3884
21
-6.1416
0
ARC
8
PARAMETRIX
10
-244.3884
20
-5.6916
40
0.4500
50
270.0000
51
0.0000
0
LINE
8
PARAMETRIX
10
-243.9384
20
-5.6916
11
-243.9384
21
-5.5916
0
ARC
8
PARAMETRIX
10
-244.3884
20
-5.5916
40
0.4500
50
360.0000
51
90.0000
0
LINE
8
PARAMETRIX
10
-256.9529
20
-5.1416
11
-267.6174
21
-5.1416
0
ARC
8
PARAMETRIX
10
-267.6174
20
-5.5916
40
0.4500
50
90.0000
51
180.0000
0
LINE
8
PARAMETRIX
10
-268.0674
20
-5.5916
11
-268.0674
21
-5.6916
0
ARC
8
PARAMETRIX
10
-267.6174
20
-5.6916
40
0.4500
50
180.0000
51
270.0000
0
LINE
8
PARAMETRIX
10
-267.6174
20
-6.1416
11
-256.9529
21
-6.1416
0
ARC
8
PARAMETRIX
10
-256.9529
20
-5.6916
40
0.4500
50
270.0000
51
0.0000
0
LINE
8
PARAMETRIX
10
-256.5029
20
-5.6916
11
-256.5029
21
-5.5916
0
ARC
8
PARAMETRIX
10
-256.9529
20
-5.5916
40
0.4500
50
360.0000
51
90.0000
0
LINE
8
PARAMETRIX
10
-269.5174
20
-5.1416
11
-273.8996
21
-5.1416
0
ARC
8
PARAMETRIX
10
-273.8996
20
-5.5916
40
0.4500
50
90.0000
51
180.0000
0
LINE
8
PARAMETRIX
10
-274.3496
20
-5.5916
11
-274.3496
21
-5.6916
0
ARC
8
PARAMETRIX
10
-273.8996
20
-5.6916
40
0.4500
50
180.0000
51
270.0000
0
LINE
8
PARAMETRIX
10
-273.8996
20
-6.1416
11
-269.5174
21
-6.1416
0
ARC
8
PARAMETRIX
10
-269.5174
20
-5.6916
40
0.4500
50
270.0000
51
0.0000
0
LINE
8
PARAMETRIX
10
-269.0674
20
-5.6916
11
-269.0674
21
-5.5916
0
ARC
8
PARAMETRIX
10
-269.5174
20
-5.5916
40
0.4500
50
0.0000
51
90.0000
0
LINE
8
PARAMETRIX
10
-238.1062
20
-7.1416
11
-248.7707
21
-7.1416
0
ARC
8
PARAMETRIX
10
-248.7707
20
-7.5916
40
0.4500
50
90.0000
51
180.0000
0
LINE
8
PARAMETRIX
10
-249.2207
20
-7.5916
11
-249.2207
21
-7.6916
0
ARC
8
PARAMETRIX
10
-248.7707
20
-7.6916
40
0.4500
50
180.0000
51
270.0000
0
LINE
8
PARAMETRIX
10
-248.7707
20
-8.1416
11
-238.1062
21
-8.1416
0
ARC
8
PARAMETRIX
10
-238.1062
20
-7.6916
40
0.4500
50
270.0000
51
0.0000
0
LINE
8
PARAMETRIX
10
-237.6562
20
-7.6916
11
-237.6562
21
-7.5916
0
ARC
8
PARAMETRIX
10
-238.1062
20
-7.5916
40
0.4500
50
360.0000
51
90.0000
0
LINE
8
PARAMETRIX
10
-250.6707
20
-7.1416
11
-261.3351
21
-7.1416
0
ARC
8
PARAMETRIX
10
-261.3351
20
-7.5916
40
0.4500
50
90.0000
51
180.0000
0
LINE
8
PARAMETRIX
10
-261.7851
20
-7.5916
11
-261.7851
21
-7.6916
0
ARC
8
PARAMETRIX
10
-261.3351
20
-7.6916
40
0.4500
50
180.0000
51
270.0000
0
LINE
8
PARAMETRIX
10
-261.3351
20
-8.1416
11
-250.6707
21
-8.1416
0
ARC
8
PARAMETRIX
10
-250.6707
20
-7.6916
40
0.4500
50
270.0000
51
0.0000
0
LINE
8
PARAMETRIX
10
-250.2207
20
-7.6916
11
-250.2207
21
-7.5916
0
ARC
8
PARAMETRIX
10
-250.6707
20
-7.5916
40
0.4500
50
360.0000
51
90.0000
0
LINE
8
PARAMETRIX
10
-263.2351
20
-7.1416
11
-273.8996
21
-7.1416
0
ARC
8
PARAMETRIX
10
-273.8996
20
-7.5916
40
0.4500
50
90.0000
51
180.0000
0
LINE
8
PARAMETRIX
10
-274.3496
20
-7.5916
11
-274.3496
21
-7.6916
0
ARC
8
PARAMETRIX
10
-273.8996
20
-7.6916
40
0.4500
50
180.0000
51
270.0000
0
LINE
8
PARAMETRIX
10
-273.8996
20
-8.1416
11
-263.2351
21
-8.1416
0
ARC
8
PARAMETRIX
10
-263.2351
20
-7.6916
40
0.4500
50
270.0000
51
0.0000
0
LINE
8
PARAMETRIX
10
-262.7851
20
-7.6916
11
-262.7851
21
-7.5916
0
ARC
8
PARAMETRIX
10
-263.2351
20
-7.5916
40
0.4500
50
0.0000
51
90.0000
0
LINE
8
PARAMETRIX
10
-238.4516
20
-9.1416
11
-242.7187
21
-9.1416
0
ARC
8
PARAMETRIX
10
-242.7187
20
-9.5916
40
0.4500
50
90.0000
51
180.0000
0
LINE
8
PARAMETRIX
10
-243.1687
20
-9.5916
11
-243.1687
21
-9.6916
0
ARC
8
PARAMETRIX
10
-242.7187
20
-9.6916
40
0.4500
50
180.0000
51
270.0000
0
LINE
8
PARAMETRIX
10
-242.7187
20
-10.1416
11
-238.4516
21
-10.1416
0
ARC
8
PARAMETRIX
10
-238.4516
20
-9.6916
40
0.4500
50
270.0000
51
0.0000
0
LINE
8
PARAMETRIX
10
-238.0016
20
-9.6916
11
-238.0016
21
-9.5916
0
ARC
8
PARAMETRIX
10
-238.4516
20
-9.5916
40
0.4500
50
0.0000
51
90.0000
0
LINE
8
PARAMETRIX
10
-244.6187
20
-9.1416
11
-255.0529
21
-9.1416
0
ARC
8
PARAMETRIX
10
-255.0529
20
-9.5916
40
0.4500
50
90.0000
51
180.0000
0
LINE
8
PARAMETRIX
10
-255.5029
20
-9.5916
11
-255.5029
21
-9.6916
0
ARC
8
PARAMETRIX
10
-255.0529
20
-9.6916
40
0.4500
50
180.0000
51
270.0000
0
LINE
8
PARAMETRIX
10
-255.0529
20
-10.1416
11
-244.6187
21
-10.1416
0
ARC
8
PARAMETRIX
10
-244.6187
20
-9.6916
40
0.4500
50
270.0000
51
0.0000
0
LINE
8
PARAMETRIX
10
-244.1687
20
-9.6916
11
-244.1687
21
-9.5916
0
ARC
8
PARAMETRIX
10
-244.6187
20
-9.5916
40
0.4500
50
0.0000
51
90.0000
0
LINE
8
PARAMETRIX
10
-256.9529
20
-9.1416
11
-267.3871
21
-9.1416
0
ARC
8
PARAMETRIX
10
-267.3871
20
-9.5916
40
0.4500
50
90.0000
51
180.0000
0
LINE
8
PARAMETRIX
10
-267.8371
20
-9.5916
11
-267.8371
21
-9.6916
0
ARC
8
PARAMETRIX
10
-267.3871
20
-9.6916
40
0.4500
50
180.0000
51
270.0000
0
LINE
8
PARAMETRIX
10
-267.3871
20
-10.1416
11
-256.9529
21
-10.1416
0
ARC
8
PARAMETRIX
10
-256.9529
20
-9.6916
40
0.4500
50
270.0000
51
0.0000
0
LINE
8
PARAMETRIX
10
-256.5029
20
-9.6916
11
-256.5029
21
-9.5916
0
ARC
8
PARAMETRIX
10
-256.9529
20
-9.5916
40
0.4500
50
0.0000
51
90.0000
0
LINE
8
PARAMETRIX
10
-269.2871
20
-9.1416
11
-273.5542
21
-9.1416
0
ARC
8
PARAMETRIX
10
-273.5542
20
-9.5916
40
0.4500
50
90.0000
51
180.0000
0
LINE
8
PARAMETRIX
10
-274.0042
20
-9.5916
11
-274.0042
21
-9.6916
0
ARC
8
PARAMETRIX
10
-273.5542
20
-9.6916
40
0.4500
50
180.0000
51
270.0000
0
LINE
8
PARAMETRIX
10
-273.5542
20
-10.1416
11
-269.2871
21
-10.1416
0
ARC
8
PARAMETRIX
10
-269.2871
20
-9.6916
40
0.4500
50
270.0000
51
0.0000
0
LINE
8
PARAMETRIX
10
-268.8371
20
-9.6916
11
-268.8371
21
-9.5916
0
ARC
8
PARAMETRIX
10
-269.2871
20
-9.5916
40
0.4500
50
360.0000
51
90.0000
0
LINE
8
PARAMETRIX
10
-238.9121
20
-11.1416
11
-249.0393
21
-11.1416
0
ARC
8
PARAMETRIX
10
-249.0393
20
-11.5916
40
0.4500
50
90.0000
51
180.0000
0
LINE
8
PARAMETRIX
10
-249.4893
20
-11.5916
11
-249.4893
21
-11.6916
0
ARC
8
PARAMETRIX
10
-249.0393
20
-11.6916
40
0.4500
50
180.0000
51
270.0000
0
LINE
8
PARAMETRIX
10
-249.0393
20
-12.1416
11
-238.9121
21
-12.1416
0
ARC
8
PARAMETRIX
10
-238.9121
20
-11.6916
40
0.4500
50
270.0000
51
0.0000
0
LINE
8
PARAMETRIX
10
-238.4621
20
-11.6916
11
-238.4621
21
-11.5916
0
ARC
8
PARAMETRIX
10
-238.9121
20
-11.5916
40
0.4500
50
0.0000
51
90.0000
0
LINE
8
PARAMETRIX
10
-250.9393
20
-11.1416
11
-261.0665
21
-11.1416
0
ARC
8
PARAMETRIX
10
-261.0665
20
-11.5916
40
0.4500
50
90.0000
51
180.0000
0
LINE
8
PARAMETRIX
10
-261.5165
20
-11.5916
11
-261.5165
21
-11.6916
0
ARC
8
PARAMETRIX
10
-261.0665
20
-11.6916
40
0.4500
50
180.0000
51
270.0000
0
LINE
8
PARAMETRIX
10
-261.0665
20
-12.1416
11
-250.9393
21
-12.1416
0
ARC
8
PARAMETRIX
10
-250.9393
20
-11.6916
40
0.4500
50
270.0000
51
0.0000
0
LINE
8
PARAMETRIX
10
-250.4893
20
-11.6916
11
-250.4893
21
-11.5916
0
ARC
8
PARAMETRIX
10
-250.9393
20
-11.5916
40
0.4500
50
0.0000
51
90.0000
0
LINE
8
PARAMETRIX
10
-262.9665
20
-11.1416
11
-273.0936
21
-11.1416
0
ARC
8
PARAMETRIX
10
-273.0936
20
-11.5916
40
0.4500
50
90.0000
51
180.0000
0
LINE
8
PARAMETRIX
10
-273.5436
20
-11.5916
11
-273.5436
21
-11.6916
0
ARC
8
PARAMETRIX
10
-273.0936
20
-11.6916
40
0.4500
50
180.0000
51
270.0000
0
LINE
8
PARAMETRIX
10
-273.0936
20
-12.1416
11
-262.9665
21
-12.1416
0
ARC
8
PARAMETRIX
10
-262.9665
20
-11.6916
40
0.4500
50
270.0000
51
0.0000
0
LINE
8
PARAMETRIX
10
-262.5165
20
-11.6916
11
-262.5165
21
-11.5916
0
ARC
8
PARAMETRIX
10
-262.9665
20
-11.5916
40
0.4500
50
0.0000
51
90.0000
0
CIRCLE
8
PARAMETRIX
10
-256.0029
20
40.1416
40
8.0000
0
LINE
8
PARAMETRIX
10
-273.8996
20
22.1416
11
-269.5174
21
22.1416
0
ARC
8
PARAMETRIX
10
-269.5174
20
22.5916
40
0.4500
50
270.0000
51
0.0000
0
LINE
8
PARAMETRIX
10
-269.0674
20
22.5916
11
-269.0674
21
22.6916
0
ARC
8
PARAMETRIX
10
-269.5174
20
22.6916
40
0.4500
50
0.0000
51
90.0000
0
LINE
8
PARAMETRIX
10
-269.5174
20
23.1416
11
-273.8996
21
23.1416
0
ARC
8
PARAMETRIX
10
-273.8996
20
22.6916
40
0.4500
50
90.0000
51
180.0000
0
LINE
8
PARAMETRIX
10
-274.3496
20
22.6916
11
-274.3496
21
22.5916
0
ARC
8
PARAMETRIX
10
-273.8996
20
22.5916
40
0.4500
50
180.0000
51
270.0000
0
LINE
8
PARAMETRIX
10
-267.6174
20
22.1416
11
-256.9529
21
22.1416
0
ARC
8
PARAMETRIX
10
-256.9529
20
22.5916
40
0.4500
50
270.0000
51
0.0000
0
LINE
8
PARAMETRIX
10
-256.5029
20
22.5916
11
-256.5029
21
22.6916
0
ARC
8
PARAMETRIX
10
-256.9529
20
22.6916
40
0.4500
50
0.0000
51
90.0000
0
LINE
8
PARAMETRIX
10
-256.9529
20
23.1416
11
-267.6174
21
23.1416
0
ARC
8
PARAMETRIX
10
-267.6174
20
22.6916
40
0.4500
50
90.0000
51
180.0000
0
LINE
8
PARAMETRIX
10
-268.0674
20
22.6916
11
-268.0674
21
22.5916
0
ARC
8
PARAMETRIX
10
-267.6174
20
22.5916
40
0.4500
50
180.0000
51
270.0000
0
LINE
8
PARAMETRIX
10
-255.0529
20
22.1416
11
-244.3884
21
22.1416
0
ARC
8
PARAMETRIX
10
-244.3884
20
22.5916
40
0.4500
50
270.0000
51
0.0000
0
LINE
8
PARAMETRIX
10
-243.9384
20
22.5916
11
-243.9384
21
22.6916
0
ARC
8
PARAMETRIX
10
-244.3884
20
22.6916
40
0.4500
50
0.0000
51
90.0000
0
LINE
8
PARAMETRIX
10
-244.3884
20
23.1416
11
-255.0529
21
23.1416
0
ARC
8
PARAMETRIX
10
-255.0529
20
22.6916
40
0.4500
50
90.0000
51
180.0000
0
LINE
8
PARAMETRIX
10
-255.5029
20
22.6916
11
-255.5029
21
22.5916
0
ARC
8
PARAMETRIX
10
-255.0529
20
22.5916
40
0.4500
50
180.0000
51
270.0000
0
LINE
8
PARAMETRIX
10
-242.4884
20
22.1416
11
-238.1062
21
22.1416
0
ARC
8
PARAMETRIX
10
-238.1062
20
22.5916
40
0.4500
50
270.0000
51
0.0000
0
LINE
8
PARAMETRIX
10
-237.6562
20
22.5916
11
-237.6562
21
22.6916
0
ARC
8
PARAMETRIX
10
-238.1062
20
22.6916
40
0.4500
50
0.0000
51
90.0000
0
LINE
8
PARAMETRIX
10
-238.1062
20
23.1416
11
-242.4884
21
23.1416
0
ARC
8
PARAMETRIX
10
-242.4884
20
22.6916
40
0.4500
50
90.0000
51
180.0000
0
LINE
8
PARAMETRIX
10
-242.9384
20
22.6916
11
-242.9384
21
22.5916
0
ARC
8
PARAMETRIX
10
-242.4884
20
22.5916
40
0.4500
50
180.0000
51
270.0000
0
LINE
8
PARAMETRIX
10
-273.8996
20
24.1416
11
-263.2351
21
24.1416
0
ARC
8
PARAMETRIX
10
-263.2351
20
24.5916
40
0.4500
50
270.0000
51
0.0000
0
LINE
8
PARAMETRIX
10
-262.7851
20
24.5916
11
-262.7851
21
24.6916
0
ARC
8
PARAMETRIX
10
-263.2351
20
24.6916
40
0.4500
50
0.0000
51
90.0000
0
LINE
8
PARAMETRIX
10
-263.2351
20
25.1416
11
-273.8996
21
25.1416
0
ARC
8
PARAMETRIX
10
-273.8996
20
24.6916
40
0.4500
50
90.0000
51
180.0000
0
LINE
8
PARAMETRIX
10
-274.3496
20
24.6916
11
-274.3496
21
24.5916
0
ARC
8
PARAMETRIX
10
-273.8996
20
24.5916
40
0.4500
50
180.0000
51
270.0000
0
LINE
8
PARAMETRIX
10
-261.3351
20
24.1416
11
-250.6707
21
24.1416
0
ARC
8
PARAMETRIX
10
-250.6707
20
24.5916
40
0.4500
50
270.0000
51
0.0000
0
LINE
8
PARAMETRIX
10
-250.2207
20
24.5916
11
-250.2207
21
24.6916
0
ARC
8
PARAMETRIX
10
-250.6707
20
24.6916
40
0.4500
50
0.0000
51
90.0000
0
LINE
8
PARAMETRIX
10
-250.6707
20
25.1416
11
-261.3351
21
25.1416
0
ARC
8
PARAMETRIX
10
-261.3351
20
24.6916
40
0.4500
50
90.0000
51
180.0000
0
LINE
8
PARAMETRIX
10
-261.7851
20
24.6916
11
-261.7851
21
24.5916
0
ARC
8
PARAMETRIX
10
-261.3351
20
24.5916
40
0.4500
50
180.0000
51
270.0000
0
LINE
8
PARAMETRIX
10
-248.7707
20
24.1416
11
-238.1062
21
24.1416
0
ARC
8
PARAMETRIX
10
-238.1062
20
24.5916
40
0.4500
50
270.0000
51
0.0000
0
LINE
8
PARAMETRIX
10
-237.6562
20
24.5916
11
-237.6562
21
24.6916
0
ARC
8
PARAMETRIX
10
-238.1062
20
24.6916
40
0.4500
50
0.0000
51
90.0000
0
LINE
8
PARAMETRIX
10
-238.1062
20
25.1416
11
-248.7707
21
25.1416
0
ARC
8
PARAMETRIX
10
-248.7707
20
24.6916
40
0.4500
50
90.0000
51
180.0000
0
LINE
8
PARAMETRIX
10
-249.2207
20
24.6916
11
-249.2207
21
24.5916
0
ARC
8
PARAMETRIX
10
-248.7707
20
24.5916
40
0.4500
50
180.0000
51
270.0000
0
LINE
8
PARAMETRIX
10
-273.5542
20
26.1416
11
-269.2871
21
26.1416
0
ARC
8
PARAMETRIX
10
-269.2871
20
26.5916
40
0.4500
50
270.0000
51
0.0000
0
LINE
8
PARAMETRIX
10
-268.8371
20
26.5916
11
-268.8371
21
26.6916
0
ARC
8
PARAMETRIX
10
-269.2871
20
26.6916
40
0.4500
50
0.0000
51
90.0000
0
LINE
8
PARAMETRIX
10
-269.2871
20
27.1416
11
-273.5542
21
27.1416
0
ARC
8
PARAMETRIX
10
-273.5542
20
26.6916
40
0.4500
50
90.0000
51
180.0000
0
LINE
8
PARAMETRIX
10
-274.0042
20
26.6916
11
-274.0042
21
26.5916
0
ARC
8
PARAMETRIX
10
-273.5542
20
26.5916
40
0.4500
50
180.0000
51
270.0000
0
LINE
8
PARAMETRIX
10
-267.3871
20
26.1416
11
-256.9529
21
26.1416
0
ARC
8
PARAMETRIX
10
-256.9529
20
26.5916
40
0.4500
50
270.0000
51
0.0000
0
LINE
8
PARAMETRIX
10
-256.5029
20
26.5916
11
-256.5029
21
26.6916
0
ARC
8
PARAMETRIX
10
-256.9529
20
26.6916
40
0.4500
50
0.0000
51
90.0000
0
LINE
8
PARAMETRIX
10
-256.9529
20
27.1416
11
-267.3871
21
27.1416
0
ARC
8
PARAMETRIX
10
-267.3871
20
26.6916
40
0.4500
50
90.0000
51
180.0000
0
LINE
8
PARAMETRIX
10
-267.8371
20
26.6916
11
-267.8371
21
26.5916
0
ARC
8
PARAMETRIX
10
-267.3871
20
26.5916
40
0.4500
50
180.0000
51
270.0000
0
LINE
8
PARAMETRIX
10
-255.0529
20
26.1416
11
-244.6187
21
26.1416
0
ARC
8
PARAMETRIX
10
-244.6187
20
26.5916
40
0.4500
50
270.0000
51
0.0000
0
LINE
8
PARAMETRIX
10
-244.1687
20
26.5916
11
-244.1687
21
26.6916
0
ARC
8
PARAMETRIX
10
-244.6187
20
26.6916
40
0.4500
50
0.0000
51
90.0000
0
LINE
8
PARAMETRIX
10
-244.6187
20
27.1416
11
-255.0529
21
27.1416
0
ARC
8
PARAMETRIX
10
-255.0529
20
26.6916
40
0.4500
50
90.0000
51
180.0000
0
LINE
8
PARAMETRIX
10
-255.5029
20
26.6916
11
-255.5029
21
26.5916
0
ARC
8
PARAMETRIX
10
-255.0529
20
26.5916
40
0.4500
50
180.0000
51
270.0000
0
LINE
8
PARAMETRIX
10
-242.7187
20
26.1416
11
-238.4516
21
26.1416
0
ARC
8
PARAMETRIX
10
-238.4516
20
26.5916
40
0.4500
50
270.0000
51
0.0000
0
LINE
8
PARAMETRIX
10
-238.0016
20
26.5916
11
-238.0016
21
26.6916
0
ARC
8
PARAMETRIX
10
-238.4516
20
26.6916
40
0.4500
50
0.0000
51
90.0000
0
LINE
8
PARAMETRIX
10
-238.4516
20
27.1416
11
-242.7187
21
27.1416
0
ARC
8
PARAMETRIX
10
-242.7187
20
26.6916
40
0.4500
50
90.0000
51
180.0000
0
LINE
8
PARAMETRIX
10
-243.1687
20
26.6916
11
-243.1687
21
26.5916
0
ARC
8
PARAMETRIX
10
-242.7187
20
26.5916
40
0.4500
50
180.0000
51
270.0000
0
LINE
8
PARAMETRIX
10
-273.0936
20
28.1416
11
-262.9665
21
28.1416
0
ARC
8
PARAMETRIX
10
-262.9665
20
28.5916
40
0.4500
50
270.0000
51
0.0000
0
LINE
8
PARAMETRIX
10
-262.5165
20
28.5916
11
-262.5165
21
28.6916
0
ARC
8
PARAMETRIX
10
-262.9665
20
28.6916
40
0.4500
50
0.0000
51
90.0000
0
LINE
8
PARAMETRIX
10
-262.9665
20
29.1416
11
-273.0936
21
29.1416
0
ARC
8
PARAMETRIX
10
-273.0936
20
28.6916
40
0.4500
50
90.0000
51
180.0000
0
LINE
8
PARAMETRIX
10
-273.5436
20
28.6916
11
-273.5436
21
28.5916
0
ARC
8
PARAMETRIX
10
-273.0936
20
28.5916
40
0.4500
50
180.0000
51
270.0000
0
LINE
8
PARAMETRIX
10
-261.0665
20
28.1416
11
-250.9393
21
28.1416
0
ARC
8
PARAMETRIX
10
-250.9393
20
28.5916
40
0.4500
50
270.0000
51
0.0000
0
LINE
8
PARAMETRIX
10
-250.4893
20
28.5916
11
-250.4893
21
28.6916
0
ARC
8
PARAMETRIX
10
-250.9393
20
28.6916
40
0.4500
50
0.0000
51
90.0000
0
LINE
8
PARAMETRIX
10
-250.9393
20
29.1416
11
-261.0665
21
29.1416
0
ARC
8
PARAMETRIX
10
-261.0665
20
28.6916
40
0.4500
50
90.0000
51
180.0000
0
LINE
8
PARAMETRIX
10
-261.5165
20
28.6916
11
-261.5165
21
28.5916
0
ARC
8
PARAMETRIX
10
-261.0665
20
28.5916
40
0.4500
50
180.0000
51
270.0000
0
LINE
8
PARAMETRIX
10
-249.0393
20
28.1416
11
-238.9121
21
28.1416
0
ARC
8
PARAMETRIX
10
-238.9121
20
28.5916
40
0.4500
50
270.0000
51
360.0000
0
LINE
8
PARAMETRIX
10
-238.4621
20
28.5916
11
-238.4621
21
28.6916
0
ARC
8
PARAMETRIX
10
-238.9121
20
28.6916
40
0.4500
50
0.0000
51
90.0000
0
LINE
8
PARAMETRIX
10
-238.9121
20
29.1416
11
-249.0393
21
29.1416
0
ARC
8
PARAMETRIX
10
-249.0393
20
28.6916
40
0.4500
50
90.0000
51
180.0000
0
LINE
8
PARAMETRIX
10
-249.4893
20
28.6916
11
-249.4893
21
28.5916
0
ARC
8
PARAMETRIX
10
-249.0393
20
28.5916
40
0.4500
50
180.0000
51
270.0000
0
ARC
8
PARAMETRIX
10
18.8467
20
-2.1416
40
1.0000
50
180.0000
51
0.0000
0
LINE
8
PARAMETRIX
10
19.8467
20
-2.1416
11
19.8467
21
-1.0000
0
ARC
8
PARAMETRIX
10
18.8467
20
-1.0000
40
1.0000
50
0.0000
51
180.0000
0
LINE
8
PARAMETRIX
10
17.8467
20
-1.0000
11
17.8467
21
-2.1416
0
LINE
8
PARAMETRIX
10
39.2642
20
7.5000
11
39.2642
21
9.5000
0
LINE
8
PARAMETRIX
10
39.2642
20
9.5000
11
37.6934
21
9.5000
0
LINE
8
PARAMETRIX
10
37.6934
20
9.5000
11
37.6934
21
7.5000
0
LINE
8
PARAMETRIX
10
37.6934
20
7.5000
11
39.2642
21
7.5000
0
ARC
8
PARAMETRIX
10
18.8467
20
19.1416
40
1.0000
50
0.0000
51
180.0000
0
LINE
8
PARAMETRIX
10
17.8467
20
19.1416
11
17.8467
21
18.0000
0
ARC
8
PARAMETRIX
10
18.8467
20
18.0000
40
1.0000
50
180.0000
51
0.0000
0
LINE
8
PARAMETRIX
10
19.8467
20
18.0000
11
19.8467
21
19.1416
0
LINE
8
PARAMETRIX
10
0.0000
20
7.5000
11
0.0000
21
9.5000
0
LINE
8
PARAMETRIX
10
0.0000
20
9.5000
11
-1.5708
21
9.5000
0
LINE
8
PARAMETRIX
10
-1.5708
20
9.5000
11
-1.5708
21
7.5000
0
LINE
8
PARAMETRIX
10
-1.5708
20
7.5000
11
0.0000
21
7.5000
0
ARC
8
PARAMETRIX
10
-20.4175
20
-2.1416
40
1.0000
50
180.0000
51
360.0000
0
LINE
8
PARAMETRIX
10
-19.4175
20
-2.1416
11
-19.4175
21
-1.0000
0
ARC
8
PARAMETRIX
10
-20.4175
20
-1.0000
40
1.0000
50
0.0000
51
180.0000
0
LINE
8
PARAMETRIX
10
-21.4175
20
-1.0000
11
-21.4175
21
-2.1416
0
ARC
8
PARAMETRIX
10
-20.4175
20
19.1416
40
1.0000
50
0.0000
51
180.0000
0
LINE
8
PARAMETRIX
10
-21.4175
20
19.1416
11
-21.4175
21
18.0000
0
ARC
8
PARAMETRIX
10
-20.4175
20
18.0000
40
1.0000
50
180.0000
51
0.0000
0
LINE
8
PARAMETRIX
10
-19.4175
20
18.0000
11
-19.4175
21
19.1416
0
LINE
8
PARAMETRIX
10
-39.2642
20
7.5000
11
-39.2642
21
9.5000
0
LINE
8
PARAMETRIX
10
-39.2642
20
9.5000
11
-40.8350
21
9.5000
0
LINE
8
PARAMETRIX
10
-40.8350
20
9.5000
11
-40.8350
21
7.5000
0
LINE
8
PARAMETRIX
10
-40.8350
20
7.5000
11
-39.2642
21
7.5000
0
ARC
8
PARAMETRIX
10
-59.6817
20
-2.1416
40
1.0000
50
180.0000
51
0.0000
0
LINE
8
PARAMETRIX
10
-58.6817
20
-2.1416
11
-58.6817
21
-1.0000
0
ARC
8
PARAMETRIX
10
-59.6817
20
-1.0000
40
1.0000
50
0.0000
51
180.0000
0
LINE
8
PARAMETRIX
10
-60.6817
20
-1.0000
11
-60.6817
21
-2.1416
0
ARC
8
PARAMETRIX
10
-59.6817
20
19.1416
40
1.0000
50
0.0000
51
180.0000
0
LINE
8
PARAMETRIX
10
-60.6817
20
19.1416
11
-60.6817
21
18.0000
0
ARC
8
PARAMETRIX
10
-59.6817
20
18.0000
40
1.0000
50
180.0000
51
0.0000
0
LINE
8
PARAMETRIX
10
-58.6817
20
18.0000
11
-58.6817
21
19.1416
0
LINE
8
PARAMETRIX
10
-78.5285
20
7.5000
11
-78.5285
21
9.5000
0
LINE
8
PARAMETRIX
10
-78.5285
20
9.5000
11
-80.0993
21
9.5000
0
LINE
8
PARAMETRIX
10
-80.0993
20
9.5000
11
-80.0993
21
7.5000
0
LINE
8
PARAMETRIX
10
-80.0993
20
7.5000
11
-78.5285
21
7.5000
0
ARC
8
PARAMETRIX
10
-98.9460
20
-2.1416
40
1.0000
50
180.0000
51
0.0000
0
LINE
8
PARAMETRIX
10
-97.9460
20
-2.1416
11
-97.9460
21
-1.0000
0
ARC
8
PARAMETRIX
10
-98.9460
20
-1.0000
40
1.0000
50
0.0000
51
180.0000
0
LINE
8
PARAMETRIX
10
-99.9460
20
-1.0000
11
-99.9460
21
-2.1416
0
ARC
8
PARAMETRIX
10
-98.9460
20
19.1416
40
1.0000
50
0.0000
51
180.0000
0
LINE
8
PARAMETRIX
10
-99.9460
20
19.1416
11
-99.9460
21
18.0000
0
ARC
8
PARAMETRIX
10
-98.9460
20
18.0000
40
1.0000
50
180.0000
51
0.0000
0
LINE
8
PARAMETRIX
10
-97.9460
20
18.0000
11
-97.9460
21
19.1416
0
LINE
8
PARAMETRIX
10
-117.7927
20
7.5000
11
-117.7927
21
9.5000
0
LINE
8
PARAMETRIX
10
-117.7927
20
9.5000
11
-119.3635
21
9.5000
0
LINE
8
PARAMETRIX
10
-119.3635
20
9.5000
11
-119.3635
21
7.5000
0
LINE
8
PARAMETRIX
10
-119.3635
20
7.5000
11
-117.7927
21
7.5000
0
ARC
8
PARAMETRIX
10
-138.2102
20
-2.1416
40
1.0000
50
180.0000
51
360.0000
0
LINE
8
PARAMETRIX
10
-137.2102
20
-2.1416
11
-137.2102
21
-1.0000
0
ARC
8
PARAMETRIX
10
-138.2102
20
-1.0000
40
1.0000
50
0.0000
51
180.0000
0
LINE
8
PARAMETRIX
10
-139.2102
20
-1.0000
11
-139.2102
21
-2.1416
0
ARC
8
PARAMETRIX
10
-138.2102
20
19.1416
40
1.0000
50
0.0000
51
180.0000
0
LINE
8
PARAMETRIX
10
-139.2102
20
19.1416
11
-139.2102
21
18.0000
0
ARC
8
PARAMETRIX
10
-138.2102
20
18.0000
40
1.0000
50
180.0000
51
0.0000
0
LINE
8
PARAMETRIX
10
-137.2102
20
18.0000
11
-137.2102
21
19.1416
0
LINE
8
PARAMETRIX
10
-157.0569
20
7.5000
11
-157.0569
21
9.5000
0
LINE
8
PARAMETRIX
10
-157.0569
20
9.5000
11
-158.6277
21
9.5000
0
LINE
8
PARAMETRIX
10
-158.6277
20
9.5000
11
-158.6277
21
7.5000
0
LINE
8
PARAMETRIX
10
-158.6277
20
7.5000
11
-157.0569
21
7.5000
0
ARC
8
PARAMETRIX
10
-177.4744
20
-2.1416
40
1.0000
50
180.0000
51
0.0000
0
LINE
8
PARAMETRIX
10
-176.4744
20
-2.1416
11
-176.4744
21
-1.0000
0
ARC
8
PARAMETRIX
10
-177.4744
20
-1.0000
40
1.0000
50
0.0000
51
180.0000
0
LINE
8
PARAMETRIX
10
-178.4744
20
-1.0000
11
-178.4744
21
-2.1416
0
ARC
8
PARAMETRIX
10
-177.4744
20
19.1416
40
1.0000
50
0.0000
51
180.0000
0
LINE
8
PARAMETRIX
10
-178.4744
20
19.1416
11
-178.4744
21
18.0000
0
ARC
8
PARAMETRIX
10
-177.4744
20
18.0000
40
1.0000
50
180.0000
51
0.0000
0
LINE
8
PARAMETRIX
10
-176.4744
20
18.0000
11
-176.4744
21
19.1416
0
LINE
8
PARAMETRIX
10
-196.3212
20
7.5000
11
-196.3212
21
9.5000
0
LINE
8
PARAMETRIX
10
-196.3212
20
9.5000
11
-197.8919
21
9.5000
0
LINE
8
PARAMETRIX
10
-197.8919
20
9.5000
11
-197.8919
21
7.5000
0
LINE
8
PARAMETRIX
10
-197.8919
20
7.5000
11
-196.3212
21
7.5000
0
ARC
8
PARAMETRIX
10
-216.7387
20
-2.1416
40
1.0000
50
180.0000
51
0.0000
0
LINE
8
PARAMETRIX
10
-215.7387
20
-2.1416
11
-215.7387
21
-1.0000
0
ARC
8
PARAMETRIX
10
-216.7387
20
-1.0000
40
1.0000
50
0.0000
51
180.0000
0
LINE
8
PARAMETRIX
10
-217.7387
20
-1.0000
11
-217.7387
21
-2.1416
0
ARC
8
PARAMETRIX
10
-216.7387
20
19.1416
40
1.0000
50
0.0000
51
180.0000
0
LINE
8
PARAMETRIX
10
-217.7387
20
19.1416
11
-217.7387
21
18.0000
0
ARC
8
PARAMETRIX
10
-216.7387
20
18.0000
40
1.0000
50
180.0000
51
0.0000
0
LINE
8
PARAMETRIX
10
-215.7387
20
18.0000
11
-215.7387
21
19.1416
0
LINE
8
PARAMETRIX
10
-235.5854
20
7.5000
11
-235.5854
21
9.5000
0
LINE
8
PARAMETRIX
10
-235.5854
20
9.5000
11
-237.1562
21
9.5000
0
LINE
8
PARAMETRIX
10
-237.1562
20
9.5000
11
-237.1562
21
7.5000
0
LINE
8
PARAMETRIX
10
-237.1562
20
7.5000
11
-235.5854
21
7.5000
0
ARC
8
PARAMETRIX
10
-256.0029
20
-2.1416
40
1.0000
50
180.0000
51
360.0000
0
LINE
8
PARAMETRIX
10
-255.0029
20
-2.1416
11
-255.0029
21
-1.0000
0
ARC
8
PARAMETRIX
10
-256.0029
20
-1.0000
40
1.0000
50
0.0000
51
180.0000
0
LINE
8
PARAMETRIX
10
-257.0029
20
-1.0000
11
-257.0029
21
-2.1416
0
ARC
8
PARAMETRIX
10
-256.0029
20
19.1416
40
1.0000
50
0.0000
51
180.0000
0
LINE
8
PARAMETRIX
10
-257.0029
20
19.1416
11
-257.0029
21
18.0000
0
ARC
8
PARAMETRIX
10
-256.0029
20
18.0000
40
1.0000
50
180.0000
51
0.0000
0
LINE
8
PARAMETRIX
10
-255.0029
20
18.0000
11
-255.0029
21
19.1416
0
ENDSEC
0
EOF
