<svg width="356" height="113" viewBox="-293 -44 356 113" xmlns="http://www.w3.org/2000/svg"><path d="M 0.0000 17.0000 L 0.0000 20.1416 L 0.0000 25.1416 L 4.2293 43.5076 A 15.0000 15.0000 0 0 0 33.4642 43.5076 L 37.6934 25.1416 L 37.6934 20.1416 L 37.6934 17.0000 L 39.2642 17.0000 L 39.2642 0.0000 L 37.6934 0.0000 L 37.6934 -3.1416 L 37.6934 -8.1416 L 33.4642 -26.5076 A 15.0000 15.0000 0 0 0 4.2293 -26.5076 L 0.0000 -8.1416 L 0.0000 -3.1416 L 0.0000 0.0000 L -1.5708 0.0000 L -1.5708 -3.1416 L -1.5708 -8.1416 L -5.8001 -26.5076 A 15.0000 15.0000 0 0 0 -35.0350 -26.5076 L -39.2642 -8.1416 L -39.2642 -3.1416 L -39.2642 0.0000 L -40.8350 -0.0000 L -40.8350 -3.1416 L -40.8350 -8.1416 L -45.0643 -26.5076 A 15.0000 15.0000 0 0 0 -74.2992 -26.5076 L -78.5285 -8.1416 L -78.5285 -3.1416 L -78.5285 -0.0000 L -80.0993 -0.0000 L -80.0993 -3.1416 L -80.0993 -8.1416 L -84.3285 -26.5076 A 15.0000 15.0000 0 0 0 -113.5634 -26.5076 L -117.7927 -8.1416 L -117.7927 -3.1416 L -117.7927 -0.0000 L -119.3635 -0.0000 L -119.3635 -3.1416 L -119.3635 -8.1416 L -123.5928 -26.5076 A 15.0000 15.0000 0 0 0 -152.8276 -26.5076 L -157.0569 -8.1416 L -157.0569 -3.1416 L -157.0569 -0.0000 L -158.6277 -0.0000 L -158.6277 -3.1416 L -158.6277 -8.1416 L -162.8570 -26.5076 A 15.0000 15.0000 0 0 0 -192.0919 -26.5076 L -196.3212 -8.1416 L -196.3212 -3.1416 L -196.3212 -0.0000 L -197.8919 -0.0000 L -197.8919 -3.1416 L -197.8919 -8.1416 L -202.1212 -26.5076 A 15.0000 15.0000 0 0 0 -231.3561 -26.5076 L -235.5854 -8.1416 L -235.5854 -3.1416 L -235.5854 -0.0000 L -237.1562 -0.0000 L -237.1562 -3.1416 L -237.1562 -8.1416 L -241.3855 -26.5076 A 15.0000 15.0000 0 0 0 -270.6203 -26.5076 L -274.8496 -8.1416 L -274.8496 -3.1416 L -274.8496 -0.0000 L -274.8496 17.0000 L -274.8496 20.1416 L -274.8496 25.1416 L -270.6203 43.5076 A 15.0000 15.0000 0 0 0 -241.3855 43.5076 L -237.1562 25.1416 L -237.1562 20.1416 L -237.1562 17.0000 L -235.5854 17.0000 L -235.5854 20.1416 L -235.5854 25.1416 L -231.3561 43.5076 A 15.0000 15.0000 0 0 0 -202.1212 43.5076 L -197.8919 25.1416 L -197.8919 20.1416 L -197.8919 17.0000 L -196.3212 17.0000 L -196.3212 20.1416 L -196.3212 25.1416 L -192.0919 43.5076 A 15.0000 15.0000 0 0 0 -162.8570 43.5076 L -158.6277 25.1416 L -158.6277 20.1416 L -158.6277 17.0000 L -157.0569 17.0000 L -157.0569 20.1416 L -157.0569 25.1416 L -152.8276 43.5076 A 15.0000 15.0000 0 0 0 -123.5928 43.5076 L -119.3635 25.1416 L -119.3635 20.1416 L -119.3635 17.0000 L -117.7927 17.0000 L -117.7927 20.1416 L -117.7927 25.1416 L -113.5634 43.5076 A 15.0000 15.0000 0 0 0 -84.3285 43.5076 L -80.0993 25.1416 L -80.0993 20.1416 L -80.0993 17.0000 L -78.5285 17.0000 L -78.5285 20.1416 L -78.5285 25.1416 L -74.2992 43.5076 A 15.0000 15.0000 0 0 0 -45.0643 43.5076 L -40.8350 25.1416 L -40.8350 20.1416 L -40.8350 17.0000 L -39.2642 17.0000 L -39.2642 20.1416 L -39.2642 25.1416 L -35.0350 43.5076 A 15.0000 15.0000 0 0 0 -5.8001 43.5076 L -1.5708 25.1416 L -1.5708 20.1416 L -1.5708 17.0000 L 0.0000 17.0000 Z" stroke="green" stroke-width="1" fill="none" /><path d="M 0.0000 17.0000 L 0.0000 20.1416 L 0.0000 25.1416 L 4.2293 43.5076 A 15.0000 15.0000 0 0 0 33.4642 43.5076 L 37.6934 25.1416 L 37.6934 20.1416 L 37.6934 17.0000 L 39.2642 17.0000 L 39.2642 0.0000 L 37.6934 0.0000 L 37.6934 -3.1416 L 37.6934 -8.1416 L 33.4642 -26.5076 A 15.0000 15.0000 0 0 0 4.2293 -26.5076 L 0.0000 -8.1416 L 0.0000 -3.1416 L 0.0000 0.0000 L -1.5708 0.0000 L -1.5708 -3.1416 L -1.5708 -8.1416 L -5.8001 -26.5076 A 15.0000 15.0000 0 0 0 -35.0350 -26.5076 L -39.2642 -8.1416 L -39.2642 -3.1416 L -39.2642 0.0000 L -40.8350 -0.0000 L -40.8350 -3.1416 L -40.8350 -8.1416 L -45.0643 -26.5076 A 15.0000 15.0000 0 0 0 -74.2992 -26.5076 L -78.5285 -8.1416 L -78.5285 -3.1416 L -78.5285 -0.0000 L -80.0993 -0.0000 L -80.0993 -3.1416 L -80.0993 -8.1416 L -84.3285 -26.5076 A 15.0000 15.0000 0 0 0 -113.5634 -26.5076 L -117.7927 -8.1416 L -117.7927 -3.1416 L -117.7927 -0.0000 L -119.3635 -0.0000 L -119.3635 -3.1416 L -119.3635 -8.1416 L -123.5928 -26.5076 A 15.0000 15.0000 0 0 0 -152.8276 -26.5076 L -157.0569 -8.1416 L -157.0569 -3.1416 L -157.0569 -0.0000 L -158.6277 -0.0000 L -158.6277 -3.1416 L -158.6277 -8.1416 L -162.8570 -26.5076 A 15.0000 15.0000 0 0 0 -192.0919 -26.5076 L -196.3212 -8.1416 L -196.3212 -3.1416 L -196.3212 -0.0000 L -197.8919 -0.0000 L -197.8919 -3.1416 L -197.8919 -8.1416 L -202.1212 -26.5076 A 15.0000 15.0000 0 0 0 -231.3561 -26.5076 L -235.5854 -8.1416 L -235.5854 -3.1416 L -235.5854 -0.0000 L -237.1562 -0.0000 L -237.1562 -3.1416 L -237.1562 -8.1416 L -241.3855 -26.5076 A 15.0000 15.0000 0 0 0 -270.6203 -26.5076 L -274.8496 -8.1416 L -274.8496 -3.1416 L -274.8496 -0.0000 L -274.8496 17.0000 L -274.8496 20.1416 L -274.8496 25.1416 L -270.6203 43.5076 A 15.0000 15.0000 0 0 0 -241.3855 43.5076 L -237.1562 25.1416 L -237.1562 20.1416 L -237.1562 17.0000 L -235.5854 17.0000 L -235.5854 20.1416 L -235.5854 25.1416 L -231.3561 43.5076 A 15.0000 15.0000 0 0 0 -202.1212 43.5076 L -197.8919 25.1416 L -197.8919 20.1416 L -197.8919 17.0000 L -196.3212 17.0000 L -196.3212 20.1416 L -196.3212 25.1416 L -192.0919 43.5076 A 15.0000 15.0000 0 0 0 -162.8570 43.5076 L -158.6277 25.1416 L -158.6277 20.1416 L -158.6277 17.0000 L -157.0569 17.0000 L -157.0569 20.1416 L -157.0569 25.1416 L -152.8276 43.5076 A 15.0000 15.0000 0 0 0 -123.5928 43.5076 L -119.3635 25.1416 L -119.3635 20.1416 L -119.3635 17.0000 L -117.7927 17.0000 L -117.7927 20.1416 L -117.7927 25.1416 L -113.5634 43.5076 A 15.0000 15.0000 0 0 0 -84.3285 43.5076 L -80.0993 25.1416 L -80.0993 20.1416 L -80.0993 17.0000 L -78.5285 17.0000 L -78.5285 20.1416 L -78.5285 25.1416 L -74.2992 43.5076 A 15.0000 15.0000 0 0 0 -45.0643 43.5076 L -40.8350 25.1416 L -40.8350 20.1416 L -40.8350 17.0000 L -39.2642 17.0000 L -39.2642 20.1416 L -39.2642 25.1416 L -35.0350 43.5076 A 15.0000 15.0000 0 0 0 -5.8001 43.5076 L -1.5708 25.1416 L -1.5708 20.1416 L -1.5708 17.0000 L 0.0000 17.0000 Z" stroke="green" stroke-width="1" fill="none" /><circle cx="4.2500" cy="12.7500" r="2.1250" stroke="green" stroke-width="1" fill="none" /><circle cx="33.4434" cy="12.7500" r="2.1250" stroke="green" stroke-width="1" fill="none" /><circle cx="4.2500" cy="4.2500" r="2.1250" stroke="green" stroke-width="1" fill="none" /><circle cx="33.4434" cy="4.2500" r="2.1250" stroke="green" stroke-width="1" fill="none" /><circle cx="18.8467" cy="40.1416" r="8.0000" stroke="green" stroke-width="1" fill="none" /><path d="M 36.7434 22.1416 L 32.3612 22.1416 A 0.4500 0.4500 0 0 0 31.9112 22.5916 L 31.9112 22.6916 A 0.4500 0.4500 0 0 0 32.3612 23.1416 L 36.7434 23.1416 A 0.4500 0.4500 0 0 0 37.1934 22.6916 L 37.1934 22.5916 A 0.4500 0.4500 0 0 0 36.7434 22.1416 Z" stroke="green" stroke-width="1" fill="none" /><path d="M 30.4612 22.1416 L 19.7967 22.1416 A 0.4500 0.4500 0 0 0 19.3467 22.5916 L 19.3467 22.6916 A 0.4500 0.4500 0 0 0 19.7967 23.1416 L 30.4612 23.1416 A 0.4500 0.4500 0 0 0 30.9112 22.6916 L 30.9112 22.5916 A 0.4500 0.4500 0 0 0 30.4612 22.1416 Z" stroke="green" stroke-width="1" fill="none" /><path d="M 17.8967 22.1416 L 7.2322 22.1416 A 0.4500 0.4500 0 0 0 6.7822 22.5916 L 6.7822 22.6916 A 0.4500 0.4500 0 0 0 7.2322 23.1416 L 17.8967 23.1416 A 0.4500 0.4500 0 0 0 18.3467 22.6916 L 18.3467 22.5916 A 0.4500 0.4500 0 0 0 17.8967 22.1416 Z" stroke="green" stroke-width="1" fill="none" /><path d="M 5.3322 22.1416 L 0.9500 22.1416 A 0.4500 0.4500 0 0 0 0.5000 22.5916 L 0.5000 22.6916 A 0.4500 0.4500 0 0 0 0.9500 23.1416 L 5.3322 23.1416 A 0.4500 0.4500 0 0 0 5.7822 22.6916 L 5.7822 22.5916 A 0.4500 0.4500 0 0 0 5.3322 22.1416 Z" stroke="green" stroke-width="1" fill="none" /><path d="M 36.7434 24.1416 L 26.0790 24.1416 A 0.4500 0.4500 0 0 0 25.6290 24.5916 L 25.6290 24.6916 A 0.4500 0.4500 0 0 0 26.0790 25.1416 L 36.7434 25.1416 A 0.4500 0.4500 0 0 0 37.1934 24.6916 L 37.1934 24.5916 A 0.4500 0.4500 0 0 0 36.7434 24.1416 Z" stroke="green" stroke-width="1" fill="none" /><path d="M 24.1790 24.1416 L 13.5145 24.1416 A 0.4500 0.4500 0 0 0 13.0645 24.5916 L 13.0645 24.6916 A 0.4500 0.4500 0 0 0 13.5145 25.1416 L 24.1790 25.1416 A 0.4500 0.4500 0 0 0 24.6290 24.6916 L 24.6290 24.5916 A 0.4500 0.4500 0 0 0 24.1790 24.1416 Z" stroke="green" stroke-width="1" fill="none" /><path d="M 11.6145 24.1416 L 0.9500 24.1416 A 0.4500 0.4500 0 0 0 0.5000 24.5916 L 0.5000 24.6916 A 0.4500 0.4500 0 0 0 0.9500 25.1416 L 11.6145 25.1416 A 0.4500 0.4500 0 0 0 12.0645 24.6916 L 12.0645 24.5916 A 0.4500 0.4500 0 0 0 11.6145 24.1416 Z" stroke="green" stroke-width="1" fill="none" /><path d="M 36.3980 26.1416 L 32.1309 26.1416 A 0.4500 0.4500 0 0 0 31.6809 26.5916 L 31.6809 26.6916 A 0.4500 0.4500 0 0 0 32.1309 27.1416 L 36.3980 27.1416 A 0.4500 0.4500 0 0 0 36.8480 26.6916 L 36.8480 26.5916 A 0.4500 0.4500 0 0 0 36.3980 26.1416 Z" stroke="green" stroke-width="1" fill="none" /><path d="M 30.2309 26.1416 L 19.7967 26.1416 A 0.4500 0.4500 0 0 0 19.3467 26.5916 L 19.3467 26.6916 A 0.4500 0.4500 0 0 0 19.7967 27.1416 L 30.2309 27.1416 A 0.4500 0.4500 0 0 0 30.6809 26.6916 L 30.6809 26.5916 A 0.4500 0.4500 0 0 0 30.2309 26.1416 Z" stroke="green" stroke-width="1" fill="none" /><path d="M 17.8967 26.1416 L 7.4625 26.1416 A 0.4500 0.4500 0 0 0 7.0125 26.5916 L 7.0125 26.6916 A 0.4500 0.4500 0 0 0 7.4625 27.1416 L 17.8967 27.1416 A 0.4500 0.4500 0 0 0 18.3467 26.6916 L 18.3467 26.5916 A 0.4500 0.4500 0 0 0 17.8967 26.1416 Z" stroke="green" stroke-width="1" fill="none" /><path d="M 5.5625 26.1416 L 1.2954 26.1416 A 0.4500 0.4500 0 0 0 0.8454 26.5916 L 0.8454 26.6916 A 0.4500 0.4500 0 0 0 1.2954 27.1416 L 5.5625 27.1416 A 0.4500 0.4500 0 0 0 6.0125 26.6916 L 6.0125 26.5916 A 0.4500 0.4500 0 0 0 5.5625 26.1416 Z" stroke="green" stroke-width="1" fill="none" /><path d="M 35.9375 28.1416 L 25.8103 28.1416 A 0.4500 0.4500 0 0 0 25.3603 28.5916 L 25.3603 28.6916 A 0.4500 0.4500 0 0 0 25.8103 29.1416 L 35.9375 29.1416 A 0.4500 0.4500 0 0 0 36.3875 28.6916 L 36.3875 28.5916 A 0.4500 0.4500 0 0 0 35.9375 28.1416 Z" stroke="green" stroke-width="1" fill="none" /><path d="M 23.9103 28.1416 L 13.7831 28.1416 A 0.4500 0.4500 0 0 0 13.3331 28.5916 L 13.3331 28.6916 A 0.4500 0.4500 0 0 0 13.7831 29.1416 L 23.9103 29.1416 A 0.4500 0.4500 0 0 0 24.3603 28.6916 L 24.3603 28.5916 A 0.4500 0.4500 0 0 0 23.9103 28.1416 Z" stroke="green" stroke-width="1" fill="none" /><path d="M 11.8831 28.1416 L 1.7560 28.1416 A 0.4500 0.4500 0 0 0 1.3060 28.5916 L 1.3060 28.6916 A 0.4500 0.4500 0 0 0 1.7560 29.1416 L 11.8831 29.1416 A 0.4500 0.4500 0 0 0 12.3331 28.6916 L 12.3331 28.5916 A 0.4500 0.4500 0 0 0 11.8831 28.1416 Z" stroke="green" stroke-width="1" fill="none" /><circle cx="18.8467" cy="-23.1416" r="8.0000" stroke="green" stroke-width="1" fill="none" /><path d="M 0.9500 -5.1416 L 5.3322 -5.1416 A 0.4500 0.4500 0 0 0 5.7822 -5.5916 L 5.7822 -5.6916 A 0.4500 0.4500 0 0 0 5.3322 -6.1416 L 0.9500 -6.1416 A 0.4500 0.4500 0 0 0 0.5000 -5.6916 L 0.5000 -5.5916 A 0.4500 0.4500 0 0 0 0.9500 -5.1416 Z" stroke="green" stroke-width="1" fill="none" /><path d="M 7.2322 -5.1416 L 17.8967 -5.1416 A 0.4500 0.4500 0 0 0 18.3467 -5.5916 L 18.3467 -5.6916 A 0.4500 0.4500 0 0 0 17.8967 -6.1416 L 7.2322 -6.1416 A 0.4500 0.4500 0 0 0 6.7822 -5.6916 L 6.7822 -5.5916 A 0.4500 0.4500 0 0 0 7.2322 -5.1416 Z" stroke="green" stroke-width="1" fill="none" /><path d="M 19.7967 -5.1416 L 30.4612 -5.1416 A 0.4500 0.4500 0 0 0 30.9112 -5.5916 L 30.9112 -5.6916 A 0.4500 0.4500 0 0 0 30.4612 -6.1416 L 19.7967 -6.1416 A 0.4500 0.4500 0 0 0 19.3467 -5.6916 L 19.3467 -5.5916 A 0.4500 0.4500 0 0 0 19.7967 -5.1416 Z" stroke="green" stroke-width="1" fill="none" /><path d="M 32.3612 -5.1416 L 36.7434 -5.1416 A 0.4500 0.4500 0 0 0 37.1934 -5.5916 L 37.1934 -5.6916 A 0.4500 0.4500 0 0 0 36.7434 -6.1416 L 32.3612 -6.1416 A 0.4500 0.4500 0 0 0 31.9112 -5.6916 L 31.9112 -5.5916 A 0.4500 0.4500 0 0 0 32.3612 -5.1416 Z" stroke="green" stroke-width="1" fill="none" /><path d="M 0.9500 -7.1416 L 11.6145 -7.1416 A 0.4500 0.4500 0 0 0 12.0645 -7.5916 L 12.0645 -7.6916 A 0.4500 0.4500 0 0 0 11.6145 -8.1416 L 0.9500 -8.1416 A 0.4500 0.4500 0 0 0 0.5000 -7.6916 L 0.5000 -7.5916 A 0.4500 0.4500 0 0 0 0.9500 -7.1416 Z" stroke="green" stroke-width="1" fill="none" /><path d="M 13.5145 -7.1416 L 24.1790 -7.1416 A 0.4500 0.4500 0 0 0 24.6290 -7.5916 L 24.6290 -7.6916 A 0.4500 0.4500 0 0 0 24.1790 -8.1416 L 13.5145 -8.1416 A 0.4500 0.4500 0 0 0 13.0645 -7.6916 L 13.0645 -7.5916 A 0.4500 0.4500 0 0 0 13.5145 -7.1416 Z" stroke="green" stroke-width="1" fill="none" /><path d="M 26.0790 -7.1416 L 36.7434 -7.1416 A 0.4500 0.4500 0 0 0 37.1934 -7.5916 L 37.1934 -7.6916 A 0.4500 0.4500 0 0 0 36.7434 -8.1416 L 26.0790 -8.1416 A 0.4500 0.4500 0 0 0 25.6290 -7.6916 L 25.6290 -7.5916 A 0.4500 0.4500 0 0 0 26.0790 -7.1416 Z" stroke="green" stroke-width="1" fill="none" /><path d="M 1.2954 -9.1416 L 5.5625 -9.1416 A 0.4500 0.4500 0 0 0 6.0125 -9.5916 L 6.0125 -9.6916 A 0.4500 0.4500 0 0 0 5.5625 -10.1416 L 1.2954 -10.1416 A 0.4500 0.4500 0 0 0 0.8454 -9.6916 L 0.8454 -9.5916 A 0.4500 0.4500 0 0 0 1.2954 -9.1416 Z" stroke="green" stroke-width="1" fill="none" /><path d="M 7.4625 -9.1416 L 17.8967 -9.1416 A 0.4500 0.4500 0 0 0 18.3467 -9.5916 L 18.3467 -9.6916 A 0.4500 0.4500 0 0 0 17.8967 -10.1416 L 7.4625 -10.1416 A 0.4500 0.4500 0 0 0 7.0125 -9.6916 L 7.0125 -9.5916 A 0.4500 0.4500 0 0 0 7.4625 -9.1416 Z" stroke="green" stroke-width="1" fill="none" /><path d="M 19.7967 -9.1416 L 30.2309 -9.1416 A 0.4500 0.4500 0 0 0 30.6809 -9.5916 L 30.6809 -9.6916 A 0.4500 0.4500 0 0 0 30.2309 -10.1416 L 19.7967 -10.1416 A 0.4500 0.4500 0 0 0 19.3467 -9.6916 L 19.3467 -9.5916 A 0.4500 0.4500 0 0 0 19.7967 -9.1416 Z" stroke="green" stroke-width="1" fill="none" /><path d="M 32.1309 -9.1416 L 36.3980 -9.1416 A 0.4500 0.4500 0 0 0 36.8480 -9.5916 L 36.8480 -9.6916 A 0.4500 0.4500 0 0 0 36.3980 -10.1416 L 32.1309 -10.1416 A 0.4500 0.4500 0 0 0 31.6809 -9.6916 L 31.6809 -9.5916 A 0.4500 0.4500 0 0 0 32.1309 -9.1416 Z" stroke="green" stroke-width="1" fill="none" /><path d="M 1.7560 -11.1416 L 11.8831 -11.1416 A 0.4500 0.4500 0 0 0 12.3331 -11.5916 L 12.3331 -11.6916 A 0.4500 0.4500 0 0 0 11.8831 -12.1416 L 1.7560 -12.1416 A 0.4500 0.4500 0 0 0 1.3060 -11.6916 L 1.3060 -11.5916 A 0.4500 0.4500 0 0 0 1.7560 -11.1416 Z" stroke="green" stroke-width="1" fill="none" /><path d="M 13.7831 -11.1416 L 23.9103 -11.1416 A 0.4500 0.4500 0 0 0 24.3603 -11.5916 L 24.3603 -11.6916 A 0.4500 0.4500 0 0 0 23.9103 -12.1416 L 13.7831 -12.1416 A 0.4500 0.4500 0 0 0 13.3331 -11.6916 L 13.3331 -11.5916 A 0.4500 0.4500 0 0 0 13.7831 -11.1416 Z" stroke="green" stroke-width="1" fill="none" /><path d="M 25.8103 -11.1416 L 35.9375 -11.1416 A 0.4500 0.4500 0 0 0 36.3875 -11.5916 L 36.3875 -11.6916 A 0.4500 0.4500 0 0 0 35.9375 -12.1416 L 25.8103 -12.1416 A 0.4500 0.4500 0 0 0 25.3603 -11.6916 L 25.3603 -11.5916 A 0.4500 0.4500 0 0 0 25.8103 -11.1416 Z" stroke="green" stroke-width="1" fill="none" /><circle cx="-35.0142" cy="12.7500" r="2.1250" stroke="green" stroke-width="1" fill="none" /><circle cx="-5.8208" cy="12.7500" r="2.1250" stroke="green" stroke-width="1" fill="none" /><circle cx="-35.0142" cy="4.2500" r="2.1250" stroke="green" stroke-width="1" fill="none" /><circle cx="-5.8208" cy="4.2500" r="2.1250" stroke="green" stroke-width="1" fill="none" /><circle cx="-20.4175" cy="40.1416" r="8.0000" stroke="green" stroke-width="1" fill="none" /><path d="M -2.5208 22.1416 L -6.9030 22.1416 A 0.4500 0.4500 0 0 0 -7.3530 22.5916 L -7.3530 22.6916 A 0.4500 0.4500 0 0 0 -6.9030 23.1416 L -2.5208 23.1416 A 0.4500 0.4500 0 0 0 -2.0708 22.6916 L -2.0708 22.5916 A 0.4500 0.4500 0 0 0 -2.5208 22.1416 Z" stroke="green" stroke-width="1" fill="none" /><path d="M -8.8030 22.1416 L -19.4675 22.1416 A 0.4500 0.4500 0 0 0 -19.9175 22.5916 L -19.9175 22.6916 A 0.4500 0.4500 0 0 0 -19.4675 23.1416 L -8.8030 23.1416 A 0.4500 0.4500 0 0 0 -8.3530 22.6916 L -8.3530 22.5916 A 0.4500 0.4500 0 0 0 -8.8030 22.1416 Z" stroke="green" stroke-width="1" fill="none" /><path d="M -21.3675 22.1416 L -32.0320 22.1416 A 0.4500 0.4500 0 0 0 -32.4820 22.5916 L -32.4820 22.6916 A 0.4500 0.4500 0 0 0 -32.0320 23.1416 L -21.3675 23.1416 A 0.4500 0.4500 0 0 0 -20.9175 22.6916 L -20.9175 22.5916 A 0.4500 0.4500 0 0 0 -21.3675 22.1416 Z" stroke="green" stroke-width="1" fill="none" /><path d="M -33.9320 22.1416 L -38.3142 22.1416 A 0.4500 0.4500 0 0 0 -38.7642 22.5916 L -38.7642 22.6916 A 0.4500 0.4500 0 0 0 -38.3142 23.1416 L -33.9320 23.1416 A 0.4500 0.4500 0 0 0 -33.4820 22.6916 L -33.4820 22.5916 A 0.4500 0.4500 0 0 0 -33.9320 22.1416 Z" stroke="green" stroke-width="1" fill="none" /><path d="M -2.5208 24.1416 L -13.1853 24.1416 A 0.4500 0.4500 0 0 0 -13.6353 24.5916 L -13.6353 24.6916 A 0.4500 0.4500 0 0 0 -13.1853 25.1416 L -2.5208 25.1416 A 0.4500 0.4500 0 0 0 -2.0708 24.6916 L -2.0708 24.5916 A 0.4500 0.4500 0 0 0 -2.5208 24.1416 Z" stroke="green" stroke-width="1" fill="none" /><path d="M -15.0853 24.1416 L -25.7498 24.1416 A 0.4500 0.4500 0 0 0 -26.1998 24.5916 L -26.1998 24.6916 A 0.4500 0.4500 0 0 0 -25.7498 25.1416 L -15.0853 25.1416 A 0.4500 0.4500 0 0 0 -14.6353 24.6916 L -14.6353 24.5916 A 0.4500 0.4500 0 0 0 -15.0853 24.1416 Z" stroke="green" stroke-width="1" fill="none" /><path d="M -27.6498 24.1416 L -38.3142 24.1416 A 0.4500 0.4500 0 0 0 -38.7642 24.5916 L -38.7642 24.6916 A 0.4500 0.4500 0 0 0 -38.3142 25.1416 L -27.6498 25.1416 A 0.4500 0.4500 0 0 0 -27.1998 24.6916 L -27.1998 24.5916 A 0.4500 0.4500 0 0 0 -27.6498 24.1416 Z" stroke="green" stroke-width="1" fill="none" /><path d="M -2.8662 26.1416 L -7.1333 26.1416 A 0.4500 0.4500 0 0 0 -7.5833 26.5916 L -7.5833 26.6916 A 0.4500 0.4500 0 0 0 -7.1333 27.1416 L -2.8662 27.1416 A 0.4500 0.4500 0 0 0 -2.4162 26.6916 L -2.4162 26.5916 A 0.4500 0.4500 0 0 0 -2.8662 26.1416 Z" stroke="green" stroke-width="1" fill="none" /><path d="M -9.0333 26.1416 L -19.4675 26.1416 A 0.4500 0.4500 0 0 0 -19.9175 26.5916 L -19.9175 26.6916 A 0.4500 0.4500 0 0 0 -19.4675 27.1416 L -9.0333 27.1416 A 0.4500 0.4500 0 0 0 -8.5833 26.6916 L -8.5833 26.5916 A 0.4500 0.4500 0 0 0 -9.0333 26.1416 Z" stroke="green" stroke-width="1" fill="none" /><path d="M -21.3675 26.1416 L -31.8017 26.1416 A 0.4500 0.4500 0 0 0 -32.2517 26.5916 L -32.2517 26.6916 A 0.4500 0.4500 0 0 0 -31.8017 27.1416 L -21.3675 27.1416 A 0.4500 0.4500 0 0 0 -20.9175 26.6916 L -20.9175 26.5916 A 0.4500 0.4500 0 0 0 -21.3675 26.1416 Z" stroke="green" stroke-width="1" fill="none" /><path d="M -33.7017 26.1416 L -37.9688 26.1416 A 0.4500 0.4500 0 0 0 -38.4188 26.5916 L -38.4188 26.6916 A 0.4500 0.4500 0 0 0 -37.9688 27.1416 L -33.7017 27.1416 A 0.4500 0.4500 0 0 0 -33.2517 26.6916 L -33.2517 26.5916 A 0.4500 0.4500 0 0 0 -33.7017 26.1416 Z" stroke="green" stroke-width="1" fill="none" /><path d="M -3.3268 28.1416 L -13.4539 28.1416 A 0.4500 0.4500 0 0 0 -13.9039 28.5916 L -13.9039 28.6916 A 0.4500 0.4500 0 0 0 -13.4539 29.1416 L -3.3268 29.1416 A 0.4500 0.4500 0 0 0 -2.8768 28.6916 L -2.8768 28.5916 A 0.4500 0.4500 0 0 0 -3.3268 28.1416 Z" stroke="green" stroke-width="1" fill="none" /><path d="M -15.3539 28.1416 L -25.4811 28.1416 A 0.4500 0.4500 0 0 0 -25.9311 28.5916 L -25.9311 28.6916 A 0.4500 0.4500 0 0 0 -25.4811 29.1416 L -15.3539 29.1416 A 0.4500 0.4500 0 0 0 -14.9039 28.6916 L -14.9039 28.5916 A 0.4500 0.4500 0 0 0 -15.3539 28.1416 Z" stroke="green" stroke-width="1" fill="none" /><path d="M -27.3811 28.1416 L -37.5083 28.1416 A 0.4500 0.4500 0 0 0 -37.9583 28.5916 L -37.9583 28.6916 A 0.4500 0.4500 0 0 0 -37.5083 29.1416 L -27.3811 29.1416 A 0.4500 0.4500 0 0 0 -26.9311 28.6916 L -26.9311 28.5916 A 0.4500 0.4500 0 0 0 -27.3811 28.1416 Z" stroke="green" stroke-width="1" fill="none" /><circle cx="-20.4175" cy="-23.1416" r="8.0000" stroke="green" stroke-width="1" fill="none" /><path d="M -38.3142 -5.1416 L -33.9320 -5.1416 A 0.4500 0.4500 0 0 0 -33.4820 -5.5916 L -33.4820 -5.6916 A 0.4500 0.4500 0 0 0 -33.9320 -6.1416 L -38.3142 -6.1416 A 0.4500 0.4500 0 0 0 -38.7642 -5.6916 L -38.7642 -5.5916 A 0.4500 0.4500 0 0 0 -38.3142 -5.1416 Z" stroke="green" stroke-width="1" fill="none" /><path d="M -32.0320 -5.1416 L -21.3675 -5.1416 A 0.4500 0.4500 0 0 0 -20.9175 -5.5916 L -20.9175 -5.6916 A 0.4500 0.4500 0 0 0 -21.3675 -6.1416 L -32.0320 -6.1416 A 0.4500 0.4500 0 0 0 -32.4820 -5.6916 L -32.4820 -5.5916 A 0.4500 0.4500 0 0 0 -32.0320 -5.1416 Z" stroke="green" stroke-width="1" fill="none" /><path d="M -19.4675 -5.1416 L -8.8030 -5.1416 A 0.4500 0.4500 0 0 0 -8.3530 -5.5916 L -8.3530 -5.6916 A 0.4500 0.4500 0 0 0 -8.8030 -6.1416 L -19.4675 -6.1416 A 0.4500 0.4500 0 0 0 -19.9175 -5.6916 L -19.9175 -5.5916 A 0.4500 0.4500 0 0 0 -19.4675 -5.1416 Z" stroke="green" stroke-width="1" fill="none" /><path d="M -6.9030 -5.1416 L -2.5208 -5.1416 A 0.4500 0.4500 0 0 0 -2.0708 -5.5916 L -2.0708 -5.6916 A 0.4500 0.4500 0 0 0 -2.5208 -6.1416 L -6.9030 -6.1416 A 0.4500 0.4500 0 0 0 -7.3530 -5.6916 L -7.3530 -5.5916 A 0.4500 0.4500 0 0 0 -6.9030 -5.1416 Z" stroke="green" stroke-width="1" fill="none" /><path d="M -38.3142 -7.1416 L -27.6498 -7.1416 A 0.4500 0.4500 0 0 0 -27.1998 -7.5916 L -27.1998 -7.6916 A 0.4500 0.4500 0 0 0 -27.6498 -8.1416 L -38.3142 -8.1416 A 0.4500 0.4500 0 0 0 -38.7642 -7.6916 L -38.7642 -7.5916 A 0.4500 0.4500 0 0 0 -38.3142 -7.1416 Z" stroke="green" stroke-width="1" fill="none" /><path d="M -25.7498 -7.1416 L -15.0853 -7.1416 A 0.4500 0.4500 0 0 0 -14.6353 -7.5916 L -14.6353 -7.6916 A 0.4500 0.4500 0 0 0 -15.0853 -8.1416 L -25.7498 -8.1416 A 0.4500 0.4500 0 0 0 -26.1998 -7.6916 L -26.1998 -7.5916 A 0.4500 0.4500 0 0 0 -25.7498 -7.1416 Z" stroke="green" stroke-width="1" fill="none" /><path d="M -13.1853 -7.1416 L -2.5208 -7.1416 A 0.4500 0.4500 0 0 0 -2.0708 -7.5916 L -2.0708 -7.6916 A 0.4500 0.4500 0 0 0 -2.5208 -8.1416 L -13.1853 -8.1416 A 0.4500 0.4500 0 0 0 -13.6353 -7.6916 L -13.6353 -7.5916 A 0.4500 0.4500 0 0 0 -13.1853 -7.1416 Z" stroke="green" stroke-width="1" fill="none" /><path d="M -37.9688 -9.1416 L -33.7017 -9.1416 A 0.4500 0.4500 0 0 0 -33.2517 -9.5916 L -33.2517 -9.6916 A 0.4500 0.4500 0 0 0 -33.7017 -10.1416 L -37.9688 -10.1416 A 0.4500 0.4500 0 0 0 -38.4188 -9.6916 L -38.4188 -9.5916 A 0.4500 0.4500 0 0 0 -37.9688 -9.1416 Z" stroke="green" stroke-width="1" fill="none" /><path d="M -31.8017 -9.1416 L -21.3675 -9.1416 A 0.4500 0.4500 0 0 0 -20.9175 -9.5916 L -20.9175 -9.6916 A 0.4500 0.4500 0 0 0 -21.3675 -10.1416 L -31.8017 -10.1416 A 0.4500 0.4500 0 0 0 -32.2517 -9.6916 L -32.2517 -9.5916 A 0.4500 0.4500 0 0 0 -31.8017 -9.1416 Z" stroke="green" stroke-width="1" fill="none" /><path d="M -19.4675 -9.1416 L -9.0333 -9.1416 A 0.4500 0.4500 0 0 0 -8.5833 -9.5916 L -8.5833 -9.6916 A 0.4500 0.4500 0 0 0 -9.0333 -10.1416 L -19.4675 -10.1416 A 0.4500 0.4500 0 0 0 -19.9175 -9.6916 L -19.9175 -9.5916 A 0.4500 0.4500 0 0 0 -19.4675 -9.1416 Z" stroke="green" stroke-width="1" fill="none" /><path d="M -7.1333 -9.1416 L -2.8662 -9.1416 A 0.4500 0.4500 0 0 0 -2.4162 -9.5916 L -2.4162 -9.6916 A 0.4500 0.4500 0 0 0 -2.8662 -10.1416 L -7.1333 -10.1416 A 0.4500 0.4500 0 0 0 -7.5833 -9.6916 L -7.5833 -9.5916 A 0.4500 0.4500 0 0 0 -7.1333 -9.1416 Z" stroke="green" stroke-width="1" fill="none" /><path d="M -37.5083 -11.1416 L -27.3811 -11.1416 A 0.4500 0.4500 0 0 0 -26.9311 -11.5916 L -26.9311 -11.6916 A 0.4500 0.4500 0 0 0 -27.3811 -12.1416 L -37.5083 -12.1416 A 0.4500 0.4500 0 0 0 -37.9583 -11.6916 L -37.9583 -11.5916 A 0.4500 0.4500 0 0 0 -37.5083 -11.1416 Z" stroke="green" stroke-width="1" fill="none" /><path d="M -25.4811 -11.1416 L -15.3539 -11.1416 A 0.4500 0.4500 0 0 0 -14.9039 -11.5916 L -14.9039 -11.6916 A 0.4500 0.4500 0 0 0 -15.3539 -12.1416 L -25.4811 -12.1416 A 0.4500 0.4500 0 0 0 -25.9311 -11.6916 L -25.9311 -11.5916 A 0.4500 0.4500 0 0 0 -25.4811 -11.1416 Z" stroke="green" stroke-width="1" fill="none" /><path d="M -13.4539 -11.1416 L -3.3268 -11.1416 A 0.4500 0.4500 0 0 0 -2.8768 -11.5916 L -2.8768 -11.6916 A 0.4500 0.4500 0 0 0 -3.3268 -12.1416 L -13.4539 -12.1416 A 0.4500 0.4500 0 0 0 -13.9039 -11.6916 L -13.9039 -11.5916 A 0.4500 0.4500 0 0 0 -13.4539 -11.1416 Z" stroke="green" stroke-width="1" fill="none" /><circle cx="-74.2785" cy="12.7500" r="2.1250" stroke="green" stroke-width="1" fill="none" /><circle cx="-45.0850" cy="12.7500" r="2.1250" stroke="green" stroke-width="1" fill="none" /><circle cx="-74.2785" cy="4.2500" r="2.1250" stroke="green" stroke-width="1" fill="none" /><circle cx="-45.0850" cy="4.2500" r="2.1250" stroke="green" stroke-width="1" fill="none" /><circle cx="-59.6817" cy="40.1416" r="8.0000" stroke="green" stroke-width="1" fill="none" /><path d="M -41.7850 22.1416 L -46.1673 22.1416 A 0.4500 0.4500 0 0 0 -46.6173 22.5916 L -46.6173 22.6916 A 0.4500 0.4500 0 0 0 -46.1673 23.1416 L -41.7850 23.1416 A 0.4500 0.4500 0 0 0 -41.3350 22.6916 L -41.3350 22.5916 A 0.4500 0.4500 0 0 0 -41.7850 22.1416 Z" stroke="green" stroke-width="1" fill="none" /><path d="M -48.0673 22.1416 L -58.7317 22.1416 A 0.4500 0.4500 0 0 0 -59.1817 22.5916 L -59.1817 22.6916 A 0.4500 0.4500 0 0 0 -58.7317 23.1416 L -48.0673 23.1416 A 0.4500 0.4500 0 0 0 -47.6173 22.6916 L -47.6173 22.5916 A 0.4500 0.4500 0 0 0 -48.0673 22.1416 Z" stroke="green" stroke-width="1" fill="none" /><path d="M -60.6317 22.1416 L -71.2962 22.1416 A 0.4500 0.4500 0 0 0 -71.7462 22.5916 L -71.7462 22.6916 A 0.4500 0.4500 0 0 0 -71.2962 23.1416 L -60.6317 23.1416 A 0.4500 0.4500 0 0 0 -60.1817 22.6916 L -60.1817 22.5916 A 0.4500 0.4500 0 0 0 -60.6317 22.1416 Z" stroke="green" stroke-width="1" fill="none" /><path d="M -73.1962 22.1416 L -77.5785 22.1416 A 0.4500 0.4500 0 0 0 -78.0285 22.5916 L -78.0285 22.6916 A 0.4500 0.4500 0 0 0 -77.5785 23.1416 L -73.1962 23.1416 A 0.4500 0.4500 0 0 0 -72.7462 22.6916 L -72.7462 22.5916 A 0.4500 0.4500 0 0 0 -73.1962 22.1416 Z" stroke="green" stroke-width="1" fill="none" /><path d="M -41.7850 24.1416 L -52.4495 24.1416 A 0.4500 0.4500 0 0 0 -52.8995 24.5916 L -52.8995 24.6916 A 0.4500 0.4500 0 0 0 -52.4495 25.1416 L -41.7850 25.1416 A 0.4500 0.4500 0 0 0 -41.3350 24.6916 L -41.3350 24.5916 A 0.4500 0.4500 0 0 0 -41.7850 24.1416 Z" stroke="green" stroke-width="1" fill="none" /><path d="M -54.3495 24.1416 L -65.0140 24.1416 A 0.4500 0.4500 0 0 0 -65.4640 24.5916 L -65.4640 24.6916 A 0.4500 0.4500 0 0 0 -65.0140 25.1416 L -54.3495 25.1416 A 0.4500 0.4500 0 0 0 -53.8995 24.6916 L -53.8995 24.5916 A 0.4500 0.4500 0 0 0 -54.3495 24.1416 Z" stroke="green" stroke-width="1" fill="none" /><path d="M -66.9140 24.1416 L -77.5785 24.1416 A 0.4500 0.4500 0 0 0 -78.0285 24.5916 L -78.0285 24.6916 A 0.4500 0.4500 0 0 0 -77.5785 25.1416 L -66.9140 25.1416 A 0.4500 0.4500 0 0 0 -66.4640 24.6916 L -66.4640 24.5916 A 0.4500 0.4500 0 0 0 -66.9140 24.1416 Z" stroke="green" stroke-width="1" fill="none" /><path d="M -42.1304 26.1416 L -46.3975 26.1416 A 0.4500 0.4500 0 0 0 -46.8475 26.5916 L -46.8475 26.6916 A 0.4500 0.4500 0 0 0 -46.3975 27.1416 L -42.1304 27.1416 A 0.4500 0.4500 0 0 0 -41.6804 26.6916 L -41.6804 26.5916 A 0.4500 0.4500 0 0 0 -42.1304 26.1416 Z" stroke="green" stroke-width="1" fill="none" /><path d="M -48.2975 26.1416 L -58.7317 26.1416 A 0.4500 0.4500 0 0 0 -59.1817 26.5916 L -59.1817 26.6916 A 0.4500 0.4500 0 0 0 -58.7317 27.1416 L -48.2975 27.1416 A 0.4500 0.4500 0 0 0 -47.8475 26.6916 L -47.8475 26.5916 A 0.4500 0.4500 0 0 0 -48.2975 26.1416 Z" stroke="green" stroke-width="1" fill="none" /><path d="M -60.6317 26.1416 L -71.0659 26.1416 A 0.4500 0.4500 0 0 0 -71.5159 26.5916 L -71.5159 26.6916 A 0.4500 0.4500 0 0 0 -71.0659 27.1416 L -60.6317 27.1416 A 0.4500 0.4500 0 0 0 -60.1817 26.6916 L -60.1817 26.5916 A 0.4500 0.4500 0 0 0 -60.6317 26.1416 Z" stroke="green" stroke-width="1" fill="none" /><path d="M -72.9659 26.1416 L -77.2330 26.1416 A 0.4500 0.4500 0 0 0 -77.6830 26.5916 L -77.6830 26.6916 A 0.4500 0.4500 0 0 0 -77.2330 27.1416 L -72.9659 27.1416 A 0.4500 0.4500 0 0 0 -72.5159 26.6916 L -72.5159 26.5916 A 0.4500 0.4500 0 0 0 -72.9659 26.1416 Z" stroke="green" stroke-width="1" fill="none" /><path d="M -42.5910 28.1416 L -52.7182 28.1416 A 0.4500 0.4500 0 0 0 -53.1682 28.5916 L -53.1682 28.6916 A 0.4500 0.4500 0 0 0 -52.7182 29.1416 L -42.5910 29.1416 A 0.4500 0.4500 0 0 0 -42.1410 28.6916 L -42.1410 28.5916 A 0.4500 0.4500 0 0 0 -42.5910 28.1416 Z" stroke="green" stroke-width="1" fill="none" /><path d="M -54.6182 28.1416 L -64.7453 28.1416 A 0.4500 0.4500 0 0 0 -65.1953 28.5916 L -65.1953 28.6916 A 0.4500 0.4500 0 0 0 -64.7453 29.1416 L -54.6182 29.1416 A 0.4500 0.4500 0 0 0 -54.1682 28.6916 L -54.1682 28.5916 A 0.4500 0.4500 0 0 0 -54.6182 28.1416 Z" stroke="green" stroke-width="1" fill="none" /><path d="M -66.6453 28.1416 L -76.7725 28.1416 A 0.4500 0.4500 0 0 0 -77.2225 28.5916 L -77.2225 28.6916 A 0.4500 0.4500 0 0 0 -76.7725 29.1416 L -66.6453 29.1416 A 0.4500 0.4500 0 0 0 -66.1953 28.6916 L -66.1953 28.5916 A 0.4500 0.4500 0 0 0 -66.6453 28.1416 Z" stroke="green" stroke-width="1" fill="none" /><circle cx="-59.6817" cy="-23.1416" r="8.0000" stroke="green" stroke-width="1" fill="none" /><path d="M -77.5785 -5.1416 L -73.1962 -5.1416 A 0.4500 0.4500 0 0 0 -72.7462 -5.5916 L -72.7462 -5.6916 A 0.4500 0.4500 0 0 0 -73.1962 -6.1416 L -77.5785 -6.1416 A 0.4500 0.4500 0 0 0 -78.0285 -5.6916 L -78.0285 -5.5916 A 0.4500 0.4500 0 0 0 -77.5785 -5.1416 Z" stroke="green" stroke-width="1" fill="none" /><path d="M -71.2962 -5.1416 L -60.6317 -5.1416 A 0.4500 0.4500 0 0 0 -60.1817 -5.5916 L -60.1817 -5.6916 A 0.4500 0.4500 0 0 0 -60.6317 -6.1416 L -71.2962 -6.1416 A 0.4500 0.4500 0 0 0 -71.7462 -5.6916 L -71.7462 -5.5916 A 0.4500 0.4500 0 0 0 -71.2962 -5.1416 Z" stroke="green" stroke-width="1" fill="none" /><path d="M -58.7317 -5.1416 L -48.0673 -5.1416 A 0.4500 0.4500 0 0 0 -47.6173 -5.5916 L -47.6173 -5.6916 A 0.4500 0.4500 0 0 0 -48.0673 -6.1416 L -58.7317 -6.1416 A 0.4500 0.4500 0 0 0 -59.1817 -5.6916 L -59.1817 -5.5916 A 0.4500 0.4500 0 0 0 -58.7317 -5.1416 Z" stroke="green" stroke-width="1" fill="none" /><path d="M -46.1673 -5.1416 L -41.7850 -5.1416 A 0.4500 0.4500 0 0 0 -41.3350 -5.5916 L -41.3350 -5.6916 A 0.4500 0.4500 0 0 0 -41.7850 -6.1416 L -46.1673 -6.1416 A 0.4500 0.4500 0 0 0 -46.6173 -5.6916 L -46.6173 -5.5916 A 0.4500 0.4500 0 0 0 -46.1673 -5.1416 Z" stroke="green" stroke-width="1" fill="none" /><path d="M -77.5785 -7.1416 L -66.9140 -7.1416 A 0.4500 0.4500 0 0 0 -66.4640 -7.5916 L -66.4640 -7.6916 A 0.4500 0.4500 0 0 0 -66.9140 -8.1416 L -77.5785 -8.1416 A 0.4500 0.4500 0 0 0 -78.0285 -7.6916 L -78.0285 -7.5916 A 0.4500 0.4500 0 0 0 -77.5785 -7.1416 Z" stroke="green" stroke-width="1" fill="none" /><path d="M -65.0140 -7.1416 L -54.3495 -7.1416 A 0.4500 0.4500 0 0 0 -53.8995 -7.5916 L -53.8995 -7.6916 A 0.4500 0.4500 0 0 0 -54.3495 -8.1416 L -65.0140 -8.1416 A 0.4500 0.4500 0 0 0 -65.4640 -7.6916 L -65.4640 -7.5916 A 0.4500 0.4500 0 0 0 -65.0140 -7.1416 Z" stroke="green" stroke-width="1" fill="none" /><path d="M -52.4495 -7.1416 L -41.7850 -7.1416 A 0.4500 0.4500 0 0 0 -41.3350 -7.5916 L -41.3350 -7.6916 A 0.4500 0.4500 0 0 0 -41.7850 -8.1416 L -52.4495 -8.1416 A 0.4500 0.4500 0 0 0 -52.8995 -7.6916 L -52.8995 -7.5916 A 0.4500 0.4500 0 0 0 -52.4495 -7.1416 Z" stroke="green" stroke-width="1" fill="none" /><path d="M -77.2330 -9.1416 L -72.9659 -9.1416 A 0.4500 0.4500 0 0 0 -72.5159 -9.5916 L -72.5159 -9.6916 A 0.4500 0.4500 0 0 0 -72.9659 -10.1416 L -77.2330 -10.1416 A 0.4500 0.4500 0 0 0 -77.6830 -9.6916 L -77.6830 -9.5916 A 0.4500 0.4500 0 0 0 -77.2330 -9.1416 Z" stroke="green" stroke-width="1" fill="none" /><path d="M -71.0659 -9.1416 L -60.6317 -9.1416 A 0.4500 0.4500 0 0 0 -60.1817 -9.5916 L -60.1817 -9.6916 A 0.4500 0.4500 0 0 0 -60.6317 -10.1416 L -71.0659 -10.1416 A 0.4500 0.4500 0 0 0 -71.5159 -9.6916 L -71.5159 -9.5916 A 0.4500 0.4500 0 0 0 -71.0659 -9.1416 Z" stroke="green" stroke-width="1" fill="none" /><path d="M -58.7317 -9.1416 L -48.2975 -9.1416 A 0.4500 0.4500 0 0 0 -47.8475 -9.5916 L -47.8475 -9.6916 A 0.4500 0.4500 0 0 0 -48.2975 -10.1416 L -58.7317 -10.1416 A 0.4500 0.4500 0 0 0 -59.1817 -9.6916 L -59.1817 -9.5916 A 0.4500 0.4500 0 0 0 -58.7317 -9.1416 Z" stroke="green" stroke-width="1" fill="none" /><path d="M -46.3975 -9.1416 L -42.1304 -9.1416 A 0.4500 0.4500 0 0 0 -41.6804 -9.5916 L -41.6804 -9.6916 A 0.4500 0.4500 0 0 0 -42.1304 -10.1416 L -46.3975 -10.1416 A 0.4500 0.4500 0 0 0 -46.8475 -9.6916 L -46.8475 -9.5916 A 0.4500 0.4500 0 0 0 -46.3975 -9.1416 Z" stroke="green" stroke-width="1" fill="none" /><path d="M -76.7725 -11.1416 L -66.6453 -11.1416 A 0.4500 0.4500 0 0 0 -66.1953 -11.5916 L -66.1953 -11.6916 A 0.4500 0.4500 0 0 0 -66.6453 -12.1416 L -76.7725 -12.1416 A 0.4500 0.4500 0 0 0 -77.2225 -11.6916 L -77.2225 -11.5916 A 0.4500 0.4500 0 0 0 -76.7725 -11.1416 Z" stroke="green" stroke-width="1" fill="none" /><path d="M -64.7453 -11.1416 L -54.6182 -11.1416 A 0.4500 0.4500 0 0 0 -54.1682 -11.5916 L -54.1682 -11.6916 A 0.4500 0.4500 0 0 0 -54.6182 -12.1416 L -64.7453 -12.1416 A 0.4500 0.4500 0 0 0 -65.1953 -11.6916 L -65.1953 -11.5916 A 0.4500 0.4500 0 0 0 -64.7453 -11.1416 Z" stroke="green" stroke-width="1" fill="none" /><path d="M -52.7182 -11.1416 L -42.5910 -11.1416 A 0.4500 0.4500 0 0 0 -42.1410 -11.5916 L -42.1410 -11.6916 A 0.4500 0.4500 0 0 0 -42.5910 -12.1416 L -52.7182 -12.1416 A 0.4500 0.4500 0 0 0 -53.1682 -11.6916 L -53.1682 -11.5916 A 0.4500 0.4500 0 0 0 -52.7182 -11.1416 Z" stroke="green" stroke-width="1" fill="none" /><circle cx="-113.5427" cy="12.7500" r="2.1250" stroke="green" stroke-width="1" fill="none" /><circle cx="-84.3493" cy="12.7500" r="2.1250" stroke="green" stroke-width="1" fill="none" /><circle cx="-113.5427" cy="4.2500" r="2.1250" stroke="green" stroke-width="1" fill="none" /><circle cx="-84.3493" cy="4.2500" r="2.1250" stroke="green" stroke-width="1" fill="none" /><circle cx="-98.9460" cy="40.1416" r="8.0000" stroke="green" stroke-width="1" fill="none" /><path d="M -81.0493 22.1416 L -85.4315 22.1416 A 0.4500 0.4500 0 0 0 -85.8815 22.5916 L -85.8815 22.6916 A 0.4500 0.4500 0 0 0 -85.4315 23.1416 L -81.0493 23.1416 A 0.4500 0.4500 0 0 0 -80.5993 22.6916 L -80.5993 22.5916 A 0.4500 0.4500 0 0 0 -81.0493 22.1416 Z" stroke="green" stroke-width="1" fill="none" /><path d="M -87.3315 22.1416 L -97.9960 22.1416 A 0.4500 0.4500 0 0 0 -98.4460 22.5916 L -98.4460 22.6916 A 0.4500 0.4500 0 0 0 -97.9960 23.1416 L -87.3315 23.1416 A 0.4500 0.4500 0 0 0 -86.8815 22.6916 L -86.8815 22.5916 A 0.4500 0.4500 0 0 0 -87.3315 22.1416 Z" stroke="green" stroke-width="1" fill="none" /><path d="M -99.8960 22.1416 L -110.5605 22.1416 A 0.4500 0.4500 0 0 0 -111.0105 22.5916 L -111.0105 22.6916 A 0.4500 0.4500 0 0 0 -110.5605 23.1416 L -99.8960 23.1416 A 0.4500 0.4500 0 0 0 -99.4460 22.6916 L -99.4460 22.5916 A 0.4500 0.4500 0 0 0 -99.8960 22.1416 Z" stroke="green" stroke-width="1" fill="none" /><path d="M -112.4605 22.1416 L -116.8427 22.1416 A 0.4500 0.4500 0 0 0 -117.2927 22.5916 L -117.2927 22.6916 A 0.4500 0.4500 0 0 0 -116.8427 23.1416 L -112.4605 23.1416 A 0.4500 0.4500 0 0 0 -112.0105 22.6916 L -112.0105 22.5916 A 0.4500 0.4500 0 0 0 -112.4605 22.1416 Z" stroke="green" stroke-width="1" fill="none" /><path d="M -81.0493 24.1416 L -91.7137 24.1416 A 0.4500 0.4500 0 0 0 -92.1637 24.5916 L -92.1637 24.6916 A 0.4500 0.4500 0 0 0 -91.7137 25.1416 L -81.0493 25.1416 A 0.4500 0.4500 0 0 0 -80.5993 24.6916 L -80.5993 24.5916 A 0.4500 0.4500 0 0 0 -81.0493 24.1416 Z" stroke="green" stroke-width="1" fill="none" /><path d="M -93.6137 24.1416 L -104.2782 24.1416 A 0.4500 0.4500 0 0 0 -104.7282 24.5916 L -104.7282 24.6916 A 0.4500 0.4500 0 0 0 -104.2782 25.1416 L -93.6137 25.1416 A 0.4500 0.4500 0 0 0 -93.1637 24.6916 L -93.1637 24.5916 A 0.4500 0.4500 0 0 0 -93.6137 24.1416 Z" stroke="green" stroke-width="1" fill="none" /><path d="M -106.1782 24.1416 L -116.8427 24.1416 A 0.4500 0.4500 0 0 0 -117.2927 24.5916 L -117.2927 24.6916 A 0.4500 0.4500 0 0 0 -116.8427 25.1416 L -106.1782 25.1416 A 0.4500 0.4500 0 0 0 -105.7282 24.6916 L -105.7282 24.5916 A 0.4500 0.4500 0 0 0 -106.1782 24.1416 Z" stroke="green" stroke-width="1" fill="none" /><path d="M -81.3947 26.1416 L -85.6618 26.1416 A 0.4500 0.4500 0 0 0 -86.1118 26.5916 L -86.1118 26.6916 A 0.4500 0.4500 0 0 0 -85.6618 27.1416 L -81.3947 27.1416 A 0.4500 0.4500 0 0 0 -80.9447 26.6916 L -80.9447 26.5916 A 0.4500 0.4500 0 0 0 -81.3947 26.1416 Z" stroke="green" stroke-width="1" fill="none" /><path d="M -87.5618 26.1416 L -97.9960 26.1416 A 0.4500 0.4500 0 0 0 -98.4460 26.5916 L -98.4460 26.6916 A 0.4500 0.4500 0 0 0 -97.9960 27.1416 L -87.5618 27.1416 A 0.4500 0.4500 0 0 0 -87.1118 26.6916 L -87.1118 26.5916 A 0.4500 0.4500 0 0 0 -87.5618 26.1416 Z" stroke="green" stroke-width="1" fill="none" /><path d="M -99.8960 26.1416 L -110.3302 26.1416 A 0.4500 0.4500 0 0 0 -110.7802 26.5916 L -110.7802 26.6916 A 0.4500 0.4500 0 0 0 -110.3302 27.1416 L -99.8960 27.1416 A 0.4500 0.4500 0 0 0 -99.4460 26.6916 L -99.4460 26.5916 A 0.4500 0.4500 0 0 0 -99.8960 26.1416 Z" stroke="green" stroke-width="1" fill="none" /><path d="M -112.2302 26.1416 L -116.4973 26.1416 A 0.4500 0.4500 0 0 0 -116.9473 26.5916 L -116.9473 26.6916 A 0.4500 0.4500 0 0 0 -116.4973 27.1416 L -112.2302 27.1416 A 0.4500 0.4500 0 0 0 -111.7802 26.6916 L -111.7802 26.5916 A 0.4500 0.4500 0 0 0 -112.2302 26.1416 Z" stroke="green" stroke-width="1" fill="none" /><path d="M -81.8552 28.1416 L -91.9824 28.1416 A 0.4500 0.4500 0 0 0 -92.4324 28.5916 L -92.4324 28.6916 A 0.4500 0.4500 0 0 0 -91.9824 29.1416 L -81.8552 29.1416 A 0.4500 0.4500 0 0 0 -81.4052 28.6916 L -81.4052 28.5916 A 0.4500 0.4500 0 0 0 -81.8552 28.1416 Z" stroke="green" stroke-width="1" fill="none" /><path d="M -93.8824 28.1416 L -104.0096 28.1416 A 0.4500 0.4500 0 0 0 -104.4596 28.5916 L -104.4596 28.6916 A 0.4500 0.4500 0 0 0 -104.0096 29.1416 L -93.8824 29.1416 A 0.4500 0.4500 0 0 0 -93.4324 28.6916 L -93.4324 28.5916 A 0.4500 0.4500 0 0 0 -93.8824 28.1416 Z" stroke="green" stroke-width="1" fill="none" /><path d="M -105.9096 28.1416 L -116.0367 28.1416 A 0.4500 0.4500 0 0 0 -116.4867 28.5916 L -116.4867 28.6916 A 0.4500 0.4500 0 0 0 -116.0367 29.1416 L -105.9096 29.1416 A 0.4500 0.4500 0 0 0 -105.4596 28.6916 L -105.4596 28.5916 A 0.4500 0.4500 0 0 0 -105.9096 28.1416 Z" stroke="green" stroke-width="1" fill="none" /><circle cx="-98.9460" cy="-23.1416" r="8.0000" stroke="green" stroke-width="1" fill="none" /><path d="M -116.8427 -5.1416 L -112.4605 -5.1416 A 0.4500 0.4500 0 0 0 -112.0105 -5.5916 L -112.0105 -5.6916 A 0.4500 0.4500 0 0 0 -112.4605 -6.1416 L -116.8427 -6.1416 A 0.4500 0.4500 0 0 0 -117.2927 -5.6916 L -117.2927 -5.5916 A 0.4500 0.4500 0 0 0 -116.8427 -5.1416 Z" stroke="green" stroke-width="1" fill="none" /><path d="M -110.5605 -5.1416 L -99.8960 -5.1416 A 0.4500 0.4500 0 0 0 -99.4460 -5.5916 L -99.4460 -5.6916 A 0.4500 0.4500 0 0 0 -99.8960 -6.1416 L -110.5605 -6.1416 A 0.4500 0.4500 0 0 0 -111.0105 -5.6916 L -111.0105 -5.5916 A 0.4500 0.4500 0 0 0 -110.5605 -5.1416 Z" stroke="green" stroke-width="1" fill="none" /><path d="M -97.9960 -5.1416 L -87.3315 -5.1416 A 0.4500 0.4500 0 0 0 -86.8815 -5.5916 L -86.8815 -5.6916 A 0.4500 0.4500 0 0 0 -87.3315 -6.1416 L -97.9960 -6.1416 A 0.4500 0.4500 0 0 0 -98.4460 -5.6916 L -98.4460 -5.5916 A 0.4500 0.4500 0 0 0 -97.9960 -5.1416 Z" stroke="green" stroke-width="1" fill="none" /><path d="M -85.4315 -5.1416 L -81.0493 -5.1416 A 0.4500 0.4500 0 0 0 -80.5993 -5.5916 L -80.5993 -5.6916 A 0.4500 0.4500 0 0 0 -81.0493 -6.1416 L -85.4315 -6.1416 A 0.4500 0.4500 0 0 0 -85.8815 -5.6916 L -85.8815 -5.5916 A 0.4500 0.4500 0 0 0 -85.4315 -5.1416 Z" stroke="green" stroke-width="1" fill="none" /><path d="M -116.8427 -7.1416 L -106.1782 -7.1416 A 0.4500 0.4500 0 0 0 -105.7282 -7.5916 L -105.7282 -7.6916 A 0.4500 0.4500 0 0 0 -106.1782 -8.1416 L -116.8427 -8.1416 A 0.4500 0.4500 0 0 0 -117.2927 -7.6916 L -117.2927 -7.5916 A 0.4500 0.4500 0 0 0 -116.8427 -7.1416 Z" stroke="green" stroke-width="1" fill="none" /><path d="M -104.2782 -7.1416 L -93.6137 -7.1416 A 0.4500 0.4500 0 0 0 -93.1637 -7.5916 L -93.1637 -7.6916 A 0.4500 0.4500 0 0 0 -93.6137 -8.1416 L -104.2782 -8.1416 A 0.4500 0.4500 0 0 0 -104.7282 -7.6916 L -104.7282 -7.5916 A 0.4500 0.4500 0 0 0 -104.2782 -7.1416 Z" stroke="green" stroke-width="1" fill="none" /><path d="M -91.7137 -7.1416 L -81.0493 -7.1416 A 0.4500 0.4500 0 0 0 -80.5993 -7.5916 L -80.5993 -7.6916 A 0.4500 0.4500 0 0 0 -81.0493 -8.1416 L -91.7137 -8.1416 A 0.4500 0.4500 0 0 0 -92.1637 -7.6916 L -92.1637 -7.5916 A 0.4500 0.4500 0 0 0 -91.7137 -7.1416 Z" stroke="green" stroke-width="1" fill="none" /><path d="M -116.4973 -9.1416 L -112.2302 -9.1416 A 0.4500 0.4500 0 0 0 -111.7802 -9.5916 L -111.7802 -9.6916 A 0.4500 0.4500 0 0 0 -112.2302 -10.1416 L -116.4973 -10.1416 A 0.4500 0.4500 0 0 0 -116.9473 -9.6916 L -116.9473 -9.5916 A 0.4500 0.4500 0 0 0 -116.4973 -9.1416 Z" stroke="green" stroke-width="1" fill="none" /><path d="M -110.3302 -9.1416 L -99.8960 -9.1416 A 0.4500 0.4500 0 0 0 -99.4460 -9.5916 L -99.4460 -9.6916 A 0.4500 0.4500 0 0 0 -99.8960 -10.1416 L -110.3302 -10.1416 A 0.4500 0.4500 0 0 0 -110.7802 -9.6916 L -110.7802 -9.5916 A 0.4500 0.4500 0 0 0 -110.3302 -9.1416 Z" stroke="green" stroke-width="1" fill="none" /><path d="M -97.9960 -9.1416 L -87.5618 -9.1416 A 0.4500 0.4500 0 0 0 -87.1118 -9.5916 L -87.1118 -9.6916 A 0.4500 0.4500 0 0 0 -87.5618 -10.1416 L -97.9960 -10.1416 A 0.4500 0.4500 0 0 0 -98.4460 -9.6916 L -98.4460 -9.5916 A 0.4500 0.4500 0 0 0 -97.9960 -9.1416 Z" stroke="green" stroke-width="1" fill="none" /><path d="M -85.6618 -9.1416 L -81.3947 -9.1416 A 0.4500 0.4500 0 0 0 -80.9447 -9.5916 L -80.9447 -9.6916 A 0.4500 0.4500 0 0 0 -81.3947 -10.1416 L -85.6618 -10.1416 A 0.4500 0.4500 0 0 0 -86.1118 -9.6916 L -86.1118 -9.5916 A 0.4500 0.4500 0 0 0 -85.6618 -9.1416 Z" stroke="green" stroke-width="1" fill="none" /><path d="M -116.0367 -11.1416 L -105.9096 -11.1416 A 0.4500 0.4500 0 0 0 -105.4596 -11.5916 L -105.4596 -11.6916 A 0.4500 0.4500 0 0 0 -105.9096 -12.1416 L -116.0367 -12.1416 A 0.4500 0.4500 0 0 0 -116.4867 -11.6916 L -116.4867 -11.5916 A 0.4500 0.4500 0 0 0 -116.0367 -11.1416 Z" stroke="green" stroke-width="1" fill="none" /><path d="M -104.0096 -11.1416 L -93.8824 -11.1416 A 0.4500 0.4500 0 0 0 -93.4324 -11.5916 L -93.4324 -11.6916 A 0.4500 0.4500 0 0 0 -93.8824 -12.1416 L -104.0096 -12.1416 A 0.4500 0.4500 0 0 0 -104.4596 -11.6916 L -104.4596 -11.5916 A 0.4500 0.4500 0 0 0 -104.0096 -11.1416 Z" stroke="green" stroke-width="1" fill="none" /><path d="M -91.9824 -11.1416 L -81.8552 -11.1416 A 0.4500 0.4500 0 0 0 -81.4052 -11.5916 L -81.4052 -11.6916 A 0.4500 0.4500 0 0 0 -81.8552 -12.1416 L -91.9824 -12.1416 A 0.4500 0.4500 0 0 0 -92.4324 -11.6916 L -92.4324 -11.5916 A 0.4500 0.4500 0 0 0 -91.9824 -11.1416 Z" stroke="green" stroke-width="1" fill="none" /><circle cx="-152.8069" cy="12.7500" r="2.1250" stroke="green" stroke-width="1" fill="none" /><circle cx="-123.6135" cy="12.7500" r="2.1250" stroke="green" stroke-width="1" fill="none" /><circle cx="-152.8069" cy="4.2500" r="2.1250" stroke="green" stroke-width="1" fill="none" /><circle cx="-123.6135" cy="4.2500" r="2.1250" stroke="green" stroke-width="1" fill="none" /><circle cx="-138.2102" cy="40.1416" r="8.0000" stroke="green" stroke-width="1" fill="none" /><path d="M -120.3135 22.1416 L -124.6957 22.1416 A 0.4500 0.4500 0 0 0 -125.1457 22.5916 L -125.1457 22.6916 A 0.4500 0.4500 0 0 0 -124.6957 23.1416 L -120.3135 23.1416 A 0.4500 0.4500 0 0 0 -119.8635 22.6916 L -119.8635 22.5916 A 0.4500 0.4500 0 0 0 -120.3135 22.1416 Z" stroke="green" stroke-width="1" fill="none" /><path d="M -126.5957 22.1416 L -137.2602 22.1416 A 0.4500 0.4500 0 0 0 -137.7102 22.5916 L -137.7102 22.6916 A 0.4500 0.4500 0 0 0 -137.2602 23.1416 L -126.5957 23.1416 A 0.4500 0.4500 0 0 0 -126.1457 22.6916 L -126.1457 22.5916 A 0.4500 0.4500 0 0 0 -126.5957 22.1416 Z" stroke="green" stroke-width="1" fill="none" /><path d="M -139.1602 22.1416 L -149.8247 22.1416 A 0.4500 0.4500 0 0 0 -150.2747 22.5916 L -150.2747 22.6916 A 0.4500 0.4500 0 0 0 -149.8247 23.1416 L -139.1602 23.1416 A 0.4500 0.4500 0 0 0 -138.7102 22.6916 L -138.7102 22.5916 A 0.4500 0.4500 0 0 0 -139.1602 22.1416 Z" stroke="green" stroke-width="1" fill="none" /><path d="M -151.7247 22.1416 L -156.1069 22.1416 A 0.4500 0.4500 0 0 0 -156.5569 22.5916 L -156.5569 22.6916 A 0.4500 0.4500 0 0 0 -156.1069 23.1416 L -151.7247 23.1416 A 0.4500 0.4500 0 0 0 -151.2747 22.6916 L -151.2747 22.5916 A 0.4500 0.4500 0 0 0 -151.7247 22.1416 Z" stroke="green" stroke-width="1" fill="none" /><path d="M -120.3135 24.1416 L -130.9780 24.1416 A 0.4500 0.4500 0 0 0 -131.4280 24.5916 L -131.4280 24.6916 A 0.4500 0.4500 0 0 0 -130.9780 25.1416 L -120.3135 25.1416 A 0.4500 0.4500 0 0 0 -119.8635 24.6916 L -119.8635 24.5916 A 0.4500 0.4500 0 0 0 -120.3135 24.1416 Z" stroke="green" stroke-width="1" fill="none" /><path d="M -132.8780 24.1416 L -143.5424 24.1416 A 0.4500 0.4500 0 0 0 -143.9924 24.5916 L -143.9924 24.6916 A 0.4500 0.4500 0 0 0 -143.5424 25.1416 L -132.8780 25.1416 A 0.4500 0.4500 0 0 0 -132.4280 24.6916 L -132.4280 24.5916 A 0.4500 0.4500 0 0 0 -132.8780 24.1416 Z" stroke="green" stroke-width="1" fill="none" /><path d="M -145.4424 24.1416 L -156.1069 24.1416 A 0.4500 0.4500 0 0 0 -156.5569 24.5916 L -156.5569 24.6916 A 0.4500 0.4500 0 0 0 -156.1069 25.1416 L -145.4424 25.1416 A 0.4500 0.4500 0 0 0 -144.9924 24.6916 L -144.9924 24.5916 A 0.4500 0.4500 0 0 0 -145.4424 24.1416 Z" stroke="green" stroke-width="1" fill="none" /><path d="M -120.6589 26.1416 L -124.9260 26.1416 A 0.4500 0.4500 0 0 0 -125.3760 26.5916 L -125.3760 26.6916 A 0.4500 0.4500 0 0 0 -124.9260 27.1416 L -120.6589 27.1416 A 0.4500 0.4500 0 0 0 -120.2089 26.6916 L -120.2089 26.5916 A 0.4500 0.4500 0 0 0 -120.6589 26.1416 Z" stroke="green" stroke-width="1" fill="none" /><path d="M -126.8260 26.1416 L -137.2602 26.1416 A 0.4500 0.4500 0 0 0 -137.7102 26.5916 L -137.7102 26.6916 A 0.4500 0.4500 0 0 0 -137.2602 27.1416 L -126.8260 27.1416 A 0.4500 0.4500 0 0 0 -126.3760 26.6916 L -126.3760 26.5916 A 0.4500 0.4500 0 0 0 -126.8260 26.1416 Z" stroke="green" stroke-width="1" fill="none" /><path d="M -139.1602 26.1416 L -149.5944 26.1416 A 0.4500 0.4500 0 0 0 -150.0444 26.5916 L -150.0444 26.6916 A 0.4500 0.4500 0 0 0 -149.5944 27.1416 L -139.1602 27.1416 A 0.4500 0.4500 0 0 0 -138.7102 26.6916 L -138.7102 26.5916 A 0.4500 0.4500 0 0 0 -139.1602 26.1416 Z" stroke="green" stroke-width="1" fill="none" /><path d="M -151.4944 26.1416 L -155.7615 26.1416 A 0.4500 0.4500 0 0 0 -156.2115 26.5916 L -156.2115 26.6916 A 0.4500 0.4500 0 0 0 -155.7615 27.1416 L -151.4944 27.1416 A 0.4500 0.4500 0 0 0 -151.0444 26.6916 L -151.0444 26.5916 A 0.4500 0.4500 0 0 0 -151.4944 26.1416 Z" stroke="green" stroke-width="1" fill="none" /><path d="M -121.1195 28.1416 L -131.2466 28.1416 A 0.4500 0.4500 0 0 0 -131.6966 28.5916 L -131.6966 28.6916 A 0.4500 0.4500 0 0 0 -131.2466 29.1416 L -121.1195 29.1416 A 0.4500 0.4500 0 0 0 -120.6695 28.6916 L -120.6695 28.5916 A 0.4500 0.4500 0 0 0 -121.1195 28.1416 Z" stroke="green" stroke-width="1" fill="none" /><path d="M -133.1466 28.1416 L -143.2738 28.1416 A 0.4500 0.4500 0 0 0 -143.7238 28.5916 L -143.7238 28.6916 A 0.4500 0.4500 0 0 0 -143.2738 29.1416 L -133.1466 29.1416 A 0.4500 0.4500 0 0 0 -132.6966 28.6916 L -132.6966 28.5916 A 0.4500 0.4500 0 0 0 -133.1466 28.1416 Z" stroke="green" stroke-width="1" fill="none" /><path d="M -145.1738 28.1416 L -155.3010 28.1416 A 0.4500 0.4500 0 0 0 -155.7510 28.5916 L -155.7510 28.6916 A 0.4500 0.4500 0 0 0 -155.3010 29.1416 L -145.1738 29.1416 A 0.4500 0.4500 0 0 0 -144.7238 28.6916 L -144.7238 28.5916 A 0.4500 0.4500 0 0 0 -145.1738 28.1416 Z" stroke="green" stroke-width="1" fill="none" /><circle cx="-138.2102" cy="-23.1416" r="8.0000" stroke="green" stroke-width="1" fill="none" /><path d="M -156.1069 -5.1416 L -151.7247 -5.1416 A 0.4500 0.4500 0 0 0 -151.2747 -5.5916 L -151.2747 -5.6916 A 0.4500 0.4500 0 0 0 -151.7247 -6.1416 L -156.1069 -6.1416 A 0.4500 0.4500 0 0 0 -156.5569 -5.6916 L -156.5569 -5.5916 A 0.4500 0.4500 0 0 0 -156.1069 -5.1416 Z" stroke="green" stroke-width="1" fill="none" /><path d="M -149.8247 -5.1416 L -139.1602 -5.1416 A 0.4500 0.4500 0 0 0 -138.7102 -5.5916 L -138.7102 -5.6916 A 0.4500 0.4500 0 0 0 -139.1602 -6.1416 L -149.8247 -6.1416 A 0.4500 0.4500 0 0 0 -150.2747 -5.6916 L -150.2747 -5.5916 A 0.4500 0.4500 0 0 0 -149.8247 -5.1416 Z" stroke="green" stroke-width="1" fill="none" /><path d="M -137.2602 -5.1416 L -126.5957 -5.1416 A 0.4500 0.4500 0 0 0 -126.1457 -5.5916 L -126.1457 -5.6916 A 0.4500 0.4500 0 0 0 -126.5957 -6.1416 L -137.2602 -6.1416 A 0.4500 0.4500 0 0 0 -137.7102 -5.6916 L -137.7102 -5.5916 A 0.4500 0.4500 0 0 0 -137.2602 -5.1416 Z" stroke="green" stroke-width="1" fill="none" /><path d="M -124.6957 -5.1416 L -120.3135 -5.1416 A 0.4500 0.4500 0 0 0 -119.8635 -5.5916 L -119.8635 -5.6916 A 0.4500 0.4500 0 0 0 -120.3135 -6.1416 L -124.6957 -6.1416 A 0.4500 0.4500 0 0 0 -125.1457 -5.6916 L -125.1457 -5.5916 A 0.4500 0.4500 0 0 0 -124.6957 -5.1416 Z" stroke="green" stroke-width="1" fill="none" /><path d="M -156.1069 -7.1416 L -145.4424 -7.1416 A 0.4500 0.4500 0 0 0 -144.9924 -7.5916 L -144.9924 -7.6916 A 0.4500 0.4500 0 0 0 -145.4424 -8.1416 L -156.1069 -8.1416 A 0.4500 0.4500 0 0 0 -156.5569 -7.6916 L -156.5569 -7.5916 A 0.4500 0.4500 0 0 0 -156.1069 -7.1416 Z" stroke="green" stroke-width="1" fill="none" /><path d="M -143.5424 -7.1416 L -132.8780 -7.1416 A 0.4500 0.4500 0 0 0 -132.4280 -7.5916 L -132.4280 -7.6916 A 0.4500 0.4500 0 0 0 -132.8780 -8.1416 L -143.5424 -8.1416 A 0.4500 0.4500 0 0 0 -143.9924 -7.6916 L -143.9924 -7.5916 A 0.4500 0.4500 0 0 0 -143.5424 -7.1416 Z" stroke="green" stroke-width="1" fill="none" /><path d="M -130.9780 -7.1416 L -120.3135 -7.1416 A 0.4500 0.4500 0 0 0 -119.8635 -7.5916 L -119.8635 -7.6916 A 0.4500 0.4500 0 0 0 -120.3135 -8.1416 L -130.9780 -8.1416 A 0.4500 0.4500 0 0 0 -131.4280 -7.6916 L -131.4280 -7.5916 A 0.4500 0.4500 0 0 0 -130.9780 -7.1416 Z" stroke="green" stroke-width="1" fill="none" /><path d="M -155.7615 -9.1416 L -151.4944 -9.1416 A 0.4500 0.4500 0 0 0 -151.0444 -9.5916 L -151.0444 -9.6916 A 0.4500 0.4500 0 0 0 -151.4944 -10.1416 L -155.7615 -10.1416 A 0.4500 0.4500 0 0 0 -156.2115 -9.6916 L -156.2115 -9.5916 A 0.4500 0.4500 0 0 0 -155.7615 -9.1416 Z" stroke="green" stroke-width="1" fill="none" /><path d="M -149.5944 -9.1416 L -139.1602 -9.1416 A 0.4500 0.4500 0 0 0 -138.7102 -9.5916 L -138.7102 -9.6916 A 0.4500 0.4500 0 0 0 -139.1602 -10.1416 L -149.5944 -10.1416 A 0.4500 0.4500 0 0 0 -150.0444 -9.6916 L -150.0444 -9.5916 A 0.4500 0.4500 0 0 0 -149.5944 -9.1416 Z" stroke="green" stroke-width="1" fill="none" /><path d="M -137.2602 -9.1416 L -126.8260 -9.1416 A 0.4500 0.4500 0 0 0 -126.3760 -9.5916 L -126.3760 -9.6916 A 0.4500 0.4500 0 0 0 -126.8260 -10.1416 L -137.2602 -10.1416 A 0.4500 0.4500 0 0 0 -137.7102 -9.6916 L -137.7102 -9.5916 A 0.4500 0.4500 0 0 0 -137.2602 -9.1416 Z" stroke="green" stroke-width="1" fill="none" /><path d="M -124.9260 -9.1416 L -120.6589 -9.1416 A 0.4500 0.4500 0 0 0 -120.2089 -9.5916 L -120.2089 -9.6916 A 0.4500 0.4500 0 0 0 -120.6589 -10.1416 L -124.9260 -10.1416 A 0.4500 0.4500 0 0 0 -125.3760 -9.6916 L -125.3760 -9.5916 A 0.4500 0.4500 0 0 0 -124.9260 -9.1416 Z" stroke="green" stroke-width="1" fill="none" /><path d="M -155.3010 -11.1416 L -145.1738 -11.1416 A 0.4500 0.4500 0 0 0 -144.7238 -11.5916 L -144.7238 -11.6916 A 0.4500 0.4500 0 0 0 -145.1738 -12.1416 L -155.3010 -12.1416 A 0.4500 0.4500 0 0 0 -155.7510 -11.6916 L -155.7510 -11.5916 A 0.4500 0.4500 0 0 0 -155.3010 -11.1416 Z" stroke="green" stroke-width="1" fill="none" /><path d="M -143.2738 -11.1416 L -133.1466 -11.1416 A 0.4500 0.4500 0 0 0 -132.6966 -11.5916 L -132.6966 -11.6916 A 0.4500 0.4500 0 0 0 -133.1466 -12.1416 L -143.2738 -12.1416 A 0.4500 0.4500 0 0 0 -143.7238 -11.6916 L -143.7238 -11.5916 A 0.4500 0.4500 0 0 0 -143.2738 -11.1416 Z" stroke="green" stroke-width="1" fill="none" /><path d="M -131.2466 -11.1416 L -121.1195 -11.1416 A 0.4500 0.4500 0 0 0 -120.6695 -11.5916 L -120.6695 -11.6916 A 0.4500 0.4500 0 0 0 -121.1195 -12.1416 L -131.2466 -12.1416 A 0.4500 0.4500 0 0 0 -131.6966 -11.6916 L -131.6966 -11.5916 A 0.4500 0.4500 0 0 0 -131.2466 -11.1416 Z" stroke="green" stroke-width="1" fill="none" /><circle cx="-192.0712" cy="12.7500" r="2.1250" stroke="green" stroke-width="1" fill="none" /><circle cx="-162.8777" cy="12.7500" r="2.1250" stroke="green" stroke-width="1" fill="none" /><circle cx="-192.0712" cy="4.2500" r="2.1250" stroke="green" stroke-width="1" fill="none" /><circle cx="-162.8777" cy="4.2500" r="2.1250" stroke="green" stroke-width="1" fill="none" /><circle cx="-177.4744" cy="40.1416" r="8.0000" stroke="green" stroke-width="1" fill="none" /><path d="M -159.5777 22.1416 L -163.9600 22.1416 A 0.4500 0.4500 0 0 0 -164.4100 22.5916 L -164.4100 22.6916 A 0.4500 0.4500 0 0 0 -163.9600 23.1416 L -159.5777 23.1416 A 0.4500 0.4500 0 0 0 -159.1277 22.6916 L -159.1277 22.5916 A 0.4500 0.4500 0 0 0 -159.5777 22.1416 Z" stroke="green" stroke-width="1" fill="none" /><path d="M -165.8600 22.1416 L -176.5244 22.1416 A 0.4500 0.4500 0 0 0 -176.9744 22.5916 L -176.9744 22.6916 A 0.4500 0.4500 0 0 0 -176.5244 23.1416 L -165.8600 23.1416 A 0.4500 0.4500 0 0 0 -165.4100 22.6916 L -165.4100 22.5916 A 0.4500 0.4500 0 0 0 -165.8600 22.1416 Z" stroke="green" stroke-width="1" fill="none" /><path d="M -178.4244 22.1416 L -189.0889 22.1416 A 0.4500 0.4500 0 0 0 -189.5389 22.5916 L -189.5389 22.6916 A 0.4500 0.4500 0 0 0 -189.0889 23.1416 L -178.4244 23.1416 A 0.4500 0.4500 0 0 0 -177.9744 22.6916 L -177.9744 22.5916 A 0.4500 0.4500 0 0 0 -178.4244 22.1416 Z" stroke="green" stroke-width="1" fill="none" /><path d="M -190.9889 22.1416 L -195.3712 22.1416 A 0.4500 0.4500 0 0 0 -195.8212 22.5916 L -195.8212 22.6916 A 0.4500 0.4500 0 0 0 -195.3712 23.1416 L -190.9889 23.1416 A 0.4500 0.4500 0 0 0 -190.5389 22.6916 L -190.5389 22.5916 A 0.4500 0.4500 0 0 0 -190.9889 22.1416 Z" stroke="green" stroke-width="1" fill="none" /><path d="M -159.5777 24.1416 L -170.2422 24.1416 A 0.4500 0.4500 0 0 0 -170.6922 24.5916 L -170.6922 24.6916 A 0.4500 0.4500 0 0 0 -170.2422 25.1416 L -159.5777 25.1416 A 0.4500 0.4500 0 0 0 -159.1277 24.6916 L -159.1277 24.5916 A 0.4500 0.4500 0 0 0 -159.5777 24.1416 Z" stroke="green" stroke-width="1" fill="none" /><path d="M -172.1422 24.1416 L -182.8067 24.1416 A 0.4500 0.4500 0 0 0 -183.2567 24.5916 L -183.2567 24.6916 A 0.4500 0.4500 0 0 0 -182.8067 25.1416 L -172.1422 25.1416 A 0.4500 0.4500 0 0 0 -171.6922 24.6916 L -171.6922 24.5916 A 0.4500 0.4500 0 0 0 -172.1422 24.1416 Z" stroke="green" stroke-width="1" fill="none" /><path d="M -184.7067 24.1416 L -195.3712 24.1416 A 0.4500 0.4500 0 0 0 -195.8212 24.5916 L -195.8212 24.6916 A 0.4500 0.4500 0 0 0 -195.3712 25.1416 L -184.7067 25.1416 A 0.4500 0.4500 0 0 0 -184.2567 24.6916 L -184.2567 24.5916 A 0.4500 0.4500 0 0 0 -184.7067 24.1416 Z" stroke="green" stroke-width="1" fill="none" /><path d="M -159.9231 26.1416 L -164.1902 26.1416 A 0.4500 0.4500 0 0 0 -164.6402 26.5916 L -164.6402 26.6916 A 0.4500 0.4500 0 0 0 -164.1902 27.1416 L -159.9231 27.1416 A 0.4500 0.4500 0 0 0 -159.4731 26.6916 L -159.4731 26.5916 A 0.4500 0.4500 0 0 0 -159.9231 26.1416 Z" stroke="green" stroke-width="1" fill="none" /><path d="M -166.0902 26.1416 L -176.5244 26.1416 A 0.4500 0.4500 0 0 0 -176.9744 26.5916 L -176.9744 26.6916 A 0.4500 0.4500 0 0 0 -176.5244 27.1416 L -166.0902 27.1416 A 0.4500 0.4500 0 0 0 -165.6402 26.6916 L -165.6402 26.5916 A 0.4500 0.4500 0 0 0 -166.0902 26.1416 Z" stroke="green" stroke-width="1" fill="none" /><path d="M -178.4244 26.1416 L -188.8586 26.1416 A 0.4500 0.4500 0 0 0 -189.3086 26.5916 L -189.3086 26.6916 A 0.4500 0.4500 0 0 0 -188.8586 27.1416 L -178.4244 27.1416 A 0.4500 0.4500 0 0 0 -177.9744 26.6916 L -177.9744 26.5916 A 0.4500 0.4500 0 0 0 -178.4244 26.1416 Z" stroke="green" stroke-width="1" fill="none" /><path d="M -190.7586 26.1416 L -195.0257 26.1416 A 0.4500 0.4500 0 0 0 -195.4757 26.5916 L -195.4757 26.6916 A 0.4500 0.4500 0 0 0 -195.0257 27.1416 L -190.7586 27.1416 A 0.4500 0.4500 0 0 0 -190.3086 26.6916 L -190.3086 26.5916 A 0.4500 0.4500 0 0 0 -190.7586 26.1416 Z" stroke="green" stroke-width="1" fill="none" /><path d="M -160.3837 28.1416 L -170.5109 28.1416 A 0.4500 0.4500 0 0 0 -170.9609 28.5916 L -170.9609 28.6916 A 0.4500 0.4500 0 0 0 -170.5109 29.1416 L -160.3837 29.1416 A 0.4500 0.4500 0 0 0 -159.9337 28.6916 L -159.9337 28.5916 A 0.4500 0.4500 0 0 0 -160.3837 28.1416 Z" stroke="green" stroke-width="1" fill="none" /><path d="M -172.4109 28.1416 L -182.5380 28.1416 A 0.4500 0.4500 0 0 0 -182.9880 28.5916 L -182.9880 28.6916 A 0.4500 0.4500 0 0 0 -182.5380 29.1416 L -172.4109 29.1416 A 0.4500 0.4500 0 0 0 -171.9609 28.6916 L -171.9609 28.5916 A 0.4500 0.4500 0 0 0 -172.4109 28.1416 Z" stroke="green" stroke-width="1" fill="none" /><path d="M -184.4380 28.1416 L -194.5652 28.1416 A 0.4500 0.4500 0 0 0 -195.0152 28.5916 L -195.0152 28.6916 A 0.4500 0.4500 0 0 0 -194.5652 29.1416 L -184.4380 29.1416 A 0.4500 0.4500 0 0 0 -183.9880 28.6916 L -183.9880 28.5916 A 0.4500 0.4500 0 0 0 -184.4380 28.1416 Z" stroke="green" stroke-width="1" fill="none" /><circle cx="-177.4744" cy="-23.1416" r="8.0000" stroke="green" stroke-width="1" fill="none" /><path d="M -195.3712 -5.1416 L -190.9889 -5.1416 A 0.4500 0.4500 0 0 0 -190.5389 -5.5916 L -190.5389 -5.6916 A 0.4500 0.4500 0 0 0 -190.9889 -6.1416 L -195.3712 -6.1416 A 0.4500 0.4500 0 0 0 -195.8212 -5.6916 L -195.8212 -5.5916 A 0.4500 0.4500 0 0 0 -195.3712 -5.1416 Z" stroke="green" stroke-width="1" fill="none" /><path d="M -189.0889 -5.1416 L -178.4244 -5.1416 A 0.4500 0.4500 0 0 0 -177.9744 -5.5916 L -177.9744 -5.6916 A 0.4500 0.4500 0 0 0 -178.4244 -6.1416 L -189.0889 -6.1416 A 0.4500 0.4500 0 0 0 -189.5389 -5.6916 L -189.5389 -5.5916 A 0.4500 0.4500 0 0 0 -189.0889 -5.1416 Z" stroke="green" stroke-width="1" fill="none" /><path d="M -176.5244 -5.1416 L -165.8600 -5.1416 A 0.4500 0.4500 0 0 0 -165.4100 -5.5916 L -165.4100 -5.6916 A 0.4500 0.4500 0 0 0 -165.8600 -6.1416 L -176.5244 -6.1416 A 0.4500 0.4500 0 0 0 -176.9744 -5.6916 L -176.9744 -5.5916 A 0.4500 0.4500 0 0 0 -176.5244 -5.1416 Z" stroke="green" stroke-width="1" fill="none" /><path d="M -163.9600 -5.1416 L -159.5777 -5.1416 A 0.4500 0.4500 0 0 0 -159.1277 -5.5916 L -159.1277 -5.6916 A 0.4500 0.4500 0 0 0 -159.5777 -6.1416 L -163.9600 -6.1416 A 0.4500 0.4500 0 0 0 -164.4100 -5.6916 L -164.4100 -5.5916 A 0.4500 0.4500 0 0 0 -163.9600 -5.1416 Z" stroke="green" stroke-width="1" fill="none" /><path d="M -195.3712 -7.1416 L -184.7067 -7.1416 A 0.4500 0.4500 0 0 0 -184.2567 -7.5916 L -184.2567 -7.6916 A 0.4500 0.4500 0 0 0 -184.7067 -8.1416 L -195.3712 -8.1416 A 0.4500 0.4500 0 0 0 -195.8212 -7.6916 L -195.8212 -7.5916 A 0.4500 0.4500 0 0 0 -195.3712 -7.1416 Z" stroke="green" stroke-width="1" fill="none" /><path d="M -182.8067 -7.1416 L -172.1422 -7.1416 A 0.4500 0.4500 0 0 0 -171.6922 -7.5916 L -171.6922 -7.6916 A 0.4500 0.4500 0 0 0 -172.1422 -8.1416 L -182.8067 -8.1416 A 0.4500 0.4500 0 0 0 -183.2567 -7.6916 L -183.2567 -7.5916 A 0.4500 0.4500 0 0 0 -182.8067 -7.1416 Z" stroke="green" stroke-width="1" fill="none" /><path d="M -170.2422 -7.1416 L -159.5777 -7.1416 A 0.4500 0.4500 0 0 0 -159.1277 -7.5916 L -159.1277 -7.6916 A 0.4500 0.4500 0 0 0 -159.5777 -8.1416 L -170.2422 -8.1416 A 0.4500 0.4500 0 0 0 -170.6922 -7.6916 L -170.6922 -7.5916 A 0.4500 0.4500 0 0 0 -170.2422 -7.1416 Z" stroke="green" stroke-width="1" fill="none" /><path d="M -195.0257 -9.1416 L -190.7586 -9.1416 A 0.4500 0.4500 0 0 0 -190.3086 -9.5916 L -190.3086 -9.6916 A 0.4500 0.4500 0 0 0 -190.7586 -10.1416 L -195.0257 -10.1416 A 0.4500 0.4500 0 0 0 -195.4757 -9.6916 L -195.4757 -9.5916 A 0.4500 0.4500 0 0 0 -195.0257 -9.1416 Z" stroke="green" stroke-width="1" fill="none" /><path d="M -188.8586 -9.1416 L -178.4244 -9.1416 A 0.4500 0.4500 0 0 0 -177.9744 -9.5916 L -177.9744 -9.6916 A 0.4500 0.4500 0 0 0 -178.4244 -10.1416 L -188.8586 -10.1416 A 0.4500 0.4500 0 0 0 -189.3086 -9.6916 L -189.3086 -9.5916 A 0.4500 0.4500 0 0 0 -188.8586 -9.1416 Z" stroke="green" stroke-width="1" fill="none" /><path d="M -176.5244 -9.1416 L -166.0902 -9.1416 A 0.4500 0.4500 0 0 0 -165.6402 -9.5916 L -165.6402 -9.6916 A 0.4500 0.4500 0 0 0 -166.0902 -10.1416 L -176.5244 -10.1416 A 0.4500 0.4500 0 0 0 -176.9744 -9.6916 L -176.9744 -9.5916 A 0.4500 0.4500 0 0 0 -176.5244 -9.1416 Z" stroke="green" stroke-width="1" fill="none" /><path d="M -164.1902 -9.1416 L -159.9231 -9.1416 A 0.4500 0.4500 0 0 0 -159.4731 -9.5916 L -159.4731 -9.6916 A 0.4500 0.4500 0 0 0 -159.9231 -10.1416 L -164.1902 -10.1416 A 0.4500 0.4500 0 0 0 -164.6402 -9.6916 L -164.6402 -9.5916 A 0.4500 0.4500 0 0 0 -164.1902 -9.1416 Z" stroke="green" stroke-width="1" fill="none" /><path d="M -194.5652 -11.1416 L -184.4380 -11.1416 A 0.4500 0.4500 0 0 0 -183.9880 -11.5916 L -183.9880 -11.6916 A 0.4500 0.4500 0 0 0 -184.4380 -12.1416 L -194.5652 -12.1416 A 0.4500 0.4500 0 0 0 -195.0152 -11.6916 L -195.0152 -11.5916 A 0.4500 0.4500 0 0 0 -194.5652 -11.1416 Z" stroke="green" stroke-width="1" fill="none" /><path d="M -182.5380 -11.1416 L -172.4109 -11.1416 A 0.4500 0.4500 0 0 0 -171.9609 -11.5916 L -171.9609 -11.6916 A 0.4500 0.4500 0 0 0 -172.4109 -12.1416 L -182.5380 -12.1416 A 0.4500 0.4500 0 0 0 -182.9880 -11.6916 L -182.9880 -11.5916 A 0.4500 0.4500 0 0 0 -182.5380 -11.1416 Z" stroke="green" stroke-width="1" fill="none" /><path d="M -170.5109 -11.1416 L -160.3837 -11.1416 A 0.4500 0.4500 0 0 0 -159.9337 -11.5916 L -159.9337 -11.6916 A 0.4500 0.4500 0 0 0 -160.3837 -12.1416 L -170.5109 -12.1416 A 0.4500 0.4500 0 0 0 -170.9609 -11.6916 L -170.9609 -11.5916 A 0.4500 0.4500 0 0 0 -170.5109 -11.1416 Z" stroke="green" stroke-width="1" fill="none" /><circle cx="-231.3354" cy="12.7500" r="2.1250" stroke="green" stroke-width="1" fill="none" /><circle cx="-202.1419" cy="12.7500" r="2.1250" stroke="green" stroke-width="1" fill="none" /><circle cx="-231.3354" cy="4.2500" r="2.1250" stroke="green" stroke-width="1" fill="none" /><circle cx="-202.1419" cy="4.2500" r="2.1250" stroke="green" stroke-width="1" fill="none" /><circle cx="-216.7387" cy="40.1416" r="8.0000" stroke="green" stroke-width="1" fill="none" /><path d="M -198.8419 22.1416 L -203.2242 22.1416 A 0.4500 0.4500 0 0 0 -203.6742 22.5916 L -203.6742 22.6916 A 0.4500 0.4500 0 0 0 -203.2242 23.1416 L -198.8419 23.1416 A 0.4500 0.4500 0 0 0 -198.3919 22.6916 L -198.3919 22.5916 A 0.4500 0.4500 0 0 0 -198.8419 22.1416 Z" stroke="green" stroke-width="1" fill="none" /><path d="M -205.1242 22.1416 L -215.7887 22.1416 A 0.4500 0.4500 0 0 0 -216.2387 22.5916 L -216.2387 22.6916 A 0.4500 0.4500 0 0 0 -215.7887 23.1416 L -205.1242 23.1416 A 0.4500 0.4500 0 0 0 -204.6742 22.6916 L -204.6742 22.5916 A 0.4500 0.4500 0 0 0 -205.1242 22.1416 Z" stroke="green" stroke-width="1" fill="none" /><path d="M -217.6887 22.1416 L -228.3531 22.1416 A 0.4500 0.4500 0 0 0 -228.8031 22.5916 L -228.8031 22.6916 A 0.4500 0.4500 0 0 0 -228.3531 23.1416 L -217.6887 23.1416 A 0.4500 0.4500 0 0 0 -217.2387 22.6916 L -217.2387 22.5916 A 0.4500 0.4500 0 0 0 -217.6887 22.1416 Z" stroke="green" stroke-width="1" fill="none" /><path d="M -230.2531 22.1416 L -234.6354 22.1416 A 0.4500 0.4500 0 0 0 -235.0854 22.5916 L -235.0854 22.6916 A 0.4500 0.4500 0 0 0 -234.6354 23.1416 L -230.2531 23.1416 A 0.4500 0.4500 0 0 0 -229.8031 22.6916 L -229.8031 22.5916 A 0.4500 0.4500 0 0 0 -230.2531 22.1416 Z" stroke="green" stroke-width="1" fill="none" /><path d="M -198.8419 24.1416 L -209.5064 24.1416 A 0.4500 0.4500 0 0 0 -209.9564 24.5916 L -209.9564 24.6916 A 0.4500 0.4500 0 0 0 -209.5064 25.1416 L -198.8419 25.1416 A 0.4500 0.4500 0 0 0 -198.3919 24.6916 L -198.3919 24.5916 A 0.4500 0.4500 0 0 0 -198.8419 24.1416 Z" stroke="green" stroke-width="1" fill="none" /><path d="M -211.4064 24.1416 L -222.0709 24.1416 A 0.4500 0.4500 0 0 0 -222.5209 24.5916 L -222.5209 24.6916 A 0.4500 0.4500 0 0 0 -222.0709 25.1416 L -211.4064 25.1416 A 0.4500 0.4500 0 0 0 -210.9564 24.6916 L -210.9564 24.5916 A 0.4500 0.4500 0 0 0 -211.4064 24.1416 Z" stroke="green" stroke-width="1" fill="none" /><path d="M -223.9709 24.1416 L -234.6354 24.1416 A 0.4500 0.4500 0 0 0 -235.0854 24.5916 L -235.0854 24.6916 A 0.4500 0.4500 0 0 0 -234.6354 25.1416 L -223.9709 25.1416 A 0.4500 0.4500 0 0 0 -223.5209 24.6916 L -223.5209 24.5916 A 0.4500 0.4500 0 0 0 -223.9709 24.1416 Z" stroke="green" stroke-width="1" fill="none" /><path d="M -199.1874 26.1416 L -203.4545 26.1416 A 0.4500 0.4500 0 0 0 -203.9045 26.5916 L -203.9045 26.6916 A 0.4500 0.4500 0 0 0 -203.4545 27.1416 L -199.1874 27.1416 A 0.4500 0.4500 0 0 0 -198.7374 26.6916 L -198.7374 26.5916 A 0.4500 0.4500 0 0 0 -199.1874 26.1416 Z" stroke="green" stroke-width="1" fill="none" /><path d="M -205.3545 26.1416 L -215.7887 26.1416 A 0.4500 0.4500 0 0 0 -216.2387 26.5916 L -216.2387 26.6916 A 0.4500 0.4500 0 0 0 -215.7887 27.1416 L -205.3545 27.1416 A 0.4500 0.4500 0 0 0 -204.9045 26.6916 L -204.9045 26.5916 A 0.4500 0.4500 0 0 0 -205.3545 26.1416 Z" stroke="green" stroke-width="1" fill="none" /><path d="M -217.6887 26.1416 L -228.1229 26.1416 A 0.4500 0.4500 0 0 0 -228.5729 26.5916 L -228.5729 26.6916 A 0.4500 0.4500 0 0 0 -228.1229 27.1416 L -217.6887 27.1416 A 0.4500 0.4500 0 0 0 -217.2387 26.6916 L -217.2387 26.5916 A 0.4500 0.4500 0 0 0 -217.6887 26.1416 Z" stroke="green" stroke-width="1" fill="none" /><path d="M -230.0229 26.1416 L -234.2900 26.1416 A 0.4500 0.4500 0 0 0 -234.7400 26.5916 L -234.7400 26.6916 A 0.4500 0.4500 0 0 0 -234.2900 27.1416 L -230.0229 27.1416 A 0.4500 0.4500 0 0 0 -229.5729 26.6916 L -229.5729 26.5916 A 0.4500 0.4500 0 0 0 -230.0229 26.1416 Z" stroke="green" stroke-width="1" fill="none" /><path d="M -199.6479 28.1416 L -209.7751 28.1416 A 0.4500 0.4500 0 0 0 -210.2251 28.5916 L -210.2251 28.6916 A 0.4500 0.4500 0 0 0 -209.7751 29.1416 L -199.6479 29.1416 A 0.4500 0.4500 0 0 0 -199.1979 28.6916 L -199.1979 28.5916 A 0.4500 0.4500 0 0 0 -199.6479 28.1416 Z" stroke="green" stroke-width="1" fill="none" /><path d="M -211.6751 28.1416 L -221.8022 28.1416 A 0.4500 0.4500 0 0 0 -222.2522 28.5916 L -222.2522 28.6916 A 0.4500 0.4500 0 0 0 -221.8022 29.1416 L -211.6751 29.1416 A 0.4500 0.4500 0 0 0 -211.2251 28.6916 L -211.2251 28.5916 A 0.4500 0.4500 0 0 0 -211.6751 28.1416 Z" stroke="green" stroke-width="1" fill="none" /><path d="M -223.7022 28.1416 L -233.8294 28.1416 A 0.4500 0.4500 0 0 0 -234.2794 28.5916 L -234.2794 28.6916 A 0.4500 0.4500 0 0 0 -233.8294 29.1416 L -223.7022 29.1416 A 0.4500 0.4500 0 0 0 -223.2522 28.6916 L -223.2522 28.5916 A 0.4500 0.4500 0 0 0 -223.7022 28.1416 Z" stroke="green" stroke-width="1" fill="none" /><circle cx="-216.7387" cy="-23.1416" r="8.0000" stroke="green" stroke-width="1" fill="none" /><path d="M -234.6354 -5.1416 L -230.2531 -5.1416 A 0.4500 0.4500 0 0 0 -229.8031 -5.5916 L -229.8031 -5.6916 A 0.4500 0.4500 0 0 0 -230.2531 -6.1416 L -234.6354 -6.1416 A 0.4500 0.4500 0 0 0 -235.0854 -5.6916 L -235.0854 -5.5916 A 0.4500 0.4500 0 0 0 -234.6354 -5.1416 Z" stroke="green" stroke-width="1" fill="none" /><path d="M -228.3531 -5.1416 L -217.6887 -5.1416 A 0.4500 0.4500 0 0 0 -217.2387 -5.5916 L -217.2387 -5.6916 A 0.4500 0.4500 0 0 0 -217.6887 -6.1416 L -228.3531 -6.1416 A 0.4500 0.4500 0 0 0 -228.8031 -5.6916 L -228.8031 -5.5916 A 0.4500 0.4500 0 0 0 -228.3531 -5.1416 Z" stroke="green" stroke-width="1" fill="none" /><path d="M -215.7887 -5.1416 L -205.1242 -5.1416 A 0.4500 0.4500 0 0 0 -204.6742 -5.5916 L -204.6742 -5.6916 A 0.4500 0.4500 0 0 0 -205.1242 -6.1416 L -215.7887 -6.1416 A 0.4500 0.4500 0 0 0 -216.2387 -5.6916 L -216.2387 -5.5916 A 0.4500 0.4500 0 0 0 -215.7887 -5.1416 Z" stroke="green" stroke-width="1" fill="none" /><path d="M -203.2242 -5.1416 L -198.8419 -5.1416 A 0.4500 0.4500 0 0 0 -198.3919 -5.5916 L -198.3919 -5.6916 A 0.4500 0.4500 0 0 0 -198.8419 -6.1416 L -203.2242 -6.1416 A 0.4500 0.4500 0 0 0 -203.6742 -5.6916 L -203.6742 -5.5916 A 0.4500 0.4500 0 0 0 -203.2242 -5.1416 Z" stroke="green" stroke-width="1" fill="none" /><path d="M -234.6354 -7.1416 L -223.9709 -7.1416 A 0.4500 0.4500 0 0 0 -223.5209 -7.5916 L -223.5209 -7.6916 A 0.4500 0.4500 0 0 0 -223.9709 -8.1416 L -234.6354 -8.1416 A 0.4500 0.4500 0 0 0 -235.0854 -7.6916 L -235.0854 -7.5916 A 0.4500 0.4500 0 0 0 -234.6354 -7.1416 Z" stroke="green" stroke-width="1" fill="none" /><path d="M -222.0709 -7.1416 L -211.4064 -7.1416 A 0.4500 0.4500 0 0 0 -210.9564 -7.5916 L -210.9564 -7.6916 A 0.4500 0.4500 0 0 0 -211.4064 -8.1416 L -222.0709 -8.1416 A 0.4500 0.4500 0 0 0 -222.5209 -7.6916 L -222.5209 -7.5916 A 0.4500 0.4500 0 0 0 -222.0709 -7.1416 Z" stroke="green" stroke-width="1" fill="none" /><path d="M -209.5064 -7.1416 L -198.8419 -7.1416 A 0.4500 0.4500 0 0 0 -198.3919 -7.5916 L -198.3919 -7.6916 A 0.4500 0.4500 0 0 0 -198.8419 -8.1416 L -209.5064 -8.1416 A 0.4500 0.4500 0 0 0 -209.9564 -7.6916 L -209.9564 -7.5916 A 0.4500 0.4500 0 0 0 -209.5064 -7.1416 Z" stroke="green" stroke-width="1" fill="none" /><path d="M -234.2900 -9.1416 L -230.0229 -9.1416 A 0.4500 0.4500 0 0 0 -229.5729 -9.5916 L -229.5729 -9.6916 A 0.4500 0.4500 0 0 0 -230.0229 -10.1416 L -234.2900 -10.1416 A 0.4500 0.4500 0 0 0 -234.7400 -9.6916 L -234.7400 -9.5916 A 0.4500 0.4500 0 0 0 -234.2900 -9.1416 Z" stroke="green" stroke-width="1" fill="none" /><path d="M -228.1229 -9.1416 L -217.6887 -9.1416 A 0.4500 0.4500 0 0 0 -217.2387 -9.5916 L -217.2387 -9.6916 A 0.4500 0.4500 0 0 0 -217.6887 -10.1416 L -228.1229 -10.1416 A 0.4500 0.4500 0 0 0 -228.5729 -9.6916 L -228.5729 -9.5916 A 0.4500 0.4500 0 0 0 -228.1229 -9.1416 Z" stroke="green" stroke-width="1" fill="none" /><path d="M -215.7887 -9.1416 L -205.3545 -9.1416 A 0.4500 0.4500 0 0 0 -204.9045 -9.5916 L -204.9045 -9.6916 A 0.4500 0.4500 0 0 0 -205.3545 -10.1416 L -215.7887 -10.1416 A 0.4500 0.4500 0 0 0 -216.2387 -9.6916 L -216.2387 -9.5916 A 0.4500 0.4500 0 0 0 -215.7887 -9.1416 Z" stroke="green" stroke-width="1" fill="none" /><path d="M -203.4545 -9.1416 L -199.1874 -9.1416 A 0.4500 0.4500 0 0 0 -198.7374 -9.5916 L -198.7374 -9.6916 A 0.4500 0.4500 0 0 0 -199.1874 -10.1416 L -203.4545 -10.1416 A 0.4500 0.4500 0 0 0 -203.9045 -9.6916 L -203.9045 -9.5916 A 0.4500 0.4500 0 0 0 -203.4545 -9.1416 Z" stroke="green" stroke-width="1" fill="none" /><path d="M -233.8294 -11.1416 L -223.7022 -11.1416 A 0.4500 0.4500 0 0 0 -223.2522 -11.5916 L -223.2522 -11.6916 A 0.4500 0.4500 0 0 0 -223.7022 -12.1416 L -233.8294 -12.1416 A 0.4500 0.4500 0 0 0 -234.2794 -11.6916 L -234.2794 -11.5916 A 0.4500 0.4500 0 0 0 -233.8294 -11.1416 Z" stroke="green" stroke-width="1" fill="none" /><path d="M -221.8022 -11.1416 L -211.6751 -11.1416 A 0.4500 0.4500 0 0 0 -211.2251 -11.5916 L -211.2251 -11.6916 A 0.4500 0.4500 0 0 0 -211.6751 -12.1416 L -221.8022 -12.1416 A 0.4500 0.4500 0 0 0 -222.2522 -11.6916 L -222.2522 -11.5916 A 0.4500 0.4500 0 0 0 -221.8022 -11.1416 Z" stroke="green" stroke-width="1" fill="none" /><path d="M -209.7751 -11.1416 L -199.6479 -11.1416 A 0.4500 0.4500 0 0 0 -199.1979 -11.5916 L -199.1979 -11.6916 A 0.4500 0.4500 0 0 0 -199.6479 -12.1416 L -209.7751 -12.1416 A 0.4500 0.4500 0 0 0 -210.2251 -11.6916 L -210.2251 -11.5916 A 0.4500 0.4500 0 0 0 -209.7751 -11.1416 Z" stroke="green" stroke-width="1" fill="none" /><circle cx="-270.5996" cy="12.7500" r="2.1250" stroke="green" stroke-width="1" fill="none" /><circle cx="-241.4062" cy="12.7500" r="2.1250" stroke="green" stroke-width="1" fill="none" /><circle cx="-270.5996" cy="4.2500" r="2.1250" stroke="green" stroke-width="1" fill="none" /><circle cx="-241.4062" cy="4.2500" r="2.1250" stroke="green" stroke-width="1" fill="none" /><circle cx="-256.0029" cy="40.1416" r="8.0000" stroke="green" stroke-width="1" fill="none" /><path d="M -238.1062 22.1416 L -242.4884 22.1416 A 0.4500 0.4500 0 0 0 -242.9384 22.5916 L -242.9384 22.6916 A 0.4500 0.4500 0 0 0 -242.4884 23.1416 L -238.1062 23.1416 A 0.4500 0.4500 0 0 0 -237.6562 22.6916 L -237.6562 22.5916 A 0.4500 0.4500 0 0 0 -238.1062 22.1416 Z" stroke="green" stroke-width="1" fill="none" /><path d="M -244.3884 22.1416 L -255.0529 22.1416 A 0.4500 0.4500 0 0 0 -255.5029 22.5916 L -255.5029 22.6916 A 0.4500 0.4500 0 0 0 -255.0529 23.1416 L -244.3884 23.1416 A 0.4500 0.4500 0 0 0 -243.9384 22.6916 L -243.9384 22.5916 A 0.4500 0.4500 0 0 0 -244.3884 22.1416 Z" stroke="green" stroke-width="1" fill="none" /><path d="M -256.9529 22.1416 L -267.6174 22.1416 A 0.4500 0.4500 0 0 0 -268.0674 22.5916 L -268.0674 22.6916 A 0.4500 0.4500 0 0 0 -267.6174 23.1416 L -256.9529 23.1416 A 0.4500 0.4500 0 0 0 -256.5029 22.6916 L -256.5029 22.5916 A 0.4500 0.4500 0 0 0 -256.9529 22.1416 Z" stroke="green" stroke-width="1" fill="none" /><path d="M -269.5174 22.1416 L -273.8996 22.1416 A 0.4500 0.4500 0 0 0 -274.3496 22.5916 L -274.3496 22.6916 A 0.4500 0.4500 0 0 0 -273.8996 23.1416 L -269.5174 23.1416 A 0.4500 0.4500 0 0 0 -269.0674 22.6916 L -269.0674 22.5916 A 0.4500 0.4500 0 0 0 -269.5174 22.1416 Z" stroke="green" stroke-width="1" fill="none" /><path d="M -238.1062 24.1416 L -248.7707 24.1416 A 0.4500 0.4500 0 0 0 -249.2207 24.5916 L -249.2207 24.6916 A 0.4500 0.4500 0 0 0 -248.7707 25.1416 L -238.1062 25.1416 A 0.4500 0.4500 0 0 0 -237.6562 24.6916 L -237.6562 24.5916 A 0.4500 0.4500 0 0 0 -238.1062 24.1416 Z" stroke="green" stroke-width="1" fill="none" /><path d="M -250.6707 24.1416 L -261.3351 24.1416 A 0.4500 0.4500 0 0 0 -261.7851 24.5916 L -261.7851 24.6916 A 0.4500 0.4500 0 0 0 -261.3351 25.1416 L -250.6707 25.1416 A 0.4500 0.4500 0 0 0 -250.2207 24.6916 L -250.2207 24.5916 A 0.4500 0.4500 0 0 0 -250.6707 24.1416 Z" stroke="green" stroke-width="1" fill="none" /><path d="M -263.2351 24.1416 L -273.8996 24.1416 A 0.4500 0.4500 0 0 0 -274.3496 24.5916 L -274.3496 24.6916 A 0.4500 0.4500 0 0 0 -273.8996 25.1416 L -263.2351 25.1416 A 0.4500 0.4500 0 0 0 -262.7851 24.6916 L -262.7851 24.5916 A 0.4500 0.4500 0 0 0 -263.2351 24.1416 Z" stroke="green" stroke-width="1" fill="none" /><path d="M -238.4516 26.1416 L -242.7187 26.1416 A 0.4500 0.4500 0 0 0 -243.1687 26.5916 L -243.1687 26.6916 A 0.4500 0.4500 0 0 0 -242.7187 27.1416 L -238.4516 27.1416 A 0.4500 0.4500 0 0 0 -238.0016 26.6916 L -238.0016 26.5916 A 0.4500 0.4500 0 0 0 -238.4516 26.1416 Z" stroke="green" stroke-width="1" fill="none" /><path d="M -244.6187 26.1416 L -255.0529 26.1416 A 0.4500 0.4500 0 0 0 -255.5029 26.5916 L -255.5029 26.6916 A 0.4500 0.4500 0 0 0 -255.0529 27.1416 L -244.6187 27.1416 A 0.4500 0.4500 0 0 0 -244.1687 26.6916 L -244.1687 26.5916 A 0.4500 0.4500 0 0 0 -244.6187 26.1416 Z" stroke="green" stroke-width="1" fill="none" /><path d="M -256.9529 26.1416 L -267.3871 26.1416 A 0.4500 0.4500 0 0 0 -267.8371 26.5916 L -267.8371 26.6916 A 0.4500 0.4500 0 0 0 -267.3871 27.1416 L -256.9529 27.1416 A 0.4500 0.4500 0 0 0 -256.5029 26.6916 L -256.5029 26.5916 A 0.4500 0.4500 0 0 0 -256.9529 26.1416 Z" stroke="green" stroke-width="1" fill="none" /><path d="M -269.2871 26.1416 L -273.5542 26.1416 A 0.4500 0.4500 0 0 0 -274.0042 26.5916 L -274.0042 26.6916 A 0.4500 0.4500 0 0 0 -273.5542 27.1416 L -269.2871 27.1416 A 0.4500 0.4500 0 0 0 -268.8371 26.6916 L -268.8371 26.5916 A 0.4500 0.4500 0 0 0 -269.2871 26.1416 Z" stroke="green" stroke-width="1" fill="none" /><path d="M -238.9121 28.1416 L -249.0393 28.1416 A 0.4500 0.4500 0 0 0 -249.4893 28.5916 L -249.4893 28.6916 A 0.4500 0.4500 0 0 0 -249.0393 29.1416 L -238.9121 29.1416 A 0.4500 0.4500 0 0 0 -238.4621 28.6916 L -238.4621 28.5916 A 0.4500 0.4500 0 0 0 -238.9121 28.1416 Z" stroke="green" stroke-width="1" fill="none" /><path d="M -250.9393 28.1416 L -261.0665 28.1416 A 0.4500 0.4500 0 0 0 -261.5165 28.5916 L -261.5165 28.6916 A 0.4500 0.4500 0 0 0 -261.0665 29.1416 L -250.9393 29.1416 A 0.4500 0.4500 0 0 0 -250.4893 28.6916 L -250.4893 28.5916 A 0.4500 0.4500 0 0 0 -250.9393 28.1416 Z" stroke="green" stroke-width="1" fill="none" /><path d="M -262.9665 28.1416 L -273.0936 28.1416 A 0.4500 0.4500 0 0 0 -273.5436 28.5916 L -273.5436 28.6916 A 0.4500 0.4500 0 0 0 -273.0936 29.1416 L -262.9665 29.1416 A 0.4500 0.4500 0 0 0 -262.5165 28.6916 L -262.5165 28.5916 A 0.4500 0.4500 0 0 0 -262.9665 28.1416 Z" stroke="green" stroke-width="1" fill="none" /><circle cx="-256.0029" cy="-23.1416" r="8.0000" stroke="green" stroke-width="1" fill="none" /><path d="M -273.8996 -5.1416 L -269.5174 -5.1416 A 0.4500 0.4500 0 0 0 -269.0674 -5.5916 L -269.0674 -5.6916 A 0.4500 0.4500 0 0 0 -269.5174 -6.1416 L -273.8996 -6.1416 A 0.4500 0.4500 0 0 0 -274.3496 -5.6916 L -274.3496 -5.5916 A 0.4500 0.4500 0 0 0 -273.8996 -5.1416 Z" stroke="green" stroke-width="1" fill="none" /><path d="M -267.6174 -5.1416 L -256.9529 -5.1416 A 0.4500 0.4500 0 0 0 -256.5029 -5.5916 L -256.5029 -5.6916 A 0.4500 0.4500 0 0 0 -256.9529 -6.1416 L -267.6174 -6.1416 A 0.4500 0.4500 0 0 0 -268.0674 -5.6916 L -268.0674 -5.5916 A 0.4500 0.4500 0 0 0 -267.6174 -5.1416 Z" stroke="green" stroke-width="1" fill="none" /><path d="M -255.0529 -5.1416 L -244.3884 -5.1416 A 0.4500 0.4500 0 0 0 -243.9384 -5.5916 L -243.9384 -5.6916 A 0.4500 0.4500 0 0 0 -244.3884 -6.1416 L -255.0529 -6.1416 A 0.4500 0.4500 0 0 0 -255.5029 -5.6916 L -255.5029 -5.5916 A 0.4500 0.4500 0 0 0 -255.0529 -5.1416 Z" stroke="green" stroke-width="1" fill="none" /><path d="M -242.4884 -5.1416 L -238.1062 -5.1416 A 0.4500 0.4500 0 0 0 -237.6562 -5.5916 L -237.6562 -5.6916 A 0.4500 0.4500 0 0 0 -238.1062 -6.1416 L -242.4884 -6.1416 A 0.4500 0.4500 0 0 0 -242.9384 -5.6916 L -242.9384 -5.5916 A 0.4500 0.4500 0 0 0 -242.4884 -5.1416 Z" stroke="green" stroke-width="1" fill="none" /><path d="M -273.8996 -7.1416 L -263.2351 -7.1416 A 0.4500 0.4500 0 0 0 -262.7851 -7.5916 L -262.7851 -7.6916 A 0.4500 0.4500 0 0 0 -263.2351 -8.1416 L -273.8996 -8.1416 A 0.4500 0.4500 0 0 0 -274.3496 -7.6916 L -274.3496 -7.5916 A 0.4500 0.4500 0 0 0 -273.8996 -7.1416 Z" stroke="green" stroke-width="1" fill="none" /><path d="M -261.3351 -7.1416 L -250.6707 -7.1416 A 0.4500 0.4500 0 0 0 -250.2207 -7.5916 L -250.2207 -7.6916 A 0.4500 0.4500 0 0 0 -250.6707 -8.1416 L -261.3351 -8.1416 A 0.4500 0.4500 0 0 0 -261.7851 -7.6916 L -261.7851 -7.5916 A 0.4500 0.4500 0 0 0 -261.3351 -7.1416 Z" stroke="green" stroke-width="1" fill="none" /><path d="M -248.7707 -7.1416 L -238.1062 -7.1416 A 0.4500 0.4500 0 0 0 -237.6562 -7.5916 L -237.6562 -7.6916 A 0.4500 0.4500 0 0 0 -238.1062 -8.1416 L -248.7707 -8.1416 A 0.4500 0.4500 0 0 0 -249.2207 -7.6916 L -249.2207 -7.5916 A 0.4500 0.4500 0 0 0 -248.7707 -7.1416 Z" stroke="green" stroke-width="1" fill="none" /><path d="M -273.5542 -9.1416 L -269.2871 -9.1416 A 0.4500 0.4500 0 0 0 -268.8371 -9.5916 L -268.8371 -9.6916 A 0.4500 0.4500 0 0 0 -269.2871 -10.1416 L -273.5542 -10.1416 A 0.4500 0.4500 0 0 0 -274.0042 -9.6916 L -274.0042 -9.5916 A 0.4500 0.4500 0 0 0 -273.5542 -9.1416 Z" stroke="green" stroke-width="1" fill="none" /><path d="M -267.3871 -9.1416 L -256.9529 -9.1416 A 0.4500 0.4500 0 0 0 -256.5029 -9.5916 L -256.5029 -9.6916 A 0.4500 0.4500 0 0 0 -256.9529 -10.1416 L -267.3871 -10.1416 A 0.4500 0.4500 0 0 0 -267.8371 -9.6916 L -267.8371 -9.5916 A 0.4500 0.4500 0 0 0 -267.3871 -9.1416 Z" stroke="green" stroke-width="1" fill="none" /><path d="M -255.0529 -9.1416 L -244.6187 -9.1416 A 0.4500 0.4500 0 0 0 -244.1687 -9.5916 L -244.1687 -9.6916 A 0.4500 0.4500 0 0 0 -244.6187 -10.1416 L -255.0529 -10.1416 A 0.4500 0.4500 0 0 0 -255.5029 -9.6916 L -255.5029 -9.5916 A 0.4500 0.4500 0 0 0 -255.0529 -9.1416 Z" stroke="green" stroke-width="1" fill="none" /><path d="M -242.7187 -9.1416 L -238.4516 -9.1416 A 0.4500 0.4500 0 0 0 -238.0016 -9.5916 L -238.0016 -9.6916 A 0.4500 0.4500 0 0 0 -238.4516 -10.1416 L -242.7187 -10.1416 A 0.4500 0.4500 0 0 0 -243.1687 -9.6916 L -243.1687 -9.5916 A 0.4500 0.4500 0 0 0 -242.7187 -9.1416 Z" stroke="green" stroke-width="1" fill="none" /><path d="M -273.0936 -11.1416 L -262.9665 -11.1416 A 0.4500 0.4500 0 0 0 -262.5165 -11.5916 L -262.5165 -11.6916 A 0.4500 0.4500 0 0 0 -262.9665 -12.1416 L -273.0936 -12.1416 A 0.4500 0.4500 0 0 0 -273.5436 -11.6916 L -273.5436 -11.5916 A 0.4500 0.4500 0 0 0 -273.0936 -11.1416 Z" stroke="green" stroke-width="1" fill="none" /><path d="M -261.0665 -11.1416 L -250.9393 -11.1416 A 0.4500 0.4500 0 0 0 -250.4893 -11.5916 L -250.4893 -11.6916 A 0.4500 0.4500 0 0 0 -250.9393 -12.1416 L -261.0665 -12.1416 A 0.4500 0.4500 0 0 0 -261.5165 -11.6916 L -261.5165 -11.5916 A 0.4500 0.4500 0 0 0 -261.0665 -11.1416 Z" stroke="green" stroke-width="1" fill="none" /><path d="M -249.0393 -11.1416 L -238.9121 -11.1416 A 0.4500 0.4500 0 0 0 -238.4621 -11.5916 L -238.4621 -11.6916 A 0.4500 0.4500 0 0 0 -238.9121 -12.1416 L -249.0393 -12.1416 A 0.4500 0.4500 0 0 0 -249.4893 -11.6916 L -249.4893 -11.5916 A 0.4500 0.4500 0 0 0 -249.0393 -11.1416 Z" stroke="green" stroke-width="1" fill="none" /><path d="M 17.8467 19.1416 A 1.0000 1.0000 0 0 0 19.8467 19.1416 L 19.8467 18.0000 A 1.0000 1.0000 0 0 0 17.8467 18.0000 L 17.8467 19.1416 Z" stroke="green" stroke-width="1" fill="none" /><path d="M 39.2642 9.5000 L 39.2642 7.5000 L 37.6934 7.5000 L 37.6934 9.5000 L 39.2642 9.5000 Z" stroke="green" stroke-width="1" fill="none" /><path d="M 19.8467 -2.1416 A 1.0000 1.0000 0 0 0 17.8467 -2.1416 L 17.8467 -1.0000 A 1.0000 1.0000 0 0 0 19.8467 -1.0000 L 19.8467 -2.1416 Z" stroke="green" stroke-width="1" fill="none" /><path d="M 0.0000 9.5000 L 0.0000 7.5000 L -1.5708 7.5000 L -1.5708 9.5000 L 0.0000 9.5000 Z" stroke="green" stroke-width="1" fill="none" /><path d="M -21.4175 19.1416 A 1.0000 1.0000 0 0 0 -19.4175 19.1416 L -19.4175 18.0000 A 1.0000 1.0000 0 0 0 -21.4175 18.0000 L -21.4175 19.1416 Z" stroke="green" stroke-width="1" fill="none" /><path d="M -19.4175 -2.1416 A 1.0000 1.0000 0 0 0 -21.4175 -2.1416 L -21.4175 -1.0000 A 1.0000 1.0000 0 0 0 -19.4175 -1.0000 L -19.4175 -2.1416 Z" stroke="green" stroke-width="1" fill="none" /><path d="M -39.2642 9.5000 L -39.2642 7.5000 L -40.8350 7.5000 L -40.8350 9.5000 L -39.2642 9.5000 Z" stroke="green" stroke-width="1" fill="none" /><path d="M -60.6817 19.1416 A 1.0000 1.0000 0 0 0 -58.6817 19.1416 L -58.6817 18.0000 A 1.0000 1.0000 0 0 0 -60.6817 18.0000 L -60.6817 19.1416 Z" stroke="green" stroke-width="1" fill="none" /><path d="M -58.6817 -2.1416 A 1.0000 1.0000 0 0 0 -60.6817 -2.1416 L -60.6817 -1.0000 A 1.0000 1.0000 0 0 0 -58.6817 -1.0000 L -58.6817 -2.1416 Z" stroke="green" stroke-width="1" fill="none" /><path d="M -78.5285 9.5000 L -78.5285 7.5000 L -80.0993 7.5000 L -80.0993 9.5000 L -78.5285 9.5000 Z" stroke="green" stroke-width="1" fill="none" /><path d="M -99.9460 19.1416 A 1.0000 1.0000 0 0 0 -97.9460 19.1416 L -97.9460 18.0000 A 1.0000 1.0000 0 0 0 -99.9460 18.0000 L -99.9460 19.1416 Z" stroke="green" stroke-width="1" fill="none" /><path d="M -97.9460 -2.1416 A 1.0000 1.0000 0 0 0 -99.9460 -2.1416 L -99.9460 -1.0000 A 1.0000 1.0000 0 0 0 -97.9460 -1.0000 L -97.9460 -2.1416 Z" stroke="green" stroke-width="1" fill="none" /><path d="M -117.7927 9.5000 L -117.7927 7.5000 L -119.3635 7.5000 L -119.3635 9.5000 L -117.7927 9.5000 Z" stroke="green" stroke-width="1" fill="none" /><path d="M -139.2102 19.1416 A 1.0000 1.0000 0 0 0 -137.2102 19.1416 L -137.2102 18.0000 A 1.0000 1.0000 0 0 0 -139.2102 18.0000 L -139.2102 19.1416 Z" stroke="green" stroke-width="1" fill="none" /><path d="M -137.2102 -2.1416 A 1.0000 1.0000 0 0 0 -139.2102 -2.1416 L -139.2102 -1.0000 A 1.0000 1.0000 0 0 0 -137.2102 -1.0000 L -137.2102 -2.1416 Z" stroke="green" stroke-width="1" fill="none" /><path d="M -157.0569 9.5000 L -157.0569 7.5000 L -158.6277 7.5000 L -158.6277 9.5000 L -157.0569 9.5000 Z" stroke="green" stroke-width="1" fill="none" /><path d="M -178.4744 19.1416 A 1.0000 1.0000 0 0 0 -176.4744 19.1416 L -176.4744 18.0000 A 1.0000 1.0000 0 0 0 -178.4744 18.0000 L -178.4744 19.1416 Z" stroke="green" stroke-width="1" fill="none" /><path d="M -176.4744 -2.1416 A 1.0000 1.0000 0 0 0 -178.4744 -2.1416 L -178.4744 -1.0000 A 1.0000 1.0000 0 0 0 -176.4744 -1.0000 L -176.4744 -2.1416 Z" stroke="green" stroke-width="1" fill="none" /><path d="M -196.3212 9.5000 L -196.3212 7.5000 L -197.8919 7.5000 L -197.8919 9.5000 L -196.3212 9.5000 Z" stroke="green" stroke-width="1" fill="none" /><path d="M -217.7387 19.1416 A 1.0000 1.0000 0 0 0 -215.7387 19.1416 L -215.7387 18.0000 A 1.0000 1.0000 0 0 0 -217.7387 18.0000 L -217.7387 19.1416 Z" stroke="green" stroke-width="1" fill="none" /><path d="M -215.7387 -2.1416 A 1.0000 1.0000 0 0 0 -217.7387 -2.1416 L -217.7387 -1.0000 A 1.0000 1.0000 0 0 0 -215.7387 -1.0000 L -215.7387 -2.1416 Z" stroke="green" stroke-width="1" fill="none" /><path d="M -235.5854 9.5000 L -235.5854 7.5000 L -237.1562 7.5000 L -237.1562 9.5000 L -235.5854 9.5000 Z" stroke="green" stroke-width="1" fill="none" /><path d="M -257.0029 19.1416 A 1.0000 1.0000 0 0 0 -255.0029 19.1416 L -255.0029 18.0000 A 1.0000 1.0000 0 0 0 -257.0029 18.0000 L -257.0029 19.1416 Z" stroke="green" stroke-width="1" fill="none" /><path d="M -255.0029 -2.1416 A 1.0000 1.0000 0 0 0 -257.0029 -2.1416 L -257.0029 -1.0000 A 1.0000 1.0000 0 0 0 -255.0029 -1.0000 L -255.0029 -2.1416 Z" stroke="green" stroke-width="1" fill="none" /></svg>