0
SECTION
2
ENTITIES
0
LINE
8
PARAMETRIX
10
0.0000
20
37.6934
11
0.0000
21
0.0000
0
LINE
8
PARAMETRIX
10
0.0000
20
0.0000
11
5.0000
21
0.0000
0
LINE
8
PARAMETRIX
10
5.0000
20
0.0000
11
23.3661
21
4.2293
0
ARC
8
PARAMETRIX
10
20.0000
20
18.8467
40
15.0000
50
282.9678
51
77.0322
0
LINE
8
PARAMETRIX
10
23.3661
20
33.4642
11
5.0000
21
37.6934
0
LINE
8
PARAMETRIX
10
5.0000
20
37.6934
11
0.0000
21
37.6934
0
CIRCLE
8
PARAMETRIX
10
20.0000
20
18.8467
40
8.0000
0
LINE
8
PARAMETRIX
10
2.0000
20
36.7434
11
2.0000
21
32.3612
0
ARC
8
PARAMETRIX
10
2.4500
20
32.3612
40
0.4500
50
180.0000
51
270.0000
0
LINE
8
PARAMETRIX
10
2.4500
20
31.9112
11
2.5500
21
31.9112
0
ARC
8
PARAMETRIX
10
2.5500
20
32.3612
40
0.4500
50
270.0000
51
0.0000
0
LINE
8
PARAMETRIX
10
3.0000
20
32.3612
11
3.0000
21
36.7434
0
ARC
8
PARAMETRIX
10
2.5500
20
36.7434
40
0.4500
50
0.0000
51
90.0000
0
LINE
8
PARAMETRIX
10
2.5500
20
37.1934
11
2.4500
21
37.1934
0
ARC
8
PARAMETRIX
10
2.4500
20
36.7434
40
0.4500
50
90.0000
51
180.0000
0
LINE
8
PARAMETRIX
10
2.0000
20
30.4612
11
2.0000
21
19.7967
0
ARC
8
PARAMETRIX
10
2.4500
20
19.7967
40
0.4500
50
180.0000
51
270.0000
0
LINE
8
PARAMETRIX
10
2.4500
20
19.3467
11
2.5500
21
19.3467
0
ARC
8
PARAMETRIX
10
2.5500
20
19.7967
40
0.4500
50
270.0000
51
360.0000
0
LINE
8
PARAMETRIX
10
3.0000
20
19.7967
11
3.0000
21
30.4612
0
ARC
8
PARAMETRIX
10
2.5500
20
30.4612
40
0.4500
50
0.0000
51
90.0000
0
LINE
8
PARAMETRIX
10
2.5500
20
30.9112
11
2.4500
21
30.9112
0
ARC
8
PARAMETRIX
10
2.4500
20
30.4612
40
0.4500
50
90.0000
51
180.0000
0
LINE
8
PARAMETRIX
10
2.0000
20
17.8967
11
2.0000
21
7.2322
0
ARC
8
PARAMETRIX
10
2.4500
20
7.2322
40
0.4500
50
180.0000
51
270.0000
0
LINE
8
PARAMETRIX
10
2.4500
20
6.7822
11
2.5500
21
6.7822
0
ARC
8
PARAMETRIX
10
2.5500
20
7.2322
40
0.4500
50
270.0000
51
0.0000
0
LINE
8
PARAMETRIX
10
3.0000
20
7.2322
11
3.0000
21
17.8967
0
ARC
8
PARAMETRIX
10
2.5500
20
17.8967
40
0.4500
50
360.0000
51
90.0000
0
LINE
8
PARAMETRIX
10
2.5500
20
18.3467
11
2.4500
21
18.3467
0
ARC
8
PARAMETRIX
10
2.4500
20
17.8967
40
0.4500
50
90.0000
51
180.0000
0
LINE
8
PARAMETRIX
10
2.0000
20
5.3322
11
2.0000
21
0.9500
0
ARC
8
PARAMETRIX
10
2.4500
20
0.9500
40
0.4500
50
180.0000
51
270.0000
0
LINE
8
PARAMETRIX
10
2.4500
20
0.5000
11
2.5500
21
0.5000
0
ARC
8
PARAMETRIX
10
2.5500
20
0.9500
40
0.4500
50
270.0000
51
0.0000
0
LINE
8
PARAMETRIX
10
3.0000
20
0.9500
11
3.0000
21
5.3322
0
ARC
8
PARAMETRIX
10
2.5500
20
5.3322
40
0.4500
50
0.0000
51
90.0000
0
LINE
8
PARAMETRIX
10
2.5500
20
5.7822
11
2.4500
21
5.7822
0
ARC
8
PARAMETRIX
10
2.4500
20
5.3322
40
0.4500
50
90.0000
51
180.0000
0
LINE
8
PARAMETRIX
10
4.0000
20
36.7434
11
4.0000
21
26.0790
0
ARC
8
PARAMETRIX
10
4.4500
20
26.0790
40
0.4500
50
180.0000
51
270.0000
0
LINE
8
PARAMETRIX
10
4.4500
20
25.6290
11
4.5500
21
25.6290
0
ARC
8
PARAMETRIX
10
4.5500
20
26.0790
40
0.4500
50
270.0000
51
0.0000
0
LINE
8
PARAMETRIX
10
5.0000
20
26.0790
11
5.0000
21
36.7434
0
ARC
8
PARAMETRIX
10
4.5500
20
36.7434
40
0.4500
50
0.0000
51
90.0000
0
LINE
8
PARAMETRIX
10
4.5500
20
37.1934
11
4.4500
21
37.1934
0
ARC
8
PARAMETRIX
10
4.4500
20
36.7434
40
0.4500
50
90.0000
51
180.0000
0
LINE
8
PARAMETRIX
10
4.0000
20
24.1790
11
4.0000
21
13.5145
0
ARC
8
PARAMETRIX
10
4.4500
20
13.5145
40
0.4500
50
180.0000
51
270.0000
0
LINE
8
PARAMETRIX
10
4.4500
20
13.0645
11
4.5500
21
13.0645
0
ARC
8
PARAMETRIX
10
4.5500
20
13.5145
40
0.4500
50
270.0000
51
0.0000
0
LINE
8
PARAMETRIX
10
5.0000
20
13.5145
11
5.0000
21
24.1790
0
ARC
8
PARAMETRIX
10
4.5500
20
24.1790
40
0.4500
50
0.0000
51
90.0000
0
LINE
8
PARAMETRIX
10
4.5500
20
24.6290
11
4.4500
21
24.6290
0
ARC
8
PARAMETRIX
10
4.4500
20
24.1790
40
0.4500
50
90.0000
51
180.0000
0
LINE
8
PARAMETRIX
10
4.0000
20
11.6145
11
4.0000
21
0.9500
0
ARC
8
PARAMETRIX
10
4.4500
20
0.9500
40
0.4500
50
180.0000
51
270.0000
0
LINE
8
PARAMETRIX
10
4.4500
20
0.5000
11
4.5500
21
0.5000
0
ARC
8
PARAMETRIX
10
4.5500
20
0.9500
40
0.4500
50
270.0000
51
0.0000
0
LINE
8
PARAMETRIX
10
5.0000
20
0.9500
11
5.0000
21
11.6145
0
ARC
8
PARAMETRIX
10
4.5500
20
11.6145
40
0.4500
50
0.0000
51
90.0000
0
LINE
8
PARAMETRIX
10
4.5500
20
12.0645
11
4.4500
21
12.0645
0
ARC
8
PARAMETRIX
10
4.4500
20
11.6145
40
0.4500
50
90.0000
51
180.0000
0
LINE
8
PARAMETRIX
10
6.0000
20
36.3980
11
6.0000
21
32.1309
0
ARC
8
PARAMETRIX
10
6.4500
20
32.1309
40
0.4500
50
180.0000
51
270.0000
0
LINE
8
PARAMETRIX
10
6.4500
20
31.6809
11
6.5500
21
31.6809
0
ARC
8
PARAMETRIX
10
6.5500
20
32.1309
40
0.4500
50
270.0000
51
0.0000
0
LINE
8
PARAMETRIX
10
7.0000
20
32.1309
11
7.0000
21
36.3980
0
ARC
8
PARAMETRIX
10
6.5500
20
36.3980
40
0.4500
50
0.0000
51
90.0000
0
LINE
8
PARAMETRIX
10
6.5500
20
36.8480
11
6.4500
21
36.8480
0
ARC
8
PARAMETRIX
10
6.4500
20
36.3980
40
0.4500
50
90.0000
51
180.0000
0
LINE
8
PARAMETRIX
10
6.0000
20
30.2309
11
6.0000
21
19.7967
0
ARC
8
PARAMETRIX
10
6.4500
20
19.7967
40
0.4500
50
180.0000
51
270.0000
0
LINE
8
PARAMETRIX
10
6.4500
20
19.3467
11
6.5500
21
19.3467
0
ARC
8
PARAMETRIX
10
6.5500
20
19.7967
40
0.4500
50
270.0000
51
0.0000
0
LINE
8
PARAMETRIX
10
7.0000
20
19.7967
11
7.0000
21
30.2309
0
ARC
8
PARAMETRIX
10
6.5500
20
30.2309
40
0.4500
50
360.0000
51
90.0000
0
LINE
8
PARAMETRIX
10
6.5500
20
30.6809
11
6.4500
21
30.6809
0
ARC
8
PARAMETRIX
10
6.4500
20
30.2309
40
0.4500
50
90.0000
51
180.0000
0
LINE
8
PARAMETRIX
10
6.0000
20
17.8967
11
6.0000
21
7.4625
0
ARC
8
PARAMETRIX
10
6.4500
20
7.4625
40
0.4500
50
180.0000
51
270.0000
0
LINE
8
PARAMETRIX
10
6.4500
20
7.0125
11
6.5500
21
7.0125
0
ARC
8
PARAMETRIX
10
6.5500
20
7.4625
40
0.4500
50
270.0000
51
0.0000
0
LINE
8
PARAMETRIX
10
7.0000
20
7.4625
11
7.0000
21
17.8967
0
ARC
8
PARAMETRIX
10
6.5500
20
17.8967
40
0.4500
50
360.0000
51
90.0000
0
LINE
8
PARAMETRIX
10
6.5500
20
18.3467
11
6.4500
21
18.3467
0
ARC
8
PARAMETRIX
10
6.4500
20
17.8967
40
0.4500
50
90.0000
51
180.0000
0
LINE
8
PARAMETRIX
10
6.0000
20
5.5625
11
6.0000
21
1.2954
0
ARC
8
PARAMETRIX
10
6.4500
20
1.2954
40
0.4500
50
180.0000
51
270.0000
0
LINE
8
PARAMETRIX
10
6.4500
20
0.8454
11
6.5500
21
0.8454
0
ARC
8
PARAMETRIX
10
6.5500
20
1.2954
40
0.4500
50
270.0000
51
0.0000
0
LINE
8
PARAMETRIX
10
7.0000
20
1.2954
11
7.0000
21
5.5625
0
ARC
8
PARAMETRIX
10
6.5500
20
5.5625
40
0.4500
50
0.0000
51
90.0000
0
LINE
8
PARAMETRIX
10
6.5500
20
6.0125
11
6.4500
21
6.0125
0
ARC
8
PARAMETRIX
10
6.4500
20
5.5625
40
0.4500
50
90.0000
51
180.0000
0
LINE
8
PARAMETRIX
10
8.0000
20
35.9375
11
8.0000
21
25.8103
0
ARC
8
PARAMETRIX
10
8.4500
20
25.8103
40
0.4500
50
180.0000
51
270.0000
0
LINE
8
PARAMETRIX
10
8.4500
20
25.3603
11
8.5500
21
25.3603
0
ARC
8
PARAMETRIX
10
8.5500
20
25.8103
40
0.4500
50
270.0000
51
360.0000
0
LINE
8
PARAMETRIX
10
9.0000
20
25.8103
11
9.0000
21
35.9375
0
ARC
8
PARAMETRIX
10
8.5500
20
35.9375
40
0.4500
50
0.0000
51
90.0000
0
LINE
8
PARAMETRIX
10
8.5500
20
36.3875
11
8.4500
21
36.3875
0
ARC
8
PARAMETRIX
10
8.4500
20
35.9375
40
0.4500
50
90.0000
51
180.0000
0
LINE
8
PARAMETRIX
10
8.0000
20
23.9103
11
8.0000
21
13.7831
0
ARC
8
PARAMETRIX
10
8.4500
20
13.7831
40
0.4500
50
180.0000
51
270.0000
0
LINE
8
PARAMETRIX
10
8.4500
20
13.3331
11
8.5500
21
13.3331
0
ARC
8
PARAMETRIX
10
8.5500
20
13.7831
40
0.4500
50
270.0000
51
0.0000
0
LINE
8
PARAMETRIX
10
9.0000
20
13.7831
11
9.0000
21
23.9103
0
ARC
8
PARAMETRIX
10
8.5500
20
23.9103
40
0.4500
50
360.0000
51
90.0000
0
LINE
8
PARAMETRIX
10
8.5500
20
24.3603
11
8.4500
21
24.3603
0
ARC
8
PARAMETRIX
10
8.4500
20
23.9103
40
0.4500
50
90.0000
51
180.0000
0
LINE
8
PARAMETRIX
10
8.0000
20
11.8831
11
8.0000
21
1.7560
0
ARC
8
PARAMETRIX
10
8.4500
20
1.7560
40
0.4500
50
180.0000
51
270.0000
0
LINE
8
PARAMETRIX
10
8.4500
20
1.3060
11
8.5500
21
1.3060
0
ARC
8
PARAMETRIX
10
8.5500
20
1.7560
40
0.4500
50
270.0000
51
0.0000
0
LINE
8
PARAMETRIX
10
9.0000
20
1.7560
11
9.0000
21
11.8831
0
ARC
8
PARAMETRIX
10
8.5500
20
11.8831
40
0.4500
50
0.0000
51
90.0000
0
LINE
8
PARAMETRIX
10
8.5500
20
12.3331
11
8.4500
21
12.3331
0
ARC
8
PARAMETRIX
10
8.4500
20
11.8831
40
0.4500
50
90.0000
51
180.0000
0
ENDSEC
0
EOF
