<svg width="450" height="113" viewBox="-381 -44 450 113" xmlns="http://www.w3.org/2000/svg"><path d="M 0.0000 17.0000 L 0.0000 20.1416 L -1.5708 20.1416 L -1.5708 17.0000 L -1.5708 8.5000 L -32.6368 8.5000 L -32.6368 17.0000 L -32.6368 20.1416 L -34.2076 20.1416 L -34.2076 17.0000 L -34.2076 8.5000 L -65.2736 8.5000 L -65.2736 17.0000 L -65.2736 20.1416 L -66.8444 20.1416 L -66.8444 17.0000 L -66.8444 8.5000 L -97.9104 8.5000 L -97.9104 17.0000 L -97.9104 20.1416 L -99.4812 20.1416 L -99.4812 17.0000 L -99.4812 8.5000 L -130.5473 8.5000 L -130.5473 17.0000 L -130.5473 20.1416 L -132.1181 20.1416 L -132.1181 17.0000 L -132.1181 8.5000 L -163.1841 8.5000 L -163.1841 17.0000 L -163.1841 20.1416 L -164.7549 20.1416 L -164.7549 17.0000 L -164.7549 8.5000 L -195.8209 8.5000 L -195.8209 17.0000 L -195.8209 20.1416 L -197.3917 20.1416 L -197.3917 17.0000 L -197.3917 8.5000 L -228.4577 8.5000 L -228.4577 17.0000 L -228.4577 20.1416 L -228.4577 25.1416 L -227.9155 40.6651 A 15.0000 15.0000 0 0 0 -197.9338 40.6651 L -197.3917 25.1416 L -195.8209 25.1416 L -195.2787 40.6651 A 15.0000 15.0000 0 0 0 -165.2970 40.6651 L -164.7549 25.1416 L -163.1841 25.1416 L -162.6419 40.6651 A 15.0000 15.0000 0 0 0 -132.6602 40.6651 L -132.1181 25.1416 L -130.5473 25.1416 L -130.0051 40.6651 A 15.0000 15.0000 0 0 0 -100.0234 40.6651 L -99.4812 25.1416 L -97.9104 25.1416 L -97.3683 40.6651 A 15.0000 15.0000 0 0 0 -67.3866 40.6651 L -66.8444 25.1416 L -65.2736 25.1416 L -64.7315 40.6651 A 15.0000 15.0000 0 0 0 -34.7498 40.6651 L -34.2076 25.1416 L -32.6368 25.1416 L -32.0947 40.6651 A 15.0000 15.0000 0 0 0 -2.1129 40.6651 L -1.5708 25.1416 L 0.0000 25.1416 L 0.5421 40.6651 A 15.0000 15.0000 0 0 0 30.5239 40.6651 L 31.0660 25.1416 L 32.6368 25.1416 L 32.6368 20.1416 L 31.0660 20.1416 L 31.0660 17.0000 L 31.0660 0.0000 L 31.0660 -3.1416 L 39.7645 -3.1416 L 41.3353 -3.1416 L 41.3353 -8.1416 L 39.7645 -8.1416 L 28.9591 -29.8305 A 15.0000 15.0000 0 0 0 2.1070 -29.8305 L -8.6985 -8.1416 L -10.2693 -8.1416 L -21.0747 -29.8305 A 15.0000 15.0000 0 0 0 -47.9268 -29.8305 L -58.7323 -8.1416 L -60.3031 -8.1416 L -71.1085 -29.8305 A 15.0000 15.0000 0 0 0 -97.9606 -29.8305 L -108.7661 -8.1416 L -110.3368 -8.1416 L -121.1423 -29.8305 A 15.0000 15.0000 0 0 0 -147.9944 -29.8305 L -158.7998 -8.1416 L -160.3706 -8.1416 L -171.1761 -29.8305 A 15.0000 15.0000 0 0 0 -198.0282 -29.8305 L -208.8336 -8.1416 L -210.4044 -8.1416 L -221.2099 -29.8305 A 15.0000 15.0000 0 0 0 -248.0620 -29.8305 L -258.8674 -8.1416 L -260.4382 -8.1416 L -271.2436 -29.8305 A 15.0000 15.0000 0 0 0 -298.0957 -29.8305 L -308.9012 -8.1416 L -310.4720 -8.1416 L -321.2774 -29.8305 A 15.0000 15.0000 0 0 0 -348.1295 -29.8305 L -358.9350 -8.1416 L -358.9350 -3.1416 L -350.2365 -3.1416 L -350.2365 0.0000 L -350.2365 8.5000 L -319.1705 8.5000 L -319.1705 0.0000 L -319.1705 -3.1416 L -310.4720 -3.1416 L -308.9012 -3.1416 L -300.2027 -3.1416 L -300.2027 0.0000 L -300.2027 8.5000 L -269.1367 8.5000 L -269.1367 0.0000 L -269.1367 -3.1416 L -260.4382 -3.1416 L -258.8674 -3.1416 L -250.1689 -3.1416 L -250.1689 0.0000 L -250.1689 8.5000 L -219.1029 8.5000 L -219.1029 0.0000 L -219.1029 -3.1416 L -210.4044 -3.1416 L -208.8336 -3.1416 L -200.1351 -3.1416 L -200.1351 0.0000 L -200.1351 8.5000 L -169.0691 8.5000 L -169.0691 0.0000 L -169.0691 -3.1416 L -160.3706 -3.1416 L -158.7998 -3.1416 L -150.1013 -3.1416 L -150.1013 0.0000 L -150.1013 8.5000 L -119.0353 8.5000 L -119.0353 0.0000 L -119.0353 -3.1416 L -110.3368 -3.1416 L -108.7661 -3.1416 L -100.0676 -3.1416 L -100.0676 0.0000 L -100.0676 8.5000 L -69.0015 8.5000 L -69.0015 0.0000 L -69.0015 -3.1416 L -60.3031 -3.1416 L -58.7323 -3.1416 L -50.0338 -3.1416 L -50.0338 0.0000 L -50.0338 8.5000 L -18.9678 8.5000 L -18.9678 0.0000 L -18.9678 -3.1416 L -10.2693 -3.1416 L -8.6985 -3.1416 L 0.0000 -3.1416 L 0.0000 0.0000 L 0.0000 17.0000 Z" stroke="green" stroke-width="1" fill="none" /><path d="M 0.0000 17.0000 L 0.0000 20.1416 L -1.5708 20.1416 L -1.5708 17.0000 L -1.5708 8.5000 L -32.6368 8.5000 L -32.6368 17.0000 L -32.6368 20.1416 L -34.2076 20.1416 L -34.2076 17.0000 L -34.2076 8.5000 L -65.2736 8.5000 L -65.2736 17.0000 L -65.2736 20.1416 L -66.8444 20.1416 L -66.8444 17.0000 L -66.8444 8.5000 L -97.9104 8.5000 L -97.9104 17.0000 L -97.9104 20.1416 L -99.4812 20.1416 L -99.4812 17.0000 L -99.4812 8.5000 L -130.5473 8.5000 L -130.5473 17.0000 L -130.5473 20.1416 L -132.1181 20.1416 L -132.1181 17.0000 L -132.1181 8.5000 L -163.1841 8.5000 L -163.1841 17.0000 L -163.1841 20.1416 L -164.7549 20.1416 L -164.7549 17.0000 L -164.7549 8.5000 L -195.8209 8.5000 L -195.8209 17.0000 L -195.8209 20.1416 L -197.3917 20.1416 L -197.3917 17.0000 L -197.3917 8.5000 L -228.4577 8.5000 L -228.4577 17.0000 L -228.4577 20.1416 L -228.4577 25.1416 L -227.9155 40.6651 A 15.0000 15.0000 0 0 0 -197.9338 40.6651 L -197.3917 25.1416 L -195.8209 25.1416 L -195.2787 40.6651 A 15.0000 15.0000 0 0 0 -165.2970 40.6651 L -164.7549 25.1416 L -163.1841 25.1416 L -162.6419 40.6651 A 15.0000 15.0000 0 0 0 -132.6602 40.6651 L -132.1181 25.1416 L -130.5473 25.1416 L -130.0051 40.6651 A 15.0000 15.0000 0 0 0 -100.0234 40.6651 L -99.4812 25.1416 L -97.9104 25.1416 L -97.3683 40.6651 A 15.0000 15.0000 0 0 0 -67.3866 40.6651 L -66.8444 25.1416 L -65.2736 25.1416 L -64.7315 40.6651 A 15.0000 15.0000 0 0 0 -34.7498 40.6651 L -34.2076 25.1416 L -32.6368 25.1416 L -32.0947 40.6651 A 15.0000 15.0000 0 0 0 -2.1129 40.6651 L -1.5708 25.1416 L 0.0000 25.1416 L 0.5421 40.6651 A 15.0000 15.0000 0 0 0 30.5239 40.6651 L 31.0660 25.1416 L 32.6368 25.1416 L 32.6368 20.1416 L 31.0660 20.1416 L 31.0660 17.0000 L 31.0660 0.0000 L 31.0660 -3.1416 L 39.7645 -3.1416 L 41.3353 -3.1416 L 41.3353 -8.1416 L 39.7645 -8.1416 L 28.9591 -29.8305 A 15.0000 15.0000 0 0 0 2.1070 -29.8305 L -8.6985 -8.1416 L -10.2693 -8.1416 L -21.0747 -29.8305 A 15.0000 15.0000 0 0 0 -47.9268 -29.8305 L -58.7323 -8.1416 L -60.3031 -8.1416 L -71.1085 -29.8305 A 15.0000 15.0000 0 0 0 -97.9606 -29.8305 L -108.7661 -8.1416 L -110.3368 -8.1416 L -121.1423 -29.8305 A 15.0000 15.0000 0 0 0 -147.9944 -29.8305 L -158.7998 -8.1416 L -160.3706 -8.1416 L -171.1761 -29.8305 A 15.0000 15.0000 0 0 0 -198.0282 -29.8305 L -208.8336 -8.1416 L -210.4044 -8.1416 L -221.2099 -29.8305 A 15.0000 15.0000 0 0 0 -248.0620 -29.8305 L -258.8674 -8.1416 L -260.4382 -8.1416 L -271.2436 -29.8305 A 15.0000 15.0000 0 0 0 -298.0957 -29.8305 L -308.9012 -8.1416 L -310.4720 -8.1416 L -321.2774 -29.8305 A 15.0000 15.0000 0 0 0 -348.1295 -29.8305 L -358.9350 -8.1416 L -358.9350 -3.1416 L -350.2365 -3.1416 L -350.2365 0.0000 L -350.2365 8.5000 L -319.1705 8.5000 L -319.1705 0.0000 L -319.1705 -3.1416 L -310.4720 -3.1416 L -308.9012 -3.1416 L -300.2027 -3.1416 L -300.2027 0.0000 L -300.2027 8.5000 L -269.1367 8.5000 L -269.1367 0.0000 L -269.1367 -3.1416 L -260.4382 -3.1416 L -258.8674 -3.1416 L -250.1689 -3.1416 L -250.1689 0.0000 L -250.1689 8.5000 L -219.1029 8.5000 L -219.1029 0.0000 L -219.1029 -3.1416 L -210.4044 -3.1416 L -208.8336 -3.1416 L -200.1351 -3.1416 L -200.1351 0.0000 L -200.1351 8.5000 L -169.0691 8.5000 L -169.0691 0.0000 L -169.0691 -3.1416 L -160.3706 -3.1416 L -158.7998 -3.1416 L -150.1013 -3.1416 L -150.1013 0.0000 L -150.1013 8.5000 L -119.0353 8.5000 L -119.0353 0.0000 L -119.0353 -3.1416 L -110.3368 -3.1416 L -108.7661 -3.1416 L -100.0676 -3.1416 L -100.0676 0.0000 L -100.0676 8.5000 L -69.0015 8.5000 L -69.0015 0.0000 L -69.0015 -3.1416 L -60.3031 -3.1416 L -58.7323 -3.1416 L -50.0338 -3.1416 L -50.0338 0.0000 L -50.0338 8.5000 L -18.9678 8.5000 L -18.9678 0.0000 L -18.9678 -3.1416 L -10.2693 -3.1416 L -8.6985 -3.1416 L 0.0000 -3.1416 L 0.0000 0.0000 L 0.0000 17.0000 Z" stroke="green" stroke-width="1" fill="none" /><circle cx="4.2500" cy="12.7500" r="2.1250" stroke="green" stroke-width="1" fill="none" /><circle cx="26.8160" cy="12.7500" r="2.1250" stroke="green" stroke-width="1" fill="none" /><circle cx="4.2500" cy="4.2500" r="2.1250" stroke="green" stroke-width="1" fill="none" /><circle cx="26.8160" cy="4.2500" r="2.1250" stroke="green" stroke-width="1" fill="none" /><circle cx="15.5330" cy="40.1416" r="8.0000" stroke="green" stroke-width="1" fill="none" /><path d="M 30.1160 22.1416 L 26.8383 22.1416 A 0.4500 0.4500 0 0 0 26.3883 22.5916 L 26.3883 22.6916 A 0.4500 0.4500 0 0 0 26.8383 23.1416 L 30.1160 23.1416 A 0.4500 0.4500 0 0 0 30.5660 22.6916 L 30.5660 22.5916 A 0.4500 0.4500 0 0 0 30.1160 22.1416 Z" stroke="green" stroke-width="1" fill="none" /><path d="M 24.9383 22.1416 L 16.4830 22.1416 A 0.4500 0.4500 0 0 0 16.0330 22.5916 L 16.0330 22.6916 A 0.4500 0.4500 0 0 0 16.4830 23.1416 L 24.9383 23.1416 A 0.4500 0.4500 0 0 0 25.3883 22.6916 L 25.3883 22.5916 A 0.4500 0.4500 0 0 0 24.9383 22.1416 Z" stroke="green" stroke-width="1" fill="none" /><path d="M 14.5830 22.1416 L 6.1277 22.1416 A 0.4500 0.4500 0 0 0 5.6777 22.5916 L 5.6777 22.6916 A 0.4500 0.4500 0 0 0 6.1277 23.1416 L 14.5830 23.1416 A 0.4500 0.4500 0 0 0 15.0330 22.6916 L 15.0330 22.5916 A 0.4500 0.4500 0 0 0 14.5830 22.1416 Z" stroke="green" stroke-width="1" fill="none" /><path d="M 4.2277 22.1416 L 0.9500 22.1416 A 0.4500 0.4500 0 0 0 0.5000 22.5916 L 0.5000 22.6916 A 0.4500 0.4500 0 0 0 0.9500 23.1416 L 4.2277 23.1416 A 0.4500 0.4500 0 0 0 4.6777 22.6916 L 4.6777 22.5916 A 0.4500 0.4500 0 0 0 4.2277 22.1416 Z" stroke="green" stroke-width="1" fill="none" /><path d="M 30.1160 24.1416 L 21.6607 24.1416 A 0.4500 0.4500 0 0 0 21.2107 24.5916 L 21.2107 24.6916 A 0.4500 0.4500 0 0 0 21.6607 25.1416 L 30.1160 25.1416 A 0.4500 0.4500 0 0 0 30.5660 24.6916 L 30.5660 24.5916 A 0.4500 0.4500 0 0 0 30.1160 24.1416 Z" stroke="green" stroke-width="1" fill="none" /><path d="M 19.7607 24.1416 L 11.3053 24.1416 A 0.4500 0.4500 0 0 0 10.8553 24.5916 L 10.8553 24.6916 A 0.4500 0.4500 0 0 0 11.3053 25.1416 L 19.7607 25.1416 A 0.4500 0.4500 0 0 0 20.2107 24.6916 L 20.2107 24.5916 A 0.4500 0.4500 0 0 0 19.7607 24.1416 Z" stroke="green" stroke-width="1" fill="none" /><path d="M 9.4053 24.1416 L 0.9500 24.1416 A 0.4500 0.4500 0 0 0 0.5000 24.5916 L 0.5000 24.6916 A 0.4500 0.4500 0 0 0 0.9500 25.1416 L 9.4053 25.1416 A 0.4500 0.4500 0 0 0 9.8553 24.6916 L 9.8553 24.5916 A 0.4500 0.4500 0 0 0 9.4053 24.1416 Z" stroke="green" stroke-width="1" fill="none" /><path d="M 30.0636 26.1416 L 26.8034 26.1416 A 0.4500 0.4500 0 0 0 26.3534 26.5916 L 26.3534 26.6916 A 0.4500 0.4500 0 0 0 26.8034 27.1416 L 30.0636 27.1416 A 0.4500 0.4500 0 0 0 30.5136 26.6916 L 30.5136 26.5916 A 0.4500 0.4500 0 0 0 30.0636 26.1416 Z" stroke="green" stroke-width="1" fill="none" /><path d="M 24.9034 26.1416 L 16.4830 26.1416 A 0.4500 0.4500 0 0 0 16.0330 26.5916 L 16.0330 26.6916 A 0.4500 0.4500 0 0 0 16.4830 27.1416 L 24.9034 27.1416 A 0.4500 0.4500 0 0 0 25.3534 26.6916 L 25.3534 26.5916 A 0.4500 0.4500 0 0 0 24.9034 26.1416 Z" stroke="green" stroke-width="1" fill="none" /><path d="M 14.5830 26.1416 L 6.1626 26.1416 A 0.4500 0.4500 0 0 0 5.7126 26.5916 L 5.7126 26.6916 A 0.4500 0.4500 0 0 0 6.1626 27.1416 L 14.5830 27.1416 A 0.4500 0.4500 0 0 0 15.0330 26.6916 L 15.0330 26.5916 A 0.4500 0.4500 0 0 0 14.5830 26.1416 Z" stroke="green" stroke-width="1" fill="none" /><path d="M 4.2626 26.1416 L 1.0024 26.1416 A 0.4500 0.4500 0 0 0 0.5524 26.5916 L 0.5524 26.6916 A 0.4500 0.4500 0 0 0 1.0024 27.1416 L 4.2626 27.1416 A 0.4500 0.4500 0 0 0 4.7126 26.6916 L 4.7126 26.5916 A 0.4500 0.4500 0 0 0 4.2626 26.1416 Z" stroke="green" stroke-width="1" fill="none" /><path d="M 29.9938 28.1416 L 21.6199 28.1416 A 0.4500 0.4500 0 0 0 21.1699 28.5916 L 21.1699 28.6916 A 0.4500 0.4500 0 0 0 21.6199 29.1416 L 29.9938 29.1416 A 0.4500 0.4500 0 0 0 30.4438 28.6916 L 30.4438 28.5916 A 0.4500 0.4500 0 0 0 29.9938 28.1416 Z" stroke="green" stroke-width="1" fill="none" /><path d="M 19.7199 28.1416 L 11.3461 28.1416 A 0.4500 0.4500 0 0 0 10.8961 28.5916 L 10.8961 28.6916 A 0.4500 0.4500 0 0 0 11.3461 29.1416 L 19.7199 29.1416 A 0.4500 0.4500 0 0 0 20.1699 28.6916 L 20.1699 28.5916 A 0.4500 0.4500 0 0 0 19.7199 28.1416 Z" stroke="green" stroke-width="1" fill="none" /><path d="M 9.4461 28.1416 L 1.0722 28.1416 A 0.4500 0.4500 0 0 0 0.6222 28.5916 L 0.6222 28.6916 A 0.4500 0.4500 0 0 0 1.0722 29.1416 L 9.4461 29.1416 A 0.4500 0.4500 0 0 0 9.8961 28.6916 L 9.8961 28.5916 A 0.4500 0.4500 0 0 0 9.4461 28.1416 Z" stroke="green" stroke-width="1" fill="none" /><circle cx="-17.1038" cy="40.1416" r="8.0000" stroke="green" stroke-width="1" fill="none" /><path d="M -2.5208 22.1416 L -5.7985 22.1416 A 0.4500 0.4500 0 0 0 -6.2485 22.5916 L -6.2485 22.6916 A 0.4500 0.4500 0 0 0 -5.7985 23.1416 L -2.5208 23.1416 A 0.4500 0.4500 0 0 0 -2.0708 22.6916 L -2.0708 22.5916 A 0.4500 0.4500 0 0 0 -2.5208 22.1416 Z" stroke="green" stroke-width="1" fill="none" /><path d="M -7.6985 22.1416 L -16.1538 22.1416 A 0.4500 0.4500 0 0 0 -16.6038 22.5916 L -16.6038 22.6916 A 0.4500 0.4500 0 0 0 -16.1538 23.1416 L -7.6985 23.1416 A 0.4500 0.4500 0 0 0 -7.2485 22.6916 L -7.2485 22.5916 A 0.4500 0.4500 0 0 0 -7.6985 22.1416 Z" stroke="green" stroke-width="1" fill="none" /><path d="M -18.0538 22.1416 L -26.5091 22.1416 A 0.4500 0.4500 0 0 0 -26.9591 22.5916 L -26.9591 22.6916 A 0.4500 0.4500 0 0 0 -26.5091 23.1416 L -18.0538 23.1416 A 0.4500 0.4500 0 0 0 -17.6038 22.6916 L -17.6038 22.5916 A 0.4500 0.4500 0 0 0 -18.0538 22.1416 Z" stroke="green" stroke-width="1" fill="none" /><path d="M -28.4091 22.1416 L -31.6868 22.1416 A 0.4500 0.4500 0 0 0 -32.1368 22.5916 L -32.1368 22.6916 A 0.4500 0.4500 0 0 0 -31.6868 23.1416 L -28.4091 23.1416 A 0.4500 0.4500 0 0 0 -27.9591 22.6916 L -27.9591 22.5916 A 0.4500 0.4500 0 0 0 -28.4091 22.1416 Z" stroke="green" stroke-width="1" fill="none" /><path d="M -2.5208 24.1416 L -10.9761 24.1416 A 0.4500 0.4500 0 0 0 -11.4261 24.5916 L -11.4261 24.6916 A 0.4500 0.4500 0 0 0 -10.9761 25.1416 L -2.5208 25.1416 A 0.4500 0.4500 0 0 0 -2.0708 24.6916 L -2.0708 24.5916 A 0.4500 0.4500 0 0 0 -2.5208 24.1416 Z" stroke="green" stroke-width="1" fill="none" /><path d="M -12.8761 24.1416 L -21.3315 24.1416 A 0.4500 0.4500 0 0 0 -21.7815 24.5916 L -21.7815 24.6916 A 0.4500 0.4500 0 0 0 -21.3315 25.1416 L -12.8761 25.1416 A 0.4500 0.4500 0 0 0 -12.4261 24.6916 L -12.4261 24.5916 A 0.4500 0.4500 0 0 0 -12.8761 24.1416 Z" stroke="green" stroke-width="1" fill="none" /><path d="M -23.2315 24.1416 L -31.6868 24.1416 A 0.4500 0.4500 0 0 0 -32.1368 24.5916 L -32.1368 24.6916 A 0.4500 0.4500 0 0 0 -31.6868 25.1416 L -23.2315 25.1416 A 0.4500 0.4500 0 0 0 -22.7815 24.6916 L -22.7815 24.5916 A 0.4500 0.4500 0 0 0 -23.2315 24.1416 Z" stroke="green" stroke-width="1" fill="none" /><path d="M -2.5732 26.1416 L -5.8334 26.1416 A 0.4500 0.4500 0 0 0 -6.2834 26.5916 L -6.2834 26.6916 A 0.4500 0.4500 0 0 0 -5.8334 27.1416 L -2.5732 27.1416 A 0.4500 0.4500 0 0 0 -2.1232 26.6916 L -2.1232 26.5916 A 0.4500 0.4500 0 0 0 -2.5732 26.1416 Z" stroke="green" stroke-width="1" fill="none" /><path d="M -7.7334 26.1416 L -16.1538 26.1416 A 0.4500 0.4500 0 0 0 -16.6038 26.5916 L -16.6038 26.6916 A 0.4500 0.4500 0 0 0 -16.1538 27.1416 L -7.7334 27.1416 A 0.4500 0.4500 0 0 0 -7.2834 26.6916 L -7.2834 26.5916 A 0.4500 0.4500 0 0 0 -7.7334 26.1416 Z" stroke="green" stroke-width="1" fill="none" /><path d="M -18.0538 26.1416 L -26.4742 26.1416 A 0.4500 0.4500 0 0 0 -26.9242 26.5916 L -26.9242 26.6916 A 0.4500 0.4500 0 0 0 -26.4742 27.1416 L -18.0538 27.1416 A 0.4500 0.4500 0 0 0 -17.6038 26.6916 L -17.6038 26.5916 A 0.4500 0.4500 0 0 0 -18.0538 26.1416 Z" stroke="green" stroke-width="1" fill="none" /><path d="M -28.3742 26.1416 L -31.6344 26.1416 A 0.4500 0.4500 0 0 0 -32.0844 26.5916 L -32.0844 26.6916 A 0.4500 0.4500 0 0 0 -31.6344 27.1416 L -28.3742 27.1416 A 0.4500 0.4500 0 0 0 -27.9242 26.6916 L -27.9242 26.5916 A 0.4500 0.4500 0 0 0 -28.3742 26.1416 Z" stroke="green" stroke-width="1" fill="none" /><path d="M -2.6430 28.1416 L -11.0169 28.1416 A 0.4500 0.4500 0 0 0 -11.4669 28.5916 L -11.4669 28.6916 A 0.4500 0.4500 0 0 0 -11.0169 29.1416 L -2.6430 29.1416 A 0.4500 0.4500 0 0 0 -2.1930 28.6916 L -2.1930 28.5916 A 0.4500 0.4500 0 0 0 -2.6430 28.1416 Z" stroke="green" stroke-width="1" fill="none" /><path d="M -12.9169 28.1416 L -21.2907 28.1416 A 0.4500 0.4500 0 0 0 -21.7407 28.5916 L -21.7407 28.6916 A 0.4500 0.4500 0 0 0 -21.2907 29.1416 L -12.9169 29.1416 A 0.4500 0.4500 0 0 0 -12.4669 28.6916 L -12.4669 28.5916 A 0.4500 0.4500 0 0 0 -12.9169 28.1416 Z" stroke="green" stroke-width="1" fill="none" /><path d="M -23.1907 28.1416 L -31.5646 28.1416 A 0.4500 0.4500 0 0 0 -32.0146 28.5916 L -32.0146 28.6916 A 0.4500 0.4500 0 0 0 -31.5646 29.1416 L -23.1907 29.1416 A 0.4500 0.4500 0 0 0 -22.7407 28.6916 L -22.7407 28.5916 A 0.4500 0.4500 0 0 0 -23.1907 28.1416 Z" stroke="green" stroke-width="1" fill="none" /><circle cx="-28.3868" cy="12.7500" r="2.1250" stroke="green" stroke-width="1" fill="none" /><circle cx="-5.8208" cy="12.7500" r="2.1250" stroke="green" stroke-width="1" fill="none" /><circle cx="-49.7406" cy="40.1416" r="8.0000" stroke="green" stroke-width="1" fill="none" /><path d="M -35.1576 22.1416 L -38.4353 22.1416 A 0.4500 0.4500 0 0 0 -38.8853 22.5916 L -38.8853 22.6916 A 0.4500 0.4500 0 0 0 -38.4353 23.1416 L -35.1576 23.1416 A 0.4500 0.4500 0 0 0 -34.7076 22.6916 L -34.7076 22.5916 A 0.4500 0.4500 0 0 0 -35.1576 22.1416 Z" stroke="green" stroke-width="1" fill="none" /><path d="M -40.3353 22.1416 L -48.7906 22.1416 A 0.4500 0.4500 0 0 0 -49.2406 22.5916 L -49.2406 22.6916 A 0.4500 0.4500 0 0 0 -48.7906 23.1416 L -40.3353 23.1416 A 0.4500 0.4500 0 0 0 -39.8853 22.6916 L -39.8853 22.5916 A 0.4500 0.4500 0 0 0 -40.3353 22.1416 Z" stroke="green" stroke-width="1" fill="none" /><path d="M -50.6906 22.1416 L -59.1460 22.1416 A 0.4500 0.4500 0 0 0 -59.5960 22.5916 L -59.5960 22.6916 A 0.4500 0.4500 0 0 0 -59.1460 23.1416 L -50.6906 23.1416 A 0.4500 0.4500 0 0 0 -50.2406 22.6916 L -50.2406 22.5916 A 0.4500 0.4500 0 0 0 -50.6906 22.1416 Z" stroke="green" stroke-width="1" fill="none" /><path d="M -61.0460 22.1416 L -64.3236 22.1416 A 0.4500 0.4500 0 0 0 -64.7736 22.5916 L -64.7736 22.6916 A 0.4500 0.4500 0 0 0 -64.3236 23.1416 L -61.0460 23.1416 A 0.4500 0.4500 0 0 0 -60.5960 22.6916 L -60.5960 22.5916 A 0.4500 0.4500 0 0 0 -61.0460 22.1416 Z" stroke="green" stroke-width="1" fill="none" /><path d="M -35.1576 24.1416 L -43.6129 24.1416 A 0.4500 0.4500 0 0 0 -44.0629 24.5916 L -44.0629 24.6916 A 0.4500 0.4500 0 0 0 -43.6129 25.1416 L -35.1576 25.1416 A 0.4500 0.4500 0 0 0 -34.7076 24.6916 L -34.7076 24.5916 A 0.4500 0.4500 0 0 0 -35.1576 24.1416 Z" stroke="green" stroke-width="1" fill="none" /><path d="M -45.5129 24.1416 L -53.9683 24.1416 A 0.4500 0.4500 0 0 0 -54.4183 24.5916 L -54.4183 24.6916 A 0.4500 0.4500 0 0 0 -53.9683 25.1416 L -45.5129 25.1416 A 0.4500 0.4500 0 0 0 -45.0629 24.6916 L -45.0629 24.5916 A 0.4500 0.4500 0 0 0 -45.5129 24.1416 Z" stroke="green" stroke-width="1" fill="none" /><path d="M -55.8683 24.1416 L -64.3236 24.1416 A 0.4500 0.4500 0 0 0 -64.7736 24.5916 L -64.7736 24.6916 A 0.4500 0.4500 0 0 0 -64.3236 25.1416 L -55.8683 25.1416 A 0.4500 0.4500 0 0 0 -55.4183 24.6916 L -55.4183 24.5916 A 0.4500 0.4500 0 0 0 -55.8683 24.1416 Z" stroke="green" stroke-width="1" fill="none" /><path d="M -35.2100 26.1416 L -38.4702 26.1416 A 0.4500 0.4500 0 0 0 -38.9202 26.5916 L -38.9202 26.6916 A 0.4500 0.4500 0 0 0 -38.4702 27.1416 L -35.2100 27.1416 A 0.4500 0.4500 0 0 0 -34.7600 26.6916 L -34.7600 26.5916 A 0.4500 0.4500 0 0 0 -35.2100 26.1416 Z" stroke="green" stroke-width="1" fill="none" /><path d="M -40.3702 26.1416 L -48.7906 26.1416 A 0.4500 0.4500 0 0 0 -49.2406 26.5916 L -49.2406 26.6916 A 0.4500 0.4500 0 0 0 -48.7906 27.1416 L -40.3702 27.1416 A 0.4500 0.4500 0 0 0 -39.9202 26.6916 L -39.9202 26.5916 A 0.4500 0.4500 0 0 0 -40.3702 26.1416 Z" stroke="green" stroke-width="1" fill="none" /><path d="M -50.6906 26.1416 L -59.1110 26.1416 A 0.4500 0.4500 0 0 0 -59.5610 26.5916 L -59.5610 26.6916 A 0.4500 0.4500 0 0 0 -59.1110 27.1416 L -50.6906 27.1416 A 0.4500 0.4500 0 0 0 -50.2406 26.6916 L -50.2406 26.5916 A 0.4500 0.4500 0 0 0 -50.6906 26.1416 Z" stroke="green" stroke-width="1" fill="none" /><path d="M -61.0110 26.1416 L -64.2712 26.1416 A 0.4500 0.4500 0 0 0 -64.7212 26.5916 L -64.7212 26.6916 A 0.4500 0.4500 0 0 0 -64.2712 27.1416 L -61.0110 27.1416 A 0.4500 0.4500 0 0 0 -60.5610 26.6916 L -60.5610 26.5916 A 0.4500 0.4500 0 0 0 -61.0110 26.1416 Z" stroke="green" stroke-width="1" fill="none" /><path d="M -35.2798 28.1416 L -43.6537 28.1416 A 0.4500 0.4500 0 0 0 -44.1037 28.5916 L -44.1037 28.6916 A 0.4500 0.4500 0 0 0 -43.6537 29.1416 L -35.2798 29.1416 A 0.4500 0.4500 0 0 0 -34.8298 28.6916 L -34.8298 28.5916 A 0.4500 0.4500 0 0 0 -35.2798 28.1416 Z" stroke="green" stroke-width="1" fill="none" /><path d="M -45.5537 28.1416 L -53.9275 28.1416 A 0.4500 0.4500 0 0 0 -54.3775 28.5916 L -54.3775 28.6916 A 0.4500 0.4500 0 0 0 -53.9275 29.1416 L -45.5537 29.1416 A 0.4500 0.4500 0 0 0 -45.1037 28.6916 L -45.1037 28.5916 A 0.4500 0.4500 0 0 0 -45.5537 28.1416 Z" stroke="green" stroke-width="1" fill="none" /><path d="M -55.8275 28.1416 L -64.2014 28.1416 A 0.4500 0.4500 0 0 0 -64.6514 28.5916 L -64.6514 28.6916 A 0.4500 0.4500 0 0 0 -64.2014 29.1416 L -55.8275 29.1416 A 0.4500 0.4500 0 0 0 -55.3775 28.6916 L -55.3775 28.5916 A 0.4500 0.4500 0 0 0 -55.8275 28.1416 Z" stroke="green" stroke-width="1" fill="none" /><circle cx="-61.0236" cy="12.7500" r="2.1250" stroke="green" stroke-width="1" fill="none" /><circle cx="-38.4576" cy="12.7500" r="2.1250" stroke="green" stroke-width="1" fill="none" /><circle cx="-82.3774" cy="40.1416" r="8.0000" stroke="green" stroke-width="1" fill="none" /><path d="M -67.7944 22.1416 L -71.0721 22.1416 A 0.4500 0.4500 0 0 0 -71.5221 22.5916 L -71.5221 22.6916 A 0.4500 0.4500 0 0 0 -71.0721 23.1416 L -67.7944 23.1416 A 0.4500 0.4500 0 0 0 -67.3444 22.6916 L -67.3444 22.5916 A 0.4500 0.4500 0 0 0 -67.7944 22.1416 Z" stroke="green" stroke-width="1" fill="none" /><path d="M -72.9721 22.1416 L -81.4274 22.1416 A 0.4500 0.4500 0 0 0 -81.8774 22.5916 L -81.8774 22.6916 A 0.4500 0.4500 0 0 0 -81.4274 23.1416 L -72.9721 23.1416 A 0.4500 0.4500 0 0 0 -72.5221 22.6916 L -72.5221 22.5916 A 0.4500 0.4500 0 0 0 -72.9721 22.1416 Z" stroke="green" stroke-width="1" fill="none" /><path d="M -83.3274 22.1416 L -91.7828 22.1416 A 0.4500 0.4500 0 0 0 -92.2328 22.5916 L -92.2328 22.6916 A 0.4500 0.4500 0 0 0 -91.7828 23.1416 L -83.3274 23.1416 A 0.4500 0.4500 0 0 0 -82.8774 22.6916 L -82.8774 22.5916 A 0.4500 0.4500 0 0 0 -83.3274 22.1416 Z" stroke="green" stroke-width="1" fill="none" /><path d="M -93.6828 22.1416 L -96.9604 22.1416 A 0.4500 0.4500 0 0 0 -97.4104 22.5916 L -97.4104 22.6916 A 0.4500 0.4500 0 0 0 -96.9604 23.1416 L -93.6828 23.1416 A 0.4500 0.4500 0 0 0 -93.2328 22.6916 L -93.2328 22.5916 A 0.4500 0.4500 0 0 0 -93.6828 22.1416 Z" stroke="green" stroke-width="1" fill="none" /><path d="M -67.7944 24.1416 L -76.2498 24.1416 A 0.4500 0.4500 0 0 0 -76.6998 24.5916 L -76.6998 24.6916 A 0.4500 0.4500 0 0 0 -76.2498 25.1416 L -67.7944 25.1416 A 0.4500 0.4500 0 0 0 -67.3444 24.6916 L -67.3444 24.5916 A 0.4500 0.4500 0 0 0 -67.7944 24.1416 Z" stroke="green" stroke-width="1" fill="none" /><path d="M -78.1498 24.1416 L -86.6051 24.1416 A 0.4500 0.4500 0 0 0 -87.0551 24.5916 L -87.0551 24.6916 A 0.4500 0.4500 0 0 0 -86.6051 25.1416 L -78.1498 25.1416 A 0.4500 0.4500 0 0 0 -77.6998 24.6916 L -77.6998 24.5916 A 0.4500 0.4500 0 0 0 -78.1498 24.1416 Z" stroke="green" stroke-width="1" fill="none" /><path d="M -88.5051 24.1416 L -96.9604 24.1416 A 0.4500 0.4500 0 0 0 -97.4104 24.5916 L -97.4104 24.6916 A 0.4500 0.4500 0 0 0 -96.9604 25.1416 L -88.5051 25.1416 A 0.4500 0.4500 0 0 0 -88.0551 24.6916 L -88.0551 24.5916 A 0.4500 0.4500 0 0 0 -88.5051 24.1416 Z" stroke="green" stroke-width="1" fill="none" /><path d="M -67.8468 26.1416 L -71.1070 26.1416 A 0.4500 0.4500 0 0 0 -71.5570 26.5916 L -71.5570 26.6916 A 0.4500 0.4500 0 0 0 -71.1070 27.1416 L -67.8468 27.1416 A 0.4500 0.4500 0 0 0 -67.3968 26.6916 L -67.3968 26.5916 A 0.4500 0.4500 0 0 0 -67.8468 26.1416 Z" stroke="green" stroke-width="1" fill="none" /><path d="M -73.0070 26.1416 L -81.4274 26.1416 A 0.4500 0.4500 0 0 0 -81.8774 26.5916 L -81.8774 26.6916 A 0.4500 0.4500 0 0 0 -81.4274 27.1416 L -73.0070 27.1416 A 0.4500 0.4500 0 0 0 -72.5570 26.6916 L -72.5570 26.5916 A 0.4500 0.4500 0 0 0 -73.0070 26.1416 Z" stroke="green" stroke-width="1" fill="none" /><path d="M -83.3274 26.1416 L -91.7478 26.1416 A 0.4500 0.4500 0 0 0 -92.1978 26.5916 L -92.1978 26.6916 A 0.4500 0.4500 0 0 0 -91.7478 27.1416 L -83.3274 27.1416 A 0.4500 0.4500 0 0 0 -82.8774 26.6916 L -82.8774 26.5916 A 0.4500 0.4500 0 0 0 -83.3274 26.1416 Z" stroke="green" stroke-width="1" fill="none" /><path d="M -93.6478 26.1416 L -96.9081 26.1416 A 0.4500 0.4500 0 0 0 -97.3581 26.5916 L -97.3581 26.6916 A 0.4500 0.4500 0 0 0 -96.9081 27.1416 L -93.6478 27.1416 A 0.4500 0.4500 0 0 0 -93.1978 26.6916 L -93.1978 26.5916 A 0.4500 0.4500 0 0 0 -93.6478 26.1416 Z" stroke="green" stroke-width="1" fill="none" /><path d="M -67.9167 28.1416 L -76.2905 28.1416 A 0.4500 0.4500 0 0 0 -76.7405 28.5916 L -76.7405 28.6916 A 0.4500 0.4500 0 0 0 -76.2905 29.1416 L -67.9167 29.1416 A 0.4500 0.4500 0 0 0 -67.4667 28.6916 L -67.4667 28.5916 A 0.4500 0.4500 0 0 0 -67.9167 28.1416 Z" stroke="green" stroke-width="1" fill="none" /><path d="M -78.1905 28.1416 L -86.5644 28.1416 A 0.4500 0.4500 0 0 0 -87.0144 28.5916 L -87.0144 28.6916 A 0.4500 0.4500 0 0 0 -86.5644 29.1416 L -78.1905 29.1416 A 0.4500 0.4500 0 0 0 -77.7405 28.6916 L -77.7405 28.5916 A 0.4500 0.4500 0 0 0 -78.1905 28.1416 Z" stroke="green" stroke-width="1" fill="none" /><path d="M -88.4644 28.1416 L -96.8382 28.1416 A 0.4500 0.4500 0 0 0 -97.2882 28.5916 L -97.2882 28.6916 A 0.4500 0.4500 0 0 0 -96.8382 29.1416 L -88.4644 29.1416 A 0.4500 0.4500 0 0 0 -88.0144 28.6916 L -88.0144 28.5916 A 0.4500 0.4500 0 0 0 -88.4644 28.1416 Z" stroke="green" stroke-width="1" fill="none" /><circle cx="-93.6604" cy="12.7500" r="2.1250" stroke="green" stroke-width="1" fill="none" /><circle cx="-71.0944" cy="12.7500" r="2.1250" stroke="green" stroke-width="1" fill="none" /><circle cx="-115.0142" cy="40.1416" r="8.0000" stroke="green" stroke-width="1" fill="none" /><path d="M -100.4312 22.1416 L -103.7089 22.1416 A 0.4500 0.4500 0 0 0 -104.1589 22.5916 L -104.1589 22.6916 A 0.4500 0.4500 0 0 0 -103.7089 23.1416 L -100.4312 23.1416 A 0.4500 0.4500 0 0 0 -99.9812 22.6916 L -99.9812 22.5916 A 0.4500 0.4500 0 0 0 -100.4312 22.1416 Z" stroke="green" stroke-width="1" fill="none" /><path d="M -105.6089 22.1416 L -114.0642 22.1416 A 0.4500 0.4500 0 0 0 -114.5142 22.5916 L -114.5142 22.6916 A 0.4500 0.4500 0 0 0 -114.0642 23.1416 L -105.6089 23.1416 A 0.4500 0.4500 0 0 0 -105.1589 22.6916 L -105.1589 22.5916 A 0.4500 0.4500 0 0 0 -105.6089 22.1416 Z" stroke="green" stroke-width="1" fill="none" /><path d="M -115.9642 22.1416 L -124.4196 22.1416 A 0.4500 0.4500 0 0 0 -124.8696 22.5916 L -124.8696 22.6916 A 0.4500 0.4500 0 0 0 -124.4196 23.1416 L -115.9642 23.1416 A 0.4500 0.4500 0 0 0 -115.5142 22.6916 L -115.5142 22.5916 A 0.4500 0.4500 0 0 0 -115.9642 22.1416 Z" stroke="green" stroke-width="1" fill="none" /><path d="M -126.3196 22.1416 L -129.5973 22.1416 A 0.4500 0.4500 0 0 0 -130.0473 22.5916 L -130.0473 22.6916 A 0.4500 0.4500 0 0 0 -129.5973 23.1416 L -126.3196 23.1416 A 0.4500 0.4500 0 0 0 -125.8696 22.6916 L -125.8696 22.5916 A 0.4500 0.4500 0 0 0 -126.3196 22.1416 Z" stroke="green" stroke-width="1" fill="none" /><path d="M -100.4312 24.1416 L -108.8866 24.1416 A 0.4500 0.4500 0 0 0 -109.3366 24.5916 L -109.3366 24.6916 A 0.4500 0.4500 0 0 0 -108.8866 25.1416 L -100.4312 25.1416 A 0.4500 0.4500 0 0 0 -99.9812 24.6916 L -99.9812 24.5916 A 0.4500 0.4500 0 0 0 -100.4312 24.1416 Z" stroke="green" stroke-width="1" fill="none" /><path d="M -110.7866 24.1416 L -119.2419 24.1416 A 0.4500 0.4500 0 0 0 -119.6919 24.5916 L -119.6919 24.6916 A 0.4500 0.4500 0 0 0 -119.2419 25.1416 L -110.7866 25.1416 A 0.4500 0.4500 0 0 0 -110.3366 24.6916 L -110.3366 24.5916 A 0.4500 0.4500 0 0 0 -110.7866 24.1416 Z" stroke="green" stroke-width="1" fill="none" /><path d="M -121.1419 24.1416 L -129.5973 24.1416 A 0.4500 0.4500 0 0 0 -130.0473 24.5916 L -130.0473 24.6916 A 0.4500 0.4500 0 0 0 -129.5973 25.1416 L -121.1419 25.1416 A 0.4500 0.4500 0 0 0 -120.6919 24.6916 L -120.6919 24.5916 A 0.4500 0.4500 0 0 0 -121.1419 24.1416 Z" stroke="green" stroke-width="1" fill="none" /><path d="M -100.4836 26.1416 L -103.7438 26.1416 A 0.4500 0.4500 0 0 0 -104.1938 26.5916 L -104.1938 26.6916 A 0.4500 0.4500 0 0 0 -103.7438 27.1416 L -100.4836 27.1416 A 0.4500 0.4500 0 0 0 -100.0336 26.6916 L -100.0336 26.5916 A 0.4500 0.4500 0 0 0 -100.4836 26.1416 Z" stroke="green" stroke-width="1" fill="none" /><path d="M -105.6438 26.1416 L -114.0642 26.1416 A 0.4500 0.4500 0 0 0 -114.5142 26.5916 L -114.5142 26.6916 A 0.4500 0.4500 0 0 0 -114.0642 27.1416 L -105.6438 27.1416 A 0.4500 0.4500 0 0 0 -105.1938 26.6916 L -105.1938 26.5916 A 0.4500 0.4500 0 0 0 -105.6438 26.1416 Z" stroke="green" stroke-width="1" fill="none" /><path d="M -115.9642 26.1416 L -124.3847 26.1416 A 0.4500 0.4500 0 0 0 -124.8347 26.5916 L -124.8347 26.6916 A 0.4500 0.4500 0 0 0 -124.3847 27.1416 L -115.9642 27.1416 A 0.4500 0.4500 0 0 0 -115.5142 26.6916 L -115.5142 26.5916 A 0.4500 0.4500 0 0 0 -115.9642 26.1416 Z" stroke="green" stroke-width="1" fill="none" /><path d="M -126.2847 26.1416 L -129.5449 26.1416 A 0.4500 0.4500 0 0 0 -129.9949 26.5916 L -129.9949 26.6916 A 0.4500 0.4500 0 0 0 -129.5449 27.1416 L -126.2847 27.1416 A 0.4500 0.4500 0 0 0 -125.8347 26.6916 L -125.8347 26.5916 A 0.4500 0.4500 0 0 0 -126.2847 26.1416 Z" stroke="green" stroke-width="1" fill="none" /><path d="M -100.5535 28.1416 L -108.9273 28.1416 A 0.4500 0.4500 0 0 0 -109.3773 28.5916 L -109.3773 28.6916 A 0.4500 0.4500 0 0 0 -108.9273 29.1416 L -100.5535 29.1416 A 0.4500 0.4500 0 0 0 -100.1035 28.6916 L -100.1035 28.5916 A 0.4500 0.4500 0 0 0 -100.5535 28.1416 Z" stroke="green" stroke-width="1" fill="none" /><path d="M -110.8273 28.1416 L -119.2012 28.1416 A 0.4500 0.4500 0 0 0 -119.6512 28.5916 L -119.6512 28.6916 A 0.4500 0.4500 0 0 0 -119.2012 29.1416 L -110.8273 29.1416 A 0.4500 0.4500 0 0 0 -110.3773 28.6916 L -110.3773 28.5916 A 0.4500 0.4500 0 0 0 -110.8273 28.1416 Z" stroke="green" stroke-width="1" fill="none" /><path d="M -121.1012 28.1416 L -129.4750 28.1416 A 0.4500 0.4500 0 0 0 -129.9250 28.5916 L -129.9250 28.6916 A 0.4500 0.4500 0 0 0 -129.4750 29.1416 L -121.1012 29.1416 A 0.4500 0.4500 0 0 0 -120.6512 28.6916 L -120.6512 28.5916 A 0.4500 0.4500 0 0 0 -121.1012 28.1416 Z" stroke="green" stroke-width="1" fill="none" /><circle cx="-126.2973" cy="12.7500" r="2.1250" stroke="green" stroke-width="1" fill="none" /><circle cx="-103.7312" cy="12.7500" r="2.1250" stroke="green" stroke-width="1" fill="none" /><circle cx="-147.6511" cy="40.1416" r="8.0000" stroke="green" stroke-width="1" fill="none" /><path d="M -133.0681 22.1416 L -136.3457 22.1416 A 0.4500 0.4500 0 0 0 -136.7957 22.5916 L -136.7957 22.6916 A 0.4500 0.4500 0 0 0 -136.3457 23.1416 L -133.0681 23.1416 A 0.4500 0.4500 0 0 0 -132.6181 22.6916 L -132.6181 22.5916 A 0.4500 0.4500 0 0 0 -133.0681 22.1416 Z" stroke="green" stroke-width="1" fill="none" /><path d="M -138.2457 22.1416 L -146.7011 22.1416 A 0.4500 0.4500 0 0 0 -147.1511 22.5916 L -147.1511 22.6916 A 0.4500 0.4500 0 0 0 -146.7011 23.1416 L -138.2457 23.1416 A 0.4500 0.4500 0 0 0 -137.7957 22.6916 L -137.7957 22.5916 A 0.4500 0.4500 0 0 0 -138.2457 22.1416 Z" stroke="green" stroke-width="1" fill="none" /><path d="M -148.6011 22.1416 L -157.0564 22.1416 A 0.4500 0.4500 0 0 0 -157.5064 22.5916 L -157.5064 22.6916 A 0.4500 0.4500 0 0 0 -157.0564 23.1416 L -148.6011 23.1416 A 0.4500 0.4500 0 0 0 -148.1511 22.6916 L -148.1511 22.5916 A 0.4500 0.4500 0 0 0 -148.6011 22.1416 Z" stroke="green" stroke-width="1" fill="none" /><path d="M -158.9564 22.1416 L -162.2341 22.1416 A 0.4500 0.4500 0 0 0 -162.6841 22.5916 L -162.6841 22.6916 A 0.4500 0.4500 0 0 0 -162.2341 23.1416 L -158.9564 23.1416 A 0.4500 0.4500 0 0 0 -158.5064 22.6916 L -158.5064 22.5916 A 0.4500 0.4500 0 0 0 -158.9564 22.1416 Z" stroke="green" stroke-width="1" fill="none" /><path d="M -133.0681 24.1416 L -141.5234 24.1416 A 0.4500 0.4500 0 0 0 -141.9734 24.5916 L -141.9734 24.6916 A 0.4500 0.4500 0 0 0 -141.5234 25.1416 L -133.0681 25.1416 A 0.4500 0.4500 0 0 0 -132.6181 24.6916 L -132.6181 24.5916 A 0.4500 0.4500 0 0 0 -133.0681 24.1416 Z" stroke="green" stroke-width="1" fill="none" /><path d="M -143.4234 24.1416 L -151.8787 24.1416 A 0.4500 0.4500 0 0 0 -152.3287 24.5916 L -152.3287 24.6916 A 0.4500 0.4500 0 0 0 -151.8787 25.1416 L -143.4234 25.1416 A 0.4500 0.4500 0 0 0 -142.9734 24.6916 L -142.9734 24.5916 A 0.4500 0.4500 0 0 0 -143.4234 24.1416 Z" stroke="green" stroke-width="1" fill="none" /><path d="M -153.7787 24.1416 L -162.2341 24.1416 A 0.4500 0.4500 0 0 0 -162.6841 24.5916 L -162.6841 24.6916 A 0.4500 0.4500 0 0 0 -162.2341 25.1416 L -153.7787 25.1416 A 0.4500 0.4500 0 0 0 -153.3287 24.6916 L -153.3287 24.5916 A 0.4500 0.4500 0 0 0 -153.7787 24.1416 Z" stroke="green" stroke-width="1" fill="none" /><path d="M -133.1204 26.1416 L -136.3806 26.1416 A 0.4500 0.4500 0 0 0 -136.8306 26.5916 L -136.8306 26.6916 A 0.4500 0.4500 0 0 0 -136.3806 27.1416 L -133.1204 27.1416 A 0.4500 0.4500 0 0 0 -132.6704 26.6916 L -132.6704 26.5916 A 0.4500 0.4500 0 0 0 -133.1204 26.1416 Z" stroke="green" stroke-width="1" fill="none" /><path d="M -138.2806 26.1416 L -146.7011 26.1416 A 0.4500 0.4500 0 0 0 -147.1511 26.5916 L -147.1511 26.6916 A 0.4500 0.4500 0 0 0 -146.7011 27.1416 L -138.2806 27.1416 A 0.4500 0.4500 0 0 0 -137.8306 26.6916 L -137.8306 26.5916 A 0.4500 0.4500 0 0 0 -138.2806 26.1416 Z" stroke="green" stroke-width="1" fill="none" /><path d="M -148.6011 26.1416 L -157.0215 26.1416 A 0.4500 0.4500 0 0 0 -157.4715 26.5916 L -157.4715 26.6916 A 0.4500 0.4500 0 0 0 -157.0215 27.1416 L -148.6011 27.1416 A 0.4500 0.4500 0 0 0 -148.1511 26.6916 L -148.1511 26.5916 A 0.4500 0.4500 0 0 0 -148.6011 26.1416 Z" stroke="green" stroke-width="1" fill="none" /><path d="M -158.9215 26.1416 L -162.1817 26.1416 A 0.4500 0.4500 0 0 0 -162.6317 26.5916 L -162.6317 26.6916 A 0.4500 0.4500 0 0 0 -162.1817 27.1416 L -158.9215 27.1416 A 0.4500 0.4500 0 0 0 -158.4715 26.6916 L -158.4715 26.5916 A 0.4500 0.4500 0 0 0 -158.9215 26.1416 Z" stroke="green" stroke-width="1" fill="none" /><path d="M -133.1903 28.1416 L -141.5641 28.1416 A 0.4500 0.4500 0 0 0 -142.0141 28.5916 L -142.0141 28.6916 A 0.4500 0.4500 0 0 0 -141.5641 29.1416 L -133.1903 29.1416 A 0.4500 0.4500 0 0 0 -132.7403 28.6916 L -132.7403 28.5916 A 0.4500 0.4500 0 0 0 -133.1903 28.1416 Z" stroke="green" stroke-width="1" fill="none" /><path d="M -143.4641 28.1416 L -151.8380 28.1416 A 0.4500 0.4500 0 0 0 -152.2880 28.5916 L -152.2880 28.6916 A 0.4500 0.4500 0 0 0 -151.8380 29.1416 L -143.4641 29.1416 A 0.4500 0.4500 0 0 0 -143.0141 28.6916 L -143.0141 28.5916 A 0.4500 0.4500 0 0 0 -143.4641 28.1416 Z" stroke="green" stroke-width="1" fill="none" /><path d="M -153.7380 28.1416 L -162.1118 28.1416 A 0.4500 0.4500 0 0 0 -162.5618 28.5916 L -162.5618 28.6916 A 0.4500 0.4500 0 0 0 -162.1118 29.1416 L -153.7380 29.1416 A 0.4500 0.4500 0 0 0 -153.2880 28.6916 L -153.2880 28.5916 A 0.4500 0.4500 0 0 0 -153.7380 28.1416 Z" stroke="green" stroke-width="1" fill="none" /><circle cx="-158.9341" cy="12.7500" r="2.1250" stroke="green" stroke-width="1" fill="none" /><circle cx="-136.3681" cy="12.7500" r="2.1250" stroke="green" stroke-width="1" fill="none" /><circle cx="-180.2879" cy="40.1416" r="8.0000" stroke="green" stroke-width="1" fill="none" /><path d="M -165.7049 22.1416 L -168.9825 22.1416 A 0.4500 0.4500 0 0 0 -169.4325 22.5916 L -169.4325 22.6916 A 0.4500 0.4500 0 0 0 -168.9825 23.1416 L -165.7049 23.1416 A 0.4500 0.4500 0 0 0 -165.2549 22.6916 L -165.2549 22.5916 A 0.4500 0.4500 0 0 0 -165.7049 22.1416 Z" stroke="green" stroke-width="1" fill="none" /><path d="M -170.8825 22.1416 L -179.3379 22.1416 A 0.4500 0.4500 0 0 0 -179.7879 22.5916 L -179.7879 22.6916 A 0.4500 0.4500 0 0 0 -179.3379 23.1416 L -170.8825 23.1416 A 0.4500 0.4500 0 0 0 -170.4325 22.6916 L -170.4325 22.5916 A 0.4500 0.4500 0 0 0 -170.8825 22.1416 Z" stroke="green" stroke-width="1" fill="none" /><path d="M -181.2379 22.1416 L -189.6932 22.1416 A 0.4500 0.4500 0 0 0 -190.1432 22.5916 L -190.1432 22.6916 A 0.4500 0.4500 0 0 0 -189.6932 23.1416 L -181.2379 23.1416 A 0.4500 0.4500 0 0 0 -180.7879 22.6916 L -180.7879 22.5916 A 0.4500 0.4500 0 0 0 -181.2379 22.1416 Z" stroke="green" stroke-width="1" fill="none" /><path d="M -191.5932 22.1416 L -194.8709 22.1416 A 0.4500 0.4500 0 0 0 -195.3209 22.5916 L -195.3209 22.6916 A 0.4500 0.4500 0 0 0 -194.8709 23.1416 L -191.5932 23.1416 A 0.4500 0.4500 0 0 0 -191.1432 22.6916 L -191.1432 22.5916 A 0.4500 0.4500 0 0 0 -191.5932 22.1416 Z" stroke="green" stroke-width="1" fill="none" /><path d="M -165.7049 24.1416 L -174.1602 24.1416 A 0.4500 0.4500 0 0 0 -174.6102 24.5916 L -174.6102 24.6916 A 0.4500 0.4500 0 0 0 -174.1602 25.1416 L -165.7049 25.1416 A 0.4500 0.4500 0 0 0 -165.2549 24.6916 L -165.2549 24.5916 A 0.4500 0.4500 0 0 0 -165.7049 24.1416 Z" stroke="green" stroke-width="1" fill="none" /><path d="M -176.0602 24.1416 L -184.5155 24.1416 A 0.4500 0.4500 0 0 0 -184.9655 24.5916 L -184.9655 24.6916 A 0.4500 0.4500 0 0 0 -184.5155 25.1416 L -176.0602 25.1416 A 0.4500 0.4500 0 0 0 -175.6102 24.6916 L -175.6102 24.5916 A 0.4500 0.4500 0 0 0 -176.0602 24.1416 Z" stroke="green" stroke-width="1" fill="none" /><path d="M -186.4155 24.1416 L -194.8709 24.1416 A 0.4500 0.4500 0 0 0 -195.3209 24.5916 L -195.3209 24.6916 A 0.4500 0.4500 0 0 0 -194.8709 25.1416 L -186.4155 25.1416 A 0.4500 0.4500 0 0 0 -185.9655 24.6916 L -185.9655 24.5916 A 0.4500 0.4500 0 0 0 -186.4155 24.1416 Z" stroke="green" stroke-width="1" fill="none" /><path d="M -165.7573 26.1416 L -169.0175 26.1416 A 0.4500 0.4500 0 0 0 -169.4675 26.5916 L -169.4675 26.6916 A 0.4500 0.4500 0 0 0 -169.0175 27.1416 L -165.7573 27.1416 A 0.4500 0.4500 0 0 0 -165.3073 26.6916 L -165.3073 26.5916 A 0.4500 0.4500 0 0 0 -165.7573 26.1416 Z" stroke="green" stroke-width="1" fill="none" /><path d="M -170.9175 26.1416 L -179.3379 26.1416 A 0.4500 0.4500 0 0 0 -179.7879 26.5916 L -179.7879 26.6916 A 0.4500 0.4500 0 0 0 -179.3379 27.1416 L -170.9175 27.1416 A 0.4500 0.4500 0 0 0 -170.4675 26.6916 L -170.4675 26.5916 A 0.4500 0.4500 0 0 0 -170.9175 26.1416 Z" stroke="green" stroke-width="1" fill="none" /><path d="M -181.2379 26.1416 L -189.6583 26.1416 A 0.4500 0.4500 0 0 0 -190.1083 26.5916 L -190.1083 26.6916 A 0.4500 0.4500 0 0 0 -189.6583 27.1416 L -181.2379 27.1416 A 0.4500 0.4500 0 0 0 -180.7879 26.6916 L -180.7879 26.5916 A 0.4500 0.4500 0 0 0 -181.2379 26.1416 Z" stroke="green" stroke-width="1" fill="none" /><path d="M -191.5583 26.1416 L -194.8185 26.1416 A 0.4500 0.4500 0 0 0 -195.2685 26.5916 L -195.2685 26.6916 A 0.4500 0.4500 0 0 0 -194.8185 27.1416 L -191.5583 27.1416 A 0.4500 0.4500 0 0 0 -191.1083 26.6916 L -191.1083 26.5916 A 0.4500 0.4500 0 0 0 -191.5583 26.1416 Z" stroke="green" stroke-width="1" fill="none" /><path d="M -165.8271 28.1416 L -174.2009 28.1416 A 0.4500 0.4500 0 0 0 -174.6509 28.5916 L -174.6509 28.6916 A 0.4500 0.4500 0 0 0 -174.2009 29.1416 L -165.8271 29.1416 A 0.4500 0.4500 0 0 0 -165.3771 28.6916 L -165.3771 28.5916 A 0.4500 0.4500 0 0 0 -165.8271 28.1416 Z" stroke="green" stroke-width="1" fill="none" /><path d="M -176.1009 28.1416 L -184.4748 28.1416 A 0.4500 0.4500 0 0 0 -184.9248 28.5916 L -184.9248 28.6916 A 0.4500 0.4500 0 0 0 -184.4748 29.1416 L -176.1009 29.1416 A 0.4500 0.4500 0 0 0 -175.6509 28.6916 L -175.6509 28.5916 A 0.4500 0.4500 0 0 0 -176.1009 28.1416 Z" stroke="green" stroke-width="1" fill="none" /><path d="M -186.3748 28.1416 L -194.7486 28.1416 A 0.4500 0.4500 0 0 0 -195.1986 28.5916 L -195.1986 28.6916 A 0.4500 0.4500 0 0 0 -194.7486 29.1416 L -186.3748 29.1416 A 0.4500 0.4500 0 0 0 -185.9248 28.6916 L -185.9248 28.5916 A 0.4500 0.4500 0 0 0 -186.3748 28.1416 Z" stroke="green" stroke-width="1" fill="none" /><circle cx="-191.5709" cy="12.7500" r="2.1250" stroke="green" stroke-width="1" fill="none" /><circle cx="-169.0049" cy="12.7500" r="2.1250" stroke="green" stroke-width="1" fill="none" /><circle cx="-212.9247" cy="40.1416" r="8.0000" stroke="green" stroke-width="1" fill="none" /><path d="M -198.3417 22.1416 L -201.6193 22.1416 A 0.4500 0.4500 0 0 0 -202.0693 22.5916 L -202.0693 22.6916 A 0.4500 0.4500 0 0 0 -201.6193 23.1416 L -198.3417 23.1416 A 0.4500 0.4500 0 0 0 -197.8917 22.6916 L -197.8917 22.5916 A 0.4500 0.4500 0 0 0 -198.3417 22.1416 Z" stroke="green" stroke-width="1" fill="none" /><path d="M -203.5193 22.1416 L -211.9747 22.1416 A 0.4500 0.4500 0 0 0 -212.4247 22.5916 L -212.4247 22.6916 A 0.4500 0.4500 0 0 0 -211.9747 23.1416 L -203.5193 23.1416 A 0.4500 0.4500 0 0 0 -203.0693 22.6916 L -203.0693 22.5916 A 0.4500 0.4500 0 0 0 -203.5193 22.1416 Z" stroke="green" stroke-width="1" fill="none" /><path d="M -213.8747 22.1416 L -222.3300 22.1416 A 0.4500 0.4500 0 0 0 -222.7800 22.5916 L -222.7800 22.6916 A 0.4500 0.4500 0 0 0 -222.3300 23.1416 L -213.8747 23.1416 A 0.4500 0.4500 0 0 0 -213.4247 22.6916 L -213.4247 22.5916 A 0.4500 0.4500 0 0 0 -213.8747 22.1416 Z" stroke="green" stroke-width="1" fill="none" /><path d="M -224.2300 22.1416 L -227.5077 22.1416 A 0.4500 0.4500 0 0 0 -227.9577 22.5916 L -227.9577 22.6916 A 0.4500 0.4500 0 0 0 -227.5077 23.1416 L -224.2300 23.1416 A 0.4500 0.4500 0 0 0 -223.7800 22.6916 L -223.7800 22.5916 A 0.4500 0.4500 0 0 0 -224.2300 22.1416 Z" stroke="green" stroke-width="1" fill="none" /><path d="M -198.3417 24.1416 L -206.7970 24.1416 A 0.4500 0.4500 0 0 0 -207.2470 24.5916 L -207.2470 24.6916 A 0.4500 0.4500 0 0 0 -206.7970 25.1416 L -198.3417 25.1416 A 0.4500 0.4500 0 0 0 -197.8917 24.6916 L -197.8917 24.5916 A 0.4500 0.4500 0 0 0 -198.3417 24.1416 Z" stroke="green" stroke-width="1" fill="none" /><path d="M -208.6970 24.1416 L -217.1524 24.1416 A 0.4500 0.4500 0 0 0 -217.6024 24.5916 L -217.6024 24.6916 A 0.4500 0.4500 0 0 0 -217.1524 25.1416 L -208.6970 25.1416 A 0.4500 0.4500 0 0 0 -208.2470 24.6916 L -208.2470 24.5916 A 0.4500 0.4500 0 0 0 -208.6970 24.1416 Z" stroke="green" stroke-width="1" fill="none" /><path d="M -219.0524 24.1416 L -227.5077 24.1416 A 0.4500 0.4500 0 0 0 -227.9577 24.5916 L -227.9577 24.6916 A 0.4500 0.4500 0 0 0 -227.5077 25.1416 L -219.0524 25.1416 A 0.4500 0.4500 0 0 0 -218.6024 24.6916 L -218.6024 24.5916 A 0.4500 0.4500 0 0 0 -219.0524 24.1416 Z" stroke="green" stroke-width="1" fill="none" /><path d="M -198.3941 26.1416 L -201.6543 26.1416 A 0.4500 0.4500 0 0 0 -202.1043 26.5916 L -202.1043 26.6916 A 0.4500 0.4500 0 0 0 -201.6543 27.1416 L -198.3941 27.1416 A 0.4500 0.4500 0 0 0 -197.9441 26.6916 L -197.9441 26.5916 A 0.4500 0.4500 0 0 0 -198.3941 26.1416 Z" stroke="green" stroke-width="1" fill="none" /><path d="M -203.5543 26.1416 L -211.9747 26.1416 A 0.4500 0.4500 0 0 0 -212.4247 26.5916 L -212.4247 26.6916 A 0.4500 0.4500 0 0 0 -211.9747 27.1416 L -203.5543 27.1416 A 0.4500 0.4500 0 0 0 -203.1043 26.6916 L -203.1043 26.5916 A 0.4500 0.4500 0 0 0 -203.5543 26.1416 Z" stroke="green" stroke-width="1" fill="none" /><path d="M -213.8747 26.1416 L -222.2951 26.1416 A 0.4500 0.4500 0 0 0 -222.7451 26.5916 L -222.7451 26.6916 A 0.4500 0.4500 0 0 0 -222.2951 27.1416 L -213.8747 27.1416 A 0.4500 0.4500 0 0 0 -213.4247 26.6916 L -213.4247 26.5916 A 0.4500 0.4500 0 0 0 -213.8747 26.1416 Z" stroke="green" stroke-width="1" fill="none" /><path d="M -224.1951 26.1416 L -227.4553 26.1416 A 0.4500 0.4500 0 0 0 -227.9053 26.5916 L -227.9053 26.6916 A 0.4500 0.4500 0 0 0 -227.4553 27.1416 L -224.1951 27.1416 A 0.4500 0.4500 0 0 0 -223.7451 26.6916 L -223.7451 26.5916 A 0.4500 0.4500 0 0 0 -224.1951 26.1416 Z" stroke="green" stroke-width="1" fill="none" /><path d="M -198.4639 28.1416 L -206.8378 28.1416 A 0.4500 0.4500 0 0 0 -207.2878 28.5916 L -207.2878 28.6916 A 0.4500 0.4500 0 0 0 -206.8378 29.1416 L -198.4639 29.1416 A 0.4500 0.4500 0 0 0 -198.0139 28.6916 L -198.0139 28.5916 A 0.4500 0.4500 0 0 0 -198.4639 28.1416 Z" stroke="green" stroke-width="1" fill="none" /><path d="M -208.7378 28.1416 L -217.1116 28.1416 A 0.4500 0.4500 0 0 0 -217.5616 28.5916 L -217.5616 28.6916 A 0.4500 0.4500 0 0 0 -217.1116 29.1416 L -208.7378 29.1416 A 0.4500 0.4500 0 0 0 -208.2878 28.6916 L -208.2878 28.5916 A 0.4500 0.4500 0 0 0 -208.7378 28.1416 Z" stroke="green" stroke-width="1" fill="none" /><path d="M -219.0116 28.1416 L -227.3855 28.1416 A 0.4500 0.4500 0 0 0 -227.8355 28.5916 L -227.8355 28.6916 A 0.4500 0.4500 0 0 0 -227.3855 29.1416 L -219.0116 29.1416 A 0.4500 0.4500 0 0 0 -218.5616 28.6916 L -218.5616 28.5916 A 0.4500 0.4500 0 0 0 -219.0116 28.1416 Z" stroke="green" stroke-width="1" fill="none" /><circle cx="-224.2077" cy="12.7500" r="2.1250" stroke="green" stroke-width="1" fill="none" /><circle cx="-201.6417" cy="12.7500" r="2.1250" stroke="green" stroke-width="1" fill="none" /><circle cx="15.5330" cy="-23.1416" r="8.0000" stroke="green" stroke-width="1" fill="none" /><path d="M -7.7485 -5.1416 L -1.5713 -5.1416 A 0.4500 0.4500 0 0 0 -1.1213 -5.5916 L -1.1213 -5.6916 A 0.4500 0.4500 0 0 0 -1.5713 -6.1416 L -7.7485 -6.1416 A 0.4500 0.4500 0 0 0 -8.1985 -5.6916 L -8.1985 -5.5916 A 0.4500 0.4500 0 0 0 -7.7485 -5.1416 Z" stroke="green" stroke-width="1" fill="none" /><path d="M 0.3287 -5.1416 L 14.5830 -5.1416 A 0.4500 0.4500 0 0 0 15.0330 -5.5916 L 15.0330 -5.6916 A 0.4500 0.4500 0 0 0 14.5830 -6.1416 L 0.3287 -6.1416 A 0.4500 0.4500 0 0 0 -0.1213 -5.6916 L -0.1213 -5.5916 A 0.4500 0.4500 0 0 0 0.3287 -5.1416 Z" stroke="green" stroke-width="1" fill="none" /><path d="M 16.4830 -5.1416 L 30.7373 -5.1416 A 0.4500 0.4500 0 0 0 31.1873 -5.5916 L 31.1873 -5.6916 A 0.4500 0.4500 0 0 0 30.7373 -6.1416 L 16.4830 -6.1416 A 0.4500 0.4500 0 0 0 16.0330 -5.6916 L 16.0330 -5.5916 A 0.4500 0.4500 0 0 0 16.4830 -5.1416 Z" stroke="green" stroke-width="1" fill="none" /><path d="M 32.6373 -5.1416 L 38.8145 -5.1416 A 0.4500 0.4500 0 0 0 39.2645 -5.5916 L 39.2645 -5.6916 A 0.4500 0.4500 0 0 0 38.8145 -6.1416 L 32.6373 -6.1416 A 0.4500 0.4500 0 0 0 32.1873 -5.6916 L 32.1873 -5.5916 A 0.4500 0.4500 0 0 0 32.6373 -5.1416 Z" stroke="green" stroke-width="1" fill="none" /><path d="M -7.7485 -7.1416 L 6.5058 -7.1416 A 0.4500 0.4500 0 0 0 6.9558 -7.5916 L 6.9558 -7.6916 A 0.4500 0.4500 0 0 0 6.5058 -8.1416 L -7.7485 -8.1416 A 0.4500 0.4500 0 0 0 -8.1985 -7.6916 L -8.1985 -7.5916 A 0.4500 0.4500 0 0 0 -7.7485 -7.1416 Z" stroke="green" stroke-width="1" fill="none" /><path d="M 8.4058 -7.1416 L 22.6602 -7.1416 A 0.4500 0.4500 0 0 0 23.1102 -7.5916 L 23.1102 -7.6916 A 0.4500 0.4500 0 0 0 22.6602 -8.1416 L 8.4058 -8.1416 A 0.4500 0.4500 0 0 0 7.9558 -7.6916 L 7.9558 -7.5916 A 0.4500 0.4500 0 0 0 8.4058 -7.1416 Z" stroke="green" stroke-width="1" fill="none" /><path d="M 24.5602 -7.1416 L 38.8145 -7.1416 A 0.4500 0.4500 0 0 0 39.2645 -7.5916 L 39.2645 -7.6916 A 0.4500 0.4500 0 0 0 38.8145 -8.1416 L 24.5602 -8.1416 A 0.4500 0.4500 0 0 0 24.1102 -7.6916 L 24.1102 -7.5916 A 0.4500 0.4500 0 0 0 24.5602 -7.1416 Z" stroke="green" stroke-width="1" fill="none" /><path d="M -7.0012 -9.1416 L -1.0731 -9.1416 A 0.4500 0.4500 0 0 0 -0.6231 -9.5916 L -0.6231 -9.6916 A 0.4500 0.4500 0 0 0 -1.0731 -10.1416 L -7.0012 -10.1416 A 0.4500 0.4500 0 0 0 -7.4512 -9.6916 L -7.4512 -9.5916 A 0.4500 0.4500 0 0 0 -7.0012 -9.1416 Z" stroke="green" stroke-width="1" fill="none" /><path d="M 0.8269 -9.1416 L 14.5830 -9.1416 A 0.4500 0.4500 0 0 0 15.0330 -9.5916 L 15.0330 -9.6916 A 0.4500 0.4500 0 0 0 14.5830 -10.1416 L 0.8269 -10.1416 A 0.4500 0.4500 0 0 0 0.3769 -9.6916 L 0.3769 -9.5916 A 0.4500 0.4500 0 0 0 0.8269 -9.1416 Z" stroke="green" stroke-width="1" fill="none" /><path d="M 16.4830 -9.1416 L 30.2391 -9.1416 A 0.4500 0.4500 0 0 0 30.6891 -9.5916 L 30.6891 -9.6916 A 0.4500 0.4500 0 0 0 30.2391 -10.1416 L 16.4830 -10.1416 A 0.4500 0.4500 0 0 0 16.0330 -9.6916 L 16.0330 -9.5916 A 0.4500 0.4500 0 0 0 16.4830 -9.1416 Z" stroke="green" stroke-width="1" fill="none" /><path d="M 32.1391 -9.1416 L 38.0672 -9.1416 A 0.4500 0.4500 0 0 0 38.5172 -9.5916 L 38.5172 -9.6916 A 0.4500 0.4500 0 0 0 38.0672 -10.1416 L 32.1391 -10.1416 A 0.4500 0.4500 0 0 0 31.6891 -9.6916 L 31.6891 -9.5916 A 0.4500 0.4500 0 0 0 32.1391 -9.1416 Z" stroke="green" stroke-width="1" fill="none" /><path d="M -6.0048 -11.1416 L 7.0871 -11.1416 A 0.4500 0.4500 0 0 0 7.5371 -11.5916 L 7.5371 -11.6916 A 0.4500 0.4500 0 0 0 7.0871 -12.1416 L -6.0048 -12.1416 A 0.4500 0.4500 0 0 0 -6.4548 -11.6916 L -6.4548 -11.5916 A 0.4500 0.4500 0 0 0 -6.0048 -11.1416 Z" stroke="green" stroke-width="1" fill="none" /><path d="M 8.9871 -11.1416 L 22.0789 -11.1416 A 0.4500 0.4500 0 0 0 22.5289 -11.5916 L 22.5289 -11.6916 A 0.4500 0.4500 0 0 0 22.0789 -12.1416 L 8.9871 -12.1416 A 0.4500 0.4500 0 0 0 8.5371 -11.6916 L 8.5371 -11.5916 A 0.4500 0.4500 0 0 0 8.9871 -11.1416 Z" stroke="green" stroke-width="1" fill="none" /><path d="M 23.9789 -11.1416 L 37.0708 -11.1416 A 0.4500 0.4500 0 0 0 37.5208 -11.5916 L 37.5208 -11.6916 A 0.4500 0.4500 0 0 0 37.0708 -12.1416 L 23.9789 -12.1416 A 0.4500 0.4500 0 0 0 23.5289 -11.6916 L 23.5289 -11.5916 A 0.4500 0.4500 0 0 0 23.9789 -11.1416 Z" stroke="green" stroke-width="1" fill="none" /><circle cx="-34.5008" cy="-23.1416" r="8.0000" stroke="green" stroke-width="1" fill="none" /><path d="M -57.7823 -5.1416 L -51.6051 -5.1416 A 0.4500 0.4500 0 0 0 -51.1551 -5.5916 L -51.1551 -5.6916 A 0.4500 0.4500 0 0 0 -51.6051 -6.1416 L -57.7823 -6.1416 A 0.4500 0.4500 0 0 0 -58.2323 -5.6916 L -58.2323 -5.5916 A 0.4500 0.4500 0 0 0 -57.7823 -5.1416 Z" stroke="green" stroke-width="1" fill="none" /><path d="M -49.7051 -5.1416 L -35.4508 -5.1416 A 0.4500 0.4500 0 0 0 -35.0008 -5.5916 L -35.0008 -5.6916 A 0.4500 0.4500 0 0 0 -35.4508 -6.1416 L -49.7051 -6.1416 A 0.4500 0.4500 0 0 0 -50.1551 -5.6916 L -50.1551 -5.5916 A 0.4500 0.4500 0 0 0 -49.7051 -5.1416 Z" stroke="green" stroke-width="1" fill="none" /><path d="M -33.5508 -5.1416 L -19.2964 -5.1416 A 0.4500 0.4500 0 0 0 -18.8464 -5.5916 L -18.8464 -5.6916 A 0.4500 0.4500 0 0 0 -19.2964 -6.1416 L -33.5508 -6.1416 A 0.4500 0.4500 0 0 0 -34.0008 -5.6916 L -34.0008 -5.5916 A 0.4500 0.4500 0 0 0 -33.5508 -5.1416 Z" stroke="green" stroke-width="1" fill="none" /><path d="M -17.3964 -5.1416 L -11.2193 -5.1416 A 0.4500 0.4500 0 0 0 -10.7693 -5.5916 L -10.7693 -5.6916 A 0.4500 0.4500 0 0 0 -11.2193 -6.1416 L -17.3964 -6.1416 A 0.4500 0.4500 0 0 0 -17.8464 -5.6916 L -17.8464 -5.5916 A 0.4500 0.4500 0 0 0 -17.3964 -5.1416 Z" stroke="green" stroke-width="1" fill="none" /><path d="M -57.7823 -7.1416 L -43.5279 -7.1416 A 0.4500 0.4500 0 0 0 -43.0779 -7.5916 L -43.0779 -7.6916 A 0.4500 0.4500 0 0 0 -43.5279 -8.1416 L -57.7823 -8.1416 A 0.4500 0.4500 0 0 0 -58.2323 -7.6916 L -58.2323 -7.5916 A 0.4500 0.4500 0 0 0 -57.7823 -7.1416 Z" stroke="green" stroke-width="1" fill="none" /><path d="M -41.6279 -7.1416 L -27.3736 -7.1416 A 0.4500 0.4500 0 0 0 -26.9236 -7.5916 L -26.9236 -7.6916 A 0.4500 0.4500 0 0 0 -27.3736 -8.1416 L -41.6279 -8.1416 A 0.4500 0.4500 0 0 0 -42.0779 -7.6916 L -42.0779 -7.5916 A 0.4500 0.4500 0 0 0 -41.6279 -7.1416 Z" stroke="green" stroke-width="1" fill="none" /><path d="M -25.4736 -7.1416 L -11.2193 -7.1416 A 0.4500 0.4500 0 0 0 -10.7693 -7.5916 L -10.7693 -7.6916 A 0.4500 0.4500 0 0 0 -11.2193 -8.1416 L -25.4736 -8.1416 A 0.4500 0.4500 0 0 0 -25.9236 -7.6916 L -25.9236 -7.5916 A 0.4500 0.4500 0 0 0 -25.4736 -7.1416 Z" stroke="green" stroke-width="1" fill="none" /><path d="M -57.0350 -9.1416 L -51.1069 -9.1416 A 0.4500 0.4500 0 0 0 -50.6569 -9.5916 L -50.6569 -9.6916 A 0.4500 0.4500 0 0 0 -51.1069 -10.1416 L -57.0350 -10.1416 A 0.4500 0.4500 0 0 0 -57.4850 -9.6916 L -57.4850 -9.5916 A 0.4500 0.4500 0 0 0 -57.0350 -9.1416 Z" stroke="green" stroke-width="1" fill="none" /><path d="M -49.2069 -9.1416 L -35.4508 -9.1416 A 0.4500 0.4500 0 0 0 -35.0008 -9.5916 L -35.0008 -9.6916 A 0.4500 0.4500 0 0 0 -35.4508 -10.1416 L -49.2069 -10.1416 A 0.4500 0.4500 0 0 0 -49.6569 -9.6916 L -49.6569 -9.5916 A 0.4500 0.4500 0 0 0 -49.2069 -9.1416 Z" stroke="green" stroke-width="1" fill="none" /><path d="M -33.5508 -9.1416 L -19.7946 -9.1416 A 0.4500 0.4500 0 0 0 -19.3446 -9.5916 L -19.3446 -9.6916 A 0.4500 0.4500 0 0 0 -19.7946 -10.1416 L -33.5508 -10.1416 A 0.4500 0.4500 0 0 0 -34.0008 -9.6916 L -34.0008 -9.5916 A 0.4500 0.4500 0 0 0 -33.5508 -9.1416 Z" stroke="green" stroke-width="1" fill="none" /><path d="M -17.8946 -9.1416 L -11.9666 -9.1416 A 0.4500 0.4500 0 0 0 -11.5166 -9.5916 L -11.5166 -9.6916 A 0.4500 0.4500 0 0 0 -11.9666 -10.1416 L -17.8946 -10.1416 A 0.4500 0.4500 0 0 0 -18.3446 -9.6916 L -18.3446 -9.5916 A 0.4500 0.4500 0 0 0 -17.8946 -9.1416 Z" stroke="green" stroke-width="1" fill="none" /><path d="M -56.0386 -11.1416 L -42.9467 -11.1416 A 0.4500 0.4500 0 0 0 -42.4967 -11.5916 L -42.4967 -11.6916 A 0.4500 0.4500 0 0 0 -42.9467 -12.1416 L -56.0386 -12.1416 A 0.4500 0.4500 0 0 0 -56.4886 -11.6916 L -56.4886 -11.5916 A 0.4500 0.4500 0 0 0 -56.0386 -11.1416 Z" stroke="green" stroke-width="1" fill="none" /><path d="M -41.0467 -11.1416 L -27.9548 -11.1416 A 0.4500 0.4500 0 0 0 -27.5048 -11.5916 L -27.5048 -11.6916 A 0.4500 0.4500 0 0 0 -27.9548 -12.1416 L -41.0467 -12.1416 A 0.4500 0.4500 0 0 0 -41.4967 -11.6916 L -41.4967 -11.5916 A 0.4500 0.4500 0 0 0 -41.0467 -11.1416 Z" stroke="green" stroke-width="1" fill="none" /><path d="M -26.0548 -11.1416 L -12.9630 -11.1416 A 0.4500 0.4500 0 0 0 -12.5130 -11.5916 L -12.5130 -11.6916 A 0.4500 0.4500 0 0 0 -12.9630 -12.1416 L -26.0548 -12.1416 A 0.4500 0.4500 0 0 0 -26.5048 -11.6916 L -26.5048 -11.5916 A 0.4500 0.4500 0 0 0 -26.0548 -11.1416 Z" stroke="green" stroke-width="1" fill="none" /><circle cx="-45.7838" cy="4.2500" r="2.1250" stroke="green" stroke-width="1" fill="none" /><circle cx="-23.2178" cy="4.2500" r="2.1250" stroke="green" stroke-width="1" fill="none" /><circle cx="-84.5346" cy="-23.1416" r="8.0000" stroke="green" stroke-width="1" fill="none" /><path d="M -107.8161 -5.1416 L -101.6389 -5.1416 A 0.4500 0.4500 0 0 0 -101.1889 -5.5916 L -101.1889 -5.6916 A 0.4500 0.4500 0 0 0 -101.6389 -6.1416 L -107.8161 -6.1416 A 0.4500 0.4500 0 0 0 -108.2661 -5.6916 L -108.2661 -5.5916 A 0.4500 0.4500 0 0 0 -107.8161 -5.1416 Z" stroke="green" stroke-width="1" fill="none" /><path d="M -99.7389 -5.1416 L -85.4846 -5.1416 A 0.4500 0.4500 0 0 0 -85.0346 -5.5916 L -85.0346 -5.6916 A 0.4500 0.4500 0 0 0 -85.4846 -6.1416 L -99.7389 -6.1416 A 0.4500 0.4500 0 0 0 -100.1889 -5.6916 L -100.1889 -5.5916 A 0.4500 0.4500 0 0 0 -99.7389 -5.1416 Z" stroke="green" stroke-width="1" fill="none" /><path d="M -83.5846 -5.1416 L -69.3302 -5.1416 A 0.4500 0.4500 0 0 0 -68.8802 -5.5916 L -68.8802 -5.6916 A 0.4500 0.4500 0 0 0 -69.3302 -6.1416 L -83.5846 -6.1416 A 0.4500 0.4500 0 0 0 -84.0346 -5.6916 L -84.0346 -5.5916 A 0.4500 0.4500 0 0 0 -83.5846 -5.1416 Z" stroke="green" stroke-width="1" fill="none" /><path d="M -67.4302 -5.1416 L -61.2531 -5.1416 A 0.4500 0.4500 0 0 0 -60.8031 -5.5916 L -60.8031 -5.6916 A 0.4500 0.4500 0 0 0 -61.2531 -6.1416 L -67.4302 -6.1416 A 0.4500 0.4500 0 0 0 -67.8802 -5.6916 L -67.8802 -5.5916 A 0.4500 0.4500 0 0 0 -67.4302 -5.1416 Z" stroke="green" stroke-width="1" fill="none" /><path d="M -107.8161 -7.1416 L -93.5617 -7.1416 A 0.4500 0.4500 0 0 0 -93.1117 -7.5916 L -93.1117 -7.6916 A 0.4500 0.4500 0 0 0 -93.5617 -8.1416 L -107.8161 -8.1416 A 0.4500 0.4500 0 0 0 -108.2661 -7.6916 L -108.2661 -7.5916 A 0.4500 0.4500 0 0 0 -107.8161 -7.1416 Z" stroke="green" stroke-width="1" fill="none" /><path d="M -91.6617 -7.1416 L -77.4074 -7.1416 A 0.4500 0.4500 0 0 0 -76.9574 -7.5916 L -76.9574 -7.6916 A 0.4500 0.4500 0 0 0 -77.4074 -8.1416 L -91.6617 -8.1416 A 0.4500 0.4500 0 0 0 -92.1117 -7.6916 L -92.1117 -7.5916 A 0.4500 0.4500 0 0 0 -91.6617 -7.1416 Z" stroke="green" stroke-width="1" fill="none" /><path d="M -75.5074 -7.1416 L -61.2531 -7.1416 A 0.4500 0.4500 0 0 0 -60.8031 -7.5916 L -60.8031 -7.6916 A 0.4500 0.4500 0 0 0 -61.2531 -8.1416 L -75.5074 -8.1416 A 0.4500 0.4500 0 0 0 -75.9574 -7.6916 L -75.9574 -7.5916 A 0.4500 0.4500 0 0 0 -75.5074 -7.1416 Z" stroke="green" stroke-width="1" fill="none" /><path d="M -107.0687 -9.1416 L -101.1407 -9.1416 A 0.4500 0.4500 0 0 0 -100.6907 -9.5916 L -100.6907 -9.6916 A 0.4500 0.4500 0 0 0 -101.1407 -10.1416 L -107.0687 -10.1416 A 0.4500 0.4500 0 0 0 -107.5187 -9.6916 L -107.5187 -9.5916 A 0.4500 0.4500 0 0 0 -107.0687 -9.1416 Z" stroke="green" stroke-width="1" fill="none" /><path d="M -99.2407 -9.1416 L -85.4846 -9.1416 A 0.4500 0.4500 0 0 0 -85.0346 -9.5916 L -85.0346 -9.6916 A 0.4500 0.4500 0 0 0 -85.4846 -10.1416 L -99.2407 -10.1416 A 0.4500 0.4500 0 0 0 -99.6907 -9.6916 L -99.6907 -9.5916 A 0.4500 0.4500 0 0 0 -99.2407 -9.1416 Z" stroke="green" stroke-width="1" fill="none" /><path d="M -83.5846 -9.1416 L -69.8284 -9.1416 A 0.4500 0.4500 0 0 0 -69.3784 -9.5916 L -69.3784 -9.6916 A 0.4500 0.4500 0 0 0 -69.8284 -10.1416 L -83.5846 -10.1416 A 0.4500 0.4500 0 0 0 -84.0346 -9.6916 L -84.0346 -9.5916 A 0.4500 0.4500 0 0 0 -83.5846 -9.1416 Z" stroke="green" stroke-width="1" fill="none" /><path d="M -67.9284 -9.1416 L -62.0004 -9.1416 A 0.4500 0.4500 0 0 0 -61.5504 -9.5916 L -61.5504 -9.6916 A 0.4500 0.4500 0 0 0 -62.0004 -10.1416 L -67.9284 -10.1416 A 0.4500 0.4500 0 0 0 -68.3784 -9.6916 L -68.3784 -9.5916 A 0.4500 0.4500 0 0 0 -67.9284 -9.1416 Z" stroke="green" stroke-width="1" fill="none" /><path d="M -106.0723 -11.1416 L -92.9805 -11.1416 A 0.4500 0.4500 0 0 0 -92.5305 -11.5916 L -92.5305 -11.6916 A 0.4500 0.4500 0 0 0 -92.9805 -12.1416 L -106.0723 -12.1416 A 0.4500 0.4500 0 0 0 -106.5223 -11.6916 L -106.5223 -11.5916 A 0.4500 0.4500 0 0 0 -106.0723 -11.1416 Z" stroke="green" stroke-width="1" fill="none" /><path d="M -91.0805 -11.1416 L -77.9886 -11.1416 A 0.4500 0.4500 0 0 0 -77.5386 -11.5916 L -77.5386 -11.6916 A 0.4500 0.4500 0 0 0 -77.9886 -12.1416 L -91.0805 -12.1416 A 0.4500 0.4500 0 0 0 -91.5305 -11.6916 L -91.5305 -11.5916 A 0.4500 0.4500 0 0 0 -91.0805 -11.1416 Z" stroke="green" stroke-width="1" fill="none" /><path d="M -76.0886 -11.1416 L -62.9968 -11.1416 A 0.4500 0.4500 0 0 0 -62.5468 -11.5916 L -62.5468 -11.6916 A 0.4500 0.4500 0 0 0 -62.9968 -12.1416 L -76.0886 -12.1416 A 0.4500 0.4500 0 0 0 -76.5386 -11.6916 L -76.5386 -11.5916 A 0.4500 0.4500 0 0 0 -76.0886 -11.1416 Z" stroke="green" stroke-width="1" fill="none" /><circle cx="-95.8176" cy="4.2500" r="2.1250" stroke="green" stroke-width="1" fill="none" /><circle cx="-73.2515" cy="4.2500" r="2.1250" stroke="green" stroke-width="1" fill="none" /><circle cx="-134.5683" cy="-23.1416" r="8.0000" stroke="green" stroke-width="1" fill="none" /><path d="M -157.8498 -5.1416 L -151.6727 -5.1416 A 0.4500 0.4500 0 0 0 -151.2227 -5.5916 L -151.2227 -5.6916 A 0.4500 0.4500 0 0 0 -151.6727 -6.1416 L -157.8498 -6.1416 A 0.4500 0.4500 0 0 0 -158.2998 -5.6916 L -158.2998 -5.5916 A 0.4500 0.4500 0 0 0 -157.8498 -5.1416 Z" stroke="green" stroke-width="1" fill="none" /><path d="M -149.7727 -5.1416 L -135.5183 -5.1416 A 0.4500 0.4500 0 0 0 -135.0683 -5.5916 L -135.0683 -5.6916 A 0.4500 0.4500 0 0 0 -135.5183 -6.1416 L -149.7727 -6.1416 A 0.4500 0.4500 0 0 0 -150.2227 -5.6916 L -150.2227 -5.5916 A 0.4500 0.4500 0 0 0 -149.7727 -5.1416 Z" stroke="green" stroke-width="1" fill="none" /><path d="M -133.6183 -5.1416 L -119.3640 -5.1416 A 0.4500 0.4500 0 0 0 -118.9140 -5.5916 L -118.9140 -5.6916 A 0.4500 0.4500 0 0 0 -119.3640 -6.1416 L -133.6183 -6.1416 A 0.4500 0.4500 0 0 0 -134.0683 -5.6916 L -134.0683 -5.5916 A 0.4500 0.4500 0 0 0 -133.6183 -5.1416 Z" stroke="green" stroke-width="1" fill="none" /><path d="M -117.4640 -5.1416 L -111.2868 -5.1416 A 0.4500 0.4500 0 0 0 -110.8368 -5.5916 L -110.8368 -5.6916 A 0.4500 0.4500 0 0 0 -111.2868 -6.1416 L -117.4640 -6.1416 A 0.4500 0.4500 0 0 0 -117.9140 -5.6916 L -117.9140 -5.5916 A 0.4500 0.4500 0 0 0 -117.4640 -5.1416 Z" stroke="green" stroke-width="1" fill="none" /><path d="M -157.8498 -7.1416 L -143.5955 -7.1416 A 0.4500 0.4500 0 0 0 -143.1455 -7.5916 L -143.1455 -7.6916 A 0.4500 0.4500 0 0 0 -143.5955 -8.1416 L -157.8498 -8.1416 A 0.4500 0.4500 0 0 0 -158.2998 -7.6916 L -158.2998 -7.5916 A 0.4500 0.4500 0 0 0 -157.8498 -7.1416 Z" stroke="green" stroke-width="1" fill="none" /><path d="M -141.6955 -7.1416 L -127.4412 -7.1416 A 0.4500 0.4500 0 0 0 -126.9912 -7.5916 L -126.9912 -7.6916 A 0.4500 0.4500 0 0 0 -127.4412 -8.1416 L -141.6955 -8.1416 A 0.4500 0.4500 0 0 0 -142.1455 -7.6916 L -142.1455 -7.5916 A 0.4500 0.4500 0 0 0 -141.6955 -7.1416 Z" stroke="green" stroke-width="1" fill="none" /><path d="M -125.5412 -7.1416 L -111.2868 -7.1416 A 0.4500 0.4500 0 0 0 -110.8368 -7.5916 L -110.8368 -7.6916 A 0.4500 0.4500 0 0 0 -111.2868 -8.1416 L -125.5412 -8.1416 A 0.4500 0.4500 0 0 0 -125.9912 -7.6916 L -125.9912 -7.5916 A 0.4500 0.4500 0 0 0 -125.5412 -7.1416 Z" stroke="green" stroke-width="1" fill="none" /><path d="M -157.1025 -9.1416 L -151.1745 -9.1416 A 0.4500 0.4500 0 0 0 -150.7245 -9.5916 L -150.7245 -9.6916 A 0.4500 0.4500 0 0 0 -151.1745 -10.1416 L -157.1025 -10.1416 A 0.4500 0.4500 0 0 0 -157.5525 -9.6916 L -157.5525 -9.5916 A 0.4500 0.4500 0 0 0 -157.1025 -9.1416 Z" stroke="green" stroke-width="1" fill="none" /><path d="M -149.2745 -9.1416 L -135.5183 -9.1416 A 0.4500 0.4500 0 0 0 -135.0683 -9.5916 L -135.0683 -9.6916 A 0.4500 0.4500 0 0 0 -135.5183 -10.1416 L -149.2745 -10.1416 A 0.4500 0.4500 0 0 0 -149.7245 -9.6916 L -149.7245 -9.5916 A 0.4500 0.4500 0 0 0 -149.2745 -9.1416 Z" stroke="green" stroke-width="1" fill="none" /><path d="M -133.6183 -9.1416 L -119.8622 -9.1416 A 0.4500 0.4500 0 0 0 -119.4122 -9.5916 L -119.4122 -9.6916 A 0.4500 0.4500 0 0 0 -119.8622 -10.1416 L -133.6183 -10.1416 A 0.4500 0.4500 0 0 0 -134.0683 -9.6916 L -134.0683 -9.5916 A 0.4500 0.4500 0 0 0 -133.6183 -9.1416 Z" stroke="green" stroke-width="1" fill="none" /><path d="M -117.9622 -9.1416 L -112.0342 -9.1416 A 0.4500 0.4500 0 0 0 -111.5842 -9.5916 L -111.5842 -9.6916 A 0.4500 0.4500 0 0 0 -112.0342 -10.1416 L -117.9622 -10.1416 A 0.4500 0.4500 0 0 0 -118.4122 -9.6916 L -118.4122 -9.5916 A 0.4500 0.4500 0 0 0 -117.9622 -9.1416 Z" stroke="green" stroke-width="1" fill="none" /><path d="M -156.1061 -11.1416 L -143.0143 -11.1416 A 0.4500 0.4500 0 0 0 -142.5643 -11.5916 L -142.5643 -11.6916 A 0.4500 0.4500 0 0 0 -143.0143 -12.1416 L -156.1061 -12.1416 A 0.4500 0.4500 0 0 0 -156.5561 -11.6916 L -156.5561 -11.5916 A 0.4500 0.4500 0 0 0 -156.1061 -11.1416 Z" stroke="green" stroke-width="1" fill="none" /><path d="M -141.1143 -11.1416 L -128.0224 -11.1416 A 0.4500 0.4500 0 0 0 -127.5724 -11.5916 L -127.5724 -11.6916 A 0.4500 0.4500 0 0 0 -128.0224 -12.1416 L -141.1143 -12.1416 A 0.4500 0.4500 0 0 0 -141.5643 -11.6916 L -141.5643 -11.5916 A 0.4500 0.4500 0 0 0 -141.1143 -11.1416 Z" stroke="green" stroke-width="1" fill="none" /><path d="M -126.1224 -11.1416 L -113.0306 -11.1416 A 0.4500 0.4500 0 0 0 -112.5806 -11.5916 L -112.5806 -11.6916 A 0.4500 0.4500 0 0 0 -113.0306 -12.1416 L -126.1224 -12.1416 A 0.4500 0.4500 0 0 0 -126.5724 -11.6916 L -126.5724 -11.5916 A 0.4500 0.4500 0 0 0 -126.1224 -11.1416 Z" stroke="green" stroke-width="1" fill="none" /><circle cx="-145.8513" cy="4.2500" r="2.1250" stroke="green" stroke-width="1" fill="none" /><circle cx="-123.2853" cy="4.2500" r="2.1250" stroke="green" stroke-width="1" fill="none" /><circle cx="-184.6021" cy="-23.1416" r="8.0000" stroke="green" stroke-width="1" fill="none" /><path d="M -207.8836 -5.1416 L -201.7065 -5.1416 A 0.4500 0.4500 0 0 0 -201.2565 -5.5916 L -201.2565 -5.6916 A 0.4500 0.4500 0 0 0 -201.7065 -6.1416 L -207.8836 -6.1416 A 0.4500 0.4500 0 0 0 -208.3336 -5.6916 L -208.3336 -5.5916 A 0.4500 0.4500 0 0 0 -207.8836 -5.1416 Z" stroke="green" stroke-width="1" fill="none" /><path d="M -199.8065 -5.1416 L -185.5521 -5.1416 A 0.4500 0.4500 0 0 0 -185.1021 -5.5916 L -185.1021 -5.6916 A 0.4500 0.4500 0 0 0 -185.5521 -6.1416 L -199.8065 -6.1416 A 0.4500 0.4500 0 0 0 -200.2565 -5.6916 L -200.2565 -5.5916 A 0.4500 0.4500 0 0 0 -199.8065 -5.1416 Z" stroke="green" stroke-width="1" fill="none" /><path d="M -183.6521 -5.1416 L -169.3978 -5.1416 A 0.4500 0.4500 0 0 0 -168.9478 -5.5916 L -168.9478 -5.6916 A 0.4500 0.4500 0 0 0 -169.3978 -6.1416 L -183.6521 -6.1416 A 0.4500 0.4500 0 0 0 -184.1021 -5.6916 L -184.1021 -5.5916 A 0.4500 0.4500 0 0 0 -183.6521 -5.1416 Z" stroke="green" stroke-width="1" fill="none" /><path d="M -167.4978 -5.1416 L -161.3206 -5.1416 A 0.4500 0.4500 0 0 0 -160.8706 -5.5916 L -160.8706 -5.6916 A 0.4500 0.4500 0 0 0 -161.3206 -6.1416 L -167.4978 -6.1416 A 0.4500 0.4500 0 0 0 -167.9478 -5.6916 L -167.9478 -5.5916 A 0.4500 0.4500 0 0 0 -167.4978 -5.1416 Z" stroke="green" stroke-width="1" fill="none" /><path d="M -207.8836 -7.1416 L -193.6293 -7.1416 A 0.4500 0.4500 0 0 0 -193.1793 -7.5916 L -193.1793 -7.6916 A 0.4500 0.4500 0 0 0 -193.6293 -8.1416 L -207.8836 -8.1416 A 0.4500 0.4500 0 0 0 -208.3336 -7.6916 L -208.3336 -7.5916 A 0.4500 0.4500 0 0 0 -207.8836 -7.1416 Z" stroke="green" stroke-width="1" fill="none" /><path d="M -191.7293 -7.1416 L -177.4750 -7.1416 A 0.4500 0.4500 0 0 0 -177.0250 -7.5916 L -177.0250 -7.6916 A 0.4500 0.4500 0 0 0 -177.4750 -8.1416 L -191.7293 -8.1416 A 0.4500 0.4500 0 0 0 -192.1793 -7.6916 L -192.1793 -7.5916 A 0.4500 0.4500 0 0 0 -191.7293 -7.1416 Z" stroke="green" stroke-width="1" fill="none" /><path d="M -175.5750 -7.1416 L -161.3206 -7.1416 A 0.4500 0.4500 0 0 0 -160.8706 -7.5916 L -160.8706 -7.6916 A 0.4500 0.4500 0 0 0 -161.3206 -8.1416 L -175.5750 -8.1416 A 0.4500 0.4500 0 0 0 -176.0250 -7.6916 L -176.0250 -7.5916 A 0.4500 0.4500 0 0 0 -175.5750 -7.1416 Z" stroke="green" stroke-width="1" fill="none" /><path d="M -207.1363 -9.1416 L -201.2083 -9.1416 A 0.4500 0.4500 0 0 0 -200.7583 -9.5916 L -200.7583 -9.6916 A 0.4500 0.4500 0 0 0 -201.2083 -10.1416 L -207.1363 -10.1416 A 0.4500 0.4500 0 0 0 -207.5863 -9.6916 L -207.5863 -9.5916 A 0.4500 0.4500 0 0 0 -207.1363 -9.1416 Z" stroke="green" stroke-width="1" fill="none" /><path d="M -199.3083 -9.1416 L -185.5521 -9.1416 A 0.4500 0.4500 0 0 0 -185.1021 -9.5916 L -185.1021 -9.6916 A 0.4500 0.4500 0 0 0 -185.5521 -10.1416 L -199.3083 -10.1416 A 0.4500 0.4500 0 0 0 -199.7583 -9.6916 L -199.7583 -9.5916 A 0.4500 0.4500 0 0 0 -199.3083 -9.1416 Z" stroke="green" stroke-width="1" fill="none" /><path d="M -183.6521 -9.1416 L -169.8960 -9.1416 A 0.4500 0.4500 0 0 0 -169.4460 -9.5916 L -169.4460 -9.6916 A 0.4500 0.4500 0 0 0 -169.8960 -10.1416 L -183.6521 -10.1416 A 0.4500 0.4500 0 0 0 -184.1021 -9.6916 L -184.1021 -9.5916 A 0.4500 0.4500 0 0 0 -183.6521 -9.1416 Z" stroke="green" stroke-width="1" fill="none" /><path d="M -167.9960 -9.1416 L -162.0679 -9.1416 A 0.4500 0.4500 0 0 0 -161.6179 -9.5916 L -161.6179 -9.6916 A 0.4500 0.4500 0 0 0 -162.0679 -10.1416 L -167.9960 -10.1416 A 0.4500 0.4500 0 0 0 -168.4460 -9.6916 L -168.4460 -9.5916 A 0.4500 0.4500 0 0 0 -167.9960 -9.1416 Z" stroke="green" stroke-width="1" fill="none" /><path d="M -206.1399 -11.1416 L -193.0481 -11.1416 A 0.4500 0.4500 0 0 0 -192.5981 -11.5916 L -192.5981 -11.6916 A 0.4500 0.4500 0 0 0 -193.0481 -12.1416 L -206.1399 -12.1416 A 0.4500 0.4500 0 0 0 -206.5899 -11.6916 L -206.5899 -11.5916 A 0.4500 0.4500 0 0 0 -206.1399 -11.1416 Z" stroke="green" stroke-width="1" fill="none" /><path d="M -191.1481 -11.1416 L -178.0562 -11.1416 A 0.4500 0.4500 0 0 0 -177.6062 -11.5916 L -177.6062 -11.6916 A 0.4500 0.4500 0 0 0 -178.0562 -12.1416 L -191.1481 -12.1416 A 0.4500 0.4500 0 0 0 -191.5981 -11.6916 L -191.5981 -11.5916 A 0.4500 0.4500 0 0 0 -191.1481 -11.1416 Z" stroke="green" stroke-width="1" fill="none" /><path d="M -176.1562 -11.1416 L -163.0643 -11.1416 A 0.4500 0.4500 0 0 0 -162.6143 -11.5916 L -162.6143 -11.6916 A 0.4500 0.4500 0 0 0 -163.0643 -12.1416 L -176.1562 -12.1416 A 0.4500 0.4500 0 0 0 -176.6062 -11.6916 L -176.6062 -11.5916 A 0.4500 0.4500 0 0 0 -176.1562 -11.1416 Z" stroke="green" stroke-width="1" fill="none" /><circle cx="-195.8851" cy="4.2500" r="2.1250" stroke="green" stroke-width="1" fill="none" /><circle cx="-173.3191" cy="4.2500" r="2.1250" stroke="green" stroke-width="1" fill="none" /><circle cx="-234.6359" cy="-23.1416" r="8.0000" stroke="green" stroke-width="1" fill="none" /><path d="M -257.9174 -5.1416 L -251.7402 -5.1416 A 0.4500 0.4500 0 0 0 -251.2902 -5.5916 L -251.2902 -5.6916 A 0.4500 0.4500 0 0 0 -251.7402 -6.1416 L -257.9174 -6.1416 A 0.4500 0.4500 0 0 0 -258.3674 -5.6916 L -258.3674 -5.5916 A 0.4500 0.4500 0 0 0 -257.9174 -5.1416 Z" stroke="green" stroke-width="1" fill="none" /><path d="M -249.8402 -5.1416 L -235.5859 -5.1416 A 0.4500 0.4500 0 0 0 -235.1359 -5.5916 L -235.1359 -5.6916 A 0.4500 0.4500 0 0 0 -235.5859 -6.1416 L -249.8402 -6.1416 A 0.4500 0.4500 0 0 0 -250.2902 -5.6916 L -250.2902 -5.5916 A 0.4500 0.4500 0 0 0 -249.8402 -5.1416 Z" stroke="green" stroke-width="1" fill="none" /><path d="M -233.6859 -5.1416 L -219.4316 -5.1416 A 0.4500 0.4500 0 0 0 -218.9816 -5.5916 L -218.9816 -5.6916 A 0.4500 0.4500 0 0 0 -219.4316 -6.1416 L -233.6859 -6.1416 A 0.4500 0.4500 0 0 0 -234.1359 -5.6916 L -234.1359 -5.5916 A 0.4500 0.4500 0 0 0 -233.6859 -5.1416 Z" stroke="green" stroke-width="1" fill="none" /><path d="M -217.5316 -5.1416 L -211.3544 -5.1416 A 0.4500 0.4500 0 0 0 -210.9044 -5.5916 L -210.9044 -5.6916 A 0.4500 0.4500 0 0 0 -211.3544 -6.1416 L -217.5316 -6.1416 A 0.4500 0.4500 0 0 0 -217.9816 -5.6916 L -217.9816 -5.5916 A 0.4500 0.4500 0 0 0 -217.5316 -5.1416 Z" stroke="green" stroke-width="1" fill="none" /><path d="M -257.9174 -7.1416 L -243.6631 -7.1416 A 0.4500 0.4500 0 0 0 -243.2131 -7.5916 L -243.2131 -7.6916 A 0.4500 0.4500 0 0 0 -243.6631 -8.1416 L -257.9174 -8.1416 A 0.4500 0.4500 0 0 0 -258.3674 -7.6916 L -258.3674 -7.5916 A 0.4500 0.4500 0 0 0 -257.9174 -7.1416 Z" stroke="green" stroke-width="1" fill="none" /><path d="M -241.7631 -7.1416 L -227.5087 -7.1416 A 0.4500 0.4500 0 0 0 -227.0587 -7.5916 L -227.0587 -7.6916 A 0.4500 0.4500 0 0 0 -227.5087 -8.1416 L -241.7631 -8.1416 A 0.4500 0.4500 0 0 0 -242.2131 -7.6916 L -242.2131 -7.5916 A 0.4500 0.4500 0 0 0 -241.7631 -7.1416 Z" stroke="green" stroke-width="1" fill="none" /><path d="M -225.6087 -7.1416 L -211.3544 -7.1416 A 0.4500 0.4500 0 0 0 -210.9044 -7.5916 L -210.9044 -7.6916 A 0.4500 0.4500 0 0 0 -211.3544 -8.1416 L -225.6087 -8.1416 A 0.4500 0.4500 0 0 0 -226.0587 -7.6916 L -226.0587 -7.5916 A 0.4500 0.4500 0 0 0 -225.6087 -7.1416 Z" stroke="green" stroke-width="1" fill="none" /><path d="M -257.1701 -9.1416 L -251.2420 -9.1416 A 0.4500 0.4500 0 0 0 -250.7920 -9.5916 L -250.7920 -9.6916 A 0.4500 0.4500 0 0 0 -251.2420 -10.1416 L -257.1701 -10.1416 A 0.4500 0.4500 0 0 0 -257.6201 -9.6916 L -257.6201 -9.5916 A 0.4500 0.4500 0 0 0 -257.1701 -9.1416 Z" stroke="green" stroke-width="1" fill="none" /><path d="M -249.3420 -9.1416 L -235.5859 -9.1416 A 0.4500 0.4500 0 0 0 -235.1359 -9.5916 L -235.1359 -9.6916 A 0.4500 0.4500 0 0 0 -235.5859 -10.1416 L -249.3420 -10.1416 A 0.4500 0.4500 0 0 0 -249.7920 -9.6916 L -249.7920 -9.5916 A 0.4500 0.4500 0 0 0 -249.3420 -9.1416 Z" stroke="green" stroke-width="1" fill="none" /><path d="M -233.6859 -9.1416 L -219.9298 -9.1416 A 0.4500 0.4500 0 0 0 -219.4798 -9.5916 L -219.4798 -9.6916 A 0.4500 0.4500 0 0 0 -219.9298 -10.1416 L -233.6859 -10.1416 A 0.4500 0.4500 0 0 0 -234.1359 -9.6916 L -234.1359 -9.5916 A 0.4500 0.4500 0 0 0 -233.6859 -9.1416 Z" stroke="green" stroke-width="1" fill="none" /><path d="M -218.0298 -9.1416 L -212.1017 -9.1416 A 0.4500 0.4500 0 0 0 -211.6517 -9.5916 L -211.6517 -9.6916 A 0.4500 0.4500 0 0 0 -212.1017 -10.1416 L -218.0298 -10.1416 A 0.4500 0.4500 0 0 0 -218.4798 -9.6916 L -218.4798 -9.5916 A 0.4500 0.4500 0 0 0 -218.0298 -9.1416 Z" stroke="green" stroke-width="1" fill="none" /><path d="M -256.1737 -11.1416 L -243.0818 -11.1416 A 0.4500 0.4500 0 0 0 -242.6318 -11.5916 L -242.6318 -11.6916 A 0.4500 0.4500 0 0 0 -243.0818 -12.1416 L -256.1737 -12.1416 A 0.4500 0.4500 0 0 0 -256.6237 -11.6916 L -256.6237 -11.5916 A 0.4500 0.4500 0 0 0 -256.1737 -11.1416 Z" stroke="green" stroke-width="1" fill="none" /><path d="M -241.1818 -11.1416 L -228.0900 -11.1416 A 0.4500 0.4500 0 0 0 -227.6400 -11.5916 L -227.6400 -11.6916 A 0.4500 0.4500 0 0 0 -228.0900 -12.1416 L -241.1818 -12.1416 A 0.4500 0.4500 0 0 0 -241.6318 -11.6916 L -241.6318 -11.5916 A 0.4500 0.4500 0 0 0 -241.1818 -11.1416 Z" stroke="green" stroke-width="1" fill="none" /><path d="M -226.1900 -11.1416 L -213.0981 -11.1416 A 0.4500 0.4500 0 0 0 -212.6481 -11.5916 L -212.6481 -11.6916 A 0.4500 0.4500 0 0 0 -213.0981 -12.1416 L -226.1900 -12.1416 A 0.4500 0.4500 0 0 0 -226.6400 -11.6916 L -226.6400 -11.5916 A 0.4500 0.4500 0 0 0 -226.1900 -11.1416 Z" stroke="green" stroke-width="1" fill="none" /><circle cx="-245.9189" cy="4.2500" r="2.1250" stroke="green" stroke-width="1" fill="none" /><circle cx="-223.3529" cy="4.2500" r="2.1250" stroke="green" stroke-width="1" fill="none" /><circle cx="-284.6697" cy="-23.1416" r="8.0000" stroke="green" stroke-width="1" fill="none" /><path d="M -307.9512 -5.1416 L -301.7740 -5.1416 A 0.4500 0.4500 0 0 0 -301.3240 -5.5916 L -301.3240 -5.6916 A 0.4500 0.4500 0 0 0 -301.7740 -6.1416 L -307.9512 -6.1416 A 0.4500 0.4500 0 0 0 -308.4012 -5.6916 L -308.4012 -5.5916 A 0.4500 0.4500 0 0 0 -307.9512 -5.1416 Z" stroke="green" stroke-width="1" fill="none" /><path d="M -299.8740 -5.1416 L -285.6197 -5.1416 A 0.4500 0.4500 0 0 0 -285.1697 -5.5916 L -285.1697 -5.6916 A 0.4500 0.4500 0 0 0 -285.6197 -6.1416 L -299.8740 -6.1416 A 0.4500 0.4500 0 0 0 -300.3240 -5.6916 L -300.3240 -5.5916 A 0.4500 0.4500 0 0 0 -299.8740 -5.1416 Z" stroke="green" stroke-width="1" fill="none" /><path d="M -283.7197 -5.1416 L -269.4654 -5.1416 A 0.4500 0.4500 0 0 0 -269.0154 -5.5916 L -269.0154 -5.6916 A 0.4500 0.4500 0 0 0 -269.4654 -6.1416 L -283.7197 -6.1416 A 0.4500 0.4500 0 0 0 -284.1697 -5.6916 L -284.1697 -5.5916 A 0.4500 0.4500 0 0 0 -283.7197 -5.1416 Z" stroke="green" stroke-width="1" fill="none" /><path d="M -267.5654 -5.1416 L -261.3882 -5.1416 A 0.4500 0.4500 0 0 0 -260.9382 -5.5916 L -260.9382 -5.6916 A 0.4500 0.4500 0 0 0 -261.3882 -6.1416 L -267.5654 -6.1416 A 0.4500 0.4500 0 0 0 -268.0154 -5.6916 L -268.0154 -5.5916 A 0.4500 0.4500 0 0 0 -267.5654 -5.1416 Z" stroke="green" stroke-width="1" fill="none" /><path d="M -307.9512 -7.1416 L -293.6969 -7.1416 A 0.4500 0.4500 0 0 0 -293.2469 -7.5916 L -293.2469 -7.6916 A 0.4500 0.4500 0 0 0 -293.6969 -8.1416 L -307.9512 -8.1416 A 0.4500 0.4500 0 0 0 -308.4012 -7.6916 L -308.4012 -7.5916 A 0.4500 0.4500 0 0 0 -307.9512 -7.1416 Z" stroke="green" stroke-width="1" fill="none" /><path d="M -291.7969 -7.1416 L -277.5425 -7.1416 A 0.4500 0.4500 0 0 0 -277.0925 -7.5916 L -277.0925 -7.6916 A 0.4500 0.4500 0 0 0 -277.5425 -8.1416 L -291.7969 -8.1416 A 0.4500 0.4500 0 0 0 -292.2469 -7.6916 L -292.2469 -7.5916 A 0.4500 0.4500 0 0 0 -291.7969 -7.1416 Z" stroke="green" stroke-width="1" fill="none" /><path d="M -275.6425 -7.1416 L -261.3882 -7.1416 A 0.4500 0.4500 0 0 0 -260.9382 -7.5916 L -260.9382 -7.6916 A 0.4500 0.4500 0 0 0 -261.3882 -8.1416 L -275.6425 -8.1416 A 0.4500 0.4500 0 0 0 -276.0925 -7.6916 L -276.0925 -7.5916 A 0.4500 0.4500 0 0 0 -275.6425 -7.1416 Z" stroke="green" stroke-width="1" fill="none" /><path d="M -307.2039 -9.1416 L -301.2758 -9.1416 A 0.4500 0.4500 0 0 0 -300.8258 -9.5916 L -300.8258 -9.6916 A 0.4500 0.4500 0 0 0 -301.2758 -10.1416 L -307.2039 -10.1416 A 0.4500 0.4500 0 0 0 -307.6539 -9.6916 L -307.6539 -9.5916 A 0.4500 0.4500 0 0 0 -307.2039 -9.1416 Z" stroke="green" stroke-width="1" fill="none" /><path d="M -299.3758 -9.1416 L -285.6197 -9.1416 A 0.4500 0.4500 0 0 0 -285.1697 -9.5916 L -285.1697 -9.6916 A 0.4500 0.4500 0 0 0 -285.6197 -10.1416 L -299.3758 -10.1416 A 0.4500 0.4500 0 0 0 -299.8258 -9.6916 L -299.8258 -9.5916 A 0.4500 0.4500 0 0 0 -299.3758 -9.1416 Z" stroke="green" stroke-width="1" fill="none" /><path d="M -283.7197 -9.1416 L -269.9636 -9.1416 A 0.4500 0.4500 0 0 0 -269.5136 -9.5916 L -269.5136 -9.6916 A 0.4500 0.4500 0 0 0 -269.9636 -10.1416 L -283.7197 -10.1416 A 0.4500 0.4500 0 0 0 -284.1697 -9.6916 L -284.1697 -9.5916 A 0.4500 0.4500 0 0 0 -283.7197 -9.1416 Z" stroke="green" stroke-width="1" fill="none" /><path d="M -268.0636 -9.1416 L -262.1355 -9.1416 A 0.4500 0.4500 0 0 0 -261.6855 -9.5916 L -261.6855 -9.6916 A 0.4500 0.4500 0 0 0 -262.1355 -10.1416 L -268.0636 -10.1416 A 0.4500 0.4500 0 0 0 -268.5136 -9.6916 L -268.5136 -9.5916 A 0.4500 0.4500 0 0 0 -268.0636 -9.1416 Z" stroke="green" stroke-width="1" fill="none" /><path d="M -306.2075 -11.1416 L -293.1156 -11.1416 A 0.4500 0.4500 0 0 0 -292.6656 -11.5916 L -292.6656 -11.6916 A 0.4500 0.4500 0 0 0 -293.1156 -12.1416 L -306.2075 -12.1416 A 0.4500 0.4500 0 0 0 -306.6575 -11.6916 L -306.6575 -11.5916 A 0.4500 0.4500 0 0 0 -306.2075 -11.1416 Z" stroke="green" stroke-width="1" fill="none" /><path d="M -291.2156 -11.1416 L -278.1238 -11.1416 A 0.4500 0.4500 0 0 0 -277.6738 -11.5916 L -277.6738 -11.6916 A 0.4500 0.4500 0 0 0 -278.1238 -12.1416 L -291.2156 -12.1416 A 0.4500 0.4500 0 0 0 -291.6656 -11.6916 L -291.6656 -11.5916 A 0.4500 0.4500 0 0 0 -291.2156 -11.1416 Z" stroke="green" stroke-width="1" fill="none" /><path d="M -276.2238 -11.1416 L -263.1319 -11.1416 A 0.4500 0.4500 0 0 0 -262.6819 -11.5916 L -262.6819 -11.6916 A 0.4500 0.4500 0 0 0 -263.1319 -12.1416 L -276.2238 -12.1416 A 0.4500 0.4500 0 0 0 -276.6738 -11.6916 L -276.6738 -11.5916 A 0.4500 0.4500 0 0 0 -276.2238 -11.1416 Z" stroke="green" stroke-width="1" fill="none" /><circle cx="-295.9527" cy="4.2500" r="2.1250" stroke="green" stroke-width="1" fill="none" /><circle cx="-273.3867" cy="4.2500" r="2.1250" stroke="green" stroke-width="1" fill="none" /><circle cx="-334.7035" cy="-23.1416" r="8.0000" stroke="green" stroke-width="1" fill="none" /><path d="M -357.9850 -5.1416 L -351.8078 -5.1416 A 0.4500 0.4500 0 0 0 -351.3578 -5.5916 L -351.3578 -5.6916 A 0.4500 0.4500 0 0 0 -351.8078 -6.1416 L -357.9850 -6.1416 A 0.4500 0.4500 0 0 0 -358.4350 -5.6916 L -358.4350 -5.5916 A 0.4500 0.4500 0 0 0 -357.9850 -5.1416 Z" stroke="green" stroke-width="1" fill="none" /><path d="M -349.9078 -5.1416 L -335.6535 -5.1416 A 0.4500 0.4500 0 0 0 -335.2035 -5.5916 L -335.2035 -5.6916 A 0.4500 0.4500 0 0 0 -335.6535 -6.1416 L -349.9078 -6.1416 A 0.4500 0.4500 0 0 0 -350.3578 -5.6916 L -350.3578 -5.5916 A 0.4500 0.4500 0 0 0 -349.9078 -5.1416 Z" stroke="green" stroke-width="1" fill="none" /><path d="M -333.7535 -5.1416 L -319.4991 -5.1416 A 0.4500 0.4500 0 0 0 -319.0491 -5.5916 L -319.0491 -5.6916 A 0.4500 0.4500 0 0 0 -319.4991 -6.1416 L -333.7535 -6.1416 A 0.4500 0.4500 0 0 0 -334.2035 -5.6916 L -334.2035 -5.5916 A 0.4500 0.4500 0 0 0 -333.7535 -5.1416 Z" stroke="green" stroke-width="1" fill="none" /><path d="M -317.5991 -5.1416 L -311.4220 -5.1416 A 0.4500 0.4500 0 0 0 -310.9720 -5.5916 L -310.9720 -5.6916 A 0.4500 0.4500 0 0 0 -311.4220 -6.1416 L -317.5991 -6.1416 A 0.4500 0.4500 0 0 0 -318.0491 -5.6916 L -318.0491 -5.5916 A 0.4500 0.4500 0 0 0 -317.5991 -5.1416 Z" stroke="green" stroke-width="1" fill="none" /><path d="M -357.9850 -7.1416 L -343.7306 -7.1416 A 0.4500 0.4500 0 0 0 -343.2806 -7.5916 L -343.2806 -7.6916 A 0.4500 0.4500 0 0 0 -343.7306 -8.1416 L -357.9850 -8.1416 A 0.4500 0.4500 0 0 0 -358.4350 -7.6916 L -358.4350 -7.5916 A 0.4500 0.4500 0 0 0 -357.9850 -7.1416 Z" stroke="green" stroke-width="1" fill="none" /><path d="M -341.8306 -7.1416 L -327.5763 -7.1416 A 0.4500 0.4500 0 0 0 -327.1263 -7.5916 L -327.1263 -7.6916 A 0.4500 0.4500 0 0 0 -327.5763 -8.1416 L -341.8306 -8.1416 A 0.4500 0.4500 0 0 0 -342.2806 -7.6916 L -342.2806 -7.5916 A 0.4500 0.4500 0 0 0 -341.8306 -7.1416 Z" stroke="green" stroke-width="1" fill="none" /><path d="M -325.6763 -7.1416 L -311.4220 -7.1416 A 0.4500 0.4500 0 0 0 -310.9720 -7.5916 L -310.9720 -7.6916 A 0.4500 0.4500 0 0 0 -311.4220 -8.1416 L -325.6763 -8.1416 A 0.4500 0.4500 0 0 0 -326.1263 -7.6916 L -326.1263 -7.5916 A 0.4500 0.4500 0 0 0 -325.6763 -7.1416 Z" stroke="green" stroke-width="1" fill="none" /><path d="M -357.2377 -9.1416 L -351.3096 -9.1416 A 0.4500 0.4500 0 0 0 -350.8596 -9.5916 L -350.8596 -9.6916 A 0.4500 0.4500 0 0 0 -351.3096 -10.1416 L -357.2377 -10.1416 A 0.4500 0.4500 0 0 0 -357.6877 -9.6916 L -357.6877 -9.5916 A 0.4500 0.4500 0 0 0 -357.2377 -9.1416 Z" stroke="green" stroke-width="1" fill="none" /><path d="M -349.4096 -9.1416 L -335.6535 -9.1416 A 0.4500 0.4500 0 0 0 -335.2035 -9.5916 L -335.2035 -9.6916 A 0.4500 0.4500 0 0 0 -335.6535 -10.1416 L -349.4096 -10.1416 A 0.4500 0.4500 0 0 0 -349.8596 -9.6916 L -349.8596 -9.5916 A 0.4500 0.4500 0 0 0 -349.4096 -9.1416 Z" stroke="green" stroke-width="1" fill="none" /><path d="M -333.7535 -9.1416 L -319.9973 -9.1416 A 0.4500 0.4500 0 0 0 -319.5473 -9.5916 L -319.5473 -9.6916 A 0.4500 0.4500 0 0 0 -319.9973 -10.1416 L -333.7535 -10.1416 A 0.4500 0.4500 0 0 0 -334.2035 -9.6916 L -334.2035 -9.5916 A 0.4500 0.4500 0 0 0 -333.7535 -9.1416 Z" stroke="green" stroke-width="1" fill="none" /><path d="M -318.0973 -9.1416 L -312.1693 -9.1416 A 0.4500 0.4500 0 0 0 -311.7193 -9.5916 L -311.7193 -9.6916 A 0.4500 0.4500 0 0 0 -312.1693 -10.1416 L -318.0973 -10.1416 A 0.4500 0.4500 0 0 0 -318.5473 -9.6916 L -318.5473 -9.5916 A 0.4500 0.4500 0 0 0 -318.0973 -9.1416 Z" stroke="green" stroke-width="1" fill="none" /><path d="M -356.2413 -11.1416 L -343.1494 -11.1416 A 0.4500 0.4500 0 0 0 -342.6994 -11.5916 L -342.6994 -11.6916 A 0.4500 0.4500 0 0 0 -343.1494 -12.1416 L -356.2413 -12.1416 A 0.4500 0.4500 0 0 0 -356.6913 -11.6916 L -356.6913 -11.5916 A 0.4500 0.4500 0 0 0 -356.2413 -11.1416 Z" stroke="green" stroke-width="1" fill="none" /><path d="M -341.2494 -11.1416 L -328.1575 -11.1416 A 0.4500 0.4500 0 0 0 -327.7075 -11.5916 L -327.7075 -11.6916 A 0.4500 0.4500 0 0 0 -328.1575 -12.1416 L -341.2494 -12.1416 A 0.4500 0.4500 0 0 0 -341.6994 -11.6916 L -341.6994 -11.5916 A 0.4500 0.4500 0 0 0 -341.2494 -11.1416 Z" stroke="green" stroke-width="1" fill="none" /><path d="M -326.2575 -11.1416 L -313.1657 -11.1416 A 0.4500 0.4500 0 0 0 -312.7157 -11.5916 L -312.7157 -11.6916 A 0.4500 0.4500 0 0 0 -313.1657 -12.1416 L -326.2575 -12.1416 A 0.4500 0.4500 0 0 0 -326.7075 -11.6916 L -326.7075 -11.5916 A 0.4500 0.4500 0 0 0 -326.2575 -11.1416 Z" stroke="green" stroke-width="1" fill="none" /><circle cx="-345.9865" cy="4.2500" r="2.1250" stroke="green" stroke-width="1" fill="none" /><circle cx="-323.4205" cy="4.2500" r="2.1250" stroke="green" stroke-width="1" fill="none" /><path d="M 14.5330 19.1416 A 1.0000 1.0000 0 0 0 16.5330 19.1416 L 16.5330 18.0000 A 1.0000 1.0000 0 0 0 14.5330 18.0000 L 14.5330 19.1416 Z" stroke="green" stroke-width="1" fill="none" /><path d="M 16.5330 -2.1416 A 1.0000 1.0000 0 0 0 14.5330 -2.1416 L 14.5330 -1.0000 A 1.0000 1.0000 0 0 0 16.5330 -1.0000 L 16.5330 -2.1416 Z" stroke="green" stroke-width="1" fill="none" /><path d="M -0.0000 23.6416 L -0.0000 21.6416 L -1.5708 21.6416 L -1.5708 23.6416 L -0.0000 23.6416 Z" stroke="green" stroke-width="1" fill="none" /><path d="M 32.6368 23.6416 L 32.6368 21.6416 L 31.0660 21.6416 L 31.0660 23.6416 L 32.6368 23.6416 Z" stroke="green" stroke-width="1" fill="none" /><path d="M -18.1038 19.1416 A 1.0000 1.0000 0 0 0 -16.1038 19.1416 L -16.1038 18.0000 A 1.0000 1.0000 0 0 0 -18.1038 18.0000 L -18.1038 19.1416 Z" stroke="green" stroke-width="1" fill="none" /><path d="M -32.6368 23.6416 L -32.6368 21.6416 L -34.2076 21.6416 L -34.2076 23.6416 L -32.6368 23.6416 Z" stroke="green" stroke-width="1" fill="none" /><path d="M -50.7406 19.1416 A 1.0000 1.0000 0 0 0 -48.7406 19.1416 L -48.7406 18.0000 A 1.0000 1.0000 0 0 0 -50.7406 18.0000 L -50.7406 19.1416 Z" stroke="green" stroke-width="1" fill="none" /><path d="M -65.2736 23.6416 L -65.2736 21.6416 L -66.8444 21.6416 L -66.8444 23.6416 L -65.2736 23.6416 Z" stroke="green" stroke-width="1" fill="none" /><path d="M -83.3774 19.1416 A 1.0000 1.0000 0 0 0 -81.3774 19.1416 L -81.3774 18.0000 A 1.0000 1.0000 0 0 0 -83.3774 18.0000 L -83.3774 19.1416 Z" stroke="green" stroke-width="1" fill="none" /><path d="M -97.9104 23.6416 L -97.9104 21.6416 L -99.4812 21.6416 L -99.4812 23.6416 L -97.9104 23.6416 Z" stroke="green" stroke-width="1" fill="none" /><path d="M -116.0142 19.1416 A 1.0000 1.0000 0 0 0 -114.0142 19.1416 L -114.0142 18.0000 A 1.0000 1.0000 0 0 0 -116.0142 18.0000 L -116.0142 19.1416 Z" stroke="green" stroke-width="1" fill="none" /><path d="M -130.5473 23.6416 L -130.5473 21.6416 L -132.1181 21.6416 L -132.1181 23.6416 L -130.5473 23.6416 Z" stroke="green" stroke-width="1" fill="none" /><path d="M -148.6511 19.1416 A 1.0000 1.0000 0 0 0 -146.6511 19.1416 L -146.6511 18.0000 A 1.0000 1.0000 0 0 0 -148.6511 18.0000 L -148.6511 19.1416 Z" stroke="green" stroke-width="1" fill="none" /><path d="M -163.1841 23.6416 L -163.1841 21.6416 L -164.7549 21.6416 L -164.7549 23.6416 L -163.1841 23.6416 Z" stroke="green" stroke-width="1" fill="none" /><path d="M -181.2879 19.1416 A 1.0000 1.0000 0 0 0 -179.2879 19.1416 L -179.2879 18.0000 A 1.0000 1.0000 0 0 0 -181.2879 18.0000 L -181.2879 19.1416 Z" stroke="green" stroke-width="1" fill="none" /><path d="M -195.8209 23.6416 L -195.8209 21.6416 L -197.3917 21.6416 L -197.3917 23.6416 L -195.8209 23.6416 Z" stroke="green" stroke-width="1" fill="none" /><path d="M -213.9247 19.1416 A 1.0000 1.0000 0 0 0 -211.9247 19.1416 L -211.9247 18.0000 A 1.0000 1.0000 0 0 0 -213.9247 18.0000 L -213.9247 19.1416 Z" stroke="green" stroke-width="1" fill="none" /><path d="M 41.3353 -4.6416 L 41.3353 -6.6416 L 39.7645 -6.6416 L 39.7645 -4.6416 L 41.3353 -4.6416 Z" stroke="green" stroke-width="1" fill="none" /><path d="M -8.6985 -4.6416 L -8.6985 -6.6416 L -10.2693 -6.6416 L -10.2693 -4.6416 L -8.6985 -4.6416 Z" stroke="green" stroke-width="1" fill="none" /><path d="M -33.5008 -2.1416 A 1.0000 1.0000 0 0 0 -35.5008 -2.1416 L -35.5008 -1.0000 A 1.0000 1.0000 0 0 0 -33.5008 -1.0000 L -33.5008 -2.1416 Z" stroke="green" stroke-width="1" fill="none" /><path d="M -58.7323 -4.6416 L -58.7323 -6.6416 L -60.3031 -6.6416 L -60.3031 -4.6416 L -58.7323 -4.6416 Z" stroke="green" stroke-width="1" fill="none" /><path d="M -83.5346 -2.1416 A 1.0000 1.0000 0 0 0 -85.5346 -2.1416 L -85.5346 -1.0000 A 1.0000 1.0000 0 0 0 -83.5346 -1.0000 L -83.5346 -2.1416 Z" stroke="green" stroke-width="1" fill="none" /><path d="M -108.7661 -4.6416 L -108.7661 -6.6416 L -110.3368 -6.6416 L -110.3368 -4.6416 L -108.7661 -4.6416 Z" stroke="green" stroke-width="1" fill="none" /><path d="M -133.5683 -2.1416 A 1.0000 1.0000 0 0 0 -135.5683 -2.1416 L -135.5683 -1.0000 A 1.0000 1.0000 0 0 0 -133.5683 -1.0000 L -133.5683 -2.1416 Z" stroke="green" stroke-width="1" fill="none" /><path d="M -158.7998 -4.6416 L -158.7998 -6.6416 L -160.3706 -6.6416 L -160.3706 -4.6416 L -158.7998 -4.6416 Z" stroke="green" stroke-width="1" fill="none" /><path d="M -183.6021 -2.1416 A 1.0000 1.0000 0 0 0 -185.6021 -2.1416 L -185.6021 -1.0000 A 1.0000 1.0000 0 0 0 -183.6021 -1.0000 L -183.6021 -2.1416 Z" stroke="green" stroke-width="1" fill="none" /><path d="M -208.8336 -4.6416 L -208.8336 -6.6416 L -210.4044 -6.6416 L -210.4044 -4.6416 L -208.8336 -4.6416 Z" stroke="green" stroke-width="1" fill="none" /><path d="M -233.6359 -2.1416 A 1.0000 1.0000 0 0 0 -235.6359 -2.1416 L -235.6359 -1.0000 A 1.0000 1.0000 0 0 0 -233.6359 -1.0000 L -233.6359 -2.1416 Z" stroke="green" stroke-width="1" fill="none" /><path d="M -258.8674 -4.6416 L -258.8674 -6.6416 L -260.4382 -6.6416 L -260.4382 -4.6416 L -258.8674 -4.6416 Z" stroke="green" stroke-width="1" fill="none" /><path d="M -283.6697 -2.1416 A 1.0000 1.0000 0 0 0 -285.6697 -2.1416 L -285.6697 -1.0000 A 1.0000 1.0000 0 0 0 -283.6697 -1.0000 L -283.6697 -2.1416 Z" stroke="green" stroke-width="1" fill="none" /><path d="M -308.9012 -4.6416 L -308.9012 -6.6416 L -310.4720 -6.6416 L -310.4720 -4.6416 L -308.9012 -4.6416 Z" stroke="green" stroke-width="1" fill="none" /><path d="M -333.7035 -2.1416 A 1.0000 1.0000 0 0 0 -335.7035 -2.1416 L -335.7035 -1.0000 A 1.0000 1.0000 0 0 0 -333.7035 -1.0000 L -333.7035 -2.1416 Z" stroke="green" stroke-width="1" fill="none" /></svg>