0
SECTION
2
ENTITIES
0
LINE
8
PARAMETRIX
10
0.0000
20
21.0000
11
17.0000
21
21.0000
0
LINE
8
PARAMETRIX
10
17.0000
20
21.0000
11
17.0000
21
22.0000
0
LINE
8
PARAMETRIX
10
17.0000
20
22.0000
11
0.0000
21
22.0000
0
LINE
8
PARAMETRIX
10
0.0000
20
22.0000
11
0.0000
21
21.0000
0
ARC
8
PARAMETRIX
10
17.0000
20
23.5000
40
2.5000
50
270.0000
51
0.0000
0
LINE
8
PARAMETRIX
10
19.5000
20
23.5000
11
18.5000
21
23.5000
0
ARC
8
PARAMETRIX
10
17.0000
20
23.5000
40
1.5000
50
270.0000
51
0.0000
0
LINE
8
PARAMETRIX
10
17.0000
20
22.0000
11
17.0000
21
21.0000
0
LINE
8
PARAMETRIX
10
19.5000
20
23.5000
11
19.5000
21
58.5000
0
LINE
8
PARAMETRIX
10
19.5000
20
58.5000
11
18.5000
21
58.5000
0
LINE
8
PARAMETRIX
10
18.5000
20
58.5000
11
18.5000
21
23.5000
0
LINE
8
PARAMETRIX
10
18.5000
20
23.5000
11
19.5000
21
23.5000
0
ARC
8
PARAMETRIX
10
0.0000
20
23.5000
40
1.5000
50
180.0000
51
270.0000
0
LINE
8
PARAMETRIX
10
-1.5000
20
23.5000
11
-2.5000
21
23.5000
0
ARC
8
PARAMETRIX
10
0.0000
20
23.5000
40
2.5000
50
180.0000
51
270.0000
0
LINE
8
PARAMETRIX
10
-0.0000
20
21.0000
11
0.0000
21
22.0000
0
LINE
8
PARAMETRIX
10
-1.5000
20
23.5000
11
-1.5000
21
58.5000
0
LINE
8
PARAMETRIX
10
-1.5000
20
58.5000
11
-2.5000
21
58.5000
0
LINE
8
PARAMETRIX
10
-2.5000
20
58.5000
11
-2.5000
21
23.5000
0
LINE
8
PARAMETRIX
10
-2.5000
20
23.5000
11
-1.5000
21
23.5000
0
LINE
8
PARAMETRIX
10
-8.6985
20
0.0000
11
39.7645
21
0.0000
0
LINE
8
PARAMETRIX
10
39.7645
20
0.0000
11
39.7645
21
1.0000
0
LINE
8
PARAMETRIX
10
39.7645
20
1.0000
11
-8.6985
21
1.0000
0
LINE
8
PARAMETRIX
10
-8.6985
20
1.0000
11
-8.6985
21
0.0000
0
ARC
8
PARAMETRIX
10
39.7645
20
2.5000
40
2.5000
50
270.0000
51
315.0000
0
LINE
8
PARAMETRIX
10
41.5323
20
0.7322
11
40.8252
21
1.4393
0
ARC
8
PARAMETRIX
10
39.7645
20
2.5000
40
1.5000
50
270.0000
51
315.0000
0
LINE
8
PARAMETRIX
10
39.7645
20
1.0000
11
39.7645
21
0.0000
0
LINE
8
PARAMETRIX
10
41.5323
20
0.7322
11
75.8008
21
35.0007
0
LINE
8
PARAMETRIX
10
75.8008
20
35.0007
11
75.0937
21
35.7078
0
LINE
8
PARAMETRIX
10
75.0937
20
35.7078
11
40.8252
21
1.4393
0
LINE
8
PARAMETRIX
10
40.8252
20
1.4393
11
41.5323
21
0.7322
0
ARC
8
PARAMETRIX
10
74.0330
20
36.7685
40
2.5000
50
315.0000
51
0.0000
0
LINE
8
PARAMETRIX
10
76.5330
20
36.7685
11
75.5330
21
36.7685
0
ARC
8
PARAMETRIX
10
74.0330
20
36.7685
40
1.5000
50
315.0000
51
360.0000
0
LINE
8
PARAMETRIX
10
75.0937
20
35.7078
11
75.8008
21
35.0007
0
LINE
8
PARAMETRIX
10
76.5330
20
36.7685
11
76.5330
21
85.2315
0
LINE
8
PARAMETRIX
10
76.5330
20
85.2315
11
75.5330
21
85.2315
0
LINE
8
PARAMETRIX
10
75.5330
20
85.2315
11
75.5330
21
36.7685
0
LINE
8
PARAMETRIX
10
75.5330
20
36.7685
11
76.5330
21
36.7685
0
ARC
8
PARAMETRIX
10
74.0330
20
85.2315
40
2.5000
50
360.0000
51
45.0000
0
LINE
8
PARAMETRIX
10
75.8008
20
86.9993
11
75.0937
21
86.2922
0
ARC
8
PARAMETRIX
10
74.0330
20
85.2315
40
1.5000
50
0.0000
51
45.0000
0
LINE
8
PARAMETRIX
10
75.5330
20
85.2315
11
76.5330
21
85.2315
0
LINE
8
PARAMETRIX
10
75.8008
20
86.9993
11
41.5323
21
121.2678
0
LINE
8
PARAMETRIX
10
41.5323
20
121.2678
11
40.8252
21
120.5607
0
LINE
8
PARAMETRIX
10
40.8252
20
120.5607
11
75.0937
21
86.2922
0
LINE
8
PARAMETRIX
10
75.0937
20
86.2922
11
75.8008
21
86.9993
0
ARC
8
PARAMETRIX
10
39.7645
20
119.5000
40
2.5000
50
45.0000
51
90.0000
0
LINE
8
PARAMETRIX
10
39.7645
20
122.0000
11
39.7645
21
121.0000
0
ARC
8
PARAMETRIX
10
39.7645
20
119.5000
40
1.5000
50
45.0000
51
90.0000
0
LINE
8
PARAMETRIX
10
40.8252
20
120.5607
11
41.5323
21
121.2678
0
LINE
8
PARAMETRIX
10
39.7645
20
122.0000
11
-8.6985
21
122.0000
0
LINE
8
PARAMETRIX
10
-8.6985
20
122.0000
11
-8.6985
21
121.0000
0
LINE
8
PARAMETRIX
10
-8.6985
20
121.0000
11
39.7645
21
121.0000
0
LINE
8
PARAMETRIX
10
39.7645
20
121.0000
11
39.7645
21
122.0000
0
ARC
8
PARAMETRIX
10
-8.6985
20
119.5000
40
2.5000
50
90.0000
51
135.0000
0
LINE
8
PARAMETRIX
10
-10.4663
20
121.2678
11
-9.7591
21
120.5607
0
ARC
8
PARAMETRIX
10
-8.6985
20
119.5000
40
1.5000
50
90.0000
51
135.0000
0
LINE
8
PARAMETRIX
10
-8.6985
20
121.0000
11
-8.6985
21
122.0000
0
LINE
8
PARAMETRIX
10
-10.4663
20
121.2678
11
-44.7348
21
86.9993
0
LINE
8
PARAMETRIX
10
-44.7348
20
86.9993
11
-44.0277
21
86.2922
0
LINE
8
PARAMETRIX
10
-44.0277
20
86.2922
11
-9.7591
21
120.5607
0
LINE
8
PARAMETRIX
10
-9.7591
20
120.5607
11
-10.4663
21
121.2678
0
ARC
8
PARAMETRIX
10
-42.9670
20
85.2315
40
2.5000
50
135.0000
51
180.0000
0
LINE
8
PARAMETRIX
10
-45.4670
20
85.2315
11
-44.4670
21
85.2315
0
ARC
8
PARAMETRIX
10
-42.9670
20
85.2315
40
1.5000
50
135.0000
51
180.0000
0
LINE
8
PARAMETRIX
10
-44.0277
20
86.2922
11
-44.7348
21
86.9993
0
LINE
8
PARAMETRIX
10
-45.4670
20
85.2315
11
-45.4670
21
36.7685
0
LINE
8
PARAMETRIX
10
-45.4670
20
36.7685
11
-44.4670
21
36.7685
0
LINE
8
PARAMETRIX
10
-44.4670
20
36.7685
11
-44.4670
21
85.2315
0
LINE
8
PARAMETRIX
10
-44.4670
20
85.2315
11
-45.4670
21
85.2315
0
ARC
8
PARAMETRIX
10
-42.9670
20
36.7685
40
2.5000
50
180.0000
51
225.0000
0
LINE
8
PARAMETRIX
10
-44.7348
20
35.0007
11
-44.0277
21
35.7078
0
ARC
8
PARAMETRIX
10
-42.9670
20
36.7685
40
1.5000
50
180.0000
51
225.0000
0
LINE
8
PARAMETRIX
10
-44.4670
20
36.7685
11
-45.4670
21
36.7685
0
LINE
8
PARAMETRIX
10
-44.7348
20
35.0007
11
-10.4663
21
0.7322
0
LINE
8
PARAMETRIX
10
-10.4663
20
0.7322
11
-9.7591
21
1.4393
0
LINE
8
PARAMETRIX
10
-9.7591
20
1.4393
11
-44.0277
21
35.7078
0
LINE
8
PARAMETRIX
10
-44.0277
20
35.7078
11
-44.7348
21
35.0007
0
ARC
8
PARAMETRIX
10
-8.6985
20
2.5000
40
1.5000
50
225.0000
51
270.0000
0
LINE
8
PARAMETRIX
10
-9.7591
20
1.4393
11
-10.4663
21
0.7322
0
ARC
8
PARAMETRIX
10
-8.6985
20
2.5000
40
2.5000
50
225.0000
51
270.0000
0
LINE
8
PARAMETRIX
10
-8.6985
20
0.0000
11
-8.6985
21
1.0000
0
LINE
8
PARAMETRIX
10
0.0000
20
-21.0000
11
31.0660
21
-21.0000
0
LINE
8
PARAMETRIX
10
31.0660
20
-21.0000
11
31.0660
21
-20.0000
0
LINE
8
PARAMETRIX
10
31.0660
20
-20.0000
11
0.0000
21
-20.0000
0
LINE
8
PARAMETRIX
10
0.0000
20
-20.0000
11
0.0000
21
-21.0000
0
ARC
8
PARAMETRIX
10
31.0660
20
-22.5000
40
1.5000
50
45.0000
51
90.0000
0
LINE
8
PARAMETRIX
10
32.1267
20
-21.4393
11
32.8338
21
-20.7322
0
ARC
8
PARAMETRIX
10
31.0660
20
-22.5000
40
2.5000
50
45.0000
51
90.0000
0
LINE
8
PARAMETRIX
10
31.0660
20
-20.0000
11
31.0660
21
-21.0000
0
LINE
8
PARAMETRIX
10
32.1267
20
-21.4393
11
54.0937
21
-43.4063
0
LINE
8
PARAMETRIX
10
54.0937
20
-43.4063
11
54.8008
21
-42.6992
0
LINE
8
PARAMETRIX
10
54.8008
20
-42.6992
11
32.8338
21
-20.7322
0
LINE
8
PARAMETRIX
10
32.8338
20
-20.7322
11
32.1267
21
-21.4393
0
ARC
8
PARAMETRIX
10
53.0330
20
-44.4670
40
1.5000
50
360.0000
51
45.0000
0
LINE
8
PARAMETRIX
10
54.5330
20
-44.4670
11
55.5330
21
-44.4670
0
ARC
8
PARAMETRIX
10
53.0330
20
-44.4670
40
2.5000
50
0.0000
51
45.0000
0
LINE
8
PARAMETRIX
10
54.8008
20
-42.6992
11
54.0937
21
-43.4063
0
LINE
8
PARAMETRIX
10
54.5330
20
-44.4670
11
54.5330
21
-75.5330
0
LINE
8
PARAMETRIX
10
54.5330
20
-75.5330
11
55.5330
21
-75.5330
0
LINE
8
PARAMETRIX
10
55.5330
20
-75.5330
11
55.5330
21
-44.4670
0
LINE
8
PARAMETRIX
10
55.5330
20
-44.4670
11
54.5330
21
-44.4670
0
ARC
8
PARAMETRIX
10
53.0330
20
-75.5330
40
1.5000
50
315.0000
51
0.0000
0
LINE
8
PARAMETRIX
10
54.0937
20
-76.5937
11
54.8008
21
-77.3008
0
ARC
8
PARAMETRIX
10
53.0330
20
-75.5330
40
2.5000
50
315.0000
51
0.0000
0
LINE
8
PARAMETRIX
10
55.5330
20
-75.5330
11
54.5330
21
-75.5330
0
LINE
8
PARAMETRIX
10
54.0937
20
-76.5937
11
32.1267
21
-98.5607
0
LINE
8
PARAMETRIX
10
32.1267
20
-98.5607
11
32.8338
21
-99.2678
0
LINE
8
PARAMETRIX
10
32.8338
20
-99.2678
11
54.8008
21
-77.3008
0
LINE
8
PARAMETRIX
10
54.8008
20
-77.3008
11
54.0937
21
-76.5937
0
ARC
8
PARAMETRIX
10
31.0660
20
-97.5000
40
1.5000
50
270.0000
51
315.0000
0
LINE
8
PARAMETRIX
10
31.0660
20
-99.0000
11
31.0660
21
-100.0000
0
ARC
8
PARAMETRIX
10
31.0660
20
-97.5000
40
2.5000
50
270.0000
51
315.0000
0
LINE
8
PARAMETRIX
10
32.8338
20
-99.2678
11
32.1267
21
-98.5607
0
LINE
8
PARAMETRIX
10
31.0660
20
-99.0000
11
0.0000
21
-99.0000
0
LINE
8
PARAMETRIX
10
0.0000
20
-99.0000
11
0.0000
21
-100.0000
0
LINE
8
PARAMETRIX
10
0.0000
20
-100.0000
11
31.0660
21
-100.0000
0
LINE
8
PARAMETRIX
10
31.0660
20
-100.0000
11
31.0660
21
-99.0000
0
ARC
8
PARAMETRIX
10
0.0000
20
-97.5000
40
1.5000
50
225.0000
51
270.0000
0
LINE
8
PARAMETRIX
10
-1.0607
20
-98.5607
11
-1.7678
21
-99.2678
0
ARC
8
PARAMETRIX
10
-0.0000
20
-97.5000
40
2.5000
50
225.0000
51
270.0000
0
LINE
8
PARAMETRIX
10
-0.0000
20
-100.0000
11
-0.0000
21
-99.0000
0
LINE
8
PARAMETRIX
10
-1.0607
20
-98.5607
11
-23.0277
21
-76.5937
0
LINE
8
PARAMETRIX
10
-23.0277
20
-76.5937
11
-23.7348
21
-77.3008
0
LINE
8
PARAMETRIX
10
-23.7348
20
-77.3008
11
-1.7678
21
-99.2678
0
LINE
8
PARAMETRIX
10
-1.7678
20
-99.2678
11
-1.0607
21
-98.5607
0
ARC
8
PARAMETRIX
10
-21.9670
20
-75.5330
40
1.5000
50
180.0000
51
225.0000
0
LINE
8
PARAMETRIX
10
-23.4670
20
-75.5330
11
-24.4670
21
-75.5330
0
ARC
8
PARAMETRIX
10
-21.9670
20
-75.5330
40
2.5000
50
180.0000
51
225.0000
0
LINE
8
PARAMETRIX
10
-23.7348
20
-77.3008
11
-23.0277
21
-76.5937
0
LINE
8
PARAMETRIX
10
-23.4670
20
-75.5330
11
-23.4670
21
-44.4670
0
LINE
8
PARAMETRIX
10
-23.4670
20
-44.4670
11
-24.4670
21
-44.4670
0
LINE
8
PARAMETRIX
10
-24.4670
20
-44.4670
11
-24.4670
21
-75.5330
0
LINE
8
PARAMETRIX
10
-24.4670
20
-75.5330
11
-23.4670
21
-75.5330
0
ARC
8
PARAMETRIX
10
-21.9670
20
-44.4670
40
1.5000
50
135.0000
51
180.0000
0
LINE
8
PARAMETRIX
10
-23.0277
20
-43.4063
11
-23.7348
21
-42.6992
0
ARC
8
PARAMETRIX
10
-21.9670
20
-44.4670
40
2.5000
50
135.0000
51
180.0000
0
LINE
8
PARAMETRIX
10
-24.4670
20
-44.4670
11
-23.4670
21
-44.4670
0
LINE
8
PARAMETRIX
10
-23.0277
20
-43.4063
11
-1.0607
21
-21.4393
0
LINE
8
PARAMETRIX
10
-1.0607
20
-21.4393
11
-1.7678
21
-20.7322
0
LINE
8
PARAMETRIX
10
-1.7678
20
-20.7322
11
-23.7348
21
-42.6992
0
LINE
8
PARAMETRIX
10
-23.7348
20
-42.6992
11
-23.0277
21
-43.4063
0
ARC
8
PARAMETRIX
10
-0.0000
20
-22.5000
40
2.5000
50
90.0000
51
135.0000
0
LINE
8
PARAMETRIX
10
-1.7678
20
-20.7322
11
-1.0607
21
-21.4393
0
ARC
8
PARAMETRIX
10
0.0000
20
-22.5000
40
1.5000
50
90.0000
51
135.0000
0
LINE
8
PARAMETRIX
10
-0.0000
20
-21.0000
11
0.0000
21
-20.0000
0
ENDSEC
0
EOF
