<svg width="48" height="44" viewBox="-2 -2 48 44" xmlns="http://www.w3.org/2000/svg"><path d="M 0.0000 0.0000 L 0.0000 31.0660 L 5.0000 31.0660 L 20.5235 30.5239 A 15.0000 15.0000 0 0 0 20.5235 0.5421 L 5.0000 0.0000 L 0.0000 0.0000 Z" stroke="green" stroke-width="1" fill="none" /><circle cx="20.0000" cy="15.5330" r="8.0000" stroke="green" stroke-width="1" fill="none" /><path d="M 2.0000 0.9500 L 2.0000 4.2277 A 0.4500 0.4500 0 0 0 2.4500 4.6777 L 2.5500 4.6777 A 0.4500 0.4500 0 0 0 3.0000 4.2277 L 3.0000 0.9500 A 0.4500 0.4500 0 0 0 2.5500 0.5000 L 2.4500 0.5000 A 0.4500 0.4500 0 0 0 2.0000 0.9500 Z" stroke="green" stroke-width="1" fill="none" /><path d="M 2.0000 6.1277 L 2.0000 14.5830 A 0.4500 0.4500 0 0 0 2.4500 15.0330 L 2.5500 15.0330 A 0.4500 0.4500 0 0 0 3.0000 14.5830 L 3.0000 6.1277 A 0.4500 0.4500 0 0 0 2.5500 5.6777 L 2.4500 5.6777 A 0.4500 0.4500 0 0 0 2.0000 6.1277 Z" stroke="green" stroke-width="1" fill="none" /><path d="M 2.0000 16.4830 L 2.0000 24.9383 A 0.4500 0.4500 0 0 0 2.4500 25.3883 L 2.5500 25.3883 A 0.4500 0.4500 0 0 0 3.0000 24.9383 L 3.0000 16.4830 A 0.4500 0.4500 0 0 0 2.5500 16.0330 L 2.4500 16.0330 A 0.4500 0.4500 0 0 0 2.0000 16.4830 Z" stroke="green" stroke-width="1" fill="none" /><path d="M 2.0000 26.8383 L 2.0000 30.1160 A 0.4500 0.4500 0 0 0 2.4500 30.5660 L 2.5500 30.5660 A 0.4500 0.4500 0 0 0 3.0000 30.1160 L 3.0000 26.8383 A 0.4500 0.4500 0 0 0 2.5500 26.3883 L 2.4500 26.3883 A 0.4500 0.4500 0 0 0 2.0000 26.8383 Z" stroke="green" stroke-width="1" fill="none" /><path d="M 4.0000 0.9500 L 4.0000 9.4053 A 0.4500 0.4500 0 0 0 4.4500 9.8553 L 4.5500 9.8553 A 0.4500 0.4500 0 0 0 5.0000 9.4053 L 5.0000 0.9500 A 0.4500 0.4500 0 0 0 4.5500 0.5000 L 4.4500 0.5000 A 0.4500 0.4500 0 0 0 4.0000 0.9500 Z" stroke="green" stroke-width="1" fill="none" /><path d="M 4.0000 11.3053 L 4.0000 19.7607 A 0.4500 0.4500 0 0 0 4.4500 20.2107 L 4.5500 20.2107 A 0.4500 0.4500 0 0 0 5.0000 19.7607 L 5.0000 11.3053 A 0.4500 0.4500 0 0 0 4.5500 10.8553 L 4.4500 10.8553 A 0.4500 0.4500 0 0 0 4.0000 11.3053 Z" stroke="green" stroke-width="1" fill="none" /><path d="M 4.0000 21.6607 L 4.0000 30.1160 A 0.4500 0.4500 0 0 0 4.4500 30.5660 L 4.5500 30.5660 A 0.4500 0.4500 0 0 0 5.0000 30.1160 L 5.0000 21.6607 A 0.4500 0.4500 0 0 0 4.5500 21.2107 L 4.4500 21.2107 A 0.4500 0.4500 0 0 0 4.0000 21.6607 Z" stroke="green" stroke-width="1" fill="none" /><path d="M 6.0000 1.0024 L 6.0000 4.2626 A 0.4500 0.4500 0 0 0 6.4500 4.7126 L 6.5500 4.7126 A 0.4500 0.4500 0 0 0 7.0000 4.2626 L 7.0000 1.0024 A 0.4500 0.4500 0 0 0 6.5500 0.5524 L 6.4500 0.5524 A 0.4500 0.4500 0 0 0 6.0000 1.0024 Z" stroke="green" stroke-width="1" fill="none" /><path d="M 6.0000 6.1626 L 6.0000 14.5830 A 0.4500 0.4500 0 0 0 6.4500 15.0330 L 6.5500 15.0330 A 0.4500 0.4500 0 0 0 7.0000 14.5830 L 7.0000 6.1626 A 0.4500 0.4500 0 0 0 6.5500 5.7126 L 6.4500 5.7126 A 0.4500 0.4500 0 0 0 6.0000 6.1626 Z" stroke="green" stroke-width="1" fill="none" /><path d="M 6.0000 16.4830 L 6.0000 24.9034 A 0.4500 0.4500 0 0 0 6.4500 25.3534 L 6.5500 25.3534 A 0.4500 0.4500 0 0 0 7.0000 24.9034 L 7.0000 16.4830 A 0.4500 0.4500 0 0 0 6.5500 16.0330 L 6.4500 16.0330 A 0.4500 0.4500 0 0 0 6.0000 16.4830 Z" stroke="green" stroke-width="1" fill="none" /><path d="M 6.0000 26.8034 L 6.0000 30.0636 A 0.4500 0.4500 0 0 0 6.4500 30.5136 L 6.5500 30.5136 A 0.4500 0.4500 0 0 0 7.0000 30.0636 L 7.0000 26.8034 A 0.4500 0.4500 0 0 0 6.5500 26.3534 L 6.4500 26.3534 A 0.4500 0.4500 0 0 0 6.0000 26.8034 Z" stroke="green" stroke-width="1" fill="none" /><path d="M 8.0000 1.0722 L 8.0000 9.4461 A 0.4500 0.4500 0 0 0 8.4500 9.8961 L 8.5500 9.8961 A 0.4500 0.4500 0 0 0 9.0000 9.4461 L 9.0000 1.0722 A 0.4500 0.4500 0 0 0 8.5500 0.6222 L 8.4500 0.6222 A 0.4500 0.4500 0 0 0 8.0000 1.0722 Z" stroke="green" stroke-width="1" fill="none" /><path d="M 8.0000 11.3461 L 8.0000 19.7199 A 0.4500 0.4500 0 0 0 8.4500 20.1699 L 8.5500 20.1699 A 0.4500 0.4500 0 0 0 9.0000 19.7199 L 9.0000 11.3461 A 0.4500 0.4500 0 0 0 8.5500 10.8961 L 8.4500 10.8961 A 0.4500 0.4500 0 0 0 8.0000 11.3461 Z" stroke="green" stroke-width="1" fill="none" /><path d="M 8.0000 21.6199 L 8.0000 29.9938 A 0.4500 0.4500 0 0 0 8.4500 30.4438 L 8.5500 30.4438 A 0.4500 0.4500 0 0 0 9.0000 29.9938 L 9.0000 21.6199 A 0.4500 0.4500 0 0 0 8.5500 21.1699 L 8.4500 21.1699 A 0.4500 0.4500 0 0 0 8.0000 21.6199 Z" stroke="green" stroke-width="1" fill="none" /></svg>