<svg width="144" height="254" viewBox="-53 -113 144 254" xmlns="http://www.w3.org/2000/svg"><path d="M 0.0000 1.0000 L 17.0000 1.0000 L 17.0000 -0.0000 L 0.0000 -0.0000 L 0.0000 1.0000 Z" stroke="green" stroke-width="1" fill="none" /><path d="M 17.0000 1.0000 A 2.5000 2.5000 0 0 0 19.5000 -1.5000 L 18.5000 -1.5000 A 1.5000 1.5000 0 0 1 17.0000 -0.0000 L 17.0000 1.0000 Z" stroke="green" stroke-width="1" fill="none" /><path d="M 19.5000 -1.5000 L 19.5000 -36.5000 L 18.5000 -36.5000 L 18.5000 -1.5000 L 19.5000 -1.5000 Z" stroke="green" stroke-width="1" fill="none" /><path d="M 0.0000 -0.0000 A 1.5000 1.5000 0 0 1 -1.5000 -1.5000 L -2.5000 -1.5000 A 2.5000 2.5000 0 0 0 -0.0000 1.0000 L 0.0000 -0.0000 Z" stroke="green" stroke-width="1" fill="none" /><path d="M -1.5000 -1.5000 L -1.5000 -36.5000 L -2.5000 -36.5000 L -2.5000 -1.5000 L -1.5000 -1.5000 Z" stroke="green" stroke-width="1" fill="none" /><path d="M -8.6985 22.0000 L 39.7645 22.0000 L 39.7645 21.0000 L -8.6985 21.0000 L -8.6985 22.0000 Z" stroke="green" stroke-width="1" fill="none" /><path d="M 39.7645 22.0000 A 2.5000 2.5000 0 0 0 41.5323 21.2678 L 40.8252 20.5607 A 1.5000 1.5000 0 0 1 39.7645 21.0000 L 39.7645 22.0000 Z" stroke="green" stroke-width="1" fill="none" /><path d="M 41.5323 21.2678 L 75.8008 -13.0007 L 75.0937 -13.7078 L 40.8252 20.5607 L 41.5323 21.2678 Z" stroke="green" stroke-width="1" fill="none" /><path d="M 75.8008 -13.0007 A 2.5000 2.5000 0 0 0 76.5330 -14.7685 L 75.5330 -14.7685 A 1.5000 1.5000 0 0 1 75.0937 -13.7078 L 75.8008 -13.0007 Z" stroke="green" stroke-width="1" fill="none" /><path d="M 76.5330 -14.7685 L 76.5330 -63.2315 L 75.5330 -63.2315 L 75.5330 -14.7685 L 76.5330 -14.7685 Z" stroke="green" stroke-width="1" fill="none" /><path d="M 76.5330 -63.2315 A 2.5000 2.5000 0 0 0 75.8008 -64.9993 L 75.0937 -64.2922 A 1.5000 1.5000 0 0 1 75.5330 -63.2315 L 76.5330 -63.2315 Z" stroke="green" stroke-width="1" fill="none" /><path d="M 75.8008 -64.9993 L 41.5323 -99.2678 L 40.8252 -98.5607 L 75.0937 -64.2922 L 75.8008 -64.9993 Z" stroke="green" stroke-width="1" fill="none" /><path d="M 41.5323 -99.2678 A 2.5000 2.5000 0 0 0 39.7645 -100.0000 L 39.7645 -99.0000 A 1.5000 1.5000 0 0 1 40.8252 -98.5607 L 41.5323 -99.2678 Z" stroke="green" stroke-width="1" fill="none" /><path d="M 39.7645 -100.0000 L -8.6985 -100.0000 L -8.6985 -99.0000 L 39.7645 -99.0000 L 39.7645 -100.0000 Z" stroke="green" stroke-width="1" fill="none" /><path d="M -8.6985 -100.0000 A 2.5000 2.5000 0 0 0 -10.4663 -99.2678 L -9.7591 -98.5607 A 1.5000 1.5000 0 0 1 -8.6985 -99.0000 L -8.6985 -100.0000 Z" stroke="green" stroke-width="1" fill="none" /><path d="M -10.4663 -99.2678 L -44.7348 -64.9993 L -44.0277 -64.2922 L -9.7591 -98.5607 L -10.4663 -99.2678 Z" stroke="green" stroke-width="1" fill="none" /><path d="M -44.7348 -64.9993 A 2.5000 2.5000 0 0 0 -45.4670 -63.2315 L -44.4670 -63.2315 A 1.5000 1.5000 0 0 1 -44.0277 -64.2922 L -44.7348 -64.9993 Z" stroke="green" stroke-width="1" fill="none" /><path d="M -45.4670 -63.2315 L -45.4670 -14.7685 L -44.4670 -14.7685 L -44.4670 -63.2315 L -45.4670 -63.2315 Z" stroke="green" stroke-width="1" fill="none" /><path d="M -45.4670 -14.7685 A 2.5000 2.5000 0 0 0 -44.7348 -13.0007 L -44.0277 -13.7078 A 1.5000 1.5000 0 0 1 -44.4670 -14.7685 L -45.4670 -14.7685 Z" stroke="green" stroke-width="1" fill="none" /><path d="M -44.7348 -13.0007 L -10.4663 21.2678 L -9.7591 20.5607 L -44.0277 -13.7078 L -44.7348 -13.0007 Z" stroke="green" stroke-width="1" fill="none" /><path d="M -8.6985 21.0000 A 1.5000 1.5000 0 0 1 -9.7591 20.5607 L -10.4663 21.2678 A 2.5000 2.5000 0 0 0 -8.6985 22.0000 L -8.6985 21.0000 Z" stroke="green" stroke-width="1" fill="none" /><path d="M 0.0000 43.0000 L 31.0660 43.0000 L 31.0660 42.0000 L 0.0000 42.0000 L 0.0000 43.0000 Z" stroke="green" stroke-width="1" fill="none" /><path d="M 31.0660 43.0000 A 1.5000 1.5000 0 0 1 32.1267 43.4393 L 32.8338 42.7322 A 2.5000 2.5000 0 0 0 31.0660 42.0000 L 31.0660 43.0000 Z" stroke="green" stroke-width="1" fill="none" /><path d="M 32.1267 43.4393 L 54.0937 65.4063 L 54.8008 64.6992 L 32.8338 42.7322 L 32.1267 43.4393 Z" stroke="green" stroke-width="1" fill="none" /><path d="M 54.0937 65.4063 A 1.5000 1.5000 0 0 1 54.5330 66.4670 L 55.5330 66.4670 A 2.5000 2.5000 0 0 0 54.8008 64.6992 L 54.0937 65.4063 Z" stroke="green" stroke-width="1" fill="none" /><path d="M 54.5330 66.4670 L 54.5330 97.5330 L 55.5330 97.5330 L 55.5330 66.4670 L 54.5330 66.4670 Z" stroke="green" stroke-width="1" fill="none" /><path d="M 54.5330 97.5330 A 1.5000 1.5000 0 0 1 54.0937 98.5937 L 54.8008 99.3008 A 2.5000 2.5000 0 0 0 55.5330 97.5330 L 54.5330 97.5330 Z" stroke="green" stroke-width="1" fill="none" /><path d="M 54.0937 98.5937 L 32.1267 120.5607 L 32.8338 121.2678 L 54.8008 99.3008 L 54.0937 98.5937 Z" stroke="green" stroke-width="1" fill="none" /><path d="M 32.1267 120.5607 A 1.5000 1.5000 0 0 1 31.0660 121.0000 L 31.0660 122.0000 A 2.5000 2.5000 0 0 0 32.8338 121.2678 L 32.1267 120.5607 Z" stroke="green" stroke-width="1" fill="none" /><path d="M 31.0660 121.0000 L 0.0000 121.0000 L 0.0000 122.0000 L 31.0660 122.0000 L 31.0660 121.0000 Z" stroke="green" stroke-width="1" fill="none" /><path d="M -0.0000 121.0000 A 1.5000 1.5000 0 0 1 -1.0607 120.5607 L -1.7678 121.2678 A 2.5000 2.5000 0 0 0 -0.0000 122.0000 L -0.0000 121.0000 Z" stroke="green" stroke-width="1" fill="none" /><path d="M -1.0607 120.5607 L -23.0277 98.5937 L -23.7348 99.3008 L -1.7678 121.2678 L -1.0607 120.5607 Z" stroke="green" stroke-width="1" fill="none" /><path d="M -23.0277 98.5937 A 1.5000 1.5000 0 0 1 -23.4670 97.5330 L -24.4670 97.5330 A 2.5000 2.5000 0 0 0 -23.7348 99.3008 L -23.0277 98.5937 Z" stroke="green" stroke-width="1" fill="none" /><path d="M -23.4670 97.5330 L -23.4670 66.4670 L -24.4670 66.4670 L -24.4670 97.5330 L -23.4670 97.5330 Z" stroke="green" stroke-width="1" fill="none" /><path d="M -23.4670 66.4670 A 1.5000 1.5000 0 0 1 -23.0277 65.4063 L -23.7348 64.6992 A 2.5000 2.5000 0 0 0 -24.4670 66.4670 L -23.4670 66.4670 Z" stroke="green" stroke-width="1" fill="none" /><path d="M -23.0277 65.4063 L -1.0607 43.4393 L -1.7678 42.7322 L -23.7348 64.6992 L -23.0277 65.4063 Z" stroke="green" stroke-width="1" fill="none" /><path d="M 0.0000 42.0000 A 2.5000 2.5000 0 0 0 -1.7678 42.7322 L -1.0607 43.4393 A 1.5000 1.5000 0 0 1 -0.0000 43.0000 L 0.0000 42.0000 Z" stroke="green" stroke-width="1" fill="none" /></svg>