0
SECTION
2
ENTITIES
0
LINE
8
PARAMETRIX
10
0.0000
20
31.0660
11
0.0000
21
0.0000
0
LINE
8
PARAMETRIX
10
0.0000
20
0.0000
11
5.0000
21
0.0000
0
LINE
8
PARAMETRIX
10
5.0000
20
0.0000
11
20.5235
21
0.5421
0
ARC
8
PARAMETRIX
10
20.0000
20
15.5330
40
15.0000
50
272.0002
51
87.9998
0
LINE
8
PARAMETRIX
10
20.5235
20
30.5239
11
5.0000
21
31.0660
0
LINE
8
PARAMETRIX
10
5.0000
20
31.0660
11
0.0000
21
31.0660
0
CIRCLE
8
PARAMETRIX
10
20.0000
20
15.5330
40
8.0000
0
LINE
8
PARAMETRIX
10
2.0000
20
30.1160
11
2.0000
21
26.8383
0
ARC
8
PARAMETRIX
10
2.4500
20
26.8383
40
0.4500
50
180.0000
51
270.0000
0
LINE
8
PARAMETRIX
10
2.4500
20
26.3883
11
2.5500
21
26.3883
0
ARC
8
PARAMETRIX
10
2.5500
20
26.8383
40
0.4500
50
270.0000
51
0.0000
0
LINE
8
PARAMETRIX
10
3.0000
20
26.8383
11
3.0000
21
30.1160
0
ARC
8
PARAMETRIX
10
2.5500
20
30.1160
40
0.4500
50
0.0000
51
90.0000
0
LINE
8
PARAMETRIX
10
2.5500
20
30.5660
11
2.4500
21
30.5660
0
ARC
8
PARAMETRIX
10
2.4500
20
30.1160
40
0.4500
50
90.0000
51
180.0000
0
LINE
8
PARAMETRIX
10
2.0000
20
24.9383
11
2.0000
21
16.4830
0
ARC
8
PARAMETRIX
10
2.4500
20
16.4830
40
0.4500
50
180.0000
51
270.0000
0
LINE
8
PARAMETRIX
10
2.4500
20
16.0330
11
2.5500
21
16.0330
0
ARC
8
PARAMETRIX
10
2.5500
20
16.4830
40
0.4500
50
270.0000
51
360.0000
0
LINE
8
PARAMETRIX
10
3.0000
20
16.4830
11
3.0000
21
24.9383
0
ARC
8
PARAMETRIX
10
2.5500
20
24.9383
40
0.4500
50
0.0000
51
90.0000
0
LINE
8
PARAMETRIX
10
2.5500
20
25.3883
11
2.4500
21
25.3883
0
ARC
8
PARAMETRIX
10
2.4500
20
24.9383
40
0.4500
50
90.0000
51
180.0000
0
LINE
8
PARAMETRIX
10
2.0000
20
14.5830
11
2.0000
21
6.1277
0
ARC
8
PARAMETRIX
10
2.4500
20
6.1277
40
0.4500
50
180.0000
51
270.0000
0
LINE
8
PARAMETRIX
10
2.4500
20
5.6777
11
2.5500
21
5.6777
0
ARC
8
PARAMETRIX
10
2.5500
20
6.1277
40
0.4500
50
270.0000
51
0.0000
0
LINE
8
PARAMETRIX
10
3.0000
20
6.1277
11
3.0000
21
14.5830
0
ARC
8
PARAMETRIX
10
2.5500
20
14.5830
40
0.4500
50
0.0000
51
90.0000
0
LINE
8
PARAMETRIX
10
2.5500
20
15.0330
11
2.4500
21
15.0330
0
ARC
8
PARAMETRIX
10
2.4500
20
14.5830
40
0.4500
50
90.0000
51
180.0000
0
LINE
8
PARAMETRIX
10
2.0000
20
4.2277
11
2.0000
21
0.9500
0
ARC
8
PARAMETRIX
10
2.4500
20
0.9500
40
0.4500
50
180.0000
51
270.0000
0
LINE
8
PARAMETRIX
10
2.4500
20
0.5000
11
2.5500
21
0.5000
0
ARC
8
PARAMETRIX
10
2.5500
20
0.9500
40
0.4500
50
270.0000
51
0.0000
0
LINE
8
PARAMETRIX
10
3.0000
20
0.9500
11
3.0000
21
4.2277
0
ARC
8
PARAMETRIX
10
2.5500
20
4.2277
40
0.4500
50
0.0000
51
90.0000
0
LINE
8
PARAMETRIX
10
2.5500
20
4.6777
11
2.4500
21
4.6777
0
ARC
8
PARAMETRIX
10
2.4500
20
4.2277
40
0.4500
50
90.0000
51
180.0000
0
LINE
8
PARAMETRIX
10
4.0000
20
30.1160
11
4.0000
21
21.6607
0
ARC
8
PARAMETRIX
10
4.4500
20
21.6607
40
0.4500
50
180.0000
51
270.0000
0
LINE
8
PARAMETRIX
10
4.4500
20
21.2107
11
4.5500
21
21.2107
0
ARC
8
PARAMETRIX
10
4.5500
20
21.6607
40
0.4500
50
270.0000
51
0.0000
0
LINE
8
PARAMETRIX
10
5.0000
20
21.6607
11
5.0000
21
30.1160
0
ARC
8
PARAMETRIX
10
4.5500
20
30.1160
40
0.4500
50
360.0000
51
90.0000
0
LINE
8
PARAMETRIX
10
4.5500
20
30.5660
11
4.4500
21
30.5660
0
ARC
8
PARAMETRIX
10
4.4500
20
30.1160
40
0.4500
50
90.0000
51
180.0000
0
LINE
8
PARAMETRIX
10
4.0000
20
19.7607
11
4.0000
21
11.3053
0
ARC
8
PARAMETRIX
10
4.4500
20
11.3053
40
0.4500
50
180.0000
51
270.0000
0
LINE
8
PARAMETRIX
10
4.4500
20
10.8553
11
4.5500
21
10.8553
0
ARC
8
PARAMETRIX
10
4.5500
20
11.3053
40
0.4500
50
270.0000
51
0.0000
0
LINE
8
PARAMETRIX
10
5.0000
20
11.3053
11
5.0000
21
19.7607
0
ARC
8
PARAMETRIX
10
4.5500
20
19.7607
40
0.4500
50
0.0000
51
90.0000
0
LINE
8
PARAMETRIX
10
4.5500
20
20.2107
11
4.4500
21
20.2107
0
ARC
8
PARAMETRIX
10
4.4500
20
19.7607
40
0.4500
50
90.0000
51
180.0000
0
LINE
8
PARAMETRIX
10
4.0000
20
9.4053
11
4.0000
21
0.9500
0
ARC
8
PARAMETRIX
10
4.4500
20
0.9500
40
0.4500
50
180.0000
51
270.0000
0
LINE
8
PARAMETRIX
10
4.4500
20
0.5000
11
4.5500
21
0.5000
0
ARC
8
PARAMETRIX
10
4.5500
20
0.9500
40
0.4500
50
270.0000
51
0.0000
0
LINE
8
PARAMETRIX
10
5.0000
20
0.9500
11
5.0000
21
9.4053
0
ARC
8
PARAMETRIX
10
4.5500
20
9.4053
40
0.4500
50
0.0000
51
90.0000
0
LINE
8
PARAMETRIX
10
4.5500
20
9.8553
11
4.4500
21
9.8553
0
ARC
8
PARAMETRIX
10
4.4500
20
9.4053
40
0.4500
50
90.0000
51
180.0000
0
LINE
8
PARAMETRIX
10
6.0000
20
30.0636
11
6.0000
21
26.8034
0
ARC
8
PARAMETRIX
10
6.4500
20
26.8034
40
0.4500
50
180.0000
51
270.0000
0
LINE
8
PARAMETRIX
10
6.4500
20
26.3534
11
6.5500
21
26.3534
0
ARC
8
PARAMETRIX
10
6.5500
20
26.8034
40
0.4500
50
270.0000
51
360.0000
0
LINE
8
PARAMETRIX
10
7.0000
20
26.8034
11
7.0000
21
30.0636
0
ARC
8
PARAMETRIX
10
6.5500
20
30.0636
40
0.4500
50
360.0000
51
90.0000
0
LINE
8
PARAMETRIX
10
6.5500
20
30.5136
11
6.4500
21
30.5136
0
ARC
8
PARAMETRIX
10
6.4500
20
30.0636
40
0.4500
50
90.0000
51
180.0000
0
LINE
8
PARAMETRIX
10
6.0000
20
24.9034
11
6.0000
21
16.4830
0
ARC
8
PARAMETRIX
10
6.4500
20
16.4830
40
0.4500
50
180.0000
51
270.0000
0
LINE
8
PARAMETRIX
10
6.4500
20
16.0330
11
6.5500
21
16.0330
0
ARC
8
PARAMETRIX
10
6.5500
20
16.4830
40
0.4500
50
270.0000
51
360.0000
0
LINE
8
PARAMETRIX
10
7.0000
20
16.4830
11
7.0000
21
24.9034
0
ARC
8
PARAMETRIX
10
6.5500
20
24.9034
40
0.4500
50
0.0000
51
90.0000
0
LINE
8
PARAMETRIX
10
6.5500
20
25.3534
11
6.4500
21
25.3534
0
ARC
8
PARAMETRIX
10
6.4500
20
24.9034
40
0.4500
50
90.0000
51
180.0000
0
LINE
8
PARAMETRIX
10
6.0000
20
14.5830
11
6.0000
21
6.1626
0
ARC
8
PARAMETRIX
10
6.4500
20
6.1626
40
0.4500
50
180.0000
51
270.0000
0
LINE
8
PARAMETRIX
10
6.4500
20
5.7126
11
6.5500
21
5.7126
0
ARC
8
PARAMETRIX
10
6.5500
20
6.1626
40
0.4500
50
270.0000
51
0.0000
0
LINE
8
PARAMETRIX
10
7.0000
20
6.1626
11
7.0000
21
14.5830
0
ARC
8
PARAMETRIX
10
6.5500
20
14.5830
40
0.4500
50
0.0000
51
90.0000
0
LINE
8
PARAMETRIX
10
6.5500
20
15.0330
11
6.4500
21
15.0330
0
ARC
8
PARAMETRIX
10
6.4500
20
14.5830
40
0.4500
50
90.0000
51
180.0000
0
LINE
8
PARAMETRIX
10
6.0000
20
4.2626
11
6.0000
21
1.0024
0
ARC
8
PARAMETRIX
10
6.4500
20
1.0024
40
0.4500
50
180.0000
51
270.0000
0
LINE
8
PARAMETRIX
10
6.4500
20
0.5524
11
6.5500
21
0.5524
0
ARC
8
PARAMETRIX
10
6.5500
20
1.0024
40
0.4500
50
270.0000
51
0.0000
0
LINE
8
PARAMETRIX
10
7.0000
20
1.0024
11
7.0000
21
4.2626
0
ARC
8
PARAMETRIX
10
6.5500
20
4.2626
40
0.4500
50
0.0000
51
90.0000
0
LINE
8
PARAMETRIX
10
6.5500
20
4.7126
11
6.4500
21
4.7126
0
ARC
8
PARAMETRIX
10
6.4500
20
4.2626
40
0.4500
50
90.0000
51
180.0000
0
LINE
8
PARAMETRIX
10
8.0000
20
29.9938
11
8.0000
21
21.6199
0
ARC
8
PARAMETRIX
10
8.4500
20
21.6199
40
0.4500
50
180.0000
51
270.0000
0
LINE
8
PARAMETRIX
10
8.4500
20
21.1699
11
8.5500
21
21.1699
0
ARC
8
PARAMETRIX
10
8.5500
20
21.6199
40
0.4500
50
270.0000
51
360.0000
0
LINE
8
PARAMETRIX
10
9.0000
20
21.6199
11
9.0000
21
29.9938
0
ARC
8
PARAMETRIX
10
8.5500
20
29.9938
40
0.4500
50
0.0000
51
90.0000
0
LINE
8
PARAMETRIX
10
8.5500
20
30.4438
11
8.4500
21
30.4438
0
ARC
8
PARAMETRIX
10
8.4500
20
29.9938
40
0.4500
50
90.0000
51
180.0000
0
LINE
8
PARAMETRIX
10
8.0000
20
19.7199
11
8.0000
21
11.3461
0
ARC
8
PARAMETRIX
10
8.4500
20
11.3461
40
0.4500
50
180.0000
51
270.0000
0
LINE
8
PARAMETRIX
10
8.4500
20
10.8961
11
8.5500
21
10.8961
0
ARC
8
PARAMETRIX
10
8.5500
20
11.3461
40
0.4500
50
270.0000
51
0.0000
0
LINE
8
PARAMETRIX
10
9.0000
20
11.3461
11
9.0000
21
19.7199
0
ARC
8
PARAMETRIX
10
8.5500
20
19.7199
40
0.4500
50
0.0000
51
90.0000
0
LINE
8
PARAMETRIX
10
8.5500
20
20.1699
11
8.4500
21
20.1699
0
ARC
8
PARAMETRIX
10
8.4500
20
19.7199
40
0.4500
50
90.0000
51
180.0000
0
LINE
8
PARAMETRIX
10
8.0000
20
9.4461
11
8.0000
21
1.0722
0
ARC
8
PARAMETRIX
10
8.4500
20
1.0722
40
0.4500
50
180.0000
51
270.0000
0
LINE
8
PARAMETRIX
10
8.4500
20
0.6222
11
8.5500
21
0.6222
0
ARC
8
PARAMETRIX
10
8.5500
20
1.0722
40
0.4500
50
270.0000
51
0.0000
0
LINE
8
PARAMETRIX
10
9.0000
20
1.0722
11
9.0000
21
9.4461
0
ARC
8
PARAMETRIX
10
8.5500
20
9.4461
40
0.4500
50
0.0000
51
90.0000
0
LINE
8
PARAMETRIX
10
8.5500
20
9.8961
11
8.4500
21
9.8961
0
ARC
8
PARAMETRIX
10
8.4500
20
9.4461
40
0.4500
50
90.0000
51
180.0000
0
ENDSEC
0
EOF
