0
SECTION
2
ENTITIES
0
LINE
8
PARAMETRIX
10
0.0000
20
0.0000
11
0.0000
21
-3.1416
0
LINE
8
PARAMETRIX
10
0.0000
20
-3.1416
11
-1.5708
21
-3.1416
0
LINE
8
PARAMETRIX
10
-1.5708
20
-3.1416
11
-1.5708
21
-0.0000
0
LINE
8
PARAMETRIX
10
-1.5708
20
-0.0000
11
-1.5708
21
8.5000
0
LINE
8
PARAMETRIX
10
-1.5708
20
8.5000
11
-32.6368
21
8.5000
0
LINE
8
PARAMETRIX
10
-32.6368
20
8.5000
11
-32.6368
21
-0.0000
0
LINE
8
PARAMETRIX
10
-32.6368
20
-0.0000
11
-32.6368
21
-3.1416
0
LINE
8
PARAMETRIX
10
-32.6368
20
-3.1416
11
-34.2076
21
-3.1416
0
LINE
8
PARAMETRIX
10
-34.2076
20
-3.1416
11
-34.2076
21
-0.0000
0
LINE
8
PARAMETRIX
10
-34.2076
20
-0.0000
11
-34.2076
21
8.5000
0
LINE
8
PARAMETRIX
10
-34.2076
20
8.5000
11
-65.2736
21
8.5000
0
LINE
8
PARAMETRIX
10
-65.2736
20
8.5000
11
-65.2736
21
-0.0000
0
LINE
8
PARAMETRIX
10
-65.2736
20
-0.0000
11
-65.2736
21
-3.1416
0
LINE
8
PARAMETRIX
10
-65.2736
20
-3.1416
11
-66.8444
21
-3.1416
0
LINE
8
PARAMETRIX
10
-66.8444
20
-3.1416
11
-66.8444
21
-0.0000
0
LINE
8
PARAMETRIX
10
-66.8444
20
-0.0000
11
-66.8444
21
8.5000
0
LINE
8
PARAMETRIX
10
-66.8444
20
8.5000
11
-97.9104
21
8.5000
0
LINE
8
PARAMETRIX
10
-97.9104
20
8.5000
11
-97.9104
21
-0.0000
0
LINE
8
PARAMETRIX
10
-97.9104
20
-0.0000
11
-97.9104
21
-3.1416
0
LINE
8
PARAMETRIX
10
-97.9104
20
-3.1416
11
-99.4812
21
-3.1416
0
LINE
8
PARAMETRIX
10
-99.4812
20
-3.1416
11
-99.4812
21
-0.0000
0
LINE
8
PARAMETRIX
10
-99.4812
20
-0.0000
11
-99.4812
21
8.5000
0
LINE
8
PARAMETRIX
10
-99.4812
20
8.5000
11
-130.5473
21
8.5000
0
LINE
8
PARAMETRIX
10
-130.5473
20
8.5000
11
-130.5473
21
-0.0000
0
LINE
8
PARAMETRIX
10
-130.5473
20
-0.0000
11
-130.5473
21
-3.1416
0
LINE
8
PARAMETRIX
10
-130.5473
20
-3.1416
11
-132.1181
21
-3.1416
0
LINE
8
PARAMETRIX
10
-132.1181
20
-3.1416
11
-132.1181
21
-0.0000
0
LINE
8
PARAMETRIX
10
-132.1181
20
-0.0000
11
-132.1181
21
8.5000
0
LINE
8
PARAMETRIX
10
-132.1181
20
8.5000
11
-163.1841
21
8.5000
0
LINE
8
PARAMETRIX
10
-163.1841
20
8.5000
11
-163.1841
21
-0.0000
0
LINE
8
PARAMETRIX
10
-163.1841
20
-0.0000
11
-163.1841
21
-3.1416
0
LINE
8
PARAMETRIX
10
-163.1841
20
-3.1416
11
-164.7549
21
-3.1416
0
LINE
8
PARAMETRIX
10
-164.7549
20
-3.1416
11
-164.7549
21
-0.0000
0
LINE
8
PARAMETRIX
10
-164.7549
20
-0.0000
11
-164.7549
21
8.5000
0
LINE
8
PARAMETRIX
10
-164.7549
20
8.5000
11
-195.8209
21
8.5000
0
LINE
8
PARAMETRIX
10
-195.8209
20
8.5000
11
-195.8209
21
-0.0000
0
LINE
8
PARAMETRIX
10
-195.8209
20
-0.0000
11
-195.8209
21
-3.1416
0
LINE
8
PARAMETRIX
10
-195.8209
20
-3.1416
11
-197.3917
21
-3.1416
0
LINE
8
PARAMETRIX
10
-197.3917
20
-3.1416
11
-197.3917
21
-0.0000
0
LINE
8
PARAMETRIX
10
-197.3917
20
-0.0000
11
-197.3917
21
8.5000
0
LINE
8
PARAMETRIX
10
-197.3917
20
8.5000
11
-228.4577
21
8.5000
0
LINE
8
PARAMETRIX
10
-228.4577
20
8.5000
11
-228.4577
21
-0.0000
0
LINE
8
PARAMETRIX
10
-228.4577
20
-0.0000
11
-228.4577
21
-3.1416
0
LINE
8
PARAMETRIX
10
-228.4577
20
-3.1416
11
-228.4577
21
-8.1416
0
LINE
8
PARAMETRIX
10
-228.4577
20
-8.1416
11
-227.9155
21
-23.6651
0
ARC
8
PARAMETRIX
10
-212.9247
20
-23.1416
40
15.0000
50
182.0002
51
357.9998
0
LINE
8
PARAMETRIX
10
-197.9338
20
-23.6651
11
-197.3917
21
-8.1416
0
LINE
8
PARAMETRIX
10
-197.3917
20
-8.1416
11
-195.8209
21
-8.1416
0
LINE
8
PARAMETRIX
10
-195.8209
20
-8.1416
11
-195.2787
21
-23.6651
0
ARC
8
PARAMETRIX
10
-180.2879
20
-23.1416
40
15.0000
50
182.0002
51
357.9998
0
LINE
8
PARAMETRIX
10
-165.2970
20
-23.6651
11
-164.7549
21
-8.1416
0
LINE
8
PARAMETRIX
10
-164.7549
20
-8.1416
11
-163.1841
21
-8.1416
0
LINE
8
PARAMETRIX
10
-163.1841
20
-8.1416
11
-162.6419
21
-23.6651
0
ARC
8
PARAMETRIX
10
-147.6511
20
-23.1416
40
15.0000
50
182.0002
51
357.9998
0
LINE
8
PARAMETRIX
10
-132.6602
20
-23.6651
11
-132.1181
21
-8.1416
0
LINE
8
PARAMETRIX
10
-132.1181
20
-8.1416
11
-130.5473
21
-8.1416
0
LINE
8
PARAMETRIX
10
-130.5473
20
-8.1416
11
-130.0051
21
-23.6651
0
ARC
8
PARAMETRIX
10
-115.0142
20
-23.1416
40
15.0000
50
182.0002
51
357.9998
0
LINE
8
PARAMETRIX
10
-100.0234
20
-23.6651
11
-99.4812
21
-8.1416
0
LINE
8
PARAMETRIX
10
-99.4812
20
-8.1416
11
-97.9104
21
-8.1416
0
LINE
8
PARAMETRIX
10
-97.9104
20
-8.1416
11
-97.3683
21
-23.6651
0
ARC
8
PARAMETRIX
10
-82.3774
20
-23.1416
40
15.0000
50
182.0002
51
357.9998
0
LINE
8
PARAMETRIX
10
-67.3866
20
-23.6651
11
-66.8444
21
-8.1416
0
LINE
8
PARAMETRIX
10
-66.8444
20
-8.1416
11
-65.2736
21
-8.1416
0
LINE
8
PARAMETRIX
10
-65.2736
20
-8.1416
11
-64.7315
21
-23.6651
0
ARC
8
PARAMETRIX
10
-49.7406
20
-23.1416
40
15.0000
50
182.0002
51
357.9998
0
LINE
8
PARAMETRIX
10
-34.7498
20
-23.6651
11
-34.2076
21
-8.1416
0
LINE
8
PARAMETRIX
10
-34.2076
20
-8.1416
11
-32.6368
21
-8.1416
0
LINE
8
PARAMETRIX
10
-32.6368
20
-8.1416
11
-32.0947
21
-23.6651
0
ARC
8
PARAMETRIX
10
-17.1038
20
-23.1416
40
15.0000
50
182.0002
51
357.9998
0
LINE
8
PARAMETRIX
10
-2.1129
20
-23.6651
11
-1.5708
21
-8.1416
0
LINE
8
PARAMETRIX
10
-1.5708
20
-8.1416
11
0.0000
21
-8.1416
0
LINE
8
PARAMETRIX
10
0.0000
20
-8.1416
11
0.5421
21
-23.6651
0
ARC
8
PARAMETRIX
10
15.5330
20
-23.1416
40
15.0000
50
182.0002
51
357.9998
0
LINE
8
PARAMETRIX
10
30.5239
20
-23.6651
11
31.0660
21
-8.1416
0
LINE
8
PARAMETRIX
10
31.0660
20
-8.1416
11
32.6368
21
-8.1416
0
LINE
8
PARAMETRIX
10
32.6368
20
-8.1416
11
32.6368
21
-3.1416
0
LINE
8
PARAMETRIX
10
32.6368
20
-3.1416
11
31.0660
21
-3.1416
0
LINE
8
PARAMETRIX
10
31.0660
20
-3.1416
11
31.0660
21
0.0000
0
LINE
8
PARAMETRIX
10
31.0660
20
0.0000
11
31.0660
21
17.0000
0
LINE
8
PARAMETRIX
10
31.0660
20
17.0000
11
31.0660
21
20.1416
0
LINE
8
PARAMETRIX
10
31.0660
20
20.1416
11
39.7645
21
20.1416
0
LINE
8
PARAMETRIX
10
39.7645
20
20.1416
11
41.3353
21
20.1416
0
LINE
8
PARAMETRIX
10
41.3353
20
20.1416
11
41.3353
21
25.1416
0
LINE
8
PARAMETRIX
10
41.3353
20
25.1416
11
39.7645
21
25.1416
0
LINE
8
PARAMETRIX
10
39.7645
20
25.1416
11
28.9591
21
46.8305
0
ARC
8
PARAMETRIX
10
15.5330
20
40.1416
40
15.0000
50
26.4826
51
153.5174
0
LINE
8
PARAMETRIX
10
2.1070
20
46.8305
11
-8.6985
21
25.1416
0
LINE
8
PARAMETRIX
10
-8.6985
20
25.1416
11
-10.2693
21
25.1416
0
LINE
8
PARAMETRIX
10
-10.2693
20
25.1416
11
-21.0747
21
46.8305
0
ARC
8
PARAMETRIX
10
-34.5008
20
40.1416
40
15.0000
50
26.4826
51
153.5174
0
LINE
8
PARAMETRIX
10
-47.9268
20
46.8305
11
-58.7323
21
25.1416
0
LINE
8
PARAMETRIX
10
-58.7323
20
25.1416
11
-60.3031
21
25.1416
0
LINE
8
PARAMETRIX
10
-60.3031
20
25.1416
11
-71.1085
21
46.8305
0
ARC
8
PARAMETRIX
10
-84.5346
20
40.1416
40
15.0000
50
26.4826
51
153.5174
0
LINE
8
PARAMETRIX
10
-97.9606
20
46.8305
11
-108.7661
21
25.1416
0
LINE
8
PARAMETRIX
10
-108.7661
20
25.1416
11
-110.3368
21
25.1416
0
LINE
8
PARAMETRIX
10
-110.3368
20
25.1416
11
-121.1423
21
46.8305
0
ARC
8
PARAMETRIX
10
-134.5683
20
40.1416
40
15.0000
50
26.4826
51
153.5174
0
LINE
8
PARAMETRIX
10
-147.9944
20
46.8305
11
-158.7998
21
25.1416
0
LINE
8
PARAMETRIX
10
-158.7998
20
25.1416
11
-160.3706
21
25.1416
0
LINE
8
PARAMETRIX
10
-160.3706
20
25.1416
11
-171.1761
21
46.8305
0
ARC
8
PARAMETRIX
10
-184.6021
20
40.1416
40
15.0000
50
26.4826
51
153.5174
0
LINE
8
PARAMETRIX
10
-198.0282
20
46.8305
11
-208.8336
21
25.1416
0
LINE
8
PARAMETRIX
10
-208.8336
20
25.1416
11
-210.4044
21
25.1416
0
LINE
8
PARAMETRIX
10
-210.4044
20
25.1416
11
-221.2099
21
46.8305
0
ARC
8
PARAMETRIX
10
-234.6359
20
40.1416
40
15.0000
50
26.4826
51
153.5174
0
LINE
8
PARAMETRIX
10
-248.0620
20
46.8305
11
-258.8674
21
25.1416
0
LINE
8
PARAMETRIX
10
-258.8674
20
25.1416
11
-260.4382
21
25.1416
0
LINE
8
PARAMETRIX
10
-260.4382
20
25.1416
11
-271.2436
21
46.8305
0
ARC
8
PARAMETRIX
10
-284.6697
20
40.1416
40
15.0000
50
26.4826
51
153.5174
0
LINE
8
PARAMETRIX
10
-298.0957
20
46.8305
11
-308.9012
21
25.1416
0
LINE
8
PARAMETRIX
10
-308.9012
20
25.1416
11
-310.4720
21
25.1416
0
LINE
8
PARAMETRIX
10
-310.4720
20
25.1416
11
-321.2774
21
46.8305
0
ARC
8
PARAMETRIX
10
-334.7035
20
40.1416
40
15.0000
50
26.4826
51
153.5174
0
LINE
8
PARAMETRIX
10
-348.1295
20
46.8305
11
-358.9350
21
25.1416
0
LINE
8
PARAMETRIX
10
-358.9350
20
25.1416
11
-358.9350
21
20.1416
0
LINE
8
PARAMETRIX
10
-358.9350
20
20.1416
11
-350.2365
21
20.1416
0
LINE
8
PARAMETRIX
10
-350.2365
20
20.1416
11
-350.2365
21
17.0000
0
LINE
8
PARAMETRIX
10
-350.2365
20
17.0000
11
-350.2365
21
8.5000
0
LINE
8
PARAMETRIX
10
-350.2365
20
8.5000
11
-319.1705
21
8.5000
0
LINE
8
PARAMETRIX
10
-319.1705
20
8.5000
11
-319.1705
21
17.0000
0
LINE
8
PARAMETRIX
10
-319.1705
20
17.0000
11
-319.1705
21
20.1416
0
LINE
8
PARAMETRIX
10
-319.1705
20
20.1416
11
-310.4720
21
20.1416
0
LINE
8
PARAMETRIX
10
-310.4720
20
20.1416
11
-308.9012
21
20.1416
0
LINE
8
PARAMETRIX
10
-308.9012
20
20.1416
11
-300.2027
21
20.1416
0
LINE
8
PARAMETRIX
10
-300.2027
20
20.1416
11
-300.2027
21
17.0000
0
LINE
8
PARAMETRIX
10
-300.2027
20
17.0000
11
-300.2027
21
8.5000
0
LINE
8
PARAMETRIX
10
-300.2027
20
8.5000
11
-269.1367
21
8.5000
0
LINE
8
PARAMETRIX
10
-269.1367
20
8.5000
11
-269.1367
21
17.0000
0
LINE
8
PARAMETRIX
10
-269.1367
20
17.0000
11
-269.1367
21
20.1416
0
LINE
8
PARAMETRIX
10
-269.1367
20
20.1416
11
-260.4382
21
20.1416
0
LINE
8
PARAMETRIX
10
-260.4382
20
20.1416
11
-258.8674
21
20.1416
0
LINE
8
PARAMETRIX
10
-258.8674
20
20.1416
11
-250.1689
21
20.1416
0
LINE
8
PARAMETRIX
10
-250.1689
20
20.1416
11
-250.1689
21
17.0000
0
LINE
8
PARAMETRIX
10
-250.1689
20
17.0000
11
-250.1689
21
8.5000
0
LINE
8
PARAMETRIX
10
-250.1689
20
8.5000
11
-219.1029
21
8.5000
0
LINE
8
PARAMETRIX
10
-219.1029
20
8.5000
11
-219.1029
21
17.0000
0
LINE
8
PARAMETRIX
10
-219.1029
20
17.0000
11
-219.1029
21
20.1416
0
LINE
8
PARAMETRIX
10
-219.1029
20
20.1416
11
-210.4044
21
20.1416
0
LINE
8
PARAMETRIX
10
-210.4044
20
20.1416
11
-208.8336
21
20.1416
0
LINE
8
PARAMETRIX
10
-208.8336
20
20.1416
11
-200.1351
21
20.1416
0
LINE
8
PARAMETRIX
10
-200.1351
20
20.1416
11
-200.1351
21
17.0000
0
LINE
8
PARAMETRIX
10
-200.1351
20
17.0000
11
-200.1351
21
8.5000
0
LINE
8
PARAMETRIX
10
-200.1351
20
8.5000
11
-169.0691
21
8.5000
0
LINE
8
PARAMETRIX
10
-169.0691
20
8.5000
11
-169.0691
21
17.0000
0
LINE
8
PARAMETRIX
10
-169.0691
20
17.0000
11
-169.0691
21
20.1416
0
LINE
8
PARAMETRIX
10
-169.0691
20
20.1416
11
-160.3706
21
20.1416
0
LINE
8
PARAMETRIX
10
-160.3706
20
20.1416
11
-158.7998
21
20.1416
0
LINE
8
PARAMETRIX
10
-158.7998
20
20.1416
11
-150.1013
21
20.1416
0
LINE
8
PARAMETRIX
10
-150.1013
20
20.1416
11
-150.1013
21
17.0000
0
LINE
8
PARAMETRIX
10
-150.1013
20
17.0000
11
-150.1013
21
8.5000
0
LINE
8
PARAMETRIX
10
-150.1013
20
8.5000
11
-119.0353
21
8.5000
0
LINE
8
PARAMETRIX
10
-119.0353
20
8.5000
11
-119.0353
21
17.0000
0
LINE
8
PARAMETRIX
10
-119.0353
20
17.0000
11
-119.0353
21
20.1416
0
LINE
8
PARAMETRIX
10
-119.0353
20
20.1416
11
-110.3368
21
20.1416
0
LINE
8
PARAMETRIX
10
-110.3368
20
20.1416
11
-108.7661
21
20.1416
0
LINE
8
PARAMETRIX
10
-108.7661
20
20.1416
11
-100.0676
21
20.1416
0
LINE
8
PARAMETRIX
10
-100.0676
20
20.1416
11
-100.0676
21
17.0000
0
LINE
8
PARAMETRIX
10
-100.0676
20
17.0000
11
-100.0676
21
8.5000
0
LINE
8
PARAMETRIX
10
-100.0676
20
8.5000
11
-69.0015
21
8.5000
0
LINE
8
PARAMETRIX
10
-69.0015
20
8.5000
11
-69.0015
21
17.0000
0
LINE
8
PARAMETRIX
10
-69.0015
20
17.0000
11
-69.0015
21
20.1416
0
LINE
8
PARAMETRIX
10
-69.0015
20
20.1416
11
-60.3031
21
20.1416
0
LINE
8
PARAMETRIX
10
-60.3031
20
20.1416
11
-58.7323
21
20.1416
0
LINE
8
PARAMETRIX
10
-58.7323
20
20.1416
11
-50.0338
21
20.1416
0
LINE
8
PARAMETRIX
10
-50.0338
20
20.1416
11
-50.0338
21
17.0000
0
LINE
8
PARAMETRIX
10
-50.0338
20
17.0000
11
-50.0338
21
8.5000
0
LINE
8
PARAMETRIX
10
-50.0338
20
8.5000
11
-18.9678
21
8.5000
0
LINE
8
PARAMETRIX
10
-18.9678
20
8.5000
11
-18.9678
21
17.0000
0
LINE
8
PARAMETRIX
10
-18.9678
20
17.0000
11
-18.9678
21
20.1416
0
LINE
8
PARAMETRIX
10
-18.9678
20
20.1416
11
-10.2693
21
20.1416
0
LINE
8
PARAMETRIX
10
-10.2693
20
20.1416
11
-8.6985
21
20.1416
0
LINE
8
PARAMETRIX
10
-8.6985
20
20.1416
11
0.0000
21
20.1416
0
LINE
8
PARAMETRIX
10
0.0000
20
20.1416
11
0.0000
21
17.0000
0
LINE
8
PARAMETRIX
10
0.0000
20
17.0000
11
0.0000
21
0.0000
0
LINE
8
PARAMETRIX
10
0.0000
20
0.0000
11
0.0000
21
-3.1416
0
LINE
8
PARAMETRIX
10
0.0000
20
-3.1416
11
-1.5708
21
-3.1416
0
LINE
8
PARAMETRIX
10
-1.5708
20
-3.1416
11
-1.5708
21
-0.0000
0
LINE
8
PARAMETRIX
10
-1.5708
20
-0.0000
11
-1.5708
21
8.5000
0
LINE
8
PARAMETRIX
10
-1.5708
20
8.5000
11
-32.6368
21
8.5000
0
LINE
8
PARAMETRIX
10
-32.6368
20
8.5000
11
-32.6368
21
-0.0000
0
LINE
8
PARAMETRIX
10
-32.6368
20
-0.0000
11
-32.6368
21
-3.1416
0
LINE
8
PARAMETRIX
10
-32.6368
20
-3.1416
11
-34.2076
21
-3.1416
0
LINE
8
PARAMETRIX
10
-34.2076
20
-3.1416
11
-34.2076
21
-0.0000
0
LINE
8
PARAMETRIX
10
-34.2076
20
-0.0000
11
-34.2076
21
8.5000
0
LINE
8
PARAMETRIX
10
-34.2076
20
8.5000
11
-65.2736
21
8.5000
0
LINE
8
PARAMETRIX
10
-65.2736
20
8.5000
11
-65.2736
21
-0.0000
0
LINE
8
PARAMETRIX
10
-65.2736
20
-0.0000
11
-65.2736
21
-3.1416
0
LINE
8
PARAMETRIX
10
-65.2736
20
-3.1416
11
-66.8444
21
-3.1416
0
LINE
8
PARAMETRIX
10
-66.8444
20
-3.1416
11
-66.8444
21
-0.0000
0
LINE
8
PARAMETRIX
10
-66.8444
20
-0.0000
11
-66.8444
21
8.5000
0
LINE
8
PARAMETRIX
10
-66.8444
20
8.5000
11
-97.9104
21
8.5000
0
LINE
8
PARAMETRIX
10
-97.9104
20
8.5000
11
-97.9104
21
-0.0000
0
LINE
8
PARAMETRIX
10
-97.9104
20
-0.0000
11
-97.9104
21
-3.1416
0
LINE
8
PARAMETRIX
10
-97.9104
20
-3.1416
11
-99.4812
21
-3.1416
0
LINE
8
PARAMETRIX
10
-99.4812
20
-3.1416
11
-99.4812
21
-0.0000
0
LINE
8
PARAMETRIX
10
-99.4812
20
-0.0000
11
-99.4812
21
8.5000
0
LINE
8
PARAMETRIX
10
-99.4812
20
8.5000
11
-130.5473
21
8.5000
0
LINE
8
PARAMETRIX
10
-130.5473
20
8.5000
11
-130.5473
21
-0.0000
0
LINE
8
PARAMETRIX
10
-130.5473
20
-0.0000
11
-130.5473
21
-3.1416
0
LINE
8
PARAMETRIX
10
-130.5473
20
-3.1416
11
-132.1181
21
-3.1416
0
LINE
8
PARAMETRIX
10
-132.1181
20
-3.1416
11
-132.1181
21
-0.0000
0
LINE
8
PARAMETRIX
10
-132.1181
20
-0.0000
11
-132.1181
21
8.5000
0
LINE
8
PARAMETRIX
10
-132.1181
20
8.5000
11
-163.1841
21
8.5000
0
LINE
8
PARAMETRIX
10
-163.1841
20
8.5000
11
-163.1841
21
-0.0000
0
LINE
8
PARAMETRIX
10
-163.1841
20
-0.0000
11
-163.1841
21
-3.1416
0
LINE
8
PARAMETRIX
10
-163.1841
20
-3.1416
11
-164.7549
21
-3.1416
0
LINE
8
PARAMETRIX
10
-164.7549
20
-3.1416
11
-164.7549
21
-0.0000
0
LINE
8
PARAMETRIX
10
-164.7549
20
-0.0000
11
-164.7549
21
8.5000
0
LINE
8
PARAMETRIX
10
-164.7549
20
8.5000
11
-195.8209
21
8.5000
0
LINE
8
PARAMETRIX
10
-195.8209
20
8.5000
11
-195.8209
21
-0.0000
0
LINE
8
PARAMETRIX
10
-195.8209
20
-0.0000
11
-195.8209
21
-3.1416
0
LINE
8
PARAMETRIX
10
-195.8209
20
-3.1416
11
-197.3917
21
-3.1416
0
LINE
8
PARAMETRIX
10
-197.3917
20
-3.1416
11
-197.3917
21
-0.0000
0
LINE
8
PARAMETRIX
10
-197.3917
20
-0.0000
11
-197.3917
21
8.5000
0
LINE
8
PARAMETRIX
10
-197.3917
20
8.5000
11
-228.4577
21
8.5000
0
LINE
8
PARAMETRIX
10
-228.4577
20
8.5000
11
-228.4577
21
-0.0000
0
LINE
8
PARAMETRIX
10
-228.4577
20
-0.0000
11
-228.4577
21
-3.1416
0
LINE
8
PARAMETRIX
10
-228.4577
20
-3.1416
11
-228.4577
21
-8.1416
0
LINE
8
PARAMETRIX
10
-228.4577
20
-8.1416
11
-227.9155
21
-23.6651
0
ARC
8
PARAMETRIX
10
-212.9247
20
-23.1416
40
15.0000
50
182.0002
51
357.9998
0
LINE
8
PARAMETRIX
10
-197.9338
20
-23.6651
11
-197.3917
21
-8.1416
0
LINE
8
PARAMETRIX
10
-197.3917
20
-8.1416
11
-195.8209
21
-8.1416
0
LINE
8
PARAMETRIX
10
-195.8209
20
-8.1416
11
-195.2787
21
-23.6651
0
ARC
8
PARAMETRIX
10
-180.2879
20
-23.1416
40
15.0000
50
182.0002
51
357.9998
0
LINE
8
PARAMETRIX
10
-165.2970
20
-23.6651
11
-164.7549
21
-8.1416
0
LINE
8
PARAMETRIX
10
-164.7549
20
-8.1416
11
-163.1841
21
-8.1416
0
LINE
8
PARAMETRIX
10
-163.1841
20
-8.1416
11
-162.6419
21
-23.6651
0
ARC
8
PARAMETRIX
10
-147.6511
20
-23.1416
40
15.0000
50
182.0002
51
357.9998
0
LINE
8
PARAMETRIX
10
-132.6602
20
-23.6651
11
-132.1181
21
-8.1416
0
LINE
8
PARAMETRIX
10
-132.1181
20
-8.1416
11
-130.5473
21
-8.1416
0
LINE
8
PARAMETRIX
10
-130.5473
20
-8.1416
11
-130.0051
21
-23.6651
0
ARC
8
PARAMETRIX
10
-115.0142
20
-23.1416
40
15.0000
50
182.0002
51
357.9998
0
LINE
8
PARAMETRIX
10
-100.0234
20
-23.6651
11
-99.4812
21
-8.1416
0
LINE
8
PARAMETRIX
10
-99.4812
20
-8.1416
11
-97.9104
21
-8.1416
0
LINE
8
PARAMETRIX
10
-97.9104
20
-8.1416
11
-97.3683
21
-23.6651
0
ARC
8
PARAMETRIX
10
-82.3774
20
-23.1416
40
15.0000
50
182.0002
51
357.9998
0
LINE
8
PARAMETRIX
10
-67.3866
20
-23.6651
11
-66.8444
21
-8.1416
0
LINE
8
PARAMETRIX
10
-66.8444
20
-8.1416
11
-65.2736
21
-8.1416
0
LINE
8
PARAMETRIX
10
-65.2736
20
-8.1416
11
-64.7315
21
-23.6651
0
ARC
8
PARAMETRIX
10
-49.7406
20
-23.1416
40
15.0000
50
182.0002
51
357.9998
0
LINE
8
PARAMETRIX
10
-34.7498
20
-23.6651
11
-34.2076
21
-8.1416
0
LINE
8
PARAMETRIX
10
-34.2076
20
-8.1416
11
-32.6368
21
-8.1416
0
LINE
8
PARAMETRIX
10
-32.6368
20
-8.1416
11
-32.0947
21
-23.6651
0
ARC
8
PARAMETRIX
10
-17.1038
20
-23.1416
40
15.0000
50
182.0002
51
357.9998
0
LINE
8
PARAMETRIX
10
-2.1129
20
-23.6651
11
-1.5708
21
-8.1416
0
LINE
8
PARAMETRIX
10
-1.5708
20
-8.1416
11
0.0000
21
-8.1416
0
LINE
8
PARAMETRIX
10
0.0000
20
-8.1416
11
0.5421
21
-23.6651
0
ARC
8
PARAMETRIX
10
15.5330
20
-23.1416
40
15.0000
50
182.0002
51
357.9998
0
LINE
8
PARAMETRIX
10
30.5239
20
-23.6651
11
31.0660
21
-8.1416
0
LINE
8
PARAMETRIX
10
31.0660
20
-8.1416
11
32.6368
21
-8.1416
0
LINE
8
PARAMETRIX
10
32.6368
20
-8.1416
11
32.6368
21
-3.1416
0
LINE
8
PARAMETRIX
10
32.6368
20
-3.1416
11
31.0660
21
-3.1416
0
LINE
8
PARAMETRIX
10
31.0660
20
-3.1416
11
31.0660
21
0.0000
0
LINE
8
PARAMETRIX
10
31.0660
20
0.0000
11
31.0660
21
17.0000
0
LINE
8
PARAMETRIX
10
31.0660
20
17.0000
11
31.0660
21
20.1416
0
LINE
8
PARAMETRIX
10
31.0660
20
20.1416
11
39.7645
21
20.1416
0
LINE
8
PARAMETRIX
10
39.7645
20
20.1416
11
41.3353
21
20.1416
0
LINE
8
PARAMETRIX
10
41.3353
20
20.1416
11
41.3353
21
25.1416
0
LINE
8
PARAMETRIX
10
41.3353
20
25.1416
11
39.7645
21
25.1416
0
LINE
8
PARAMETRIX
10
39.7645
20
25.1416
11
28.9591
21
46.8305
0
ARC
8
PARAMETRIX
10
15.5330
20
40.1416
40
15.0000
50
26.4826
51
153.5174
0
LINE
8
PARAMETRIX
10
2.1070
20
46.8305
11
-8.6985
21
25.1416
0
LINE
8
PARAMETRIX
10
-8.6985
20
25.1416
11
-10.2693
21
25.1416
0
LINE
8
PARAMETRIX
10
-10.2693
20
25.1416
11
-21.0747
21
46.8305
0
ARC
8
PARAMETRIX
10
-34.5008
20
40.1416
40
15.0000
50
26.4826
51
153.5174
0
LINE
8
PARAMETRIX
10
-47.9268
20
46.8305
11
-58.7323
21
25.1416
0
LINE
8
PARAMETRIX
10
-58.7323
20
25.1416
11
-60.3031
21
25.1416
0
LINE
8
PARAMETRIX
10
-60.3031
20
25.1416
11
-71.1085
21
46.8305
0
ARC
8
PARAMETRIX
10
-84.5346
20
40.1416
40
15.0000
50
26.4826
51
153.5174
0
LINE
8
PARAMETRIX
10
-97.9606
20
46.8305
11
-108.7661
21
25.1416
0
LINE
8
PARAMETRIX
10
-108.7661
20
25.1416
11
-110.3368
21
25.1416
0
LINE
8
PARAMETRIX
10
-110.3368
20
25.1416
11
-121.1423
21
46.8305
0
ARC
8
PARAMETRIX
10
-134.5683
20
40.1416
40
15.0000
50
26.4826
51
153.5174
0
LINE
8
PARAMETRIX
10
-147.9944
20
46.8305
11
-158.7998
21
25.1416
0
LINE
8
PARAMETRIX
10
-158.7998
20
25.1416
11
-160.3706
21
25.1416
0
LINE
8
PARAMETRIX
10
-160.3706
20
25.1416
11
-171.1761
21
46.8305
0
ARC
8
PARAMETRIX
10
-184.6021
20
40.1416
40
15.0000
50
26.4826
51
153.5174
0
LINE
8
PARAMETRIX
10
-198.0282
20
46.8305
11
-208.8336
21
25.1416
0
LINE
8
PARAMETRIX
10
-208.8336
20
25.1416
11
-210.4044
21
25.1416
0
LINE
8
PARAMETRIX
10
-210.4044
20
25.1416
11
-221.2099
21
46.8305
0
ARC
8
PARAMETRIX
10
-234.6359
20
40.1416
40
15.0000
50
26.4826
51
153.5174
0
LINE
8
PARAMETRIX
10
-248.0620
20
46.8305
11
-258.8674
21
25.1416
0
LINE
8
PARAMETRIX
10
-258.8674
20
25.1416
11
-260.4382
21
25.1416
0
LINE
8
PARAMETRIX
10
-260.4382
20
25.1416
11
-271.2436
21
46.8305
0
ARC
8
PARAMETRIX
10
-284.6697
20
40.1416
40
15.0000
50
26.4826
51
153.5174
0
LINE
8
PARAMETRIX
10
-298.0957
20
46.8305
11
-308.9012
21
25.1416
0
LINE
8
PARAMETRIX
10
-308.9012
20
25.1416
11
-310.4720
21
25.1416
0
LINE
8
PARAMETRIX
10
-310.4720
20
25.1416
11
-321.2774
21
46.8305
0
ARC
8
PARAMETRIX
10
-334.7035
20
40.1416
40
15.0000
50
26.4826
51
153.5174
0
LINE
8
PARAMETRIX
10
-348.1295
20
46.8305
11
-358.9350
21
25.1416
0
LINE
8
PARAMETRIX
10
-358.9350
20
25.1416
11
-358.9350
21
20.1416
0
LINE
8
PARAMETRIX
10
-358.9350
20
20.1416
11
-350.2365
21
20.1416
0
LINE
8
PARAMETRIX
10
-350.2365
20
20.1416
11
-350.2365
21
17.0000
0
LINE
8
PARAMETRIX
10
-350.2365
20
17.0000
11
-350.2365
21
8.5000
0
LINE
8
PARAMETRIX
10
-350.2365
20
8.5000
11
-319.1705
21
8.5000
0
LINE
8
PARAMETRIX
10
-319.1705
20
8.5000
11
-319.1705
21
17.0000
0
LINE
8
PARAMETRIX
10
-319.1705
20
17.0000
11
-319.1705
21
20.1416
0
LINE
8
PARAMETRIX
10
-319.1705
20
20.1416
11
-310.4720
21
20.1416
0
LINE
8
PARAMETRIX
10
-310.4720
20
20.1416
11
-308.9012
21
20.1416
0
LINE
8
PARAMETRIX
10
-308.9012
20
20.1416
11
-300.2027
21
20.1416
0
LINE
8
PARAMETRIX
10
-300.2027
20
20.1416
11
-300.2027
21
17.0000
0
LINE
8
PARAMETRIX
10
-300.2027
20
17.0000
11
-300.2027
21
8.5000
0
LINE
8
PARAMETRIX
10
-300.2027
20
8.5000
11
-269.1367
21
8.5000
0
LINE
8
PARAMETRIX
10
-269.1367
20
8.5000
11
-269.1367
21
17.0000
0
LINE
8
PARAMETRIX
10
-269.1367
20
17.0000
11
-269.1367
21
20.1416
0
LINE
8
PARAMETRIX
10
-269.1367
20
20.1416
11
-260.4382
21
20.1416
0
LINE
8
PARAMETRIX
10
-260.4382
20
20.1416
11
-258.8674
21
20.1416
0
LINE
8
PARAMETRIX
10
-258.8674
20
20.1416
11
-250.1689
21
20.1416
0
LINE
8
PARAMETRIX
10
-250.1689
20
20.1416
11
-250.1689
21
17.0000
0
LINE
8
PARAMETRIX
10
-250.1689
20
17.0000
11
-250.1689
21
8.5000
0
LINE
8
PARAMETRIX
10
-250.1689
20
8.5000
11
-219.1029
21
8.5000
0
LINE
8
PARAMETRIX
10
-219.1029
20
8.5000
11
-219.1029
21
17.0000
0
LINE
8
PARAMETRIX
10
-219.1029
20
17.0000
11
-219.1029
21
20.1416
0
LINE
8
PARAMETRIX
10
-219.1029
20
20.1416
11
-210.4044
21
20.1416
0
LINE
8
PARAMETRIX
10
-210.4044
20
20.1416
11
-208.8336
21
20.1416
0
LINE
8
PARAMETRIX
10
-208.8336
20
20.1416
11
-200.1351
21
20.1416
0
LINE
8
PARAMETRIX
10
-200.1351
20
20.1416
11
-200.1351
21
17.0000
0
LINE
8
PARAMETRIX
10
-200.1351
20
17.0000
11
-200.1351
21
8.5000
0
LINE
8
PARAMETRIX
10
-200.1351
20
8.5000
11
-169.0691
21
8.5000
0
LINE
8
PARAMETRIX
10
-169.0691
20
8.5000
11
-169.0691
21
17.0000
0
LINE
8
PARAMETRIX
10
-169.0691
20
17.0000
11
-169.0691
21
20.1416
0
LINE
8
PARAMETRIX
10
-169.0691
20
20.1416
11
-160.3706
21
20.1416
0
LINE
8
PARAMETRIX
10
-160.3706
20
20.1416
11
-158.7998
21
20.1416
0
LINE
8
PARAMETRIX
10
-158.7998
20
20.1416
11
-150.1013
21
20.1416
0
LINE
8
PARAMETRIX
10
-150.1013
20
20.1416
11
-150.1013
21
17.0000
0
LINE
8
PARAMETRIX
10
-150.1013
20
17.0000
11
-150.1013
21
8.5000
0
LINE
8
PARAMETRIX
10
-150.1013
20
8.5000
11
-119.0353
21
8.5000
0
LINE
8
PARAMETRIX
10
-119.0353
20
8.5000
11
-119.0353
21
17.0000
0
LINE
8
PARAMETRIX
10
-119.0353
20
17.0000
11
-119.0353
21
20.1416
0
LINE
8
PARAMETRIX
10
-119.0353
20
20.1416
11
-110.3368
21
20.1416
0
LINE
8
PARAMETRIX
10
-110.3368
20
20.1416
11
-108.7661
21
20.1416
0
LINE
8
PARAMETRIX
10
-108.7661
20
20.1416
11
-100.0676
21
20.1416
0
LINE
8
PARAMETRIX
10
-100.0676
20
20.1416
11
-100.0676
21
17.0000
0
LINE
8
PARAMETRIX
10
-100.0676
20
17.0000
11
-100.0676
21
8.5000
0
LINE
8
PARAMETRIX
10
-100.0676
20
8.5000
11
-69.0015
21
8.5000
0
LINE
8
PARAMETRIX
10
-69.0015
20
8.5000
11
-69.0015
21
17.0000
0
LINE
8
PARAMETRIX
10
-69.0015
20
17.0000
11
-69.0015
21
20.1416
0
LINE
8
PARAMETRIX
10
-69.0015
20
20.1416
11
-60.3031
21
20.1416
0
LINE
8
PARAMETRIX
10
-60.3031
20
20.1416
11
-58.7323
21
20.1416
0
LINE
8
PARAMETRIX
10
-58.7323
20
20.1416
11
-50.0338
21
20.1416
0
LINE
8
PARAMETRIX
10
-50.0338
20
20.1416
11
-50.0338
21
17.0000
0
LINE
8
PARAMETRIX
10
-50.0338
20
17.0000
11
-50.0338
21
8.5000
0
LINE
8
PARAMETRIX
10
-50.0338
20
8.5000
11
-18.9678
21
8.5000
0
LINE
8
PARAMETRIX
10
-18.9678
20
8.5000
11
-18.9678
21
17.0000
0
LINE
8
PARAMETRIX
10
-18.9678
20
17.0000
11
-18.9678
21
20.1416
0
LINE
8
PARAMETRIX
10
-18.9678
20
20.1416
11
-10.2693
21
20.1416
0
LINE
8
PARAMETRIX
10
-10.2693
20
20.1416
11
-8.6985
21
20.1416
0
LINE
8
PARAMETRIX
10
-8.6985
20
20.1416
11
0.0000
21
20.1416
0
LINE
8
PARAMETRIX
10
0.0000
20
20.1416
11
0.0000
21
17.0000
0
LINE
8
PARAMETRIX
10
0.0000
20
17.0000
11
0.0000
21
0.0000
0
CIRCLE
8
PARAMETRIX
10
4.2500
20
4.2500
40
2.1250
0
CIRCLE
8
PARAMETRIX
10
26.8160
20
4.2500
40
2.1250
0
CIRCLE
8
PARAMETRIX
10
4.2500
20
12.7500
40
2.1250
0
CIRCLE
8
PARAMETRIX
10
26.8160
20
12.7500
40
2.1250
0
CIRCLE
8
PARAMETRIX
10
15.5330
20
-23.1416
40
8.0000
0
LINE
8
PARAMETRIX
10
30.1160
20
-5.1416
11
26.8383
21
-5.1416
0
ARC
8
PARAMETRIX
10
26.8383
20
-5.5916
40
0.4500
50
90.0000
51
180.0000
0
LINE
8
PARAMETRIX
10
26.3883
20
-5.5916
11
26.3883
21
-5.6916
0
ARC
8
PARAMETRIX
10
26.8383
20
-5.6916
40
0.4500
50
180.0000
51
270.0000
0
LINE
8
PARAMETRIX
10
26.8383
20
-6.1416
11
30.1160
21
-6.1416
0
ARC
8
PARAMETRIX
10
30.1160
20
-5.6916
40
0.4500
50
270.0000
51
0.0000
0
LINE
8
PARAMETRIX
10
30.5660
20
-5.6916
11
30.5660
21
-5.5916
0
ARC
8
PARAMETRIX
10
30.1160
20
-5.5916
40
0.4500
50
360.0000
51
90.0000
0
LINE
8
PARAMETRIX
10
24.9383
20
-5.1416
11
16.4830
21
-5.1416
0
ARC
8
PARAMETRIX
10
16.4830
20
-5.5916
40
0.4500
50
90.0000
51
180.0000
0
LINE
8
PARAMETRIX
10
16.0330
20
-5.5916
11
16.0330
21
-5.6916
0
ARC
8
PARAMETRIX
10
16.4830
20
-5.6916
40
0.4500
50
180.0000
51
270.0000
0
LINE
8
PARAMETRIX
10
16.4830
20
-6.1416
11
24.9383
21
-6.1416
0
ARC
8
PARAMETRIX
10
24.9383
20
-5.6916
40
0.4500
50
270.0000
51
0.0000
0
LINE
8
PARAMETRIX
10
25.3883
20
-5.6916
11
25.3883
21
-5.5916
0
ARC
8
PARAMETRIX
10
24.9383
20
-5.5916
40
0.4500
50
360.0000
51
90.0000
0
LINE
8
PARAMETRIX
10
14.5830
20
-5.1416
11
6.1277
21
-5.1416
0
ARC
8
PARAMETRIX
10
6.1277
20
-5.5916
40
0.4500
50
90.0000
51
180.0000
0
LINE
8
PARAMETRIX
10
5.6777
20
-5.5916
11
5.6777
21
-5.6916
0
ARC
8
PARAMETRIX
10
6.1277
20
-5.6916
40
0.4500
50
180.0000
51
270.0000
0
LINE
8
PARAMETRIX
10
6.1277
20
-6.1416
11
14.5830
21
-6.1416
0
ARC
8
PARAMETRIX
10
14.5830
20
-5.6916
40
0.4500
50
270.0000
51
0.0000
0
LINE
8
PARAMETRIX
10
15.0330
20
-5.6916
11
15.0330
21
-5.5916
0
ARC
8
PARAMETRIX
10
14.5830
20
-5.5916
40
0.4500
50
360.0000
51
90.0000
0
LINE
8
PARAMETRIX
10
4.2277
20
-5.1416
11
0.9500
21
-5.1416
0
ARC
8
PARAMETRIX
10
0.9500
20
-5.5916
40
0.4500
50
90.0000
51
180.0000
0
LINE
8
PARAMETRIX
10
0.5000
20
-5.5916
11
0.5000
21
-5.6916
0
ARC
8
PARAMETRIX
10
0.9500
20
-5.6916
40
0.4500
50
180.0000
51
270.0000
0
LINE
8
PARAMETRIX
10
0.9500
20
-6.1416
11
4.2277
21
-6.1416
0
ARC
8
PARAMETRIX
10
4.2277
20
-5.6916
40
0.4500
50
270.0000
51
0.0000
0
LINE
8
PARAMETRIX
10
4.6777
20
-5.6916
11
4.6777
21
-5.5916
0
ARC
8
PARAMETRIX
10
4.2277
20
-5.5916
40
0.4500
50
0.0000
51
90.0000
0
LINE
8
PARAMETRIX
10
30.1160
20
-7.1416
11
21.6607
21
-7.1416
0
ARC
8
PARAMETRIX
10
21.6607
20
-7.5916
40
0.4500
50
90.0000
51
180.0000
0
LINE
8
PARAMETRIX
10
21.2107
20
-7.5916
11
21.2107
21
-7.6916
0
ARC
8
PARAMETRIX
10
21.6607
20
-7.6916
40
0.4500
50
180.0000
51
270.0000
0
LINE
8
PARAMETRIX
10
21.6607
20
-8.1416
11
30.1160
21
-8.1416
0
ARC
8
PARAMETRIX
10
30.1160
20
-7.6916
40
0.4500
50
270.0000
51
0.0000
0
LINE
8
PARAMETRIX
10
30.5660
20
-7.6916
11
30.5660
21
-7.5916
0
ARC
8
PARAMETRIX
10
30.1160
20
-7.5916
40
0.4500
50
360.0000
51
90.0000
0
LINE
8
PARAMETRIX
10
19.7607
20
-7.1416
11
11.3053
21
-7.1416
0
ARC
8
PARAMETRIX
10
11.3053
20
-7.5916
40
0.4500
50
90.0000
51
180.0000
0
LINE
8
PARAMETRIX
10
10.8553
20
-7.5916
11
10.8553
21
-7.6916
0
ARC
8
PARAMETRIX
10
11.3053
20
-7.6916
40
0.4500
50
180.0000
51
270.0000
0
LINE
8
PARAMETRIX
10
11.3053
20
-8.1416
11
19.7607
21
-8.1416
0
ARC
8
PARAMETRIX
10
19.7607
20
-7.6916
40
0.4500
50
270.0000
51
0.0000
0
LINE
8
PARAMETRIX
10
20.2107
20
-7.6916
11
20.2107
21
-7.5916
0
ARC
8
PARAMETRIX
10
19.7607
20
-7.5916
40
0.4500
50
360.0000
51
90.0000
0
LINE
8
PARAMETRIX
10
9.4053
20
-7.1416
11
0.9500
21
-7.1416
0
ARC
8
PARAMETRIX
10
0.9500
20
-7.5916
40
0.4500
50
90.0000
51
180.0000
0
LINE
8
PARAMETRIX
10
0.5000
20
-7.5916
11
0.5000
21
-7.6916
0
ARC
8
PARAMETRIX
10
0.9500
20
-7.6916
40
0.4500
50
180.0000
51
270.0000
0
LINE
8
PARAMETRIX
10
0.9500
20
-8.1416
11
9.4053
21
-8.1416
0
ARC
8
PARAMETRIX
10
9.4053
20
-7.6916
40
0.4500
50
270.0000
51
0.0000
0
LINE
8
PARAMETRIX
10
9.8553
20
-7.6916
11
9.8553
21
-7.5916
0
ARC
8
PARAMETRIX
10
9.4053
20
-7.5916
40
0.4500
50
0.0000
51
90.0000
0
LINE
8
PARAMETRIX
10
30.0636
20
-9.1416
11
26.8034
21
-9.1416
0
ARC
8
PARAMETRIX
10
26.8034
20
-9.5916
40
0.4500
50
90.0000
51
180.0000
0
LINE
8
PARAMETRIX
10
26.3534
20
-9.5916
11
26.3534
21
-9.6916
0
ARC
8
PARAMETRIX
10
26.8034
20
-9.6916
40
0.4500
50
180.0000
51
270.0000
0
LINE
8
PARAMETRIX
10
26.8034
20
-10.1416
11
30.0636
21
-10.1416
0
ARC
8
PARAMETRIX
10
30.0636
20
-9.6916
40
0.4500
50
270.0000
51
0.0000
0
LINE
8
PARAMETRIX
10
30.5136
20
-9.6916
11
30.5136
21
-9.5916
0
ARC
8
PARAMETRIX
10
30.0636
20
-9.5916
40
0.4500
50
0.0000
51
90.0000
0
LINE
8
PARAMETRIX
10
24.9034
20
-9.1416
11
16.4830
21
-9.1416
0
ARC
8
PARAMETRIX
10
16.4830
20
-9.5916
40
0.4500
50
90.0000
51
180.0000
0
LINE
8
PARAMETRIX
10
16.0330
20
-9.5916
11
16.0330
21
-9.6916
0
ARC
8
PARAMETRIX
10
16.4830
20
-9.6916
40
0.4500
50
180.0000
51
270.0000
0
LINE
8
PARAMETRIX
10
16.4830
20
-10.1416
11
24.9034
21
-10.1416
0
ARC
8
PARAMETRIX
10
24.9034
20
-9.6916
40
0.4500
50
270.0000
51
0.0000
0
LINE
8
PARAMETRIX
10
25.3534
20
-9.6916
11
25.3534
21
-9.5916
0
ARC
8
PARAMETRIX
10
24.9034
20
-9.5916
40
0.4500
50
0.0000
51
90.0000
0
LINE
8
PARAMETRIX
10
14.5830
20
-9.1416
11
6.1626
21
-9.1416
0
ARC
8
PARAMETRIX
10
6.1626
20
-9.5916
40
0.4500
50
90.0000
51
180.0000
0
LINE
8
PARAMETRIX
10
5.7126
20
-9.5916
11
5.7126
21
-9.6916
0
ARC
8
PARAMETRIX
10
6.1626
20
-9.6916
40
0.4500
50
180.0000
51
270.0000
0
LINE
8
PARAMETRIX
10
6.1626
20
-10.1416
11
14.5830
21
-10.1416
0
ARC
8
PARAMETRIX
10
14.5830
20
-9.6916
40
0.4500
50
270.0000
51
0.0000
0
LINE
8
PARAMETRIX
10
15.0330
20
-9.6916
11
15.0330
21
-9.5916
0
ARC
8
PARAMETRIX
10
14.5830
20
-9.5916
40
0.4500
50
0.0000
51
90.0000
0
LINE
8
PARAMETRIX
10
4.2626
20
-9.1416
11
1.0024
21
-9.1416
0
ARC
8
PARAMETRIX
10
1.0024
20
-9.5916
40
0.4500
50
90.0000
51
180.0000
0
LINE
8
PARAMETRIX
10
0.5524
20
-9.5916
11
0.5524
21
-9.6916
0
ARC
8
PARAMETRIX
10
1.0024
20
-9.6916
40
0.4500
50
180.0000
51
270.0000
0
LINE
8
PARAMETRIX
10
1.0024
20
-10.1416
11
4.2626
21
-10.1416
0
ARC
8
PARAMETRIX
10
4.2626
20
-9.6916
40
0.4500
50
270.0000
51
0.0000
0
LINE
8
PARAMETRIX
10
4.7126
20
-9.6916
11
4.7126
21
-9.5916
0
ARC
8
PARAMETRIX
10
4.2626
20
-9.5916
40
0.4500
50
0.0000
51
90.0000
0
LINE
8
PARAMETRIX
10
29.9938
20
-11.1416
11
21.6199
21
-11.1416
0
ARC
8
PARAMETRIX
10
21.6199
20
-11.5916
40
0.4500
50
90.0000
51
180.0000
0
LINE
8
PARAMETRIX
10
21.1699
20
-11.5916
11
21.1699
21
-11.6916
0
ARC
8
PARAMETRIX
10
21.6199
20
-11.6916
40
0.4500
50
180.0000
51
270.0000
0
LINE
8
PARAMETRIX
10
21.6199
20
-12.1416
11
29.9938
21
-12.1416
0
ARC
8
PARAMETRIX
10
29.9938
20
-11.6916
40
0.4500
50
270.0000
51
0.0000
0
LINE
8
PARAMETRIX
10
30.4438
20
-11.6916
11
30.4438
21
-11.5916
0
ARC
8
PARAMETRIX
10
29.9938
20
-11.5916
40
0.4500
50
0.0000
51
90.0000
0
LINE
8
PARAMETRIX
10
19.7199
20
-11.1416
11
11.3461
21
-11.1416
0
ARC
8
PARAMETRIX
10
11.3461
20
-11.5916
40
0.4500
50
90.0000
51
180.0000
0
LINE
8
PARAMETRIX
10
10.8961
20
-11.5916
11
10.8961
21
-11.6916
0
ARC
8
PARAMETRIX
10
11.3461
20
-11.6916
40
0.4500
50
180.0000
51
270.0000
0
LINE
8
PARAMETRIX
10
11.3461
20
-12.1416
11
19.7199
21
-12.1416
0
ARC
8
PARAMETRIX
10
19.7199
20
-11.6916
40
0.4500
50
270.0000
51
0.0000
0
LINE
8
PARAMETRIX
10
20.1699
20
-11.6916
11
20.1699
21
-11.5916
0
ARC
8
PARAMETRIX
10
19.7199
20
-11.5916
40
0.4500
50
0.0000
51
90.0000
0
LINE
8
PARAMETRIX
10
9.4461
20
-11.1416
11
1.0722
21
-11.1416
0
ARC
8
PARAMETRIX
10
1.0722
20
-11.5916
40
0.4500
50
90.0000
51
180.0000
0
LINE
8
PARAMETRIX
10
0.6222
20
-11.5916
11
0.6222
21
-11.6916
0
ARC
8
PARAMETRIX
10
1.0722
20
-11.6916
40
0.4500
50
180.0000
51
270.0000
0
LINE
8
PARAMETRIX
10
1.0722
20
-12.1416
11
9.4461
21
-12.1416
0
ARC
8
PARAMETRIX
10
9.4461
20
-11.6916
40
0.4500
50
270.0000
51
0.0000
0
LINE
8
PARAMETRIX
10
9.8961
20
-11.6916
11
9.8961
21
-11.5916
0
ARC
8
PARAMETRIX
10
9.4461
20
-11.5916
40
0.4500
50
0.0000
51
90.0000
0
CIRCLE
8
PARAMETRIX
10
-17.1038
20
-23.1416
40
8.0000
0
LINE
8
PARAMETRIX
10
-2.5208
20
-5.1416
11
-5.7985
21
-5.1416
0
ARC
8
PARAMETRIX
10
-5.7985
20
-5.5916
40
0.4500
50
90.0000
51
180.0000
0
LINE
8
PARAMETRIX
10
-6.2485
20
-5.5916
11
-6.2485
21
-5.6916
0
ARC
8
PARAMETRIX
10
-5.7985
20
-5.6916
40
0.4500
50
180.0000
51
270.0000
0
LINE
8
PARAMETRIX
10
-5.7985
20
-6.1416
11
-2.5208
21
-6.1416
0
ARC
8
PARAMETRIX
10
-2.5208
20
-5.6916
40
0.4500
50
270.0000
51
0.0000
0
LINE
8
PARAMETRIX
10
-2.0708
20
-5.6916
11
-2.0708
21
-5.5916
0
ARC
8
PARAMETRIX
10
-2.5208
20
-5.5916
40
0.4500
50
360.0000
51
90.0000
0
LINE
8
PARAMETRIX
10
-7.6985
20
-5.1416
11
-16.1538
21
-5.1416
0
ARC
8
PARAMETRIX
10
-16.1538
20
-5.5916
40
0.4500
50
90.0000
51
180.0000
0
LINE
8
PARAMETRIX
10
-16.6038
20
-5.5916
11
-16.6038
21
-5.6916
0
ARC
8
PARAMETRIX
10
-16.1538
20
-5.6916
40
0.4500
50
180.0000
51
270.0000
0
LINE
8
PARAMETRIX
10
-16.1538
20
-6.1416
11
-7.6985
21
-6.1416
0
ARC
8
PARAMETRIX
10
-7.6985
20
-5.6916
40
0.4500
50
270.0000
51
0.0000
0
LINE
8
PARAMETRIX
10
-7.2485
20
-5.6916
11
-7.2485
21
-5.5916
0
ARC
8
PARAMETRIX
10
-7.6985
20
-5.5916
40
0.4500
50
360.0000
51
90.0000
0
LINE
8
PARAMETRIX
10
-18.0538
20
-5.1416
11
-26.5091
21
-5.1416
0
ARC
8
PARAMETRIX
10
-26.5091
20
-5.5916
40
0.4500
50
90.0000
51
180.0000
0
LINE
8
PARAMETRIX
10
-26.9591
20
-5.5916
11
-26.9591
21
-5.6916
0
ARC
8
PARAMETRIX
10
-26.5091
20
-5.6916
40
0.4500
50
180.0000
51
270.0000
0
LINE
8
PARAMETRIX
10
-26.5091
20
-6.1416
11
-18.0538
21
-6.1416
0
ARC
8
PARAMETRIX
10
-18.0538
20
-5.6916
40
0.4500
50
270.0000
51
0.0000
0
LINE
8
PARAMETRIX
10
-17.6038
20
-5.6916
11
-17.6038
21
-5.5916
0
ARC
8
PARAMETRIX
10
-18.0538
20
-5.5916
40
0.4500
50
0.0000
51
90.0000
0
LINE
8
PARAMETRIX
10
-28.4091
20
-5.1416
11
-31.6868
21
-5.1416
0
ARC
8
PARAMETRIX
10
-31.6868
20
-5.5916
40
0.4500
50
90.0000
51
180.0000
0
LINE
8
PARAMETRIX
10
-32.1368
20
-5.5916
11
-32.1368
21
-5.6916
0
ARC
8
PARAMETRIX
10
-31.6868
20
-5.6916
40
0.4500
50
180.0000
51
270.0000
0
LINE
8
PARAMETRIX
10
-31.6868
20
-6.1416
11
-28.4091
21
-6.1416
0
ARC
8
PARAMETRIX
10
-28.4091
20
-5.6916
40
0.4500
50
270.0000
51
0.0000
0
LINE
8
PARAMETRIX
10
-27.9591
20
-5.6916
11
-27.9591
21
-5.5916
0
ARC
8
PARAMETRIX
10
-28.4091
20
-5.5916
40
0.4500
50
360.0000
51
90.0000
0
LINE
8
PARAMETRIX
10
-2.5208
20
-7.1416
11
-10.9761
21
-7.1416
0
ARC
8
PARAMETRIX
10
-10.9761
20
-7.5916
40
0.4500
50
90.0000
51
180.0000
0
LINE
8
PARAMETRIX
10
-11.4261
20
-7.5916
11
-11.4261
21
-7.6916
0
ARC
8
PARAMETRIX
10
-10.9761
20
-7.6916
40
0.4500
50
180.0000
51
270.0000
0
LINE
8
PARAMETRIX
10
-10.9761
20
-8.1416
11
-2.5208
21
-8.1416
0
ARC
8
PARAMETRIX
10
-2.5208
20
-7.6916
40
0.4500
50
270.0000
51
360.0000
0
LINE
8
PARAMETRIX
10
-2.0708
20
-7.6916
11
-2.0708
21
-7.5916
0
ARC
8
PARAMETRIX
10
-2.5208
20
-7.5916
40
0.4500
50
0.0000
51
90.0000
0
LINE
8
PARAMETRIX
10
-12.8761
20
-7.1416
11
-21.3315
21
-7.1416
0
ARC
8
PARAMETRIX
10
-21.3315
20
-7.5916
40
0.4500
50
90.0000
51
180.0000
0
LINE
8
PARAMETRIX
10
-21.7815
20
-7.5916
11
-21.7815
21
-7.6916
0
ARC
8
PARAMETRIX
10
-21.3315
20
-7.6916
40
0.4500
50
180.0000
51
270.0000
0
LINE
8
PARAMETRIX
10
-21.3315
20
-8.1416
11
-12.8761
21
-8.1416
0
ARC
8
PARAMETRIX
10
-12.8761
20
-7.6916
40
0.4500
50
270.0000
51
0.0000
0
LINE
8
PARAMETRIX
10
-12.4261
20
-7.6916
11
-12.4261
21
-7.5916
0
ARC
8
PARAMETRIX
10
-12.8761
20
-7.5916
40
0.4500
50
0.0000
51
90.0000
0
LINE
8
PARAMETRIX
10
-23.2315
20
-7.1416
11
-31.6868
21
-7.1416
0
ARC
8
PARAMETRIX
10
-31.6868
20
-7.5916
40
0.4500
50
90.0000
51
180.0000
0
LINE
8
PARAMETRIX
10
-32.1368
20
-7.5916
11
-32.1368
21
-7.6916
0
ARC
8
PARAMETRIX
10
-31.6868
20
-7.6916
40
0.4500
50
180.0000
51
270.0000
0
LINE
8
PARAMETRIX
10
-31.6868
20
-8.1416
11
-23.2315
21
-8.1416
0
ARC
8
PARAMETRIX
10
-23.2315
20
-7.6916
40
0.4500
50
270.0000
51
0.0000
0
LINE
8
PARAMETRIX
10
-22.7815
20
-7.6916
11
-22.7815
21
-7.5916
0
ARC
8
PARAMETRIX
10
-23.2315
20
-7.5916
40
0.4500
50
0.0000
51
90.0000
0
LINE
8
PARAMETRIX
10
-2.5732
20
-9.1416
11
-5.8334
21
-9.1416
0
ARC
8
PARAMETRIX
10
-5.8334
20
-9.5916
40
0.4500
50
90.0000
51
180.0000
0
LINE
8
PARAMETRIX
10
-6.2834
20
-9.5916
11
-6.2834
21
-9.6916
0
ARC
8
PARAMETRIX
10
-5.8334
20
-9.6916
40
0.4500
50
180.0000
51
270.0000
0
LINE
8
PARAMETRIX
10
-5.8334
20
-10.1416
11
-2.5732
21
-10.1416
0
ARC
8
PARAMETRIX
10
-2.5732
20
-9.6916
40
0.4500
50
270.0000
51
0.0000
0
LINE
8
PARAMETRIX
10
-2.1232
20
-9.6916
11
-2.1232
21
-9.5916
0
ARC
8
PARAMETRIX
10
-2.5732
20
-9.5916
40
0.4500
50
0.0000
51
90.0000
0
LINE
8
PARAMETRIX
10
-7.7334
20
-9.1416
11
-16.1538
21
-9.1416
0
ARC
8
PARAMETRIX
10
-16.1538
20
-9.5916
40
0.4500
50
90.0000
51
180.0000
0
LINE
8
PARAMETRIX
10
-16.6038
20
-9.5916
11
-16.6038
21
-9.6916
0
ARC
8
PARAMETRIX
10
-16.1538
20
-9.6916
40
0.4500
50
180.0000
51
270.0000
0
LINE
8
PARAMETRIX
10
-16.1538
20
-10.1416
11
-7.7334
21
-10.1416
0
ARC
8
PARAMETRIX
10
-7.7334
20
-9.6916
40
0.4500
50
270.0000
51
0.0000
0
LINE
8
PARAMETRIX
10
-7.2834
20
-9.6916
11
-7.2834
21
-9.5916
0
ARC
8
PARAMETRIX
10
-7.7334
20
-9.5916
40
0.4500
50
0.0000
51
90.0000
0
LINE
8
PARAMETRIX
10
-18.0538
20
-9.1416
11
-26.4742
21
-9.1416
0
ARC
8
PARAMETRIX
10
-26.4742
20
-9.5916
40
0.4500
50
90.0000
51
180.0000
0
LINE
8
PARAMETRIX
10
-26.9242
20
-9.5916
11
-26.9242
21
-9.6916
0
ARC
8
PARAMETRIX
10
-26.4742
20
-9.6916
40
0.4500
50
180.0000
51
270.0000
0
LINE
8
PARAMETRIX
10
-26.4742
20
-10.1416
11
-18.0538
21
-10.1416
0
ARC
8
PARAMETRIX
10
-18.0538
20
-9.6916
40
0.4500
50
270.0000
51
0.0000
0
LINE
8
PARAMETRIX
10
-17.6038
20
-9.6916
11
-17.6038
21
-9.5916
0
ARC
8
PARAMETRIX
10
-18.0538
20
-9.5916
40
0.4500
50
0.0000
51
90.0000
0
LINE
8
PARAMETRIX
10
-28.3742
20
-9.1416
11
-31.6344
21
-9.1416
0
ARC
8
PARAMETRIX
10
-31.6344
20
-9.5916
40
0.4500
50
90.0000
51
180.0000
0
LINE
8
PARAMETRIX
10
-32.0844
20
-9.5916
11
-32.0844
21
-9.6916
0
ARC
8
PARAMETRIX
10
-31.6344
20
-9.6916
40
0.4500
50
180.0000
51
270.0000
0
LINE
8
PARAMETRIX
10
-31.6344
20
-10.1416
11
-28.3742
21
-10.1416
0
ARC
8
PARAMETRIX
10
-28.3742
20
-9.6916
40
0.4500
50
270.0000
51
0.0000
0
LINE
8
PARAMETRIX
10
-27.9242
20
-9.6916
11
-27.9242
21
-9.5916
0
ARC
8
PARAMETRIX
10
-28.3742
20
-9.5916
40
0.4500
50
0.0000
51
90.0000
0
LINE
8
PARAMETRIX
10
-2.6430
20
-11.1416
11
-11.0169
21
-11.1416
0
ARC
8
PARAMETRIX
10
-11.0169
20
-11.5916
40
0.4500
50
90.0000
51
180.0000
0
LINE
8
PARAMETRIX
10
-11.4669
20
-11.5916
11
-11.4669
21
-11.6916
0
ARC
8
PARAMETRIX
10
-11.0169
20
-11.6916
40
0.4500
50
180.0000
51
270.0000
0
LINE
8
PARAMETRIX
10
-11.0169
20
-12.1416
11
-2.6430
21
-12.1416
0
ARC
8
PARAMETRIX
10
-2.6430
20
-11.6916
40
0.4500
50
270.0000
51
0.0000
0
LINE
8
PARAMETRIX
10
-2.1930
20
-11.6916
11
-2.1930
21
-11.5916
0
ARC
8
PARAMETRIX
10
-2.6430
20
-11.5916
40
0.4500
50
0.0000
51
90.0000
0
LINE
8
PARAMETRIX
10
-12.9169
20
-11.1416
11
-21.2907
21
-11.1416
0
ARC
8
PARAMETRIX
10
-21.2907
20
-11.5916
40
0.4500
50
90.0000
51
180.0000
0
LINE
8
PARAMETRIX
10
-21.7407
20
-11.5916
11
-21.7407
21
-11.6916
0
ARC
8
PARAMETRIX
10
-21.2907
20
-11.6916
40
0.4500
50
180.0000
51
270.0000
0
LINE
8
PARAMETRIX
10
-21.2907
20
-12.1416
11
-12.9169
21
-12.1416
0
ARC
8
PARAMETRIX
10
-12.9169
20
-11.6916
40
0.4500
50
270.0000
51
0.0000
0
LINE
8
PARAMETRIX
10
-12.4669
20
-11.6916
11
-12.4669
21
-11.5916
0
ARC
8
PARAMETRIX
10
-12.9169
20
-11.5916
40
0.4500
50
0.0000
51
90.0000
0
LINE
8
PARAMETRIX
10
-23.1907
20
-11.1416
11
-31.5646
21
-11.1416
0
ARC
8
PARAMETRIX
10
-31.5646
20
-11.5916
40
0.4500
50
90.0000
51
180.0000
0
LINE
8
PARAMETRIX
10
-32.0146
20
-11.5916
11
-32.0146
21
-11.6916
0
ARC
8
PARAMETRIX
10
-31.5646
20
-11.6916
40
0.4500
50
180.0000
51
270.0000
0
LINE
8
PARAMETRIX
10
-31.5646
20
-12.1416
11
-23.1907
21
-12.1416
0
ARC
8
PARAMETRIX
10
-23.1907
20
-11.6916
40
0.4500
50
270.0000
51
0.0000
0
LINE
8
PARAMETRIX
10
-22.7407
20
-11.6916
11
-22.7407
21
-11.5916
0
ARC
8
PARAMETRIX
10
-23.1907
20
-11.5916
40
0.4500
50
0.0000
51
90.0000
0
CIRCLE
8
PARAMETRIX
10
-28.3868
20
4.2500
40
2.1250
0
CIRCLE
8
PARAMETRIX
10
-5.8208
20
4.2500
40
2.1250
0
CIRCLE
8
PARAMETRIX
10
-49.7406
20
-23.1416
40
8.0000
0
LINE
8
PARAMETRIX
10
-35.1576
20
-5.1416
11
-38.4353
21
-5.1416
0
ARC
8
PARAMETRIX
10
-38.4353
20
-5.5916
40
0.4500
50
90.0000
51
180.0000
0
LINE
8
PARAMETRIX
10
-38.8853
20
-5.5916
11
-38.8853
21
-5.6916
0
ARC
8
PARAMETRIX
10
-38.4353
20
-5.6916
40
0.4500
50
180.0000
51
270.0000
0
LINE
8
PARAMETRIX
10
-38.4353
20
-6.1416
11
-35.1576
21
-6.1416
0
ARC
8
PARAMETRIX
10
-35.1576
20
-5.6916
40
0.4500
50
270.0000
51
0.0000
0
LINE
8
PARAMETRIX
10
-34.7076
20
-5.6916
11
-34.7076
21
-5.5916
0
ARC
8
PARAMETRIX
10
-35.1576
20
-5.5916
40
0.4500
50
360.0000
51
90.0000
0
LINE
8
PARAMETRIX
10
-40.3353
20
-5.1416
11
-48.7906
21
-5.1416
0
ARC
8
PARAMETRIX
10
-48.7906
20
-5.5916
40
0.4500
50
90.0000
51
180.0000
0
LINE
8
PARAMETRIX
10
-49.2406
20
-5.5916
11
-49.2406
21
-5.6916
0
ARC
8
PARAMETRIX
10
-48.7906
20
-5.6916
40
0.4500
50
180.0000
51
270.0000
0
LINE
8
PARAMETRIX
10
-48.7906
20
-6.1416
11
-40.3353
21
-6.1416
0
ARC
8
PARAMETRIX
10
-40.3353
20
-5.6916
40
0.4500
50
270.0000
51
0.0000
0
LINE
8
PARAMETRIX
10
-39.8853
20
-5.6916
11
-39.8853
21
-5.5916
0
ARC
8
PARAMETRIX
10
-40.3353
20
-5.5916
40
0.4500
50
360.0000
51
90.0000
0
LINE
8
PARAMETRIX
10
-50.6906
20
-5.1416
11
-59.1460
21
-5.1416
0
ARC
8
PARAMETRIX
10
-59.1460
20
-5.5916
40
0.4500
50
90.0000
51
180.0000
0
LINE
8
PARAMETRIX
10
-59.5960
20
-5.5916
11
-59.5960
21
-5.6916
0
ARC
8
PARAMETRIX
10
-59.1460
20
-5.6916
40
0.4500
50
180.0000
51
270.0000
0
LINE
8
PARAMETRIX
10
-59.1460
20
-6.1416
11
-50.6906
21
-6.1416
0
ARC
8
PARAMETRIX
10
-50.6906
20
-5.6916
40
0.4500
50
270.0000
51
0.0000
0
LINE
8
PARAMETRIX
10
-50.2406
20
-5.6916
11
-50.2406
21
-5.5916
0
ARC
8
PARAMETRIX
10
-50.6906
20
-5.5916
40
0.4500
50
0.0000
51
90.0000
0
LINE
8
PARAMETRIX
10
-61.0460
20
-5.1416
11
-64.3236
21
-5.1416
0
ARC
8
PARAMETRIX
10
-64.3236
20
-5.5916
40
0.4500
50
90.0000
51
180.0000
0
LINE
8
PARAMETRIX
10
-64.7736
20
-5.5916
11
-64.7736
21
-5.6916
0
ARC
8
PARAMETRIX
10
-64.3236
20
-5.6916
40
0.4500
50
180.0000
51
270.0000
0
LINE
8
PARAMETRIX
10
-64.3236
20
-6.1416
11
-61.0460
21
-6.1416
0
ARC
8
PARAMETRIX
10
-61.0460
20
-5.6916
40
0.4500
50
270.0000
51
0.0000
0
LINE
8
PARAMETRIX
10
-60.5960
20
-5.6916
11
-60.5960
21
-5.5916
0
ARC
8
PARAMETRIX
10
-61.0460
20
-5.5916
40
0.4500
50
360.0000
51
90.0000
0
LINE
8
PARAMETRIX
10
-35.1576
20
-7.1416
11
-43.6129
21
-7.1416
0
ARC
8
PARAMETRIX
10
-43.6129
20
-7.5916
40
0.4500
50
90.0000
51
180.0000
0
LINE
8
PARAMETRIX
10
-44.0629
20
-7.5916
11
-44.0629
21
-7.6916
0
ARC
8
PARAMETRIX
10
-43.6129
20
-7.6916
40
0.4500
50
180.0000
51
270.0000
0
LINE
8
PARAMETRIX
10
-43.6129
20
-8.1416
11
-35.1576
21
-8.1416
0
ARC
8
PARAMETRIX
10
-35.1576
20
-7.6916
40
0.4500
50
270.0000
51
0.0000
0
LINE
8
PARAMETRIX
10
-34.7076
20
-7.6916
11
-34.7076
21
-7.5916
0
ARC
8
PARAMETRIX
10
-35.1576
20
-7.5916
40
0.4500
50
0.0000
51
90.0000
0
LINE
8
PARAMETRIX
10
-45.5129
20
-7.1416
11
-53.9683
21
-7.1416
0
ARC
8
PARAMETRIX
10
-53.9683
20
-7.5916
40
0.4500
50
90.0000
51
180.0000
0
LINE
8
PARAMETRIX
10
-54.4183
20
-7.5916
11
-54.4183
21
-7.6916
0
ARC
8
PARAMETRIX
10
-53.9683
20
-7.6916
40
0.4500
50
180.0000
51
270.0000
0
LINE
8
PARAMETRIX
10
-53.9683
20
-8.1416
11
-45.5129
21
-8.1416
0
ARC
8
PARAMETRIX
10
-45.5129
20
-7.6916
40
0.4500
50
270.0000
51
0.0000
0
LINE
8
PARAMETRIX
10
-45.0629
20
-7.6916
11
-45.0629
21
-7.5916
0
ARC
8
PARAMETRIX
10
-45.5129
20
-7.5916
40
0.4500
50
0.0000
51
90.0000
0
LINE
8
PARAMETRIX
10
-55.8683
20
-7.1416
11
-64.3236
21
-7.1416
0
ARC
8
PARAMETRIX
10
-64.3236
20
-7.5916
40
0.4500
50
90.0000
51
180.0000
0
LINE
8
PARAMETRIX
10
-64.7736
20
-7.5916
11
-64.7736
21
-7.6916
0
ARC
8
PARAMETRIX
10
-64.3236
20
-7.6916
40
0.4500
50
180.0000
51
270.0000
0
LINE
8
PARAMETRIX
10
-64.3236
20
-8.1416
11
-55.8683
21
-8.1416
0
ARC
8
PARAMETRIX
10
-55.8683
20
-7.6916
40
0.4500
50
270.0000
51
0.0000
0
LINE
8
PARAMETRIX
10
-55.4183
20
-7.6916
11
-55.4183
21
-7.5916
0
ARC
8
PARAMETRIX
10
-55.8683
20
-7.5916
40
0.4500
50
360.0000
51
90.0000
0
LINE
8
PARAMETRIX
10
-35.2100
20
-9.1416
11
-38.4702
21
-9.1416
0
ARC
8
PARAMETRIX
10
-38.4702
20
-9.5916
40
0.4500
50
90.0000
51
180.0000
0
LINE
8
PARAMETRIX
10
-38.9202
20
-9.5916
11
-38.9202
21
-9.6916
0
ARC
8
PARAMETRIX
10
-38.4702
20
-9.6916
40
0.4500
50
180.0000
51
270.0000
0
LINE
8
PARAMETRIX
10
-38.4702
20
-10.1416
11
-35.2100
21
-10.1416
0
ARC
8
PARAMETRIX
10
-35.2100
20
-9.6916
40
0.4500
50
270.0000
51
0.0000
0
LINE
8
PARAMETRIX
10
-34.7600
20
-9.6916
11
-34.7600
21
-9.5916
0
ARC
8
PARAMETRIX
10
-35.2100
20
-9.5916
40
0.4500
50
0.0000
51
90.0000
0
LINE
8
PARAMETRIX
10
-40.3702
20
-9.1416
11
-48.7906
21
-9.1416
0
ARC
8
PARAMETRIX
10
-48.7906
20
-9.5916
40
0.4500
50
90.0000
51
180.0000
0
LINE
8
PARAMETRIX
10
-49.2406
20
-9.5916
11
-49.2406
21
-9.6916
0
ARC
8
PARAMETRIX
10
-48.7906
20
-9.6916
40
0.4500
50
180.0000
51
270.0000
0
LINE
8
PARAMETRIX
10
-48.7906
20
-10.1416
11
-40.3702
21
-10.1416
0
ARC
8
PARAMETRIX
10
-40.3702
20
-9.6916
40
0.4500
50
270.0000
51
0.0000
0
LINE
8
PARAMETRIX
10
-39.9202
20
-9.6916
11
-39.9202
21
-9.5916
0
ARC
8
PARAMETRIX
10
-40.3702
20
-9.5916
40
0.4500
50
0.0000
51
90.0000
0
LINE
8
PARAMETRIX
10
-50.6906
20
-9.1416
11
-59.1110
21
-9.1416
0
ARC
8
PARAMETRIX
10
-59.1110
20
-9.5916
40
0.4500
50
90.0000
51
180.0000
0
LINE
8
PARAMETRIX
10
-59.5610
20
-9.5916
11
-59.5610
21
-9.6916
0
ARC
8
PARAMETRIX
10
-59.1110
20
-9.6916
40
0.4500
50
180.0000
51
270.0000
0
LINE
8
PARAMETRIX
10
-59.1110
20
-10.1416
11
-50.6906
21
-10.1416
0
ARC
8
PARAMETRIX
10
-50.6906
20
-9.6916
40
0.4500
50
270.0000
51
0.0000
0
LINE
8
PARAMETRIX
10
-50.2406
20
-9.6916
11
-50.2406
21
-9.5916
0
ARC
8
PARAMETRIX
10
-50.6906
20
-9.5916
40
0.4500
50
0.0000
51
90.0000
0
LINE
8
PARAMETRIX
10
-61.0110
20
-9.1416
11
-64.2712
21
-9.1416
0
ARC
8
PARAMETRIX
10
-64.2712
20
-9.5916
40
0.4500
50
90.0000
51
180.0000
0
LINE
8
PARAMETRIX
10
-64.7212
20
-9.5916
11
-64.7212
21
-9.6916
0
ARC
8
PARAMETRIX
10
-64.2712
20
-9.6916
40
0.4500
50
180.0000
51
270.0000
0
LINE
8
PARAMETRIX
10
-64.2712
20
-10.1416
11
-61.0110
21
-10.1416
0
ARC
8
PARAMETRIX
10
-61.0110
20
-9.6916
40
0.4500
50
270.0000
51
0.0000
0
LINE
8
PARAMETRIX
10
-60.5610
20
-9.6916
11
-60.5610
21
-9.5916
0
ARC
8
PARAMETRIX
10
-61.0110
20
-9.5916
40
0.4500
50
0.0000
51
90.0000
0
LINE
8
PARAMETRIX
10
-35.2798
20
-11.1416
11
-43.6537
21
-11.1416
0
ARC
8
PARAMETRIX
10
-43.6537
20
-11.5916
40
0.4500
50
90.0000
51
180.0000
0
LINE
8
PARAMETRIX
10
-44.1037
20
-11.5916
11
-44.1037
21
-11.6916
0
ARC
8
PARAMETRIX
10
-43.6537
20
-11.6916
40
0.4500
50
180.0000
51
270.0000
0
LINE
8
PARAMETRIX
10
-43.6537
20
-12.1416
11
-35.2798
21
-12.1416
0
ARC
8
PARAMETRIX
10
-35.2798
20
-11.6916
40
0.4500
50
270.0000
51
0.0000
0
LINE
8
PARAMETRIX
10
-34.8298
20
-11.6916
11
-34.8298
21
-11.5916
0
ARC
8
PARAMETRIX
10
-35.2798
20
-11.5916
40
0.4500
50
0.0000
51
90.0000
0
LINE
8
PARAMETRIX
10
-45.5537
20
-11.1416
11
-53.9275
21
-11.1416
0
ARC
8
PARAMETRIX
10
-53.9275
20
-11.5916
40
0.4500
50
90.0000
51
180.0000
0
LINE
8
PARAMETRIX
10
-54.3775
20
-11.5916
11
-54.3775
21
-11.6916
0
ARC
8
PARAMETRIX
10
-53.9275
20
-11.6916
40
0.4500
50
180.0000
51
270.0000
0
LINE
8
PARAMETRIX
10
-53.9275
20
-12.1416
11
-45.5537
21
-12.1416
0
ARC
8
PARAMETRIX
10
-45.5537
20
-11.6916
40
0.4500
50
270.0000
51
360.0000
0
LINE
8
PARAMETRIX
10
-45.1037
20
-11.6916
11
-45.1037
21
-11.5916
0
ARC
8
PARAMETRIX
10
-45.5537
20
-11.5916
40
0.4500
50
360.0000
51
90.0000
0
LINE
8
PARAMETRIX
10
-55.8275
20
-11.1416
11
-64.2014
21
-11.1416
0
ARC
8
PARAMETRIX
10
-64.2014
20
-11.5916
40
0.4500
50
90.0000
51
180.0000
0
LINE
8
PARAMETRIX
10
-64.6514
20
-11.5916
11
-64.6514
21
-11.6916
0
ARC
8
PARAMETRIX
10
-64.2014
20
-11.6916
40
0.4500
50
180.0000
51
270.0000
0
LINE
8
PARAMETRIX
10
-64.2014
20
-12.1416
11
-55.8275
21
-12.1416
0
ARC
8
PARAMETRIX
10
-55.8275
20
-11.6916
40
0.4500
50
270.0000
51
0.0000
0
LINE
8
PARAMETRIX
10
-55.3775
20
-11.6916
11
-55.3775
21
-11.5916
0
ARC
8
PARAMETRIX
10
-55.8275
20
-11.5916
40
0.4500
50
0.0000
51
90.0000
0
CIRCLE
8
PARAMETRIX
10
-61.0236
20
4.2500
40
2.1250
0
CIRCLE
8
PARAMETRIX
10
-38.4576
20
4.2500
40
2.1250
0
CIRCLE
8
PARAMETRIX
10
-82.3774
20
-23.1416
40
8.0000
0
LINE
8
PARAMETRIX
10
-67.7944
20
-5.1416
11
-71.0721
21
-5.1416
0
ARC
8
PARAMETRIX
10
-71.0721
20
-5.5916
40
0.4500
50
90.0000
51
180.0000
0
LINE
8
PARAMETRIX
10
-71.5221
20
-5.5916
11
-71.5221
21
-5.6916
0
ARC
8
PARAMETRIX
10
-71.0721
20
-5.6916
40
0.4500
50
180.0000
51
270.0000
0
LINE
8
PARAMETRIX
10
-71.0721
20
-6.1416
11
-67.7944
21
-6.1416
0
ARC
8
PARAMETRIX
10
-67.7944
20
-5.6916
40
0.4500
50
270.0000
51
0.0000
0
LINE
8
PARAMETRIX
10
-67.3444
20
-5.6916
11
-67.3444
21
-5.5916
0
ARC
8
PARAMETRIX
10
-67.7944
20
-5.5916
40
0.4500
50
360.0000
51
90.0000
0
LINE
8
PARAMETRIX
10
-72.9721
20
-5.1416
11
-81.4274
21
-5.1416
0
ARC
8
PARAMETRIX
10
-81.4274
20
-5.5916
40
0.4500
50
90.0000
51
180.0000
0
LINE
8
PARAMETRIX
10
-81.8774
20
-5.5916
11
-81.8774
21
-5.6916
0
ARC
8
PARAMETRIX
10
-81.4274
20
-5.6916
40
0.4500
50
180.0000
51
270.0000
0
LINE
8
PARAMETRIX
10
-81.4274
20
-6.1416
11
-72.9721
21
-6.1416
0
ARC
8
PARAMETRIX
10
-72.9721
20
-5.6916
40
0.4500
50
270.0000
51
0.0000
0
LINE
8
PARAMETRIX
10
-72.5221
20
-5.6916
11
-72.5221
21
-5.5916
0
ARC
8
PARAMETRIX
10
-72.9721
20
-5.5916
40
0.4500
50
360.0000
51
90.0000
0
LINE
8
PARAMETRIX
10
-83.3274
20
-5.1416
11
-91.7828
21
-5.1416
0
ARC
8
PARAMETRIX
10
-91.7828
20
-5.5916
40
0.4500
50
90.0000
51
180.0000
0
LINE
8
PARAMETRIX
10
-92.2328
20
-5.5916
11
-92.2328
21
-5.6916
0
ARC
8
PARAMETRIX
10
-91.7828
20
-5.6916
40
0.4500
50
180.0000
51
270.0000
0
LINE
8
PARAMETRIX
10
-91.7828
20
-6.1416
11
-83.3274
21
-6.1416
0
ARC
8
PARAMETRIX
10
-83.3274
20
-5.6916
40
0.4500
50
270.0000
51
0.0000
0
LINE
8
PARAMETRIX
10
-82.8774
20
-5.6916
11
-82.8774
21
-5.5916
0
ARC
8
PARAMETRIX
10
-83.3274
20
-5.5916
40
0.4500
50
0.0000
51
90.0000
0
LINE
8
PARAMETRIX
10
-93.6828
20
-5.1416
11
-96.9604
21
-5.1416
0
ARC
8
PARAMETRIX
10
-96.9604
20
-5.5916
40
0.4500
50
90.0000
51
180.0000
0
LINE
8
PARAMETRIX
10
-97.4104
20
-5.5916
11
-97.4104
21
-5.6916
0
ARC
8
PARAMETRIX
10
-96.9604
20
-5.6916
40
0.4500
50
180.0000
51
270.0000
0
LINE
8
PARAMETRIX
10
-96.9604
20
-6.1416
11
-93.6828
21
-6.1416
0
ARC
8
PARAMETRIX
10
-93.6828
20
-5.6916
40
0.4500
50
270.0000
51
0.0000
0
LINE
8
PARAMETRIX
10
-93.2328
20
-5.6916
11
-93.2328
21
-5.5916
0
ARC
8
PARAMETRIX
10
-93.6828
20
-5.5916
40
0.4500
50
360.0000
51
90.0000
0
LINE
8
PARAMETRIX
10
-67.7944
20
-7.1416
11
-76.2498
21
-7.1416
0
ARC
8
PARAMETRIX
10
-76.2498
20
-7.5916
40
0.4500
50
90.0000
51
180.0000
0
LINE
8
PARAMETRIX
10
-76.6998
20
-7.5916
11
-76.6998
21
-7.6916
0
ARC
8
PARAMETRIX
10
-76.2498
20
-7.6916
40
0.4500
50
180.0000
51
270.0000
0
LINE
8
PARAMETRIX
10
-76.2498
20
-8.1416
11
-67.7944
21
-8.1416
0
ARC
8
PARAMETRIX
10
-67.7944
20
-7.6916
40
0.4500
50
270.0000
51
0.0000
0
LINE
8
PARAMETRIX
10
-67.3444
20
-7.6916
11
-67.3444
21
-7.5916
0
ARC
8
PARAMETRIX
10
-67.7944
20
-7.5916
40
0.4500
50
0.0000
51
90.0000
0
LINE
8
PARAMETRIX
10
-78.1498
20
-7.1416
11
-86.6051
21
-7.1416
0
ARC
8
PARAMETRIX
10
-86.6051
20
-7.5916
40
0.4500
50
90.0000
51
180.0000
0
LINE
8
PARAMETRIX
10
-87.0551
20
-7.5916
11
-87.0551
21
-7.6916
0
ARC
8
PARAMETRIX
10
-86.6051
20
-7.6916
40
0.4500
50
180.0000
51
270.0000
0
LINE
8
PARAMETRIX
10
-86.6051
20
-8.1416
11
-78.1498
21
-8.1416
0
ARC
8
PARAMETRIX
10
-78.1498
20
-7.6916
40
0.4500
50
270.0000
51
0.0000
0
LINE
8
PARAMETRIX
10
-77.6998
20
-7.6916
11
-77.6998
21
-7.5916
0
ARC
8
PARAMETRIX
10
-78.1498
20
-7.5916
40
0.4500
50
0.0000
51
90.0000
0
LINE
8
PARAMETRIX
10
-88.5051
20
-7.1416
11
-96.9604
21
-7.1416
0
ARC
8
PARAMETRIX
10
-96.9604
20
-7.5916
40
0.4500
50
90.0000
51
180.0000
0
LINE
8
PARAMETRIX
10
-97.4104
20
-7.5916
11
-97.4104
21
-7.6916
0
ARC
8
PARAMETRIX
10
-96.9604
20
-7.6916
40
0.4500
50
180.0000
51
270.0000
0
LINE
8
PARAMETRIX
10
-96.9604
20
-8.1416
11
-88.5051
21
-8.1416
0
ARC
8
PARAMETRIX
10
-88.5051
20
-7.6916
40
0.4500
50
270.0000
51
0.0000
0
LINE
8
PARAMETRIX
10
-88.0551
20
-7.6916
11
-88.0551
21
-7.5916
0
ARC
8
PARAMETRIX
10
-88.5051
20
-7.5916
40
0.4500
50
360.0000
51
90.0000
0
LINE
8
PARAMETRIX
10
-67.8468
20
-9.1416
11
-71.1070
21
-9.1416
0
ARC
8
PARAMETRIX
10
-71.1070
20
-9.5916
40
0.4500
50
90.0000
51
180.0000
0
LINE
8
PARAMETRIX
10
-71.5570
20
-9.5916
11
-71.5570
21
-9.6916
0
ARC
8
PARAMETRIX
10
-71.1070
20
-9.6916
40
0.4500
50
180.0000
51
270.0000
0
LINE
8
PARAMETRIX
10
-71.1070
20
-10.1416
11
-67.8468
21
-10.1416
0
ARC
8
PARAMETRIX
10
-67.8468
20
-9.6916
40
0.4500
50
270.0000
51
0.0000
0
LINE
8
PARAMETRIX
10
-67.3968
20
-9.6916
11
-67.3968
21
-9.5916
0
ARC
8
PARAMETRIX
10
-67.8468
20
-9.5916
40
0.4500
50
0.0000
51
90.0000
0
LINE
8
PARAMETRIX
10
-73.0070
20
-9.1416
11
-81.4274
21
-9.1416
0
ARC
8
PARAMETRIX
10
-81.4274
20
-9.5916
40
0.4500
50
90.0000
51
180.0000
0
LINE
8
PARAMETRIX
10
-81.8774
20
-9.5916
11
-81.8774
21
-9.6916
0
ARC
8
PARAMETRIX
10
-81.4274
20
-9.6916
40
0.4500
50
180.0000
51
270.0000
0
LINE
8
PARAMETRIX
10
-81.4274
20
-10.1416
11
-73.0070
21
-10.1416
0
ARC
8
PARAMETRIX
10
-73.0070
20
-9.6916
40
0.4500
50
270.0000
51
0.0000
0
LINE
8
PARAMETRIX
10
-72.5570
20
-9.6916
11
-72.5570
21
-9.5916
0
ARC
8
PARAMETRIX
10
-73.0070
20
-9.5916
40
0.4500
50
0.0000
51
90.0000
0
LINE
8
PARAMETRIX
10
-83.3274
20
-9.1416
11
-91.7478
21
-9.1416
0
ARC
8
PARAMETRIX
10
-91.7478
20
-9.5916
40
0.4500
50
90.0000
51
180.0000
0
LINE
8
PARAMETRIX
10
-92.1978
20
-9.5916
11
-92.1978
21
-9.6916
0
ARC
8
PARAMETRIX
10
-91.7478
20
-9.6916
40
0.4500
50
180.0000
51
270.0000
0
LINE
8
PARAMETRIX
10
-91.7478
20
-10.1416
11
-83.3274
21
-10.1416
0
ARC
8
PARAMETRIX
10
-83.3274
20
-9.6916
40
0.4500
50
270.0000
51
0.0000
0
LINE
8
PARAMETRIX
10
-82.8774
20
-9.6916
11
-82.8774
21
-9.5916
0
ARC
8
PARAMETRIX
10
-83.3274
20
-9.5916
40
0.4500
50
0.0000
51
90.0000
0
LINE
8
PARAMETRIX
10
-93.6478
20
-9.1416
11
-96.9081
21
-9.1416
0
ARC
8
PARAMETRIX
10
-96.9081
20
-9.5916
40
0.4500
50
90.0000
51
180.0000
0
LINE
8
PARAMETRIX
10
-97.3581
20
-9.5916
11
-97.3581
21
-9.6916
0
ARC
8
PARAMETRIX
10
-96.9081
20
-9.6916
40
0.4500
50
180.0000
51
270.0000
0
LINE
8
PARAMETRIX
10
-96.9081
20
-10.1416
11
-93.6478
21
-10.1416
0
ARC
8
PARAMETRIX
10
-93.6478
20
-9.6916
40
0.4500
50
270.0000
51
0.0000
0
LINE
8
PARAMETRIX
10
-93.1978
20
-9.6916
11
-93.1978
21
-9.5916
0
ARC
8
PARAMETRIX
10
-93.6478
20
-9.5916
40
0.4500
50
0.0000
51
90.0000
0
LINE
8
PARAMETRIX
10
-67.9167
20
-11.1416
11
-76.2905
21
-11.1416
0
ARC
8
PARAMETRIX
10
-76.2905
20
-11.5916
40
0.4500
50
90.0000
51
180.0000
0
LINE
8
PARAMETRIX
10
-76.7405
20
-11.5916
11
-76.7405
21
-11.6916
0
ARC
8
PARAMETRIX
10
-76.2905
20
-11.6916
40
0.4500
50
180.0000
51
270.0000
0
LINE
8
PARAMETRIX
10
-76.2905
20
-12.1416
11
-67.9167
21
-12.1416
0
ARC
8
PARAMETRIX
10
-67.9167
20
-11.6916
40
0.4500
50
270.0000
51
0.0000
0
LINE
8
PARAMETRIX
10
-67.4667
20
-11.6916
11
-67.4667
21
-11.5916
0
ARC
8
PARAMETRIX
10
-67.9167
20
-11.5916
40
0.4500
50
0.0000
51
90.0000
0
LINE
8
PARAMETRIX
10
-78.1905
20
-11.1416
11
-86.5644
21
-11.1416
0
ARC
8
PARAMETRIX
10
-86.5644
20
-11.5916
40
0.4500
50
90.0000
51
180.0000
0
LINE
8
PARAMETRIX
10
-87.0144
20
-11.5916
11
-87.0144
21
-11.6916
0
ARC
8
PARAMETRIX
10
-86.5644
20
-11.6916
40
0.4500
50
180.0000
51
270.0000
0
LINE
8
PARAMETRIX
10
-86.5644
20
-12.1416
11
-78.1905
21
-12.1416
0
ARC
8
PARAMETRIX
10
-78.1905
20
-11.6916
40
0.4500
50
270.0000
51
0.0000
0
LINE
8
PARAMETRIX
10
-77.7405
20
-11.6916
11
-77.7405
21
-11.5916
0
ARC
8
PARAMETRIX
10
-78.1905
20
-11.5916
40
0.4500
50
0.0000
51
90.0000
0
LINE
8
PARAMETRIX
10
-88.4644
20
-11.1416
11
-96.8382
21
-11.1416
0
ARC
8
PARAMETRIX
10
-96.8382
20
-11.5916
40
0.4500
50
90.0000
51
180.0000
0
LINE
8
PARAMETRIX
10
-97.2882
20
-11.5916
11
-97.2882
21
-11.6916
0
ARC
8
PARAMETRIX
10
-96.8382
20
-11.6916
40
0.4500
50
180.0000
51
270.0000
0
LINE
8
PARAMETRIX
10
-96.8382
20
-12.1416
11
-88.4644
21
-12.1416
0
ARC
8
PARAMETRIX
10
-88.4644
20
-11.6916
40
0.4500
50
270.0000
51
0.0000
0
LINE
8
PARAMETRIX
10
-88.0144
20
-11.6916
11
-88.0144
21
-11.5916
0
ARC
8
PARAMETRIX
10
-88.4644
20
-11.5916
40
0.4500
50
0.0000
51
90.0000
0
CIRCLE
8
PARAMETRIX
10
-93.6604
20
4.2500
40
2.1250
0
CIRCLE
8
PARAMETRIX
10
-71.0944
20
4.2500
40
2.1250
0
CIRCLE
8
PARAMETRIX
10
-115.0142
20
-23.1416
40
8.0000
0
LINE
8
PARAMETRIX
10
-100.4312
20
-5.1416
11
-103.7089
21
-5.1416
0
ARC
8
PARAMETRIX
10
-103.7089
20
-5.5916
40
0.4500
50
90.0000
51
180.0000
0
LINE
8
PARAMETRIX
10
-104.1589
20
-5.5916
11
-104.1589
21
-5.6916
0
ARC
8
PARAMETRIX
10
-103.7089
20
-5.6916
40
0.4500
50
180.0000
51
270.0000
0
LINE
8
PARAMETRIX
10
-103.7089
20
-6.1416
11
-100.4312
21
-6.1416
0
ARC
8
PARAMETRIX
10
-100.4312
20
-5.6916
40
0.4500
50
270.0000
51
0.0000
0
LINE
8
PARAMETRIX
10
-99.9812
20
-5.6916
11
-99.9812
21
-5.5916
0
ARC
8
PARAMETRIX
10
-100.4312
20
-5.5916
40
0.4500
50
360.0000
51
90.0000
0
LINE
8
PARAMETRIX
10
-105.6089
20
-5.1416
11
-114.0642
21
-5.1416
0
ARC
8
PARAMETRIX
10
-114.0642
20
-5.5916
40
0.4500
50
90.0000
51
180.0000
0
LINE
8
PARAMETRIX
10
-114.5142
20
-5.5916
11
-114.5142
21
-5.6916
0
ARC
8
PARAMETRIX
10
-114.0642
20
-5.6916
40
0.4500
50
180.0000
51
270.0000
0
LINE
8
PARAMETRIX
10
-114.0642
20
-6.1416
11
-105.6089
21
-6.1416
0
ARC
8
PARAMETRIX
10
-105.6089
20
-5.6916
40
0.4500
50
270.0000
51
0.0000
0
LINE
8
PARAMETRIX
10
-105.1589
20
-5.6916
11
-105.1589
21
-5.5916
0
ARC
8
PARAMETRIX
10
-105.6089
20
-5.5916
40
0.4500
50
360.0000
51
90.0000
0
LINE
8
PARAMETRIX
10
-115.9642
20
-5.1416
11
-124.4196
21
-5.1416
0
ARC
8
PARAMETRIX
10
-124.4196
20
-5.5916
40
0.4500
50
90.0000
51
180.0000
0
LINE
8
PARAMETRIX
10
-124.8696
20
-5.5916
11
-124.8696
21
-5.6916
0
ARC
8
PARAMETRIX
10
-124.4196
20
-5.6916
40
0.4500
50
180.0000
51
270.0000
0
LINE
8
PARAMETRIX
10
-124.4196
20
-6.1416
11
-115.9642
21
-6.1416
0
ARC
8
PARAMETRIX
10
-115.9642
20
-5.6916
40
0.4500
50
270.0000
51
0.0000
0
LINE
8
PARAMETRIX
10
-115.5142
20
-5.6916
11
-115.5142
21
-5.5916
0
ARC
8
PARAMETRIX
10
-115.9642
20
-5.5916
40
0.4500
50
0.0000
51
90.0000
0
LINE
8
PARAMETRIX
10
-126.3196
20
-5.1416
11
-129.5973
21
-5.1416
0
ARC
8
PARAMETRIX
10
-129.5973
20
-5.5916
40
0.4500
50
90.0000
51
180.0000
0
LINE
8
PARAMETRIX
10
-130.0473
20
-5.5916
11
-130.0473
21
-5.6916
0
ARC
8
PARAMETRIX
10
-129.5973
20
-5.6916
40
0.4500
50
180.0000
51
270.0000
0
LINE
8
PARAMETRIX
10
-129.5973
20
-6.1416
11
-126.3196
21
-6.1416
0
ARC
8
PARAMETRIX
10
-126.3196
20
-5.6916
40
0.4500
50
270.0000
51
0.0000
0
LINE
8
PARAMETRIX
10
-125.8696
20
-5.6916
11
-125.8696
21
-5.5916
0
ARC
8
PARAMETRIX
10
-126.3196
20
-5.5916
40
0.4500
50
360.0000
51
90.0000
0
LINE
8
PARAMETRIX
10
-100.4312
20
-7.1416
11
-108.8866
21
-7.1416
0
ARC
8
PARAMETRIX
10
-108.8866
20
-7.5916
40
0.4500
50
90.0000
51
180.0000
0
LINE
8
PARAMETRIX
10
-109.3366
20
-7.5916
11
-109.3366
21
-7.6916
0
ARC
8
PARAMETRIX
10
-108.8866
20
-7.6916
40
0.4500
50
180.0000
51
270.0000
0
LINE
8
PARAMETRIX
10
-108.8866
20
-8.1416
11
-100.4312
21
-8.1416
0
ARC
8
PARAMETRIX
10
-100.4312
20
-7.6916
40
0.4500
50
270.0000
51
0.0000
0
LINE
8
PARAMETRIX
10
-99.9812
20
-7.6916
11
-99.9812
21
-7.5916
0
ARC
8
PARAMETRIX
10
-100.4312
20
-7.5916
40
0.4500
50
0.0000
51
90.0000
0
LINE
8
PARAMETRIX
10
-110.7866
20
-7.1416
11
-119.2419
21
-7.1416
0
ARC
8
PARAMETRIX
10
-119.2419
20
-7.5916
40
0.4500
50
90.0000
51
180.0000
0
LINE
8
PARAMETRIX
10
-119.6919
20
-7.5916
11
-119.6919
21
-7.6916
0
ARC
8
PARAMETRIX
10
-119.2419
20
-7.6916
40
0.4500
50
180.0000
51
270.0000
0
LINE
8
PARAMETRIX
10
-119.2419
20
-8.1416
11
-110.7866
21
-8.1416
0
ARC
8
PARAMETRIX
10
-110.7866
20
-7.6916
40
0.4500
50
270.0000
51
0.0000
0
LINE
8
PARAMETRIX
10
-110.3366
20
-7.6916
11
-110.3366
21
-7.5916
0
ARC
8
PARAMETRIX
10
-110.7866
20
-7.5916
40
0.4500
50
0.0000
51
90.0000
0
LINE
8
PARAMETRIX
10
-121.1419
20
-7.1416
11
-129.5973
21
-7.1416
0
ARC
8
PARAMETRIX
10
-129.5973
20
-7.5916
40
0.4500
50
90.0000
51
180.0000
0
LINE
8
PARAMETRIX
10
-130.0473
20
-7.5916
11
-130.0473
21
-7.6916
0
ARC
8
PARAMETRIX
10
-129.5973
20
-7.6916
40
0.4500
50
180.0000
51
270.0000
0
LINE
8
PARAMETRIX
10
-129.5973
20
-8.1416
11
-121.1419
21
-8.1416
0
ARC
8
PARAMETRIX
10
-121.1419
20
-7.6916
40
0.4500
50
270.0000
51
0.0000
0
LINE
8
PARAMETRIX
10
-120.6919
20
-7.6916
11
-120.6919
21
-7.5916
0
ARC
8
PARAMETRIX
10
-121.1419
20
-7.5916
40
0.4500
50
360.0000
51
90.0000
0
LINE
8
PARAMETRIX
10
-100.4836
20
-9.1416
11
-103.7438
21
-9.1416
0
ARC
8
PARAMETRIX
10
-103.7438
20
-9.5916
40
0.4500
50
90.0000
51
180.0000
0
LINE
8
PARAMETRIX
10
-104.1938
20
-9.5916
11
-104.1938
21
-9.6916
0
ARC
8
PARAMETRIX
10
-103.7438
20
-9.6916
40
0.4500
50
180.0000
51
270.0000
0
LINE
8
PARAMETRIX
10
-103.7438
20
-10.1416
11
-100.4836
21
-10.1416
0
ARC
8
PARAMETRIX
10
-100.4836
20
-9.6916
40
0.4500
50
270.0000
51
0.0000
0
LINE
8
PARAMETRIX
10
-100.0336
20
-9.6916
11
-100.0336
21
-9.5916
0
ARC
8
PARAMETRIX
10
-100.4836
20
-9.5916
40
0.4500
50
0.0000
51
90.0000
0
LINE
8
PARAMETRIX
10
-105.6438
20
-9.1416
11
-114.0642
21
-9.1416
0
ARC
8
PARAMETRIX
10
-114.0642
20
-9.5916
40
0.4500
50
90.0000
51
180.0000
0
LINE
8
PARAMETRIX
10
-114.5142
20
-9.5916
11
-114.5142
21
-9.6916
0
ARC
8
PARAMETRIX
10
-114.0642
20
-9.6916
40
0.4500
50
180.0000
51
270.0000
0
LINE
8
PARAMETRIX
10
-114.0642
20
-10.1416
11
-105.6438
21
-10.1416
0
ARC
8
PARAMETRIX
10
-105.6438
20
-9.6916
40
0.4500
50
270.0000
51
0.0000
0
LINE
8
PARAMETRIX
10
-105.1938
20
-9.6916
11
-105.1938
21
-9.5916
0
ARC
8
PARAMETRIX
10
-105.6438
20
-9.5916
40
0.4500
50
0.0000
51
90.0000
0
LINE
8
PARAMETRIX
10
-115.9642
20
-9.1416
11
-124.3847
21
-9.1416
0
ARC
8
PARAMETRIX
10
-124.3847
20
-9.5916
40
0.4500
50
90.0000
51
180.0000
0
LINE
8
PARAMETRIX
10
-124.8347
20
-9.5916
11
-124.8347
21
-9.6916
0
ARC
8
PARAMETRIX
10
-124.3847
20
-9.6916
40
0.4500
50
180.0000
51
270.0000
0
LINE
8
PARAMETRIX
10
-124.3847
20
-10.1416
11
-115.9642
21
-10.1416
0
ARC
8
PARAMETRIX
10
-115.9642
20
-9.6916
40
0.4500
50
270.0000
51
0.0000
0
LINE
8
PARAMETRIX
10
-115.5142
20
-9.6916
11
-115.5142
21
-9.5916
0
ARC
8
PARAMETRIX
10
-115.9642
20
-9.5916
40
0.4500
50
0.0000
51
90.0000
0
LINE
8
PARAMETRIX
10
-126.2847
20
-9.1416
11
-129.5449
21
-9.1416
0
ARC
8
PARAMETRIX
10
-129.5449
20
-9.5916
40
0.4500
50
90.0000
51
180.0000
0
LINE
8
PARAMETRIX
10
-129.9949
20
-9.5916
11
-129.9949
21
-9.6916
0
ARC
8
PARAMETRIX
10
-129.5449
20
-9.6916
40
0.4500
50
180.0000
51
270.0000
0
LINE
8
PARAMETRIX
10
-129.5449
20
-10.1416
11
-126.2847
21
-10.1416
0
ARC
8
PARAMETRIX
10
-126.2847
20
-9.6916
40
0.4500
50
270.0000
51
0.0000
0
LINE
8
PARAMETRIX
10
-125.8347
20
-9.6916
11
-125.8347
21
-9.5916
0
ARC
8
PARAMETRIX
10
-126.2847
20
-9.5916
40
0.4500
50
0.0000
51
90.0000
0
LINE
8
PARAMETRIX
10
-100.5535
20
-11.1416
11
-108.9273
21
-11.1416
0
ARC
8
PARAMETRIX
10
-108.9273
20
-11.5916
40
0.4500
50
90.0000
51
180.0000
0
LINE
8
PARAMETRIX
10
-109.3773
20
-11.5916
11
-109.3773
21
-11.6916
0
ARC
8
PARAMETRIX
10
-108.9273
20
-11.6916
40
0.4500
50
180.0000
51
270.0000
0
LINE
8
PARAMETRIX
10
-108.9273
20
-12.1416
11
-100.5535
21
-12.1416
0
ARC
8
PARAMETRIX
10
-100.5535
20
-11.6916
40
0.4500
50
270.0000
51
0.0000
0
LINE
8
PARAMETRIX
10
-100.1035
20
-11.6916
11
-100.1035
21
-11.5916
0
ARC
8
PARAMETRIX
10
-100.5535
20
-11.5916
40
0.4500
50
0.0000
51
90.0000
0
LINE
8
PARAMETRIX
10
-110.8273
20
-11.1416
11
-119.2012
21
-11.1416
0
ARC
8
PARAMETRIX
10
-119.2012
20
-11.5916
40
0.4500
50
90.0000
51
180.0000
0
LINE
8
PARAMETRIX
10
-119.6512
20
-11.5916
11
-119.6512
21
-11.6916
0
ARC
8
PARAMETRIX
10
-119.2012
20
-11.6916
40
0.4500
50
180.0000
51
270.0000
0
LINE
8
PARAMETRIX
10
-119.2012
20
-12.1416
11
-110.8273
21
-12.1416
0
ARC
8
PARAMETRIX
10
-110.8273
20
-11.6916
40
0.4500
50
270.0000
51
0.0000
0
LINE
8
PARAMETRIX
10
-110.3773
20
-11.6916
11
-110.3773
21
-11.5916
0
ARC
8
PARAMETRIX
10
-110.8273
20
-11.5916
40
0.4500
50
0.0000
51
90.0000
0
LINE
8
PARAMETRIX
10
-121.1012
20
-11.1416
11
-129.4750
21
-11.1416
0
ARC
8
PARAMETRIX
10
-129.4750
20
-11.5916
40
0.4500
50
90.0000
51
180.0000
0
LINE
8
PARAMETRIX
10
-129.9250
20
-11.5916
11
-129.9250
21
-11.6916
0
ARC
8
PARAMETRIX
10
-129.4750
20
-11.6916
40
0.4500
50
180.0000
51
270.0000
0
LINE
8
PARAMETRIX
10
-129.4750
20
-12.1416
11
-121.1012
21
-12.1416
0
ARC
8
PARAMETRIX
10
-121.1012
20
-11.6916
40
0.4500
50
270.0000
51
0.0000
0
LINE
8
PARAMETRIX
10
-120.6512
20
-11.6916
11
-120.6512
21
-11.5916
0
ARC
8
PARAMETRIX
10
-121.1012
20
-11.5916
40
0.4500
50
0.0000
51
90.0000
0
CIRCLE
8
PARAMETRIX
10
-126.2973
20
4.2500
40
2.1250
0
CIRCLE
8
PARAMETRIX
10
-103.7312
20
4.2500
40
2.1250
0
CIRCLE
8
PARAMETRIX
10
-147.6511
20
-23.1416
40
8.0000
0
LINE
8
PARAMETRIX
10
-133.0681
20
-5.1416
11
-136.3457
21
-5.1416
0
ARC
8
PARAMETRIX
10
-136.3457
20
-5.5916
40
0.4500
50
90.0000
51
180.0000
0
LINE
8
PARAMETRIX
10
-136.7957
20
-5.5916
11
-136.7957
21
-5.6916
0
ARC
8
PARAMETRIX
10
-136.3457
20
-5.6916
40
0.4500
50
180.0000
51
270.0000
0
LINE
8
PARAMETRIX
10
-136.3457
20
-6.1416
11
-133.0681
21
-6.1416
0
ARC
8
PARAMETRIX
10
-133.0681
20
-5.6916
40
0.4500
50
270.0000
51
0.0000
0
LINE
8
PARAMETRIX
10
-132.6181
20
-5.6916
11
-132.6181
21
-5.5916
0
ARC
8
PARAMETRIX
10
-133.0681
20
-5.5916
40
0.4500
50
360.0000
51
90.0000
0
LINE
8
PARAMETRIX
10
-138.2457
20
-5.1416
11
-146.7011
21
-5.1416
0
ARC
8
PARAMETRIX
10
-146.7011
20
-5.5916
40
0.4500
50
90.0000
51
180.0000
0
LINE
8
PARAMETRIX
10
-147.1511
20
-5.5916
11
-147.1511
21
-5.6916
0
ARC
8
PARAMETRIX
10
-146.7011
20
-5.6916
40
0.4500
50
180.0000
51
270.0000
0
LINE
8
PARAMETRIX
10
-146.7011
20
-6.1416
11
-138.2457
21
-6.1416
0
ARC
8
PARAMETRIX
10
-138.2457
20
-5.6916
40
0.4500
50
270.0000
51
0.0000
0
LINE
8
PARAMETRIX
10
-137.7957
20
-5.6916
11
-137.7957
21
-5.5916
0
ARC
8
PARAMETRIX
10
-138.2457
20
-5.5916
40
0.4500
50
360.0000
51
90.0000
0
LINE
8
PARAMETRIX
10
-148.6011
20
-5.1416
11
-157.0564
21
-5.1416
0
ARC
8
PARAMETRIX
10
-157.0564
20
-5.5916
40
0.4500
50
90.0000
51
180.0000
0
LINE
8
PARAMETRIX
10
-157.5064
20
-5.5916
11
-157.5064
21
-5.6916
0
ARC
8
PARAMETRIX
10
-157.0564
20
-5.6916
40
0.4500
50
180.0000
51
270.0000
0
LINE
8
PARAMETRIX
10
-157.0564
20
-6.1416
11
-148.6011
21
-6.1416
0
ARC
8
PARAMETRIX
10
-148.6011
20
-5.6916
40
0.4500
50
270.0000
51
0.0000
0
LINE
8
PARAMETRIX
10
-148.1511
20
-5.6916
11
-148.1511
21
-5.5916
0
ARC
8
PARAMETRIX
10
-148.6011
20
-5.5916
40
0.4500
50
0.0000
51
90.0000
0
LINE
8
PARAMETRIX
10
-158.9564
20
-5.1416
11
-162.2341
21
-5.1416
0
ARC
8
PARAMETRIX
10
-162.2341
20
-5.5916
40
0.4500
50
90.0000
51
180.0000
0
LINE
8
PARAMETRIX
10
-162.6841
20
-5.5916
11
-162.6841
21
-5.6916
0
ARC
8
PARAMETRIX
10
-162.2341
20
-5.6916
40
0.4500
50
180.0000
51
270.0000
0
LINE
8
PARAMETRIX
10
-162.2341
20
-6.1416
11
-158.9564
21
-6.1416
0
ARC
8
PARAMETRIX
10
-158.9564
20
-5.6916
40
0.4500
50
270.0000
51
0.0000
0
LINE
8
PARAMETRIX
10
-158.5064
20
-5.6916
11
-158.5064
21
-5.5916
0
ARC
8
PARAMETRIX
10
-158.9564
20
-5.5916
40
0.4500
50
360.0000
51
90.0000
0
LINE
8
PARAMETRIX
10
-133.0681
20
-7.1416
11
-141.5234
21
-7.1416
0
ARC
8
PARAMETRIX
10
-141.5234
20
-7.5916
40
0.4500
50
90.0000
51
180.0000
0
LINE
8
PARAMETRIX
10
-141.9734
20
-7.5916
11
-141.9734
21
-7.6916
0
ARC
8
PARAMETRIX
10
-141.5234
20
-7.6916
40
0.4500
50
180.0000
51
270.0000
0
LINE
8
PARAMETRIX
10
-141.5234
20
-8.1416
11
-133.0681
21
-8.1416
0
ARC
8
PARAMETRIX
10
-133.0681
20
-7.6916
40
0.4500
50
270.0000
51
0.0000
0
LINE
8
PARAMETRIX
10
-132.6181
20
-7.6916
11
-132.6181
21
-7.5916
0
ARC
8
PARAMETRIX
10
-133.0681
20
-7.5916
40
0.4500
50
0.0000
51
90.0000
0
LINE
8
PARAMETRIX
10
-143.4234
20
-7.1416
11
-151.8787
21
-7.1416
0
ARC
8
PARAMETRIX
10
-151.8787
20
-7.5916
40
0.4500
50
90.0000
51
180.0000
0
LINE
8
PARAMETRIX
10
-152.3287
20
-7.5916
11
-152.3287
21
-7.6916
0
ARC
8
PARAMETRIX
10
-151.8787
20
-7.6916
40
0.4500
50
180.0000
51
270.0000
0
LINE
8
PARAMETRIX
10
-151.8787
20
-8.1416
11
-143.4234
21
-8.1416
0
ARC
8
PARAMETRIX
10
-143.4234
20
-7.6916
40
0.4500
50
270.0000
51
0.0000
0
LINE
8
PARAMETRIX
10
-142.9734
20
-7.6916
11
-142.9734
21
-7.5916
0
ARC
8
PARAMETRIX
10
-143.4234
20
-7.5916
40
0.4500
50
0.0000
51
90.0000
0
LINE
8
PARAMETRIX
10
-153.7787
20
-7.1416
11
-162.2341
21
-7.1416
0
ARC
8
PARAMETRIX
10
-162.2341
20
-7.5916
40
0.4500
50
90.0000
51
180.0000
0
LINE
8
PARAMETRIX
10
-162.6841
20
-7.5916
11
-162.6841
21
-7.6916
0
ARC
8
PARAMETRIX
10
-162.2341
20
-7.6916
40
0.4500
50
180.0000
51
270.0000
0
LINE
8
PARAMETRIX
10
-162.2341
20
-8.1416
11
-153.7787
21
-8.1416
0
ARC
8
PARAMETRIX
10
-153.7787
20
-7.6916
40
0.4500
50
270.0000
51
0.0000
0
LINE
8
PARAMETRIX
10
-153.3287
20
-7.6916
11
-153.3287
21
-7.5916
0
ARC
8
PARAMETRIX
10
-153.7787
20
-7.5916
40
0.4500
50
360.0000
51
90.0000
0
LINE
8
PARAMETRIX
10
-133.1204
20
-9.1416
11
-136.3806
21
-9.1416
0
ARC
8
PARAMETRIX
10
-136.3806
20
-9.5916
40
0.4500
50
90.0000
51
180.0000
0
LINE
8
PARAMETRIX
10
-136.8306
20
-9.5916
11
-136.8306
21
-9.6916
0
ARC
8
PARAMETRIX
10
-136.3806
20
-9.6916
40
0.4500
50
180.0000
51
270.0000
0
LINE
8
PARAMETRIX
10
-136.3806
20
-10.1416
11
-133.1204
21
-10.1416
0
ARC
8
PARAMETRIX
10
-133.1204
20
-9.6916
40
0.4500
50
270.0000
51
0.0000
0
LINE
8
PARAMETRIX
10
-132.6704
20
-9.6916
11
-132.6704
21
-9.5916
0
ARC
8
PARAMETRIX
10
-133.1204
20
-9.5916
40
0.4500
50
0.0000
51
90.0000
0
LINE
8
PARAMETRIX
10
-138.2806
20
-9.1416
11
-146.7011
21
-9.1416
0
ARC
8
PARAMETRIX
10
-146.7011
20
-9.5916
40
0.4500
50
90.0000
51
180.0000
0
LINE
8
PARAMETRIX
10
-147.1511
20
-9.5916
11
-147.1511
21
-9.6916
0
ARC
8
PARAMETRIX
10
-146.7011
20
-9.6916
40
0.4500
50
180.0000
51
270.0000
0
LINE
8
PARAMETRIX
10
-146.7011
20
-10.1416
11
-138.2806
21
-10.1416
0
ARC
8
PARAMETRIX
10
-138.2806
20
-9.6916
40
0.4500
50
270.0000
51
0.0000
0
LINE
8
PARAMETRIX
10
-137.8306
20
-9.6916
11
-137.8306
21
-9.5916
0
ARC
8
PARAMETRIX
10
-138.2806
20
-9.5916
40
0.4500
50
0.0000
51
90.0000
0
LINE
8
PARAMETRIX
10
-148.6011
20
-9.1416
11
-157.0215
21
-9.1416
0
ARC
8
PARAMETRIX
10
-157.0215
20
-9.5916
40
0.4500
50
90.0000
51
180.0000
0
LINE
8
PARAMETRIX
10
-157.4715
20
-9.5916
11
-157.4715
21
-9.6916
0
ARC
8
PARAMETRIX
10
-157.0215
20
-9.6916
40
0.4500
50
180.0000
51
270.0000
0
LINE
8
PARAMETRIX
10
-157.0215
20
-10.1416
11
-148.6011
21
-10.1416
0
ARC
8
PARAMETRIX
10
-148.6011
20
-9.6916
40
0.4500
50
270.0000
51
0.0000
0
LINE
8
PARAMETRIX
10
-148.1511
20
-9.6916
11
-148.1511
21
-9.5916
0
ARC
8
PARAMETRIX
10
-148.6011
20
-9.5916
40
0.4500
50
0.0000
51
90.0000
0
LINE
8
PARAMETRIX
10
-158.9215
20
-9.1416
11
-162.1817
21
-9.1416
0
ARC
8
PARAMETRIX
10
-162.1817
20
-9.5916
40
0.4500
50
90.0000
51
180.0000
0
LINE
8
PARAMETRIX
10
-162.6317
20
-9.5916
11
-162.6317
21
-9.6916
0
ARC
8
PARAMETRIX
10
-162.1817
20
-9.6916
40
0.4500
50
180.0000
51
270.0000
0
LINE
8
PARAMETRIX
10
-162.1817
20
-10.1416
11
-158.9215
21
-10.1416
0
ARC
8
PARAMETRIX
10
-158.9215
20
-9.6916
40
0.4500
50
270.0000
51
0.0000
0
LINE
8
PARAMETRIX
10
-158.4715
20
-9.6916
11
-158.4715
21
-9.5916
0
ARC
8
PARAMETRIX
10
-158.9215
20
-9.5916
40
0.4500
50
0.0000
51
90.0000
0
LINE
8
PARAMETRIX
10
-133.1903
20
-11.1416
11
-141.5641
21
-11.1416
0
ARC
8
PARAMETRIX
10
-141.5641
20
-11.5916
40
0.4500
50
90.0000
51
180.0000
0
LINE
8
PARAMETRIX
10
-142.0141
20
-11.5916
11
-142.0141
21
-11.6916
0
ARC
8
PARAMETRIX
10
-141.5641
20
-11.6916
40
0.4500
50
180.0000
51
270.0000
0
LINE
8
PARAMETRIX
10
-141.5641
20
-12.1416
11
-133.1903
21
-12.1416
0
ARC
8
PARAMETRIX
10
-133.1903
20
-11.6916
40
0.4500
50
270.0000
51
0.0000
0
LINE
8
PARAMETRIX
10
-132.7403
20
-11.6916
11
-132.7403
21
-11.5916
0
ARC
8
PARAMETRIX
10
-133.1903
20
-11.5916
40
0.4500
50
0.0000
51
90.0000
0
LINE
8
PARAMETRIX
10
-143.4641
20
-11.1416
11
-151.8380
21
-11.1416
0
ARC
8
PARAMETRIX
10
-151.8380
20
-11.5916
40
0.4500
50
90.0000
51
180.0000
0
LINE
8
PARAMETRIX
10
-152.2880
20
-11.5916
11
-152.2880
21
-11.6916
0
ARC
8
PARAMETRIX
10
-151.8380
20
-11.6916
40
0.4500
50
180.0000
51
270.0000
0
LINE
8
PARAMETRIX
10
-151.8380
20
-12.1416
11
-143.4641
21
-12.1416
0
ARC
8
PARAMETRIX
10
-143.4641
20
-11.6916
40
0.4500
50
270.0000
51
0.0000
0
LINE
8
PARAMETRIX
10
-143.0141
20
-11.6916
11
-143.0141
21
-11.5916
0
ARC
8
PARAMETRIX
10
-143.4641
20
-11.5916
40
0.4500
50
0.0000
51
90.0000
0
LINE
8
PARAMETRIX
10
-153.7380
20
-11.1416
11
-162.1118
21
-11.1416
0
ARC
8
PARAMETRIX
10
-162.1118
20
-11.5916
40
0.4500
50
90.0000
51
180.0000
0
LINE
8
PARAMETRIX
10
-162.5618
20
-11.5916
11
-162.5618
21
-11.6916
0
ARC
8
PARAMETRIX
10
-162.1118
20
-11.6916
40
0.4500
50
180.0000
51
270.0000
0
LINE
8
PARAMETRIX
10
-162.1118
20
-12.1416
11
-153.7380
21
-12.1416
0
ARC
8
PARAMETRIX
10
-153.7380
20
-11.6916
40
0.4500
50
270.0000
51
0.0000
0
LINE
8
PARAMETRIX
10
-153.2880
20
-11.6916
11
-153.2880
21
-11.5916
0
ARC
8
PARAMETRIX
10
-153.7380
20
-11.5916
40
0.4500
50
0.0000
51
90.0000
0
CIRCLE
8
PARAMETRIX
10
-158.9341
20
4.2500
40
2.1250
0
CIRCLE
8
PARAMETRIX
10
-136.3681
20
4.2500
40
2.1250
0
CIRCLE
8
PARAMETRIX
10
-180.2879
20
-23.1416
40
8.0000
0
LINE
8
PARAMETRIX
10
-165.7049
20
-5.1416
11
-168.9825
21
-5.1416
0
ARC
8
PARAMETRIX
10
-168.9825
20
-5.5916
40
0.4500
50
90.0000
51
180.0000
0
LINE
8
PARAMETRIX
10
-169.4325
20
-5.5916
11
-169.4325
21
-5.6916
0
ARC
8
PARAMETRIX
10
-168.9825
20
-5.6916
40
0.4500
50
180.0000
51
270.0000
0
LINE
8
PARAMETRIX
10
-168.9825
20
-6.1416
11
-165.7049
21
-6.1416
0
ARC
8
PARAMETRIX
10
-165.7049
20
-5.6916
40
0.4500
50
270.0000
51
0.0000
0
LINE
8
PARAMETRIX
10
-165.2549
20
-5.6916
11
-165.2549
21
-5.5916
0
ARC
8
PARAMETRIX
10
-165.7049
20
-5.5916
40
0.4500
50
360.0000
51
90.0000
0
LINE
8
PARAMETRIX
10
-170.8825
20
-5.1416
11
-179.3379
21
-5.1416
0
ARC
8
PARAMETRIX
10
-179.3379
20
-5.5916
40
0.4500
50
90.0000
51
180.0000
0
LINE
8
PARAMETRIX
10
-179.7879
20
-5.5916
11
-179.7879
21
-5.6916
0
ARC
8
PARAMETRIX
10
-179.3379
20
-5.6916
40
0.4500
50
180.0000
51
270.0000
0
LINE
8
PARAMETRIX
10
-179.3379
20
-6.1416
11
-170.8825
21
-6.1416
0
ARC
8
PARAMETRIX
10
-170.8825
20
-5.6916
40
0.4500
50
270.0000
51
0.0000
0
LINE
8
PARAMETRIX
10
-170.4325
20
-5.6916
11
-170.4325
21
-5.5916
0
ARC
8
PARAMETRIX
10
-170.8825
20
-5.5916
40
0.4500
50
360.0000
51
90.0000
0
LINE
8
PARAMETRIX
10
-181.2379
20
-5.1416
11
-189.6932
21
-5.1416
0
ARC
8
PARAMETRIX
10
-189.6932
20
-5.5916
40
0.4500
50
90.0000
51
180.0000
0
LINE
8
PARAMETRIX
10
-190.1432
20
-5.5916
11
-190.1432
21
-5.6916
0
ARC
8
PARAMETRIX
10
-189.6932
20
-5.6916
40
0.4500
50
180.0000
51
270.0000
0
LINE
8
PARAMETRIX
10
-189.6932
20
-6.1416
11
-181.2379
21
-6.1416
0
ARC
8
PARAMETRIX
10
-181.2379
20
-5.6916
40
0.4500
50
270.0000
51
0.0000
0
LINE
8
PARAMETRIX
10
-180.7879
20
-5.6916
11
-180.7879
21
-5.5916
0
ARC
8
PARAMETRIX
10
-181.2379
20
-5.5916
40
0.4500
50
0.0000
51
90.0000
0
LINE
8
PARAMETRIX
10
-191.5932
20
-5.1416
11
-194.8709
21
-5.1416
0
ARC
8
PARAMETRIX
10
-194.8709
20
-5.5916
40
0.4500
50
90.0000
51
180.0000
0
LINE
8
PARAMETRIX
10
-195.3209
20
-5.5916
11
-195.3209
21
-5.6916
0
ARC
8
PARAMETRIX
10
-194.8709
20
-5.6916
40
0.4500
50
180.0000
51
270.0000
0
LINE
8
PARAMETRIX
10
-194.8709
20
-6.1416
11
-191.5932
21
-6.1416
0
ARC
8
PARAMETRIX
10
-191.5932
20
-5.6916
40
0.4500
50
270.0000
51
0.0000
0
LINE
8
PARAMETRIX
10
-191.1432
20
-5.6916
11
-191.1432
21
-5.5916
0
ARC
8
PARAMETRIX
10
-191.5932
20
-5.5916
40
0.4500
50
360.0000
51
90.0000
0
LINE
8
PARAMETRIX
10
-165.7049
20
-7.1416
11
-174.1602
21
-7.1416
0
ARC
8
PARAMETRIX
10
-174.1602
20
-7.5916
40
0.4500
50
90.0000
51
180.0000
0
LINE
8
PARAMETRIX
10
-174.6102
20
-7.5916
11
-174.6102
21
-7.6916
0
ARC
8
PARAMETRIX
10
-174.1602
20
-7.6916
40
0.4500
50
180.0000
51
270.0000
0
LINE
8
PARAMETRIX
10
-174.1602
20
-8.1416
11
-165.7049
21
-8.1416
0
ARC
8
PARAMETRIX
10
-165.7049
20
-7.6916
40
0.4500
50
270.0000
51
0.0000
0
LINE
8
PARAMETRIX
10
-165.2549
20
-7.6916
11
-165.2549
21
-7.5916
0
ARC
8
PARAMETRIX
10
-165.7049
20
-7.5916
40
0.4500
50
0.0000
51
90.0000
0
LINE
8
PARAMETRIX
10
-176.0602
20
-7.1416
11
-184.5155
21
-7.1416
0
ARC
8
PARAMETRIX
10
-184.5155
20
-7.5916
40
0.4500
50
90.0000
51
180.0000
0
LINE
8
PARAMETRIX
10
-184.9655
20
-7.5916
11
-184.9655
21
-7.6916
0
ARC
8
PARAMETRIX
10
-184.5155
20
-7.6916
40
0.4500
50
180.0000
51
270.0000
0
LINE
8
PARAMETRIX
10
-184.5155
20
-8.1416
11
-176.0602
21
-8.1416
0
ARC
8
PARAMETRIX
10
-176.0602
20
-7.6916
40
0.4500
50
270.0000
51
0.0000
0
LINE
8
PARAMETRIX
10
-175.6102
20
-7.6916
11
-175.6102
21
-7.5916
0
ARC
8
PARAMETRIX
10
-176.0602
20
-7.5916
40
0.4500
50
0.0000
51
90.0000
0
LINE
8
PARAMETRIX
10
-186.4155
20
-7.1416
11
-194.8709
21
-7.1416
0
ARC
8
PARAMETRIX
10
-194.8709
20
-7.5916
40
0.4500
50
90.0000
51
180.0000
0
LINE
8
PARAMETRIX
10
-195.3209
20
-7.5916
11
-195.3209
21
-7.6916
0
ARC
8
PARAMETRIX
10
-194.8709
20
-7.6916
40
0.4500
50
180.0000
51
270.0000
0
LINE
8
PARAMETRIX
10
-194.8709
20
-8.1416
11
-186.4155
21
-8.1416
0
ARC
8
PARAMETRIX
10
-186.4155
20
-7.6916
40
0.4500
50
270.0000
51
0.0000
0
LINE
8
PARAMETRIX
10
-185.9655
20
-7.6916
11
-185.9655
21
-7.5916
0
ARC
8
PARAMETRIX
10
-186.4155
20
-7.5916
40
0.4500
50
360.0000
51
90.0000
0
LINE
8
PARAMETRIX
10
-165.7573
20
-9.1416
11
-169.0175
21
-9.1416
0
ARC
8
PARAMETRIX
10
-169.0175
20
-9.5916
40
0.4500
50
90.0000
51
180.0000
0
LINE
8
PARAMETRIX
10
-169.4675
20
-9.5916
11
-169.4675
21
-9.6916
0
ARC
8
PARAMETRIX
10
-169.0175
20
-9.6916
40
0.4500
50
180.0000
51
270.0000
0
LINE
8
PARAMETRIX
10
-169.0175
20
-10.1416
11
-165.7573
21
-10.1416
0
ARC
8
PARAMETRIX
10
-165.7573
20
-9.6916
40
0.4500
50
270.0000
51
0.0000
0
LINE
8
PARAMETRIX
10
-165.3073
20
-9.6916
11
-165.3073
21
-9.5916
0
ARC
8
PARAMETRIX
10
-165.7573
20
-9.5916
40
0.4500
50
0.0000
51
90.0000
0
LINE
8
PARAMETRIX
10
-170.9175
20
-9.1416
11
-179.3379
21
-9.1416
0
ARC
8
PARAMETRIX
10
-179.3379
20
-9.5916
40
0.4500
50
90.0000
51
180.0000
0
LINE
8
PARAMETRIX
10
-179.7879
20
-9.5916
11
-179.7879
21
-9.6916
0
ARC
8
PARAMETRIX
10
-179.3379
20
-9.6916
40
0.4500
50
180.0000
51
270.0000
0
LINE
8
PARAMETRIX
10
-179.3379
20
-10.1416
11
-170.9175
21
-10.1416
0
ARC
8
PARAMETRIX
10
-170.9175
20
-9.6916
40
0.4500
50
270.0000
51
0.0000
0
LINE
8
PARAMETRIX
10
-170.4675
20
-9.6916
11
-170.4675
21
-9.5916
0
ARC
8
PARAMETRIX
10
-170.9175
20
-9.5916
40
0.4500
50
0.0000
51
90.0000
0
LINE
8
PARAMETRIX
10
-181.2379
20
-9.1416
11
-189.6583
21
-9.1416
0
ARC
8
PARAMETRIX
10
-189.6583
20
-9.5916
40
0.4500
50
90.0000
51
180.0000
0
LINE
8
PARAMETRIX
10
-190.1083
20
-9.5916
11
-190.1083
21
-9.6916
0
ARC
8
PARAMETRIX
10
-189.6583
20
-9.6916
40
0.4500
50
180.0000
51
270.0000
0
LINE
8
PARAMETRIX
10
-189.6583
20
-10.1416
11
-181.2379
21
-10.1416
0
ARC
8
PARAMETRIX
10
-181.2379
20
-9.6916
40
0.4500
50
270.0000
51
0.0000
0
LINE
8
PARAMETRIX
10
-180.7879
20
-9.6916
11
-180.7879
21
-9.5916
0
ARC
8
PARAMETRIX
10
-181.2379
20
-9.5916
40
0.4500
50
0.0000
51
90.0000
0
LINE
8
PARAMETRIX
10
-191.5583
20
-9.1416
11
-194.8185
21
-9.1416
0
ARC
8
PARAMETRIX
10
-194.8185
20
-9.5916
40
0.4500
50
90.0000
51
180.0000
0
LINE
8
PARAMETRIX
10
-195.2685
20
-9.5916
11
-195.2685
21
-9.6916
0
ARC
8
PARAMETRIX
10
-194.8185
20
-9.6916
40
0.4500
50
180.0000
51
270.0000
0
LINE
8
PARAMETRIX
10
-194.8185
20
-10.1416
11
-191.5583
21
-10.1416
0
ARC
8
PARAMETRIX
10
-191.5583
20
-9.6916
40
0.4500
50
270.0000
51
0.0000
0
LINE
8
PARAMETRIX
10
-191.1083
20
-9.6916
11
-191.1083
21
-9.5916
0
ARC
8
PARAMETRIX
10
-191.5583
20
-9.5916
40
0.4500
50
0.0000
51
90.0000
0
LINE
8
PARAMETRIX
10
-165.8271
20
-11.1416
11
-174.2009
21
-11.1416
0
ARC
8
PARAMETRIX
10
-174.2009
20
-11.5916
40
0.4500
50
90.0000
51
180.0000
0
LINE
8
PARAMETRIX
10
-174.6509
20
-11.5916
11
-174.6509
21
-11.6916
0
ARC
8
PARAMETRIX
10
-174.2009
20
-11.6916
40
0.4500
50
180.0000
51
270.0000
0
LINE
8
PARAMETRIX
10
-174.2009
20
-12.1416
11
-165.8271
21
-12.1416
0
ARC
8
PARAMETRIX
10
-165.8271
20
-11.6916
40
0.4500
50
270.0000
51
0.0000
0
LINE
8
PARAMETRIX
10
-165.3771
20
-11.6916
11
-165.3771
21
-11.5916
0
ARC
8
PARAMETRIX
10
-165.8271
20
-11.5916
40
0.4500
50
0.0000
51
90.0000
0
LINE
8
PARAMETRIX
10
-176.1009
20
-11.1416
11
-184.4748
21
-11.1416
0
ARC
8
PARAMETRIX
10
-184.4748
20
-11.5916
40
0.4500
50
90.0000
51
180.0000
0
LINE
8
PARAMETRIX
10
-184.9248
20
-11.5916
11
-184.9248
21
-11.6916
0
ARC
8
PARAMETRIX
10
-184.4748
20
-11.6916
40
0.4500
50
180.0000
51
270.0000
0
LINE
8
PARAMETRIX
10
-184.4748
20
-12.1416
11
-176.1009
21
-12.1416
0
ARC
8
PARAMETRIX
10
-176.1009
20
-11.6916
40
0.4500
50
270.0000
51
0.0000
0
LINE
8
PARAMETRIX
10
-175.6509
20
-11.6916
11
-175.6509
21
-11.5916
0
ARC
8
PARAMETRIX
10
-176.1009
20
-11.5916
40
0.4500
50
0.0000
51
90.0000
0
LINE
8
PARAMETRIX
10
-186.3748
20
-11.1416
11
-194.7486
21
-11.1416
0
ARC
8
PARAMETRIX
10
-194.7486
20
-11.5916
40
0.4500
50
90.0000
51
180.0000
0
LINE
8
PARAMETRIX
10
-195.1986
20
-11.5916
11
-195.1986
21
-11.6916
0
ARC
8
PARAMETRIX
10
-194.7486
20
-11.6916
40
0.4500
50
180.0000
51
270.0000
0
LINE
8
PARAMETRIX
10
-194.7486
20
-12.1416
11
-186.3748
21
-12.1416
0
ARC
8
PARAMETRIX
10
-186.3748
20
-11.6916
40
0.4500
50
270.0000
51
0.0000
0
LINE
8
PARAMETRIX
10
-185.9248
20
-11.6916
11
-185.9248
21
-11.5916
0
ARC
8
PARAMETRIX
10
-186.3748
20
-11.5916
40
0.4500
50
0.0000
51
90.0000
0
CIRCLE
8
PARAMETRIX
10
-191.5709
20
4.2500
40
2.1250
0
CIRCLE
8
PARAMETRIX
10
-169.0049
20
4.2500
40
2.1250
0
CIRCLE
8
PARAMETRIX
10
-212.9247
20
-23.1416
40
8.0000
0
LINE
8
PARAMETRIX
10
-198.3417
20
-5.1416
11
-201.6193
21
-5.1416
0
ARC
8
PARAMETRIX
10
-201.6193
20
-5.5916
40
0.4500
50
90.0000
51
180.0000
0
LINE
8
PARAMETRIX
10
-202.0693
20
-5.5916
11
-202.0693
21
-5.6916
0
ARC
8
PARAMETRIX
10
-201.6193
20
-5.6916
40
0.4500
50
180.0000
51
270.0000
0
LINE
8
PARAMETRIX
10
-201.6193
20
-6.1416
11
-198.3417
21
-6.1416
0
ARC
8
PARAMETRIX
10
-198.3417
20
-5.6916
40
0.4500
50
270.0000
51
0.0000
0
LINE
8
PARAMETRIX
10
-197.8917
20
-5.6916
11
-197.8917
21
-5.5916
0
ARC
8
PARAMETRIX
10
-198.3417
20
-5.5916
40
0.4500
50
360.0000
51
90.0000
0
LINE
8
PARAMETRIX
10
-203.5193
20
-5.1416
11
-211.9747
21
-5.1416
0
ARC
8
PARAMETRIX
10
-211.9747
20
-5.5916
40
0.4500
50
90.0000
51
180.0000
0
LINE
8
PARAMETRIX
10
-212.4247
20
-5.5916
11
-212.4247
21
-5.6916
0
ARC
8
PARAMETRIX
10
-211.9747
20
-5.6916
40
0.4500
50
180.0000
51
270.0000
0
LINE
8
PARAMETRIX
10
-211.9747
20
-6.1416
11
-203.5193
21
-6.1416
0
ARC
8
PARAMETRIX
10
-203.5193
20
-5.6916
40
0.4500
50
270.0000
51
0.0000
0
LINE
8
PARAMETRIX
10
-203.0693
20
-5.6916
11
-203.0693
21
-5.5916
0
ARC
8
PARAMETRIX
10
-203.5193
20
-5.5916
40
0.4500
50
360.0000
51
90.0000
0
LINE
8
PARAMETRIX
10
-213.8747
20
-5.1416
11
-222.3300
21
-5.1416
0
ARC
8
PARAMETRIX
10
-222.3300
20
-5.5916
40
0.4500
50
90.0000
51
180.0000
0
LINE
8
PARAMETRIX
10
-222.7800
20
-5.5916
11
-222.7800
21
-5.6916
0
ARC
8
PARAMETRIX
10
-222.3300
20
-5.6916
40
0.4500
50
180.0000
51
270.0000
0
LINE
8
PARAMETRIX
10
-222.3300
20
-6.1416
11
-213.8747
21
-6.1416
0
ARC
8
PARAMETRIX
10
-213.8747
20
-5.6916
40
0.4500
50
270.0000
51
0.0000
0
LINE
8
PARAMETRIX
10
-213.4247
20
-5.6916
11
-213.4247
21
-5.5916
0
ARC
8
PARAMETRIX
10
-213.8747
20
-5.5916
40
0.4500
50
0.0000
51
90.0000
0
LINE
8
PARAMETRIX
10
-224.2300
20
-5.1416
11
-227.5077
21
-5.1416
0
ARC
8
PARAMETRIX
10
-227.5077
20
-5.5916
40
0.4500
50
90.0000
51
180.0000
0
LINE
8
PARAMETRIX
10
-227.9577
20
-5.5916
11
-227.9577
21
-5.6916
0
ARC
8
PARAMETRIX
10
-227.5077
20
-5.6916
40
0.4500
50
180.0000
51
270.0000
0
LINE
8
PARAMETRIX
10
-227.5077
20
-6.1416
11
-224.2300
21
-6.1416
0
ARC
8
PARAMETRIX
10
-224.2300
20
-5.6916
40
0.4500
50
270.0000
51
0.0000
0
LINE
8
PARAMETRIX
10
-223.7800
20
-5.6916
11
-223.7800
21
-5.5916
0
ARC
8
PARAMETRIX
10
-224.2300
20
-5.5916
40
0.4500
50
360.0000
51
90.0000
0
LINE
8
PARAMETRIX
10
-198.3417
20
-7.1416
11
-206.7970
21
-7.1416
0
ARC
8
PARAMETRIX
10
-206.7970
20
-7.5916
40
0.4500
50
90.0000
51
180.0000
0
LINE
8
PARAMETRIX
10
-207.2470
20
-7.5916
11
-207.2470
21
-7.6916
0
ARC
8
PARAMETRIX
10
-206.7970
20
-7.6916
40
0.4500
50
180.0000
51
270.0000
0
LINE
8
PARAMETRIX
10
-206.7970
20
-8.1416
11
-198.3417
21
-8.1416
0
ARC
8
PARAMETRIX
10
-198.3417
20
-7.6916
40
0.4500
50
270.0000
51
0.0000
0
LINE
8
PARAMETRIX
10
-197.8917
20
-7.6916
11
-197.8917
21
-7.5916
0
ARC
8
PARAMETRIX
10
-198.3417
20
-7.5916
40
0.4500
50
0.0000
51
90.0000
0
LINE
8
PARAMETRIX
10
-208.6970
20
-7.1416
11
-217.1524
21
-7.1416
0
ARC
8
PARAMETRIX
10
-217.1524
20
-7.5916
40
0.4500
50
90.0000
51
180.0000
0
LINE
8
PARAMETRIX
10
-217.6024
20
-7.5916
11
-217.6024
21
-7.6916
0
ARC
8
PARAMETRIX
10
-217.1524
20
-7.6916
40
0.4500
50
180.0000
51
270.0000
0
LINE
8
PARAMETRIX
10
-217.1524
20
-8.1416
11
-208.6970
21
-8.1416
0
ARC
8
PARAMETRIX
10
-208.6970
20
-7.6916
40
0.4500
50
270.0000
51
0.0000
0
LINE
8
PARAMETRIX
10
-208.2470
20
-7.6916
11
-208.2470
21
-7.5916
0
ARC
8
PARAMETRIX
10
-208.6970
20
-7.5916
40
0.4500
50
0.0000
51
90.0000
0
LINE
8
PARAMETRIX
10
-219.0524
20
-7.1416
11
-227.5077
21
-7.1416
0
ARC
8
PARAMETRIX
10
-227.5077
20
-7.5916
40
0.4500
50
90.0000
51
180.0000
0
LINE
8
PARAMETRIX
10
-227.9577
20
-7.5916
11
-227.9577
21
-7.6916
0
ARC
8
PARAMETRIX
10
-227.5077
20
-7.6916
40
0.4500
50
180.0000
51
270.0000
0
LINE
8
PARAMETRIX
10
-227.5077
20
-8.1416
11
-219.0524
21
-8.1416
0
ARC
8
PARAMETRIX
10
-219.0524
20
-7.6916
40
0.4500
50
270.0000
51
0.0000
0
LINE
8
PARAMETRIX
10
-218.6024
20
-7.6916
11
-218.6024
21
-7.5916
0
ARC
8
PARAMETRIX
10
-219.0524
20
-7.5916
40
0.4500
50
360.0000
51
90.0000
0
LINE
8
PARAMETRIX
10
-198.3941
20
-9.1416
11
-201.6543
21
-9.1416
0
ARC
8
PARAMETRIX
10
-201.6543
20
-9.5916
40
0.4500
50
90.0000
51
180.0000
0
LINE
8
PARAMETRIX
10
-202.1043
20
-9.5916
11
-202.1043
21
-9.6916
0
ARC
8
PARAMETRIX
10
-201.6543
20
-9.6916
40
0.4500
50
180.0000
51
270.0000
0
LINE
8
PARAMETRIX
10
-201.6543
20
-10.1416
11
-198.3941
21
-10.1416
0
ARC
8
PARAMETRIX
10
-198.3941
20
-9.6916
40
0.4500
50
270.0000
51
0.0000
0
LINE
8
PARAMETRIX
10
-197.9441
20
-9.6916
11
-197.9441
21
-9.5916
0
ARC
8
PARAMETRIX
10
-198.3941
20
-9.5916
40
0.4500
50
0.0000
51
90.0000
0
LINE
8
PARAMETRIX
10
-203.5543
20
-9.1416
11
-211.9747
21
-9.1416
0
ARC
8
PARAMETRIX
10
-211.9747
20
-9.5916
40
0.4500
50
90.0000
51
180.0000
0
LINE
8
PARAMETRIX
10
-212.4247
20
-9.5916
11
-212.4247
21
-9.6916
0
ARC
8
PARAMETRIX
10
-211.9747
20
-9.6916
40
0.4500
50
180.0000
51
270.0000
0
LINE
8
PARAMETRIX
10
-211.9747
20
-10.1416
11
-203.5543
21
-10.1416
0
ARC
8
PARAMETRIX
10
-203.5543
20
-9.6916
40
0.4500
50
270.0000
51
0.0000
0
LINE
8
PARAMETRIX
10
-203.1043
20
-9.6916
11
-203.1043
21
-9.5916
0
ARC
8
PARAMETRIX
10
-203.5543
20
-9.5916
40
0.4500
50
0.0000
51
90.0000
0
LINE
8
PARAMETRIX
10
-213.8747
20
-9.1416
11
-222.2951
21
-9.1416
0
ARC
8
PARAMETRIX
10
-222.2951
20
-9.5916
40
0.4500
50
90.0000
51
180.0000
0
LINE
8
PARAMETRIX
10
-222.7451
20
-9.5916
11
-222.7451
21
-9.6916
0
ARC
8
PARAMETRIX
10
-222.2951
20
-9.6916
40
0.4500
50
180.0000
51
270.0000
0
LINE
8
PARAMETRIX
10
-222.2951
20
-10.1416
11
-213.8747
21
-10.1416
0
ARC
8
PARAMETRIX
10
-213.8747
20
-9.6916
40
0.4500
50
270.0000
51
0.0000
0
LINE
8
PARAMETRIX
10
-213.4247
20
-9.6916
11
-213.4247
21
-9.5916
0
ARC
8
PARAMETRIX
10
-213.8747
20
-9.5916
40
0.4500
50
0.0000
51
90.0000
0
LINE
8
PARAMETRIX
10
-224.1951
20
-9.1416
11
-227.4553
21
-9.1416
0
ARC
8
PARAMETRIX
10
-227.4553
20
-9.5916
40
0.4500
50
90.0000
51
180.0000
0
LINE
8
PARAMETRIX
10
-227.9053
20
-9.5916
11
-227.9053
21
-9.6916
0
ARC
8
PARAMETRIX
10
-227.4553
20
-9.6916
40
0.4500
50
180.0000
51
270.0000
0
LINE
8
PARAMETRIX
10
-227.4553
20
-10.1416
11
-224.1951
21
-10.1416
0
ARC
8
PARAMETRIX
10
-224.1951
20
-9.6916
40
0.4500
50
270.0000
51
0.0000
0
LINE
8
PARAMETRIX
10
-223.7451
20
-9.6916
11
-223.7451
21
-9.5916
0
ARC
8
PARAMETRIX
10
-224.1951
20
-9.5916
40
0.4500
50
0.0000
51
90.0000
0
LINE
8
PARAMETRIX
10
-198.4639
20
-11.1416
11
-206.8378
21
-11.1416
0
ARC
8
PARAMETRIX
10
-206.8378
20
-11.5916
40
0.4500
50
90.0000
51
180.0000
0
LINE
8
PARAMETRIX
10
-207.2878
20
-11.5916
11
-207.2878
21
-11.6916
0
ARC
8
PARAMETRIX
10
-206.8378
20
-11.6916
40
0.4500
50
180.0000
51
270.0000
0
LINE
8
PARAMETRIX
10
-206.8378
20
-12.1416
11
-198.4639
21
-12.1416
0
ARC
8
PARAMETRIX
10
-198.4639
20
-11.6916
40
0.4500
50
270.0000
51
0.0000
0
LINE
8
PARAMETRIX
10
-198.0139
20
-11.6916
11
-198.0139
21
-11.5916
0
ARC
8
PARAMETRIX
10
-198.4639
20
-11.5916
40
0.4500
50
0.0000
51
90.0000
0
LINE
8
PARAMETRIX
10
-208.7378
20
-11.1416
11
-217.1116
21
-11.1416
0
ARC
8
PARAMETRIX
10
-217.1116
20
-11.5916
40
0.4500
50
90.0000
51
180.0000
0
LINE
8
PARAMETRIX
10
-217.5616
20
-11.5916
11
-217.5616
21
-11.6916
0
ARC
8
PARAMETRIX
10
-217.1116
20
-11.6916
40
0.4500
50
180.0000
51
270.0000
0
LINE
8
PARAMETRIX
10
-217.1116
20
-12.1416
11
-208.7378
21
-12.1416
0
ARC
8
PARAMETRIX
10
-208.7378
20
-11.6916
40
0.4500
50
270.0000
51
0.0000
0
LINE
8
PARAMETRIX
10
-208.2878
20
-11.6916
11
-208.2878
21
-11.5916
0
ARC
8
PARAMETRIX
10
-208.7378
20
-11.5916
40
0.4500
50
0.0000
51
90.0000
0
LINE
8
PARAMETRIX
10
-219.0116
20
-11.1416
11
-227.3855
21
-11.1416
0
ARC
8
PARAMETRIX
10
-227.3855
20
-11.5916
40
0.4500
50
90.0000
51
180.0000
0
LINE
8
PARAMETRIX
10
-227.8355
20
-11.5916
11
-227.8355
21
-11.6916
0
ARC
8
PARAMETRIX
10
-227.3855
20
-11.6916
40
0.4500
50
180.0000
51
270.0000
0
LINE
8
PARAMETRIX
10
-227.3855
20
-12.1416
11
-219.0116
21
-12.1416
0
ARC
8
PARAMETRIX
10
-219.0116
20
-11.6916
40
0.4500
50
270.0000
51
0.0000
0
LINE
8
PARAMETRIX
10
-218.5616
20
-11.6916
11
-218.5616
21
-11.5916
0
ARC
8
PARAMETRIX
10
-219.0116
20
-11.5916
40
0.4500
50
0.0000
51
90.0000
0
CIRCLE
8
PARAMETRIX
10
-224.2077
20
4.2500
40
2.1250
0
CIRCLE
8
PARAMETRIX
10
-201.6417
20
4.2500
40
2.1250
0
CIRCLE
8
PARAMETRIX
10
15.5330
20
40.1416
40
8.0000
0
LINE
8
PARAMETRIX
10
-7.7485
20
22.1416
11
-1.5713
21
22.1416
0
ARC
8
PARAMETRIX
10
-1.5713
20
22.5916
40
0.4500
50
270.0000
51
0.0000
0
LINE
8
PARAMETRIX
10
-1.1213
20
22.5916
11
-1.1213
21
22.6916
0
ARC
8
PARAMETRIX
10
-1.5713
20
22.6916
40
0.4500
50
0.0000
51
90.0000
0
LINE
8
PARAMETRIX
10
-1.5713
20
23.1416
11
-7.7485
21
23.1416
0
ARC
8
PARAMETRIX
10
-7.7485
20
22.6916
40
0.4500
50
90.0000
51
180.0000
0
LINE
8
PARAMETRIX
10
-8.1985
20
22.6916
11
-8.1985
21
22.5916
0
ARC
8
PARAMETRIX
10
-7.7485
20
22.5916
40
0.4500
50
180.0000
51
270.0000
0
LINE
8
PARAMETRIX
10
0.3287
20
22.1416
11
14.5830
21
22.1416
0
ARC
8
PARAMETRIX
10
14.5830
20
22.5916
40
0.4500
50
270.0000
51
0.0000
0
LINE
8
PARAMETRIX
10
15.0330
20
22.5916
11
15.0330
21
22.6916
0
ARC
8
PARAMETRIX
10
14.5830
20
22.6916
40
0.4500
50
0.0000
51
90.0000
0
LINE
8
PARAMETRIX
10
14.5830
20
23.1416
11
0.3287
21
23.1416
0
ARC
8
PARAMETRIX
10
0.3287
20
22.6916
40
0.4500
50
90.0000
51
180.0000
0
LINE
8
PARAMETRIX
10
-0.1213
20
22.6916
11
-0.1213
21
22.5916
0
ARC
8
PARAMETRIX
10
0.3287
20
22.5916
40
0.4500
50
180.0000
51
270.0000
0
LINE
8
PARAMETRIX
10
16.4830
20
22.1416
11
30.7373
21
22.1416
0
ARC
8
PARAMETRIX
10
30.7373
20
22.5916
40
0.4500
50
270.0000
51
360.0000
0
LINE
8
PARAMETRIX
10
31.1873
20
22.5916
11
31.1873
21
22.6916
0
ARC
8
PARAMETRIX
10
30.7373
20
22.6916
40
0.4500
50
360.0000
51
90.0000
0
LINE
8
PARAMETRIX
10
30.7373
20
23.1416
11
16.4830
21
23.1416
0
ARC
8
PARAMETRIX
10
16.4830
20
22.6916
40
0.4500
50
90.0000
51
180.0000
0
LINE
8
PARAMETRIX
10
16.0330
20
22.6916
11
16.0330
21
22.5916
0
ARC
8
PARAMETRIX
10
16.4830
20
22.5916
40
0.4500
50
180.0000
51
270.0000
0
LINE
8
PARAMETRIX
10
32.6373
20
22.1416
11
38.8145
21
22.1416
0
ARC
8
PARAMETRIX
10
38.8145
20
22.5916
40
0.4500
50
270.0000
51
0.0000
0
LINE
8
PARAMETRIX
10
39.2645
20
22.5916
11
39.2645
21
22.6916
0
ARC
8
PARAMETRIX
10
38.8145
20
22.6916
40
0.4500
50
0.0000
51
90.0000
0
LINE
8
PARAMETRIX
10
38.8145
20
23.1416
11
32.6373
21
23.1416
0
ARC
8
PARAMETRIX
10
32.6373
20
22.6916
40
0.4500
50
90.0000
51
180.0000
0
LINE
8
PARAMETRIX
10
32.1873
20
22.6916
11
32.1873
21
22.5916
0
ARC
8
PARAMETRIX
10
32.6373
20
22.5916
40
0.4500
50
180.0000
51
270.0000
0
LINE
8
PARAMETRIX
10
-7.7485
20
24.1416
11
6.5058
21
24.1416
0
ARC
8
PARAMETRIX
10
6.5058
20
24.5916
40
0.4500
50
270.0000
51
0.0000
0
LINE
8
PARAMETRIX
10
6.9558
20
24.5916
11
6.9558
21
24.6916
0
ARC
8
PARAMETRIX
10
6.5058
20
24.6916
40
0.4500
50
0.0000
51
90.0000
0
LINE
8
PARAMETRIX
10
6.5058
20
25.1416
11
-7.7485
21
25.1416
0
ARC
8
PARAMETRIX
10
-7.7485
20
24.6916
40
0.4500
50
90.0000
51
180.0000
0
LINE
8
PARAMETRIX
10
-8.1985
20
24.6916
11
-8.1985
21
24.5916
0
ARC
8
PARAMETRIX
10
-7.7485
20
24.5916
40
0.4500
50
180.0000
51
270.0000
0
LINE
8
PARAMETRIX
10
8.4058
20
24.1416
11
22.6602
21
24.1416
0
ARC
8
PARAMETRIX
10
22.6602
20
24.5916
40
0.4500
50
270.0000
51
0.0000
0
LINE
8
PARAMETRIX
10
23.1102
20
24.5916
11
23.1102
21
24.6916
0
ARC
8
PARAMETRIX
10
22.6602
20
24.6916
40
0.4500
50
360.0000
51
90.0000
0
LINE
8
PARAMETRIX
10
22.6602
20
25.1416
11
8.4058
21
25.1416
0
ARC
8
PARAMETRIX
10
8.4058
20
24.6916
40
0.4500
50
90.0000
51
180.0000
0
LINE
8
PARAMETRIX
10
7.9558
20
24.6916
11
7.9558
21
24.5916
0
ARC
8
PARAMETRIX
10
8.4058
20
24.5916
40
0.4500
50
180.0000
51
270.0000
0
LINE
8
PARAMETRIX
10
24.5602
20
24.1416
11
38.8145
21
24.1416
0
ARC
8
PARAMETRIX
10
38.8145
20
24.5916
40
0.4500
50
270.0000
51
0.0000
0
LINE
8
PARAMETRIX
10
39.2645
20
24.5916
11
39.2645
21
24.6916
0
ARC
8
PARAMETRIX
10
38.8145
20
24.6916
40
0.4500
50
0.0000
51
90.0000
0
LINE
8
PARAMETRIX
10
38.8145
20
25.1416
11
24.5602
21
25.1416
0
ARC
8
PARAMETRIX
10
24.5602
20
24.6916
40
0.4500
50
90.0000
51
180.0000
0
LINE
8
PARAMETRIX
10
24.1102
20
24.6916
11
24.1102
21
24.5916
0
ARC
8
PARAMETRIX
10
24.5602
20
24.5916
40
0.4500
50
180.0000
51
270.0000
0
LINE
8
PARAMETRIX
10
-7.0012
20
26.1416
11
-1.0731
21
26.1416
0
ARC
8
PARAMETRIX
10
-1.0731
20
26.5916
40
0.4500
50
270.0000
51
0.0000
0
LINE
8
PARAMETRIX
10
-0.6231
20
26.5916
11
-0.6231
21
26.6916
0
ARC
8
PARAMETRIX
10
-1.0731
20
26.6916
40
0.4500
50
0.0000
51
90.0000
0
LINE
8
PARAMETRIX
10
-1.0731
20
27.1416
11
-7.0012
21
27.1416
0
ARC
8
PARAMETRIX
10
-7.0012
20
26.6916
40
0.4500
50
90.0000
51
180.0000
0
LINE
8
PARAMETRIX
10
-7.4512
20
26.6916
11
-7.4512
21
26.5916
0
ARC
8
PARAMETRIX
10
-7.0012
20
26.5916
40
0.4500
50
180.0000
51
270.0000
0
LINE
8
PARAMETRIX
10
0.8269
20
26.1416
11
14.5830
21
26.1416
0
ARC
8
PARAMETRIX
10
14.5830
20
26.5916
40
0.4500
50
270.0000
51
0.0000
0
LINE
8
PARAMETRIX
10
15.0330
20
26.5916
11
15.0330
21
26.6916
0
ARC
8
PARAMETRIX
10
14.5830
20
26.6916
40
0.4500
50
0.0000
51
90.0000
0
LINE
8
PARAMETRIX
10
14.5830
20
27.1416
11
0.8269
21
27.1416
0
ARC
8
PARAMETRIX
10
0.8269
20
26.6916
40
0.4500
50
90.0000
51
180.0000
0
LINE
8
PARAMETRIX
10
0.3769
20
26.6916
11
0.3769
21
26.5916
0
ARC
8
PARAMETRIX
10
0.8269
20
26.5916
40
0.4500
50
180.0000
51
270.0000
0
LINE
8
PARAMETRIX
10
16.4830
20
26.1416
11
30.2391
21
26.1416
0
ARC
8
PARAMETRIX
10
30.2391
20
26.5916
40
0.4500
50
270.0000
51
0.0000
0
LINE
8
PARAMETRIX
10
30.6891
20
26.5916
11
30.6891
21
26.6916
0
ARC
8
PARAMETRIX
10
30.2391
20
26.6916
40
0.4500
50
0.0000
51
90.0000
0
LINE
8
PARAMETRIX
10
30.2391
20
27.1416
11
16.4830
21
27.1416
0
ARC
8
PARAMETRIX
10
16.4830
20
26.6916
40
0.4500
50
90.0000
51
180.0000
0
LINE
8
PARAMETRIX
10
16.0330
20
26.6916
11
16.0330
21
26.5916
0
ARC
8
PARAMETRIX
10
16.4830
20
26.5916
40
0.4500
50
180.0000
51
270.0000
0
LINE
8
PARAMETRIX
10
32.1391
20
26.1416
11
38.0672
21
26.1416
0
ARC
8
PARAMETRIX
10
38.0672
20
26.5916
40
0.4500
50
270.0000
51
0.0000
0
LINE
8
PARAMETRIX
10
38.5172
20
26.5916
11
38.5172
21
26.6916
0
ARC
8
PARAMETRIX
10
38.0672
20
26.6916
40
0.4500
50
0.0000
51
90.0000
0
LINE
8
PARAMETRIX
10
38.0672
20
27.1416
11
32.1391
21
27.1416
0
ARC
8
PARAMETRIX
10
32.1391
20
26.6916
40
0.4500
50
90.0000
51
180.0000
0
LINE
8
PARAMETRIX
10
31.6891
20
26.6916
11
31.6891
21
26.5916
0
ARC
8
PARAMETRIX
10
32.1391
20
26.5916
40
0.4500
50
180.0000
51
270.0000
0
LINE
8
PARAMETRIX
10
-6.0048
20
28.1416
11
7.0871
21
28.1416
0
ARC
8
PARAMETRIX
10
7.0871
20
28.5916
40
0.4500
50
270.0000
51
360.0000
0
LINE
8
PARAMETRIX
10
7.5371
20
28.5916
11
7.5371
21
28.6916
0
ARC
8
PARAMETRIX
10
7.0871
20
28.6916
40
0.4500
50
0.0000
51
90.0000
0
LINE
8
PARAMETRIX
10
7.0871
20
29.1416
11
-6.0048
21
29.1416
0
ARC
8
PARAMETRIX
10
-6.0048
20
28.6916
40
0.4500
50
90.0000
51
180.0000
0
LINE
8
PARAMETRIX
10
-6.4548
20
28.6916
11
-6.4548
21
28.5916
0
ARC
8
PARAMETRIX
10
-6.0048
20
28.5916
40
0.4500
50
180.0000
51
270.0000
0
LINE
8
PARAMETRIX
10
8.9871
20
28.1416
11
22.0789
21
28.1416
0
ARC
8
PARAMETRIX
10
22.0789
20
28.5916
40
0.4500
50
270.0000
51
0.0000
0
LINE
8
PARAMETRIX
10
22.5289
20
28.5916
11
22.5289
21
28.6916
0
ARC
8
PARAMETRIX
10
22.0789
20
28.6916
40
0.4500
50
0.0000
51
90.0000
0
LINE
8
PARAMETRIX
10
22.0789
20
29.1416
11
8.9871
21
29.1416
0
ARC
8
PARAMETRIX
10
8.9871
20
28.6916
40
0.4500
50
90.0000
51
180.0000
0
LINE
8
PARAMETRIX
10
8.5371
20
28.6916
11
8.5371
21
28.5916
0
ARC
8
PARAMETRIX
10
8.9871
20
28.5916
40
0.4500
50
180.0000
51
270.0000
0
LINE
8
PARAMETRIX
10
23.9789
20
28.1416
11
37.0708
21
28.1416
0
ARC
8
PARAMETRIX
10
37.0708
20
28.5916
40
0.4500
50
270.0000
51
0.0000
0
LINE
8
PARAMETRIX
10
37.5208
20
28.5916
11
37.5208
21
28.6916
0
ARC
8
PARAMETRIX
10
37.0708
20
28.6916
40
0.4500
50
0.0000
51
90.0000
0
LINE
8
PARAMETRIX
10
37.0708
20
29.1416
11
23.9789
21
29.1416
0
ARC
8
PARAMETRIX
10
23.9789
20
28.6916
40
0.4500
50
90.0000
51
180.0000
0
LINE
8
PARAMETRIX
10
23.5289
20
28.6916
11
23.5289
21
28.5916
0
ARC
8
PARAMETRIX
10
23.9789
20
28.5916
40
0.4500
50
180.0000
51
270.0000
0
CIRCLE
8
PARAMETRIX
10
-34.5008
20
40.1416
40
8.0000
0
LINE
8
PARAMETRIX
10
-57.7823
20
22.1416
11
-51.6051
21
22.1416
0
ARC
8
PARAMETRIX
10
-51.6051
20
22.5916
40
0.4500
50
270.0000
51
360.0000
0
LINE
8
PARAMETRIX
10
-51.1551
20
22.5916
11
-51.1551
21
22.6916
0
ARC
8
PARAMETRIX
10
-51.6051
20
22.6916
40
0.4500
50
360.0000
51
90.0000
0
LINE
8
PARAMETRIX
10
-51.6051
20
23.1416
11
-57.7823
21
23.1416
0
ARC
8
PARAMETRIX
10
-57.7823
20
22.6916
40
0.4500
50
90.0000
51
180.0000
0
LINE
8
PARAMETRIX
10
-58.2323
20
22.6916
11
-58.2323
21
22.5916
0
ARC
8
PARAMETRIX
10
-57.7823
20
22.5916
40
0.4500
50
180.0000
51
270.0000
0
LINE
8
PARAMETRIX
10
-49.7051
20
22.1416
11
-35.4508
21
22.1416
0
ARC
8
PARAMETRIX
10
-35.4508
20
22.5916
40
0.4500
50
270.0000
51
360.0000
0
LINE
8
PARAMETRIX
10
-35.0008
20
22.5916
11
-35.0008
21
22.6916
0
ARC
8
PARAMETRIX
10
-35.4508
20
22.6916
40
0.4500
50
0.0000
51
90.0000
0
LINE
8
PARAMETRIX
10
-35.4508
20
23.1416
11
-49.7051
21
23.1416
0
ARC
8
PARAMETRIX
10
-49.7051
20
22.6916
40
0.4500
50
90.0000
51
180.0000
0
LINE
8
PARAMETRIX
10
-50.1551
20
22.6916
11
-50.1551
21
22.5916
0
ARC
8
PARAMETRIX
10
-49.7051
20
22.5916
40
0.4500
50
180.0000
51
270.0000
0
LINE
8
PARAMETRIX
10
-33.5508
20
22.1416
11
-19.2964
21
22.1416
0
ARC
8
PARAMETRIX
10
-19.2964
20
22.5916
40
0.4500
50
270.0000
51
360.0000
0
LINE
8
PARAMETRIX
10
-18.8464
20
22.5916
11
-18.8464
21
22.6916
0
ARC
8
PARAMETRIX
10
-19.2964
20
22.6916
40
0.4500
50
360.0000
51
90.0000
0
LINE
8
PARAMETRIX
10
-19.2964
20
23.1416
11
-33.5508
21
23.1416
0
ARC
8
PARAMETRIX
10
-33.5508
20
22.6916
40
0.4500
50
90.0000
51
180.0000
0
LINE
8
PARAMETRIX
10
-34.0008
20
22.6916
11
-34.0008
21
22.5916
0
ARC
8
PARAMETRIX
10
-33.5508
20
22.5916
40
0.4500
50
180.0000
51
270.0000
0
LINE
8
PARAMETRIX
10
-17.3964
20
22.1416
11
-11.2193
21
22.1416
0
ARC
8
PARAMETRIX
10
-11.2193
20
22.5916
40
0.4500
50
270.0000
51
360.0000
0
LINE
8
PARAMETRIX
10
-10.7693
20
22.5916
11
-10.7693
21
22.6916
0
ARC
8
PARAMETRIX
10
-11.2193
20
22.6916
40
0.4500
50
0.0000
51
90.0000
0
LINE
8
PARAMETRIX
10
-11.2193
20
23.1416
11
-17.3964
21
23.1416
0
ARC
8
PARAMETRIX
10
-17.3964
20
22.6916
40
0.4500
50
90.0000
51
180.0000
0
LINE
8
PARAMETRIX
10
-17.8464
20
22.6916
11
-17.8464
21
22.5916
0
ARC
8
PARAMETRIX
10
-17.3964
20
22.5916
40
0.4500
50
180.0000
51
270.0000
0
LINE
8
PARAMETRIX
10
-57.7823
20
24.1416
11
-43.5279
21
24.1416
0
ARC
8
PARAMETRIX
10
-43.5279
20
24.5916
40
0.4500
50
270.0000
51
360.0000
0
LINE
8
PARAMETRIX
10
-43.0779
20
24.5916
11
-43.0779
21
24.6916
0
ARC
8
PARAMETRIX
10
-43.5279
20
24.6916
40
0.4500
50
0.0000
51
90.0000
0
LINE
8
PARAMETRIX
10
-43.5279
20
25.1416
11
-57.7823
21
25.1416
0
ARC
8
PARAMETRIX
10
-57.7823
20
24.6916
40
0.4500
50
90.0000
51
180.0000
0
LINE
8
PARAMETRIX
10
-58.2323
20
24.6916
11
-58.2323
21
24.5916
0
ARC
8
PARAMETRIX
10
-57.7823
20
24.5916
40
0.4500
50
180.0000
51
270.0000
0
LINE
8
PARAMETRIX
10
-41.6279
20
24.1416
11
-27.3736
21
24.1416
0
ARC
8
PARAMETRIX
10
-27.3736
20
24.5916
40
0.4500
50
270.0000
51
360.0000
0
LINE
8
PARAMETRIX
10
-26.9236
20
24.5916
11
-26.9236
21
24.6916
0
ARC
8
PARAMETRIX
10
-27.3736
20
24.6916
40
0.4500
50
360.0000
51
90.0000
0
LINE
8
PARAMETRIX
10
-27.3736
20
25.1416
11
-41.6279
21
25.1416
0
ARC
8
PARAMETRIX
10
-41.6279
20
24.6916
40
0.4500
50
90.0000
51
180.0000
0
LINE
8
PARAMETRIX
10
-42.0779
20
24.6916
11
-42.0779
21
24.5916
0
ARC
8
PARAMETRIX
10
-41.6279
20
24.5916
40
0.4500
50
180.0000
51
270.0000
0
LINE
8
PARAMETRIX
10
-25.4736
20
24.1416
11
-11.2193
21
24.1416
0
ARC
8
PARAMETRIX
10
-11.2193
20
24.5916
40
0.4500
50
270.0000
51
360.0000
0
LINE
8
PARAMETRIX
10
-10.7693
20
24.5916
11
-10.7693
21
24.6916
0
ARC
8
PARAMETRIX
10
-11.2193
20
24.6916
40
0.4500
50
0.0000
51
90.0000
0
LINE
8
PARAMETRIX
10
-11.2193
20
25.1416
11
-25.4736
21
25.1416
0
ARC
8
PARAMETRIX
10
-25.4736
20
24.6916
40
0.4500
50
90.0000
51
180.0000
0
LINE
8
PARAMETRIX
10
-25.9236
20
24.6916
11
-25.9236
21
24.5916
0
ARC
8
PARAMETRIX
10
-25.4736
20
24.5916
40
0.4500
50
180.0000
51
270.0000
0
LINE
8
PARAMETRIX
10
-57.0350
20
26.1416
11
-51.1069
21
26.1416
0
ARC
8
PARAMETRIX
10
-51.1069
20
26.5916
40
0.4500
50
270.0000
51
360.0000
0
LINE
8
PARAMETRIX
10
-50.6569
20
26.5916
11
-50.6569
21
26.6916
0
ARC
8
PARAMETRIX
10
-51.1069
20
26.6916
40
0.4500
50
0.0000
51
90.0000
0
LINE
8
PARAMETRIX
10
-51.1069
20
27.1416
11
-57.0350
21
27.1416
0
ARC
8
PARAMETRIX
10
-57.0350
20
26.6916
40
0.4500
50
90.0000
51
180.0000
0
LINE
8
PARAMETRIX
10
-57.4850
20
26.6916
11
-57.4850
21
26.5916
0
ARC
8
PARAMETRIX
10
-57.0350
20
26.5916
40
0.4500
50
180.0000
51
270.0000
0
LINE
8
PARAMETRIX
10
-49.2069
20
26.1416
11
-35.4508
21
26.1416
0
ARC
8
PARAMETRIX
10
-35.4508
20
26.5916
40
0.4500
50
270.0000
51
360.0000
0
LINE
8
PARAMETRIX
10
-35.0008
20
26.5916
11
-35.0008
21
26.6916
0
ARC
8
PARAMETRIX
10
-35.4508
20
26.6916
40
0.4500
50
0.0000
51
90.0000
0
LINE
8
PARAMETRIX
10
-35.4508
20
27.1416
11
-49.2069
21
27.1416
0
ARC
8
PARAMETRIX
10
-49.2069
20
26.6916
40
0.4500
50
90.0000
51
180.0000
0
LINE
8
PARAMETRIX
10
-49.6569
20
26.6916
11
-49.6569
21
26.5916
0
ARC
8
PARAMETRIX
10
-49.2069
20
26.5916
40
0.4500
50
180.0000
51
270.0000
0
LINE
8
PARAMETRIX
10
-33.5508
20
26.1416
11
-19.7946
21
26.1416
0
ARC
8
PARAMETRIX
10
-19.7946
20
26.5916
40
0.4500
50
270.0000
51
0.0000
0
LINE
8
PARAMETRIX
10
-19.3446
20
26.5916
11
-19.3446
21
26.6916
0
ARC
8
PARAMETRIX
10
-19.7946
20
26.6916
40
0.4500
50
0.0000
51
90.0000
0
LINE
8
PARAMETRIX
10
-19.7946
20
27.1416
11
-33.5508
21
27.1416
0
ARC
8
PARAMETRIX
10
-33.5508
20
26.6916
40
0.4500
50
90.0000
51
180.0000
0
LINE
8
PARAMETRIX
10
-34.0008
20
26.6916
11
-34.0008
21
26.5916
0
ARC
8
PARAMETRIX
10
-33.5508
20
26.5916
40
0.4500
50
180.0000
51
270.0000
0
LINE
8
PARAMETRIX
10
-17.8946
20
26.1416
11
-11.9666
21
26.1416
0
ARC
8
PARAMETRIX
10
-11.9666
20
26.5916
40
0.4500
50
270.0000
51
360.0000
0
LINE
8
PARAMETRIX
10
-11.5166
20
26.5916
11
-11.5166
21
26.6916
0
ARC
8
PARAMETRIX
10
-11.9666
20
26.6916
40
0.4500
50
0.0000
51
90.0000
0
LINE
8
PARAMETRIX
10
-11.9666
20
27.1416
11
-17.8946
21
27.1416
0
ARC
8
PARAMETRIX
10
-17.8946
20
26.6916
40
0.4500
50
90.0000
51
180.0000
0
LINE
8
PARAMETRIX
10
-18.3446
20
26.6916
11
-18.3446
21
26.5916
0
ARC
8
PARAMETRIX
10
-17.8946
20
26.5916
40
0.4500
50
180.0000
51
270.0000
0
LINE
8
PARAMETRIX
10
-56.0386
20
28.1416
11
-42.9467
21
28.1416
0
ARC
8
PARAMETRIX
10
-42.9467
20
28.5916
40
0.4500
50
270.0000
51
360.0000
0
LINE
8
PARAMETRIX
10
-42.4967
20
28.5916
11
-42.4967
21
28.6916
0
ARC
8
PARAMETRIX
10
-42.9467
20
28.6916
40
0.4500
50
0.0000
51
90.0000
0
LINE
8
PARAMETRIX
10
-42.9467
20
29.1416
11
-56.0386
21
29.1416
0
ARC
8
PARAMETRIX
10
-56.0386
20
28.6916
40
0.4500
50
90.0000
51
180.0000
0
LINE
8
PARAMETRIX
10
-56.4886
20
28.6916
11
-56.4886
21
28.5916
0
ARC
8
PARAMETRIX
10
-56.0386
20
28.5916
40
0.4500
50
180.0000
51
270.0000
0
LINE
8
PARAMETRIX
10
-41.0467
20
28.1416
11
-27.9548
21
28.1416
0
ARC
8
PARAMETRIX
10
-27.9548
20
28.5916
40
0.4500
50
270.0000
51
0.0000
0
LINE
8
PARAMETRIX
10
-27.5048
20
28.5916
11
-27.5048
21
28.6916
0
ARC
8
PARAMETRIX
10
-27.9548
20
28.6916
40
0.4500
50
0.0000
51
90.0000
0
LINE
8
PARAMETRIX
10
-27.9548
20
29.1416
11
-41.0467
21
29.1416
0
ARC
8
PARAMETRIX
10
-41.0467
20
28.6916
40
0.4500
50
90.0000
51
180.0000
0
LINE
8
PARAMETRIX
10
-41.4967
20
28.6916
11
-41.4967
21
28.5916
0
ARC
8
PARAMETRIX
10
-41.0467
20
28.5916
40
0.4500
50
180.0000
51
270.0000
0
LINE
8
PARAMETRIX
10
-26.0548
20
28.1416
11
-12.9630
21
28.1416
0
ARC
8
PARAMETRIX
10
-12.9630
20
28.5916
40
0.4500
50
270.0000
51
360.0000
0
LINE
8
PARAMETRIX
10
-12.5130
20
28.5916
11
-12.5130
21
28.6916
0
ARC
8
PARAMETRIX
10
-12.9630
20
28.6916
40
0.4500
50
0.0000
51
90.0000
0
LINE
8
PARAMETRIX
10
-12.9630
20
29.1416
11
-26.0548
21
29.1416
0
ARC
8
PARAMETRIX
10
-26.0548
20
28.6916
40
0.4500
50
90.0000
51
180.0000
0
LINE
8
PARAMETRIX
10
-26.5048
20
28.6916
11
-26.5048
21
28.5916
0
ARC
8
PARAMETRIX
10
-26.0548
20
28.5916
40
0.4500
50
180.0000
51
270.0000
0
CIRCLE
8
PARAMETRIX
10
-45.7838
20
12.7500
40
2.1250
0
CIRCLE
8
PARAMETRIX
10
-23.2178
20
12.7500
40
2.1250
0
CIRCLE
8
PARAMETRIX
10
-84.5346
20
40.1416
40
8.0000
0
LINE
8
PARAMETRIX
10
-107.8161
20
22.1416
11
-101.6389
21
22.1416
0
ARC
8
PARAMETRIX
10
-101.6389
20
22.5916
40
0.4500
50
270.0000
51
360.0000
0
LINE
8
PARAMETRIX
10
-101.1889
20
22.5916
11
-101.1889
21
22.6916
0
ARC
8
PARAMETRIX
10
-101.6389
20
22.6916
40
0.4500
50
0.0000
51
90.0000
0
LINE
8
PARAMETRIX
10
-101.6389
20
23.1416
11
-107.8161
21
23.1416
0
ARC
8
PARAMETRIX
10
-107.8161
20
22.6916
40
0.4500
50
90.0000
51
180.0000
0
LINE
8
PARAMETRIX
10
-108.2661
20
22.6916
11
-108.2661
21
22.5916
0
ARC
8
PARAMETRIX
10
-107.8161
20
22.5916
40
0.4500
50
180.0000
51
270.0000
0
LINE
8
PARAMETRIX
10
-99.7389
20
22.1416
11
-85.4846
21
22.1416
0
ARC
8
PARAMETRIX
10
-85.4846
20
22.5916
40
0.4500
50
270.0000
51
360.0000
0
LINE
8
PARAMETRIX
10
-85.0346
20
22.5916
11
-85.0346
21
22.6916
0
ARC
8
PARAMETRIX
10
-85.4846
20
22.6916
40
0.4500
50
0.0000
51
90.0000
0
LINE
8
PARAMETRIX
10
-85.4846
20
23.1416
11
-99.7389
21
23.1416
0
ARC
8
PARAMETRIX
10
-99.7389
20
22.6916
40
0.4500
50
90.0000
51
180.0000
0
LINE
8
PARAMETRIX
10
-100.1889
20
22.6916
11
-100.1889
21
22.5916
0
ARC
8
PARAMETRIX
10
-99.7389
20
22.5916
40
0.4500
50
180.0000
51
270.0000
0
LINE
8
PARAMETRIX
10
-83.5846
20
22.1416
11
-69.3302
21
22.1416
0
ARC
8
PARAMETRIX
10
-69.3302
20
22.5916
40
0.4500
50
270.0000
51
360.0000
0
LINE
8
PARAMETRIX
10
-68.8802
20
22.5916
11
-68.8802
21
22.6916
0
ARC
8
PARAMETRIX
10
-69.3302
20
22.6916
40
0.4500
50
360.0000
51
90.0000
0
LINE
8
PARAMETRIX
10
-69.3302
20
23.1416
11
-83.5846
21
23.1416
0
ARC
8
PARAMETRIX
10
-83.5846
20
22.6916
40
0.4500
50
90.0000
51
180.0000
0
LINE
8
PARAMETRIX
10
-84.0346
20
22.6916
11
-84.0346
21
22.5916
0
ARC
8
PARAMETRIX
10
-83.5846
20
22.5916
40
0.4500
50
180.0000
51
270.0000
0
LINE
8
PARAMETRIX
10
-67.4302
20
22.1416
11
-61.2531
21
22.1416
0
ARC
8
PARAMETRIX
10
-61.2531
20
22.5916
40
0.4500
50
270.0000
51
360.0000
0
LINE
8
PARAMETRIX
10
-60.8031
20
22.5916
11
-60.8031
21
22.6916
0
ARC
8
PARAMETRIX
10
-61.2531
20
22.6916
40
0.4500
50
0.0000
51
90.0000
0
LINE
8
PARAMETRIX
10
-61.2531
20
23.1416
11
-67.4302
21
23.1416
0
ARC
8
PARAMETRIX
10
-67.4302
20
22.6916
40
0.4500
50
90.0000
51
180.0000
0
LINE
8
PARAMETRIX
10
-67.8802
20
22.6916
11
-67.8802
21
22.5916
0
ARC
8
PARAMETRIX
10
-67.4302
20
22.5916
40
0.4500
50
180.0000
51
270.0000
0
LINE
8
PARAMETRIX
10
-107.8161
20
24.1416
11
-93.5617
21
24.1416
0
ARC
8
PARAMETRIX
10
-93.5617
20
24.5916
40
0.4500
50
270.0000
51
0.0000
0
LINE
8
PARAMETRIX
10
-93.1117
20
24.5916
11
-93.1117
21
24.6916
0
ARC
8
PARAMETRIX
10
-93.5617
20
24.6916
40
0.4500
50
0.0000
51
90.0000
0
LINE
8
PARAMETRIX
10
-93.5617
20
25.1416
11
-107.8161
21
25.1416
0
ARC
8
PARAMETRIX
10
-107.8161
20
24.6916
40
0.4500
50
90.0000
51
180.0000
0
LINE
8
PARAMETRIX
10
-108.2661
20
24.6916
11
-108.2661
21
24.5916
0
ARC
8
PARAMETRIX
10
-107.8161
20
24.5916
40
0.4500
50
180.0000
51
270.0000
0
LINE
8
PARAMETRIX
10
-91.6617
20
24.1416
11
-77.4074
21
24.1416
0
ARC
8
PARAMETRIX
10
-77.4074
20
24.5916
40
0.4500
50
270.0000
51
360.0000
0
LINE
8
PARAMETRIX
10
-76.9574
20
24.5916
11
-76.9574
21
24.6916
0
ARC
8
PARAMETRIX
10
-77.4074
20
24.6916
40
0.4500
50
0.0000
51
90.0000
0
LINE
8
PARAMETRIX
10
-77.4074
20
25.1416
11
-91.6617
21
25.1416
0
ARC
8
PARAMETRIX
10
-91.6617
20
24.6916
40
0.4500
50
90.0000
51
180.0000
0
LINE
8
PARAMETRIX
10
-92.1117
20
24.6916
11
-92.1117
21
24.5916
0
ARC
8
PARAMETRIX
10
-91.6617
20
24.5916
40
0.4500
50
180.0000
51
270.0000
0
LINE
8
PARAMETRIX
10
-75.5074
20
24.1416
11
-61.2531
21
24.1416
0
ARC
8
PARAMETRIX
10
-61.2531
20
24.5916
40
0.4500
50
270.0000
51
360.0000
0
LINE
8
PARAMETRIX
10
-60.8031
20
24.5916
11
-60.8031
21
24.6916
0
ARC
8
PARAMETRIX
10
-61.2531
20
24.6916
40
0.4500
50
0.0000
51
90.0000
0
LINE
8
PARAMETRIX
10
-61.2531
20
25.1416
11
-75.5074
21
25.1416
0
ARC
8
PARAMETRIX
10
-75.5074
20
24.6916
40
0.4500
50
90.0000
51
180.0000
0
LINE
8
PARAMETRIX
10
-75.9574
20
24.6916
11
-75.9574
21
24.5916
0
ARC
8
PARAMETRIX
10
-75.5074
20
24.5916
40
0.4500
50
180.0000
51
270.0000
0
LINE
8
PARAMETRIX
10
-107.0687
20
26.1416
11
-101.1407
21
26.1416
0
ARC
8
PARAMETRIX
10
-101.1407
20
26.5916
40
0.4500
50
270.0000
51
360.0000
0
LINE
8
PARAMETRIX
10
-100.6907
20
26.5916
11
-100.6907
21
26.6916
0
ARC
8
PARAMETRIX
10
-101.1407
20
26.6916
40
0.4500
50
0.0000
51
90.0000
0
LINE
8
PARAMETRIX
10
-101.1407
20
27.1416
11
-107.0687
21
27.1416
0
ARC
8
PARAMETRIX
10
-107.0687
20
26.6916
40
0.4500
50
90.0000
51
180.0000
0
LINE
8
PARAMETRIX
10
-107.5187
20
26.6916
11
-107.5187
21
26.5916
0
ARC
8
PARAMETRIX
10
-107.0687
20
26.5916
40
0.4500
50
180.0000
51
270.0000
0
LINE
8
PARAMETRIX
10
-99.2407
20
26.1416
11
-85.4846
21
26.1416
0
ARC
8
PARAMETRIX
10
-85.4846
20
26.5916
40
0.4500
50
270.0000
51
360.0000
0
LINE
8
PARAMETRIX
10
-85.0346
20
26.5916
11
-85.0346
21
26.6916
0
ARC
8
PARAMETRIX
10
-85.4846
20
26.6916
40
0.4500
50
0.0000
51
90.0000
0
LINE
8
PARAMETRIX
10
-85.4846
20
27.1416
11
-99.2407
21
27.1416
0
ARC
8
PARAMETRIX
10
-99.2407
20
26.6916
40
0.4500
50
90.0000
51
180.0000
0
LINE
8
PARAMETRIX
10
-99.6907
20
26.6916
11
-99.6907
21
26.5916
0
ARC
8
PARAMETRIX
10
-99.2407
20
26.5916
40
0.4500
50
180.0000
51
270.0000
0
LINE
8
PARAMETRIX
10
-83.5846
20
26.1416
11
-69.8284
21
26.1416
0
ARC
8
PARAMETRIX
10
-69.8284
20
26.5916
40
0.4500
50
270.0000
51
0.0000
0
LINE
8
PARAMETRIX
10
-69.3784
20
26.5916
11
-69.3784
21
26.6916
0
ARC
8
PARAMETRIX
10
-69.8284
20
26.6916
40
0.4500
50
0.0000
51
90.0000
0
LINE
8
PARAMETRIX
10
-69.8284
20
27.1416
11
-83.5846
21
27.1416
0
ARC
8
PARAMETRIX
10
-83.5846
20
26.6916
40
0.4500
50
90.0000
51
180.0000
0
LINE
8
PARAMETRIX
10
-84.0346
20
26.6916
11
-84.0346
21
26.5916
0
ARC
8
PARAMETRIX
10
-83.5846
20
26.5916
40
0.4500
50
180.0000
51
270.0000
0
LINE
8
PARAMETRIX
10
-67.9284
20
26.1416
11
-62.0004
21
26.1416
0
ARC
8
PARAMETRIX
10
-62.0004
20
26.5916
40
0.4500
50
270.0000
51
360.0000
0
LINE
8
PARAMETRIX
10
-61.5504
20
26.5916
11
-61.5504
21
26.6916
0
ARC
8
PARAMETRIX
10
-62.0004
20
26.6916
40
0.4500
50
0.0000
51
90.0000
0
LINE
8
PARAMETRIX
10
-62.0004
20
27.1416
11
-67.9284
21
27.1416
0
ARC
8
PARAMETRIX
10
-67.9284
20
26.6916
40
0.4500
50
90.0000
51
180.0000
0
LINE
8
PARAMETRIX
10
-68.3784
20
26.6916
11
-68.3784
21
26.5916
0
ARC
8
PARAMETRIX
10
-67.9284
20
26.5916
40
0.4500
50
180.0000
51
270.0000
0
LINE
8
PARAMETRIX
10
-106.0723
20
28.1416
11
-92.9805
21
28.1416
0
ARC
8
PARAMETRIX
10
-92.9805
20
28.5916
40
0.4500
50
270.0000
51
360.0000
0
LINE
8
PARAMETRIX
10
-92.5305
20
28.5916
11
-92.5305
21
28.6916
0
ARC
8
PARAMETRIX
10
-92.9805
20
28.6916
40
0.4500
50
0.0000
51
90.0000
0
LINE
8
PARAMETRIX
10
-92.9805
20
29.1416
11
-106.0723
21
29.1416
0
ARC
8
PARAMETRIX
10
-106.0723
20
28.6916
40
0.4500
50
90.0000
51
180.0000
0
LINE
8
PARAMETRIX
10
-106.5223
20
28.6916
11
-106.5223
21
28.5916
0
ARC
8
PARAMETRIX
10
-106.0723
20
28.5916
40
0.4500
50
180.0000
51
270.0000
0
LINE
8
PARAMETRIX
10
-91.0805
20
28.1416
11
-77.9886
21
28.1416
0
ARC
8
PARAMETRIX
10
-77.9886
20
28.5916
40
0.4500
50
270.0000
51
0.0000
0
LINE
8
PARAMETRIX
10
-77.5386
20
28.5916
11
-77.5386
21
28.6916
0
ARC
8
PARAMETRIX
10
-77.9886
20
28.6916
40
0.4500
50
0.0000
51
90.0000
0
LINE
8
PARAMETRIX
10
-77.9886
20
29.1416
11
-91.0805
21
29.1416
0
ARC
8
PARAMETRIX
10
-91.0805
20
28.6916
40
0.4500
50
90.0000
51
180.0000
0
LINE
8
PARAMETRIX
10
-91.5305
20
28.6916
11
-91.5305
21
28.5916
0
ARC
8
PARAMETRIX
10
-91.0805
20
28.5916
40
0.4500
50
180.0000
51
270.0000
0
LINE
8
PARAMETRIX
10
-76.0886
20
28.1416
11
-62.9968
21
28.1416
0
ARC
8
PARAMETRIX
10
-62.9968
20
28.5916
40
0.4500
50
270.0000
51
360.0000
0
LINE
8
PARAMETRIX
10
-62.5468
20
28.5916
11
-62.5468
21
28.6916
0
ARC
8
PARAMETRIX
10
-62.9968
20
28.6916
40
0.4500
50
0.0000
51
90.0000
0
LINE
8
PARAMETRIX
10
-62.9968
20
29.1416
11
-76.0886
21
29.1416
0
ARC
8
PARAMETRIX
10
-76.0886
20
28.6916
40
0.4500
50
90.0000
51
180.0000
0
LINE
8
PARAMETRIX
10
-76.5386
20
28.6916
11
-76.5386
21
28.5916
0
ARC
8
PARAMETRIX
10
-76.0886
20
28.5916
40
0.4500
50
180.0000
51
270.0000
0
CIRCLE
8
PARAMETRIX
10
-95.8176
20
12.7500
40
2.1250
0
CIRCLE
8
PARAMETRIX
10
-73.2515
20
12.7500
40
2.1250
0
CIRCLE
8
PARAMETRIX
10
-134.5683
20
40.1416
40
8.0000
0
LINE
8
PARAMETRIX
10
-157.8498
20
22.1416
11
-151.6727
21
22.1416
0
ARC
8
PARAMETRIX
10
-151.6727
20
22.5916
40
0.4500
50
270.0000
51
360.0000
0
LINE
8
PARAMETRIX
10
-151.2227
20
22.5916
11
-151.2227
21
22.6916
0
ARC
8
PARAMETRIX
10
-151.6727
20
22.6916
40
0.4500
50
0.0000
51
90.0000
0
LINE
8
PARAMETRIX
10
-151.6727
20
23.1416
11
-157.8498
21
23.1416
0
ARC
8
PARAMETRIX
10
-157.8498
20
22.6916
40
0.4500
50
90.0000
51
180.0000
0
LINE
8
PARAMETRIX
10
-158.2998
20
22.6916
11
-158.2998
21
22.5916
0
ARC
8
PARAMETRIX
10
-157.8498
20
22.5916
40
0.4500
50
180.0000
51
270.0000
0
LINE
8
PARAMETRIX
10
-149.7727
20
22.1416
11
-135.5183
21
22.1416
0
ARC
8
PARAMETRIX
10
-135.5183
20
22.5916
40
0.4500
50
270.0000
51
360.0000
0
LINE
8
PARAMETRIX
10
-135.0683
20
22.5916
11
-135.0683
21
22.6916
0
ARC
8
PARAMETRIX
10
-135.5183
20
22.6916
40
0.4500
50
0.0000
51
90.0000
0
LINE
8
PARAMETRIX
10
-135.5183
20
23.1416
11
-149.7727
21
23.1416
0
ARC
8
PARAMETRIX
10
-149.7727
20
22.6916
40
0.4500
50
90.0000
51
180.0000
0
LINE
8
PARAMETRIX
10
-150.2227
20
22.6916
11
-150.2227
21
22.5916
0
ARC
8
PARAMETRIX
10
-149.7727
20
22.5916
40
0.4500
50
180.0000
51
270.0000
0
LINE
8
PARAMETRIX
10
-133.6183
20
22.1416
11
-119.3640
21
22.1416
0
ARC
8
PARAMETRIX
10
-119.3640
20
22.5916
40
0.4500
50
270.0000
51
360.0000
0
LINE
8
PARAMETRIX
10
-118.9140
20
22.5916
11
-118.9140
21
22.6916
0
ARC
8
PARAMETRIX
10
-119.3640
20
22.6916
40
0.4500
50
360.0000
51
90.0000
0
LINE
8
PARAMETRIX
10
-119.3640
20
23.1416
11
-133.6183
21
23.1416
0
ARC
8
PARAMETRIX
10
-133.6183
20
22.6916
40
0.4500
50
90.0000
51
180.0000
0
LINE
8
PARAMETRIX
10
-134.0683
20
22.6916
11
-134.0683
21
22.5916
0
ARC
8
PARAMETRIX
10
-133.6183
20
22.5916
40
0.4500
50
180.0000
51
270.0000
0
LINE
8
PARAMETRIX
10
-117.4640
20
22.1416
11
-111.2868
21
22.1416
0
ARC
8
PARAMETRIX
10
-111.2868
20
22.5916
40
0.4500
50
270.0000
51
360.0000
0
LINE
8
PARAMETRIX
10
-110.8368
20
22.5916
11
-110.8368
21
22.6916
0
ARC
8
PARAMETRIX
10
-111.2868
20
22.6916
40
0.4500
50
0.0000
51
90.0000
0
LINE
8
PARAMETRIX
10
-111.2868
20
23.1416
11
-117.4640
21
23.1416
0
ARC
8
PARAMETRIX
10
-117.4640
20
22.6916
40
0.4500
50
90.0000
51
180.0000
0
LINE
8
PARAMETRIX
10
-117.9140
20
22.6916
11
-117.9140
21
22.5916
0
ARC
8
PARAMETRIX
10
-117.4640
20
22.5916
40
0.4500
50
180.0000
51
270.0000
0
LINE
8
PARAMETRIX
10
-157.8498
20
24.1416
11
-143.5955
21
24.1416
0
ARC
8
PARAMETRIX
10
-143.5955
20
24.5916
40
0.4500
50
270.0000
51
360.0000
0
LINE
8
PARAMETRIX
10
-143.1455
20
24.5916
11
-143.1455
21
24.6916
0
ARC
8
PARAMETRIX
10
-143.5955
20
24.6916
40
0.4500
50
0.0000
51
90.0000
0
LINE
8
PARAMETRIX
10
-143.5955
20
25.1416
11
-157.8498
21
25.1416
0
ARC
8
PARAMETRIX
10
-157.8498
20
24.6916
40
0.4500
50
90.0000
51
180.0000
0
LINE
8
PARAMETRIX
10
-158.2998
20
24.6916
11
-158.2998
21
24.5916
0
ARC
8
PARAMETRIX
10
-157.8498
20
24.5916
40
0.4500
50
180.0000
51
270.0000
0
LINE
8
PARAMETRIX
10
-141.6955
20
24.1416
11
-127.4412
21
24.1416
0
ARC
8
PARAMETRIX
10
-127.4412
20
24.5916
40
0.4500
50
270.0000
51
360.0000
0
LINE
8
PARAMETRIX
10
-126.9912
20
24.5916
11
-126.9912
21
24.6916
0
ARC
8
PARAMETRIX
10
-127.4412
20
24.6916
40
0.4500
50
0.0000
51
90.0000
0
LINE
8
PARAMETRIX
10
-127.4412
20
25.1416
11
-141.6955
21
25.1416
0
ARC
8
PARAMETRIX
10
-141.6955
20
24.6916
40
0.4500
50
90.0000
51
180.0000
0
LINE
8
PARAMETRIX
10
-142.1455
20
24.6916
11
-142.1455
21
24.5916
0
ARC
8
PARAMETRIX
10
-141.6955
20
24.5916
40
0.4500
50
180.0000
51
270.0000
0
LINE
8
PARAMETRIX
10
-125.5412
20
24.1416
11
-111.2868
21
24.1416
0
ARC
8
PARAMETRIX
10
-111.2868
20
24.5916
40
0.4500
50
270.0000
51
360.0000
0
LINE
8
PARAMETRIX
10
-110.8368
20
24.5916
11
-110.8368
21
24.6916
0
ARC
8
PARAMETRIX
10
-111.2868
20
24.6916
40
0.4500
50
0.0000
51
90.0000
0
LINE
8
PARAMETRIX
10
-111.2868
20
25.1416
11
-125.5412
21
25.1416
0
ARC
8
PARAMETRIX
10
-125.5412
20
24.6916
40
0.4500
50
90.0000
51
180.0000
0
LINE
8
PARAMETRIX
10
-125.9912
20
24.6916
11
-125.9912
21
24.5916
0
ARC
8
PARAMETRIX
10
-125.5412
20
24.5916
40
0.4500
50
180.0000
51
270.0000
0
LINE
8
PARAMETRIX
10
-157.1025
20
26.1416
11
-151.1745
21
26.1416
0
ARC
8
PARAMETRIX
10
-151.1745
20
26.5916
40
0.4500
50
270.0000
51
360.0000
0
LINE
8
PARAMETRIX
10
-150.7245
20
26.5916
11
-150.7245
21
26.6916
0
ARC
8
PARAMETRIX
10
-151.1745
20
26.6916
40
0.4500
50
0.0000
51
90.0000
0
LINE
8
PARAMETRIX
10
-151.1745
20
27.1416
11
-157.1025
21
27.1416
0
ARC
8
PARAMETRIX
10
-157.1025
20
26.6916
40
0.4500
50
90.0000
51
180.0000
0
LINE
8
PARAMETRIX
10
-157.5525
20
26.6916
11
-157.5525
21
26.5916
0
ARC
8
PARAMETRIX
10
-157.1025
20
26.5916
40
0.4500
50
180.0000
51
270.0000
0
LINE
8
PARAMETRIX
10
-149.2745
20
26.1416
11
-135.5183
21
26.1416
0
ARC
8
PARAMETRIX
10
-135.5183
20
26.5916
40
0.4500
50
270.0000
51
360.0000
0
LINE
8
PARAMETRIX
10
-135.0683
20
26.5916
11
-135.0683
21
26.6916
0
ARC
8
PARAMETRIX
10
-135.5183
20
26.6916
40
0.4500
50
0.0000
51
90.0000
0
LINE
8
PARAMETRIX
10
-135.5183
20
27.1416
11
-149.2745
21
27.1416
0
ARC
8
PARAMETRIX
10
-149.2745
20
26.6916
40
0.4500
50
90.0000
51
180.0000
0
LINE
8
PARAMETRIX
10
-149.7245
20
26.6916
11
-149.7245
21
26.5916
0
ARC
8
PARAMETRIX
10
-149.2745
20
26.5916
40
0.4500
50
180.0000
51
270.0000
0
LINE
8
PARAMETRIX
10
-133.6183
20
26.1416
11
-119.8622
21
26.1416
0
ARC
8
PARAMETRIX
10
-119.8622
20
26.5916
40
0.4500
50
270.0000
51
0.0000
0
LINE
8
PARAMETRIX
10
-119.4122
20
26.5916
11
-119.4122
21
26.6916
0
ARC
8
PARAMETRIX
10
-119.8622
20
26.6916
40
0.4500
50
0.0000
51
90.0000
0
LINE
8
PARAMETRIX
10
-119.8622
20
27.1416
11
-133.6183
21
27.1416
0
ARC
8
PARAMETRIX
10
-133.6183
20
26.6916
40
0.4500
50
90.0000
51
180.0000
0
LINE
8
PARAMETRIX
10
-134.0683
20
26.6916
11
-134.0683
21
26.5916
0
ARC
8
PARAMETRIX
10
-133.6183
20
26.5916
40
0.4500
50
180.0000
51
270.0000
0
LINE
8
PARAMETRIX
10
-117.9622
20
26.1416
11
-112.0342
21
26.1416
0
ARC
8
PARAMETRIX
10
-112.0342
20
26.5916
40
0.4500
50
270.0000
51
360.0000
0
LINE
8
PARAMETRIX
10
-111.5842
20
26.5916
11
-111.5842
21
26.6916
0
ARC
8
PARAMETRIX
10
-112.0342
20
26.6916
40
0.4500
50
0.0000
51
90.0000
0
LINE
8
PARAMETRIX
10
-112.0342
20
27.1416
11
-117.9622
21
27.1416
0
ARC
8
PARAMETRIX
10
-117.9622
20
26.6916
40
0.4500
50
90.0000
51
180.0000
0
LINE
8
PARAMETRIX
10
-118.4122
20
26.6916
11
-118.4122
21
26.5916
0
ARC
8
PARAMETRIX
10
-117.9622
20
26.5916
40
0.4500
50
180.0000
51
270.0000
0
LINE
8
PARAMETRIX
10
-156.1061
20
28.1416
11
-143.0143
21
28.1416
0
ARC
8
PARAMETRIX
10
-143.0143
20
28.5916
40
0.4500
50
270.0000
51
360.0000
0
LINE
8
PARAMETRIX
10
-142.5643
20
28.5916
11
-142.5643
21
28.6916
0
ARC
8
PARAMETRIX
10
-143.0143
20
28.6916
40
0.4500
50
0.0000
51
90.0000
0
LINE
8
PARAMETRIX
10
-143.0143
20
29.1416
11
-156.1061
21
29.1416
0
ARC
8
PARAMETRIX
10
-156.1061
20
28.6916
40
0.4500
50
90.0000
51
180.0000
0
LINE
8
PARAMETRIX
10
-156.5561
20
28.6916
11
-156.5561
21
28.5916
0
ARC
8
PARAMETRIX
10
-156.1061
20
28.5916
40
0.4500
50
180.0000
51
270.0000
0
LINE
8
PARAMETRIX
10
-141.1143
20
28.1416
11
-128.0224
21
28.1416
0
ARC
8
PARAMETRIX
10
-128.0224
20
28.5916
40
0.4500
50
270.0000
51
0.0000
0
LINE
8
PARAMETRIX
10
-127.5724
20
28.5916
11
-127.5724
21
28.6916
0
ARC
8
PARAMETRIX
10
-128.0224
20
28.6916
40
0.4500
50
0.0000
51
90.0000
0
LINE
8
PARAMETRIX
10
-128.0224
20
29.1416
11
-141.1143
21
29.1416
0
ARC
8
PARAMETRIX
10
-141.1143
20
28.6916
40
0.4500
50
90.0000
51
180.0000
0
LINE
8
PARAMETRIX
10
-141.5643
20
28.6916
11
-141.5643
21
28.5916
0
ARC
8
PARAMETRIX
10
-141.1143
20
28.5916
40
0.4500
50
180.0000
51
270.0000
0
LINE
8
PARAMETRIX
10
-126.1224
20
28.1416
11
-113.0306
21
28.1416
0
ARC
8
PARAMETRIX
10
-113.0306
20
28.5916
40
0.4500
50
270.0000
51
360.0000
0
LINE
8
PARAMETRIX
10
-112.5806
20
28.5916
11
-112.5806
21
28.6916
0
ARC
8
PARAMETRIX
10
-113.0306
20
28.6916
40
0.4500
50
0.0000
51
90.0000
0
LINE
8
PARAMETRIX
10
-113.0306
20
29.1416
11
-126.1224
21
29.1416
0
ARC
8
PARAMETRIX
10
-126.1224
20
28.6916
40
0.4500
50
90.0000
51
180.0000
0
LINE
8
PARAMETRIX
10
-126.5724
20
28.6916
11
-126.5724
21
28.5916
0
ARC
8
PARAMETRIX
10
-126.1224
20
28.5916
40
0.4500
50
180.0000
51
270.0000
0
CIRCLE
8
PARAMETRIX
10
-145.8513
20
12.7500
40
2.1250
0
CIRCLE
8
PARAMETRIX
10
-123.2853
20
12.7500
40
2.1250
0
CIRCLE
8
PARAMETRIX
10
-184.6021
20
40.1416
40
8.0000
0
LINE
8
PARAMETRIX
10
-207.8836
20
22.1416
11
-201.7065
21
22.1416
0
ARC
8
PARAMETRIX
10
-201.7065
20
22.5916
40
0.4500
50
270.0000
51
360.0000
0
LINE
8
PARAMETRIX
10
-201.2565
20
22.5916
11
-201.2565
21
22.6916
0
ARC
8
PARAMETRIX
10
-201.7065
20
22.6916
40
0.4500
50
0.0000
51
90.0000
0
LINE
8
PARAMETRIX
10
-201.7065
20
23.1416
11
-207.8836
21
23.1416
0
ARC
8
PARAMETRIX
10
-207.8836
20
22.6916
40
0.4500
50
90.0000
51
180.0000
0
LINE
8
PARAMETRIX
10
-208.3336
20
22.6916
11
-208.3336
21
22.5916
0
ARC
8
PARAMETRIX
10
-207.8836
20
22.5916
40
0.4500
50
180.0000
51
270.0000
0
LINE
8
PARAMETRIX
10
-199.8065
20
22.1416
11
-185.5521
21
22.1416
0
ARC
8
PARAMETRIX
10
-185.5521
20
22.5916
40
0.4500
50
270.0000
51
360.0000
0
LINE
8
PARAMETRIX
10
-185.1021
20
22.5916
11
-185.1021
21
22.6916
0
ARC
8
PARAMETRIX
10
-185.5521
20
22.6916
40
0.4500
50
0.0000
51
90.0000
0
LINE
8
PARAMETRIX
10
-185.5521
20
23.1416
11
-199.8065
21
23.1416
0
ARC
8
PARAMETRIX
10
-199.8065
20
22.6916
40
0.4500
50
90.0000
51
180.0000
0
LINE
8
PARAMETRIX
10
-200.2565
20
22.6916
11
-200.2565
21
22.5916
0
ARC
8
PARAMETRIX
10
-199.8065
20
22.5916
40
0.4500
50
180.0000
51
270.0000
0
LINE
8
PARAMETRIX
10
-183.6521
20
22.1416
11
-169.3978
21
22.1416
0
ARC
8
PARAMETRIX
10
-169.3978
20
22.5916
40
0.4500
50
270.0000
51
360.0000
0
LINE
8
PARAMETRIX
10
-168.9478
20
22.5916
11
-168.9478
21
22.6916
0
ARC
8
PARAMETRIX
10
-169.3978
20
22.6916
40
0.4500
50
0.0000
51
90.0000
0
LINE
8
PARAMETRIX
10
-169.3978
20
23.1416
11
-183.6521
21
23.1416
0
ARC
8
PARAMETRIX
10
-183.6521
20
22.6916
40
0.4500
50
90.0000
51
180.0000
0
LINE
8
PARAMETRIX
10
-184.1021
20
22.6916
11
-184.1021
21
22.5916
0
ARC
8
PARAMETRIX
10
-183.6521
20
22.5916
40
0.4500
50
180.0000
51
270.0000
0
LINE
8
PARAMETRIX
10
-167.4978
20
22.1416
11
-161.3206
21
22.1416
0
ARC
8
PARAMETRIX
10
-161.3206
20
22.5916
40
0.4500
50
270.0000
51
360.0000
0
LINE
8
PARAMETRIX
10
-160.8706
20
22.5916
11
-160.8706
21
22.6916
0
ARC
8
PARAMETRIX
10
-161.3206
20
22.6916
40
0.4500
50
0.0000
51
90.0000
0
LINE
8
PARAMETRIX
10
-161.3206
20
23.1416
11
-167.4978
21
23.1416
0
ARC
8
PARAMETRIX
10
-167.4978
20
22.6916
40
0.4500
50
90.0000
51
180.0000
0
LINE
8
PARAMETRIX
10
-167.9478
20
22.6916
11
-167.9478
21
22.5916
0
ARC
8
PARAMETRIX
10
-167.4978
20
22.5916
40
0.4500
50
180.0000
51
270.0000
0
LINE
8
PARAMETRIX
10
-207.8836
20
24.1416
11
-193.6293
21
24.1416
0
ARC
8
PARAMETRIX
10
-193.6293
20
24.5916
40
0.4500
50
270.0000
51
360.0000
0
LINE
8
PARAMETRIX
10
-193.1793
20
24.5916
11
-193.1793
21
24.6916
0
ARC
8
PARAMETRIX
10
-193.6293
20
24.6916
40
0.4500
50
0.0000
51
90.0000
0
LINE
8
PARAMETRIX
10
-193.6293
20
25.1416
11
-207.8836
21
25.1416
0
ARC
8
PARAMETRIX
10
-207.8836
20
24.6916
40
0.4500
50
90.0000
51
180.0000
0
LINE
8
PARAMETRIX
10
-208.3336
20
24.6916
11
-208.3336
21
24.5916
0
ARC
8
PARAMETRIX
10
-207.8836
20
24.5916
40
0.4500
50
180.0000
51
270.0000
0
LINE
8
PARAMETRIX
10
-191.7293
20
24.1416
11
-177.4750
21
24.1416
0
ARC
8
PARAMETRIX
10
-177.4750
20
24.5916
40
0.4500
50
270.0000
51
360.0000
0
LINE
8
PARAMETRIX
10
-177.0250
20
24.5916
11
-177.0250
21
24.6916
0
ARC
8
PARAMETRIX
10
-177.4750
20
24.6916
40
0.4500
50
0.0000
51
90.0000
0
LINE
8
PARAMETRIX
10
-177.4750
20
25.1416
11
-191.7293
21
25.1416
0
ARC
8
PARAMETRIX
10
-191.7293
20
24.6916
40
0.4500
50
90.0000
51
180.0000
0
LINE
8
PARAMETRIX
10
-192.1793
20
24.6916
11
-192.1793
21
24.5916
0
ARC
8
PARAMETRIX
10
-191.7293
20
24.5916
40
0.4500
50
180.0000
51
270.0000
0
LINE
8
PARAMETRIX
10
-175.5750
20
24.1416
11
-161.3206
21
24.1416
0
ARC
8
PARAMETRIX
10
-161.3206
20
24.5916
40
0.4500
50
270.0000
51
360.0000
0
LINE
8
PARAMETRIX
10
-160.8706
20
24.5916
11
-160.8706
21
24.6916
0
ARC
8
PARAMETRIX
10
-161.3206
20
24.6916
40
0.4500
50
0.0000
51
90.0000
0
LINE
8
PARAMETRIX
10
-161.3206
20
25.1416
11
-175.5750
21
25.1416
0
ARC
8
PARAMETRIX
10
-175.5750
20
24.6916
40
0.4500
50
90.0000
51
180.0000
0
LINE
8
PARAMETRIX
10
-176.0250
20
24.6916
11
-176.0250
21
24.5916
0
ARC
8
PARAMETRIX
10
-175.5750
20
24.5916
40
0.4500
50
180.0000
51
270.0000
0
LINE
8
PARAMETRIX
10
-207.1363
20
26.1416
11
-201.2083
21
26.1416
0
ARC
8
PARAMETRIX
10
-201.2083
20
26.5916
40
0.4500
50
270.0000
51
360.0000
0
LINE
8
PARAMETRIX
10
-200.7583
20
26.5916
11
-200.7583
21
26.6916
0
ARC
8
PARAMETRIX
10
-201.2083
20
26.6916
40
0.4500
50
0.0000
51
90.0000
0
LINE
8
PARAMETRIX
10
-201.2083
20
27.1416
11
-207.1363
21
27.1416
0
ARC
8
PARAMETRIX
10
-207.1363
20
26.6916
40
0.4500
50
90.0000
51
180.0000
0
LINE
8
PARAMETRIX
10
-207.5863
20
26.6916
11
-207.5863
21
26.5916
0
ARC
8
PARAMETRIX
10
-207.1363
20
26.5916
40
0.4500
50
180.0000
51
270.0000
0
LINE
8
PARAMETRIX
10
-199.3083
20
26.1416
11
-185.5521
21
26.1416
0
ARC
8
PARAMETRIX
10
-185.5521
20
26.5916
40
0.4500
50
270.0000
51
360.0000
0
LINE
8
PARAMETRIX
10
-185.1021
20
26.5916
11
-185.1021
21
26.6916
0
ARC
8
PARAMETRIX
10
-185.5521
20
26.6916
40
0.4500
50
0.0000
51
90.0000
0
LINE
8
PARAMETRIX
10
-185.5521
20
27.1416
11
-199.3083
21
27.1416
0
ARC
8
PARAMETRIX
10
-199.3083
20
26.6916
40
0.4500
50
90.0000
51
180.0000
0
LINE
8
PARAMETRIX
10
-199.7583
20
26.6916
11
-199.7583
21
26.5916
0
ARC
8
PARAMETRIX
10
-199.3083
20
26.5916
40
0.4500
50
180.0000
51
270.0000
0
LINE
8
PARAMETRIX
10
-183.6521
20
26.1416
11
-169.8960
21
26.1416
0
ARC
8
PARAMETRIX
10
-169.8960
20
26.5916
40
0.4500
50
270.0000
51
360.0000
0
LINE
8
PARAMETRIX
10
-169.4460
20
26.5916
11
-169.4460
21
26.6916
0
ARC
8
PARAMETRIX
10
-169.8960
20
26.6916
40
0.4500
50
0.0000
51
90.0000
0
LINE
8
PARAMETRIX
10
-169.8960
20
27.1416
11
-183.6521
21
27.1416
0
ARC
8
PARAMETRIX
10
-183.6521
20
26.6916
40
0.4500
50
90.0000
51
180.0000
0
LINE
8
PARAMETRIX
10
-184.1021
20
26.6916
11
-184.1021
21
26.5916
0
ARC
8
PARAMETRIX
10
-183.6521
20
26.5916
40
0.4500
50
180.0000
51
270.0000
0
LINE
8
PARAMETRIX
10
-167.9960
20
26.1416
11
-162.0679
21
26.1416
0
ARC
8
PARAMETRIX
10
-162.0679
20
26.5916
40
0.4500
50
270.0000
51
360.0000
0
LINE
8
PARAMETRIX
10
-161.6179
20
26.5916
11
-161.6179
21
26.6916
0
ARC
8
PARAMETRIX
10
-162.0679
20
26.6916
40
0.4500
50
0.0000
51
90.0000
0
LINE
8
PARAMETRIX
10
-162.0679
20
27.1416
11
-167.9960
21
27.1416
0
ARC
8
PARAMETRIX
10
-167.9960
20
26.6916
40
0.4500
50
90.0000
51
180.0000
0
LINE
8
PARAMETRIX
10
-168.4460
20
26.6916
11
-168.4460
21
26.5916
0
ARC
8
PARAMETRIX
10
-167.9960
20
26.5916
40
0.4500
50
180.0000
51
270.0000
0
LINE
8
PARAMETRIX
10
-206.1399
20
28.1416
11
-193.0481
21
28.1416
0
ARC
8
PARAMETRIX
10
-193.0481
20
28.5916
40
0.4500
50
270.0000
51
360.0000
0
LINE
8
PARAMETRIX
10
-192.5981
20
28.5916
11
-192.5981
21
28.6916
0
ARC
8
PARAMETRIX
10
-193.0481
20
28.6916
40
0.4500
50
0.0000
51
90.0000
0
LINE
8
PARAMETRIX
10
-193.0481
20
29.1416
11
-206.1399
21
29.1416
0
ARC
8
PARAMETRIX
10
-206.1399
20
28.6916
40
0.4500
50
90.0000
51
180.0000
0
LINE
8
PARAMETRIX
10
-206.5899
20
28.6916
11
-206.5899
21
28.5916
0
ARC
8
PARAMETRIX
10
-206.1399
20
28.5916
40
0.4500
50
180.0000
51
270.0000
0
LINE
8
PARAMETRIX
10
-191.1481
20
28.1416
11
-178.0562
21
28.1416
0
ARC
8
PARAMETRIX
10
-178.0562
20
28.5916
40
0.4500
50
270.0000
51
0.0000
0
LINE
8
PARAMETRIX
10
-177.6062
20
28.5916
11
-177.6062
21
28.6916
0
ARC
8
PARAMETRIX
10
-178.0562
20
28.6916
40
0.4500
50
0.0000
51
90.0000
0
LINE
8
PARAMETRIX
10
-178.0562
20
29.1416
11
-191.1481
21
29.1416
0
ARC
8
PARAMETRIX
10
-191.1481
20
28.6916
40
0.4500
50
90.0000
51
180.0000
0
LINE
8
PARAMETRIX
10
-191.5981
20
28.6916
11
-191.5981
21
28.5916
0
ARC
8
PARAMETRIX
10
-191.1481
20
28.5916
40
0.4500
50
180.0000
51
270.0000
0
LINE
8
PARAMETRIX
10
-176.1562
20
28.1416
11
-163.0643
21
28.1416
0
ARC
8
PARAMETRIX
10
-163.0643
20
28.5916
40
0.4500
50
270.0000
51
360.0000
0
LINE
8
PARAMETRIX
10
-162.6143
20
28.5916
11
-162.6143
21
28.6916
0
ARC
8
PARAMETRIX
10
-163.0643
20
28.6916
40
0.4500
50
0.0000
51
90.0000
0
LINE
8
PARAMETRIX
10
-163.0643
20
29.1416
11
-176.1562
21
29.1416
0
ARC
8
PARAMETRIX
10
-176.1562
20
28.6916
40
0.4500
50
90.0000
51
180.0000
0
LINE
8
PARAMETRIX
10
-176.6062
20
28.6916
11
-176.6062
21
28.5916
0
ARC
8
PARAMETRIX
10
-176.1562
20
28.5916
40
0.4500
50
180.0000
51
270.0000
0
CIRCLE
8
PARAMETRIX
10
-195.8851
20
12.7500
40
2.1250
0
CIRCLE
8
PARAMETRIX
10
-173.3191
20
12.7500
40
2.1250
0
CIRCLE
8
PARAMETRIX
10
-234.6359
20
40.1416
40
8.0000
0
LINE
8
PARAMETRIX
10
-257.9174
20
22.1416
11
-251.7402
21
22.1416
0
ARC
8
PARAMETRIX
10
-251.7402
20
22.5916
40
0.4500
50
270.0000
51
0.0000
0
LINE
8
PARAMETRIX
10
-251.2902
20
22.5916
11
-251.2902
21
22.6916
0
ARC
8
PARAMETRIX
10
-251.7402
20
22.6916
40
0.4500
50
0.0000
51
90.0000
0
LINE
8
PARAMETRIX
10
-251.7402
20
23.1416
11
-257.9174
21
23.1416
0
ARC
8
PARAMETRIX
10
-257.9174
20
22.6916
40
0.4500
50
90.0000
51
180.0000
0
LINE
8
PARAMETRIX
10
-258.3674
20
22.6916
11
-258.3674
21
22.5916
0
ARC
8
PARAMETRIX
10
-257.9174
20
22.5916
40
0.4500
50
180.0000
51
270.0000
0
LINE
8
PARAMETRIX
10
-249.8402
20
22.1416
11
-235.5859
21
22.1416
0
ARC
8
PARAMETRIX
10
-235.5859
20
22.5916
40
0.4500
50
270.0000
51
0.0000
0
LINE
8
PARAMETRIX
10
-235.1359
20
22.5916
11
-235.1359
21
22.6916
0
ARC
8
PARAMETRIX
10
-235.5859
20
22.6916
40
0.4500
50
0.0000
51
90.0000
0
LINE
8
PARAMETRIX
10
-235.5859
20
23.1416
11
-249.8402
21
23.1416
0
ARC
8
PARAMETRIX
10
-249.8402
20
22.6916
40
0.4500
50
90.0000
51
180.0000
0
LINE
8
PARAMETRIX
10
-250.2902
20
22.6916
11
-250.2902
21
22.5916
0
ARC
8
PARAMETRIX
10
-249.8402
20
22.5916
40
0.4500
50
180.0000
51
270.0000
0
LINE
8
PARAMETRIX
10
-233.6859
20
22.1416
11
-219.4316
21
22.1416
0
ARC
8
PARAMETRIX
10
-219.4316
20
22.5916
40
0.4500
50
270.0000
51
360.0000
0
LINE
8
PARAMETRIX
10
-218.9816
20
22.5916
11
-218.9816
21
22.6916
0
ARC
8
PARAMETRIX
10
-219.4316
20
22.6916
40
0.4500
50
360.0000
51
90.0000
0
LINE
8
PARAMETRIX
10
-219.4316
20
23.1416
11
-233.6859
21
23.1416
0
ARC
8
PARAMETRIX
10
-233.6859
20
22.6916
40
0.4500
50
90.0000
51
180.0000
0
LINE
8
PARAMETRIX
10
-234.1359
20
22.6916
11
-234.1359
21
22.5916
0
ARC
8
PARAMETRIX
10
-233.6859
20
22.5916
40
0.4500
50
180.0000
51
270.0000
0
LINE
8
PARAMETRIX
10
-217.5316
20
22.1416
11
-211.3544
21
22.1416
0
ARC
8
PARAMETRIX
10
-211.3544
20
22.5916
40
0.4500
50
270.0000
51
0.0000
0
LINE
8
PARAMETRIX
10
-210.9044
20
22.5916
11
-210.9044
21
22.6916
0
ARC
8
PARAMETRIX
10
-211.3544
20
22.6916
40
0.4500
50
0.0000
51
90.0000
0
LINE
8
PARAMETRIX
10
-211.3544
20
23.1416
11
-217.5316
21
23.1416
0
ARC
8
PARAMETRIX
10
-217.5316
20
22.6916
40
0.4500
50
90.0000
51
180.0000
0
LINE
8
PARAMETRIX
10
-217.9816
20
22.6916
11
-217.9816
21
22.5916
0
ARC
8
PARAMETRIX
10
-217.5316
20
22.5916
40
0.4500
50
180.0000
51
270.0000
0
LINE
8
PARAMETRIX
10
-257.9174
20
24.1416
11
-243.6631
21
24.1416
0
ARC
8
PARAMETRIX
10
-243.6631
20
24.5916
40
0.4500
50
270.0000
51
0.0000
0
LINE
8
PARAMETRIX
10
-243.2131
20
24.5916
11
-243.2131
21
24.6916
0
ARC
8
PARAMETRIX
10
-243.6631
20
24.6916
40
0.4500
50
0.0000
51
90.0000
0
LINE
8
PARAMETRIX
10
-243.6631
20
25.1416
11
-257.9174
21
25.1416
0
ARC
8
PARAMETRIX
10
-257.9174
20
24.6916
40
0.4500
50
90.0000
51
180.0000
0
LINE
8
PARAMETRIX
10
-258.3674
20
24.6916
11
-258.3674
21
24.5916
0
ARC
8
PARAMETRIX
10
-257.9174
20
24.5916
40
0.4500
50
180.0000
51
270.0000
0
LINE
8
PARAMETRIX
10
-241.7631
20
24.1416
11
-227.5087
21
24.1416
0
ARC
8
PARAMETRIX
10
-227.5087
20
24.5916
40
0.4500
50
270.0000
51
360.0000
0
LINE
8
PARAMETRIX
10
-227.0587
20
24.5916
11
-227.0587
21
24.6916
0
ARC
8
PARAMETRIX
10
-227.5087
20
24.6916
40
0.4500
50
360.0000
51
90.0000
0
LINE
8
PARAMETRIX
10
-227.5087
20
25.1416
11
-241.7631
21
25.1416
0
ARC
8
PARAMETRIX
10
-241.7631
20
24.6916
40
0.4500
50
90.0000
51
180.0000
0
LINE
8
PARAMETRIX
10
-242.2131
20
24.6916
11
-242.2131
21
24.5916
0
ARC
8
PARAMETRIX
10
-241.7631
20
24.5916
40
0.4500
50
180.0000
51
270.0000
0
LINE
8
PARAMETRIX
10
-225.6087
20
24.1416
11
-211.3544
21
24.1416
0
ARC
8
PARAMETRIX
10
-211.3544
20
24.5916
40
0.4500
50
270.0000
51
0.0000
0
LINE
8
PARAMETRIX
10
-210.9044
20
24.5916
11
-210.9044
21
24.6916
0
ARC
8
PARAMETRIX
10
-211.3544
20
24.6916
40
0.4500
50
0.0000
51
90.0000
0
LINE
8
PARAMETRIX
10
-211.3544
20
25.1416
11
-225.6087
21
25.1416
0
ARC
8
PARAMETRIX
10
-225.6087
20
24.6916
40
0.4500
50
90.0000
51
180.0000
0
LINE
8
PARAMETRIX
10
-226.0587
20
24.6916
11
-226.0587
21
24.5916
0
ARC
8
PARAMETRIX
10
-225.6087
20
24.5916
40
0.4500
50
180.0000
51
270.0000
0
LINE
8
PARAMETRIX
10
-257.1701
20
26.1416
11
-251.2420
21
26.1416
0
ARC
8
PARAMETRIX
10
-251.2420
20
26.5916
40
0.4500
50
270.0000
51
0.0000
0
LINE
8
PARAMETRIX
10
-250.7920
20
26.5916
11
-250.7920
21
26.6916
0
ARC
8
PARAMETRIX
10
-251.2420
20
26.6916
40
0.4500
50
0.0000
51
90.0000
0
LINE
8
PARAMETRIX
10
-251.2420
20
27.1416
11
-257.1701
21
27.1416
0
ARC
8
PARAMETRIX
10
-257.1701
20
26.6916
40
0.4500
50
90.0000
51
180.0000
0
LINE
8
PARAMETRIX
10
-257.6201
20
26.6916
11
-257.6201
21
26.5916
0
ARC
8
PARAMETRIX
10
-257.1701
20
26.5916
40
0.4500
50
180.0000
51
270.0000
0
LINE
8
PARAMETRIX
10
-249.3420
20
26.1416
11
-235.5859
21
26.1416
0
ARC
8
PARAMETRIX
10
-235.5859
20
26.5916
40
0.4500
50
270.0000
51
0.0000
0
LINE
8
PARAMETRIX
10
-235.1359
20
26.5916
11
-235.1359
21
26.6916
0
ARC
8
PARAMETRIX
10
-235.5859
20
26.6916
40
0.4500
50
0.0000
51
90.0000
0
LINE
8
PARAMETRIX
10
-235.5859
20
27.1416
11
-249.3420
21
27.1416
0
ARC
8
PARAMETRIX
10
-249.3420
20
26.6916
40
0.4500
50
90.0000
51
180.0000
0
LINE
8
PARAMETRIX
10
-249.7920
20
26.6916
11
-249.7920
21
26.5916
0
ARC
8
PARAMETRIX
10
-249.3420
20
26.5916
40
0.4500
50
180.0000
51
270.0000
0
LINE
8
PARAMETRIX
10
-233.6859
20
26.1416
11
-219.9298
21
26.1416
0
ARC
8
PARAMETRIX
10
-219.9298
20
26.5916
40
0.4500
50
270.0000
51
0.0000
0
LINE
8
PARAMETRIX
10
-219.4798
20
26.5916
11
-219.4798
21
26.6916
0
ARC
8
PARAMETRIX
10
-219.9298
20
26.6916
40
0.4500
50
0.0000
51
90.0000
0
LINE
8
PARAMETRIX
10
-219.9298
20
27.1416
11
-233.6859
21
27.1416
0
ARC
8
PARAMETRIX
10
-233.6859
20
26.6916
40
0.4500
50
90.0000
51
180.0000
0
LINE
8
PARAMETRIX
10
-234.1359
20
26.6916
11
-234.1359
21
26.5916
0
ARC
8
PARAMETRIX
10
-233.6859
20
26.5916
40
0.4500
50
180.0000
51
270.0000
0
LINE
8
PARAMETRIX
10
-218.0298
20
26.1416
11
-212.1017
21
26.1416
0
ARC
8
PARAMETRIX
10
-212.1017
20
26.5916
40
0.4500
50
270.0000
51
0.0000
0
LINE
8
PARAMETRIX
10
-211.6517
20
26.5916
11
-211.6517
21
26.6916
0
ARC
8
PARAMETRIX
10
-212.1017
20
26.6916
40
0.4500
50
0.0000
51
90.0000
0
LINE
8
PARAMETRIX
10
-212.1017
20
27.1416
11
-218.0298
21
27.1416
0
ARC
8
PARAMETRIX
10
-218.0298
20
26.6916
40
0.4500
50
90.0000
51
180.0000
0
LINE
8
PARAMETRIX
10
-218.4798
20
26.6916
11
-218.4798
21
26.5916
0
ARC
8
PARAMETRIX
10
-218.0298
20
26.5916
40
0.4500
50
180.0000
51
270.0000
0
LINE
8
PARAMETRIX
10
-256.1737
20
28.1416
11
-243.0818
21
28.1416
0
ARC
8
PARAMETRIX
10
-243.0818
20
28.5916
40
0.4500
50
270.0000
51
360.0000
0
LINE
8
PARAMETRIX
10
-242.6318
20
28.5916
11
-242.6318
21
28.6916
0
ARC
8
PARAMETRIX
10
-243.0818
20
28.6916
40
0.4500
50
0.0000
51
90.0000
0
LINE
8
PARAMETRIX
10
-243.0818
20
29.1416
11
-256.1737
21
29.1416
0
ARC
8
PARAMETRIX
10
-256.1737
20
28.6916
40
0.4500
50
90.0000
51
180.0000
0
LINE
8
PARAMETRIX
10
-256.6237
20
28.6916
11
-256.6237
21
28.5916
0
ARC
8
PARAMETRIX
10
-256.1737
20
28.5916
40
0.4500
50
180.0000
51
270.0000
0
LINE
8
PARAMETRIX
10
-241.1818
20
28.1416
11
-228.0900
21
28.1416
0
ARC
8
PARAMETRIX
10
-228.0900
20
28.5916
40
0.4500
50
270.0000
51
0.0000
0
LINE
8
PARAMETRIX
10
-227.6400
20
28.5916
11
-227.6400
21
28.6916
0
ARC
8
PARAMETRIX
10
-228.0900
20
28.6916
40
0.4500
50
0.0000
51
90.0000
0
LINE
8
PARAMETRIX
10
-228.0900
20
29.1416
11
-241.1818
21
29.1416
0
ARC
8
PARAMETRIX
10
-241.1818
20
28.6916
40
0.4500
50
90.0000
51
180.0000
0
LINE
8
PARAMETRIX
10
-241.6318
20
28.6916
11
-241.6318
21
28.5916
0
ARC
8
PARAMETRIX
10
-241.1818
20
28.5916
40
0.4500
50
180.0000
51
270.0000
0
LINE
8
PARAMETRIX
10
-226.1900
20
28.1416
11
-213.0981
21
28.1416
0
ARC
8
PARAMETRIX
10
-213.0981
20
28.5916
40
0.4500
50
270.0000
51
0.0000
0
LINE
8
PARAMETRIX
10
-212.6481
20
28.5916
11
-212.6481
21
28.6916
0
ARC
8
PARAMETRIX
10
-213.0981
20
28.6916
40
0.4500
50
0.0000
51
90.0000
0
LINE
8
PARAMETRIX
10
-213.0981
20
29.1416
11
-226.1900
21
29.1416
0
ARC
8
PARAMETRIX
10
-226.1900
20
28.6916
40
0.4500
50
90.0000
51
180.0000
0
LINE
8
PARAMETRIX
10
-226.6400
20
28.6916
11
-226.6400
21
28.5916
0
ARC
8
PARAMETRIX
10
-226.1900
20
28.5916
40
0.4500
50
180.0000
51
270.0000
0
CIRCLE
8
PARAMETRIX
10
-245.9189
20
12.7500
40
2.1250
0
CIRCLE
8
PARAMETRIX
10
-223.3529
20
12.7500
40
2.1250
0
CIRCLE
8
PARAMETRIX
10
-284.6697
20
40.1416
40
8.0000
0
LINE
8
PARAMETRIX
10
-307.9512
20
22.1416
11
-301.7740
21
22.1416
0
ARC
8
PARAMETRIX
10
-301.7740
20
22.5916
40
0.4500
50
270.0000
51
0.0000
0
LINE
8
PARAMETRIX
10
-301.3240
20
22.5916
11
-301.3240
21
22.6916
0
ARC
8
PARAMETRIX
10
-301.7740
20
22.6916
40
0.4500
50
0.0000
51
90.0000
0
LINE
8
PARAMETRIX
10
-301.7740
20
23.1416
11
-307.9512
21
23.1416
0
ARC
8
PARAMETRIX
10
-307.9512
20
22.6916
40
0.4500
50
90.0000
51
180.0000
0
LINE
8
PARAMETRIX
10
-308.4012
20
22.6916
11
-308.4012
21
22.5916
0
ARC
8
PARAMETRIX
10
-307.9512
20
22.5916
40
0.4500
50
180.0000
51
270.0000
0
LINE
8
PARAMETRIX
10
-299.8740
20
22.1416
11
-285.6197
21
22.1416
0
ARC
8
PARAMETRIX
10
-285.6197
20
22.5916
40
0.4500
50
270.0000
51
0.0000
0
LINE
8
PARAMETRIX
10
-285.1697
20
22.5916
11
-285.1697
21
22.6916
0
ARC
8
PARAMETRIX
10
-285.6197
20
22.6916
40
0.4500
50
0.0000
51
90.0000
0
LINE
8
PARAMETRIX
10
-285.6197
20
23.1416
11
-299.8740
21
23.1416
0
ARC
8
PARAMETRIX
10
-299.8740
20
22.6916
40
0.4500
50
90.0000
51
180.0000
0
LINE
8
PARAMETRIX
10
-300.3240
20
22.6916
11
-300.3240
21
22.5916
0
ARC
8
PARAMETRIX
10
-299.8740
20
22.5916
40
0.4500
50
180.0000
51
270.0000
0
LINE
8
PARAMETRIX
10
-283.7197
20
22.1416
11
-269.4654
21
22.1416
0
ARC
8
PARAMETRIX
10
-269.4654
20
22.5916
40
0.4500
50
270.0000
51
0.0000
0
LINE
8
PARAMETRIX
10
-269.0154
20
22.5916
11
-269.0154
21
22.6916
0
ARC
8
PARAMETRIX
10
-269.4654
20
22.6916
40
0.4500
50
0.0000
51
90.0000
0
LINE
8
PARAMETRIX
10
-269.4654
20
23.1416
11
-283.7197
21
23.1416
0
ARC
8
PARAMETRIX
10
-283.7197
20
22.6916
40
0.4500
50
90.0000
51
180.0000
0
LINE
8
PARAMETRIX
10
-284.1697
20
22.6916
11
-284.1697
21
22.5916
0
ARC
8
PARAMETRIX
10
-283.7197
20
22.5916
40
0.4500
50
180.0000
51
270.0000
0
LINE
8
PARAMETRIX
10
-267.5654
20
22.1416
11
-261.3882
21
22.1416
0
ARC
8
PARAMETRIX
10
-261.3882
20
22.5916
40
0.4500
50
270.0000
51
0.0000
0
LINE
8
PARAMETRIX
10
-260.9382
20
22.5916
11
-260.9382
21
22.6916
0
ARC
8
PARAMETRIX
10
-261.3882
20
22.6916
40
0.4500
50
0.0000
51
90.0000
0
LINE
8
PARAMETRIX
10
-261.3882
20
23.1416
11
-267.5654
21
23.1416
0
ARC
8
PARAMETRIX
10
-267.5654
20
22.6916
40
0.4500
50
90.0000
51
180.0000
0
LINE
8
PARAMETRIX
10
-268.0154
20
22.6916
11
-268.0154
21
22.5916
0
ARC
8
PARAMETRIX
10
-267.5654
20
22.5916
40
0.4500
50
180.0000
51
270.0000
0
LINE
8
PARAMETRIX
10
-307.9512
20
24.1416
11
-293.6969
21
24.1416
0
ARC
8
PARAMETRIX
10
-293.6969
20
24.5916
40
0.4500
50
270.0000
51
0.0000
0
LINE
8
PARAMETRIX
10
-293.2469
20
24.5916
11
-293.2469
21
24.6916
0
ARC
8
PARAMETRIX
10
-293.6969
20
24.6916
40
0.4500
50
0.0000
51
90.0000
0
LINE
8
PARAMETRIX
10
-293.6969
20
25.1416
11
-307.9512
21
25.1416
0
ARC
8
PARAMETRIX
10
-307.9512
20
24.6916
40
0.4500
50
90.0000
51
180.0000
0
LINE
8
PARAMETRIX
10
-308.4012
20
24.6916
11
-308.4012
21
24.5916
0
ARC
8
PARAMETRIX
10
-307.9512
20
24.5916
40
0.4500
50
180.0000
51
270.0000
0
LINE
8
PARAMETRIX
10
-291.7969
20
24.1416
11
-277.5425
21
24.1416
0
ARC
8
PARAMETRIX
10
-277.5425
20
24.5916
40
0.4500
50
270.0000
51
0.0000
0
LINE
8
PARAMETRIX
10
-277.0925
20
24.5916
11
-277.0925
21
24.6916
0
ARC
8
PARAMETRIX
10
-277.5425
20
24.6916
40
0.4500
50
0.0000
51
90.0000
0
LINE
8
PARAMETRIX
10
-277.5425
20
25.1416
11
-291.7969
21
25.1416
0
ARC
8
PARAMETRIX
10
-291.7969
20
24.6916
40
0.4500
50
90.0000
51
180.0000
0
LINE
8
PARAMETRIX
10
-292.2469
20
24.6916
11
-292.2469
21
24.5916
0
ARC
8
PARAMETRIX
10
-291.7969
20
24.5916
40
0.4500
50
180.0000
51
270.0000
0
LINE
8
PARAMETRIX
10
-275.6425
20
24.1416
11
-261.3882
21
24.1416
0
ARC
8
PARAMETRIX
10
-261.3882
20
24.5916
40
0.4500
50
270.0000
51
0.0000
0
LINE
8
PARAMETRIX
10
-260.9382
20
24.5916
11
-260.9382
21
24.6916
0
ARC
8
PARAMETRIX
10
-261.3882
20
24.6916
40
0.4500
50
0.0000
51
90.0000
0
LINE
8
PARAMETRIX
10
-261.3882
20
25.1416
11
-275.6425
21
25.1416
0
ARC
8
PARAMETRIX
10
-275.6425
20
24.6916
40
0.4500
50
90.0000
51
180.0000
0
LINE
8
PARAMETRIX
10
-276.0925
20
24.6916
11
-276.0925
21
24.5916
0
ARC
8
PARAMETRIX
10
-275.6425
20
24.5916
40
0.4500
50
180.0000
51
270.0000
0
LINE
8
PARAMETRIX
10
-307.2039
20
26.1416
11
-301.2758
21
26.1416
0
ARC
8
PARAMETRIX
10
-301.2758
20
26.5916
40
0.4500
50
270.0000
51
0.0000
0
LINE
8
PARAMETRIX
10
-300.8258
20
26.5916
11
-300.8258
21
26.6916
0
ARC
8
PARAMETRIX
10
-301.2758
20
26.6916
40
0.4500
50
0.0000
51
90.0000
0
LINE
8
PARAMETRIX
10
-301.2758
20
27.1416
11
-307.2039
21
27.1416
0
ARC
8
PARAMETRIX
10
-307.2039
20
26.6916
40
0.4500
50
90.0000
51
180.0000
0
LINE
8
PARAMETRIX
10
-307.6539
20
26.6916
11
-307.6539
21
26.5916
0
ARC
8
PARAMETRIX
10
-307.2039
20
26.5916
40
0.4500
50
180.0000
51
270.0000
0
LINE
8
PARAMETRIX
10
-299.3758
20
26.1416
11
-285.6197
21
26.1416
0
ARC
8
PARAMETRIX
10
-285.6197
20
26.5916
40
0.4500
50
270.0000
51
0.0000
0
LINE
8
PARAMETRIX
10
-285.1697
20
26.5916
11
-285.1697
21
26.6916
0
ARC
8
PARAMETRIX
10
-285.6197
20
26.6916
40
0.4500
50
0.0000
51
90.0000
0
LINE
8
PARAMETRIX
10
-285.6197
20
27.1416
11
-299.3758
21
27.1416
0
ARC
8
PARAMETRIX
10
-299.3758
20
26.6916
40
0.4500
50
90.0000
51
180.0000
0
LINE
8
PARAMETRIX
10
-299.8258
20
26.6916
11
-299.8258
21
26.5916
0
ARC
8
PARAMETRIX
10
-299.3758
20
26.5916
40
0.4500
50
180.0000
51
270.0000
0
LINE
8
PARAMETRIX
10
-283.7197
20
26.1416
11
-269.9636
21
26.1416
0
ARC
8
PARAMETRIX
10
-269.9636
20
26.5916
40
0.4500
50
270.0000
51
0.0000
0
LINE
8
PARAMETRIX
10
-269.5136
20
26.5916
11
-269.5136
21
26.6916
0
ARC
8
PARAMETRIX
10
-269.9636
20
26.6916
40
0.4500
50
0.0000
51
90.0000
0
LINE
8
PARAMETRIX
10
-269.9636
20
27.1416
11
-283.7197
21
27.1416
0
ARC
8
PARAMETRIX
10
-283.7197
20
26.6916
40
0.4500
50
90.0000
51
180.0000
0
LINE
8
PARAMETRIX
10
-284.1697
20
26.6916
11
-284.1697
21
26.5916
0
ARC
8
PARAMETRIX
10
-283.7197
20
26.5916
40
0.4500
50
180.0000
51
270.0000
0
LINE
8
PARAMETRIX
10
-268.0636
20
26.1416
11
-262.1355
21
26.1416
0
ARC
8
PARAMETRIX
10
-262.1355
20
26.5916
40
0.4500
50
270.0000
51
0.0000
0
LINE
8
PARAMETRIX
10
-261.6855
20
26.5916
11
-261.6855
21
26.6916
0
ARC
8
PARAMETRIX
10
-262.1355
20
26.6916
40
0.4500
50
0.0000
51
90.0000
0
LINE
8
PARAMETRIX
10
-262.1355
20
27.1416
11
-268.0636
21
27.1416
0
ARC
8
PARAMETRIX
10
-268.0636
20
26.6916
40
0.4500
50
90.0000
51
180.0000
0
LINE
8
PARAMETRIX
10
-268.5136
20
26.6916
11
-268.5136
21
26.5916
0
ARC
8
PARAMETRIX
10
-268.0636
20
26.5916
40
0.4500
50
180.0000
51
270.0000
0
LINE
8
PARAMETRIX
10
-306.2075
20
28.1416
11
-293.1156
21
28.1416
0
ARC
8
PARAMETRIX
10
-293.1156
20
28.5916
40
0.4500
50
270.0000
51
360.0000
0
LINE
8
PARAMETRIX
10
-292.6656
20
28.5916
11
-292.6656
21
28.6916
0
ARC
8
PARAMETRIX
10
-293.1156
20
28.6916
40
0.4500
50
0.0000
51
90.0000
0
LINE
8
PARAMETRIX
10
-293.1156
20
29.1416
11
-306.2075
21
29.1416
0
ARC
8
PARAMETRIX
10
-306.2075
20
28.6916
40
0.4500
50
90.0000
51
180.0000
0
LINE
8
PARAMETRIX
10
-306.6575
20
28.6916
11
-306.6575
21
28.5916
0
ARC
8
PARAMETRIX
10
-306.2075
20
28.5916
40
0.4500
50
180.0000
51
270.0000
0
LINE
8
PARAMETRIX
10
-291.2156
20
28.1416
11
-278.1238
21
28.1416
0
ARC
8
PARAMETRIX
10
-278.1238
20
28.5916
40
0.4500
50
270.0000
51
0.0000
0
LINE
8
PARAMETRIX
10
-277.6738
20
28.5916
11
-277.6738
21
28.6916
0
ARC
8
PARAMETRIX
10
-278.1238
20
28.6916
40
0.4500
50
0.0000
51
90.0000
0
LINE
8
PARAMETRIX
10
-278.1238
20
29.1416
11
-291.2156
21
29.1416
0
ARC
8
PARAMETRIX
10
-291.2156
20
28.6916
40
0.4500
50
90.0000
51
180.0000
0
LINE
8
PARAMETRIX
10
-291.6656
20
28.6916
11
-291.6656
21
28.5916
0
ARC
8
PARAMETRIX
10
-291.2156
20
28.5916
40
0.4500
50
180.0000
51
270.0000
0
LINE
8
PARAMETRIX
10
-276.2238
20
28.1416
11
-263.1319
21
28.1416
0
ARC
8
PARAMETRIX
10
-263.1319
20
28.5916
40
0.4500
50
270.0000
51
0.0000
0
LINE
8
PARAMETRIX
10
-262.6819
20
28.5916
11
-262.6819
21
28.6916
0
ARC
8
PARAMETRIX
10
-263.1319
20
28.6916
40
0.4500
50
0.0000
51
90.0000
0
LINE
8
PARAMETRIX
10
-263.1319
20
29.1416
11
-276.2238
21
29.1416
0
ARC
8
PARAMETRIX
10
-276.2238
20
28.6916
40
0.4500
50
90.0000
51
180.0000
0
LINE
8
PARAMETRIX
10
-276.6738
20
28.6916
11
-276.6738
21
28.5916
0
ARC
8
PARAMETRIX
10
-276.2238
20
28.5916
40
0.4500
50
180.0000
51
270.0000
0
CIRCLE
8
PARAMETRIX
10
-295.9527
20
12.7500
40
2.1250
0
CIRCLE
8
PARAMETRIX
10
-273.3867
20
12.7500
40
2.1250
0
CIRCLE
8
PARAMETRIX
10
-334.7035
20
40.1416
40
8.0000
0
LINE
8
PARAMETRIX
10
-357.9850
20
22.1416
11
-351.8078
21
22.1416
0
ARC
8
PARAMETRIX
10
-351.8078
20
22.5916
40
0.4500
50
270.0000
51
360.0000
0
LINE
8
PARAMETRIX
10
-351.3578
20
22.5916
11
-351.3578
21
22.6916
0
ARC
8
PARAMETRIX
10
-351.8078
20
22.6916
40
0.4500
50
0.0000
51
90.0000
0
LINE
8
PARAMETRIX
10
-351.8078
20
23.1416
11
-357.9850
21
23.1416
0
ARC
8
PARAMETRIX
10
-357.9850
20
22.6916
40
0.4500
50
90.0000
51
180.0000
0
LINE
8
PARAMETRIX
10
-358.4350
20
22.6916
11
-358.4350
21
22.5916
0
ARC
8
PARAMETRIX
10
-357.9850
20
22.5916
40
0.4500
50
180.0000
51
270.0000
0
LINE
8
PARAMETRIX
10
-349.9078
20
22.1416
11
-335.6535
21
22.1416
0
ARC
8
PARAMETRIX
10
-335.6535
20
22.5916
40
0.4500
50
270.0000
51
360.0000
0
LINE
8
PARAMETRIX
10
-335.2035
20
22.5916
11
-335.2035
21
22.6916
0
ARC
8
PARAMETRIX
10
-335.6535
20
22.6916
40
0.4500
50
0.0000
51
90.0000
0
LINE
8
PARAMETRIX
10
-335.6535
20
23.1416
11
-349.9078
21
23.1416
0
ARC
8
PARAMETRIX
10
-349.9078
20
22.6916
40
0.4500
50
90.0000
51
180.0000
0
LINE
8
PARAMETRIX
10
-350.3578
20
22.6916
11
-350.3578
21
22.5916
0
ARC
8
PARAMETRIX
10
-349.9078
20
22.5916
40
0.4500
50
180.0000
51
270.0000
0
LINE
8
PARAMETRIX
10
-333.7535
20
22.1416
11
-319.4991
21
22.1416
0
ARC
8
PARAMETRIX
10
-319.4991
20
22.5916
40
0.4500
50
270.0000
51
360.0000
0
LINE
8
PARAMETRIX
10
-319.0491
20
22.5916
11
-319.0491
21
22.6916
0
ARC
8
PARAMETRIX
10
-319.4991
20
22.6916
40
0.4500
50
0.0000
51
90.0000
0
LINE
8
PARAMETRIX
10
-319.4991
20
23.1416
11
-333.7535
21
23.1416
0
ARC
8
PARAMETRIX
10
-333.7535
20
22.6916
40
0.4500
50
90.0000
51
180.0000
0
LINE
8
PARAMETRIX
10
-334.2035
20
22.6916
11
-334.2035
21
22.5916
0
ARC
8
PARAMETRIX
10
-333.7535
20
22.5916
40
0.4500
50
180.0000
51
270.0000
0
LINE
8
PARAMETRIX
10
-317.5991
20
22.1416
11
-311.4220
21
22.1416
0
ARC
8
PARAMETRIX
10
-311.4220
20
22.5916
40
0.4500
50
270.0000
51
360.0000
0
LINE
8
PARAMETRIX
10
-310.9720
20
22.5916
11
-310.9720
21
22.6916
0
ARC
8
PARAMETRIX
10
-311.4220
20
22.6916
40
0.4500
50
0.0000
51
90.0000
0
LINE
8
PARAMETRIX
10
-311.4220
20
23.1416
11
-317.5991
21
23.1416
0
ARC
8
PARAMETRIX
10
-317.5991
20
22.6916
40
0.4500
50
90.0000
51
180.0000
0
LINE
8
PARAMETRIX
10
-318.0491
20
22.6916
11
-318.0491
21
22.5916
0
ARC
8
PARAMETRIX
10
-317.5991
20
22.5916
40
0.4500
50
180.0000
51
270.0000
0
LINE
8
PARAMETRIX
10
-357.9850
20
24.1416
11
-343.7306
21
24.1416
0
ARC
8
PARAMETRIX
10
-343.7306
20
24.5916
40
0.4500
50
270.0000
51
360.0000
0
LINE
8
PARAMETRIX
10
-343.2806
20
24.5916
11
-343.2806
21
24.6916
0
ARC
8
PARAMETRIX
10
-343.7306
20
24.6916
40
0.4500
50
0.0000
51
90.0000
0
LINE
8
PARAMETRIX
10
-343.7306
20
25.1416
11
-357.9850
21
25.1416
0
ARC
8
PARAMETRIX
10
-357.9850
20
24.6916
40
0.4500
50
90.0000
51
180.0000
0
LINE
8
PARAMETRIX
10
-358.4350
20
24.6916
11
-358.4350
21
24.5916
0
ARC
8
PARAMETRIX
10
-357.9850
20
24.5916
40
0.4500
50
180.0000
51
270.0000
0
LINE
8
PARAMETRIX
10
-341.8306
20
24.1416
11
-327.5763
21
24.1416
0
ARC
8
PARAMETRIX
10
-327.5763
20
24.5916
40
0.4500
50
270.0000
51
360.0000
0
LINE
8
PARAMETRIX
10
-327.1263
20
24.5916
11
-327.1263
21
24.6916
0
ARC
8
PARAMETRIX
10
-327.5763
20
24.6916
40
0.4500
50
0.0000
51
90.0000
0
LINE
8
PARAMETRIX
10
-327.5763
20
25.1416
11
-341.8306
21
25.1416
0
ARC
8
PARAMETRIX
10
-341.8306
20
24.6916
40
0.4500
50
90.0000
51
180.0000
0
LINE
8
PARAMETRIX
10
-342.2806
20
24.6916
11
-342.2806
21
24.5916
0
ARC
8
PARAMETRIX
10
-341.8306
20
24.5916
40
0.4500
50
180.0000
51
270.0000
0
LINE
8
PARAMETRIX
10
-325.6763
20
24.1416
11
-311.4220
21
24.1416
0
ARC
8
PARAMETRIX
10
-311.4220
20
24.5916
40
0.4500
50
270.0000
51
360.0000
0
LINE
8
PARAMETRIX
10
-310.9720
20
24.5916
11
-310.9720
21
24.6916
0
ARC
8
PARAMETRIX
10
-311.4220
20
24.6916
40
0.4500
50
0.0000
51
90.0000
0
LINE
8
PARAMETRIX
10
-311.4220
20
25.1416
11
-325.6763
21
25.1416
0
ARC
8
PARAMETRIX
10
-325.6763
20
24.6916
40
0.4500
50
90.0000
51
180.0000
0
LINE
8
PARAMETRIX
10
-326.1263
20
24.6916
11
-326.1263
21
24.5916
0
ARC
8
PARAMETRIX
10
-325.6763
20
24.5916
40
0.4500
50
180.0000
51
270.0000
0
LINE
8
PARAMETRIX
10
-357.2377
20
26.1416
11
-351.3096
21
26.1416
0
ARC
8
PARAMETRIX
10
-351.3096
20
26.5916
40
0.4500
50
270.0000
51
360.0000
0
LINE
8
PARAMETRIX
10
-350.8596
20
26.5916
11
-350.8596
21
26.6916
0
ARC
8
PARAMETRIX
10
-351.3096
20
26.6916
40
0.4500
50
0.0000
51
90.0000
0
LINE
8
PARAMETRIX
10
-351.3096
20
27.1416
11
-357.2377
21
27.1416
0
ARC
8
PARAMETRIX
10
-357.2377
20
26.6916
40
0.4500
50
90.0000
51
180.0000
0
LINE
8
PARAMETRIX
10
-357.6877
20
26.6916
11
-357.6877
21
26.5916
0
ARC
8
PARAMETRIX
10
-357.2377
20
26.5916
40
0.4500
50
180.0000
51
270.0000
0
LINE
8
PARAMETRIX
10
-349.4096
20
26.1416
11
-335.6535
21
26.1416
0
ARC
8
PARAMETRIX
10
-335.6535
20
26.5916
40
0.4500
50
270.0000
51
360.0000
0
LINE
8
PARAMETRIX
10
-335.2035
20
26.5916
11
-335.2035
21
26.6916
0
ARC
8
PARAMETRIX
10
-335.6535
20
26.6916
40
0.4500
50
0.0000
51
90.0000
0
LINE
8
PARAMETRIX
10
-335.6535
20
27.1416
11
-349.4096
21
27.1416
0
ARC
8
PARAMETRIX
10
-349.4096
20
26.6916
40
0.4500
50
90.0000
51
180.0000
0
LINE
8
PARAMETRIX
10
-349.8596
20
26.6916
11
-349.8596
21
26.5916
0
ARC
8
PARAMETRIX
10
-349.4096
20
26.5916
40
0.4500
50
180.0000
51
270.0000
0
LINE
8
PARAMETRIX
10
-333.7535
20
26.1416
11
-319.9973
21
26.1416
0
ARC
8
PARAMETRIX
10
-319.9973
20
26.5916
40
0.4500
50
270.0000
51
360.0000
0
LINE
8
PARAMETRIX
10
-319.5473
20
26.5916
11
-319.5473
21
26.6916
0
ARC
8
PARAMETRIX
10
-319.9973
20
26.6916
40
0.4500
50
0.0000
51
90.0000
0
LINE
8
PARAMETRIX
10
-319.9973
20
27.1416
11
-333.7535
21
27.1416
0
ARC
8
PARAMETRIX
10
-333.7535
20
26.6916
40
0.4500
50
90.0000
51
180.0000
0
LINE
8
PARAMETRIX
10
-334.2035
20
26.6916
11
-334.2035
21
26.5916
0
ARC
8
PARAMETRIX
10
-333.7535
20
26.5916
40
0.4500
50
180.0000
51
270.0000
0
LINE
8
PARAMETRIX
10
-318.0973
20
26.1416
11
-312.1693
21
26.1416
0
ARC
8
PARAMETRIX
10
-312.1693
20
26.5916
40
0.4500
50
270.0000
51
360.0000
0
LINE
8
PARAMETRIX
10
-311.7193
20
26.5916
11
-311.7193
21
26.6916
0
ARC
8
PARAMETRIX
10
-312.1693
20
26.6916
40
0.4500
50
0.0000
51
90.0000
0
LINE
8
PARAMETRIX
10
-312.1693
20
27.1416
11
-318.0973
21
27.1416
0
ARC
8
PARAMETRIX
10
-318.0973
20
26.6916
40
0.4500
50
90.0000
51
180.0000
0
LINE
8
PARAMETRIX
10
-318.5473
20
26.6916
11
-318.5473
21
26.5916
0
ARC
8
PARAMETRIX
10
-318.0973
20
26.5916
40
0.4500
50
180.0000
51
270.0000
0
LINE
8
PARAMETRIX
10
-356.2413
20
28.1416
11
-343.1494
21
28.1416
0
ARC
8
PARAMETRIX
10
-343.1494
20
28.5916
40
0.4500
50
270.0000
51
360.0000
0
LINE
8
PARAMETRIX
10
-342.6994
20
28.5916
11
-342.6994
21
28.6916
0
ARC
8
PARAMETRIX
10
-343.1494
20
28.6916
40
0.4500
50
0.0000
51
90.0000
0
LINE
8
PARAMETRIX
10
-343.1494
20
29.1416
11
-356.2413
21
29.1416
0
ARC
8
PARAMETRIX
10
-356.2413
20
28.6916
40
0.4500
50
90.0000
51
180.0000
0
LINE
8
PARAMETRIX
10
-356.6913
20
28.6916
11
-356.6913
21
28.5916
0
ARC
8
PARAMETRIX
10
-356.2413
20
28.5916
40
0.4500
50
180.0000
51
270.0000
0
LINE
8
PARAMETRIX
10
-341.2494
20
28.1416
11
-328.1575
21
28.1416
0
ARC
8
PARAMETRIX
10
-328.1575
20
28.5916
40
0.4500
50
270.0000
51
360.0000
0
LINE
8
PARAMETRIX
10
-327.7075
20
28.5916
11
-327.7075
21
28.6916
0
ARC
8
PARAMETRIX
10
-328.1575
20
28.6916
40
0.4500
50
0.0000
51
90.0000
0
LINE
8
PARAMETRIX
10
-328.1575
20
29.1416
11
-341.2494
21
29.1416
0
ARC
8
PARAMETRIX
10
-341.2494
20
28.6916
40
0.4500
50
90.0000
51
180.0000
0
LINE
8
PARAMETRIX
10
-341.6994
20
28.6916
11
-341.6994
21
28.5916
0
ARC
8
PARAMETRIX
10
-341.2494
20
28.5916
40
0.4500
50
180.0000
51
270.0000
0
LINE
8
PARAMETRIX
10
-326.2575
20
28.1416
11
-313.1657
21
28.1416
0
ARC
8
PARAMETRIX
10
-313.1657
20
28.5916
40
0.4500
50
270.0000
51
360.0000
0
LINE
8
PARAMETRIX
10
-312.7157
20
28.5916
11
-312.7157
21
28.6916
0
ARC
8
PARAMETRIX
10
-313.1657
20
28.6916
40
0.4500
50
0.0000
51
90.0000
0
LINE
8
PARAMETRIX
10
-313.1657
20
29.1416
11
-326.2575
21
29.1416
0
ARC
8
PARAMETRIX
10
-326.2575
20
28.6916
40
0.4500
50
90.0000
51
180.0000
0
LINE
8
PARAMETRIX
10
-326.7075
20
28.6916
11
-326.7075
21
28.5916
0
ARC
8
PARAMETRIX
10
-326.2575
20
28.5916
40
0.4500
50
180.0000
51
270.0000
0
CIRCLE
8
PARAMETRIX
10
-345.9865
20
12.7500
40
2.1250
0
CIRCLE
8
PARAMETRIX
10
-323.4205
20
12.7500
40
2.1250
0
ARC
8
PARAMETRIX
10
15.5330
20
-2.1416
40
1.0000
50
180.0000
51
0.0000
0
LINE
8
PARAMETRIX
10
16.5330
20
-2.1416
11
16.5330
21
-1.0000
0
ARC
8
PARAMETRIX
10
15.5330
20
-1.0000
40
1.0000
50
0.0000
51
180.0000
0
LINE
8
PARAMETRIX
10
14.5330
20
-1.0000
11
14.5330
21
-2.1416
0
ARC
8
PARAMETRIX
10
15.5330
20
19.1416
40
1.0000
50
0.0000
51
180.0000
0
LINE
8
PARAMETRIX
10
14.5330
20
19.1416
11
14.5330
21
18.0000
0
ARC
8
PARAMETRIX
10
15.5330
20
18.0000
40
1.0000
50
180.0000
51
0.0000
0
LINE
8
PARAMETRIX
10
16.5330
20
18.0000
11
16.5330
21
19.1416
0
LINE
8
PARAMETRIX
10
-0.0000
20
-6.6416
11
-0.0000
21
-4.6416
0
LINE
8
PARAMETRIX
10
-0.0000
20
-4.6416
11
-1.5708
21
-4.6416
0
LINE
8
PARAMETRIX
10
-1.5708
20
-4.6416
11
-1.5708
21
-6.6416
0
LINE
8
PARAMETRIX
10
-1.5708
20
-6.6416
11
-0.0000
21
-6.6416
0
LINE
8
PARAMETRIX
10
32.6368
20
-6.6416
11
32.6368
21
-4.6416
0
LINE
8
PARAMETRIX
10
32.6368
20
-4.6416
11
31.0660
21
-4.6416
0
LINE
8
PARAMETRIX
10
31.0660
20
-4.6416
11
31.0660
21
-6.6416
0
LINE
8
PARAMETRIX
10
31.0660
20
-6.6416
11
32.6368
21
-6.6416
0
ARC
8
PARAMETRIX
10
-17.1038
20
-2.1416
40
1.0000
50
180.0000
51
0.0000
0
LINE
8
PARAMETRIX
10
-16.1038
20
-2.1416
11
-16.1038
21
-1.0000
0
ARC
8
PARAMETRIX
10
-17.1038
20
-1.0000
40
1.0000
50
0.0000
51
180.0000
0
LINE
8
PARAMETRIX
10
-18.1038
20
-1.0000
11
-18.1038
21
-2.1416
0
LINE
8
PARAMETRIX
10
-32.6368
20
-6.6416
11
-32.6368
21
-4.6416
0
LINE
8
PARAMETRIX
10
-32.6368
20
-4.6416
11
-34.2076
21
-4.6416
0
LINE
8
PARAMETRIX
10
-34.2076
20
-4.6416
11
-34.2076
21
-6.6416
0
LINE
8
PARAMETRIX
10
-34.2076
20
-6.6416
11
-32.6368
21
-6.6416
0
ARC
8
PARAMETRIX
10
-49.7406
20
-2.1416
40
1.0000
50
180.0000
51
0.0000
0
LINE
8
PARAMETRIX
10
-48.7406
20
-2.1416
11
-48.7406
21
-1.0000
0
ARC
8
PARAMETRIX
10
-49.7406
20
-1.0000
40
1.0000
50
0.0000
51
180.0000
0
LINE
8
PARAMETRIX
10
-50.7406
20
-1.0000
11
-50.7406
21
-2.1416
0
LINE
8
PARAMETRIX
10
-65.2736
20
-6.6416
11
-65.2736
21
-4.6416
0
LINE
8
PARAMETRIX
10
-65.2736
20
-4.6416
11
-66.8444
21
-4.6416
0
LINE
8
PARAMETRIX
10
-66.8444
20
-4.6416
11
-66.8444
21
-6.6416
0
LINE
8
PARAMETRIX
10
-66.8444
20
-6.6416
11
-65.2736
21
-6.6416
0
ARC
8
PARAMETRIX
10
-82.3774
20
-2.1416
40
1.0000
50
180.0000
51
0.0000
0
LINE
8
PARAMETRIX
10
-81.3774
20
-2.1416
11
-81.3774
21
-1.0000
0
ARC
8
PARAMETRIX
10
-82.3774
20
-1.0000
40
1.0000
50
0.0000
51
180.0000
0
LINE
8
PARAMETRIX
10
-83.3774
20
-1.0000
11
-83.3774
21
-2.1416
0
LINE
8
PARAMETRIX
10
-97.9104
20
-6.6416
11
-97.9104
21
-4.6416
0
LINE
8
PARAMETRIX
10
-97.9104
20
-4.6416
11
-99.4812
21
-4.6416
0
LINE
8
PARAMETRIX
10
-99.4812
20
-4.6416
11
-99.4812
21
-6.6416
0
LINE
8
PARAMETRIX
10
-99.4812
20
-6.6416
11
-97.9104
21
-6.6416
0
ARC
8
PARAMETRIX
10
-115.0142
20
-2.1416
40
1.0000
50
180.0000
51
0.0000
0
LINE
8
PARAMETRIX
10
-114.0142
20
-2.1416
11
-114.0142
21
-1.0000
0
ARC
8
PARAMETRIX
10
-115.0142
20
-1.0000
40
1.0000
50
0.0000
51
180.0000
0
LINE
8
PARAMETRIX
10
-116.0142
20
-1.0000
11
-116.0142
21
-2.1416
0
LINE
8
PARAMETRIX
10
-130.5473
20
-6.6416
11
-130.5473
21
-4.6416
0
LINE
8
PARAMETRIX
10
-130.5473
20
-4.6416
11
-132.1181
21
-4.6416
0
LINE
8
PARAMETRIX
10
-132.1181
20
-4.6416
11
-132.1181
21
-6.6416
0
LINE
8
PARAMETRIX
10
-132.1181
20
-6.6416
11
-130.5473
21
-6.6416
0
ARC
8
PARAMETRIX
10
-147.6511
20
-2.1416
40
1.0000
50
180.0000
51
0.0000
0
LINE
8
PARAMETRIX
10
-146.6511
20
-2.1416
11
-146.6511
21
-1.0000
0
ARC
8
PARAMETRIX
10
-147.6511
20
-1.0000
40
1.0000
50
0.0000
51
180.0000
0
LINE
8
PARAMETRIX
10
-148.6511
20
-1.0000
11
-148.6511
21
-2.1416
0
LINE
8
PARAMETRIX
10
-163.1841
20
-6.6416
11
-163.1841
21
-4.6416
0
LINE
8
PARAMETRIX
10
-163.1841
20
-4.6416
11
-164.7549
21
-4.6416
0
LINE
8
PARAMETRIX
10
-164.7549
20
-4.6416
11
-164.7549
21
-6.6416
0
LINE
8
PARAMETRIX
10
-164.7549
20
-6.6416
11
-163.1841
21
-6.6416
0
ARC
8
PARAMETRIX
10
-180.2879
20
-2.1416
40
1.0000
50
180.0000
51
0.0000
0
LINE
8
PARAMETRIX
10
-179.2879
20
-2.1416
11
-179.2879
21
-1.0000
0
ARC
8
PARAMETRIX
10
-180.2879
20
-1.0000
40
1.0000
50
0.0000
51
180.0000
0
LINE
8
PARAMETRIX
10
-181.2879
20
-1.0000
11
-181.2879
21
-2.1416
0
LINE
8
PARAMETRIX
10
-195.8209
20
-6.6416
11
-195.8209
21
-4.6416
0
LINE
8
PARAMETRIX
10
-195.8209
20
-4.6416
11
-197.3917
21
-4.6416
0
LINE
8
PARAMETRIX
10
-197.3917
20
-4.6416
11
-197.3917
21
-6.6416
0
LINE
8
PARAMETRIX
10
-197.3917
20
-6.6416
11
-195.8209
21
-6.6416
0
ARC
8
PARAMETRIX
10
-212.9247
20
-2.1416
40
1.0000
50
180.0000
51
0.0000
0
LINE
8
PARAMETRIX
10
-211.9247
20
-2.1416
11
-211.9247
21
-1.0000
0
ARC
8
PARAMETRIX
10
-212.9247
20
-1.0000
40
1.0000
50
0.0000
51
180.0000
0
LINE
8
PARAMETRIX
10
-213.9247
20
-1.0000
11
-213.9247
21
-2.1416
0
LINE
8
PARAMETRIX
10
41.3353
20
21.6416
11
41.3353
21
23.6416
0
LINE
8
PARAMETRIX
10
41.3353
20
23.6416
11
39.7645
21
23.6416
0
LINE
8
PARAMETRIX
10
39.7645
20
23.6416
11
39.7645
21
21.6416
0
LINE
8
PARAMETRIX
10
39.7645
20
21.6416
11
41.3353
21
21.6416
0
LINE
8
PARAMETRIX
10
-8.6985
20
21.6416
11
-8.6985
21
23.6416
0
LINE
8
PARAMETRIX
10
-8.6985
20
23.6416
11
-10.2693
21
23.6416
0
LINE
8
PARAMETRIX
10
-10.2693
20
23.6416
11
-10.2693
21
21.6416
0
LINE
8
PARAMETRIX
10
-10.2693
20
21.6416
11
-8.6985
21
21.6416
0
ARC
8
PARAMETRIX
10
-34.5008
20
19.1416
40
1.0000
50
0.0000
51
180.0000
0
LINE
8
PARAMETRIX
10
-35.5008
20
19.1416
11
-35.5008
21
18.0000
0
ARC
8
PARAMETRIX
10
-34.5008
20
18.0000
40
1.0000
50
180.0000
51
0.0000
0
LINE
8
PARAMETRIX
10
-33.5008
20
18.0000
11
-33.5008
21
19.1416
0
LINE
8
PARAMETRIX
10
-58.7323
20
21.6416
11
-58.7323
21
23.6416
0
LINE
8
PARAMETRIX
10
-58.7323
20
23.6416
11
-60.3031
21
23.6416
0
LINE
8
PARAMETRIX
10
-60.3031
20
23.6416
11
-60.3031
21
21.6416
0
LINE
8
PARAMETRIX
10
-60.3031
20
21.6416
11
-58.7323
21
21.6416
0
ARC
8
PARAMETRIX
10
-84.5346
20
19.1416
40
1.0000
50
0.0000
51
180.0000
0
LINE
8
PARAMETRIX
10
-85.5346
20
19.1416
11
-85.5346
21
18.0000
0
ARC
8
PARAMETRIX
10
-84.5346
20
18.0000
40
1.0000
50
180.0000
51
0.0000
0
LINE
8
PARAMETRIX
10
-83.5346
20
18.0000
11
-83.5346
21
19.1416
0
LINE
8
PARAMETRIX
10
-108.7661
20
21.6416
11
-108.7661
21
23.6416
0
LINE
8
PARAMETRIX
10
-108.7661
20
23.6416
11
-110.3368
21
23.6416
0
LINE
8
PARAMETRIX
10
-110.3368
20
23.6416
11
-110.3368
21
21.6416
0
LINE
8
PARAMETRIX
10
-110.3368
20
21.6416
11
-108.7661
21
21.6416
0
ARC
8
PARAMETRIX
10
-134.5683
20
19.1416
40
1.0000
50
0.0000
51
180.0000
0
LINE
8
PARAMETRIX
10
-135.5683
20
19.1416
11
-135.5683
21
18.0000
0
ARC
8
PARAMETRIX
10
-134.5683
20
18.0000
40
1.0000
50
180.0000
51
0.0000
0
LINE
8
PARAMETRIX
10
-133.5683
20
18.0000
11
-133.5683
21
19.1416
0
LINE
8
PARAMETRIX
10
-158.7998
20
21.6416
11
-158.7998
21
23.6416
0
LINE
8
PARAMETRIX
10
-158.7998
20
23.6416
11
-160.3706
21
23.6416
0
LINE
8
PARAMETRIX
10
-160.3706
20
23.6416
11
-160.3706
21
21.6416
0
LINE
8
PARAMETRIX
10
-160.3706
20
21.6416
11
-158.7998
21
21.6416
0
ARC
8
PARAMETRIX
10
-184.6021
20
19.1416
40
1.0000
50
0.0000
51
180.0000
0
LINE
8
PARAMETRIX
10
-185.6021
20
19.1416
11
-185.6021
21
18.0000
0
ARC
8
PARAMETRIX
10
-184.6021
20
18.0000
40
1.0000
50
180.0000
51
0.0000
0
LINE
8
PARAMETRIX
10
-183.6021
20
18.0000
11
-183.6021
21
19.1416
0
LINE
8
PARAMETRIX
10
-208.8336
20
21.6416
11
-208.8336
21
23.6416
0
LINE
8
PARAMETRIX
10
-208.8336
20
23.6416
11
-210.4044
21
23.6416
0
LINE
8
PARAMETRIX
10
-210.4044
20
23.6416
11
-210.4044
21
21.6416
0
LINE
8
PARAMETRIX
10
-210.4044
20
21.6416
11
-208.8336
21
21.6416
0
ARC
8
PARAMETRIX
10
-234.6359
20
19.1416
40
1.0000
50
0.0000
51
180.0000
0
LINE
8
PARAMETRIX
10
-235.6359
20
19.1416
11
-235.6359
21
18.0000
0
ARC
8
PARAMETRIX
10
-234.6359
20
18.0000
40
1.0000
50
180.0000
51
0.0000
0
LINE
8
PARAMETRIX
10
-233.6359
20
18.0000
11
-233.6359
21
19.1416
0
LINE
8
PARAMETRIX
10
-258.8674
20
21.6416
11
-258.8674
21
23.6416
0
LINE
8
PARAMETRIX
10
-258.8674
20
23.6416
11
-260.4382
21
23.6416
0
LINE
8
PARAMETRIX
10
-260.4382
20
23.6416
11
-260.4382
21
21.6416
0
LINE
8
PARAMETRIX
10
-260.4382
20
21.6416
11
-258.8674
21
21.6416
0
ARC
8
PARAMETRIX
10
-284.6697
20
19.1416
40
1.0000
50
0.0000
51
180.0000
0
LINE
8
PARAMETRIX
10
-285.6697
20
19.1416
11
-285.6697
21
18.0000
0
ARC
8
PARAMETRIX
10
-284.6697
20
18.0000
40
1.0000
50
180.0000
51
0.0000
0
LINE
8
PARAMETRIX
10
-283.6697
20
18.0000
11
-283.6697
21
19.1416
0
LINE
8
PARAMETRIX
10
-308.9012
20
21.6416
11
-308.9012
21
23.6416
0
LINE
8
PARAMETRIX
10
-308.9012
20
23.6416
11
-310.4720
21
23.6416
0
LINE
8
PARAMETRIX
10
-310.4720
20
23.6416
11
-310.4720
21
21.6416
0
LINE
8
PARAMETRIX
10
-310.4720
20
21.6416
11
-308.9012
21
21.6416
0
ARC
8
PARAMETRIX
10
-334.7035
20
19.1416
40
1.0000
50
0.0000
51
180.0000
0
LINE
8
PARAMETRIX
10
-335.7035
20
19.1416
11
-335.7035
21
18.0000
0
ARC
8
PARAMETRIX
10
-334.7035
20
18.0000
40
1.0000
50
180.0000
51
0.0000
0
LINE
8
PARAMETRIX
10
-333.7035
20
18.0000
11
-333.7035
21
19.1416
0
ENDSEC
0
EOF
