<svg width="102" height="102" viewBox="-47 -47 102 102" xmlns="http://www.w3.org/2000/svg"><circle cx="0.0000" cy="0.0000" r="42.0000" stroke="green" stroke-width="1" fill="none" /><path d="M 8.8273 0.0000 L 10.9717 -0.0000 A 1.0000 1.0000 0 0 0 11.9509 -1.2028 L 11.4457 -3.6424 A 1.0000 1.0000 0 0 0 10.0693 -4.3574 L 8.1013 -3.5057 A 1.0000 1.0000 0 0 1 6.8770 -3.8614 L 6.1219 -4.9726 A 1.0000 1.0000 0 0 1 6.2418 -6.2418 L 7.7582 -7.7582 A 1.0000 1.0000 0 0 0 7.6001 -9.3011 L 5.5177 -10.6689 A 1.0000 1.0000 0 0 0 4.0389 -10.2012 L 3.2495 -8.2074 A 1.0000 1.0000 0 0 1 2.1324 -7.5932 L 0.8126 -7.8450 A 1.0000 1.0000 0 0 1 0.0000 -8.8273 L 0.0000 -10.9717 A 1.0000 1.0000 0 0 0 -1.2028 -11.9509 L -3.6424 -11.4457 A 1.0000 1.0000 0 0 0 -4.3574 -10.0693 L -3.5057 -8.1013 A 1.0000 1.0000 0 0 1 -3.8614 -6.8770 L -4.9726 -6.1219 A 1.0000 1.0000 0 0 1 -6.2418 -6.2418 L -7.7582 -7.7582 A 1.0000 1.0000 0 0 0 -9.3011 -7.6001 L -10.6689 -5.5177 A 1.0000 1.0000 0 0 0 -10.2012 -4.0389 L -8.2074 -3.2495 A 1.0000 1.0000 0 0 1 -7.5932 -2.1324 L -7.8450 -0.8126 A 1.0000 1.0000 0 0 1 -8.8273 -0.0000 L -10.9717 -0.0000 A 1.0000 1.0000 0 0 0 -11.9509 1.2028 L -11.4457 3.6424 A 1.0000 1.0000 0 0 0 -10.0693 4.3574 L -8.1013 3.5057 A 1.0000 1.0000 0 0 1 -6.8770 3.8614 L -6.1219 4.9726 A 1.0000 1.0000 0 0 1 -6.2418 6.2418 L -7.7582 7.7582 A 1.0000 1.0000 0 0 0 -7.6001 9.3011 L -5.5177 10.6689 A 1.0000 1.0000 0 0 0 -4.0389 10.2012 L -3.2495 8.2074 A 1.0000 1.0000 0 0 1 -2.1324 7.5932 L -0.8126 7.8450 A 1.0000 1.0000 0 0 1 -0.0000 8.8273 L -0.0000 10.9717 A 1.0000 1.0000 0 0 0 1.2028 11.9509 L 3.6424 11.4457 A 1.0000 1.0000 0 0 0 4.3574 10.0693 L 3.5057 8.1013 A 1.0000 1.0000 0 0 1 3.8614 6.8770 L 4.9726 6.1219 A 1.0000 1.0000 0 0 1 6.2418 6.2418 L 7.7582 7.7582 A 1.0000 1.0000 0 0 0 9.3011 7.6001 L 10.6689 5.5177 A 1.0000 1.0000 0 0 0 10.2012 4.0389 L 8.2074 3.2495 A 1.0000 1.0000 0 0 1 7.5932 2.1324 L 7.8450 0.8126 A 1.0000 1.0000 0 0 1 8.8273 0.0000 Z" stroke="green" stroke-width="1" fill="none" /><circle cx="15.0000" cy="0.0000" r="1.0000" stroke="green" stroke-width="1" fill="none" /><circle cx="10.6066" cy="-10.6066" r="1.0000" stroke="green" stroke-width="1" fill="none" /><circle cx="0.0000" cy="-15.0000" r="1.0000" stroke="green" stroke-width="1" fill="none" /><circle cx="-10.6066" cy="-10.6066" r="1.0000" stroke="green" stroke-width="1" fill="none" /><circle cx="-15.0000" cy="-0.0000" r="1.0000" stroke="green" stroke-width="1" fill="none" /><circle cx="-10.6066" cy="10.6066" r="1.0000" stroke="green" stroke-width="1" fill="none" /><circle cx="-0.0000" cy="15.0000" r="1.0000" stroke="green" stroke-width="1" fill="none" /><circle cx="10.6066" cy="10.6066" r="1.0000" stroke="green" stroke-width="1" fill="none" /><circle cx="40.0000" cy="0.0000" r="1.0000" stroke="green" stroke-width="1" fill="none" /><circle cx="36.9552" cy="-15.3073" r="1.0000" stroke="green" stroke-width="1" fill="none" /><circle cx="28.2843" cy="-28.2843" r="1.0000" stroke="green" stroke-width="1" fill="none" /><circle cx="15.3073" cy="-36.9552" r="1.0000" stroke="green" stroke-width="1" fill="none" /><circle cx="0.0000" cy="-40.0000" r="1.0000" stroke="green" stroke-width="1" fill="none" /><circle cx="-15.3073" cy="-36.9552" r="1.0000" stroke="green" stroke-width="1" fill="none" /><circle cx="-28.2843" cy="-28.2843" r="1.0000" stroke="green" stroke-width="1" fill="none" /><circle cx="-36.9552" cy="-15.3073" r="1.0000" stroke="green" stroke-width="1" fill="none" /><circle cx="-40.0000" cy="-0.0000" r="1.0000" stroke="green" stroke-width="1" fill="none" /><circle cx="-36.9552" cy="15.3073" r="1.0000" stroke="green" stroke-width="1" fill="none" /><circle cx="-28.2843" cy="28.2843" r="1.0000" stroke="green" stroke-width="1" fill="none" /><circle cx="-15.3073" cy="36.9552" r="1.0000" stroke="green" stroke-width="1" fill="none" /><circle cx="-0.0000" cy="40.0000" r="1.0000" stroke="green" stroke-width="1" fill="none" /><circle cx="15.3073" cy="36.9552" r="1.0000" stroke="green" stroke-width="1" fill="none" /><circle cx="28.2843" cy="28.2843" r="1.0000" stroke="green" stroke-width="1" fill="none" /><circle cx="36.9552" cy="15.3073" r="1.0000" stroke="green" stroke-width="1" fill="none" /><path d="M 17.0895 -0.5000 L 18.8936 -0.5000 A 2.3000 2.3000 0 0 0 21.1688 -3.1372 A 21.4000 21.4000 0 0 0 16.0299 -14.1775 A 3.3000 3.3000 0 1 1 20.9737 -18.5500 A 28.0000 28.0000 0 0 1 27.8802 -2.5875 A 2.3000 2.3000 0 0 0 32.4605 -3.0125 A 32.6000 32.6000 0 0 0 23.6367 -22.4514 A 3.3000 3.3000 0 0 1 23.5770 -26.9322 L 24.3659 -27.8083 A 1.0000 1.0000 0 0 0 24.2612 -29.2471 A 38.0000 38.0000 0 0 0 20.3185 -32.1116 A 1.0000 1.0000 0 0 0 18.9178 -31.7666 L 18.3283 -30.7456 A 3.3000 3.3000 0 0 1 14.0484 -29.4177 A 32.6000 32.6000 0 0 0 -7.1658 -31.8027 A 2.3000 2.3000 0 0 0 -6.1546 -27.3152 A 28.0000 28.0000 0 0 1 11.1609 -25.6794 A 3.3000 3.3000 0 0 1 8.5301 -19.6264 A 21.4000 21.4000 0 0 0 -3.5579 -21.1022 A 2.3000 2.3000 0 0 0 -5.3629 -18.1234 L -4.8054 -16.4076 A 0.1000 0.1000 0 0 0 -4.6828 -16.3423 A 17.0000 17.0000 0 0 1 16.9895 -0.5965 A 0.1000 0.1000 0 0 0 17.0895 -0.5000 Z" stroke="green" stroke-width="1" fill="none" /><path d="M -5.7565 -16.0985 L -6.3140 -17.8144 A 3.3000 3.3000 0 0 1 -3.7241 -22.0882 A 22.4000 22.4000 0 0 1 8.9287 -20.5436 A 2.3000 2.3000 0 0 0 10.7623 -24.7623 A 27.0000 27.0000 0 0 0 -5.9348 -26.3397 A 3.3000 3.3000 0 0 1 -7.3856 -32.7782 A 33.6000 33.6000 0 0 1 14.4793 -30.3201 A 2.3000 2.3000 0 0 0 17.4623 -31.2456 L 18.0518 -32.2666 A 1.0000 1.0000 0 0 0 17.6502 -33.6522 A 38.0000 38.0000 0 0 0 -36.8188 -9.4010 A 1.0000 1.0000 0 0 0 -36.0578 -8.1755 L -34.9046 -7.9304 A 2.3000 2.3000 0 0 0 -32.2208 -9.5279 A 33.6000 33.6000 0 0 1 -19.4171 -27.4215 A 3.3000 3.3000 0 1 1 -15.6030 -22.0351 A 27.0000 27.0000 0 0 0 -25.6034 -8.5713 A 2.3000 2.3000 0 0 0 -21.2413 -7.1110 A 22.4000 22.4000 0 0 1 -13.9228 -17.5475 A 3.3000 3.3000 0 0 1 -9.0138 -16.6124 L -8.1117 -15.0499 A 0.1000 0.1000 0 0 0 -7.9782 -15.0116 A 17.0000 17.0000 0 0 1 -5.8174 -15.9737 A 0.1000 0.1000 0 0 0 -5.7565 -16.0985 Z" stroke="green" stroke-width="1" fill="none" /><path d="M -8.9777 -14.5499 L -9.8798 -16.1124 A 2.3000 2.3000 0 0 0 -13.3013 -16.7641 A 21.4000 21.4000 0 0 0 -20.2931 -6.7935 A 3.3000 3.3000 0 0 1 -26.5517 -8.8887 A 28.0000 28.0000 0 0 1 -16.1809 -22.8512 A 2.3000 2.3000 0 0 0 -18.8392 -26.6054 A 32.6000 32.6000 0 0 0 -31.2618 -9.2443 A 3.3000 3.3000 0 0 1 -35.1125 -6.9522 L -36.2657 -7.1973 A 1.0000 1.0000 0 0 0 -37.4593 -6.3873 A 38.0000 38.0000 0 0 0 -37.9688 -1.5405 A 1.0000 1.0000 0 0 0 -36.9696 -0.5000 L -35.7906 -0.5000 A 3.3000 3.3000 0 0 1 -32.5007 2.5426 A 32.6000 32.6000 0 0 0 -23.9591 22.1071 A 2.3000 2.3000 0 1 0 -20.5783 18.9877 A 28.0000 28.0000 0 0 1 -27.8195 3.1741 A 3.3000 3.3000 0 0 1 -21.2621 2.4259 A 21.4000 21.4000 0 0 0 -16.4961 13.6323 A 2.3000 2.3000 0 0 0 -13.0139 13.7062 L -11.8067 12.3654 A 0.1000 0.1000 0 0 0 -11.8115 12.2266 A 17.0000 17.0000 0 0 1 -9.0113 -14.4151 A 0.1000 0.1000 0 0 0 -8.9777 -14.5499 Z" stroke="green" stroke-width="1" fill="none" /><path d="M -11.0635 13.0345 L -12.2707 14.3753 A 3.3000 3.3000 0 0 1 -17.2669 14.2693 A 22.4000 22.4000 0 0 1 -22.2556 2.5393 A 2.3000 2.3000 0 0 0 -26.8260 3.0607 A 27.0000 27.0000 0 0 0 -19.8434 18.3095 A 3.3000 3.3000 0 0 1 -24.6940 22.7852 A 33.6000 33.6000 0 0 1 -33.4976 2.6206 A 2.3000 2.3000 0 0 0 -35.7906 0.5000 L -36.9696 0.5000 A 1.0000 1.0000 0 0 0 -37.9688 1.5405 A 38.0000 38.0000 0 0 0 10.2679 36.5865 A 1.0000 1.0000 0 0 0 10.9487 35.3147 L 10.5844 34.1934 A 2.3000 2.3000 0 0 0 7.8590 32.6680 A 33.6000 33.6000 0 0 1 -14.0391 30.5264 A 3.3000 3.3000 0 0 1 -11.2815 24.5302 A 27.0000 27.0000 0 0 0 5.3788 26.4588 A 2.3000 2.3000 0 0 0 4.4624 21.9510 A 22.4000 22.4000 0 0 1 -8.2352 20.8313 A 3.3000 3.3000 0 0 1 -9.8798 16.1124 L -8.9777 14.5499 A 0.1000 0.1000 0 0 0 -9.0113 14.4151 A 17.0000 17.0000 0 0 1 -10.9249 13.0248 A 0.1000 0.1000 0 0 0 -11.0635 13.0345 Z" stroke="green" stroke-width="1" fill="none" /><path d="M -8.1117 15.0499 L -9.0138 16.6124 A 2.3000 2.3000 0 0 0 -7.8675 19.9013 A 21.4000 21.4000 0 0 0 4.2632 20.9711 A 3.3000 3.3000 0 0 1 5.5780 27.4388 A 28.0000 28.0000 0 0 1 -11.6993 25.4387 A 2.3000 2.3000 0 0 0 -13.6213 29.6179 A 32.6000 32.6000 0 0 0 7.6251 31.6957 A 3.3000 3.3000 0 0 1 11.5354 33.8844 L 11.8998 35.0057 A 1.0000 1.0000 0 0 0 13.1981 35.6344 A 38.0000 38.0000 0 0 0 17.6502 33.6522 A 1.0000 1.0000 0 0 0 18.0518 32.2666 L 17.4623 31.2456 A 3.3000 3.3000 0 0 1 18.4523 26.8751 A 32.6000 32.6000 0 0 0 31.1248 9.6956 A 2.3000 2.3000 0 0 0 26.7330 8.3275 A 28.0000 28.0000 0 0 1 16.6586 22.5054 A 3.3000 3.3000 0 0 1 12.7319 17.2005 A 21.4000 21.4000 0 0 0 20.0540 7.4699 A 2.3000 2.3000 0 0 0 18.3768 4.4173 L 16.6121 4.0422 A 0.1000 0.1000 0 0 0 16.4943 4.1158 A 17.0000 17.0000 0 0 1 -7.9782 15.0116 A 0.1000 0.1000 0 0 0 -8.1117 15.0499 Z" stroke="green" stroke-width="1" fill="none" /><path d="M 16.8200 3.0640 L 18.5847 3.4391 A 3.3000 3.3000 0 0 1 20.9911 7.8189 A 22.4000 22.4000 0 0 1 13.3269 18.0043 A 2.3000 2.3000 0 0 0 16.0636 21.7016 A 27.0000 27.0000 0 0 0 25.7782 8.0301 A 3.3000 3.3000 0 0 1 32.0796 9.9930 A 33.6000 33.6000 0 0 1 19.0183 27.6995 A 2.3000 2.3000 0 0 0 18.3283 30.7456 L 18.9178 31.7666 A 1.0000 1.0000 0 0 0 20.3185 32.1116 A 38.0000 38.0000 0 0 0 26.5509 -27.1855 A 1.0000 1.0000 0 0 0 25.1091 -27.1392 L 24.3202 -26.2631 A 2.3000 2.3000 0 0 0 24.3618 -23.1401 A 33.6000 33.6000 0 0 1 33.4562 -3.1050 A 3.3000 3.3000 0 0 1 26.8845 -2.4950 A 27.0000 27.0000 0 0 0 20.2246 -17.8875 A 2.3000 2.3000 0 1 0 16.7790 -14.8400 A 22.4000 22.4000 0 0 1 22.1580 -3.2838 A 3.3000 3.3000 0 0 1 18.8936 0.5000 L 17.0895 0.5000 A 0.1000 0.1000 0 0 0 16.9895 0.5965 A 17.0000 17.0000 0 0 1 16.7423 2.9489 A 0.1000 0.1000 0 0 0 16.8200 3.0640 Z" stroke="green" stroke-width="1" fill="none" /></svg>