0
SECTION
2
ENTITIES
0
CIRCLE
8
PARAMETRIX
10
0.0000
20
0.0000
40
42.0000
0
LINE
8
PARAMETRIX
10
8.8273
20
-0.0000
11
10.9717
21
0.0000
0
ARC
8
PARAMETRIX
10
10.9717
20
1.0000
40
1.0000
50
270.0000
51
11.7000
0
LINE
8
PARAMETRIX
10
11.9509
20
1.2028
11
11.4457
21
3.6424
0
ARC
8
PARAMETRIX
10
10.4665
20
3.4396
40
1.0000
50
11.7000
51
113.4000
0
LINE
8
PARAMETRIX
10
10.0693
20
4.3574
11
8.1013
21
3.5057
0
ARC
8
PARAMETRIX
10
7.7041
20
4.4235
40
1.0000
50
214.2000
51
293.4000
0
LINE
8
PARAMETRIX
10
6.8770
20
3.8614
11
6.1219
21
4.9726
0
ARC
8
PARAMETRIX
10
6.9489
20
5.5347
40
1.0000
50
135.0000
51
214.2000
0
LINE
8
PARAMETRIX
10
6.2418
20
6.2418
11
7.7582
21
7.7582
0
ARC
8
PARAMETRIX
10
7.0511
20
8.4653
40
1.0000
50
315.0000
51
56.7000
0
LINE
8
PARAMETRIX
10
7.6001
20
9.3011
11
5.5177
21
10.6689
0
ARC
8
PARAMETRIX
10
4.9687
20
9.8331
40
1.0000
50
56.7000
51
158.4000
0
LINE
8
PARAMETRIX
10
4.0389
20
10.2012
11
3.2495
21
8.2074
0
ARC
8
PARAMETRIX
10
2.3198
20
8.5755
40
1.0000
50
259.2000
51
338.4000
0
LINE
8
PARAMETRIX
10
2.1324
20
7.5932
11
0.8126
21
7.8450
0
ARC
8
PARAMETRIX
10
1.0000
20
8.8273
40
1.0000
50
180.0000
51
259.2000
0
LINE
8
PARAMETRIX
10
0.0000
20
8.8273
11
0.0000
21
10.9717
0
ARC
8
PARAMETRIX
10
-1.0000
20
10.9717
40
1.0000
50
0.0000
51
101.7000
0
LINE
8
PARAMETRIX
10
-1.2028
20
11.9509
11
-3.6424
21
11.4457
0
ARC
8
PARAMETRIX
10
-3.4396
20
10.4665
40
1.0000
50
101.7000
51
203.4000
0
LINE
8
PARAMETRIX
10
-4.3574
20
10.0693
11
-3.5057
21
8.1013
0
ARC
8
PARAMETRIX
10
-4.4235
20
7.7041
40
1.0000
50
304.2000
51
23.4000
0
LINE
8
PARAMETRIX
10
-3.8614
20
6.8770
11
-4.9726
21
6.1219
0
ARC
8
PARAMETRIX
10
-5.5347
20
6.9489
40
1.0000
50
225.0000
51
304.2000
0
LINE
8
PARAMETRIX
10
-6.2418
20
6.2418
11
-7.7582
21
7.7582
0
ARC
8
PARAMETRIX
10
-8.4653
20
7.0511
40
1.0000
50
45.0000
51
146.7000
0
LINE
8
PARAMETRIX
10
-9.3011
20
7.6001
11
-10.6689
21
5.5177
0
ARC
8
PARAMETRIX
10
-9.8331
20
4.9687
40
1.0000
50
146.7000
51
248.4000
0
LINE
8
PARAMETRIX
10
-10.2012
20
4.0389
11
-8.2074
21
3.2495
0
ARC
8
PARAMETRIX
10
-8.5755
20
2.3198
40
1.0000
50
349.2000
51
68.4000
0
LINE
8
PARAMETRIX
10
-7.5932
20
2.1324
11
-7.8450
21
0.8126
0
ARC
8
PARAMETRIX
10
-8.8273
20
1.0000
40
1.0000
50
270.0000
51
349.2000
0
LINE
8
PARAMETRIX
10
-8.8273
20
0.0000
11
-10.9717
21
0.0000
0
ARC
8
PARAMETRIX
10
-10.9717
20
-1.0000
40
1.0000
50
90.0000
51
191.7000
0
LINE
8
PARAMETRIX
10
-11.9509
20
-1.2028
11
-11.4457
21
-3.6424
0
ARC
8
PARAMETRIX
10
-10.4665
20
-3.4396
40
1.0000
50
191.7000
51
293.4000
0
LINE
8
PARAMETRIX
10
-10.0693
20
-4.3574
11
-8.1013
21
-3.5057
0
ARC
8
PARAMETRIX
10
-7.7041
20
-4.4235
40
1.0000
50
34.2000
51
113.4000
0
LINE
8
PARAMETRIX
10
-6.8770
20
-3.8614
11
-6.1219
21
-4.9726
0
ARC
8
PARAMETRIX
10
-6.9489
20
-5.5347
40
1.0000
50
315.0000
51
34.2000
0
LINE
8
PARAMETRIX
10
-6.2418
20
-6.2418
11
-7.7582
21
-7.7582
0
ARC
8
PARAMETRIX
10
-7.0511
20
-8.4653
40
1.0000
50
135.0000
51
236.7000
0
LINE
8
PARAMETRIX
10
-7.6001
20
-9.3011
11
-5.5177
21
-10.6689
0
ARC
8
PARAMETRIX
10
-4.9687
20
-9.8331
40
1.0000
50
236.7000
51
338.4000
0
LINE
8
PARAMETRIX
10
-4.0389
20
-10.2012
11
-3.2495
21
-8.2074
0
ARC
8
PARAMETRIX
10
-2.3198
20
-8.5755
40
1.0000
50
79.2000
51
158.4000
0
LINE
8
PARAMETRIX
10
-2.1324
20
-7.5932
11
-0.8126
21
-7.8450
0
ARC
8
PARAMETRIX
10
-1.0000
20
-8.8273
40
1.0000
50
0.0000
51
79.2000
0
LINE
8
PARAMETRIX
10
-0.0000
20
-8.8273
11
-0.0000
21
-10.9717
0
ARC
8
PARAMETRIX
10
1.0000
20
-10.9717
40
1.0000
50
180.0000
51
281.7000
0
LINE
8
PARAMETRIX
10
1.2028
20
-11.9509
11
3.6424
21
-11.4457
0
ARC
8
PARAMETRIX
10
3.4396
20
-10.4665
40
1.0000
50
281.7000
51
23.4000
0
LINE
8
PARAMETRIX
10
4.3574
20
-10.0693
11
3.5057
21
-8.1013
0
ARC
8
PARAMETRIX
10
4.4235
20
-7.7041
40
1.0000
50
124.2000
51
203.4000
0
LINE
8
PARAMETRIX
10
3.8614
20
-6.8770
11
4.9726
21
-6.1219
0
ARC
8
PARAMETRIX
10
5.5347
20
-6.9489
40
1.0000
50
45.0000
51
124.2000
0
LINE
8
PARAMETRIX
10
6.2418
20
-6.2418
11
7.7582
21
-7.7582
0
ARC
8
PARAMETRIX
10
8.4653
20
-7.0511
40
1.0000
50
225.0000
51
326.7000
0
LINE
8
PARAMETRIX
10
9.3011
20
-7.6001
11
10.6689
21
-5.5177
0
ARC
8
PARAMETRIX
10
9.8331
20
-4.9687
40
1.0000
50
326.7000
51
68.4000
0
LINE
8
PARAMETRIX
10
10.2012
20
-4.0389
11
8.2074
21
-3.2495
0
ARC
8
PARAMETRIX
10
8.5755
20
-2.3198
40
1.0000
50
169.2000
51
248.4000
0
LINE
8
PARAMETRIX
10
7.5932
20
-2.1324
11
7.8450
21
-0.8126
0
ARC
8
PARAMETRIX
10
8.8273
20
-1.0000
40
1.0000
50
90.0000
51
169.2000
0
CIRCLE
8
PARAMETRIX
10
15.0000
20
0.0000
40
1.0000
0
CIRCLE
8
PARAMETRIX
10
10.6066
20
10.6066
40
1.0000
0
CIRCLE
8
PARAMETRIX
10
0.0000
20
15.0000
40
1.0000
0
CIRCLE
8
PARAMETRIX
10
-10.6066
20
10.6066
40
1.0000
0
CIRCLE
8
PARAMETRIX
10
-15.0000
20
0.0000
40
1.0000
0
CIRCLE
8
PARAMETRIX
10
-10.6066
20
-10.6066
40
1.0000
0
CIRCLE
8
PARAMETRIX
10
-0.0000
20
-15.0000
40
1.0000
0
CIRCLE
8
PARAMETRIX
10
10.6066
20
-10.6066
40
1.0000
0
CIRCLE
8
PARAMETRIX
10
40.0000
20
0.0000
40
1.0000
0
CIRCLE
8
PARAMETRIX
10
36.9552
20
15.3073
40
1.0000
0
CIRCLE
8
PARAMETRIX
10
28.2843
20
28.2843
40
1.0000
0
CIRCLE
8
PARAMETRIX
10
15.3073
20
36.9552
40
1.0000
0
CIRCLE
8
PARAMETRIX
10
0.0000
20
40.0000
40
1.0000
0
CIRCLE
8
PARAMETRIX
10
-15.3073
20
36.9552
40
1.0000
0
CIRCLE
8
PARAMETRIX
10
-28.2843
20
28.2843
40
1.0000
0
CIRCLE
8
PARAMETRIX
10
-36.9552
20
15.3073
40
1.0000
0
CIRCLE
8
PARAMETRIX
10
-40.0000
20
0.0000
40
1.0000
0
CIRCLE
8
PARAMETRIX
10
-36.9552
20
-15.3073
40
1.0000
0
CIRCLE
8
PARAMETRIX
10
-28.2843
20
-28.2843
40
1.0000
0
CIRCLE
8
PARAMETRIX
10
-15.3073
20
-36.9552
40
1.0000
0
CIRCLE
8
PARAMETRIX
10
-0.0000
20
-40.0000
40
1.0000
0
CIRCLE
8
PARAMETRIX
10
15.3073
20
-36.9552
40
1.0000
0
CIRCLE
8
PARAMETRIX
10
28.2843
20
-28.2843
40
1.0000
0
CIRCLE
8
PARAMETRIX
10
36.9552
20
-15.3073
40
1.0000
0
LINE
8
PARAMETRIX
10
17.0895
20
0.5000
11
18.8936
21
0.5000
0
ARC
8
PARAMETRIX
10
18.8936
20
2.8000
40
2.3000
50
270.0000
51
8.4298
0
ARC
8
PARAMETRIX
10
-0.0000
20
-0.0000
40
21.4000
50
8.4298
51
41.4909
0
ARC
8
PARAMETRIX
10
18.5018
20
16.3638
40
3.3000
50
41.4909
51
221.4909
0
ARC
8
PARAMETRIX
10
-0.0000
20
-0.0000
40
28.0000
50
5.3022
51
41.4909
0
ARC
8
PARAMETRIX
10
30.1703
20
2.8000
40
2.3000
50
185.3022
51
5.3022
0
ARC
8
PARAMETRIX
10
0.0000
20
0.0000
40
32.6000
50
5.3022
51
43.5267
0
ARC
8
PARAMETRIX
10
26.0294
20
24.7241
40
3.3000
50
138.0000
51
223.5267
0
LINE
8
PARAMETRIX
10
23.5770
20
26.9322
11
24.3659
21
27.8083
0
ARC
8
PARAMETRIX
10
23.6228
20
28.4774
40
1.0000
50
318.0000
51
50.3234
0
ARC
8
PARAMETRIX
10
0.0000
20
0.0000
40
38.0000
50
50.3234
51
57.6766
0
ARC
8
PARAMETRIX
10
19.7838
20
31.2666
40
1.0000
50
57.6766
51
150.0000
0
LINE
8
PARAMETRIX
10
18.9178
20
31.7666
11
18.3283
21
30.7456
0
ARC
8
PARAMETRIX
10
15.4704
20
32.3956
40
3.3000
50
244.4733
51
330.0000
0
ARC
8
PARAMETRIX
10
-0.0000
20
0.0000
40
32.6000
50
64.4733
51
102.6978
0
ARC
8
PARAMETRIX
10
-6.6602
20
29.5590
40
2.3000
50
102.6978
51
282.6978
0
ARC
8
PARAMETRIX
10
-0.0000
20
-0.0000
40
28.0000
50
66.5091
51
102.6978
0
ARC
8
PARAMETRIX
10
9.8455
20
22.6529
40
3.3000
50
246.5091
51
66.5091
0
ARC
8
PARAMETRIX
10
-0.0000
20
-0.0000
40
21.4000
50
66.5091
51
99.5702
0
ARC
8
PARAMETRIX
10
-3.1755
20
18.8342
40
2.3000
50
99.5702
51
198.0000
0
LINE
8
PARAMETRIX
10
-5.3629
20
18.1234
11
-4.8054
21
16.4076
0
ARC
8
PARAMETRIX
10
-4.7103
20
16.4385
40
0.1000
50
198.0000
51
285.9892
0
ARC
8
PARAMETRIX
10
0.0000
20
0.0000
40
17.0000
50
2.0108
51
105.9892
0
ARC
8
PARAMETRIX
10
17.0895
20
0.6000
40
0.1000
50
182.0108
51
270.0000
0
LINE
8
PARAMETRIX
10
-5.7565
20
16.0985
11
-6.3140
21
17.8144
0
ARC
8
PARAMETRIX
10
-3.1755
20
18.8342
40
3.3000
50
99.5702
51
198.0000
0
ARC
8
PARAMETRIX
10
-0.0000
20
-0.0000
40
22.4000
50
66.5091
51
99.5702
0
ARC
8
PARAMETRIX
10
9.8455
20
22.6529
40
2.3000
50
246.5091
51
66.5091
0
ARC
8
PARAMETRIX
10
0.0000
20
-0.0000
40
27.0000
50
66.5091
51
102.6978
0
ARC
8
PARAMETRIX
10
-6.6602
20
29.5590
40
3.3000
50
102.6978
51
282.6978
0
ARC
8
PARAMETRIX
10
0.0000
20
0.0000
40
33.6000
50
64.4733
51
102.6978
0
ARC
8
PARAMETRIX
10
15.4704
20
32.3956
40
2.3000
50
244.4733
51
330.0000
0
LINE
8
PARAMETRIX
10
17.4623
20
31.2456
11
18.0518
21
32.2666
0
ARC
8
PARAMETRIX
10
17.1858
20
32.7666
40
1.0000
50
330.0000
51
62.3234
0
ARC
8
PARAMETRIX
10
-0.0000
20
0.0000
40
38.0000
50
62.3234
51
165.6766
0
ARC
8
PARAMETRIX
10
-35.8498
20
9.1536
40
1.0000
50
165.6766
51
258.0000
0
LINE
8
PARAMETRIX
10
-36.0578
20
8.1755
11
-34.9046
21
7.9304
0
ARC
8
PARAMETRIX
10
-34.4264
20
10.1801
40
2.3000
50
258.0000
51
343.5267
0
ARC
8
PARAMETRIX
10
0.0000
20
-0.0000
40
33.6000
50
125.3022
51
163.5267
0
ARC
8
PARAMETRIX
10
-17.5100
20
24.7283
40
3.3000
50
305.3022
51
125.3022
0
ARC
8
PARAMETRIX
10
-0.0000
20
0.0000
40
27.0000
50
125.3022
51
161.4909
0
ARC
8
PARAMETRIX
10
-23.4224
20
7.8411
40
2.3000
50
161.4909
51
341.4909
0
ARC
8
PARAMETRIX
10
-0.0000
20
0.0000
40
22.4000
50
128.4298
51
161.4909
0
ARC
8
PARAMETRIX
10
-11.8717
20
14.9624
40
3.3000
50
30.0000
51
128.4298
0
LINE
8
PARAMETRIX
10
-9.0138
20
16.6124
11
-8.1117
21
15.0499
0
ARC
8
PARAMETRIX
10
-8.0251
20
15.0999
40
0.1000
50
210.0000
51
297.9892
0
ARC
8
PARAMETRIX
10
0.0000
20
-0.0000
40
17.0000
50
110.0108
51
117.9892
0
ARC
8
PARAMETRIX
10
-5.8516
20
16.0676
40
0.1000
50
290.0108
51
18.0000
0
LINE
8
PARAMETRIX
10
-8.9777
20
14.5499
11
-9.8798
21
16.1124
0
ARC
8
PARAMETRIX
10
-11.8717
20
14.9624
40
2.3000
50
30.0000
51
128.4298
0
ARC
8
PARAMETRIX
10
0.0000
20
-0.0000
40
21.4000
50
128.4298
51
161.4909
0
ARC
8
PARAMETRIX
10
-23.4224
20
7.8411
40
3.3000
50
161.4909
51
341.4909
0
ARC
8
PARAMETRIX
10
0.0000
20
-0.0000
40
28.0000
50
125.3022
51
161.4909
0
ARC
8
PARAMETRIX
10
-17.5100
20
24.7283
40
2.3000
50
305.3022
51
125.3022
0
ARC
8
PARAMETRIX
10
-0.0000
20
-0.0000
40
32.6000
50
125.3022
51
163.5267
0
ARC
8
PARAMETRIX
10
-34.4264
20
10.1801
40
3.3000
50
258.0000
51
343.5267
0
LINE
8
PARAMETRIX
10
-35.1125
20
6.9522
11
-36.2657
21
7.1973
0
ARC
8
PARAMETRIX
10
-36.4736
20
6.2192
40
1.0000
50
78.0000
51
170.3234
0
ARC
8
PARAMETRIX
10
-0.0000
20
0.0000
40
38.0000
50
170.3234
51
177.6766
0
ARC
8
PARAMETRIX
10
-36.9696
20
1.5000
40
1.0000
50
177.6766
51
270.0000
0
LINE
8
PARAMETRIX
10
-36.9696
20
0.5000
11
-35.7906
21
0.5000
0
ARC
8
PARAMETRIX
10
-35.7906
20
-2.8000
40
3.3000
50
4.4733
51
90.0000
0
ARC
8
PARAMETRIX
10
-0.0000
20
-0.0000
40
32.6000
50
184.4733
51
222.6978
0
ARC
8
PARAMETRIX
10
-22.2687
20
-20.5474
40
2.3000
50
222.6978
51
42.6978
0
ARC
8
PARAMETRIX
10
0.0000
20
0.0000
40
28.0000
50
186.5091
51
222.6978
0
ARC
8
PARAMETRIX
10
-24.5408
20
-2.8000
40
3.3000
50
6.5091
51
186.5091
0
ARC
8
PARAMETRIX
10
0.0000
20
0.0000
40
21.4000
50
186.5091
51
219.5702
0
ARC
8
PARAMETRIX
10
-14.7231
20
-12.1672
40
2.3000
50
219.5702
51
318.0000
0
LINE
8
PARAMETRIX
10
-13.0139
20
-13.7062
11
-11.8067
21
-12.3654
0
ARC
8
PARAMETRIX
10
-11.8810
20
-12.2985
40
0.1000
50
318.0000
51
45.9892
0
ARC
8
PARAMETRIX
10
0.0000
20
-0.0000
40
17.0000
50
122.0108
51
225.9892
0
ARC
8
PARAMETRIX
10
-9.0644
20
14.4999
40
0.1000
50
302.0108
51
30.0000
0
LINE
8
PARAMETRIX
10
-11.0635
20
-13.0345
11
-12.2707
21
-14.3753
0
ARC
8
PARAMETRIX
10
-14.7231
20
-12.1672
40
3.3000
50
219.5702
51
318.0000
0
ARC
8
PARAMETRIX
10
0.0000
20
0.0000
40
22.4000
50
186.5091
51
219.5702
0
ARC
8
PARAMETRIX
10
-24.5408
20
-2.8000
40
2.3000
50
6.5091
51
186.5091
0
ARC
8
PARAMETRIX
10
0.0000
20
0.0000
40
27.0000
50
186.5091
51
222.6978
0
ARC
8
PARAMETRIX
10
-22.2687
20
-20.5474
40
3.3000
50
222.6978
51
42.6978
0
ARC
8
PARAMETRIX
10
-0.0000
20
-0.0000
40
33.6000
50
184.4733
51
222.6978
0
ARC
8
PARAMETRIX
10
-35.7906
20
-2.8000
40
2.3000
50
4.4733
51
90.0000
0
LINE
8
PARAMETRIX
10
-35.7906
20
-0.5000
11
-36.9696
21
-0.5000
0
ARC
8
PARAMETRIX
10
-36.9696
20
-1.5000
40
1.0000
50
90.0000
51
182.3234
0
ARC
8
PARAMETRIX
10
-0.0000
20
-0.0000
40
38.0000
50
182.3234
51
285.6766
0
ARC
8
PARAMETRIX
10
9.9976
20
-35.6237
40
1.0000
50
285.6766
51
18.0000
0
LINE
8
PARAMETRIX
10
10.9487
20
-35.3147
11
10.5844
21
-34.1934
0
ARC
8
PARAMETRIX
10
8.3970
20
-34.9042
40
2.3000
50
18.0000
51
103.5267
0
ARC
8
PARAMETRIX
10
0.0000
20
0.0000
40
33.6000
50
245.3022
51
283.5267
0
ARC
8
PARAMETRIX
10
-12.6603
20
-27.5283
40
3.3000
50
65.3022
51
245.3022
0
ARC
8
PARAMETRIX
10
-0.0000
20
-0.0000
40
27.0000
50
245.3022
51
281.4909
0
ARC
8
PARAMETRIX
10
4.9206
20
-24.2049
40
2.3000
50
281.4909
51
101.4909
0
ARC
8
PARAMETRIX
10
-0.0000
20
-0.0000
40
22.4000
50
248.4298
51
281.4909
0
ARC
8
PARAMETRIX
10
-7.0220
20
-17.7624
40
3.3000
50
150.0000
51
248.4298
0
LINE
8
PARAMETRIX
10
-9.8798
20
-16.1124
11
-8.9777
21
-14.5499
0
ARC
8
PARAMETRIX
10
-9.0644
20
-14.4999
40
0.1000
50
330.0000
51
57.9892
0
ARC
8
PARAMETRIX
10
0.0000
20
0.0000
40
17.0000
50
230.0108
51
237.9892
0
ARC
8
PARAMETRIX
10
-10.9892
20
-13.1014
40
0.1000
50
50.0108
51
138.0000
0
LINE
8
PARAMETRIX
10
-8.1117
20
-15.0499
11
-9.0138
21
-16.6124
0
ARC
8
PARAMETRIX
10
-7.0220
20
-17.7624
40
2.3000
50
150.0000
51
248.4298
0
ARC
8
PARAMETRIX
10
0.0000
20
0.0000
40
21.4000
50
248.4298
51
281.4909
0
ARC
8
PARAMETRIX
10
4.9206
20
-24.2049
40
3.3000
50
281.4909
51
101.4909
0
ARC
8
PARAMETRIX
10
0.0000
20
0.0000
40
28.0000
50
245.3022
51
281.4909
0
ARC
8
PARAMETRIX
10
-12.6603
20
-27.5283
40
2.3000
50
65.3022
51
245.3022
0
ARC
8
PARAMETRIX
10
0.0000
20
-0.0000
40
32.6000
50
245.3022
51
283.5267
0
ARC
8
PARAMETRIX
10
8.3970
20
-34.9042
40
3.3000
50
18.0000
51
103.5267
0
LINE
8
PARAMETRIX
10
11.5354
20
-33.8844
11
11.8998
21
-35.0057
0
ARC
8
PARAMETRIX
10
12.8508
20
-34.6966
40
1.0000
50
198.0000
51
290.3234
0
ARC
8
PARAMETRIX
10
0.0000
20
-0.0000
40
38.0000
50
290.3234
51
297.6766
0
ARC
8
PARAMETRIX
10
17.1858
20
-32.7666
40
1.0000
50
297.6766
51
30.0000
0
LINE
8
PARAMETRIX
10
18.0518
20
-32.2666
11
17.4623
21
-31.2456
0
ARC
8
PARAMETRIX
10
20.3202
20
-29.5956
40
3.3000
50
124.4733
51
210.0000
0
ARC
8
PARAMETRIX
10
0.0000
20
0.0000
40
32.6000
50
304.4733
51
342.6978
0
ARC
8
PARAMETRIX
10
28.9289
20
-9.0116
40
2.3000
50
342.6978
51
162.6978
0
ARC
8
PARAMETRIX
10
-0.0000
20
0.0000
40
28.0000
50
306.5091
51
342.6978
0
ARC
8
PARAMETRIX
10
14.6953
20
-19.8529
40
3.3000
50
126.5091
51
306.5091
0
ARC
8
PARAMETRIX
10
-0.0000
20
0.0000
40
21.4000
50
306.5091
51
339.5702
0
ARC
8
PARAMETRIX
10
17.8986
20
-6.6670
40
2.3000
50
339.5702
51
78.0000
0
LINE
8
PARAMETRIX
10
18.3768
20
-4.4173
11
16.6121
21
-4.0422
0
ARC
8
PARAMETRIX
10
16.5913
20
-4.1400
40
0.1000
50
78.0000
51
165.9892
0
ARC
8
PARAMETRIX
10
0.0000
20
0.0000
40
17.0000
50
242.0108
51
345.9892
0
ARC
8
PARAMETRIX
10
-8.0251
20
-15.0999
40
0.1000
50
62.0108
51
150.0000
0
LINE
8
PARAMETRIX
10
16.8200
20
-3.0640
11
18.5847
21
-3.4391
0
ARC
8
PARAMETRIX
10
17.8986
20
-6.6670
40
3.3000
50
339.5702
51
78.0000
0
ARC
8
PARAMETRIX
10
-0.0000
20
0.0000
40
22.4000
50
306.5091
51
339.5702
0
ARC
8
PARAMETRIX
10
14.6953
20
-19.8529
40
2.3000
50
126.5091
51
306.5091
0
ARC
8
PARAMETRIX
10
-0.0000
20
0.0000
40
27.0000
50
306.5091
51
342.6978
0
ARC
8
PARAMETRIX
10
28.9289
20
-9.0116
40
3.3000
50
342.6978
51
162.6978
0
ARC
8
PARAMETRIX
10
0.0000
20
-0.0000
40
33.6000
50
304.4733
51
342.6978
0
ARC
8
PARAMETRIX
10
20.3202
20
-29.5956
40
2.3000
50
124.4733
51
210.0000
0
LINE
8
PARAMETRIX
10
18.3283
20
-30.7456
11
18.9178
21
-31.7666
0
ARC
8
PARAMETRIX
10
19.7838
20
-31.2666
40
1.0000
50
210.0000
51
302.3234
0
ARC
8
PARAMETRIX
10
0.0000
20
-0.0000
40
38.0000
50
302.3234
51
45.6766
0
ARC
8
PARAMETRIX
10
25.8522
20
26.4701
40
1.0000
50
45.6766
51
138.0000
0
LINE
8
PARAMETRIX
10
25.1091
20
27.1392
11
24.3202
21
26.2631
0
ARC
8
PARAMETRIX
10
26.0294
20
24.7241
40
2.3000
50
138.0000
51
223.5267
0
ARC
8
PARAMETRIX
10
-0.0000
20
-0.0000
40
33.6000
50
5.3022
51
43.5267
0
ARC
8
PARAMETRIX
10
30.1703
20
2.8000
40
3.3000
50
185.3022
51
5.3022
0
ARC
8
PARAMETRIX
10
0.0000
20
0.0000
40
27.0000
50
5.3022
51
41.4909
0
ARC
8
PARAMETRIX
10
18.5018
20
16.3638
40
2.3000
50
41.4909
51
221.4909
0
ARC
8
PARAMETRIX
10
0.0000
20
-0.0000
40
22.4000
50
8.4298
51
41.4909
0
ARC
8
PARAMETRIX
10
18.8936
20
2.8000
40
3.3000
50
270.0000
51
8.4298
0
LINE
8
PARAMETRIX
10
18.8936
20
-0.5000
11
17.0895
21
-0.5000
0
ARC
8
PARAMETRIX
10
17.0895
20
-0.6000
40
0.1000
50
90.0000
51
177.9892
0
ARC
8
PARAMETRIX
10
-0.0000
20
0.0000
40
17.0000
50
350.0108
51
357.9892
0
ARC
8
PARAMETRIX
10
16.8408
20
-2.9662
40
0.1000
50
170.0108
51
258.0000
0
ENDSEC
0
EOF
