<svg width="24" height="44" viewBox="3 -18 24 44" xmlns="http://www.w3.org/2000/svg"><path d="M 4.0000 -1.0000 A 0.5000 0.5000 0 0 0 5.0000 -1.0000 L 5.0000 -15.5000 L 4.0000 -15.5000 L 4.0000 -1.0000 Z" stroke="green" stroke-width="1" fill="none" /><path d="M 4.0000 15.5000 L 5.0000 15.5000 L 5.0000 1.0000 A 0.5000 0.5000 0 0 0 4.0000 1.0000 L 4.0000 15.5000 Z" stroke="green" stroke-width="1" fill="none" /><path d="M 10.0000 -1.0000 A 0.5000 0.5000 0 0 0 11.0000 -1.0000 L 11.0000 -15.5000 L 10.0000 -15.5000 L 10.0000 -1.0000 Z" stroke="green" stroke-width="1" fill="none" /><path d="M 10.0000 15.5000 L 11.0000 15.5000 L 11.0000 1.0000 A 0.5000 0.5000 0 0 0 10.0000 1.0000 L 10.0000 15.5000 Z" stroke="green" stroke-width="1" fill="none" /><path d="M 16.0000 -1.0000 A 0.5000 0.5000 0 0 0 17.0000 -1.0000 L 17.0000 -15.5000 L 16.0000 -15.5000 L 16.0000 -1.0000 Z" stroke="green" stroke-width="1" fill="none" /><path d="M 16.0000 15.5000 L 17.0000 15.5000 L 17.0000 1.0000 A 0.5000 0.5000 0 0 0 16.0000 1.0000 L 16.0000 15.5000 Z" stroke="green" stroke-width="1" fill="none" /></svg>