<svg width="43" height="43" viewBox="-17 -17 43 43" xmlns="http://www.w3.org/2000/svg"><circle cx="0.0000" cy="0.0000" r="15.0000" stroke="green" stroke-width="1" fill="none" /><path d="M 8.8273 0.0000 L 10.9717 -0.0000 A 1.0000 1.0000 0 0 0 11.9509 -1.2028 L 11.4457 -3.6424 A 1.0000 1.0000 0 0 0 10.0693 -4.3574 L 8.1013 -3.5057 A 1.0000 1.0000 0 0 1 6.8770 -3.8614 L 6.1219 -4.9726 A 1.0000 1.0000 0 0 1 6.2418 -6.2418 L 7.7582 -7.7582 A 1.0000 1.0000 0 0 0 7.6001 -9.3011 L 5.5177 -10.6689 A 1.0000 1.0000 0 0 0 4.0389 -10.2012 L 3.2495 -8.2074 A 1.0000 1.0000 0 0 1 2.1324 -7.5932 L 0.8126 -7.8450 A 1.0000 1.0000 0 0 1 0.0000 -8.8273 L 0.0000 -10.9717 A 1.0000 1.0000 0 0 0 -1.2028 -11.9509 L -3.6424 -11.4457 A 1.0000 1.0000 0 0 0 -4.3574 -10.0693 L -3.5057 -8.1013 A 1.0000 1.0000 0 0 1 -3.8614 -6.8770 L -4.9726 -6.1219 A 1.0000 1.0000 0 0 1 -6.2418 -6.2418 L -7.7582 -7.7582 A 1.0000 1.0000 0 0 0 -9.3011 -7.6001 L -10.6689 -5.5177 A 1.0000 1.0000 0 0 0 -10.2012 -4.0389 L -8.2074 -3.2495 A 1.0000 1.0000 0 0 1 -7.5932 -2.1324 L -7.8450 -0.8126 A 1.0000 1.0000 0 0 1 -8.8273 -0.0000 L -10.9717 -0.0000 A 1.0000 1.0000 0 0 0 -11.9509 1.2028 L -11.4457 3.6424 A 1.0000 1.0000 0 0 0 -10.0693 4.3574 L -8.1013 3.5057 A 1.0000 1.0000 0 0 1 -6.8770 3.8614 L -6.1219 4.9726 A 1.0000 1.0000 0 0 1 -6.2418 6.2418 L -7.7582 7.7582 A 1.0000 1.0000 0 0 0 -7.6001 9.3011 L -5.5177 10.6689 A 1.0000 1.0000 0 0 0 -4.0389 10.2012 L -3.2495 8.2074 A 1.0000 1.0000 0 0 1 -2.1324 7.5932 L -0.8126 7.8450 A 1.0000 1.0000 0 0 1 -0.0000 8.8273 L -0.0000 10.9717 A 1.0000 1.0000 0 0 0 1.2028 11.9509 L 3.6424 11.4457 A 1.0000 1.0000 0 0 0 4.3574 10.0693 L 3.5057 8.1013 A 1.0000 1.0000 0 0 1 3.8614 6.8770 L 4.9726 6.1219 A 1.0000 1.0000 0 0 1 6.2418 6.2418 L 7.7582 7.7582 A 1.0000 1.0000 0 0 0 9.3011 7.6001 L 10.6689 5.5177 A 1.0000 1.0000 0 0 0 10.2012 4.0389 L 8.2074 3.2495 A 1.0000 1.0000 0 0 1 7.5932 2.1324 L 7.8450 0.8126 A 1.0000 1.0000 0 0 1 8.8273 0.0000 Z" stroke="green" stroke-width="1" fill="none" /></svg>