<svg width="24" height="44" viewBox="6 -18 24 44" xmlns="http://www.w3.org/2000/svg"><path d="M 7.0000 -1.0000 A 0.5000 0.5000 0 0 0 8.0000 -1.0000 L 8.0000 -15.5000 L 7.0000 -15.5000 L 7.0000 -1.0000 Z" stroke="green" stroke-width="1" fill="none" /><path d="M 7.0000 15.5000 L 8.0000 15.5000 L 8.0000 1.0000 A 0.5000 0.5000 0 0 0 7.0000 1.0000 L 7.0000 15.5000 Z" stroke="green" stroke-width="1" fill="none" /><path d="M 13.0000 -1.0000 A 0.5000 0.5000 0 0 0 14.0000 -1.0000 L 14.0000 -15.5000 L 13.0000 -15.5000 L 13.0000 -1.0000 Z" stroke="green" stroke-width="1" fill="none" /><path d="M 13.0000 15.5000 L 14.0000 15.5000 L 14.0000 1.0000 A 0.5000 0.5000 0 0 0 13.0000 1.0000 L 13.0000 15.5000 Z" stroke="green" stroke-width="1" fill="none" /><path d="M 19.0000 -1.0000 A 0.5000 0.5000 0 0 0 20.0000 -1.0000 L 20.0000 -15.5000 L 19.0000 -15.5000 L 19.0000 -1.0000 Z" stroke="green" stroke-width="1" fill="none" /><path d="M 19.0000 15.5000 L 20.0000 15.5000 L 20.0000 1.0000 A 0.5000 0.5000 0 0 0 19.0000 1.0000 L 19.0000 15.5000 Z" stroke="green" stroke-width="1" fill="none" /></svg>