0
SECTION
2
ENTITIES
0
LINE
8
PARAMETRIX
10
1500.0000
20
1000.0000
11
1820.0000
21
1240.0000
0
LINE
8
PARAMETRIX
10
1820.0000
20
1240.0000
11
1695.0327
21
1383.9774
0
LINE
8
PARAMETRIX
10
1695.0327
20
1383.9774
11
1412.4061
21
1100.9187
0
LINE
8
PARAMETRIX
10
1412.4061
20
1100.9187
11
1500.0000
21
1000.0000
0
LINE
8
PARAMETRIX
10
1412.4061
20
1100.9187
11
1695.0327
21
1383.9774
0
LINE
8
PARAMETRIX
10
1695.0327
20
1383.9774
11
1550.8646
21
1508.7246
0
LINE
8
PARAMETRIX
10
1550.8646
20
1508.7246
11
1311.3537
21
1188.3583
0
LINE
8
PARAMETRIX
10
1311.3537
20
1188.3583
11
1412.4061
21
1100.9187
0
LINE
8
PARAMETRIX
10
1311.3537
20
1188.3583
11
1550.8646
21
1508.7246
0
LINE
8
PARAMETRIX
10
1550.8646
20
1508.7246
11
1390.4249
21
1611.7070
0
LINE
8
PARAMETRIX
10
1390.4249
20
1611.7070
11
1198.8960
21
1260.5423
0
LINE
8
PARAMETRIX
10
1198.8960
20
1260.5423
11
1311.3537
21
1188.3583
0
LINE
8
PARAMETRIX
10
1198.8960
20
1260.5423
11
1390.4249
21
1611.7070
0
LINE
8
PARAMETRIX
10
1390.4249
20
1611.7070
11
1216.9733
21
1690.8324
0
LINE
8
PARAMETRIX
10
1216.9733
20
1690.8324
11
1077.3177
21
1316.0041
0
LINE
8
PARAMETRIX
10
1077.3177
20
1316.0041
11
1198.8960
21
1260.5423
0
LINE
8
PARAMETRIX
10
1077.3177
20
1316.0041
11
1216.9733
21
1690.8324
0
LINE
8
PARAMETRIX
10
1216.9733
20
1690.8324
11
1034.0338
21
1744.4931
0
LINE
8
PARAMETRIX
10
1034.0338
20
1744.4931
11
949.0891
21
1353.6167
0
LINE
8
PARAMETRIX
10
949.0891
20
1353.6167
11
1077.3177
21
1316.0041
0
LINE
8
PARAMETRIX
10
949.0891
20
1353.6167
11
1034.0338
21
1744.4931
0
LINE
8
PARAMETRIX
10
1034.0338
20
1744.4931
11
845.3235
21
1771.5988
0
LINE
8
PARAMETRIX
10
845.3235
20
1771.5988
11
816.8156
21
1372.6160
0
LINE
8
PARAMETRIX
10
816.8156
20
1372.6160
11
949.0891
21
1353.6167
0
LINE
8
PARAMETRIX
10
816.8156
20
1372.6160
11
845.3235
21
1771.5988
0
LINE
8
PARAMETRIX
10
845.3235
20
1771.5988
11
654.6765
21
1771.5988
0
LINE
8
PARAMETRIX
10
654.6765
20
1771.5988
11
683.1844
21
1372.6160
0
LINE
8
PARAMETRIX
10
683.1844
20
1372.6160
11
816.8156
21
1372.6160
0
LINE
8
PARAMETRIX
10
683.1844
20
1372.6160
11
654.6765
21
1771.5988
0
LINE
8
PARAMETRIX
10
654.6765
20
1771.5988
11
465.9662
21
1744.4931
0
LINE
8
PARAMETRIX
10
465.9662
20
1744.4931
11
550.9109
21
1353.6167
0
LINE
8
PARAMETRIX
10
550.9109
20
1353.6167
11
683.1844
21
1372.6160
0
LINE
8
PARAMETRIX
10
550.9109
20
1353.6167
11
465.9662
21
1744.4931
0
LINE
8
PARAMETRIX
10
465.9662
20
1744.4931
11
283.0267
21
1690.8324
0
LINE
8
PARAMETRIX
10
283.0267
20
1690.8324
11
422.6823
21
1316.0041
0
LINE
8
PARAMETRIX
10
422.6823
20
1316.0041
11
550.9109
21
1353.6167
0
LINE
8
PARAMETRIX
10
422.6823
20
1316.0041
11
283.0267
21
1690.8324
0
LINE
8
PARAMETRIX
10
283.0267
20
1690.8324
11
109.5751
21
1611.7070
0
LINE
8
PARAMETRIX
10
109.5751
20
1611.7070
11
301.1040
21
1260.5423
0
LINE
8
PARAMETRIX
10
301.1040
20
1260.5423
11
422.6823
21
1316.0041
0
LINE
8
PARAMETRIX
10
301.1040
20
1260.5423
11
109.5751
21
1611.7070
0
LINE
8
PARAMETRIX
10
109.5751
20
1611.7070
11
-50.8646
21
1508.7246
0
LINE
8
PARAMETRIX
10
-50.8646
20
1508.7246
11
188.6463
21
1188.3583
0
LINE
8
PARAMETRIX
10
188.6463
20
1188.3583
11
301.1040
21
1260.5423
0
LINE
8
PARAMETRIX
10
188.6463
20
1188.3583
11
-50.8646
21
1508.7246
0
LINE
8
PARAMETRIX
10
-50.8646
20
1508.7246
11
-195.0327
21
1383.9774
0
LINE
8
PARAMETRIX
10
-195.0327
20
1383.9774
11
87.5939
21
1100.9187
0
LINE
8
PARAMETRIX
10
87.5939
20
1100.9187
11
188.6463
21
1188.3583
0
LINE
8
PARAMETRIX
10
87.5939
20
1100.9187
11
-195.0327
21
1383.9774
0
LINE
8
PARAMETRIX
10
-195.0327
20
1383.9774
11
-320.0000
21
1240.0000
0
LINE
8
PARAMETRIX
10
-320.0000
20
1240.0000
11
0.0000
21
1000.0000
0
LINE
8
PARAMETRIX
10
0.0000
20
1000.0000
11
87.5939
21
1100.9187
0
LINE
8
PARAMETRIX
10
-399.8000
20
0.2000
11
-0.2000
21
0.2000
0
LINE
8
PARAMETRIX
10
-0.2000
20
0.2000
11
-0.2000
21
199.8000
0
LINE
8
PARAMETRIX
10
-0.2000
20
199.8000
11
-399.8000
21
199.8000
0
LINE
8
PARAMETRIX
10
-399.8000
20
199.8000
11
-399.8000
21
0.2000
0
LINE
8
PARAMETRIX
10
1500.2000
20
0.2000
11
1899.8000
21
0.2000
0
LINE
8
PARAMETRIX
10
1899.8000
20
0.2000
11
1899.8000
21
199.8000
0
LINE
8
PARAMETRIX
10
1899.8000
20
199.8000
11
1500.2000
21
199.8000
0
LINE
8
PARAMETRIX
10
1500.2000
20
199.8000
11
1500.2000
21
0.2000
0
LINE
8
PARAMETRIX
10
-199.8000
20
200.2000
11
-0.2000
21
200.2000
0
LINE
8
PARAMETRIX
10
-0.2000
20
200.2000
11
-0.2000
21
399.8000
0
LINE
8
PARAMETRIX
10
-0.2000
20
399.8000
11
-199.8000
21
399.8000
0
LINE
8
PARAMETRIX
10
-199.8000
20
399.8000
11
-199.8000
21
200.2000
0
LINE
8
PARAMETRIX
10
1500.2000
20
200.2000
11
1699.8000
21
200.2000
0
LINE
8
PARAMETRIX
10
1699.8000
20
200.2000
11
1699.8000
21
399.8000
0
LINE
8
PARAMETRIX
10
1699.8000
20
399.8000
11
1500.2000
21
399.8000
0
LINE
8
PARAMETRIX
10
1500.2000
20
399.8000
11
1500.2000
21
200.2000
0
LINE
8
PARAMETRIX
10
-399.8000
20
400.2000
11
-0.2000
21
400.2000
0
LINE
8
PARAMETRIX
10
-0.2000
20
400.2000
11
-0.2000
21
599.8000
0
LINE
8
PARAMETRIX
10
-0.2000
20
599.8000
11
-399.8000
21
599.8000
0
LINE
8
PARAMETRIX
10
-399.8000
20
599.8000
11
-399.8000
21
400.2000
0
LINE
8
PARAMETRIX
10
1500.2000
20
400.2000
11
1899.8000
21
400.2000
0
LINE
8
PARAMETRIX
10
1899.8000
20
400.2000
11
1899.8000
21
599.8000
0
LINE
8
PARAMETRIX
10
1899.8000
20
599.8000
11
1500.2000
21
599.8000
0
LINE
8
PARAMETRIX
10
1500.2000
20
599.8000
11
1500.2000
21
400.2000
0
LINE
8
PARAMETRIX
10
-199.8000
20
600.2000
11
-0.2000
21
600.2000
0
LINE
8
PARAMETRIX
10
-0.2000
20
600.2000
11
-0.2000
21
799.8000
0
LINE
8
PARAMETRIX
10
-0.2000
20
799.8000
11
-199.8000
21
799.8000
0
LINE
8
PARAMETRIX
10
-199.8000
20
799.8000
11
-199.8000
21
600.2000
0
LINE
8
PARAMETRIX
10
1500.2000
20
600.2000
11
1699.8000
21
600.2000
0
LINE
8
PARAMETRIX
10
1699.8000
20
600.2000
11
1699.8000
21
799.8000
0
LINE
8
PARAMETRIX
10
1699.8000
20
799.8000
11
1500.2000
21
799.8000
0
LINE
8
PARAMETRIX
10
1500.2000
20
799.8000
11
1500.2000
21
600.2000
0
LINE
8
PARAMETRIX
10
-399.8000
20
800.2000
11
-0.2000
21
800.2000
0
LINE
8
PARAMETRIX
10
-0.2000
20
800.2000
11
-0.2000
21
999.8000
0
LINE
8
PARAMETRIX
10
-0.2000
20
999.8000
11
-399.8000
21
999.8000
0
LINE
8
PARAMETRIX
10
-399.8000
20
999.8000
11
-399.8000
21
800.2000
0
LINE
8
PARAMETRIX
10
1500.2000
20
800.2000
11
1899.8000
21
800.2000
0
LINE
8
PARAMETRIX
10
1899.8000
20
800.2000
11
1899.8000
21
999.8000
0
LINE
8
PARAMETRIX
10
1899.8000
20
999.8000
11
1500.2000
21
999.8000
0
LINE
8
PARAMETRIX
10
1500.2000
20
999.8000
11
1500.2000
21
800.2000
0
LINE
8
PARAMETRIX
10
-199.8000
20
-199.8000
11
149.8000
21
-199.8000
0
LINE
8
PARAMETRIX
10
149.8000
20
-199.8000
11
149.8000
21
-0.2000
0
LINE
8
PARAMETRIX
10
149.8000
20
-0.2000
11
-199.8000
21
-0.2000
0
LINE
8
PARAMETRIX
10
-199.8000
20
-0.2000
11
-199.8000
21
-199.8000
0
LINE
8
PARAMETRIX
10
150.2000
20
-199.8000
11
549.8000
21
-199.8000
0
LINE
8
PARAMETRIX
10
549.8000
20
-199.8000
11
549.8000
21
-0.2000
0
LINE
8
PARAMETRIX
10
549.8000
20
-0.2000
11
150.2000
21
-0.2000
0
LINE
8
PARAMETRIX
10
150.2000
20
-0.2000
11
150.2000
21
-199.8000
0
LINE
8
PARAMETRIX
10
550.2000
20
-199.8000
11
949.8000
21
-199.8000
0
LINE
8
PARAMETRIX
10
949.8000
20
-199.8000
11
949.8000
21
-0.2000
0
LINE
8
PARAMETRIX
10
949.8000
20
-0.2000
11
550.2000
21
-0.2000
0
LINE
8
PARAMETRIX
10
550.2000
20
-0.2000
11
550.2000
21
-199.8000
0
LINE
8
PARAMETRIX
10
950.2000
20
-199.8000
11
1349.8000
21
-199.8000
0
LINE
8
PARAMETRIX
10
1349.8000
20
-199.8000
11
1349.8000
21
-0.2000
0
LINE
8
PARAMETRIX
10
1349.8000
20
-0.2000
11
950.2000
21
-0.2000
0
LINE
8
PARAMETRIX
10
950.2000
20
-0.2000
11
950.2000
21
-199.8000
0
LINE
8
PARAMETRIX
10
1350.2000
20
-199.8000
11
1699.8000
21
-199.8000
0
LINE
8
PARAMETRIX
10
1699.8000
20
-199.8000
11
1699.8000
21
-0.2000
0
LINE
8
PARAMETRIX
10
1699.8000
20
-0.2000
11
1350.2000
21
-0.2000
0
LINE
8
PARAMETRIX
10
1350.2000
20
-0.2000
11
1350.2000
21
-199.8000
0
LINE
8
PARAMETRIX
10
0.0000
20
1000.0000
11
-266.6667
21
1200.0000
0
LINE
8
PARAMETRIX
10
-266.6667
20
1200.0000
11
-400.0000
21
1200.0000
0
LINE
8
PARAMETRIX
10
-400.0000
20
1200.0000
11
-400.0000
21
1000.0000
0
LINE
8
PARAMETRIX
10
-400.0000
20
1000.0000
11
0.0000
21
1000.0000
0
LINE
8
PARAMETRIX
10
1500.0000
20
1000.0000
11
1766.6667
21
1200.0000
0
LINE
8
PARAMETRIX
10
1766.6667
20
1200.0000
11
1900.0000
21
1200.0000
0
LINE
8
PARAMETRIX
10
1900.0000
20
1200.0000
11
1900.0000
21
1000.0000
0
LINE
8
PARAMETRIX
10
1900.0000
20
1000.0000
11
1500.0000
21
1000.0000
0
ENDSEC
0
EOF
