<svg width="2540" height="2179" viewBox="-527 -309 2540 2179" xmlns="http://www.w3.org/2000/svg"><path d="M 1500.0000 571.7988 L 1820.0000 331.7988 L 1695.0327 187.8215 L 1412.4061 470.8801 L 1500.0000 571.7988 Z" stroke="green" stroke-width="1" fill="none" /><path d="M 1412.4061 470.8801 L 1695.0327 187.8215 L 1550.8646 63.0743 L 1311.3537 383.4405 L 1412.4061 470.8801 Z" stroke="green" stroke-width="1" fill="none" /><path d="M 1311.3537 383.4405 L 1550.8646 63.0743 L 1390.4249 -39.9082 L 1198.8960 311.2565 L 1311.3537 383.4405 Z" stroke="green" stroke-width="1" fill="none" /><path d="M 1198.8960 311.2565 L 1390.4249 -39.9082 L 1216.9733 -119.0336 L 1077.3177 255.7948 L 1198.8960 311.2565 Z" stroke="green" stroke-width="1" fill="none" /><path d="M 1077.3177 255.7948 L 1216.9733 -119.0336 L 1034.0338 -172.6943 L 949.0891 218.1821 L 1077.3177 255.7948 Z" stroke="green" stroke-width="1" fill="none" /><path d="M 949.0891 218.1821 L 1034.0338 -172.6943 L 845.3235 -199.8000 L 816.8156 199.1828 L 949.0891 218.1821 Z" stroke="green" stroke-width="1" fill="none" /><path d="M 816.8156 199.1828 L 845.3235 -199.8000 L 654.6765 -199.8000 L 683.1844 199.1828 L 816.8156 199.1828 Z" stroke="green" stroke-width="1" fill="none" /><path d="M 683.1844 199.1828 L 654.6765 -199.8000 L 465.9662 -172.6943 L 550.9109 218.1821 L 683.1844 199.1828 Z" stroke="green" stroke-width="1" fill="none" /><path d="M 550.9109 218.1821 L 465.9662 -172.6943 L 283.0267 -119.0336 L 422.6823 255.7948 L 550.9109 218.1821 Z" stroke="green" stroke-width="1" fill="none" /><path d="M 422.6823 255.7948 L 283.0267 -119.0336 L 109.5751 -39.9082 L 301.1040 311.2565 L 422.6823 255.7948 Z" stroke="green" stroke-width="1" fill="none" /><path d="M 301.1040 311.2565 L 109.5751 -39.9082 L -50.8646 63.0743 L 188.6463 383.4405 L 301.1040 311.2565 Z" stroke="green" stroke-width="1" fill="none" /><path d="M 188.6463 383.4405 L -50.8646 63.0743 L -195.0327 187.8215 L 87.5939 470.8801 L 188.6463 383.4405 Z" stroke="green" stroke-width="1" fill="none" /><path d="M 87.5939 470.8801 L -195.0327 187.8215 L -320.0000 331.7988 L 0.0000 571.7988 L 87.5939 470.8801 Z" stroke="green" stroke-width="1" fill="none" /><path d="M -399.8000 1571.5988 L -0.2000 1571.5988 L -0.2000 1371.9988 L -399.8000 1371.9988 L -399.8000 1571.5988 Z" stroke="green" stroke-width="1" fill="none" /><path d="M 1500.2000 1571.5988 L 1899.8000 1571.5988 L 1899.8000 1371.9988 L 1500.2000 1371.9988 L 1500.2000 1571.5988 Z" stroke="green" stroke-width="1" fill="none" /><path d="M -199.8000 1371.5988 L -0.2000 1371.5988 L -0.2000 1171.9988 L -199.8000 1171.9988 L -199.8000 1371.5988 Z" stroke="green" stroke-width="1" fill="none" /><path d="M 1500.2000 1371.5988 L 1699.8000 1371.5988 L 1699.8000 1171.9988 L 1500.2000 1171.9988 L 1500.2000 1371.5988 Z" stroke="green" stroke-width="1" fill="none" /><path d="M -399.8000 1171.5988 L -0.2000 1171.5988 L -0.2000 971.9988 L -399.8000 971.9988 L -399.8000 1171.5988 Z" stroke="green" stroke-width="1" fill="none" /><path d="M 1500.2000 1171.5988 L 1899.8000 1171.5988 L 1899.8000 971.9988 L 1500.2000 971.9988 L 1500.2000 1171.5988 Z" stroke="green" stroke-width="1" fill="none" /><path d="M -199.8000 971.5988 L -0.2000 971.5988 L -0.2000 771.9988 L -199.8000 771.9988 L -199.8000 971.5988 Z" stroke="green" stroke-width="1" fill="none" /><path d="M 1500.2000 971.5988 L 1699.8000 971.5988 L 1699.8000 771.9988 L 1500.2000 771.9988 L 1500.2000 971.5988 Z" stroke="green" stroke-width="1" fill="none" /><path d="M -399.8000 771.5988 L -0.2000 771.5988 L -0.2000 571.9988 L -399.8000 571.9988 L -399.8000 771.5988 Z" stroke="green" stroke-width="1" fill="none" /><path d="M 1500.2000 771.5988 L 1899.8000 771.5988 L 1899.8000 571.9988 L 1500.2000 571.9988 L 1500.2000 771.5988 Z" stroke="green" stroke-width="1" fill="none" /><path d="M -199.8000 1771.5988 L 149.8000 1771.5988 L 149.8000 1571.9988 L -199.8000 1571.9988 L -199.8000 1771.5988 Z" stroke="green" stroke-width="1" fill="none" /><path d="M 150.2000 1771.5988 L 549.8000 1771.5988 L 549.8000 1571.9988 L 150.2000 1571.9988 L 150.2000 1771.5988 Z" stroke="green" stroke-width="1" fill="none" /><path d="M 550.2000 1771.5988 L 949.8000 1771.5988 L 949.8000 1571.9988 L 550.2000 1571.9988 L 550.2000 1771.5988 Z" stroke="green" stroke-width="1" fill="none" /><path d="M 950.2000 1771.5988 L 1349.8000 1771.5988 L 1349.8000 1571.9988 L 950.2000 1571.9988 L 950.2000 1771.5988 Z" stroke="green" stroke-width="1" fill="none" /><path d="M 1350.2000 1771.5988 L 1699.8000 1771.5988 L 1699.8000 1571.9988 L 1350.2000 1571.9988 L 1350.2000 1771.5988 Z" stroke="green" stroke-width="1" fill="none" /><path d="M 0.0000 571.7988 L -266.6667 371.7988 L -400.0000 371.7988 L -400.0000 571.7988 L 0.0000 571.7988 Z" stroke="green" stroke-width="1" fill="none" /><path d="M 1500.0000 571.7988 L 1766.6667 371.7988 L 1900.0000 371.7988 L 1900.0000 571.7988 L 1500.0000 571.7988 Z" stroke="green" stroke-width="1" fill="none" /></svg>