0
SECTION
2
ENTITIES
0
CIRCLE
8
PARAMETRIX
10
0.0000
20
0.0000
40
42.0000
0
LINE
8
PARAMETRIX
10
8.8273
20
-0.0000
11
10.9717
21
0.0000
0
ARC
8
PARAMETRIX
10
10.9717
20
1.0000
40
1.0000
50
270.0000
51
11.7000
0
LINE
8
PARAMETRIX
10
11.9509
20
1.2028
11
11.4457
21
3.6424
0
ARC
8
PARAMETRIX
10
10.4665
20
3.4396
40
1.0000
50
11.7000
51
113.4000
0
LINE
8
PARAMETRIX
10
10.0693
20
4.3574
11
8.1013
21
3.5057
0
ARC
8
PARAMETRIX
10
7.7041
20
4.4235
40
1.0000
50
214.2000
51
293.4000
0
LINE
8
PARAMETRIX
10
6.8770
20
3.8614
11
6.1219
21
4.9726
0
ARC
8
PARAMETRIX
10
6.9489
20
5.5347
40
1.0000
50
135.0000
51
214.2000
0
LINE
8
PARAMETRIX
10
6.2418
20
6.2418
11
7.7582
21
7.7582
0
ARC
8
PARAMETRIX
10
7.0511
20
8.4653
40
1.0000
50
315.0000
51
56.7000
0
LINE
8
PARAMETRIX
10
7.6001
20
9.3011
11
5.5177
21
10.6689
0
ARC
8
PARAMETRIX
10
4.9687
20
9.8331
40
1.0000
50
56.7000
51
158.4000
0
LINE
8
PARAMETRIX
10
4.0389
20
10.2012
11
3.2495
21
8.2074
0
ARC
8
PARAMETRIX
10
2.3198
20
8.5755
40
1.0000
50
259.2000
51
338.4000
0
LINE
8
PARAMETRIX
10
2.1324
20
7.5932
11
0.8126
21
7.8450
0
ARC
8
PARAMETRIX
10
1.0000
20
8.8273
40
1.0000
50
180.0000
51
259.2000
0
LINE
8
PARAMETRIX
10
0.0000
20
8.8273
11
0.0000
21
10.9717
0
ARC
8
PARAMETRIX
10
-1.0000
20
10.9717
40
1.0000
50
0.0000
51
101.7000
0
LINE
8
PARAMETRIX
10
-1.2028
20
11.9509
11
-3.6424
21
11.4457
0
ARC
8
PARAMETRIX
10
-3.4396
20
10.4665
40
1.0000
50
101.7000
51
203.4000
0
LINE
8
PARAMETRIX
10
-4.3574
20
10.0693
11
-3.5057
21
8.1013
0
ARC
8
PARAMETRIX
10
-4.4235
20
7.7041
40
1.0000
50
304.2000
51
23.4000
0
LINE
8
PARAMETRIX
10
-3.8614
20
6.8770
11
-4.9726
21
6.1219
0
ARC
8
PARAMETRIX
10
-5.5347
20
6.9489
40
1.0000
50
225.0000
51
304.2000
0
LINE
8
PARAMETRIX
10
-6.2418
20
6.2418
11
-7.7582
21
7.7582
0
ARC
8
PARAMETRIX
10
-8.4653
20
7.0511
40
1.0000
50
45.0000
51
146.7000
0
LINE
8
PARAMETRIX
10
-9.3011
20
7.6001
11
-10.6689
21
5.5177
0
ARC
8
PARAMETRIX
10
-9.8331
20
4.9687
40
1.0000
50
146.7000
51
248.4000
0
LINE
8
PARAMETRIX
10
-10.2012
20
4.0389
11
-8.2074
21
3.2495
0
ARC
8
PARAMETRIX
10
-8.5755
20
2.3198
40
1.0000
50
349.2000
51
68.4000
0
LINE
8
PARAMETRIX
10
-7.5932
20
2.1324
11
-7.8450
21
0.8126
0
ARC
8
PARAMETRIX
10
-8.8273
20
1.0000
40
1.0000
50
270.0000
51
349.2000
0
LINE
8
PARAMETRIX
10
-8.8273
20
0.0000
11
-10.9717
21
0.0000
0
ARC
8
PARAMETRIX
10
-10.9717
20
-1.0000
40
1.0000
50
90.0000
51
191.7000
0
LINE
8
PARAMETRIX
10
-11.9509
20
-1.2028
11
-11.4457
21
-3.6424
0
ARC
8
PARAMETRIX
10
-10.4665
20
-3.4396
40
1.0000
50
191.7000
51
293.4000
0
LINE
8
PARAMETRIX
10
-10.0693
20
-4.3574
11
-8.1013
21
-3.5057
0
ARC
8
PARAMETRIX
10
-7.7041
20
-4.4235
40
1.0000
50
34.2000
51
113.4000
0
LINE
8
PARAMETRIX
10
-6.8770
20
-3.8614
11
-6.1219
21
-4.9726
0
ARC
8
PARAMETRIX
10
-6.9489
20
-5.5347
40
1.0000
50
315.0000
51
34.2000
0
LINE
8
PARAMETRIX
10
-6.2418
20
-6.2418
11
-7.7582
21
-7.7582
0
ARC
8
PARAMETRIX
10
-7.0511
20
-8.4653
40
1.0000
50
135.0000
51
236.7000
0
LINE
8
PARAMETRIX
10
-7.6001
20
-9.3011
11
-5.5177
21
-10.6689
0
ARC
8
PARAMETRIX
10
-4.9687
20
-9.8331
40
1.0000
50
236.7000
51
338.4000
0
LINE
8
PARAMETRIX
10
-4.0389
20
-10.2012
11
-3.2495
21
-8.2074
0
ARC
8
PARAMETRIX
10
-2.3198
20
-8.5755
40
1.0000
50
79.2000
51
158.4000
0
LINE
8
PARAMETRIX
10
-2.1324
20
-7.5932
11
-0.8126
21
-7.8450
0
ARC
8
PARAMETRIX
10
-1.0000
20
-8.8273
40
1.0000
50
0.0000
51
79.2000
0
LINE
8
PARAMETRIX
10
-0.0000
20
-8.8273
11
-0.0000
21
-10.9717
0
ARC
8
PARAMETRIX
10
1.0000
20
-10.9717
40
1.0000
50
180.0000
51
281.7000
0
LINE
8
PARAMETRIX
10
1.2028
20
-11.9509
11
3.6424
21
-11.4457
0
ARC
8
PARAMETRIX
10
3.4396
20
-10.4665
40
1.0000
50
281.7000
51
23.4000
0
LINE
8
PARAMETRIX
10
4.3574
20
-10.0693
11
3.5057
21
-8.1013
0
ARC
8
PARAMETRIX
10
4.4235
20
-7.7041
40
1.0000
50
124.2000
51
203.4000
0
LINE
8
PARAMETRIX
10
3.8614
20
-6.8770
11
4.9726
21
-6.1219
0
ARC
8
PARAMETRIX
10
5.5347
20
-6.9489
40
1.0000
50
45.0000
51
124.2000
0
LINE
8
PARAMETRIX
10
6.2418
20
-6.2418
11
7.7582
21
-7.7582
0
ARC
8
PARAMETRIX
10
8.4653
20
-7.0511
40
1.0000
50
225.0000
51
326.7000
0
LINE
8
PARAMETRIX
10
9.3011
20
-7.6001
11
10.6689
21
-5.5177
0
ARC
8
PARAMETRIX
10
9.8331
20
-4.9687
40
1.0000
50
326.7000
51
68.4000
0
LINE
8
PARAMETRIX
10
10.2012
20
-4.0389
11
8.2074
21
-3.2495
0
ARC
8
PARAMETRIX
10
8.5755
20
-2.3198
40
1.0000
50
169.2000
51
248.4000
0
LINE
8
PARAMETRIX
10
7.5932
20
-2.1324
11
7.8450
21
-0.8126
0
ARC
8
PARAMETRIX
10
8.8273
20
-1.0000
40
1.0000
50
90.0000
51
169.2000
0
CIRCLE
8
PARAMETRIX
10
15.0000
20
0.0000
40
1.0000
0
CIRCLE
8
PARAMETRIX
10
10.6066
20
10.6066
40
1.0000
0
CIRCLE
8
PARAMETRIX
10
0.0000
20
15.0000
40
1.0000
0
CIRCLE
8
PARAMETRIX
10
-10.6066
20
10.6066
40
1.0000
0
CIRCLE
8
PARAMETRIX
10
-15.0000
20
0.0000
40
1.0000
0
CIRCLE
8
PARAMETRIX
10
-10.6066
20
-10.6066
40
1.0000
0
CIRCLE
8
PARAMETRIX
10
-0.0000
20
-15.0000
40
1.0000
0
CIRCLE
8
PARAMETRIX
10
10.6066
20
-10.6066
40
1.0000
0
CIRCLE
8
PARAMETRIX
10
40.0000
20
0.0000
40
1.0000
0
CIRCLE
8
PARAMETRIX
10
36.9552
20
15.3073
40
1.0000
0
CIRCLE
8
PARAMETRIX
10
28.2843
20
28.2843
40
1.0000
0
CIRCLE
8
PARAMETRIX
10
15.3073
20
36.9552
40
1.0000
0
CIRCLE
8
PARAMETRIX
10
0.0000
20
40.0000
40
1.0000
0
CIRCLE
8
PARAMETRIX
10
-15.3073
20
36.9552
40
1.0000
0
CIRCLE
8
PARAMETRIX
10
-28.2843
20
28.2843
40
1.0000
0
CIRCLE
8
PARAMETRIX
10
-36.9552
20
15.3073
40
1.0000
0
CIRCLE
8
PARAMETRIX
10
-40.0000
20
0.0000
40
1.0000
0
CIRCLE
8
PARAMETRIX
10
-36.9552
20
-15.3073
40
1.0000
0
CIRCLE
8
PARAMETRIX
10
-28.2843
20
-28.2843
40
1.0000
0
CIRCLE
8
PARAMETRIX
10
-15.3073
20
-36.9552
40
1.0000
0
CIRCLE
8
PARAMETRIX
10
-0.0000
20
-40.0000
40
1.0000
0
CIRCLE
8
PARAMETRIX
10
15.3073
20
-36.9552
40
1.0000
0
CIRCLE
8
PARAMETRIX
10
28.2843
20
-28.2843
40
1.0000
0
CIRCLE
8
PARAMETRIX
10
36.9552
20
-15.3073
40
1.0000
0
LINE
8
PARAMETRIX
10
17.3767
20
0.5000
11
18.8936
21
0.5000
0
ARC
8
PARAMETRIX
10
18.8936
20
2.8000
40
2.3000
50
270.0000
51
310.8923
0
LINE
8
PARAMETRIX
10
20.3993
20
1.0613
11
22.5362
21
2.9118
0
ARC
8
PARAMETRIX
10
24.6965
20
0.4172
40
3.3000
50
43.8013
51
130.8923
0
LINE
8
PARAMETRIX
10
27.0782
20
2.7013
11
28.5103
21
1.2080
0
ARC
8
PARAMETRIX
10
30.1703
20
2.8000
40
2.3000
50
223.8013
51
337.5183
0
LINE
8
PARAMETRIX
10
32.2956
20
1.9205
11
32.8015
21
3.1430
0
ARC
8
PARAMETRIX
10
35.8507
20
1.8811
40
3.3000
50
97.4769
51
157.5183
0
LINE
8
PARAMETRIX
10
35.4213
20
5.1531
11
36.0702
21
5.2382
0
ARC
8
PARAMETRIX
10
35.8750
20
6.7255
40
1.5000
50
277.4769
51
10.6180
0
ARC
8
PARAMETRIX
10
-0.0000
20
0.0000
40
38.0000
50
10.6180
51
10.7051
0
ARC
8
PARAMETRIX
10
35.8648
20
6.7800
40
1.5000
50
10.7051
51
103.8462
0
LINE
8
PARAMETRIX
10
35.5058
20
8.2364
11
34.8703
21
8.0798
0
ARC
8
PARAMETRIX
10
34.0805
20
11.2839
40
3.3000
50
223.8048
51
283.8462
0
LINE
8
PARAMETRIX
10
31.6989
20
8.9996
11
30.7831
21
9.9545
0
ARC
8
PARAMETRIX
10
29.1232
20
8.3624
40
2.3000
50
43.8048
51
157.5218
0
LINE
8
PARAMETRIX
10
26.9979
20
9.2418
11
26.2069
21
7.3299
0
ARC
8
PARAMETRIX
10
23.1576
20
8.5916
40
3.3000
50
250.4307
51
337.5218
0
LINE
8
PARAMETRIX
10
22.0523
20
5.4822
11
19.3888
21
6.4291
0
ARC
8
PARAMETRIX
10
18.6184
20
4.2619
40
2.3000
50
70.4307
51
111.3231
0
LINE
8
PARAMETRIX
10
17.7821
20
6.4045
11
16.3690
21
5.8529
0
ARC
8
PARAMETRIX
10
16.5144
20
5.4802
40
0.4000
50
111.3231
51
198.3582
0
ARC
8
PARAMETRIX
10
-0.0000
20
-0.0000
40
17.0000
50
2.9649
51
18.3582
0
ARC
8
PARAMETRIX
10
17.3767
20
0.9000
40
0.4000
50
182.9649
51
270.0000
0
LINE
8
PARAMETRIX
10
16.0054
20
6.7844
11
17.4185
21
7.3360
0
ARC
8
PARAMETRIX
10
18.6184
20
4.2619
40
3.3000
50
70.4307
51
111.3231
0
LINE
8
PARAMETRIX
10
19.7238
20
7.3713
11
22.3872
21
6.4245
0
ARC
8
PARAMETRIX
10
23.1576
20
8.5916
40
2.3000
50
250.4307
51
337.5218
0
LINE
8
PARAMETRIX
10
25.2828
20
7.7123
11
26.0739
21
9.6241
0
ARC
8
PARAMETRIX
10
29.1232
20
8.3624
40
3.3000
50
43.8048
51
157.5218
0
LINE
8
PARAMETRIX
10
31.5048
20
10.6467
11
32.4206
21
9.6918
0
ARC
8
PARAMETRIX
10
34.0805
20
11.2839
40
2.3000
50
223.8048
51
283.8462
0
LINE
8
PARAMETRIX
10
34.6310
20
9.0507
11
35.2665
21
9.2074
0
ARC
8
PARAMETRIX
10
34.9075
20
10.6638
40
1.5000
50
283.8462
51
16.9872
0
ARC
8
PARAMETRIX
10
-0.0000
20
-0.0000
40
38.0000
50
16.9872
51
32.0282
0
ARC
8
PARAMETRIX
10
30.9442
20
19.3573
40
1.5000
50
32.0282
51
125.1692
0
LINE
8
PARAMETRIX
10
30.0803
20
20.5834
11
29.5452
21
20.2064
0
ARC
8
PARAMETRIX
10
30.8700
20
18.3263
40
2.3000
50
125.1692
51
185.2106
0
LINE
8
PARAMETRIX
10
28.5795
20
18.1174
11
28.6997
21
16.7998
0
ARC
8
PARAMETRIX
10
25.4133
20
16.5001
40
3.3000
50
251.4936
51
5.2106
0
LINE
8
PARAMETRIX
10
24.3658
20
13.3708
11
22.4038
21
14.0275
0
ARC
8
PARAMETRIX
10
21.6738
20
11.8465
40
2.3000
50
71.4936
51
158.5846
0
LINE
8
PARAMETRIX
10
19.5325
20
12.6862
11
18.5004
21
10.0547
0
ARC
8
PARAMETRIX
10
15.4283
20
11.2596
40
3.3000
50
297.6923
51
338.5846
0
LINE
8
PARAMETRIX
10
16.9619
20
8.3376
11
15.6187
21
7.6326
0
ARC
8
PARAMETRIX
10
15.8046
20
7.2784
40
0.4000
50
117.6923
51
204.7274
0
ARC
8
PARAMETRIX
10
-0.0000
20
-0.0000
40
17.0000
50
24.2880
51
24.7274
0
ARC
8
PARAMETRIX
10
15.8599
20
7.1570
40
0.4000
50
204.2880
51
291.3231
0
LINE
8
PARAMETRIX
10
15.1539
20
8.5181
11
16.4971
21
9.2230
0
ARC
8
PARAMETRIX
10
15.4283
20
11.2596
40
2.3000
50
297.6923
51
338.5846
0
LINE
8
PARAMETRIX
10
17.5695
20
10.4198
11
18.6016
21
13.0514
0
ARC
8
PARAMETRIX
10
21.6738
20
11.8465
40
3.3000
50
71.4936
51
158.5846
0
LINE
8
PARAMETRIX
10
22.7212
20
14.9758
11
24.6832
21
14.3191
0
ARC
8
PARAMETRIX
10
25.4133
20
16.5001
40
2.3000
50
251.4936
51
5.2106
0
LINE
8
PARAMETRIX
10
27.7038
20
16.7090
11
27.5836
21
18.0266
0
ARC
8
PARAMETRIX
10
30.8700
20
18.3263
40
3.3000
50
125.1692
51
185.2106
0
LINE
8
PARAMETRIX
10
28.9692
20
21.0239
11
29.5043
21
21.4009
0
ARC
8
PARAMETRIX
10
28.6403
20
22.6271
40
1.5000
50
305.1692
51
38.3103
0
ARC
8
PARAMETRIX
10
-0.0000
20
-0.0000
40
38.0000
50
38.3103
51
38.3974
0
ARC
8
PARAMETRIX
10
28.6058
20
22.6706
40
1.5000
50
38.3974
51
131.5385
0
LINE
8
PARAMETRIX
10
27.6112
20
23.7934
11
27.1212
21
23.3593
0
ARC
8
PARAMETRIX
10
24.9329
20
25.8294
40
3.3000
50
251.4971
51
311.5385
0
LINE
8
PARAMETRIX
10
23.8857
20
22.7000
11
22.6310
21
23.1199
0
ARC
8
PARAMETRIX
10
21.9011
20
20.9388
40
2.3000
50
71.4971
51
185.2141
0
LINE
8
PARAMETRIX
10
19.6106
20
20.7298
11
19.7986
21
18.6693
0
ARC
8
PARAMETRIX
10
16.5123
20
18.3694
40
3.3000
50
278.1230
51
5.2141
0
LINE
8
PARAMETRIX
10
16.9786
20
15.1025
11
14.1802
21
14.7031
0
ARC
8
PARAMETRIX
10
14.5052
20
12.4261
40
2.3000
50
98.1230
51
139.0154
0
LINE
8
PARAMETRIX
10
12.7690
20
13.9346
11
11.7741
21
12.7895
0
ARC
8
PARAMETRIX
10
12.0760
20
12.5272
40
0.4000
50
139.0154
51
226.0505
0
ARC
8
PARAMETRIX
10
-0.0000
20
-0.0000
40
17.0000
50
30.6572
51
46.0505
0
ARC
8
PARAMETRIX
10
14.9681
20
8.8723
40
0.4000
50
210.6572
51
297.6923
0
LINE
8
PARAMETRIX
10
11.0192
20
13.4454
11
12.0141
21
14.5905
0
ARC
8
PARAMETRIX
10
14.5052
20
12.4261
40
3.3000
50
98.1230
51
139.0154
0
LINE
8
PARAMETRIX
10
14.0389
20
15.6930
11
16.8373
21
16.0925
0
ARC
8
PARAMETRIX
10
16.5123
20
18.3694
40
2.3000
50
278.1230
51
5.2141
0
LINE
8
PARAMETRIX
10
18.8028
20
18.5784
11
18.6148
21
20.6389
0
ARC
8
PARAMETRIX
10
21.9011
20
20.9388
40
3.3000
50
71.4971
51
185.2141
0
LINE
8
PARAMETRIX
10
22.9484
20
24.0682
11
24.2030
21
23.6483
0
ARC
8
PARAMETRIX
10
24.9329
20
25.8294
40
2.3000
50
251.4971
51
311.5385
0
LINE
8
PARAMETRIX
10
26.4581
20
24.1078
11
26.9480
21
24.5419
0
ARC
8
PARAMETRIX
10
25.9534
20
25.6646
40
1.5000
50
311.5385
51
44.6795
0
ARC
8
PARAMETRIX
10
-0.0000
20
-0.0000
40
38.0000
50
44.6795
51
59.7205
0
ARC
8
PARAMETRIX
10
18.4040
20
31.5205
40
1.5000
50
59.7205
51
152.8615
0
LINE
8
PARAMETRIX
10
17.0691
20
32.2047
11
16.7706
21
31.6223
0
ARC
8
PARAMETRIX
10
18.8174
20
30.5731
40
2.3000
50
152.8615
51
212.9029
0
LINE
8
PARAMETRIX
10
16.8863
20
29.3237
11
17.6050
21
28.2129
0
ARC
8
PARAMETRIX
10
14.8344
20
26.4203
40
3.3000
50
279.1859
51
32.9029
0
LINE
8
PARAMETRIX
10
15.3612
20
23.1626
11
13.3187
21
22.8323
0
ARC
8
PARAMETRIX
10
13.6858
20
20.5618
40
2.3000
50
99.1859
51
186.2770
0
LINE
8
PARAMETRIX
10
11.3996
20
20.3103
11
11.7087
21
17.5006
0
ARC
8
PARAMETRIX
10
8.4285
20
17.1398
40
3.3000
50
325.3846
51
6.2770
0
LINE
8
PARAMETRIX
10
11.1443
20
15.2651
11
10.2826
21
14.0167
0
ARC
8
PARAMETRIX
10
10.6118
20
13.7895
40
0.4000
50
145.3846
51
232.4197
0
ARC
8
PARAMETRIX
10
-0.0000
20
-0.0000
40
17.0000
50
51.9803
51
52.4197
0
ARC
8
PARAMETRIX
10
10.7172
20
13.7077
40
0.4000
50
231.9803
51
319.0154
0
LINE
8
PARAMETRIX
10
9.4596
20
14.5848
11
10.3213
21
15.8332
0
ARC
8
PARAMETRIX
10
8.4285
20
17.1398
40
2.3000
50
325.3846
51
6.2770
0
LINE
8
PARAMETRIX
10
10.7147
20
17.3912
11
10.4056
21
20.2010
0
ARC
8
PARAMETRIX
10
13.6858
20
20.5618
40
3.3000
50
99.1859
51
186.2770
0
LINE
8
PARAMETRIX
10
13.1590
20
23.8195
11
15.2015
21
24.1498
0
ARC
8
PARAMETRIX
10
14.8344
20
26.4203
40
2.3000
50
279.1859
51
32.9029
0
LINE
8
PARAMETRIX
10
16.7654
20
27.6697
11
16.0467
21
28.7805
0
ARC
8
PARAMETRIX
10
18.8174
20
30.5731
40
3.3000
50
152.8615
51
212.9029
0
LINE
8
PARAMETRIX
10
15.8807
20
32.0784
11
16.1792
21
32.6609
0
ARC
8
PARAMETRIX
10
14.8444
20
33.3451
40
1.5000
50
332.8615
51
66.0026
0
ARC
8
PARAMETRIX
10
0.0000
20
-0.0000
40
38.0000
50
66.0026
51
66.0897
0
ARC
8
PARAMETRIX
10
14.7937
20
33.3676
40
1.5000
50
66.0897
51
159.2308
0
LINE
8
PARAMETRIX
10
13.3911
20
33.8995
11
13.1590
21
33.2875
0
ARC
8
PARAMETRIX
10
10.0735
20
34.4577
40
3.3000
50
279.1894
51
339.2308
0
LINE
8
PARAMETRIX
10
10.6005
20
31.2001
11
9.2944
21
30.9888
0
ARC
8
PARAMETRIX
10
9.6617
20
28.7183
40
2.3000
50
99.1894
51
212.9064
0
LINE
8
PARAMETRIX
10
7.7307
20
27.4688
11
8.8548
21
25.7317
0
ARC
8
PARAMETRIX
10
6.0842
20
23.9389
40
3.3000
50
305.8154
51
32.9064
0
LINE
8
PARAMETRIX
10
8.0153
20
21.2629
11
5.7231
21
19.6088
0
ARC
8
PARAMETRIX
10
7.0690
20
17.7437
40
2.3000
50
125.8154
51
166.7077
0
LINE
8
PARAMETRIX
10
4.8306
20
18.2725
11
4.4818
21
16.7962
0
ARC
8
PARAMETRIX
10
4.8711
20
16.7043
40
0.4000
50
166.7077
51
253.7428
0
ARC
8
PARAMETRIX
10
-0.0000
20
-0.0000
40
17.0000
50
58.3495
51
73.7428
0
ARC
8
PARAMETRIX
10
9.1304
20
14.8120
40
0.4000
50
238.3495
51
325.3846
0
LINE
8
PARAMETRIX
10
3.5086
20
17.0261
11
3.8574
21
18.5024
0
ARC
8
PARAMETRIX
10
7.0690
20
17.7437
40
3.3000
50
125.8154
51
166.7077
0
LINE
8
PARAMETRIX
10
5.1379
20
20.4197
11
7.4301
21
22.0738
0
ARC
8
PARAMETRIX
10
6.0842
20
23.9389
40
2.3000
50
305.8154
51
32.9064
0
LINE
8
PARAMETRIX
10
8.0152
20
25.1884
11
6.8912
21
26.9255
0
ARC
8
PARAMETRIX
10
9.6617
20
28.7183
40
3.3000
50
99.1894
51
212.9064
0
LINE
8
PARAMETRIX
10
9.1347
20
31.9760
11
10.4408
21
32.1872
0
ARC
8
PARAMETRIX
10
10.0735
20
34.4577
40
2.3000
50
279.1894
51
339.2308
0
LINE
8
PARAMETRIX
10
12.2240
20
33.6421
11
12.4561
21
34.2541
0
ARC
8
PARAMETRIX
10
11.0536
20
34.7860
40
1.5000
50
339.2308
51
72.3718
0
ARC
8
PARAMETRIX
10
-0.0000
20
-0.0000
40
38.0000
50
72.3718
51
87.4128
0
ARC
8
PARAMETRIX
10
1.6476
20
36.4628
40
1.5000
50
87.4128
51
180.5538
0
LINE
8
PARAMETRIX
10
0.1477
20
36.4483
11
0.1540
21
35.7938
0
ARC
8
PARAMETRIX
10
2.4539
20
35.8160
40
2.3000
50
180.5538
51
240.5952
0
LINE
8
PARAMETRIX
10
1.3247
20
33.8123
11
2.4773
21
33.1627
0
ARC
8
PARAMETRIX
10
0.8570
20
30.2879
40
3.3000
50
306.8782
51
60.5952
0
LINE
8
PARAMETRIX
10
2.8374
20
27.6482
11
1.1824
21
26.4065
0
ARC
8
PARAMETRIX
10
2.5627
20
24.5667
40
2.3000
50
126.8782
51
213.9693
0
LINE
8
PARAMETRIX
10
0.6552
20
23.2816
11
2.2346
21
20.9373
0
ARC
8
PARAMETRIX
10
-0.5022
20
19.0934
40
3.3000
50
353.0769
51
33.9693
0
LINE
8
PARAMETRIX
10
2.7737
20
18.6956
11
2.5909
21
17.1897
0
ARC
8
PARAMETRIX
10
2.9880
20
17.1415
40
0.4000
50
173.0769
51
260.1120
0
ARC
8
PARAMETRIX
10
-0.0000
20
-0.0000
40
17.0000
50
79.6726
51
80.1120
0
ARC
8
PARAMETRIX
10
3.1193
20
17.1181
40
0.4000
50
259.6726
51
346.7077
0
LINE
8
PARAMETRIX
10
1.5982
20
17.3103
11
1.7810
21
18.8162
0
ARC
8
PARAMETRIX
10
-0.5022
20
19.0934
40
2.3000
50
353.0769
51
33.9693
0
LINE
8
PARAMETRIX
10
1.4053
20
20.3785
11
-0.1742
21
22.7228
0
ARC
8
PARAMETRIX
10
2.5627
20
24.5667
40
3.3000
50
126.8782
51
213.9693
0
LINE
8
PARAMETRIX
10
0.5823
20
27.2064
11
2.2373
21
28.4481
0
ARC
8
PARAMETRIX
10
0.8570
20
30.2879
40
2.3000
50
306.8782
51
60.5952
0
LINE
8
PARAMETRIX
10
1.9863
20
32.2916
11
0.8337
21
32.9412
0
ARC
8
PARAMETRIX
10
2.4539
20
35.8160
40
3.3000
50
180.5538
51
240.5952
0
LINE
8
PARAMETRIX
10
-0.8459
20
35.7841
11
-0.8523
21
36.4386
0
ARC
8
PARAMETRIX
10
-2.3522
20
36.4241
40
1.5000
50
0.5538
51
93.6949
0
ARC
8
PARAMETRIX
10
-0.0000
20
-0.0000
40
38.0000
50
93.6949
51
93.7820
0
ARC
8
PARAMETRIX
10
-2.4076
20
36.4205
40
1.5000
50
93.7820
51
186.9231
0
LINE
8
PARAMETRIX
10
-3.8966
20
36.2397
11
-3.8177
21
35.5900
0
ARC
8
PARAMETRIX
10
-7.0937
20
35.1922
40
3.3000
50
306.8817
51
6.9231
0
LINE
8
PARAMETRIX
10
-5.1131
20
32.5526
11
-6.1714
21
31.7585
0
ARC
8
PARAMETRIX
10
-4.7910
20
29.9188
40
2.3000
50
126.8817
51
240.5987
0
LINE
8
PARAMETRIX
10
-5.9202
20
27.9151
11
-4.1176
21
26.8993
0
ARC
8
PARAMETRIX
10
-5.7376
20
24.0243
40
3.3000
50
333.5077
51
60.5987
0
LINE
8
PARAMETRIX
10
-2.7842
20
22.5523
11
-4.0451
21
20.0224
0
ARC
8
PARAMETRIX
10
-1.9866
20
18.9964
40
2.3000
50
153.5077
51
194.4000
0
LINE
8
PARAMETRIX
10
-4.2144
20
18.4244
11
-3.8371
21
16.9551
0
ARC
8
PARAMETRIX
10
-3.4497
20
17.0546
40
0.4000
50
194.4000
51
281.4351
0
ARC
8
PARAMETRIX
10
0.0000
20
-0.0000
40
17.0000
50
86.0418
51
101.4351
0
ARC
8
PARAMETRIX
10
1.2011
20
17.3585
40
0.4000
50
266.0418
51
353.0769
0
LINE
8
PARAMETRIX
10
-4.8057
20
16.7064
11
-5.1830
21
18.1757
0
ARC
8
PARAMETRIX
10
-1.9866
20
18.9964
40
3.3000
50
153.5077
51
194.4000
0
LINE
8
PARAMETRIX
10
-4.9401
20
20.4685
11
-3.6792
21
22.9984
0
ARC
8
PARAMETRIX
10
-5.7376
20
24.0243
40
2.3000
50
333.5077
51
60.5987
0
LINE
8
PARAMETRIX
10
-4.6085
20
26.0281
11
-6.4111
21
27.0439
0
ARC
8
PARAMETRIX
10
-4.7910
20
29.9188
40
3.3000
50
126.8817
51
240.5987
0
LINE
8
PARAMETRIX
10
-6.7716
20
32.5584
11
-5.7133
21
33.3525
0
ARC
8
PARAMETRIX
10
-7.0937
20
35.1922
40
2.3000
50
306.8817
51
6.9231
0
LINE
8
PARAMETRIX
10
-4.8104
20
35.4694
11
-4.8893
21
36.1192
0
ARC
8
PARAMETRIX
10
-6.3784
20
35.9384
40
1.5000
50
6.9231
51
100.0641
0
ARC
8
PARAMETRIX
10
0.0000
20
-0.0000
40
38.0000
50
100.0641
51
115.1051
0
ARC
8
PARAMETRIX
10
-15.4862
20
33.0519
40
1.5000
50
115.1051
51
208.2462
0
LINE
8
PARAMETRIX
10
-16.8076
20
32.3420
11
-16.4978
21
31.7654
0
ARC
8
PARAMETRIX
10
-14.4717
20
32.8539
40
2.3000
50
208.2462
51
268.2875
0
LINE
8
PARAMETRIX
10
-14.5404
20
30.5549
11
-13.2180
21
30.5154
0
ARC
8
PARAMETRIX
10
-13.3166
20
27.2169
40
3.3000
50
334.5705
51
88.2875
0
LINE
8
PARAMETRIX
10
-10.3363
20
25.7999
11
-11.2248
21
23.9313
0
ARC
8
PARAMETRIX
10
-9.1476
20
22.9437
40
2.3000
50
154.5705
51
241.6616
0
LINE
8
PARAMETRIX
10
-10.2394
20
20.9193
11
-7.7514
21
19.5775
0
ARC
8
PARAMETRIX
10
-9.3178
20
16.6730
40
3.3000
50
20.7692
51
61.6616
0
LINE
8
PARAMETRIX
10
-6.2323
20
17.8432
11
-5.6944
21
16.4248
0
ARC
8
PARAMETRIX
10
-5.3204
20
16.5666
40
0.4000
50
200.7692
51
287.8043
0
ARC
8
PARAMETRIX
10
0.0000
20
-0.0000
40
17.0000
50
107.3649
51
107.8043
0
ARC
8
PARAMETRIX
10
-5.1931
20
16.6070
40
0.4000
50
287.3649
51
14.4000
0
LINE
8
PARAMETRIX
10
-6.6294
20
16.0702
11
-7.1673
21
17.4886
0
ARC
8
PARAMETRIX
10
-9.3178
20
16.6730
40
2.3000
50
20.7692
51
61.6616
0
LINE
8
PARAMETRIX
10
-8.2261
20
18.6973
11
-10.7140
21
20.0391
0
ARC
8
PARAMETRIX
10
-9.1476
20
22.9437
40
3.3000
50
154.5705
51
241.6616
0
LINE
8
PARAMETRIX
10
-12.1279
20
24.3607
11
-11.2394
21
26.2293
0
ARC
8
PARAMETRIX
10
-13.3166
20
27.2169
40
2.3000
50
334.5705
51
88.2875
0
LINE
8
PARAMETRIX
10
-13.2479
20
29.5158
11
-14.5703
21
29.5554
0
ARC
8
PARAMETRIX
10
-14.4717
20
32.8539
40
3.3000
50
208.2462
51
268.2875
0
LINE
8
PARAMETRIX
10
-17.3788
20
31.2922
11
-17.6885
21
31.8687
0
ARC
8
PARAMETRIX
10
-19.0099
20
31.1588
40
1.5000
50
28.2462
51
121.3872
0
ARC
8
PARAMETRIX
10
0.0000
20
-0.0000
40
38.0000
50
121.3872
51
121.4743
0
ARC
8
PARAMETRIX
10
-19.0572
20
31.1299
40
1.5000
50
121.4743
51
214.6154
0
LINE
8
PARAMETRIX
10
-20.2917
20
30.2778
11
-19.9199
21
29.7392
0
ARC
8
PARAMETRIX
10
-22.6358
20
27.8645
40
3.3000
50
334.5740
51
34.6154
0
LINE
8
PARAMETRIX
10
-19.6554
20
26.4477
11
-20.2234
21
25.2528
0
ARC
8
PARAMETRIX
10
-18.1462
20
24.2653
40
2.3000
50
154.5740
51
268.2910
0
LINE
8
PARAMETRIX
10
-18.2148
20
21.9663
11
-16.1467
21
21.9046
0
ARC
8
PARAMETRIX
10
-16.2451
20
18.6061
40
3.3000
50
1.2000
51
88.2910
0
LINE
8
PARAMETRIX
10
-12.9458
20
18.6752
11
-12.8866
21
15.8491
0
ARC
8
PARAMETRIX
10
-10.5871
20
15.8972
40
2.3000
50
181.2000
51
222.0923
0
LINE
8
PARAMETRIX
10
-12.2939
20
14.3555
11
-11.2770
21
13.2298
0
ARC
8
PARAMETRIX
10
-10.9802
20
13.4980
40
0.4000
50
222.0923
51
309.1274
0
ARC
8
PARAMETRIX
10
0.0000
20
-0.0000
40
17.0000
50
113.7341
51
129.1274
0
ARC
8
PARAMETRIX
10
-7.0034
20
15.9284
40
0.4000
50
293.7341
51
20.7692
0
LINE
8
PARAMETRIX
10
-12.0191
20
12.5595
11
-13.0360
21
13.6852
0
ARC
8
PARAMETRIX
10
-10.5871
20
15.8972
40
3.3000
50
181.2000
51
222.0923
0
LINE
8
PARAMETRIX
10
-13.8864
20
15.8281
11
-13.9456
21
18.6543
0
ARC
8
PARAMETRIX
10
-16.2451
20
18.6061
40
2.3000
50
1.2000
51
88.2910
0
LINE
8
PARAMETRIX
10
-16.1765
20
20.9051
11
-18.2446
21
20.9668
0
ARC
8
PARAMETRIX
10
-18.1462
20
24.2653
40
3.3000
50
154.5740
51
268.2910
0
LINE
8
PARAMETRIX
10
-21.1266
20
25.6821
11
-20.5585
21
26.8770
0
ARC
8
PARAMETRIX
10
-22.6358
20
27.8645
40
2.3000
50
334.5740
51
34.6154
0
LINE
8
PARAMETRIX
10
-20.7429
20
29.1711
11
-21.1147
21
29.7097
0
ARC
8
PARAMETRIX
10
-22.3492
20
28.8577
40
1.5000
50
34.6154
51
127.7565
0
ARC
8
PARAMETRIX
10
0.0000
20
-0.0000
40
38.0000
50
127.7565
51
142.7974
0
ARC
8
PARAMETRIX
10
-29.0723
20
22.0692
40
1.5000
50
142.7974
51
235.9385
0
LINE
8
PARAMETRIX
10
-29.9125
20
20.8265
11
-29.3702
21
20.4599
0
ARC
8
PARAMETRIX
10
-28.0820
20
22.3654
40
2.3000
50
235.9385
51
295.9798
0
LINE
8
PARAMETRIX
10
-27.0745
20
20.2978
11
-25.8852
21
20.8773
0
ARC
8
PARAMETRIX
10
-24.4396
20
17.9108
40
3.3000
50
2.2629
51
115.9798
0
LINE
8
PARAMETRIX
10
-21.1421
20
18.0411
11
-21.0605
21
15.9737
0
ARC
8
PARAMETRIX
10
-18.7622
20
16.0645
40
2.3000
50
182.2629
51
269.3539
0
LINE
8
PARAMETRIX
10
-18.7882
20
13.7646
11
-15.9616
21
13.7328
0
ARC
8
PARAMETRIX
10
-15.9988
20
10.4330
40
3.3000
50
48.4615
51
89.3539
0
LINE
8
PARAMETRIX
10
-13.8105
20
12.9031
11
-12.6751
21
11.8971
0
ARC
8
PARAMETRIX
10
-12.4098
20
12.1965
40
0.4000
50
228.4615
51
315.4966
0
ARC
8
PARAMETRIX
10
0.0000
20
-0.0000
40
17.0000
50
135.0572
51
135.4966
0
ARC
8
PARAMETRIX
10
-12.3159
20
12.2914
40
0.4000
50
315.0572
51
42.0923
0
LINE
8
PARAMETRIX
10
-13.3382
20
11.1486
11
-14.4737
21
12.1546
0
ARC
8
PARAMETRIX
10
-15.9988
20
10.4330
40
2.3000
50
48.4615
51
89.3539
0
LINE
8
PARAMETRIX
10
-15.9729
20
12.7328
11
-18.7995
21
12.7647
0
ARC
8
PARAMETRIX
10
-18.7622
20
16.0645
40
3.3000
50
182.2629
51
269.3539
0
LINE
8
PARAMETRIX
10
-22.0597
20
15.9342
11
-22.1414
21
18.0016
0
ARC
8
PARAMETRIX
10
-24.4396
20
17.9108
40
2.3000
50
2.2629
51
115.9798
0
LINE
8
PARAMETRIX
10
-25.4471
20
19.9784
11
-26.6365
21
19.3988
0
ARC
8
PARAMETRIX
10
-28.0820
20
22.3654
40
3.3000
50
235.9385
51
295.9798
0
LINE
8
PARAMETRIX
10
-29.9303
20
19.6315
11
-30.4725
21
19.9981
0
ARC
8
PARAMETRIX
10
-31.3127
20
18.7554
40
1.5000
50
55.9385
51
149.0795
0
ARC
8
PARAMETRIX
10
0.0000
20
-0.0000
40
38.0000
50
149.0795
51
149.1666
0
ARC
8
PARAMETRIX
10
-31.3411
20
18.7078
40
1.5000
50
149.1666
51
242.3077
0
LINE
8
PARAMETRIX
10
-32.0382
20
17.3796
11
-31.4587
21
17.0755
0
ARC
8
PARAMETRIX
10
-32.9923
20
14.1535
40
3.3000
50
2.2664
51
62.3077
0
LINE
8
PARAMETRIX
10
-29.6948
20
14.2840
11
-29.6425
21
12.9619
0
ARC
8
PARAMETRIX
10
-27.3443
20
13.0529
40
2.3000
50
182.2664
51
295.9833
0
LINE
8
PARAMETRIX
10
-26.3367
20
10.9854
11
-24.4768
21
11.8918
0
ARC
8
PARAMETRIX
10
-23.0310
20
8.9254
40
3.3000
50
28.8923
51
115.9833
0
LINE
8
PARAMETRIX
10
-20.1418
20
10.5198
11
-18.7760
21
8.0449
0
ARC
8
PARAMETRIX
10
-16.7623
20
9.1562
40
2.3000
50
208.8923
51
249.7846
0
LINE
8
PARAMETRIX
10
-17.5570
20
6.9979
11
-16.1335
21
6.4737
0
ARC
8
PARAMETRIX
10
-15.9953
20
6.8491
40
0.4000
50
249.7846
51
336.8197
0
ARC
8
PARAMETRIX
10
0.0000
20
-0.0000
40
17.0000
50
141.4264
51
156.8197
0
ARC
8
PARAMETRIX
10
-13.6035
20
10.8492
40
0.4000
50
321.4264
51
48.4615
0
LINE
8
PARAMETRIX
10
-16.4791
20
5.5353
11
-17.9026
21
6.0595
0
ARC
8
PARAMETRIX
10
-16.7623
20
9.1562
40
3.3000
50
208.8923
51
249.7846
0
LINE
8
PARAMETRIX
10
-19.6515
20
7.5618
11
-21.0173
21
10.0367
0
ARC
8
PARAMETRIX
10
-23.0310
20
8.9254
40
2.3000
50
28.8923
51
115.9833
0
LINE
8
PARAMETRIX
10
-24.0387
20
10.9929
11
-25.8986
21
10.0864
0
ARC
8
PARAMETRIX
10
-27.3443
20
13.0529
40
3.3000
50
182.2664
51
295.9833
0
LINE
8
PARAMETRIX
10
-30.6417
20
12.9224
11
-30.6941
21
14.2444
0
ARC
8
PARAMETRIX
10
-32.9923
20
14.1535
40
2.3000
50
2.2664
51
62.3077
0
LINE
8
PARAMETRIX
10
-31.9234
20
16.1900
11
-32.5030
21
16.4942
0
ARC
8
PARAMETRIX
10
-33.2000
20
15.1660
40
1.5000
50
62.3077
51
155.4488
0
ARC
8
PARAMETRIX
10
0.0000
20
-0.0000
40
38.0000
50
155.4488
51
170.4897
0
ARC
8
PARAMETRIX
10
-35.9983
20
6.0307
40
1.5000
50
170.4897
51
263.6308
0
LINE
8
PARAMETRIX
10
-36.1647
20
4.5400
11
-35.5143
21
4.4674
0
ARC
8
PARAMETRIX
10
-35.2591
20
6.7532
40
2.3000
50
263.6308
51
323.6721
0
LINE
8
PARAMETRIX
10
-33.4061
20
5.3906
11
-32.6224
21
6.4565
0
ARC
8
PARAMETRIX
10
-29.9637
20
4.5016
40
3.3000
50
29.9552
51
143.6721
0
LINE
8
PARAMETRIX
10
-27.1046
20
6.1494
11
-26.0714
21
4.3567
0
ARC
8
PARAMETRIX
10
-24.0787
20
5.5052
40
2.3000
50
209.9552
51
297.0462
0
LINE
8
PARAMETRIX
10
-23.0329
20
3.4567
11
-20.5153
21
4.7420
0
ARC
8
PARAMETRIX
10
-19.0147
20
1.8029
40
3.3000
50
76.1538
51
117.0462
0
LINE
8
PARAMETRIX
10
-18.2250
20
5.0070
11
-16.7521
21
4.6440
0
ARC
8
PARAMETRIX
10
-16.6564
20
5.0324
40
0.4000
50
256.1538
51
343.1889
0
ARC
8
PARAMETRIX
10
0.0000
20
-0.0000
40
17.0000
50
162.7495
51
163.1889
0
ARC
8
PARAMETRIX
10
-16.6173
20
5.1600
40
0.4000
50
342.7495
51
69.7846
0
LINE
8
PARAMETRIX
10
-16.9914
20
3.6730
11
-18.4643
21
4.0361
0
ARC
8
PARAMETRIX
10
-19.0147
20
1.8029
40
2.3000
50
76.1538
51
117.0462
0
LINE
8
PARAMETRIX
10
-20.0605
20
3.8514
11
-22.5782
21
2.5660
0
ARC
8
PARAMETRIX
10
-24.0787
20
5.5052
40
3.3000
50
209.9552
51
297.0462
0
LINE
8
PARAMETRIX
10
-26.9379
20
3.8574
11
-27.9710
21
5.6500
0
ARC
8
PARAMETRIX
10
-29.9637
20
4.5016
40
2.3000
50
29.9552
51
143.6721
0
LINE
8
PARAMETRIX
10
-31.8167
20
5.8641
11
-32.6005
21
4.7982
0
ARC
8
PARAMETRIX
10
-35.2591
20
6.7532
40
3.3000
50
263.6308
51
323.6721
0
LINE
8
PARAMETRIX
10
-35.6252
20
3.4735
11
-36.2757
21
3.5461
0
ARC
8
PARAMETRIX
10
-36.4421
20
2.0554
40
1.5000
50
83.6308
51
176.7718
0
ARC
8
PARAMETRIX
10
0.0000
20
-0.0000
40
38.0000
50
176.7718
51
176.8589
0
ARC
8
PARAMETRIX
10
-36.4452
20
2.0000
40
1.5000
50
176.8589
51
270.0000
0
LINE
8
PARAMETRIX
10
-36.4452
20
0.5000
11
-35.7906
21
0.5000
0
ARC
8
PARAMETRIX
10
-35.7906
20
-2.8000
40
3.3000
50
29.9587
51
90.0000
0
LINE
8
PARAMETRIX
10
-32.9316
20
-1.1521
11
-32.2709
21
-2.2983
0
ARC
8
PARAMETRIX
10
-30.2782
20
-1.1498
40
2.3000
50
209.9587
51
323.6756
0
LINE
8
PARAMETRIX
10
-28.4251
20
-2.5122
11
-27.1995
21
-0.8452
0
ARC
8
PARAMETRIX
10
-24.5408
20
-2.8000
40
3.3000
50
56.5846
51
143.6756
0
LINE
8
PARAMETRIX
10
-22.7235
20
-0.0455
11
-20.3640
21
-1.6022
0
ARC
8
PARAMETRIX
10
-19.0974
20
0.3176
40
2.3000
50
236.5846
51
277.4769
0
LINE
8
PARAMETRIX
10
-18.7981
20
-1.9628
11
-17.2940
21
-1.7654
0
ARC
8
PARAMETRIX
10
-17.3461
20
-1.3688
40
0.4000
50
277.4769
51
4.5120
0
ARC
8
PARAMETRIX
10
0.0000
20
-0.0000
40
17.0000
50
169.1187
51
184.5120
0
ARC
8
PARAMETRIX
10
-17.0872
20
3.2847
40
0.4000
50
349.1187
51
76.1538
0
LINE
8
PARAMETRIX
10
-17.1639
20
-2.7569
11
-18.6679
21
-2.9543
0
ARC
8
PARAMETRIX
10
-19.0974
20
0.3176
40
3.3000
50
236.5846
51
277.4769
0
LINE
8
PARAMETRIX
10
-20.9147
20
-2.4369
11
-23.2742
21
-0.8802
0
ARC
8
PARAMETRIX
10
-24.5408
20
-2.8000
40
2.3000
50
56.5846
51
143.6756
0
LINE
8
PARAMETRIX
10
-26.3938
20
-1.4376
11
-27.6194
21
-3.1046
0
ARC
8
PARAMETRIX
10
-30.2782
20
-1.1498
40
3.3000
50
209.9587
51
323.6756
0
LINE
8
PARAMETRIX
10
-33.1373
20
-2.7977
11
-33.7980
21
-1.6514
0
ARC
8
PARAMETRIX
10
-35.7906
20
-2.8000
40
2.3000
50
29.9587
51
90.0000
0
LINE
8
PARAMETRIX
10
-35.7906
20
-0.5000
11
-36.4452
21
-0.5000
0
ARC
8
PARAMETRIX
10
-36.4452
20
-2.0000
40
1.5000
50
90.0000
51
183.1411
0
ARC
8
PARAMETRIX
10
0.0000
20
0.0000
40
38.0000
50
183.1411
51
198.1820
0
ARC
8
PARAMETRIX
10
-34.6776
20
-11.3893
40
1.5000
50
198.1820
51
291.3231
0
LINE
8
PARAMETRIX
10
-34.1321
20
-12.7867
11
-33.5224
21
-12.5487
0
ARC
8
PARAMETRIX
10
-34.3587
20
-10.4061
40
2.3000
50
291.3231
51
351.3644
0
LINE
8
PARAMETRIX
10
-32.0848
20
-10.7514
11
-31.8862
21
-9.4434
0
ARC
8
PARAMETRIX
10
-28.6236
20
-9.9389
40
3.3000
50
57.6475
51
171.3644
0
LINE
8
PARAMETRIX
10
-26.8577
20
-7.1511
11
-25.1098
21
-8.2583
0
ARC
8
PARAMETRIX
10
-23.8790
20
-6.3154
40
2.3000
50
237.6475
51
324.7385
0
LINE
8
PARAMETRIX
10
-22.0010
20
-7.6432
11
-20.3691
21
-5.3351
0
ARC
8
PARAMETRIX
10
-17.6746
20
-7.2402
40
3.3000
50
103.8462
51
144.7385
0
LINE
8
PARAMETRIX
10
-18.4643
20
-4.0361
11
-16.9914
21
-3.6730
0
ARC
8
PARAMETRIX
10
-17.0872
20
-3.2847
40
0.4000
50
283.8462
51
10.8813
0
ARC
8
PARAMETRIX
10
0.0000
20
0.0000
40
17.0000
50
190.4418
51
190.8813
0
ARC
8
PARAMETRIX
10
-17.1118
20
-3.1535
40
0.4000
50
10.4418
51
97.4769
0
LINE
8
PARAMETRIX
10
-16.7521
20
-4.6440
11
-18.2250
21
-5.0070
0
ARC
8
PARAMETRIX
10
-17.6746
20
-7.2402
40
2.3000
50
103.8462
51
144.7385
0
LINE
8
PARAMETRIX
10
-19.5526
20
-5.9124
11
-21.1845
21
-8.2205
0
ARC
8
PARAMETRIX
10
-23.8790
20
-6.3154
40
3.3000
50
237.6475
51
324.7385
0
LINE
8
PARAMETRIX
10
-25.6449
20
-9.1031
11
-27.3928
21
-7.9959
0
ARC
8
PARAMETRIX
10
-28.6236
20
-9.9389
40
2.3000
50
57.6475
51
171.3644
0
LINE
8
PARAMETRIX
10
-30.8975
20
-9.5935
11
-31.0962
21
-10.9016
0
ARC
8
PARAMETRIX
10
-34.3587
20
-10.4061
40
3.3000
50
291.3231
51
351.3644
0
LINE
8
PARAMETRIX
10
-33.1588
20
-13.4802
11
-33.7685
21
-13.7182
0
ARC
8
PARAMETRIX
10
-33.2231
20
-15.1155
40
1.5000
50
111.3231
51
204.4641
0
ARC
8
PARAMETRIX
10
0.0000
20
-0.0000
40
38.0000
50
204.4641
51
204.5512
0
ARC
8
PARAMETRIX
10
-33.2000
20
-15.1660
40
1.5000
50
204.5512
51
297.6923
0
LINE
8
PARAMETRIX
10
-32.5030
20
-16.4942
11
-31.9234
21
-16.1900
0
ARC
8
PARAMETRIX
10
-30.3898
20
-19.1120
40
3.3000
50
57.6510
51
117.6923
0
LINE
8
PARAMETRIX
10
-28.6241
20
-16.3242
11
-27.5063
21
-17.0321
0
ARC
8
PARAMETRIX
10
-26.2757
20
-15.0891
40
2.3000
50
237.6510
51
351.3679
0
LINE
8
PARAMETRIX
10
-24.0017
20
-15.4343
11
-23.6912
21
-13.3887
0
ARC
8
PARAMETRIX
10
-20.4286
20
-13.8839
40
3.3000
50
84.2769
51
171.3679
0
LINE
8
PARAMETRIX
10
-20.0995
20
-10.6004
11
-17.2868
21
-10.8823
0
ARC
8
PARAMETRIX
10
-17.0575
20
-8.5937
40
2.3000
50
264.2769
51
305.1692
0
LINE
8
PARAMETRIX
10
-15.7327
20
-10.4739
11
-14.4927
21
-9.6001
0
ARC
8
PARAMETRIX
10
-14.7231
20
-9.2732
40
0.4000
50
305.1692
51
32.2043
0
ARC
8
PARAMETRIX
10
0.0000
20
0.0000
40
17.0000
50
196.8111
51
212.2043
0
ARC
8
PARAMETRIX
10
-16.6564
20
-5.0324
40
0.4000
50
16.8111
51
103.8462
0
LINE
8
PARAMETRIX
10
-13.9167
20
-10.4176
11
-15.1567
21
-11.2913
0
ARC
8
PARAMETRIX
10
-17.0575
20
-8.5937
40
3.3000
50
264.2769
51
305.1692
0
LINE
8
PARAMETRIX
10
-17.3866
20
-11.8773
11
-20.1992
21
-11.5954
0
ARC
8
PARAMETRIX
10
-20.4286
20
-13.8839
40
2.3000
50
84.2769
51
171.3679
0
LINE
8
PARAMETRIX
10
-22.7025
20
-13.5387
11
-23.0130
21
-15.5843
0
ARC
8
PARAMETRIX
10
-26.2757
20
-15.0891
40
3.3000
50
237.6510
51
351.3679
0
LINE
8
PARAMETRIX
10
-28.0414
20
-17.8769
11
-29.1591
21
-17.1690
0
ARC
8
PARAMETRIX
10
-30.3898
20
-19.1120
40
2.3000
50
57.6510
51
117.6923
0
LINE
8
PARAMETRIX
10
-31.4587
20
-17.0755
11
-32.0382
21
-17.3796
0
ARC
8
PARAMETRIX
10
-31.3411
20
-18.7078
40
1.5000
50
117.6923
51
210.8334
0
ARC
8
PARAMETRIX
10
0.0000
20
0.0000
40
38.0000
50
210.8334
51
225.8743
0
ARC
8
PARAMETRIX
10
-25.4126
20
-26.2002
40
1.5000
50
225.8743
51
319.0154
0
LINE
8
PARAMETRIX
10
-24.2802
20
-27.1840
11
-23.8510
21
-26.6899
0
ARC
8
PARAMETRIX
10
-25.5872
20
-25.1814
40
2.3000
50
319.0154
51
19.0567
0
LINE
8
PARAMETRIX
10
-23.4132
20
-24.4305
11
-23.8452
21
-23.1799
0
ARC
8
PARAMETRIX
10
-20.7261
20
-22.1025
40
3.3000
50
85.3398
51
199.0567
0
LINE
8
PARAMETRIX
10
-20.4580
20
-18.8134
11
-18.3958
21
-18.9815
0
ARC
8
PARAMETRIX
10
-18.2089
20
-16.6891
40
2.3000
50
265.3398
51
352.4308
0
LINE
8
PARAMETRIX
10
-15.9289
20
-16.9921
11
-15.5566
21
-14.1899
0
ARC
8
PARAMETRIX
10
-12.2854
20
-14.6246
40
3.3000
50
131.5385
51
172.4308
0
LINE
8
PARAMETRIX
10
-14.4737
20
-12.1546
11
-13.3382
21
-11.1486
0
ARC
8
PARAMETRIX
10
-13.6035
20
-10.8492
40
0.4000
50
311.5385
51
38.5736
0
ARC
8
PARAMETRIX
10
0.0000
20
0.0000
40
17.0000
50
218.1341
51
218.5736
0
ARC
8
PARAMETRIX
10
-13.6863
20
-10.7446
40
0.4000
50
38.1341
51
125.1692
0
LINE
8
PARAMETRIX
10
-12.6751
20
-11.8971
11
-13.8105
21
-12.9031
0
ARC
8
PARAMETRIX
10
-12.2854
20
-14.6246
40
2.3000
50
131.5385
51
172.4308
0
LINE
8
PARAMETRIX
10
-14.5653
20
-14.3217
11
-14.9377
21
-17.1238
0
ARC
8
PARAMETRIX
10
-18.2089
20
-16.6891
40
3.3000
50
265.3398
51
352.4308
0
LINE
8
PARAMETRIX
10
-18.4770
20
-19.9782
11
-20.5392
21
-19.8101
0
ARC
8
PARAMETRIX
10
-20.7261
20
-22.1025
40
2.3000
50
85.3398
51
199.0567
0
LINE
8
PARAMETRIX
10
-22.9000
20
-22.8534
11
-22.4681
21
-24.1040
0
ARC
8
PARAMETRIX
10
-25.5872
20
-25.1814
40
3.3000
50
319.0154
51
19.0567
0
LINE
8
PARAMETRIX
10
-23.0961
20
-27.3458
11
-23.5253
21
-27.8399
0
ARC
8
PARAMETRIX
10
-22.3930
20
-28.8236
40
1.5000
50
139.0154
51
232.1565
0
ARC
8
PARAMETRIX
10
0.0000
20
0.0000
40
38.0000
50
232.1565
51
232.2435
0
ARC
8
PARAMETRIX
10
-22.3492
20
-28.8577
40
1.5000
50
232.2435
51
325.3846
0
LINE
8
PARAMETRIX
10
-21.1147
20
-29.7097
11
-20.7429
21
-29.1711
0
ARC
8
PARAMETRIX
10
-18.0270
20
-31.0457
40
3.3000
50
85.3433
51
145.3846
0
LINE
8
PARAMETRIX
10
-17.7591
20
-27.7566
11
-16.4404
21
-27.8640
0
ARC
8
PARAMETRIX
10
-16.2537
20
-25.5716
40
2.3000
50
265.3433
51
19.0602
0
LINE
8
PARAMETRIX
10
-14.0798
20
-24.8205
11
-14.7555
21
-22.8649
0
ARC
8
PARAMETRIX
10
-11.6364
20
-21.7872
40
3.3000
50
111.9692
51
199.0602
0
LINE
8
PARAMETRIX
10
-12.8710
20
-18.7269
11
-10.2495
21
-17.6694
0
ARC
8
PARAMETRIX
10
-11.1099
20
-15.5364
40
2.3000
50
291.9692
51
332.8615
0
LINE
8
PARAMETRIX
10
-9.0631
20
-16.5855
11
-8.3712
21
-15.2356
0
ARC
8
PARAMETRIX
10
-8.7272
20
-15.0531
40
0.4000
50
332.8615
51
59.8966
0
ARC
8
PARAMETRIX
10
0.0000
20
0.0000
40
17.0000
50
224.5034
51
239.8966
0
ARC
8
PARAMETRIX
10
-12.4098
20
-12.1965
40
0.4000
50
44.5034
51
131.5385
0
LINE
8
PARAMETRIX
10
-7.4813
20
-15.6917
11
-8.1732
21
-17.0417
0
ARC
8
PARAMETRIX
10
-11.1099
20
-15.5364
40
3.3000
50
291.9692
51
332.8615
0
LINE
8
PARAMETRIX
10
-9.8754
20
-18.5968
11
-12.4968
21
-19.6543
0
ARC
8
PARAMETRIX
10
-11.6364
20
-21.7872
40
2.3000
50
111.9692
51
199.0602
0
LINE
8
PARAMETRIX
10
-13.8103
20
-22.5383
11
-13.1346
21
-24.4939
0
ARC
8
PARAMETRIX
10
-16.2537
20
-25.5716
40
3.3000
50
265.3433
51
19.0602
0
LINE
8
PARAMETRIX
10
-16.5216
20
-28.8607
11
-17.8403
21
-28.7533
0
ARC
8
PARAMETRIX
10
-18.0270
20
-31.0457
40
2.3000
50
85.3433
51
145.3846
0
LINE
8
PARAMETRIX
10
-19.9199
20
-29.7392
11
-20.2917
21
-30.2778
0
ARC
8
PARAMETRIX
10
-19.0572
20
-31.1299
40
1.5000
50
145.3846
51
238.5257
0
ARC
8
PARAMETRIX
10
0.0000
20
0.0000
40
38.0000
50
238.5257
51
253.5666
0
ARC
8
PARAMETRIX
10
-10.3259
20
-35.0090
40
1.5000
50
253.5666
51
346.7077
0
LINE
8
PARAMETRIX
10
-8.8660
20
-35.3538
11
-8.7156
21
-34.7168
0
ARC
8
PARAMETRIX
10
-10.9539
20
-34.1880
40
2.3000
50
346.7077
51
46.7490
0
LINE
8
PARAMETRIX
10
-9.3780
20
-32.5128
11
-10.3417
21
-31.6062
0
ARC
8
PARAMETRIX
10
-8.0805
20
-29.2027
40
3.3000
50
113.0321
51
226.7490
0
LINE
8
PARAMETRIX
10
-9.3716
20
-26.1657
11
-7.4675
21
-25.3562
0
ARC
8
PARAMETRIX
10
-8.3674
20
-23.2396
40
2.3000
50
293.0321
51
20.1231
0
LINE
8
PARAMETRIX
10
-6.2078
20
-22.4483
11
-7.1803
21
-19.7941
0
ARC
8
PARAMETRIX
10
-4.0817
20
-18.6588
40
3.3000
50
159.2308
51
200.1231
0
LINE
8
PARAMETRIX
10
-7.1673
20
-17.4886
11
-6.6294
21
-16.0702
0
ARC
8
PARAMETRIX
10
-7.0034
20
-15.9284
40
0.4000
50
339.2308
51
66.2659
0
ARC
8
PARAMETRIX
10
0.0000
20
0.0000
40
17.0000
50
245.8264
51
246.2659
0
ARC
8
PARAMETRIX
10
-7.1253
20
-15.8742
40
0.4000
50
65.8264
51
152.8615
0
LINE
8
PARAMETRIX
10
-5.6944
20
-16.4248
11
-6.2323
21
-17.8432
0
ARC
8
PARAMETRIX
10
-4.0817
20
-18.6588
40
2.3000
50
159.2308
51
200.1231
0
LINE
8
PARAMETRIX
10
-6.2413
20
-19.4501
11
-5.2688
21
-22.1042
0
ARC
8
PARAMETRIX
10
-8.3674
20
-23.2396
40
3.3000
50
293.0321
51
20.1231
0
LINE
8
PARAMETRIX
10
-7.0763
20
-26.2765
11
-8.9804
21
-27.0860
0
ARC
8
PARAMETRIX
10
-8.0805
20
-29.2027
40
2.3000
50
113.0321
51
226.7490
0
LINE
8
PARAMETRIX
10
-9.6565
20
-30.8779
11
-8.6928
21
-31.7844
0
ARC
8
PARAMETRIX
10
-10.9539
20
-34.1880
40
3.3000
50
346.7077
51
46.7490
0
LINE
8
PARAMETRIX
10
-7.7423
20
-34.9468
11
-7.8928
21
-35.5837
0
ARC
8
PARAMETRIX
10
-6.4330
20
-35.9286
40
1.5000
50
166.7077
51
259.8488
0
ARC
8
PARAMETRIX
10
0.0000
20
0.0000
40
38.0000
50
259.8488
51
259.9359
0
ARC
8
PARAMETRIX
10
-6.3784
20
-35.9384
40
1.5000
50
259.9359
51
353.0769
0
LINE
8
PARAMETRIX
10
-4.8893
20
-36.1192
11
-4.8104
21
-35.4694
0
ARC
8
PARAMETRIX
10
-1.5345
20
-35.8672
40
3.3000
50
113.0356
51
173.0769
0
LINE
8
PARAMETRIX
10
-2.8258
20
-32.8303
11
-1.6082
21
-32.3126
0
ARC
8
PARAMETRIX
10
-2.5082
20
-30.1960
40
2.3000
50
293.0356
51
46.7525
0
LINE
8
PARAMETRIX
10
-0.9324
20
-28.5207
11
-2.4395
21
-27.1031
0
ARC
8
PARAMETRIX
10
-0.1785
20
-24.6994
40
3.3000
50
139.6615
51
226.7525
0
LINE
8
PARAMETRIX
10
-2.6939
20
-22.5633
11
-0.8641
21
-20.4086
0
ARC
8
PARAMETRIX
10
-2.6172
20
-18.9198
40
2.3000
50
319.6615
51
0.5538
0
LINE
8
PARAMETRIX
10
-0.3173
20
-18.8976
11
-0.3320
21
-17.3807
0
ARC
8
PARAMETRIX
10
-0.7320
20
-17.3846
40
0.4000
50
0.5538
51
87.5889
0
ARC
8
PARAMETRIX
10
0.0000
20
0.0000
40
17.0000
50
252.1957
51
267.5889
0
ARC
8
PARAMETRIX
10
-5.3204
20
-16.5666
40
0.4000
50
72.1957
51
159.2308
0
LINE
8
PARAMETRIX
10
0.6679
20
-17.3711
11
0.6826
21
-18.8879
0
ARC
8
PARAMETRIX
10
-2.6172
20
-18.9198
40
3.3000
50
319.6615
51
0.5538
0
LINE
8
PARAMETRIX
10
-0.1019
20
-21.0559
11
-1.9316
21
-23.2106
0
ARC
8
PARAMETRIX
10
-0.1785
20
-24.6994
40
2.3000
50
139.6615
51
226.7525
0
LINE
8
PARAMETRIX
10
-1.7543
20
-26.3747
11
-0.2472
21
-27.7923
0
ARC
8
PARAMETRIX
10
-2.5082
20
-30.1960
40
3.3000
50
293.0356
51
46.7525
0
LINE
8
PARAMETRIX
10
-1.2169
20
-33.2329
11
-2.4345
21
-33.7506
0
ARC
8
PARAMETRIX
10
-1.5345
20
-35.8672
40
2.3000
50
113.0356
51
173.0769
0
LINE
8
PARAMETRIX
10
-3.8177
20
-35.5900
11
-3.8966
21
-36.2397
0
ARC
8
PARAMETRIX
10
-2.4076
20
-36.4205
40
1.5000
50
173.0769
51
266.2180
0
ARC
8
PARAMETRIX
10
0.0000
20
0.0000
40
38.0000
50
266.2180
51
281.2589
0
ARC
8
PARAMETRIX
10
7.1264
20
-35.7976
40
1.5000
50
281.2589
51
14.4000
0
LINE
8
PARAMETRIX
10
8.5793
20
-35.4245
11
8.4165
21
-34.7906
0
ARC
8
PARAMETRIX
10
6.1887
20
-35.3625
40
2.3000
50
14.4000
51
74.4413
0
LINE
8
PARAMETRIX
10
6.8057
20
-33.1468
11
5.5311
21
-32.7919
0
ARC
8
PARAMETRIX
10
6.4162
20
-29.6129
40
3.3000
50
140.7244
51
254.4413
0
LINE
8
PARAMETRIX
10
3.8617
20
-27.5238
11
5.1715
21
-25.9221
0
ARC
8
PARAMETRIX
10
3.3910
20
-24.4661
40
2.3000
50
320.7244
51
47.8154
0
LINE
8
PARAMETRIX
10
4.9355
20
-22.7619
11
2.8409
21
-20.8636
0
ARC
8
PARAMETRIX
10
5.0570
20
-18.4184
40
3.3000
50
186.9231
51
227.8154
0
LINE
8
PARAMETRIX
10
1.7810
20
-18.8162
11
1.5982
21
-17.3103
0
ARC
8
PARAMETRIX
10
1.2011
20
-17.3585
40
0.4000
50
6.9231
51
93.9582
0
ARC
8
PARAMETRIX
10
-0.0000
20
0.0000
40
17.0000
50
273.5187
51
273.9582
0
ARC
8
PARAMETRIX
10
1.0679
20
-17.3672
40
0.4000
50
93.5187
51
180.5538
0
LINE
8
PARAMETRIX
10
2.5909
20
-17.1897
11
2.7737
21
-18.6956
0
ARC
8
PARAMETRIX
10
5.0570
20
-18.4184
40
2.3000
50
186.9231
51
227.8154
0
LINE
8
PARAMETRIX
10
3.5125
20
-20.1227
11
5.6070
21
-22.0209
0
ARC
8
PARAMETRIX
10
3.3910
20
-24.4661
40
3.3000
50
320.7244
51
47.8154
0
LINE
8
PARAMETRIX
10
5.9456
20
-26.5552
11
4.6358
21
-28.1569
0
ARC
8
PARAMETRIX
10
6.4162
20
-29.6129
40
2.3000
50
140.7244
51
254.4413
0
LINE
8
PARAMETRIX
10
5.7993
20
-31.8286
11
7.0739
21
-32.1835
0
ARC
8
PARAMETRIX
10
6.1887
20
-35.3625
40
3.3000
50
14.4000
51
74.4413
0
LINE
8
PARAMETRIX
10
9.3851
20
-34.5419
11
9.5478
21
-35.1758
0
ARC
8
PARAMETRIX
10
11.0007
20
-34.8028
40
1.5000
50
194.4000
51
287.5411
0
ARC
8
PARAMETRIX
10
0.0000
20
0.0000
40
38.0000
50
287.5411
51
287.6282
0
ARC
8
PARAMETRIX
10
11.0536
20
-34.7860
40
1.5000
50
287.6282
51
20.7692
0
LINE
8
PARAMETRIX
10
12.4561
20
-34.2541
11
12.2240
21
-33.6421
0
ARC
8
PARAMETRIX
10
15.3096
20
-32.4719
40
3.3000
50
140.7279
51
200.7692
0
LINE
8
PARAMETRIX
10
12.7549
20
-30.3830
11
13.5924
21
-29.3588
0
ARC
8
PARAMETRIX
10
11.8119
20
-27.9029
40
2.3000
50
320.7279
51
74.4448
0
LINE
8
PARAMETRIX
10
12.4286
20
-25.6871
11
10.4354
21
-25.1323
0
ARC
8
PARAMETRIX
10
11.3203
20
-21.9531
40
3.3000
50
167.3538
51
254.4448
0
LINE
8
PARAMETRIX
10
8.1004
20
-21.2307
11
8.7192
21
-18.4725
0
ARC
8
PARAMETRIX
10
6.4750
20
-17.9690
40
2.3000
50
347.3538
51
28.2462
0
LINE
8
PARAMETRIX
10
8.5012
20
-16.8805
11
7.7832
21
-15.5442
0
ARC
8
PARAMETRIX
10
7.4309
20
-15.7335
40
0.4000
50
28.2462
51
115.2813
0
ARC
8
PARAMETRIX
10
-0.0000
20
0.0000
40
17.0000
50
279.8880
51
295.2813
0
ARC
8
PARAMETRIX
10
2.9880
20
-17.1415
40
0.4000
50
99.8880
51
186.9231
0
LINE
8
PARAMETRIX
10
8.6642
20
-15.0709
11
9.3821
21
-16.4072
0
ARC
8
PARAMETRIX
10
6.4750
20
-17.9690
40
3.3000
50
347.3538
51
28.2462
0
LINE
8
PARAMETRIX
10
9.6950
20
-18.6914
11
9.0761
21
-21.4496
0
ARC
8
PARAMETRIX
10
11.3203
20
-21.9531
40
2.3000
50
167.3538
51
254.4448
0
LINE
8
PARAMETRIX
10
10.7035
20
-24.1689
11
12.6968
21
-24.7237
0
ARC
8
PARAMETRIX
10
11.8119
20
-27.9029
40
3.3000
50
320.7279
51
74.4448
0
LINE
8
PARAMETRIX
10
14.3665
20
-29.9918
11
13.5290
21
-31.0160
0
ARC
8
PARAMETRIX
10
15.3096
20
-32.4719
40
2.3000
50
140.7279
51
200.7692
0
LINE
8
PARAMETRIX
10
13.1590
20
-33.2875
11
13.3911
21
-33.8995
0
ARC
8
PARAMETRIX
10
14.7937
20
-33.3676
40
1.5000
50
200.7692
51
293.9103
0
ARC
8
PARAMETRIX
10
-0.0000
20
0.0000
40
38.0000
50
293.9103
51
308.9512
0
ARC
8
PARAMETRIX
10
22.9460
20
-28.3854
40
1.5000
50
308.9512
51
42.0923
0
LINE
8
PARAMETRIX
10
24.0591
20
-27.3799
11
23.6204
21
-26.8942
0
ARC
8
PARAMETRIX
10
21.9136
20
-28.4359
40
2.3000
50
42.0923
51
102.1336
0
LINE
8
PARAMETRIX
10
21.4302
20
-26.1873
11
20.1367
21
-26.4654
0
ARC
8
PARAMETRIX
10
19.4431
20
-23.2391
40
3.3000
50
168.4167
51
282.1336
0
LINE
8
PARAMETRIX
10
16.2103
20
-22.5765
11
16.6257
21
-20.5496
0
ARC
8
PARAMETRIX
10
14.3726
20
-20.0878
40
2.3000
50
348.4167
51
75.5077
0
LINE
8
PARAMETRIX
10
14.9481
20
-17.8610
11
12.2113
21
-17.1536
0
ARC
8
PARAMETRIX
10
13.0372
20
-13.9586
40
3.3000
50
214.6154
51
255.5077
0
LINE
8
PARAMETRIX
10
10.3213
20
-15.8332
11
9.4596
21
-14.5848
0
ARC
8
PARAMETRIX
10
9.1304
20
-14.8120
40
0.4000
50
34.6154
51
121.6505
0
ARC
8
PARAMETRIX
10
-0.0000
20
0.0000
40
17.0000
50
301.2111
51
301.6505
0
ARC
8
PARAMETRIX
10
9.0165
20
-14.8816
40
0.4000
50
121.2111
51
208.2462
0
LINE
8
PARAMETRIX
10
10.2826
20
-14.0167
11
11.1443
21
-15.2651
0
ARC
8
PARAMETRIX
10
13.0372
20
-13.9586
40
2.3000
50
214.6154
51
255.5077
0
LINE
8
PARAMETRIX
10
12.4616
20
-16.1854
11
15.1984
21
-16.8928
0
ARC
8
PARAMETRIX
10
14.3726
20
-20.0878
40
3.3000
50
348.4167
51
75.5077
0
LINE
8
PARAMETRIX
10
17.6054
20
-20.7504
11
17.1899
21
-22.7773
0
ARC
8
PARAMETRIX
10
19.4431
20
-23.2391
40
2.3000
50
168.4167
51
282.1336
0
LINE
8
PARAMETRIX
10
19.9265
20
-25.4877
11
21.2200
21
-25.2097
0
ARC
8
PARAMETRIX
10
21.9136
20
-28.4359
40
3.3000
50
42.0923
51
102.1336
0
LINE
8
PARAMETRIX
10
24.3625
20
-26.2238
11
24.8012
21
-26.7095
0
ARC
8
PARAMETRIX
10
25.9143
20
-25.7041
40
1.5000
50
222.0923
51
315.2334
0
ARC
8
PARAMETRIX
10
-0.0000
20
0.0000
40
38.0000
50
315.2334
51
315.3205
0
ARC
8
PARAMETRIX
10
25.9534
20
-25.6646
40
1.5000
50
315.3205
51
48.4615
0
LINE
8
PARAMETRIX
10
26.9480
20
-24.5419
11
26.4581
21
-24.1078
0
ARC
8
PARAMETRIX
10
28.6464
20
-21.6378
40
3.3000
50
168.4202
51
228.4615
0
LINE
8
PARAMETRIX
10
25.4136
20
-20.9753
11
25.6792
21
-19.6792
0
ARC
8
PARAMETRIX
10
23.4260
20
-19.2175
40
2.3000
50
348.4202
51
102.1371
0
LINE
8
PARAMETRIX
10
22.9424
20
-16.9689
11
20.9196
21
-17.4040
0
ARC
8
PARAMETRIX
10
20.2258
20
-14.1777
40
3.3000
50
195.0461
51
282.1371
0
LINE
8
PARAMETRIX
10
17.0389
20
-15.0344
11
16.3051
21
-12.3046
0
ARC
8
PARAMETRIX
10
14.0840
20
-12.9016
40
2.3000
50
15.0461
51
55.9385
0
LINE
8
PARAMETRIX
10
15.3721
20
-10.9962
11
14.1155
21
-10.1466
0
ARC
8
PARAMETRIX
10
13.8914
20
-10.4780
40
0.4000
50
55.9385
51
142.9736
0
ARC
8
PARAMETRIX
10
-0.0000
20
0.0000
40
17.0000
50
307.5803
51
322.9736
0
ARC
8
PARAMETRIX
10
10.6118
20
-13.7895
40
0.4000
50
127.5803
51
214.6154
0
LINE
8
PARAMETRIX
10
14.6755
20
-9.3182
11
15.9322
21
-10.1678
0
ARC
8
PARAMETRIX
10
14.0840
20
-12.9016
40
3.3000
50
15.0461
51
55.9385
0
LINE
8
PARAMETRIX
10
17.2708
20
-12.0450
11
18.0046
21
-14.7748
0
ARC
8
PARAMETRIX
10
20.2258
20
-14.1777
40
2.3000
50
195.0461
51
282.1371
0
LINE
8
PARAMETRIX
10
20.7094
20
-16.4263
11
22.7322
21
-15.9913
0
ARC
8
PARAMETRIX
10
23.4260
20
-19.2175
40
3.3000
50
348.4202
51
102.1371
0
LINE
8
PARAMETRIX
10
26.6588
20
-19.8799
11
26.3932
21
-21.1761
0
ARC
8
PARAMETRIX
10
28.6464
20
-21.6378
40
2.3000
50
168.4202
51
228.4615
0
LINE
8
PARAMETRIX
10
27.1212
20
-23.3593
11
27.6112
21
-23.7934
0
ARC
8
PARAMETRIX
10
28.6058
20
-22.6706
40
1.5000
50
228.4615
51
321.6026
0
ARC
8
PARAMETRIX
10
-0.0000
20
0.0000
40
38.0000
50
321.6026
51
336.6435
0
ARC
8
PARAMETRIX
10
33.5091
20
-14.4704
40
1.5000
50
336.6435
51
69.7846
0
LINE
8
PARAMETRIX
10
34.0274
20
-13.0628
11
33.4132
21
-12.8367
0
ARC
8
PARAMETRIX
10
32.6184
20
-14.9950
40
2.3000
50
69.7846
51
129.8260
0
LINE
8
PARAMETRIX
10
31.1454
20
-13.2286
11
30.1293
21
-14.0760
0
ARC
8
PARAMETRIX
10
28.0157
20
-11.5416
40
3.3000
50
196.1090
51
309.8260
0
LINE
8
PARAMETRIX
10
24.8453
20
-12.4572
11
24.2712
21
-10.4694
0
ARC
8
PARAMETRIX
10
22.0615
20
-11.1076
40
2.3000
50
16.1090
51
103.2000
0
LINE
8
PARAMETRIX
10
21.5363
20
-8.8684
11
18.7843
21
-9.5138
0
ARC
8
PARAMETRIX
10
18.0307
20
-6.3010
40
3.3000
50
242.3077
51
283.2000
0
LINE
8
PARAMETRIX
10
16.4971
20
-9.2230
11
15.1539
21
-8.5181
0
ARC
8
PARAMETRIX
10
14.9681
20
-8.8723
40
0.4000
50
62.3077
51
149.3428
0
ARC
8
PARAMETRIX
10
-0.0000
20
0.0000
40
17.0000
50
328.9034
51
329.3428
0
ARC
8
PARAMETRIX
10
14.8996
20
-8.9868
40
0.4000
50
148.9034
51
235.9385
0
LINE
8
PARAMETRIX
10
15.6187
20
-7.6326
11
16.9619
21
-8.3376
0
ARC
8
PARAMETRIX
10
18.0307
20
-6.3010
40
2.3000
50
242.3077
51
283.2000
0
LINE
8
PARAMETRIX
10
18.5559
20
-8.5403
11
21.3080
21
-7.8948
0
ARC
8
PARAMETRIX
10
22.0615
20
-11.1076
40
3.3000
50
16.1090
51
103.2000
0
LINE
8
PARAMETRIX
10
25.2320
20
-10.1920
11
25.8061
21
-12.1798
0
ARC
8
PARAMETRIX
10
28.0157
20
-11.5416
40
2.3000
50
196.1090
51
309.8260
0
LINE
8
PARAMETRIX
10
29.4888
20
-13.3080
11
30.5049
21
-12.4606
0
ARC
8
PARAMETRIX
10
32.6184
20
-14.9950
40
3.3000
50
69.7846
51
129.8260
0
LINE
8
PARAMETRIX
10
33.7587
20
-11.8983
11
34.3729
21
-12.1244
0
ARC
8
PARAMETRIX
10
34.8913
20
-10.7168
40
1.5000
50
249.7846
51
342.9257
0
ARC
8
PARAMETRIX
10
-0.0000
20
-0.0000
40
38.0000
50
342.9257
51
343.0128
0
ARC
8
PARAMETRIX
10
34.9075
20
-10.6638
40
1.5000
50
343.0128
51
76.1538
0
LINE
8
PARAMETRIX
10
35.2665
20
-9.2074
11
34.6310
21
-9.0507
0
ARC
8
PARAMETRIX
10
35.4207
20
-5.8466
40
3.3000
50
196.1125
51
256.1538
0
LINE
8
PARAMETRIX
10
32.2503
20
-6.7625
11
31.8832
21
-5.4914
0
ARC
8
PARAMETRIX
10
29.6735
20
-6.1297
40
2.3000
50
16.1125
51
129.8295
0
LINE
8
PARAMETRIX
10
28.2003
20
-4.3634
11
26.6114
21
-5.6886
0
ARC
8
PARAMETRIX
10
24.4978
20
-3.1544
40
3.3000
50
222.7384
51
309.8295
0
LINE
8
PARAMETRIX
10
22.0740
20
-5.3939
11
20.1557
21
-3.3178
0
ARC
8
PARAMETRIX
10
18.4664
20
-4.8787
40
2.3000
50
42.7384
51
83.6308
0
LINE
8
PARAMETRIX
10
18.7216
20
-2.5929
11
17.2140
21
-2.4246
0
ARC
8
PARAMETRIX
10
17.1696
20
-2.8221
40
0.4000
50
83.6308
51
170.6659
0
ARC
8
PARAMETRIX
10
-0.0000
20
0.0000
40
17.0000
50
335.2726
51
350.6659
0
ARC
8
PARAMETRIX
10
15.8046
20
-7.2784
40
0.4000
50
155.2726
51
242.3077
0
LINE
8
PARAMETRIX
10
17.3249
20
-1.4308
11
18.8325
21
-1.5991
0
ARC
8
PARAMETRIX
10
18.4664
20
-4.8787
40
3.3000
50
42.7384
51
83.6308
0
LINE
8
PARAMETRIX
10
20.8901
20
-2.6391
11
22.8085
21
-4.7153
0
ARC
8
PARAMETRIX
10
24.4978
20
-3.1544
40
2.3000
50
222.7384
51
309.8295
0
LINE
8
PARAMETRIX
10
25.9709
20
-4.9207
11
27.5598
21
-3.5954
0
ARC
8
PARAMETRIX
10
29.6735
20
-6.1297
40
3.3000
50
16.1125
51
129.8295
0
LINE
8
PARAMETRIX
10
32.8439
20
-5.2138
11
33.2111
21
-6.4849
0
ARC
8
PARAMETRIX
10
35.4207
20
-5.8466
40
2.3000
50
196.1125
51
256.1538
0
LINE
8
PARAMETRIX
10
34.8703
20
-8.0798
11
35.5058
21
-8.2364
0
ARC
8
PARAMETRIX
10
35.8648
20
-6.7800
40
1.5000
50
256.1538
51
349.2949
0
ARC
8
PARAMETRIX
10
-0.0000
20
0.0000
40
38.0000
50
349.2949
51
4.3359
0
ARC
8
PARAMETRIX
10
36.3955
20
2.7595
40
1.5000
50
4.3359
51
97.4769
0
LINE
8
PARAMETRIX
10
36.2003
20
4.2467
11
35.5514
21
4.1616
0
ARC
8
PARAMETRIX
10
35.8507
20
1.8811
40
2.3000
50
97.4769
51
157.5183
0
LINE
8
PARAMETRIX
10
33.7255
20
2.7606
11
33.2196
21
1.5381
0
ARC
8
PARAMETRIX
10
30.1703
20
2.8000
40
3.3000
50
223.8013
51
337.5183
0
LINE
8
PARAMETRIX
10
27.7886
20
0.5159
11
26.3565
21
2.0092
0
ARC
8
PARAMETRIX
10
24.6965
20
0.4172
40
2.3000
50
43.8013
51
130.8923
0
LINE
8
PARAMETRIX
10
23.1908
20
2.1559
11
21.0540
21
0.3054
0
ARC
8
PARAMETRIX
10
18.8936
20
2.8000
40
3.3000
50
270.0000
51
310.8923
0
LINE
8
PARAMETRIX
10
18.8936
20
-0.5000
11
17.3767
21
-0.5000
0
ARC
8
PARAMETRIX
10
17.3767
20
-0.9000
40
0.4000
50
90.0000
51
177.0351
0
ARC
8
PARAMETRIX
10
-0.0000
20
0.0000
40
17.0000
50
356.5957
51
357.0351
0
ARC
8
PARAMETRIX
10
17.3693
20
-1.0332
40
0.4000
50
176.5957
51
263.6308
0
ENDSEC
0
EOF
