<svg width="102" height="102" viewBox="-47 -47 102 102" xmlns="http://www.w3.org/2000/svg"><circle cx="0.0000" cy="0.0000" r="42.0000" stroke="green" stroke-width="1" fill="none" /><path d="M 8.8273 0.0000 L 10.9717 -0.0000 A 1.0000 1.0000 0 0 0 11.9509 -1.2028 L 11.4457 -3.6424 A 1.0000 1.0000 0 0 0 10.0693 -4.3574 L 8.1013 -3.5057 A 1.0000 1.0000 0 0 1 6.8770 -3.8614 L 6.1219 -4.9726 A 1.0000 1.0000 0 0 1 6.2418 -6.2418 L 7.7582 -7.7582 A 1.0000 1.0000 0 0 0 7.6001 -9.3011 L 5.5177 -10.6689 A 1.0000 1.0000 0 0 0 4.0389 -10.2012 L 3.2495 -8.2074 A 1.0000 1.0000 0 0 1 2.1324 -7.5932 L 0.8126 -7.8450 A 1.0000 1.0000 0 0 1 0.0000 -8.8273 L 0.0000 -10.9717 A 1.0000 1.0000 0 0 0 -1.2028 -11.9509 L -3.6424 -11.4457 A 1.0000 1.0000 0 0 0 -4.3574 -10.0693 L -3.5057 -8.1013 A 1.0000 1.0000 0 0 1 -3.8614 -6.8770 L -4.9726 -6.1219 A 1.0000 1.0000 0 0 1 -6.2418 -6.2418 L -7.7582 -7.7582 A 1.0000 1.0000 0 0 0 -9.3011 -7.6001 L -10.6689 -5.5177 A 1.0000 1.0000 0 0 0 -10.2012 -4.0389 L -8.2074 -3.2495 A 1.0000 1.0000 0 0 1 -7.5932 -2.1324 L -7.8450 -0.8126 A 1.0000 1.0000 0 0 1 -8.8273 -0.0000 L -10.9717 -0.0000 A 1.0000 1.0000 0 0 0 -11.9509 1.2028 L -11.4457 3.6424 A 1.0000 1.0000 0 0 0 -10.0693 4.3574 L -8.1013 3.5057 A 1.0000 1.0000 0 0 1 -6.8770 3.8614 L -6.1219 4.9726 A 1.0000 1.0000 0 0 1 -6.2418 6.2418 L -7.7582 7.7582 A 1.0000 1.0000 0 0 0 -7.6001 9.3011 L -5.5177 10.6689 A 1.0000 1.0000 0 0 0 -4.0389 10.2012 L -3.2495 8.2074 A 1.0000 1.0000 0 0 1 -2.1324 7.5932 L -0.8126 7.8450 A 1.0000 1.0000 0 0 1 -0.0000 8.8273 L -0.0000 10.9717 A 1.0000 1.0000 0 0 0 1.2028 11.9509 L 3.6424 11.4457 A 1.0000 1.0000 0 0 0 4.3574 10.0693 L 3.5057 8.1013 A 1.0000 1.0000 0 0 1 3.8614 6.8770 L 4.9726 6.1219 A 1.0000 1.0000 0 0 1 6.2418 6.2418 L 7.7582 7.7582 A 1.0000 1.0000 0 0 0 9.3011 7.6001 L 10.6689 5.5177 A 1.0000 1.0000 0 0 0 10.2012 4.0389 L 8.2074 3.2495 A 1.0000 1.0000 0 0 1 7.5932 2.1324 L 7.8450 0.8126 A 1.0000 1.0000 0 0 1 8.8273 0.0000 Z" stroke="green" stroke-width="1" fill="none" /><circle cx="15.0000" cy="0.0000" r="1.0000" stroke="green" stroke-width="1" fill="none" /><circle cx="10.6066" cy="-10.6066" r="1.0000" stroke="green" stroke-width="1" fill="none" /><circle cx="0.0000" cy="-15.0000" r="1.0000" stroke="green" stroke-width="1" fill="none" /><circle cx="-10.6066" cy="-10.6066" r="1.0000" stroke="green" stroke-width="1" fill="none" /><circle cx="-15.0000" cy="-0.0000" r="1.0000" stroke="green" stroke-width="1" fill="none" /><circle cx="-10.6066" cy="10.6066" r="1.0000" stroke="green" stroke-width="1" fill="none" /><circle cx="-0.0000" cy="15.0000" r="1.0000" stroke="green" stroke-width="1" fill="none" /><circle cx="10.6066" cy="10.6066" r="1.0000" stroke="green" stroke-width="1" fill="none" /><circle cx="40.0000" cy="0.0000" r="1.0000" stroke="green" stroke-width="1" fill="none" /><circle cx="36.9552" cy="-15.3073" r="1.0000" stroke="green" stroke-width="1" fill="none" /><circle cx="28.2843" cy="-28.2843" r="1.0000" stroke="green" stroke-width="1" fill="none" /><circle cx="15.3073" cy="-36.9552" r="1.0000" stroke="green" stroke-width="1" fill="none" /><circle cx="0.0000" cy="-40.0000" r="1.0000" stroke="green" stroke-width="1" fill="none" /><circle cx="-15.3073" cy="-36.9552" r="1.0000" stroke="green" stroke-width="1" fill="none" /><circle cx="-28.2843" cy="-28.2843" r="1.0000" stroke="green" stroke-width="1" fill="none" /><circle cx="-36.9552" cy="-15.3073" r="1.0000" stroke="green" stroke-width="1" fill="none" /><circle cx="-40.0000" cy="-0.0000" r="1.0000" stroke="green" stroke-width="1" fill="none" /><circle cx="-36.9552" cy="15.3073" r="1.0000" stroke="green" stroke-width="1" fill="none" /><circle cx="-28.2843" cy="28.2843" r="1.0000" stroke="green" stroke-width="1" fill="none" /><circle cx="-15.3073" cy="36.9552" r="1.0000" stroke="green" stroke-width="1" fill="none" /><circle cx="-0.0000" cy="40.0000" r="1.0000" stroke="green" stroke-width="1" fill="none" /><circle cx="15.3073" cy="36.9552" r="1.0000" stroke="green" stroke-width="1" fill="none" /><circle cx="28.2843" cy="28.2843" r="1.0000" stroke="green" stroke-width="1" fill="none" /><circle cx="36.9552" cy="15.3073" r="1.0000" stroke="green" stroke-width="1" fill="none" /><path d="M 17.3767 -0.5000 L 18.8936 -0.5000 A 2.3000 2.3000 0 0 0 20.3993 -1.0613 L 22.5362 -2.9118 A 3.3000 3.3000 0 0 1 27.0782 -2.7013 L 28.5103 -1.2080 A 2.3000 2.3000 0 0 0 32.2956 -1.9205 L 32.8015 -3.1430 A 3.3000 3.3000 0 0 1 35.4213 -5.1531 L 36.0702 -5.2382 A 1.5000 1.5000 0 0 0 37.3493 -7.0019 A 38.0000 38.0000 0 0 0 37.3387 -7.0586 A 1.5000 1.5000 0 0 0 35.5058 -8.2364 L 34.8703 -8.0798 A 3.3000 3.3000 0 0 1 31.6989 -8.9996 L 30.7831 -9.9545 A 2.3000 2.3000 0 0 0 26.9979 -9.2418 L 26.2069 -7.3299 A 3.3000 3.3000 0 0 1 22.0523 -5.4822 L 19.3888 -6.4291 A 2.3000 2.3000 0 0 0 17.7821 -6.4045 L 16.3690 -5.8529 A 0.4000 0.4000 0 0 0 16.1348 -5.3543 A 17.0000 17.0000 0 0 1 16.9772 -0.8793 A 0.4000 0.4000 0 0 0 17.3767 -0.5000 Z" stroke="green" stroke-width="1" fill="none" /><path d="M 16.0054 -6.7844 L 17.4185 -7.3360 A 3.3000 3.3000 0 0 1 19.7238 -7.3713 L 22.3872 -6.4245 A 2.3000 2.3000 0 0 0 25.2828 -7.7123 L 26.0739 -9.6241 A 3.3000 3.3000 0 0 1 31.5048 -10.6467 L 32.4206 -9.6918 A 2.3000 2.3000 0 0 0 34.6310 -9.0507 L 35.2665 -9.2074 A 1.5000 1.5000 0 0 0 36.3421 -11.1020 A 38.0000 38.0000 0 0 0 32.2159 -20.1528 A 1.5000 1.5000 0 0 0 30.0803 -20.5834 L 29.5452 -20.2064 A 2.3000 2.3000 0 0 0 28.5795 -18.1174 L 28.6997 -16.7998 A 3.3000 3.3000 0 0 1 24.3658 -13.3708 L 22.4038 -14.0275 A 2.3000 2.3000 0 0 0 19.5325 -12.6862 L 18.5004 -10.0547 A 3.3000 3.3000 0 0 1 16.9619 -8.3376 L 15.6187 -7.6326 A 0.4000 0.4000 0 0 0 15.4412 -7.1111 A 17.0000 17.0000 0 0 1 15.4953 -6.9925 A 0.4000 0.4000 0 0 0 16.0054 -6.7844 Z" stroke="green" stroke-width="1" fill="none" /><path d="M 15.1539 -8.5181 L 16.4971 -9.2230 A 2.3000 2.3000 0 0 0 17.5695 -10.4198 L 18.6016 -13.0514 A 3.3000 3.3000 0 0 1 22.7212 -14.9758 L 24.6832 -14.3191 A 2.3000 2.3000 0 0 0 27.7038 -16.7090 L 27.5836 -18.0266 A 3.3000 3.3000 0 0 1 28.9692 -21.0239 L 29.5043 -21.4009 A 1.5000 1.5000 0 0 0 29.8173 -23.5570 A 38.0000 38.0000 0 0 0 29.7814 -23.6023 A 1.5000 1.5000 0 0 0 27.6112 -23.7934 L 27.1212 -23.3593 A 3.3000 3.3000 0 0 1 23.8857 -22.7000 L 22.6310 -23.1199 A 2.3000 2.3000 0 0 0 19.6106 -20.7298 L 19.7986 -18.6693 A 3.3000 3.3000 0 0 1 16.9786 -15.1025 L 14.1802 -14.7031 A 2.3000 2.3000 0 0 0 12.7690 -13.9346 L 11.7741 -12.7895 A 0.4000 0.4000 0 0 0 11.7984 -12.2392 A 17.0000 17.0000 0 0 1 14.6240 -8.6683 A 0.4000 0.4000 0 0 0 15.1539 -8.5181 Z" stroke="green" stroke-width="1" fill="none" /><path d="M 11.0192 -13.4454 L 12.0141 -14.5905 A 3.3000 3.3000 0 0 1 14.0389 -15.6930 L 16.8373 -16.0925 A 2.3000 2.3000 0 0 0 18.8028 -18.5784 L 18.6148 -20.6389 A 3.3000 3.3000 0 0 1 22.9484 -24.0682 L 24.2030 -23.6483 A 2.3000 2.3000 0 0 0 26.4581 -24.1078 L 26.9480 -24.5419 A 1.5000 1.5000 0 0 0 27.0199 -26.7193 A 38.0000 38.0000 0 0 0 19.1603 -32.8159 A 1.5000 1.5000 0 0 0 17.0691 -32.2047 L 16.7706 -31.6223 A 2.3000 2.3000 0 0 0 16.8863 -29.3237 L 17.6050 -28.2129 A 3.3000 3.3000 0 0 1 15.3612 -23.1626 L 13.3187 -22.8323 A 2.3000 2.3000 0 0 0 11.3996 -20.3103 L 11.7087 -17.5006 A 3.3000 3.3000 0 0 1 11.1443 -15.2651 L 10.2826 -14.0167 A 0.4000 0.4000 0 0 0 10.3678 -13.4725 A 17.0000 17.0000 0 0 1 10.4709 -13.3926 A 0.4000 0.4000 0 0 0 11.0192 -13.4454 Z" stroke="green" stroke-width="1" fill="none" /><path d="M 9.4596 -14.5848 L 10.3213 -15.8332 A 2.3000 2.3000 0 0 0 10.7147 -17.3912 L 10.4056 -20.2010 A 3.3000 3.3000 0 0 1 13.1590 -23.8195 L 15.2015 -24.1498 A 2.3000 2.3000 0 0 0 16.7654 -27.6697 L 16.0467 -28.7805 A 3.3000 3.3000 0 0 1 15.8807 -32.0784 L 16.1792 -32.6609 A 1.5000 1.5000 0 0 0 15.4544 -34.7154 A 38.0000 38.0000 0 0 0 15.4016 -34.7389 A 1.5000 1.5000 0 0 0 13.3911 -33.8995 L 13.1590 -33.2875 A 3.3000 3.3000 0 0 1 10.6005 -31.2001 L 9.2944 -30.9888 A 2.3000 2.3000 0 0 0 7.7307 -27.4688 L 8.8548 -25.7317 A 3.3000 3.3000 0 0 1 8.0153 -21.2629 L 5.7231 -19.6088 A 2.3000 2.3000 0 0 0 4.8306 -18.2725 L 4.4818 -16.7962 A 0.4000 0.4000 0 0 0 4.7591 -16.3202 A 17.0000 17.0000 0 0 1 8.9205 -14.4715 A 0.4000 0.4000 0 0 0 9.4596 -14.5848 Z" stroke="green" stroke-width="1" fill="none" /><path d="M 3.5086 -17.0261 L 3.8574 -18.5024 A 3.3000 3.3000 0 0 1 5.1379 -20.4197 L 7.4301 -22.0738 A 2.3000 2.3000 0 0 0 8.0152 -25.1884 L 6.8912 -26.9255 A 3.3000 3.3000 0 0 1 9.1347 -31.9760 L 10.4408 -32.1872 A 2.3000 2.3000 0 0 0 12.2240 -33.6421 L 12.4561 -34.2541 A 1.5000 1.5000 0 0 0 11.5079 -36.2156 A 38.0000 38.0000 0 0 0 1.7153 -37.9613 A 1.5000 1.5000 0 0 0 0.1477 -36.4483 L 0.1540 -35.7938 A 2.3000 2.3000 0 0 0 1.3247 -33.8123 L 2.4773 -33.1627 A 3.3000 3.3000 0 0 1 2.8374 -27.6482 L 1.1824 -26.4065 A 2.3000 2.3000 0 0 0 0.6552 -23.2816 L 2.2346 -20.9373 A 3.3000 3.3000 0 0 1 2.7737 -18.6956 L 2.5909 -17.1897 A 0.4000 0.4000 0 0 0 2.9193 -16.7475 A 17.0000 17.0000 0 0 1 3.0476 -16.7246 A 0.4000 0.4000 0 0 0 3.5086 -17.0261 Z" stroke="green" stroke-width="1" fill="none" /><path d="M 1.5982 -17.3103 L 1.7810 -18.8162 A 2.3000 2.3000 0 0 0 1.4053 -20.3785 L -0.1742 -22.7228 A 3.3000 3.3000 0 0 1 0.5823 -27.2064 L 2.2373 -28.4481 A 2.3000 2.3000 0 0 0 1.9863 -32.2916 L 0.8337 -32.9412 A 3.3000 3.3000 0 0 1 -0.8459 -35.7841 L -0.8523 -36.4386 A 1.5000 1.5000 0 0 0 -2.4489 -37.9210 A 38.0000 38.0000 0 0 0 -2.5065 -37.9172 A 1.5000 1.5000 0 0 0 -3.8966 -36.2397 L -3.8177 -35.5900 A 3.3000 3.3000 0 0 1 -5.1131 -32.5526 L -6.1714 -31.7585 A 2.3000 2.3000 0 0 0 -5.9202 -27.9151 L -4.1176 -26.8993 A 3.3000 3.3000 0 0 1 -2.7842 -22.5523 L -4.0451 -20.0224 A 2.3000 2.3000 0 0 0 -4.2144 -18.4244 L -3.8371 -16.9551 A 0.4000 0.4000 0 0 0 -3.3704 -16.6625 A 17.0000 17.0000 0 0 1 1.1735 -16.9594 A 0.4000 0.4000 0 0 0 1.5982 -17.3103 Z" stroke="green" stroke-width="1" fill="none" /><path d="M -4.8057 -16.7064 L -5.1830 -18.1757 A 3.3000 3.3000 0 0 1 -4.9401 -20.4685 L -3.6792 -22.9984 A 2.3000 2.3000 0 0 0 -4.6085 -26.0281 L -6.4111 -27.0439 A 3.3000 3.3000 0 0 1 -6.7716 -32.5584 L -5.7133 -33.3525 A 2.3000 2.3000 0 0 0 -4.8104 -35.4694 L -4.8893 -36.1192 A 1.5000 1.5000 0 0 0 -6.6405 -37.4153 A 38.0000 38.0000 0 0 0 -16.1226 -34.4102 A 1.5000 1.5000 0 0 0 -16.8076 -32.3420 L -16.4978 -31.7654 A 2.3000 2.3000 0 0 0 -14.5404 -30.5549 L -13.2180 -30.5154 A 3.3000 3.3000 0 0 1 -10.3363 -25.7999 L -11.2248 -23.9313 A 2.3000 2.3000 0 0 0 -10.2394 -20.9193 L -7.7514 -19.5775 A 3.3000 3.3000 0 0 1 -6.2323 -17.8432 L -5.6944 -16.4248 A 0.4000 0.4000 0 0 0 -5.1980 -16.1858 A 17.0000 17.0000 0 0 1 -5.0738 -16.2252 A 0.4000 0.4000 0 0 0 -4.8057 -16.7064 Z" stroke="green" stroke-width="1" fill="none" /><path d="M -6.6294 -16.0702 L -7.1673 -17.4886 A 2.3000 2.3000 0 0 0 -8.2261 -18.6973 L -10.7140 -20.0391 A 3.3000 3.3000 0 0 1 -12.1279 -24.3607 L -11.2394 -26.2293 A 2.3000 2.3000 0 0 0 -13.2479 -29.5158 L -14.5703 -29.5554 A 3.3000 3.3000 0 0 1 -17.3788 -31.2922 L -17.6885 -31.8687 A 1.5000 1.5000 0 0 0 -19.7911 -32.4393 A 38.0000 38.0000 0 0 0 -19.8404 -32.4092 A 1.5000 1.5000 0 0 0 -20.2917 -30.2778 L -19.9199 -29.7392 A 3.3000 3.3000 0 0 1 -19.6554 -26.4477 L -20.2234 -25.2528 A 2.3000 2.3000 0 0 0 -18.2148 -21.9663 L -16.1467 -21.9046 A 3.3000 3.3000 0 0 1 -12.9458 -18.6752 L -12.8866 -15.8491 A 2.3000 2.3000 0 0 0 -12.2939 -14.3555 L -11.2770 -13.2298 A 0.4000 0.4000 0 0 0 -10.7278 -13.1877 A 17.0000 17.0000 0 0 1 -6.8424 -15.5622 A 0.4000 0.4000 0 0 0 -6.6294 -16.0702 Z" stroke="green" stroke-width="1" fill="none" /><path d="M -12.0191 -12.5595 L -13.0360 -13.6852 A 3.3000 3.3000 0 0 1 -13.8864 -15.8281 L -13.9456 -18.6543 A 2.3000 2.3000 0 0 0 -16.1765 -20.9051 L -18.2446 -20.9668 A 3.3000 3.3000 0 0 1 -21.1266 -25.6821 L -20.5585 -26.8770 A 2.3000 2.3000 0 0 0 -20.7429 -29.1711 L -21.1147 -29.7097 A 1.5000 1.5000 0 0 0 -23.2676 -30.0436 A 38.0000 38.0000 0 0 0 -30.2671 -22.9761 A 1.5000 1.5000 0 0 0 -29.9125 -20.8265 L -29.3702 -20.4599 A 2.3000 2.3000 0 0 0 -27.0745 -20.2978 L -25.8852 -20.8773 A 3.3000 3.3000 0 0 1 -21.1421 -18.0411 L -21.0605 -15.9737 A 2.3000 2.3000 0 0 0 -18.7882 -13.7646 L -15.9616 -13.7328 A 3.3000 3.3000 0 0 1 -13.8105 -12.9031 L -12.6751 -11.8971 A 0.4000 0.4000 0 0 0 -12.1246 -11.9162 A 17.0000 17.0000 0 0 1 -12.0328 -12.0088 A 0.4000 0.4000 0 0 0 -12.0191 -12.5595 Z" stroke="green" stroke-width="1" fill="none" /><path d="M -13.3382 -11.1486 L -14.4737 -12.1546 A 2.3000 2.3000 0 0 0 -15.9729 -12.7328 L -18.7995 -12.7647 A 3.3000 3.3000 0 0 1 -22.0597 -15.9342 L -22.1414 -18.0016 A 2.3000 2.3000 0 0 0 -25.4471 -19.9784 L -26.6365 -19.3988 A 3.3000 3.3000 0 0 1 -29.9303 -19.6315 L -30.4725 -19.9981 A 1.5000 1.5000 0 0 0 -32.5995 -19.5262 A 38.0000 38.0000 0 0 0 -32.6291 -19.4766 A 1.5000 1.5000 0 0 0 -32.0382 -17.3796 L -31.4587 -17.0755 A 3.3000 3.3000 0 0 1 -29.6948 -14.2840 L -29.6425 -12.9619 A 2.3000 2.3000 0 0 0 -26.3367 -10.9854 L -24.4768 -11.8918 A 3.3000 3.3000 0 0 1 -20.1418 -10.5198 L -18.7760 -8.0449 A 2.3000 2.3000 0 0 0 -17.5570 -6.9979 L -16.1335 -6.4737 A 0.4000 0.4000 0 0 0 -15.6276 -6.6916 A 17.0000 17.0000 0 0 1 -13.2907 -10.5998 A 0.4000 0.4000 0 0 0 -13.3382 -11.1486 Z" stroke="green" stroke-width="1" fill="none" /><path d="M -16.4791 -5.5353 L -17.9026 -6.0595 A 3.3000 3.3000 0 0 1 -19.6515 -7.5618 L -21.0173 -10.0367 A 2.3000 2.3000 0 0 0 -24.0387 -10.9929 L -25.8986 -10.0864 A 3.3000 3.3000 0 0 1 -30.6417 -12.9224 L -30.6941 -14.2444 A 2.3000 2.3000 0 0 0 -31.9234 -16.1900 L -32.5030 -16.4942 A 1.5000 1.5000 0 0 0 -34.5644 -15.7893 A 38.0000 38.0000 0 0 0 -37.4777 -6.2785 A 1.5000 1.5000 0 0 0 -36.1647 -4.5400 L -35.5143 -4.4674 A 2.3000 2.3000 0 0 0 -33.4061 -5.3906 L -32.6224 -6.4565 A 3.3000 3.3000 0 0 1 -27.1046 -6.1494 L -26.0714 -4.3567 A 2.3000 2.3000 0 0 0 -23.0329 -3.4567 L -20.5153 -4.7420 A 3.3000 3.3000 0 0 1 -18.2250 -5.0070 L -16.7521 -4.6440 A 0.4000 0.4000 0 0 0 -16.2735 -4.9167 A 17.0000 17.0000 0 0 1 -16.2353 -5.0413 A 0.4000 0.4000 0 0 0 -16.4791 -5.5353 Z" stroke="green" stroke-width="1" fill="none" /><path d="M -16.9914 -3.6730 L -18.4643 -4.0361 A 2.3000 2.3000 0 0 0 -20.0605 -3.8514 L -22.5782 -2.5660 A 3.3000 3.3000 0 0 1 -26.9379 -3.8574 L -27.9710 -5.6500 A 2.3000 2.3000 0 0 0 -31.8167 -5.8641 L -32.6005 -4.7982 A 3.3000 3.3000 0 0 1 -35.6252 -3.4735 L -36.2757 -3.5461 A 1.5000 1.5000 0 0 0 -37.9397 -2.1399 A 38.0000 38.0000 0 0 0 -37.9429 -2.0822 A 1.5000 1.5000 0 0 0 -36.4452 -0.5000 L -35.7906 -0.5000 A 3.3000 3.3000 0 0 1 -32.9316 1.1521 L -32.2709 2.2983 A 2.3000 2.3000 0 0 0 -28.4251 2.5122 L -27.1995 0.8452 A 3.3000 3.3000 0 0 1 -22.7235 0.0455 L -20.3640 1.6022 A 2.3000 2.3000 0 0 0 -18.7981 1.9628 L -17.2940 1.7654 A 0.4000 0.4000 0 0 0 -16.9473 1.3374 A 17.0000 17.0000 0 0 1 -16.6943 -3.2092 A 0.4000 0.4000 0 0 0 -16.9914 -3.6730 Z" stroke="green" stroke-width="1" fill="none" /><path d="M -17.1639 2.7569 L -18.6679 2.9543 A 3.3000 3.3000 0 0 1 -20.9147 2.4369 L -23.2742 0.8802 A 2.3000 2.3000 0 0 0 -26.3938 1.4376 L -27.6194 3.1046 A 3.3000 3.3000 0 0 1 -33.1373 2.7977 L -33.7980 1.6514 A 2.3000 2.3000 0 0 0 -35.7906 0.5000 L -36.4452 0.5000 A 1.5000 1.5000 0 0 0 -37.9429 2.0822 A 38.0000 38.0000 0 0 0 -36.1027 11.8574 A 1.5000 1.5000 0 0 0 -34.1321 12.7867 L -33.5224 12.5487 A 2.3000 2.3000 0 0 0 -32.0848 10.7514 L -31.8862 9.4434 A 3.3000 3.3000 0 0 1 -26.8577 7.1511 L -25.1098 8.2583 A 2.3000 2.3000 0 0 0 -22.0010 7.6432 L -20.3691 5.3351 A 3.3000 3.3000 0 0 1 -18.4643 4.0361 L -16.9914 3.6730 A 0.4000 0.4000 0 0 0 -16.6943 3.2092 A 17.0000 17.0000 0 0 1 -16.7185 3.0810 A 0.4000 0.4000 0 0 0 -17.1639 2.7569 Z" stroke="green" stroke-width="1" fill="none" /><path d="M -16.7521 4.6440 L -18.2250 5.0070 A 2.3000 2.3000 0 0 0 -19.5526 5.9124 L -21.1845 8.2205 A 3.3000 3.3000 0 0 1 -25.6449 9.1031 L -27.3928 7.9959 A 2.3000 2.3000 0 0 0 -30.8975 9.5935 L -31.0962 10.9016 A 3.3000 3.3000 0 0 1 -33.1588 13.4802 L -33.7685 13.7182 A 1.5000 1.5000 0 0 0 -34.5884 15.7367 A 38.0000 38.0000 0 0 0 -34.5644 15.7893 A 1.5000 1.5000 0 0 0 -32.5030 16.4942 L -31.9234 16.1900 A 3.3000 3.3000 0 0 1 -28.6241 16.3242 L -27.5063 17.0321 A 2.3000 2.3000 0 0 0 -24.0017 15.4343 L -23.6912 13.3887 A 3.3000 3.3000 0 0 1 -20.0995 10.6004 L -17.2868 10.8823 A 2.3000 2.3000 0 0 0 -15.7327 10.4739 L -14.4927 9.6001 A 0.4000 0.4000 0 0 0 -14.3846 9.0600 A 17.0000 17.0000 0 0 1 -16.2735 4.9167 A 0.4000 0.4000 0 0 0 -16.7521 4.6440 Z" stroke="green" stroke-width="1" fill="none" /><path d="M -13.9167 10.4176 L -15.1567 11.2913 A 3.3000 3.3000 0 0 1 -17.3866 11.8773 L -20.1992 11.5954 A 2.3000 2.3000 0 0 0 -22.7025 13.5387 L -23.0130 15.5843 A 3.3000 3.3000 0 0 1 -28.0414 17.8769 L -29.1591 17.1690 A 2.3000 2.3000 0 0 0 -31.4587 17.0755 L -32.0382 17.3796 A 1.5000 1.5000 0 0 0 -32.6291 19.4766 A 38.0000 38.0000 0 0 0 -26.4569 27.2769 A 1.5000 1.5000 0 0 0 -24.2802 27.1840 L -23.8510 26.6899 A 2.3000 2.3000 0 0 0 -23.4132 24.4305 L -23.8452 23.1799 A 3.3000 3.3000 0 0 1 -20.4580 18.8134 L -18.3958 18.9815 A 2.3000 2.3000 0 0 0 -15.9289 16.9921 L -15.5566 14.1899 A 3.3000 3.3000 0 0 1 -14.4737 12.1546 L -13.3382 11.1486 A 0.4000 0.4000 0 0 0 -13.2907 10.5998 A 17.0000 17.0000 0 0 1 -13.3716 10.4976 A 0.4000 0.4000 0 0 0 -13.9167 10.4176 Z" stroke="green" stroke-width="1" fill="none" /><path d="M -12.6751 11.8971 L -13.8105 12.9031 A 2.3000 2.3000 0 0 0 -14.5653 14.3217 L -14.9377 17.1238 A 3.3000 3.3000 0 0 1 -18.4770 19.9782 L -20.5392 19.8101 A 2.3000 2.3000 0 0 0 -22.9000 22.8534 L -22.4681 24.1040 A 3.3000 3.3000 0 0 1 -23.0961 27.3458 L -23.5253 27.8399 A 1.5000 1.5000 0 0 0 -23.3133 30.0082 A 38.0000 38.0000 0 0 0 -23.2676 30.0436 A 1.5000 1.5000 0 0 0 -21.1147 29.7097 L -20.7429 29.1711 A 3.3000 3.3000 0 0 1 -17.7591 27.7566 L -16.4404 27.8640 A 2.3000 2.3000 0 0 0 -14.0798 24.8205 L -14.7555 22.8649 A 3.3000 3.3000 0 0 1 -12.8710 18.7269 L -10.2495 17.6694 A 2.3000 2.3000 0 0 0 -9.0631 16.5855 L -8.3712 15.2356 A 0.4000 0.4000 0 0 0 -8.5265 14.7071 A 17.0000 17.0000 0 0 1 -12.1246 11.9162 A 0.4000 0.4000 0 0 0 -12.6751 11.8971 Z" stroke="green" stroke-width="1" fill="none" /><path d="M -7.4813 15.6917 L -8.1732 17.0417 A 3.3000 3.3000 0 0 1 -9.8754 18.5968 L -12.4968 19.6543 A 2.3000 2.3000 0 0 0 -13.8103 22.5383 L -13.1346 24.4939 A 3.3000 3.3000 0 0 1 -16.5216 28.8607 L -17.8403 28.7533 A 2.3000 2.3000 0 0 0 -19.9199 29.7392 L -20.2917 30.2778 A 1.5000 1.5000 0 0 0 -19.8404 32.4092 A 38.0000 38.0000 0 0 0 -10.7502 36.4477 A 1.5000 1.5000 0 0 0 -8.8660 35.3538 L -8.7156 34.7168 A 2.3000 2.3000 0 0 0 -9.3780 32.5128 L -10.3417 31.6062 A 3.3000 3.3000 0 0 1 -9.3716 26.1657 L -7.4675 25.3562 A 2.3000 2.3000 0 0 0 -6.2078 22.4483 L -7.1803 19.7941 A 3.3000 3.3000 0 0 1 -7.1673 17.4886 L -6.6294 16.0702 A 0.4000 0.4000 0 0 0 -6.8424 15.5622 A 17.0000 17.0000 0 0 1 -6.9615 15.5093 A 0.4000 0.4000 0 0 0 -7.4813 15.6917 Z" stroke="green" stroke-width="1" fill="none" /><path d="M -5.6944 16.4248 L -6.2323 17.8432 A 2.3000 2.3000 0 0 0 -6.2413 19.4501 L -5.2688 22.1042 A 3.3000 3.3000 0 0 1 -7.0763 26.2765 L -8.9804 27.0860 A 2.3000 2.3000 0 0 0 -9.6565 30.8779 L -8.6928 31.7844 A 3.3000 3.3000 0 0 1 -7.7423 34.9468 L -7.8928 35.5837 A 1.5000 1.5000 0 0 0 -6.6974 37.4051 A 38.0000 38.0000 0 0 0 -6.6405 37.4153 A 1.5000 1.5000 0 0 0 -4.8893 36.1192 L -4.8104 35.4694 A 3.3000 3.3000 0 0 1 -2.8258 32.8303 L -1.6082 32.3126 A 2.3000 2.3000 0 0 0 -0.9324 28.5207 L -2.4395 27.1031 A 3.3000 3.3000 0 0 1 -2.6939 22.5633 L -0.8641 20.4086 A 2.3000 2.3000 0 0 0 -0.3173 18.8976 L -0.3320 17.3807 A 0.4000 0.4000 0 0 0 -0.7152 16.9850 A 17.0000 17.0000 0 0 1 -5.1980 16.1858 A 0.4000 0.4000 0 0 0 -5.6944 16.4248 Z" stroke="green" stroke-width="1" fill="none" /><path d="M 0.6679 17.3711 L 0.6826 18.8879 A 3.3000 3.3000 0 0 1 -0.1019 21.0559 L -1.9316 23.2106 A 2.3000 2.3000 0 0 0 -1.7543 26.3747 L -0.2472 27.7923 A 3.3000 3.3000 0 0 1 -1.2169 33.2329 L -2.4345 33.7506 A 2.3000 2.3000 0 0 0 -3.8177 35.5900 L -3.8966 36.2397 A 1.5000 1.5000 0 0 0 -2.5065 37.9172 A 38.0000 38.0000 0 0 0 7.4192 37.2687 A 1.5000 1.5000 0 0 0 8.5793 35.4245 L 8.4165 34.7906 A 2.3000 2.3000 0 0 0 6.8057 33.1468 L 5.5311 32.7919 A 3.3000 3.3000 0 0 1 3.8617 27.5238 L 5.1715 25.9221 A 2.3000 2.3000 0 0 0 4.9355 22.7619 L 2.8409 20.8636 A 3.3000 3.3000 0 0 1 1.7810 18.8162 L 1.5982 17.3103 A 0.4000 0.4000 0 0 0 1.1735 16.9594 A 17.0000 17.0000 0 0 1 1.0434 16.9680 A 0.4000 0.4000 0 0 0 0.6679 17.3711 Z" stroke="green" stroke-width="1" fill="none" /><path d="M 2.5909 17.1897 L 2.7737 18.6956 A 2.3000 2.3000 0 0 0 3.5125 20.1227 L 5.6070 22.0209 A 3.3000 3.3000 0 0 1 5.9456 26.5552 L 4.6358 28.1569 A 2.3000 2.3000 0 0 0 5.7993 31.8286 L 7.0739 32.1835 A 3.3000 3.3000 0 0 1 9.3851 34.5419 L 9.5478 35.1758 A 1.5000 1.5000 0 0 0 11.4528 36.2330 A 38.0000 38.0000 0 0 0 11.5079 36.2156 A 1.5000 1.5000 0 0 0 12.4561 34.2541 L 12.2240 33.6421 A 3.3000 3.3000 0 0 1 12.7549 30.3830 L 13.5924 29.3588 A 2.3000 2.3000 0 0 0 12.4286 25.6871 L 10.4354 25.1323 A 3.3000 3.3000 0 0 1 8.1004 21.2307 L 8.7192 18.4725 A 2.3000 2.3000 0 0 0 8.5012 16.8805 L 7.7832 15.5442 A 0.4000 0.4000 0 0 0 7.2601 15.3718 A 17.0000 17.0000 0 0 1 2.9193 16.7475 A 0.4000 0.4000 0 0 0 2.5909 17.1897 Z" stroke="green" stroke-width="1" fill="none" /><path d="M 8.6642 15.0709 L 9.3821 16.4072 A 3.3000 3.3000 0 0 1 9.6950 18.6914 L 9.0761 21.4496 A 2.3000 2.3000 0 0 0 10.7035 24.1689 L 12.6968 24.7237 A 3.3000 3.3000 0 0 1 14.3665 29.9918 L 13.5290 31.0160 A 2.3000 2.3000 0 0 0 13.1590 33.2875 L 13.3911 33.8995 A 1.5000 1.5000 0 0 0 15.4016 34.7389 A 38.0000 38.0000 0 0 0 23.8890 29.5519 A 1.5000 1.5000 0 0 0 24.0591 27.3799 L 23.6204 26.8942 A 2.3000 2.3000 0 0 0 21.4302 26.1873 L 20.1367 26.4654 A 3.3000 3.3000 0 0 1 16.2103 22.5765 L 16.6257 20.5496 A 2.3000 2.3000 0 0 0 14.9481 17.8610 L 12.2113 17.1536 A 3.3000 3.3000 0 0 1 10.3213 15.8332 L 9.4596 14.5848 A 0.4000 0.4000 0 0 0 8.9205 14.4715 A 17.0000 17.0000 0 0 1 8.8093 14.5395 A 0.4000 0.4000 0 0 0 8.6642 15.0709 Z" stroke="green" stroke-width="1" fill="none" /><path d="M 10.2826 14.0167 L 11.1443 15.2651 A 2.3000 2.3000 0 0 0 12.4616 16.1854 L 15.1984 16.8928 A 3.3000 3.3000 0 0 1 17.6054 20.7504 L 17.1899 22.7773 A 2.3000 2.3000 0 0 0 19.9265 25.4877 L 21.2200 25.2097 A 3.3000 3.3000 0 0 1 24.3625 26.2238 L 24.8012 26.7095 A 1.5000 1.5000 0 0 0 26.9793 26.7604 A 38.0000 38.0000 0 0 0 27.0199 26.7193 A 1.5000 1.5000 0 0 0 26.9480 24.5419 L 26.4581 24.1078 A 3.3000 3.3000 0 0 1 25.4136 20.9753 L 25.6792 19.6792 A 2.3000 2.3000 0 0 0 22.9424 16.9689 L 20.9196 17.4040 A 3.3000 3.3000 0 0 1 17.0389 15.0344 L 16.3051 12.3046 A 2.3000 2.3000 0 0 0 15.3721 10.9962 L 14.1155 10.1466 A 0.4000 0.4000 0 0 0 13.5721 10.2371 A 17.0000 17.0000 0 0 1 10.3678 13.4725 A 0.4000 0.4000 0 0 0 10.2826 14.0167 Z" stroke="green" stroke-width="1" fill="none" /><path d="M 14.6755 9.3182 L 15.9322 10.1678 A 3.3000 3.3000 0 0 1 17.2708 12.0450 L 18.0046 14.7748 A 2.3000 2.3000 0 0 0 20.7094 16.4263 L 22.7322 15.9913 A 3.3000 3.3000 0 0 1 26.6588 19.8799 L 26.3932 21.1761 A 2.3000 2.3000 0 0 0 27.1212 23.3593 L 27.6112 23.7934 A 1.5000 1.5000 0 0 0 29.7814 23.6023 A 38.0000 38.0000 0 0 0 34.8861 15.0651 A 1.5000 1.5000 0 0 0 34.0274 13.0628 L 33.4132 12.8367 A 2.3000 2.3000 0 0 0 31.1454 13.2286 L 30.1293 14.0760 A 3.3000 3.3000 0 0 1 24.8453 12.4572 L 24.2712 10.4694 A 2.3000 2.3000 0 0 0 21.5363 8.8684 L 18.7843 9.5138 A 3.3000 3.3000 0 0 1 16.4971 9.2230 L 15.1539 8.5181 A 0.4000 0.4000 0 0 0 14.6240 8.6683 A 17.0000 17.0000 0 0 1 14.5571 8.7802 A 0.4000 0.4000 0 0 0 14.6755 9.3182 Z" stroke="green" stroke-width="1" fill="none" /><path d="M 15.6187 7.6326 L 16.9619 8.3376 A 2.3000 2.3000 0 0 0 18.5559 8.5403 L 21.3080 7.8948 A 3.3000 3.3000 0 0 1 25.2320 10.1920 L 25.8061 12.1798 A 2.3000 2.3000 0 0 0 29.4888 13.3080 L 30.5049 12.4606 A 3.3000 3.3000 0 0 1 33.7587 11.8983 L 34.3729 12.1244 A 1.5000 1.5000 0 0 0 36.3251 11.1573 A 38.0000 38.0000 0 0 0 36.3421 11.1020 A 1.5000 1.5000 0 0 0 35.2665 9.2074 L 34.6310 9.0507 A 3.3000 3.3000 0 0 1 32.2503 6.7625 L 31.8832 5.4914 A 2.3000 2.3000 0 0 0 28.2003 4.3634 L 26.6114 5.6886 A 3.3000 3.3000 0 0 1 22.0740 5.3939 L 20.1557 3.3178 A 2.3000 2.3000 0 0 0 18.7216 2.5929 L 17.2140 2.4246 A 0.4000 0.4000 0 0 0 16.7749 2.7573 A 17.0000 17.0000 0 0 1 15.4412 7.1111 A 0.4000 0.4000 0 0 0 15.6187 7.6326 Z" stroke="green" stroke-width="1" fill="none" /><path d="M 17.3249 1.4308 L 18.8325 1.5991 A 3.3000 3.3000 0 0 1 20.8901 2.6391 L 22.8085 4.7153 A 2.3000 2.3000 0 0 0 25.9709 4.9207 L 27.5598 3.5954 A 3.3000 3.3000 0 0 1 32.8439 5.2138 L 33.2111 6.4849 A 2.3000 2.3000 0 0 0 34.8703 8.0798 L 35.5058 8.2364 A 1.5000 1.5000 0 0 0 37.3387 7.0586 A 38.0000 38.0000 0 0 0 37.8912 -2.8729 A 1.5000 1.5000 0 0 0 36.2003 -4.2467 L 35.5514 -4.1616 A 2.3000 2.3000 0 0 0 33.7255 -2.7606 L 33.2196 -1.5381 A 3.3000 3.3000 0 0 1 27.7886 -0.5159 L 26.3565 -2.0092 A 2.3000 2.3000 0 0 0 23.1908 -2.1559 L 21.0540 -0.3054 A 3.3000 3.3000 0 0 1 18.8936 0.5000 L 17.3767 0.5000 A 0.4000 0.4000 0 0 0 16.9772 0.8793 A 17.0000 17.0000 0 0 1 16.9700 1.0095 A 0.4000 0.4000 0 0 0 17.3249 1.4308 Z" stroke="green" stroke-width="1" fill="none" /></svg>