0
SECTION
2
ENTITIES
0
CIRCLE
8
PARAMETRIX
10
0.0000
20
0.0000
40
42.0000
0
LINE
8
PARAMETRIX
10
8.8273
20
-0.0000
11
10.9717
21
0.0000
0
ARC
8
PARAMETRIX
10
10.9717
20
1.0000
40
1.0000
50
270.0000
51
11.7000
0
LINE
8
PARAMETRIX
10
11.9509
20
1.2028
11
11.4457
21
3.6424
0
ARC
8
PARAMETRIX
10
10.4665
20
3.4396
40
1.0000
50
11.7000
51
113.4000
0
LINE
8
PARAMETRIX
10
10.0693
20
4.3574
11
8.1013
21
3.5057
0
ARC
8
PARAMETRIX
10
7.7041
20
4.4235
40
1.0000
50
214.2000
51
293.4000
0
LINE
8
PARAMETRIX
10
6.8770
20
3.8614
11
6.1219
21
4.9726
0
ARC
8
PARAMETRIX
10
6.9489
20
5.5347
40
1.0000
50
135.0000
51
214.2000
0
LINE
8
PARAMETRIX
10
6.2418
20
6.2418
11
7.7582
21
7.7582
0
ARC
8
PARAMETRIX
10
7.0511
20
8.4653
40
1.0000
50
315.0000
51
56.7000
0
LINE
8
PARAMETRIX
10
7.6001
20
9.3011
11
5.5177
21
10.6689
0
ARC
8
PARAMETRIX
10
4.9687
20
9.8331
40
1.0000
50
56.7000
51
158.4000
0
LINE
8
PARAMETRIX
10
4.0389
20
10.2012
11
3.2495
21
8.2074
0
ARC
8
PARAMETRIX
10
2.3198
20
8.5755
40
1.0000
50
259.2000
51
338.4000
0
LINE
8
PARAMETRIX
10
2.1324
20
7.5932
11
0.8126
21
7.8450
0
ARC
8
PARAMETRIX
10
1.0000
20
8.8273
40
1.0000
50
180.0000
51
259.2000
0
LINE
8
PARAMETRIX
10
0.0000
20
8.8273
11
0.0000
21
10.9717
0
ARC
8
PARAMETRIX
10
-1.0000
20
10.9717
40
1.0000
50
0.0000
51
101.7000
0
LINE
8
PARAMETRIX
10
-1.2028
20
11.9509
11
-3.6424
21
11.4457
0
ARC
8
PARAMETRIX
10
-3.4396
20
10.4665
40
1.0000
50
101.7000
51
203.4000
0
LINE
8
PARAMETRIX
10
-4.3574
20
10.0693
11
-3.5057
21
8.1013
0
ARC
8
PARAMETRIX
10
-4.4235
20
7.7041
40
1.0000
50
304.2000
51
23.4000
0
LINE
8
PARAMETRIX
10
-3.8614
20
6.8770
11
-4.9726
21
6.1219
0
ARC
8
PARAMETRIX
10
-5.5347
20
6.9489
40
1.0000
50
225.0000
51
304.2000
0
LINE
8
PARAMETRIX
10
-6.2418
20
6.2418
11
-7.7582
21
7.7582
0
ARC
8
PARAMETRIX
10
-8.4653
20
7.0511
40
1.0000
50
45.0000
51
146.7000
0
LINE
8
PARAMETRIX
10
-9.3011
20
7.6001
11
-10.6689
21
5.5177
0
ARC
8
PARAMETRIX
10
-9.8331
20
4.9687
40
1.0000
50
146.7000
51
248.4000
0
LINE
8
PARAMETRIX
10
-10.2012
20
4.0389
11
-8.2074
21
3.2495
0
ARC
8
PARAMETRIX
10
-8.5755
20
2.3198
40
1.0000
50
349.2000
51
68.4000
0
LINE
8
PARAMETRIX
10
-7.5932
20
2.1324
11
-7.8450
21
0.8126
0
ARC
8
PARAMETRIX
10
-8.8273
20
1.0000
40
1.0000
50
270.0000
51
349.2000
0
LINE
8
PARAMETRIX
10
-8.8273
20
0.0000
11
-10.9717
21
0.0000
0
ARC
8
PARAMETRIX
10
-10.9717
20
-1.0000
40
1.0000
50
90.0000
51
191.7000
0
LINE
8
PARAMETRIX
10
-11.9509
20
-1.2028
11
-11.4457
21
-3.6424
0
ARC
8
PARAMETRIX
10
-10.4665
20
-3.4396
40
1.0000
50
191.7000
51
293.4000
0
LINE
8
PARAMETRIX
10
-10.0693
20
-4.3574
11
-8.1013
21
-3.5057
0
ARC
8
PARAMETRIX
10
-7.7041
20
-4.4235
40
1.0000
50
34.2000
51
113.4000
0
LINE
8
PARAMETRIX
10
-6.8770
20
-3.8614
11
-6.1219
21
-4.9726
0
ARC
8
PARAMETRIX
10
-6.9489
20
-5.5347
40
1.0000
50
315.0000
51
34.2000
0
LINE
8
PARAMETRIX
10
-6.2418
20
-6.2418
11
-7.7582
21
-7.7582
0
ARC
8
PARAMETRIX
10
-7.0511
20
-8.4653
40
1.0000
50
135.0000
51
236.7000
0
LINE
8
PARAMETRIX
10
-7.6001
20
-9.3011
11
-5.5177
21
-10.6689
0
ARC
8
PARAMETRIX
10
-4.9687
20
-9.8331
40
1.0000
50
236.7000
51
338.4000
0
LINE
8
PARAMETRIX
10
-4.0389
20
-10.2012
11
-3.2495
21
-8.2074
0
ARC
8
PARAMETRIX
10
-2.3198
20
-8.5755
40
1.0000
50
79.2000
51
158.4000
0
LINE
8
PARAMETRIX
10
-2.1324
20
-7.5932
11
-0.8126
21
-7.8450
0
ARC
8
PARAMETRIX
10
-1.0000
20
-8.8273
40
1.0000
50
0.0000
51
79.2000
0
LINE
8
PARAMETRIX
10
-0.0000
20
-8.8273
11
-0.0000
21
-10.9717
0
ARC
8
PARAMETRIX
10
1.0000
20
-10.9717
40
1.0000
50
180.0000
51
281.7000
0
LINE
8
PARAMETRIX
10
1.2028
20
-11.9509
11
3.6424
21
-11.4457
0
ARC
8
PARAMETRIX
10
3.4396
20
-10.4665
40
1.0000
50
281.7000
51
23.4000
0
LINE
8
PARAMETRIX
10
4.3574
20
-10.0693
11
3.5057
21
-8.1013
0
ARC
8
PARAMETRIX
10
4.4235
20
-7.7041
40
1.0000
50
124.2000
51
203.4000
0
LINE
8
PARAMETRIX
10
3.8614
20
-6.8770
11
4.9726
21
-6.1219
0
ARC
8
PARAMETRIX
10
5.5347
20
-6.9489
40
1.0000
50
45.0000
51
124.2000
0
LINE
8
PARAMETRIX
10
6.2418
20
-6.2418
11
7.7582
21
-7.7582
0
ARC
8
PARAMETRIX
10
8.4653
20
-7.0511
40
1.0000
50
225.0000
51
326.7000
0
LINE
8
PARAMETRIX
10
9.3011
20
-7.6001
11
10.6689
21
-5.5177
0
ARC
8
PARAMETRIX
10
9.8331
20
-4.9687
40
1.0000
50
326.7000
51
68.4000
0
LINE
8
PARAMETRIX
10
10.2012
20
-4.0389
11
8.2074
21
-3.2495
0
ARC
8
PARAMETRIX
10
8.5755
20
-2.3198
40
1.0000
50
169.2000
51
248.4000
0
LINE
8
PARAMETRIX
10
7.5932
20
-2.1324
11
7.8450
21
-0.8126
0
ARC
8
PARAMETRIX
10
8.8273
20
-1.0000
40
1.0000
50
90.0000
51
169.2000
0
CIRCLE
8
PARAMETRIX
10
15.0000
20
0.0000
40
1.0000
0
CIRCLE
8
PARAMETRIX
10
10.6066
20
10.6066
40
1.0000
0
CIRCLE
8
PARAMETRIX
10
0.0000
20
15.0000
40
1.0000
0
CIRCLE
8
PARAMETRIX
10
-10.6066
20
10.6066
40
1.0000
0
CIRCLE
8
PARAMETRIX
10
-15.0000
20
0.0000
40
1.0000
0
CIRCLE
8
PARAMETRIX
10
-10.6066
20
-10.6066
40
1.0000
0
CIRCLE
8
PARAMETRIX
10
-0.0000
20
-15.0000
40
1.0000
0
CIRCLE
8
PARAMETRIX
10
10.6066
20
-10.6066
40
1.0000
0
CIRCLE
8
PARAMETRIX
10
40.0000
20
0.0000
40
1.0000
0
CIRCLE
8
PARAMETRIX
10
36.9552
20
15.3073
40
1.0000
0
CIRCLE
8
PARAMETRIX
10
28.2843
20
28.2843
40
1.0000
0
CIRCLE
8
PARAMETRIX
10
15.3073
20
36.9552
40
1.0000
0
CIRCLE
8
PARAMETRIX
10
0.0000
20
40.0000
40
1.0000
0
CIRCLE
8
PARAMETRIX
10
-15.3073
20
36.9552
40
1.0000
0
CIRCLE
8
PARAMETRIX
10
-28.2843
20
28.2843
40
1.0000
0
CIRCLE
8
PARAMETRIX
10
-36.9552
20
15.3073
40
1.0000
0
CIRCLE
8
PARAMETRIX
10
-40.0000
20
0.0000
40
1.0000
0
CIRCLE
8
PARAMETRIX
10
-36.9552
20
-15.3073
40
1.0000
0
CIRCLE
8
PARAMETRIX
10
-28.2843
20
-28.2843
40
1.0000
0
CIRCLE
8
PARAMETRIX
10
-15.3073
20
-36.9552
40
1.0000
0
CIRCLE
8
PARAMETRIX
10
-0.0000
20
-40.0000
40
1.0000
0
CIRCLE
8
PARAMETRIX
10
15.3073
20
-36.9552
40
1.0000
0
CIRCLE
8
PARAMETRIX
10
28.2843
20
-28.2843
40
1.0000
0
CIRCLE
8
PARAMETRIX
10
36.9552
20
-15.3073
40
1.0000
0
LINE
8
PARAMETRIX
10
17.0895
20
0.5000
11
19.0711
21
0.5000
0
ARC
8
PARAMETRIX
10
19.0711
20
1.0500
40
0.5500
50
270.0000
51
3.1514
0
ARC
8
PARAMETRIX
10
0.0000
20
0.0000
40
19.6500
50
3.1514
51
353.5611
0
ARC
8
PARAMETRIX
10
21.0663
20
-2.3775
40
1.5500
50
353.5611
51
173.5611
0
ARC
8
PARAMETRIX
10
0.0000
20
-0.0000
40
22.7500
50
2.5829
51
353.5611
0
ARC
8
PARAMETRIX
10
23.2763
20
1.0500
40
0.5500
50
182.5829
51
2.5829
0
ARC
8
PARAMETRIX
10
0.0000
20
-0.0000
40
23.8500
50
2.5829
51
354.0308
0
ARC
8
PARAMETRIX
10
25.2623
20
-2.6414
40
1.5500
50
354.0308
51
174.0308
0
ARC
8
PARAMETRIX
10
0.0000
20
-0.0000
40
26.9500
50
2.1882
51
354.0308
0
ARC
8
PARAMETRIX
10
27.4799
20
1.0500
40
0.5500
50
182.1882
51
2.1882
0
ARC
8
PARAMETRIX
10
0.0000
20
0.0000
40
28.0500
50
2.1882
51
354.3671
0
ARC
8
PARAMETRIX
10
29.4571
20
-2.9054
40
1.5500
50
354.3671
51
174.3671
0
ARC
8
PARAMETRIX
10
0.0000
20
-0.0000
40
31.1500
50
1.8982
51
354.3671
0
ARC
8
PARAMETRIX
10
31.6826
20
1.0500
40
0.5500
50
181.8982
51
1.8982
0
ARC
8
PARAMETRIX
10
0.0000
20
0.0000
40
32.2500
50
1.8982
51
354.6198
0
ARC
8
PARAMETRIX
10
33.6511
20
-3.1692
40
1.5500
50
354.6198
51
174.6198
0
ARC
8
PARAMETRIX
10
-0.0000
20
-0.0000
40
35.3500
50
1.6760
51
354.6198
0
ARC
8
PARAMETRIX
10
35.8846
20
1.0500
40
0.5500
50
181.6760
51
270.0000
0
LINE
8
PARAMETRIX
10
35.8846
20
0.5000
11
36.9696
21
0.5000
0
ARC
8
PARAMETRIX
10
36.9696
20
1.5000
40
1.0000
50
270.0000
51
2.3234
0
ARC
8
PARAMETRIX
10
0.0000
20
0.0000
40
38.0000
50
2.3234
51
357.6766
0
ARC
8
PARAMETRIX
10
36.9696
20
-1.5000
40
1.0000
50
357.6766
51
90.0000
0
LINE
8
PARAMETRIX
10
36.9696
20
-0.5000
11
35.8846
21
-0.5000
0
ARC
8
PARAMETRIX
10
35.8846
20
1.0500
40
1.5500
50
181.6760
51
270.0000
0
ARC
8
PARAMETRIX
10
0.0000
20
0.0000
40
34.3500
50
1.6760
51
354.6198
0
ARC
8
PARAMETRIX
10
33.6511
20
-3.1692
40
0.5500
50
354.6198
51
174.6198
0
ARC
8
PARAMETRIX
10
0.0000
20
0.0000
40
33.2500
50
1.8982
51
354.6198
0
ARC
8
PARAMETRIX
10
31.6826
20
1.0500
40
1.5500
50
181.8982
51
1.8982
0
ARC
8
PARAMETRIX
10
-0.0000
20
-0.0000
40
30.1500
50
1.8982
51
354.3671
0
ARC
8
PARAMETRIX
10
29.4571
20
-2.9054
40
0.5500
50
354.3671
51
174.3671
0
ARC
8
PARAMETRIX
10
0.0000
20
0.0000
40
29.0500
50
2.1882
51
354.3671
0
ARC
8
PARAMETRIX
10
27.4799
20
1.0500
40
1.5500
50
182.1882
51
2.1882
0
ARC
8
PARAMETRIX
10
0.0000
20
-0.0000
40
25.9500
50
2.1882
51
354.0308
0
ARC
8
PARAMETRIX
10
25.2623
20
-2.6414
40
0.5500
50
354.0308
51
174.0308
0
ARC
8
PARAMETRIX
10
0.0000
20
0.0000
40
24.8500
50
2.5829
51
354.0308
0
ARC
8
PARAMETRIX
10
23.2763
20
1.0500
40
1.5500
50
182.5829
51
2.5829
0
ARC
8
PARAMETRIX
10
-0.0000
20
-0.0000
40
21.7500
50
2.5829
51
353.5611
0
ARC
8
PARAMETRIX
10
21.0663
20
-2.3775
40
0.5500
50
353.5611
51
173.5611
0
ARC
8
PARAMETRIX
10
0.0000
20
0.0000
40
20.6500
50
3.1514
51
353.5611
0
ARC
8
PARAMETRIX
10
19.0711
20
1.0500
40
1.5500
50
270.0000
51
3.1514
0
LINE
8
PARAMETRIX
10
19.0711
20
-0.5000
11
17.0895
21
-0.5000
0
ARC
8
PARAMETRIX
10
17.0895
20
-0.6000
40
0.1000
50
90.0000
51
177.9892
0
ARC
8
PARAMETRIX
10
0.0000
20
0.0000
40
17.0000
50
2.0108
51
357.9892
0
ARC
8
PARAMETRIX
10
17.0895
20
0.6000
40
0.1000
50
182.0108
51
270.0000
0
ENDSEC
0
EOF
