<svg width="102" height="102" viewBox="-47 -47 102 102" xmlns="http://www.w3.org/2000/svg"><circle cx="0.0000" cy="0.0000" r="42.0000" stroke="green" stroke-width="1" fill="none" /><path d="M 8.8273 0.0000 L 10.9717 -0.0000 A 1.0000 1.0000 0 0 0 11.9509 -1.2028 L 11.4457 -3.6424 A 1.0000 1.0000 0 0 0 10.0693 -4.3574 L 8.1013 -3.5057 A 1.0000 1.0000 0 0 1 6.8770 -3.8614 L 6.1219 -4.9726 A 1.0000 1.0000 0 0 1 6.2418 -6.2418 L 7.7582 -7.7582 A 1.0000 1.0000 0 0 0 7.6001 -9.3011 L 5.5177 -10.6689 A 1.0000 1.0000 0 0 0 4.0389 -10.2012 L 3.2495 -8.2074 A 1.0000 1.0000 0 0 1 2.1324 -7.5932 L 0.8126 -7.8450 A 1.0000 1.0000 0 0 1 0.0000 -8.8273 L 0.0000 -10.9717 A 1.0000 1.0000 0 0 0 -1.2028 -11.9509 L -3.6424 -11.4457 A 1.0000 1.0000 0 0 0 -4.3574 -10.0693 L -3.5057 -8.1013 A 1.0000 1.0000 0 0 1 -3.8614 -6.8770 L -4.9726 -6.1219 A 1.0000 1.0000 0 0 1 -6.2418 -6.2418 L -7.7582 -7.7582 A 1.0000 1.0000 0 0 0 -9.3011 -7.6001 L -10.6689 -5.5177 A 1.0000 1.0000 0 0 0 -10.2012 -4.0389 L -8.2074 -3.2495 A 1.0000 1.0000 0 0 1 -7.5932 -2.1324 L -7.8450 -0.8126 A 1.0000 1.0000 0 0 1 -8.8273 -0.0000 L -10.9717 -0.0000 A 1.0000 1.0000 0 0 0 -11.9509 1.2028 L -11.4457 3.6424 A 1.0000 1.0000 0 0 0 -10.0693 4.3574 L -8.1013 3.5057 A 1.0000 1.0000 0 0 1 -6.8770 3.8614 L -6.1219 4.9726 A 1.0000 1.0000 0 0 1 -6.2418 6.2418 L -7.7582 7.7582 A 1.0000 1.0000 0 0 0 -7.6001 9.3011 L -5.5177 10.6689 A 1.0000 1.0000 0 0 0 -4.0389 10.2012 L -3.2495 8.2074 A 1.0000 1.0000 0 0 1 -2.1324 7.5932 L -0.8126 7.8450 A 1.0000 1.0000 0 0 1 -0.0000 8.8273 L -0.0000 10.9717 A 1.0000 1.0000 0 0 0 1.2028 11.9509 L 3.6424 11.4457 A 1.0000 1.0000 0 0 0 4.3574 10.0693 L 3.5057 8.1013 A 1.0000 1.0000 0 0 1 3.8614 6.8770 L 4.9726 6.1219 A 1.0000 1.0000 0 0 1 6.2418 6.2418 L 7.7582 7.7582 A 1.0000 1.0000 0 0 0 9.3011 7.6001 L 10.6689 5.5177 A 1.0000 1.0000 0 0 0 10.2012 4.0389 L 8.2074 3.2495 A 1.0000 1.0000 0 0 1 7.5932 2.1324 L 7.8450 0.8126 A 1.0000 1.0000 0 0 1 8.8273 0.0000 Z" stroke="green" stroke-width="1" fill="none" /><circle cx="15.0000" cy="0.0000" r="1.0000" stroke="green" stroke-width="1" fill="none" /><circle cx="10.6066" cy="-10.6066" r="1.0000" stroke="green" stroke-width="1" fill="none" /><circle cx="0.0000" cy="-15.0000" r="1.0000" stroke="green" stroke-width="1" fill="none" /><circle cx="-10.6066" cy="-10.6066" r="1.0000" stroke="green" stroke-width="1" fill="none" /><circle cx="-15.0000" cy="-0.0000" r="1.0000" stroke="green" stroke-width="1" fill="none" /><circle cx="-10.6066" cy="10.6066" r="1.0000" stroke="green" stroke-width="1" fill="none" /><circle cx="-0.0000" cy="15.0000" r="1.0000" stroke="green" stroke-width="1" fill="none" /><circle cx="10.6066" cy="10.6066" r="1.0000" stroke="green" stroke-width="1" fill="none" /><circle cx="40.0000" cy="0.0000" r="1.0000" stroke="green" stroke-width="1" fill="none" /><circle cx="36.9552" cy="-15.3073" r="1.0000" stroke="green" stroke-width="1" fill="none" /><circle cx="28.2843" cy="-28.2843" r="1.0000" stroke="green" stroke-width="1" fill="none" /><circle cx="15.3073" cy="-36.9552" r="1.0000" stroke="green" stroke-width="1" fill="none" /><circle cx="0.0000" cy="-40.0000" r="1.0000" stroke="green" stroke-width="1" fill="none" /><circle cx="-15.3073" cy="-36.9552" r="1.0000" stroke="green" stroke-width="1" fill="none" /><circle cx="-28.2843" cy="-28.2843" r="1.0000" stroke="green" stroke-width="1" fill="none" /><circle cx="-36.9552" cy="-15.3073" r="1.0000" stroke="green" stroke-width="1" fill="none" /><circle cx="-40.0000" cy="-0.0000" r="1.0000" stroke="green" stroke-width="1" fill="none" /><circle cx="-36.9552" cy="15.3073" r="1.0000" stroke="green" stroke-width="1" fill="none" /><circle cx="-28.2843" cy="28.2843" r="1.0000" stroke="green" stroke-width="1" fill="none" /><circle cx="-15.3073" cy="36.9552" r="1.0000" stroke="green" stroke-width="1" fill="none" /><circle cx="-0.0000" cy="40.0000" r="1.0000" stroke="green" stroke-width="1" fill="none" /><circle cx="15.3073" cy="36.9552" r="1.0000" stroke="green" stroke-width="1" fill="none" /><circle cx="28.2843" cy="28.2843" r="1.0000" stroke="green" stroke-width="1" fill="none" /><circle cx="36.9552" cy="15.3073" r="1.0000" stroke="green" stroke-width="1" fill="none" /><path d="M 17.0895 -0.5000 L 19.0711 -0.5000 A 0.5500 0.5500 0 0 0 19.6203 -1.0802 A 19.6500 19.6500 0 1 0 19.5260 2.2036 A 1.5500 1.5500 0 0 1 22.6065 2.5513 A 22.7500 22.7500 0 1 1 22.7269 -1.0252 A 0.5500 0.5500 0 0 0 23.8258 -1.0748 A 23.8500 23.8500 0 1 0 23.7207 2.4803 A 1.5500 1.5500 0 0 1 26.8039 2.8026 A 26.9500 26.9500 0 1 1 26.9303 -1.0290 A 0.5500 0.5500 0 0 0 28.0295 -1.0710 A 28.0500 28.0500 0 1 0 27.9146 2.7532 A 1.5500 1.5500 0 0 1 30.9996 3.0575 A 31.1500 31.1500 0 1 1 31.1329 -1.0318 A 0.5500 0.5500 0 0 0 32.2323 -1.0682 A 32.2500 32.2500 0 1 0 32.1079 3.0239 A 1.5500 1.5500 0 0 1 35.1943 3.3146 A 35.3500 35.3500 0 1 1 35.3349 -1.0339 A 0.5500 0.5500 0 0 0 35.8846 -0.5000 L 36.9696 -0.5000 A 1.0000 1.0000 0 0 0 37.9688 -1.5405 A 38.0000 38.0000 0 1 0 37.9688 1.5405 A 1.0000 1.0000 0 0 0 36.9696 0.5000 L 35.8846 0.5000 A 1.5500 1.5500 0 0 1 34.3353 -1.0047 A 34.3500 34.3500 0 1 0 34.1987 3.2208 A 0.5500 0.5500 0 1 0 33.1035 3.1177 A 33.2500 33.2500 0 1 1 33.2318 -1.1013 A 1.5500 1.5500 0 0 1 30.1335 -0.9987 A 30.1500 30.1500 0 1 0 30.0044 2.9593 A 0.5500 0.5500 0 1 0 28.9097 2.8514 A 29.0500 29.0500 0 1 1 29.0288 -1.1092 A 1.5500 1.5500 0 0 1 25.9311 -0.9908 A 25.9500 25.9500 0 1 0 25.8093 2.6986 A 0.5500 0.5500 0 0 0 24.7153 2.5842 A 24.8500 24.8500 0 1 1 24.8248 -1.1198 A 1.5500 1.5500 0 0 1 21.7279 -0.9802 A 21.7500 21.7500 0 1 0 21.6128 2.4391 A 0.5500 0.5500 0 0 0 20.5197 2.3158 A 20.6500 20.6500 0 1 1 20.6188 -1.1352 A 1.5500 1.5500 0 0 1 19.0711 0.5000 L 17.0895 0.5000 A 0.1000 0.1000 0 0 0 16.9895 0.5965 A 17.0000 17.0000 0 1 1 16.9895 -0.5965 A 0.1000 0.1000 0 0 0 17.0895 -0.5000 Z" stroke="green" stroke-width="1" fill="none" /></svg>