<svg width="1110" height="1110" viewBox="-555 -555 1110 1110" xmlns="http://www.w3.org/2000/svg"><circle cx="0.0000" cy="0.0000" r="500.0000" stroke="green" stroke-width="1" fill="none" /><circle cx="0.0000" cy="0.0000" r="389.9874" stroke="green" stroke-width="1" fill="none" /><circle cx="429.9874" cy="0.0000" r="20.0000" stroke="green" stroke-width="1" fill="none" /><circle cx="415.3360" cy="-111.2889" r="20.0000" stroke="green" stroke-width="1" fill="none" /><circle cx="372.3801" cy="-214.9937" r="20.0000" stroke="green" stroke-width="1" fill="none" /><circle cx="304.0470" cy="-304.0470" r="20.0000" stroke="green" stroke-width="1" fill="none" /><circle cx="214.9937" cy="-372.3801" r="20.0000" stroke="green" stroke-width="1" fill="none" /><circle cx="111.2889" cy="-415.3360" r="20.0000" stroke="green" stroke-width="1" fill="none" /><circle cx="0.0000" cy="-429.9874" r="20.0000" stroke="green" stroke-width="1" fill="none" /><circle cx="-111.2889" cy="-415.3360" r="20.0000" stroke="green" stroke-width="1" fill="none" /><circle cx="-214.9937" cy="-372.3801" r="20.0000" stroke="green" stroke-width="1" fill="none" /><circle cx="-304.0470" cy="-304.0470" r="20.0000" stroke="green" stroke-width="1" fill="none" /><circle cx="-372.3801" cy="-214.9937" r="20.0000" stroke="green" stroke-width="1" fill="none" /><circle cx="-415.3360" cy="-111.2889" r="20.0000" stroke="green" stroke-width="1" fill="none" /><circle cx="-429.9874" cy="-0.0000" r="20.0000" stroke="green" stroke-width="1" fill="none" /><circle cx="-415.3360" cy="111.2889" r="20.0000" stroke="green" stroke-width="1" fill="none" /><circle cx="-372.3801" cy="214.9937" r="20.0000" stroke="green" stroke-width="1" fill="none" /><circle cx="-304.0470" cy="304.0470" r="20.0000" stroke="green" stroke-width="1" fill="none" /><circle cx="-214.9937" cy="372.3801" r="20.0000" stroke="green" stroke-width="1" fill="none" /><circle cx="-111.2889" cy="415.3360" r="20.0000" stroke="green" stroke-width="1" fill="none" /><circle cx="-0.0000" cy="429.9874" r="20.0000" stroke="green" stroke-width="1" fill="none" /><circle cx="111.2889" cy="415.3360" r="20.0000" stroke="green" stroke-width="1" fill="none" /><circle cx="214.9937" cy="372.3801" r="20.0000" stroke="green" stroke-width="1" fill="none" /><circle cx="304.0470" cy="304.0470" r="20.0000" stroke="green" stroke-width="1" fill="none" /><circle cx="372.3801" cy="214.9937" r="20.0000" stroke="green" stroke-width="1" fill="none" /><circle cx="415.3360" cy="111.2889" r="20.0000" stroke="green" stroke-width="1" fill="none" /></svg>