0
SECTION
2
ENTITIES
0
LINE
8
PARAMETRIX
10
0.0000
20
0.0000
11
30.0000
21
0.0000
0
LINE
8
PARAMETRIX
10
30.0000
20
0.0000
11
30.0000
21
2.0000
0
LINE
8
PARAMETRIX
10
30.0000
20
2.0000
11
0.0000
21
2.0000
0
LINE
8
PARAMETRIX
10
0.0000
20
2.0000
11
0.0000
21
0.0000
0
ARC
8
PARAMETRIX
10
30.0000
20
11.0000
40
11.0000
50
270.0000
51
360.0000
0
LINE
8
PARAMETRIX
10
41.0000
20
11.0000
11
39.0000
21
11.0000
0
ARC
8
PARAMETRIX
10
30.0000
20
11.0000
40
9.0000
50
270.0000
51
0.0000
0
LINE
8
PARAMETRIX
10
30.0000
20
2.0000
11
30.0000
21
0.0000
0
ARC
8
PARAMETRIX
10
0.0000
20
11.0000
40
9.0000
50
180.0000
51
270.0000
0
LINE
8
PARAMETRIX
10
-9.0000
20
11.0000
11
-11.0000
21
11.0000
0
ARC
8
PARAMETRIX
10
0.0000
20
11.0000
40
11.0000
50
180.0000
51
270.0000
0
LINE
8
PARAMETRIX
10
-0.0000
20
0.0000
11
0.0000
21
2.0000
0
LINE
8
PARAMETRIX
10
-9.0000
20
11.0000
11
-9.0000
21
193.2832
0
LINE
8
PARAMETRIX
10
-9.0000
20
193.2832
11
-11.0000
21
193.2832
0
LINE
8
PARAMETRIX
10
-11.0000
20
193.2832
11
-11.0000
21
11.0000
0
LINE
8
PARAMETRIX
10
-11.0000
20
11.0000
11
-9.0000
21
11.0000
0
ARC
8
PARAMETRIX
10
0.0000
20
193.2832
40
9.0000
50
90.0000
51
180.0000
0
LINE
8
PARAMETRIX
10
0.0000
20
202.2832
11
0.0000
21
204.2832
0
ARC
8
PARAMETRIX
10
0.0000
20
193.2832
40
11.0000
50
90.0000
51
180.0000
0
LINE
8
PARAMETRIX
10
-11.0000
20
193.2832
11
-9.0000
21
193.2832
0
LINE
8
PARAMETRIX
10
0.0000
20
202.2832
11
30.0000
21
202.2832
0
LINE
8
PARAMETRIX
10
30.0000
20
202.2832
11
30.0000
21
204.2832
0
LINE
8
PARAMETRIX
10
30.0000
20
204.2832
11
0.0000
21
204.2832
0
LINE
8
PARAMETRIX
10
0.0000
20
204.2832
11
0.0000
21
202.2832
0
ARC
8
PARAMETRIX
10
30.0000
20
193.2832
40
9.0000
50
0.0000
51
90.0000
0
LINE
8
PARAMETRIX
10
39.0000
20
193.2832
11
41.0000
21
193.2832
0
ARC
8
PARAMETRIX
10
30.0000
20
193.2832
40
11.0000
50
0.0000
51
90.0000
0
LINE
8
PARAMETRIX
10
30.0000
20
204.2832
11
30.0000
21
202.2832
0
LINE
8
PARAMETRIX
10
39.0000
20
193.2832
11
39.0000
21
11.0000
0
LINE
8
PARAMETRIX
10
39.0000
20
11.0000
11
41.0000
21
11.0000
0
LINE
8
PARAMETRIX
10
41.0000
20
11.0000
11
41.0000
21
193.2832
0
LINE
8
PARAMETRIX
10
41.0000
20
193.2832
11
39.0000
21
193.2832
0
LINE
8
PARAMETRIX
10
120.0000
20
0.0000
11
356.7544
21
0.0000
0
LINE
8
PARAMETRIX
10
356.7544
20
0.0000
11
356.7544
21
2.0000
0
LINE
8
PARAMETRIX
10
356.7544
20
2.0000
11
120.0000
21
2.0000
0
LINE
8
PARAMETRIX
10
120.0000
20
2.0000
11
120.0000
21
0.0000
0
ARC
8
PARAMETRIX
10
356.7544
20
11.0000
40
11.0000
50
270.0000
51
360.0000
0
LINE
8
PARAMETRIX
10
367.7544
20
11.0000
11
365.7544
21
11.0000
0
ARC
8
PARAMETRIX
10
356.7544
20
11.0000
40
9.0000
50
270.0000
51
0.0000
0
LINE
8
PARAMETRIX
10
356.7544
20
2.0000
11
356.7544
21
0.0000
0
LINE
8
PARAMETRIX
10
367.7544
20
11.0000
11
367.7544
21
41.0000
0
LINE
8
PARAMETRIX
10
367.7544
20
41.0000
11
365.7544
21
41.0000
0
LINE
8
PARAMETRIX
10
365.7544
20
41.0000
11
365.7544
21
11.0000
0
LINE
8
PARAMETRIX
10
365.7544
20
11.0000
11
367.7544
21
11.0000
0
ARC
8
PARAMETRIX
10
356.7544
20
41.0000
40
11.0000
50
0.0000
51
90.0000
0
LINE
8
PARAMETRIX
10
356.7544
20
52.0000
11
356.7544
21
50.0000
0
ARC
8
PARAMETRIX
10
356.7544
20
41.0000
40
9.0000
50
0.0000
51
90.0000
0
LINE
8
PARAMETRIX
10
365.7544
20
41.0000
11
367.7544
21
41.0000
0
ARC
8
PARAMETRIX
10
120.0000
20
11.0000
40
9.0000
50
180.0000
51
270.0000
0
LINE
8
PARAMETRIX
10
111.0000
20
11.0000
11
109.0000
21
11.0000
0
ARC
8
PARAMETRIX
10
120.0000
20
11.0000
40
11.0000
50
180.0000
51
270.0000
0
LINE
8
PARAMETRIX
10
120.0000
20
0.0000
11
120.0000
21
2.0000
0
LINE
8
PARAMETRIX
10
111.0000
20
11.0000
11
111.0000
21
41.0000
0
LINE
8
PARAMETRIX
10
111.0000
20
41.0000
11
109.0000
21
41.0000
0
LINE
8
PARAMETRIX
10
109.0000
20
41.0000
11
109.0000
21
11.0000
0
LINE
8
PARAMETRIX
10
109.0000
20
11.0000
11
111.0000
21
11.0000
0
ARC
8
PARAMETRIX
10
120.0000
20
41.0000
40
9.0000
50
90.0000
51
180.0000
0
LINE
8
PARAMETRIX
10
120.0000
20
50.0000
11
120.0000
21
52.0000
0
ARC
8
PARAMETRIX
10
120.0000
20
41.0000
40
11.0000
50
90.0000
51
180.0000
0
LINE
8
PARAMETRIX
10
109.0000
20
41.0000
11
111.0000
21
41.0000
0
LINE
8
PARAMETRIX
10
120.0000
20
50.0000
11
356.7544
21
50.0000
0
LINE
8
PARAMETRIX
10
356.7544
20
50.0000
11
356.7544
21
52.0000
0
LINE
8
PARAMETRIX
10
356.7544
20
52.0000
11
120.0000
21
52.0000
0
LINE
8
PARAMETRIX
10
120.0000
20
52.0000
11
120.0000
21
50.0000
0
ENDSEC
0
EOF
