<svg width="211" height="270" viewBox="-11 -13 211 270" xmlns="http://www.w3.org/2000/svg"><path d="M -0.0000 236.7544 L 33.1416 236.7544 L 149.1416 236.7544 L 182.2832 236.7544 L 182.2832 0.0000 L 149.1416 0.0000 L 33.1416 0.0000 L -0.0000 0.0000 L -0.0000 236.7544 Z" stroke="green" stroke-width="1" fill="none" /><path d="M 51.9131 216.7544 L 86.4375 216.7544 L 95.8457 216.7544 L 130.3701 216.7544 A 10.0000 10.0000 0 0 0 138.4733 200.8946 L 126.4221 184.2297 L 114.6619 167.9673 L 99.2448 146.6479 A 10.0000 10.0000 0 0 0 83.0384 146.6479 L 67.6213 167.9673 L 55.8611 184.2297 L 43.8098 200.8946 A 10.0000 10.0000 0 0 0 51.9131 216.7544 Z" stroke="green" stroke-width="1" fill="none" /><path d="M 130.3701 20.0000 L 95.8457 20.0000 L 86.4375 20.0000 L 51.9131 20.0000 A 10.0000 10.0000 0 0 0 43.8098 35.8599 L 55.8611 52.5248 L 67.6213 68.7872 L 83.0384 90.1065 A 10.0000 10.0000 0 0 0 99.2448 90.1065 L 114.6619 68.7872 L 126.4221 52.5248 L 138.4733 35.8599 A 10.0000 10.0000 0 0 0 130.3701 20.0000 Z" stroke="green" stroke-width="1" fill="none" /><path d="M 162.2832 168.7955 L 162.2832 133.0134 L 162.2832 103.7411 L 162.2832 67.9589 A 10.0000 10.0000 0 0 0 144.1800 62.0991 L 138.7629 69.5901 L 127.0027 85.8524 L 107.7199 112.5174 A 10.0000 10.0000 0 0 0 107.7199 124.2371 L 127.0027 150.9020 L 138.7629 167.1644 L 144.1800 174.6554 A 10.0000 10.0000 0 0 0 162.2832 168.7955 Z" stroke="green" stroke-width="1" fill="none" /><path d="M 20.0000 67.9589 L 20.0000 103.7411 L 20.0000 133.0134 L 20.0000 168.7955 A 10.0000 10.0000 0 0 0 38.1032 174.6554 L 43.5203 167.1644 L 55.2805 150.9020 L 74.5633 124.2371 A 10.0000 10.0000 0 0 0 74.5633 112.5174 L 55.2805 85.8524 L 43.5203 69.5901 L 38.1032 62.0991 A 10.0000 10.0000 0 0 0 20.0000 67.9589 Z" stroke="green" stroke-width="1" fill="none" /></svg>