0
SECTION
2
ENTITIES
0
LINE
8
PARAMETRIX
10
-0.0000
20
0.0000
11
33.1416
21
0.0000
0
LINE
8
PARAMETRIX
10
33.1416
20
0.0000
11
149.1416
21
0.0000
0
LINE
8
PARAMETRIX
10
149.1416
20
0.0000
11
182.2832
21
0.0000
0
LINE
8
PARAMETRIX
10
182.2832
20
0.0000
11
182.2832
21
236.7544
0
LINE
8
PARAMETRIX
10
182.2832
20
236.7544
11
149.1416
21
236.7544
0
LINE
8
PARAMETRIX
10
149.1416
20
236.7544
11
33.1416
21
236.7544
0
LINE
8
PARAMETRIX
10
33.1416
20
236.7544
11
-0.0000
21
236.7544
0
LINE
8
PARAMETRIX
10
-0.0000
20
236.7544
11
-0.0000
21
0.0000
0
LINE
8
PARAMETRIX
10
51.9131
20
20.0000
11
86.4375
21
20.0000
0
LINE
8
PARAMETRIX
10
86.4375
20
20.0000
11
95.8457
21
20.0000
0
LINE
8
PARAMETRIX
10
95.8457
20
20.0000
11
130.3701
21
20.0000
0
ARC
8
PARAMETRIX
10
130.3701
20
30.0000
40
10.0000
50
270.0000
51
35.8726
0
LINE
8
PARAMETRIX
10
138.4733
20
35.8599
11
126.4221
21
52.5248
0
LINE
8
PARAMETRIX
10
126.4221
20
52.5248
11
114.6619
21
68.7872
0
LINE
8
PARAMETRIX
10
114.6619
20
68.7872
11
99.2448
21
90.1065
0
ARC
8
PARAMETRIX
10
91.1416
20
84.2467
40
10.0000
50
35.8726
51
144.1274
0
LINE
8
PARAMETRIX
10
83.0384
20
90.1065
11
67.6213
21
68.7872
0
LINE
8
PARAMETRIX
10
67.6213
20
68.7872
11
55.8611
21
52.5248
0
LINE
8
PARAMETRIX
10
55.8611
20
52.5248
11
43.8098
21
35.8599
0
ARC
8
PARAMETRIX
10
51.9131
20
30.0000
40
10.0000
50
144.1274
51
270.0000
0
LINE
8
PARAMETRIX
10
130.3701
20
216.7544
11
95.8457
21
216.7544
0
LINE
8
PARAMETRIX
10
95.8457
20
216.7544
11
86.4375
21
216.7544
0
LINE
8
PARAMETRIX
10
86.4375
20
216.7544
11
51.9131
21
216.7544
0
ARC
8
PARAMETRIX
10
51.9131
20
206.7544
40
10.0000
50
90.0000
51
215.8726
0
LINE
8
PARAMETRIX
10
43.8098
20
200.8946
11
55.8611
21
184.2297
0
LINE
8
PARAMETRIX
10
55.8611
20
184.2297
11
67.6213
21
167.9673
0
LINE
8
PARAMETRIX
10
67.6213
20
167.9673
11
83.0384
21
146.6479
0
ARC
8
PARAMETRIX
10
91.1416
20
152.5078
40
10.0000
50
215.8726
51
324.1274
0
LINE
8
PARAMETRIX
10
99.2448
20
146.6479
11
114.6619
21
167.9673
0
LINE
8
PARAMETRIX
10
114.6619
20
167.9673
11
126.4221
21
184.2297
0
LINE
8
PARAMETRIX
10
126.4221
20
184.2297
11
138.4733
21
200.8946
0
ARC
8
PARAMETRIX
10
130.3701
20
206.7544
40
10.0000
50
324.1274
51
90.0000
0
LINE
8
PARAMETRIX
10
162.2832
20
67.9589
11
162.2832
21
103.7411
0
LINE
8
PARAMETRIX
10
162.2832
20
103.7411
11
162.2832
21
133.0134
0
LINE
8
PARAMETRIX
10
162.2832
20
133.0134
11
162.2832
21
168.7955
0
ARC
8
PARAMETRIX
10
152.2832
20
168.7955
40
10.0000
50
360.0000
51
144.1274
0
LINE
8
PARAMETRIX
10
144.1800
20
174.6554
11
138.7629
21
167.1644
0
LINE
8
PARAMETRIX
10
138.7629
20
167.1644
11
127.0027
21
150.9020
0
LINE
8
PARAMETRIX
10
127.0027
20
150.9020
11
107.7199
21
124.2371
0
ARC
8
PARAMETRIX
10
115.8231
20
118.3772
40
10.0000
50
144.1274
51
215.8726
0
LINE
8
PARAMETRIX
10
107.7199
20
112.5174
11
127.0027
21
85.8524
0
LINE
8
PARAMETRIX
10
127.0027
20
85.8524
11
138.7629
21
69.5901
0
LINE
8
PARAMETRIX
10
138.7629
20
69.5901
11
144.1800
21
62.0991
0
ARC
8
PARAMETRIX
10
152.2832
20
67.9589
40
10.0000
50
215.8726
51
360.0000
0
LINE
8
PARAMETRIX
10
20.0000
20
168.7955
11
20.0000
21
133.0134
0
LINE
8
PARAMETRIX
10
20.0000
20
133.0134
11
20.0000
21
103.7411
0
LINE
8
PARAMETRIX
10
20.0000
20
103.7411
11
20.0000
21
67.9589
0
ARC
8
PARAMETRIX
10
30.0000
20
67.9589
40
10.0000
50
180.0000
51
324.1274
0
LINE
8
PARAMETRIX
10
38.1032
20
62.0991
11
43.5203
21
69.5901
0
LINE
8
PARAMETRIX
10
43.5203
20
69.5901
11
55.2805
21
85.8524
0
LINE
8
PARAMETRIX
10
55.2805
20
85.8524
11
74.5633
21
112.5174
0
ARC
8
PARAMETRIX
10
66.4600
20
118.3772
40
10.0000
50
324.1274
51
35.8726
0
LINE
8
PARAMETRIX
10
74.5633
20
124.2371
11
55.2805
21
150.9020
0
LINE
8
PARAMETRIX
10
55.2805
20
150.9020
11
43.5203
21
167.1644
0
LINE
8
PARAMETRIX
10
43.5203
20
167.1644
11
38.1032
21
174.6554
0
ARC
8
PARAMETRIX
10
30.0000
20
168.7955
40
10.0000
50
35.8726
51
180.0000
0
ENDSEC
0
EOF
