0
SECTION
2
ENTITIES
0
ARC
8
PARAMETRIX
10
0.0000
20
0.0000
40
35.0000
50
25.3769
51
334.6231
0
LINE
8
PARAMETRIX
10
31.6228
20
-15.0000
11
31.6228
21
-30.7080
0
LINE
8
PARAMETRIX
10
31.6228
20
-30.7080
11
31.6228
21
-63.8496
0
LINE
8
PARAMETRIX
10
31.6228
20
-63.8496
11
15.9148
21
-63.8496
0
LINE
8
PARAMETRIX
10
15.9148
20
-63.8496
11
-14.0852
21
-63.8496
0
LINE
8
PARAMETRIX
10
-14.0852
20
-63.8496
11
-14.0852
21
-179.8496
0
LINE
8
PARAMETRIX
10
-14.0852
20
-179.8496
11
15.9148
21
-179.8496
0
LINE
8
PARAMETRIX
10
15.9148
20
-179.8496
11
31.6228
21
-179.8496
0
LINE
8
PARAMETRIX
10
31.6228
20
-179.8496
11
31.6228
21
-212.9911
0
LINE
8
PARAMETRIX
10
31.6228
20
-212.9911
11
268.3772
21
-212.9911
0
LINE
8
PARAMETRIX
10
268.3772
20
-212.9911
11
268.3772
21
-179.8496
0
LINE
8
PARAMETRIX
10
268.3772
20
-179.8496
11
284.0852
21
-179.8496
0
LINE
8
PARAMETRIX
10
284.0852
20
-179.8496
11
314.0852
21
-179.8496
0
LINE
8
PARAMETRIX
10
314.0852
20
-179.8496
11
314.0852
21
-63.8496
0
LINE
8
PARAMETRIX
10
314.0852
20
-63.8496
11
284.0852
21
-63.8496
0
LINE
8
PARAMETRIX
10
284.0852
20
-63.8496
11
268.3772
21
-63.8496
0
LINE
8
PARAMETRIX
10
268.3772
20
-63.8496
11
268.3772
21
-30.7080
0
LINE
8
PARAMETRIX
10
268.3772
20
-30.7080
11
268.3772
21
-15.0000
0
ARC
8
PARAMETRIX
10
300.0000
20
-0.0000
40
35.0000
50
205.3769
51
154.6231
0
LINE
8
PARAMETRIX
10
268.3772
20
15.0000
11
268.3772
21
30.7080
0
LINE
8
PARAMETRIX
10
268.3772
20
30.7080
11
268.3772
21
63.8496
0
LINE
8
PARAMETRIX
10
268.3772
20
63.8496
11
284.0852
21
63.8496
0
LINE
8
PARAMETRIX
10
284.0852
20
63.8496
11
284.0852
21
179.8496
0
LINE
8
PARAMETRIX
10
284.0852
20
179.8496
11
268.3772
21
179.8496
0
LINE
8
PARAMETRIX
10
268.3772
20
179.8496
11
268.3772
21
212.9911
0
LINE
8
PARAMETRIX
10
268.3772
20
212.9911
11
268.3772
21
228.6991
0
ARC
8
PARAMETRIX
10
300.0000
20
243.6991
40
35.0000
50
205.3769
51
154.6231
0
LINE
8
PARAMETRIX
10
268.3772
20
258.6991
11
268.3772
21
274.4071
0
LINE
8
PARAMETRIX
10
268.3772
20
274.4071
11
31.6228
21
274.4071
0
LINE
8
PARAMETRIX
10
31.6228
20
274.4071
11
31.6228
21
258.6991
0
ARC
8
PARAMETRIX
10
0.0000
20
243.6991
40
35.0000
50
25.3769
51
334.6231
0
LINE
8
PARAMETRIX
10
31.6228
20
228.6991
11
31.6228
21
212.9911
0
LINE
8
PARAMETRIX
10
31.6228
20
212.9911
11
31.6228
21
179.8496
0
LINE
8
PARAMETRIX
10
31.6228
20
179.8496
11
15.9148
21
179.8496
0
LINE
8
PARAMETRIX
10
15.9148
20
179.8496
11
15.9148
21
63.8496
0
LINE
8
PARAMETRIX
10
15.9148
20
63.8496
11
31.6228
21
63.8496
0
LINE
8
PARAMETRIX
10
31.6228
20
63.8496
11
31.6228
21
30.7080
0
LINE
8
PARAMETRIX
10
31.6228
20
30.7080
11
31.6228
21
15.0000
0
ARC
8
PARAMETRIX
10
0.0000
20
0.0000
40
35.0000
50
25.3769
51
334.6231
0
LINE
8
PARAMETRIX
10
31.6228
20
-15.0000
11
31.6228
21
-30.7080
0
LINE
8
PARAMETRIX
10
31.6228
20
-30.7080
11
31.6228
21
-63.8496
0
LINE
8
PARAMETRIX
10
31.6228
20
-63.8496
11
15.9148
21
-63.8496
0
LINE
8
PARAMETRIX
10
15.9148
20
-63.8496
11
-14.0852
21
-63.8496
0
LINE
8
PARAMETRIX
10
-14.0852
20
-63.8496
11
-14.0852
21
-179.8496
0
LINE
8
PARAMETRIX
10
-14.0852
20
-179.8496
11
15.9148
21
-179.8496
0
LINE
8
PARAMETRIX
10
15.9148
20
-179.8496
11
31.6228
21
-179.8496
0
LINE
8
PARAMETRIX
10
31.6228
20
-179.8496
11
31.6228
21
-212.9911
0
LINE
8
PARAMETRIX
10
31.6228
20
-212.9911
11
268.3772
21
-212.9911
0
LINE
8
PARAMETRIX
10
268.3772
20
-212.9911
11
268.3772
21
-179.8496
0
LINE
8
PARAMETRIX
10
268.3772
20
-179.8496
11
284.0852
21
-179.8496
0
LINE
8
PARAMETRIX
10
284.0852
20
-179.8496
11
314.0852
21
-179.8496
0
LINE
8
PARAMETRIX
10
314.0852
20
-179.8496
11
314.0852
21
-63.8496
0
LINE
8
PARAMETRIX
10
314.0852
20
-63.8496
11
284.0852
21
-63.8496
0
LINE
8
PARAMETRIX
10
284.0852
20
-63.8496
11
268.3772
21
-63.8496
0
LINE
8
PARAMETRIX
10
268.3772
20
-63.8496
11
268.3772
21
-30.7080
0
LINE
8
PARAMETRIX
10
268.3772
20
-30.7080
11
268.3772
21
-15.0000
0
ARC
8
PARAMETRIX
10
300.0000
20
-0.0000
40
35.0000
50
205.3769
51
154.6231
0
LINE
8
PARAMETRIX
10
268.3772
20
15.0000
11
268.3772
21
30.7080
0
LINE
8
PARAMETRIX
10
268.3772
20
30.7080
11
268.3772
21
63.8496
0
LINE
8
PARAMETRIX
10
268.3772
20
63.8496
11
284.0852
21
63.8496
0
LINE
8
PARAMETRIX
10
284.0852
20
63.8496
11
284.0852
21
179.8496
0
LINE
8
PARAMETRIX
10
284.0852
20
179.8496
11
268.3772
21
179.8496
0
LINE
8
PARAMETRIX
10
268.3772
20
179.8496
11
268.3772
21
212.9911
0
LINE
8
PARAMETRIX
10
268.3772
20
212.9911
11
268.3772
21
228.6991
0
ARC
8
PARAMETRIX
10
300.0000
20
243.6991
40
35.0000
50
205.3769
51
154.6231
0
LINE
8
PARAMETRIX
10
268.3772
20
258.6991
11
268.3772
21
274.4071
0
LINE
8
PARAMETRIX
10
268.3772
20
274.4071
11
31.6228
21
274.4071
0
LINE
8
PARAMETRIX
10
31.6228
20
274.4071
11
31.6228
21
258.6991
0
ARC
8
PARAMETRIX
10
0.0000
20
243.6991
40
35.0000
50
25.3769
51
334.6231
0
LINE
8
PARAMETRIX
10
31.6228
20
228.6991
11
31.6228
21
212.9911
0
LINE
8
PARAMETRIX
10
31.6228
20
212.9911
11
31.6228
21
179.8496
0
LINE
8
PARAMETRIX
10
31.6228
20
179.8496
11
15.9148
21
179.8496
0
LINE
8
PARAMETRIX
10
15.9148
20
179.8496
11
15.9148
21
63.8496
0
LINE
8
PARAMETRIX
10
15.9148
20
63.8496
11
31.6228
21
63.8496
0
LINE
8
PARAMETRIX
10
31.6228
20
63.8496
11
31.6228
21
30.7080
0
LINE
8
PARAMETRIX
10
31.6228
20
30.7080
11
31.6228
21
15.0000
0
LINE
8
PARAMETRIX
10
67.4826
20
-74.5178
11
84.1476
21
-86.5691
0
LINE
8
PARAMETRIX
10
84.1476
20
-86.5691
11
80.4657
21
-91.6605
0
LINE
8
PARAMETRIX
10
80.4657
20
-91.6605
11
68.1600
21
-108.6772
0
LINE
8
PARAMETRIX
10
68.1600
20
-108.6772
11
84.4224
21
-120.4374
0
LINE
8
PARAMETRIX
10
84.4224
20
-120.4374
11
96.7281
21
-103.4206
0
LINE
8
PARAMETRIX
10
96.7281
20
-103.4206
11
100.4099
21
-98.3292
0
LINE
8
PARAMETRIX
10
100.4099
20
-98.3292
11
121.7293
21
-113.7463
0
ARC
8
PARAMETRIX
10
115.8694
20
-121.8496
40
10.0000
50
305.8726
51
54.1274
0
LINE
8
PARAMETRIX
10
121.7293
20
-129.9528
11
100.4099
21
-145.3699
0
LINE
8
PARAMETRIX
10
100.4099
20
-145.3699
11
96.7281
21
-140.2785
0
LINE
8
PARAMETRIX
10
96.7281
20
-140.2785
11
84.4224
21
-123.2617
0
LINE
8
PARAMETRIX
10
84.4224
20
-123.2617
11
68.1600
21
-135.0219
0
LINE
8
PARAMETRIX
10
68.1600
20
-135.0219
11
80.4657
21
-152.0386
0
LINE
8
PARAMETRIX
10
80.4657
20
-152.0386
11
84.1476
21
-157.1300
0
LINE
8
PARAMETRIX
10
84.1476
20
-157.1300
11
67.4826
21
-169.1813
0
ARC
8
PARAMETRIX
10
61.6228
20
-161.0781
40
10.0000
50
180.0000
51
305.8726
0
LINE
8
PARAMETRIX
10
51.6228
20
-161.0781
11
51.6228
21
-126.5536
0
LINE
8
PARAMETRIX
10
51.6228
20
-126.5536
11
57.9060
21
-126.5536
0
LINE
8
PARAMETRIX
10
57.9060
20
-126.5536
11
78.9060
21
-126.5536
0
LINE
8
PARAMETRIX
10
78.9060
20
-126.5536
11
78.9060
21
-117.1455
0
LINE
8
PARAMETRIX
10
78.9060
20
-117.1455
11
57.9060
21
-117.1455
0
LINE
8
PARAMETRIX
10
57.9060
20
-117.1455
11
51.6228
21
-117.1455
0
LINE
8
PARAMETRIX
10
51.6228
20
-117.1455
11
51.6228
21
-82.6210
0
ARC
8
PARAMETRIX
10
61.6228
20
-82.6210
40
10.0000
50
54.1274
51
180.0000
0
LINE
8
PARAMETRIX
10
232.5174
20
-169.1813
11
215.8524
21
-157.1300
0
LINE
8
PARAMETRIX
10
215.8524
20
-157.1300
11
219.5343
21
-152.0386
0
LINE
8
PARAMETRIX
10
219.5343
20
-152.0386
11
231.8400
21
-135.0219
0
LINE
8
PARAMETRIX
10
231.8400
20
-135.0219
11
215.5776
21
-123.2617
0
LINE
8
PARAMETRIX
10
215.5776
20
-123.2617
11
203.2719
21
-140.2785
0
LINE
8
PARAMETRIX
10
203.2719
20
-140.2785
11
199.5901
21
-145.3699
0
LINE
8
PARAMETRIX
10
199.5901
20
-145.3699
11
178.2707
21
-129.9528
0
ARC
8
PARAMETRIX
10
184.1306
20
-121.8496
40
10.0000
50
125.8726
51
234.1274
0
LINE
8
PARAMETRIX
10
178.2707
20
-113.7463
11
199.5901
21
-98.3292
0
LINE
8
PARAMETRIX
10
199.5901
20
-98.3292
11
203.2719
21
-103.4206
0
LINE
8
PARAMETRIX
10
203.2719
20
-103.4206
11
215.5776
21
-120.4374
0
LINE
8
PARAMETRIX
10
215.5776
20
-120.4374
11
231.8400
21
-108.6772
0
LINE
8
PARAMETRIX
10
231.8400
20
-108.6772
11
219.5343
21
-91.6605
0
LINE
8
PARAMETRIX
10
219.5343
20
-91.6605
11
215.8524
21
-86.5691
0
LINE
8
PARAMETRIX
10
215.8524
20
-86.5691
11
232.5174
21
-74.5178
0
ARC
8
PARAMETRIX
10
238.3772
20
-82.6210
40
10.0000
50
360.0000
51
125.8726
0
LINE
8
PARAMETRIX
10
248.3772
20
-82.6210
11
248.3772
21
-117.1455
0
LINE
8
PARAMETRIX
10
248.3772
20
-117.1455
11
242.0940
21
-117.1455
0
LINE
8
PARAMETRIX
10
242.0940
20
-117.1455
11
221.0940
21
-117.1455
0
LINE
8
PARAMETRIX
10
221.0940
20
-117.1455
11
221.0940
21
-126.5536
0
LINE
8
PARAMETRIX
10
221.0940
20
-126.5536
11
242.0940
21
-126.5536
0
LINE
8
PARAMETRIX
10
242.0940
20
-126.5536
11
248.3772
21
-126.5536
0
LINE
8
PARAMETRIX
10
248.3772
20
-126.5536
11
248.3772
21
-161.0781
0
ARC
8
PARAMETRIX
10
238.3772
20
-161.0781
40
10.0000
50
234.1274
51
0.0000
0
LINE
8
PARAMETRIX
10
93.7219
20
-174.8879
11
101.2128
21
-169.4708
0
LINE
8
PARAMETRIX
10
101.2128
20
-169.4708
11
104.8947
21
-174.5622
0
LINE
8
PARAMETRIX
10
104.8947
20
-174.5622
11
117.2004
21
-191.5790
0
LINE
8
PARAMETRIX
10
117.2004
20
-191.5790
11
133.4628
21
-179.8188
0
LINE
8
PARAMETRIX
10
133.4628
20
-179.8188
11
121.1571
21
-162.8021
0
LINE
8
PARAMETRIX
10
121.1571
20
-162.8021
11
117.4752
21
-157.7107
0
LINE
8
PARAMETRIX
10
117.4752
20
-157.7107
11
144.1401
21
-138.4279
0
ARC
8
PARAMETRIX
10
150.0000
20
-146.5311
40
10.0000
50
54.1274
51
125.8726
0
LINE
8
PARAMETRIX
10
155.8599
20
-138.4279
11
182.5248
21
-157.7107
0
LINE
8
PARAMETRIX
10
182.5248
20
-157.7107
11
178.8429
21
-162.8021
0
LINE
8
PARAMETRIX
10
178.8429
20
-162.8021
11
166.5372
21
-179.8188
0
LINE
8
PARAMETRIX
10
166.5372
20
-179.8188
11
182.7996
21
-191.5790
0
LINE
8
PARAMETRIX
10
182.7996
20
-191.5790
11
195.1053
21
-174.5622
0
LINE
8
PARAMETRIX
10
195.1053
20
-174.5622
11
198.7872
21
-169.4708
0
LINE
8
PARAMETRIX
10
198.7872
20
-169.4708
11
206.2781
21
-174.8879
0
ARC
8
PARAMETRIX
10
200.4183
20
-182.9911
40
10.0000
50
270.0000
51
54.1274
0
LINE
8
PARAMETRIX
10
200.4183
20
-192.9911
11
164.6361
21
-192.9911
0
LINE
8
PARAMETRIX
10
164.6361
20
-192.9911
11
164.6361
21
-186.7080
0
LINE
8
PARAMETRIX
10
164.6361
20
-186.7080
11
164.6361
21
-165.7080
0
LINE
8
PARAMETRIX
10
164.6361
20
-165.7080
11
135.3639
21
-165.7080
0
LINE
8
PARAMETRIX
10
135.3639
20
-165.7080
11
135.3639
21
-186.7080
0
LINE
8
PARAMETRIX
10
135.3639
20
-186.7080
11
135.3639
21
-192.9911
0
LINE
8
PARAMETRIX
10
135.3639
20
-192.9911
11
99.5817
21
-192.9911
0
ARC
8
PARAMETRIX
10
99.5817
20
-182.9911
40
10.0000
50
125.8726
51
270.0000
0
LINE
8
PARAMETRIX
10
206.2781
20
-68.8112
11
198.7872
21
-74.2283
0
LINE
8
PARAMETRIX
10
198.7872
20
-74.2283
11
195.1053
21
-69.1369
0
LINE
8
PARAMETRIX
10
195.1053
20
-69.1369
11
182.7996
21
-52.1201
0
LINE
8
PARAMETRIX
10
182.7996
20
-52.1201
11
166.5372
21
-63.8803
0
LINE
8
PARAMETRIX
10
166.5372
20
-63.8803
11
178.8429
21
-80.8971
0
LINE
8
PARAMETRIX
10
178.8429
20
-80.8971
11
182.5248
21
-85.9885
0
LINE
8
PARAMETRIX
10
182.5248
20
-85.9885
11
155.8599
21
-105.2712
0
ARC
8
PARAMETRIX
10
150.0000
20
-97.1680
40
10.0000
50
234.1274
51
305.8726
0
LINE
8
PARAMETRIX
10
144.1401
20
-105.2712
11
117.4752
21
-85.9885
0
LINE
8
PARAMETRIX
10
117.4752
20
-85.9885
11
121.1571
21
-80.8971
0
LINE
8
PARAMETRIX
10
121.1571
20
-80.8971
11
133.4628
21
-63.8803
0
LINE
8
PARAMETRIX
10
133.4628
20
-63.8803
11
117.2004
21
-52.1201
0
LINE
8
PARAMETRIX
10
117.2004
20
-52.1201
11
104.8947
21
-69.1369
0
LINE
8
PARAMETRIX
10
104.8947
20
-69.1369
11
101.2128
21
-74.2283
0
LINE
8
PARAMETRIX
10
101.2128
20
-74.2283
11
93.7219
21
-68.8112
0
ARC
8
PARAMETRIX
10
99.5817
20
-60.7080
40
10.0000
50
90.0000
51
234.1274
0
LINE
8
PARAMETRIX
10
99.5817
20
-50.7080
11
135.3639
21
-50.7080
0
LINE
8
PARAMETRIX
10
135.3639
20
-50.7080
11
135.3639
21
-56.9911
0
LINE
8
PARAMETRIX
10
135.3639
20
-56.9911
11
135.3639
21
-77.9911
0
LINE
8
PARAMETRIX
10
135.3639
20
-77.9911
11
164.6361
21
-77.9911
0
LINE
8
PARAMETRIX
10
164.6361
20
-77.9911
11
164.6361
21
-56.9911
0
LINE
8
PARAMETRIX
10
164.6361
20
-56.9911
11
164.6361
21
-50.7080
0
LINE
8
PARAMETRIX
10
164.6361
20
-50.7080
11
200.4183
21
-50.7080
0
ARC
8
PARAMETRIX
10
200.4183
20
-60.7080
40
10.0000
50
305.8726
51
90.0000
0
LINE
8
PARAMETRIX
10
67.4826
20
169.1813
11
84.1476
21
157.1300
0
LINE
8
PARAMETRIX
10
84.1476
20
157.1300
11
80.4657
21
152.0386
0
LINE
8
PARAMETRIX
10
80.4657
20
152.0386
11
68.1600
21
135.0219
0
LINE
8
PARAMETRIX
10
68.1600
20
135.0219
11
84.4224
21
123.2617
0
LINE
8
PARAMETRIX
10
84.4224
20
123.2617
11
96.7281
21
140.2785
0
LINE
8
PARAMETRIX
10
96.7281
20
140.2785
11
100.4099
21
145.3699
0
LINE
8
PARAMETRIX
10
100.4099
20
145.3699
11
121.7293
21
129.9528
0
ARC
8
PARAMETRIX
10
115.8694
20
121.8496
40
10.0000
50
305.8726
51
54.1274
0
LINE
8
PARAMETRIX
10
121.7293
20
113.7463
11
100.4099
21
98.3292
0
LINE
8
PARAMETRIX
10
100.4099
20
98.3292
11
96.7281
21
103.4206
0
LINE
8
PARAMETRIX
10
96.7281
20
103.4206
11
84.4224
21
120.4374
0
LINE
8
PARAMETRIX
10
84.4224
20
120.4374
11
68.1600
21
108.6772
0
LINE
8
PARAMETRIX
10
68.1600
20
108.6772
11
80.4657
21
91.6605
0
LINE
8
PARAMETRIX
10
80.4657
20
91.6605
11
84.1476
21
86.5691
0
LINE
8
PARAMETRIX
10
84.1476
20
86.5691
11
67.4826
21
74.5178
0
ARC
8
PARAMETRIX
10
61.6228
20
82.6210
40
10.0000
50
180.0000
51
305.8726
0
LINE
8
PARAMETRIX
10
51.6228
20
82.6210
11
51.6228
21
117.1455
0
LINE
8
PARAMETRIX
10
51.6228
20
117.1455
11
57.9060
21
117.1455
0
LINE
8
PARAMETRIX
10
57.9060
20
117.1455
11
78.9060
21
117.1455
0
LINE
8
PARAMETRIX
10
78.9060
20
117.1455
11
78.9060
21
126.5536
0
LINE
8
PARAMETRIX
10
78.9060
20
126.5536
11
57.9060
21
126.5536
0
LINE
8
PARAMETRIX
10
57.9060
20
126.5536
11
51.6228
21
126.5536
0
LINE
8
PARAMETRIX
10
51.6228
20
126.5536
11
51.6228
21
161.0781
0
ARC
8
PARAMETRIX
10
61.6228
20
161.0781
40
10.0000
50
54.1274
51
180.0000
0
LINE
8
PARAMETRIX
10
232.5174
20
74.5178
11
215.8524
21
86.5691
0
LINE
8
PARAMETRIX
10
215.8524
20
86.5691
11
219.5343
21
91.6605
0
LINE
8
PARAMETRIX
10
219.5343
20
91.6605
11
231.8400
21
108.6772
0
LINE
8
PARAMETRIX
10
231.8400
20
108.6772
11
215.5776
21
120.4374
0
LINE
8
PARAMETRIX
10
215.5776
20
120.4374
11
203.2719
21
103.4206
0
LINE
8
PARAMETRIX
10
203.2719
20
103.4206
11
199.5901
21
98.3292
0
LINE
8
PARAMETRIX
10
199.5901
20
98.3292
11
178.2707
21
113.7463
0
ARC
8
PARAMETRIX
10
184.1306
20
121.8496
40
10.0000
50
125.8726
51
234.1274
0
LINE
8
PARAMETRIX
10
178.2707
20
129.9528
11
199.5901
21
145.3699
0
LINE
8
PARAMETRIX
10
199.5901
20
145.3699
11
203.2719
21
140.2785
0
LINE
8
PARAMETRIX
10
203.2719
20
140.2785
11
215.5776
21
123.2617
0
LINE
8
PARAMETRIX
10
215.5776
20
123.2617
11
231.8400
21
135.0219
0
LINE
8
PARAMETRIX
10
231.8400
20
135.0219
11
219.5343
21
152.0386
0
LINE
8
PARAMETRIX
10
219.5343
20
152.0386
11
215.8524
21
157.1300
0
LINE
8
PARAMETRIX
10
215.8524
20
157.1300
11
232.5174
21
169.1813
0
ARC
8
PARAMETRIX
10
238.3772
20
161.0781
40
10.0000
50
0.0000
51
125.8726
0
LINE
8
PARAMETRIX
10
248.3772
20
161.0781
11
248.3772
21
126.5536
0
LINE
8
PARAMETRIX
10
248.3772
20
126.5536
11
242.0940
21
126.5536
0
LINE
8
PARAMETRIX
10
242.0940
20
126.5536
11
221.0940
21
126.5536
0
LINE
8
PARAMETRIX
10
221.0940
20
126.5536
11
221.0940
21
117.1455
0
LINE
8
PARAMETRIX
10
221.0940
20
117.1455
11
242.0940
21
117.1455
0
LINE
8
PARAMETRIX
10
242.0940
20
117.1455
11
248.3772
21
117.1455
0
LINE
8
PARAMETRIX
10
248.3772
20
117.1455
11
248.3772
21
82.6210
0
ARC
8
PARAMETRIX
10
238.3772
20
82.6210
40
10.0000
50
234.1274
51
360.0000
0
LINE
8
PARAMETRIX
10
93.7219
20
68.8112
11
101.2128
21
74.2283
0
LINE
8
PARAMETRIX
10
101.2128
20
74.2283
11
104.8947
21
69.1369
0
LINE
8
PARAMETRIX
10
104.8947
20
69.1369
11
117.2004
21
52.1201
0
LINE
8
PARAMETRIX
10
117.2004
20
52.1201
11
133.4628
21
63.8803
0
LINE
8
PARAMETRIX
10
133.4628
20
63.8803
11
121.1571
21
80.8971
0
LINE
8
PARAMETRIX
10
121.1571
20
80.8971
11
117.4752
21
85.9885
0
LINE
8
PARAMETRIX
10
117.4752
20
85.9885
11
144.1401
21
105.2712
0
ARC
8
PARAMETRIX
10
150.0000
20
97.1680
40
10.0000
50
54.1274
51
125.8726
0
LINE
8
PARAMETRIX
10
155.8599
20
105.2712
11
182.5248
21
85.9885
0
LINE
8
PARAMETRIX
10
182.5248
20
85.9885
11
178.8429
21
80.8971
0
LINE
8
PARAMETRIX
10
178.8429
20
80.8971
11
166.5372
21
63.8803
0
LINE
8
PARAMETRIX
10
166.5372
20
63.8803
11
182.7996
21
52.1201
0
LINE
8
PARAMETRIX
10
182.7996
20
52.1201
11
195.1053
21
69.1369
0
LINE
8
PARAMETRIX
10
195.1053
20
69.1369
11
198.7872
21
74.2283
0
LINE
8
PARAMETRIX
10
198.7872
20
74.2283
11
206.2781
21
68.8112
0
ARC
8
PARAMETRIX
10
200.4183
20
60.7080
40
10.0000
50
270.0000
51
54.1274
0
LINE
8
PARAMETRIX
10
200.4183
20
50.7080
11
164.6361
21
50.7080
0
LINE
8
PARAMETRIX
10
164.6361
20
50.7080
11
164.6361
21
56.9911
0
LINE
8
PARAMETRIX
10
164.6361
20
56.9911
11
164.6361
21
77.9911
0
LINE
8
PARAMETRIX
10
164.6361
20
77.9911
11
135.3639
21
77.9911
0
LINE
8
PARAMETRIX
10
135.3639
20
77.9911
11
135.3639
21
56.9911
0
LINE
8
PARAMETRIX
10
135.3639
20
56.9911
11
135.3639
21
50.7080
0
LINE
8
PARAMETRIX
10
135.3639
20
50.7080
11
99.5817
21
50.7080
0
ARC
8
PARAMETRIX
10
99.5817
20
60.7080
40
10.0000
50
125.8726
51
270.0000
0
LINE
8
PARAMETRIX
10
206.2781
20
174.8879
11
198.7872
21
169.4708
0
LINE
8
PARAMETRIX
10
198.7872
20
169.4708
11
195.1053
21
174.5622
0
LINE
8
PARAMETRIX
10
195.1053
20
174.5622
11
182.7996
21
191.5790
0
LINE
8
PARAMETRIX
10
182.7996
20
191.5790
11
166.5372
21
179.8188
0
LINE
8
PARAMETRIX
10
166.5372
20
179.8188
11
178.8429
21
162.8021
0
LINE
8
PARAMETRIX
10
178.8429
20
162.8021
11
182.5248
21
157.7107
0
LINE
8
PARAMETRIX
10
182.5248
20
157.7107
11
155.8599
21
138.4279
0
ARC
8
PARAMETRIX
10
150.0000
20
146.5311
40
10.0000
50
234.1274
51
305.8726
0
LINE
8
PARAMETRIX
10
144.1401
20
138.4279
11
117.4752
21
157.7107
0
LINE
8
PARAMETRIX
10
117.4752
20
157.7107
11
121.1571
21
162.8021
0
LINE
8
PARAMETRIX
10
121.1571
20
162.8021
11
133.4628
21
179.8188
0
LINE
8
PARAMETRIX
10
133.4628
20
179.8188
11
117.2004
21
191.5790
0
LINE
8
PARAMETRIX
10
117.2004
20
191.5790
11
104.8947
21
174.5622
0
LINE
8
PARAMETRIX
10
104.8947
20
174.5622
11
101.2128
21
169.4708
0
LINE
8
PARAMETRIX
10
101.2128
20
169.4708
11
93.7219
21
174.8879
0
ARC
8
PARAMETRIX
10
99.5817
20
182.9911
40
10.0000
50
90.0000
51
234.1274
0
LINE
8
PARAMETRIX
10
99.5817
20
192.9911
11
135.3639
21
192.9911
0
LINE
8
PARAMETRIX
10
135.3639
20
192.9911
11
135.3639
21
186.7080
0
LINE
8
PARAMETRIX
10
135.3639
20
186.7080
11
135.3639
21
165.7080
0
LINE
8
PARAMETRIX
10
135.3639
20
165.7080
11
164.6361
21
165.7080
0
LINE
8
PARAMETRIX
10
164.6361
20
165.7080
11
164.6361
21
186.7080
0
LINE
8
PARAMETRIX
10
164.6361
20
186.7080
11
164.6361
21
192.9911
0
LINE
8
PARAMETRIX
10
164.6361
20
192.9911
11
200.4183
21
192.9911
0
ARC
8
PARAMETRIX
10
200.4183
20
182.9911
40
10.0000
50
305.8726
51
90.0000
0
CIRCLE
8
PARAMETRIX
10
0.0000
20
0.0000
40
15.0000
0
CIRCLE
8
PARAMETRIX
10
300.0000
20
0.0000
40
15.0000
0
CIRCLE
8
PARAMETRIX
10
54.7222
20
0.0000
40
7.5000
0
CIRCLE
8
PARAMETRIX
10
81.9444
20
0.0000
40
7.5000
0
CIRCLE
8
PARAMETRIX
10
109.1667
20
0.0000
40
7.5000
0
CIRCLE
8
PARAMETRIX
10
136.3889
20
0.0000
40
7.5000
0
CIRCLE
8
PARAMETRIX
10
163.6111
20
0.0000
40
7.5000
0
CIRCLE
8
PARAMETRIX
10
190.8333
20
0.0000
40
7.5000
0
CIRCLE
8
PARAMETRIX
10
218.0556
20
0.0000
40
7.5000
0
CIRCLE
8
PARAMETRIX
10
245.2778
20
0.0000
40
7.5000
0
CIRCLE
8
PARAMETRIX
10
0.0000
20
243.6991
40
15.0000
0
CIRCLE
8
PARAMETRIX
10
300.0000
20
243.6991
40
15.0000
0
CIRCLE
8
PARAMETRIX
10
54.7222
20
243.6991
40
7.5000
0
CIRCLE
8
PARAMETRIX
10
81.9444
20
243.6991
40
7.5000
0
CIRCLE
8
PARAMETRIX
10
109.1667
20
243.6991
40
7.5000
0
CIRCLE
8
PARAMETRIX
10
136.3889
20
243.6991
40
7.5000
0
CIRCLE
8
PARAMETRIX
10
163.6111
20
243.6991
40
7.5000
0
CIRCLE
8
PARAMETRIX
10
190.8333
20
243.6991
40
7.5000
0
CIRCLE
8
PARAMETRIX
10
218.0556
20
243.6991
40
7.5000
0
CIRCLE
8
PARAMETRIX
10
245.2778
20
243.6991
40
7.5000
0
CIRCLE
8
PARAMETRIX
10
0.9148
20
-82.5496
40
7.5000
0
CIRCLE
8
PARAMETRIX
10
0.9148
20
-108.7496
40
7.5000
0
CIRCLE
8
PARAMETRIX
10
0.9148
20
-134.9496
40
7.5000
0
CIRCLE
8
PARAMETRIX
10
0.9148
20
-161.1496
40
7.5000
0
CIRCLE
8
PARAMETRIX
10
299.0852
20
-161.1496
40
7.5000
0
CIRCLE
8
PARAMETRIX
10
299.0852
20
-134.9496
40
7.5000
0
CIRCLE
8
PARAMETRIX
10
299.0852
20
-108.7496
40
7.5000
0
CIRCLE
8
PARAMETRIX
10
299.0852
20
-82.5496
40
7.5000
0
ARC
8
PARAMETRIX
10
150.0000
20
-28.7080
40
2.0000
50
180.0000
51
0.0000
0
LINE
8
PARAMETRIX
10
152.0000
20
-28.7080
11
152.0000
21
-17.0000
0
ARC
8
PARAMETRIX
10
150.0000
20
-17.0000
40
2.0000
50
0.0000
51
180.0000
0
LINE
8
PARAMETRIX
10
148.0000
20
-17.0000
11
148.0000
21
-28.7080
0
ARC
8
PARAMETRIX
10
150.0000
20
17.0000
40
2.0000
50
180.0000
51
0.0000
0
LINE
8
PARAMETRIX
10
152.0000
20
17.0000
11
152.0000
21
28.7080
0
ARC
8
PARAMETRIX
10
150.0000
20
28.7080
40
2.0000
50
0.0000
51
180.0000
0
LINE
8
PARAMETRIX
10
148.0000
20
28.7080
11
148.0000
21
17.0000
0
ARC
8
PARAMETRIX
10
17.9148
20
-121.8496
40
2.0000
50
90.0000
51
270.0000
0
LINE
8
PARAMETRIX
10
17.9148
20
-123.8496
11
29.6228
21
-123.8496
0
ARC
8
PARAMETRIX
10
29.6228
20
-121.8496
40
2.0000
50
270.0000
51
90.0000
0
LINE
8
PARAMETRIX
10
29.6228
20
-119.8496
11
17.9148
21
-119.8496
0
ARC
8
PARAMETRIX
10
282.0852
20
-121.8496
40
2.0000
50
270.0000
51
90.0000
0
LINE
8
PARAMETRIX
10
282.0852
20
-119.8496
11
270.3772
21
-119.8496
0
ARC
8
PARAMETRIX
10
270.3772
20
-121.8496
40
2.0000
50
90.0000
51
270.0000
0
LINE
8
PARAMETRIX
10
270.3772
20
-123.8496
11
282.0852
21
-123.8496
0
ARC
8
PARAMETRIX
10
53.6228
20
-121.8496
40
2.0000
50
90.0000
51
270.0000
0
LINE
8
PARAMETRIX
10
53.6228
20
-123.8496
11
55.9060
21
-123.8496
0
ARC
8
PARAMETRIX
10
55.9060
20
-121.8496
40
2.0000
50
270.0000
51
90.0000
0
LINE
8
PARAMETRIX
10
55.9060
20
-119.8496
11
53.6228
21
-119.8496
0
ARC
8
PARAMETRIX
10
91.1068
20
-149.6293
40
2.0000
50
215.8726
51
35.8726
0
LINE
8
PARAMETRIX
10
92.7274
20
-148.4574
11
91.3895
21
-146.6072
0
ARC
8
PARAMETRIX
10
89.7689
20
-147.7792
40
2.0000
50
35.8726
51
215.8726
0
LINE
8
PARAMETRIX
10
88.1482
20
-148.9512
11
89.4861
21
-150.8013
0
ARC
8
PARAMETRIX
10
91.1068
20
-94.0698
40
2.0000
50
324.1274
51
144.1274
0
LINE
8
PARAMETRIX
10
89.4861
20
-92.8978
11
88.1482
21
-94.7479
0
ARC
8
PARAMETRIX
10
89.7689
20
-95.9199
40
2.0000
50
144.1274
51
324.1274
0
LINE
8
PARAMETRIX
10
91.3895
20
-97.0919
11
92.7274
21
-95.2418
0
ARC
8
PARAMETRIX
10
246.3772
20
-121.8496
40
2.0000
50
270.0000
51
90.0000
0
LINE
8
PARAMETRIX
10
246.3772
20
-119.8496
11
244.0940
21
-119.8496
0
ARC
8
PARAMETRIX
10
244.0940
20
-121.8496
40
2.0000
50
90.0000
51
270.0000
0
LINE
8
PARAMETRIX
10
244.0940
20
-123.8496
11
246.3772
21
-123.8496
0
ARC
8
PARAMETRIX
10
208.8932
20
-94.0698
40
2.0000
50
35.8726
51
215.8726
0
LINE
8
PARAMETRIX
10
207.2726
20
-95.2418
11
208.6105
21
-97.0919
0
ARC
8
PARAMETRIX
10
210.2311
20
-95.9199
40
2.0000
50
215.8726
51
35.8726
0
LINE
8
PARAMETRIX
10
211.8518
20
-94.7479
11
210.5139
21
-92.8978
0
ARC
8
PARAMETRIX
10
208.8932
20
-149.6293
40
2.0000
50
144.1274
51
324.1274
0
LINE
8
PARAMETRIX
10
210.5139
20
-150.8013
11
211.8518
21
-148.9512
0
ARC
8
PARAMETRIX
10
210.2311
20
-147.7792
40
2.0000
50
324.1274
51
144.1274
0
LINE
8
PARAMETRIX
10
208.6105
20
-146.6072
11
207.2726
21
-148.4574
0
ARC
8
PARAMETRIX
10
150.0000
20
-190.9911
40
2.0000
50
180.0000
51
0.0000
0
LINE
8
PARAMETRIX
10
152.0000
20
-190.9911
11
152.0000
21
-188.7080
0
ARC
8
PARAMETRIX
10
150.0000
20
-188.7080
40
2.0000
50
0.0000
51
180.0000
0
LINE
8
PARAMETRIX
10
148.0000
20
-188.7080
11
148.0000
21
-190.9911
0
ARC
8
PARAMETRIX
10
189.4840
20
-165.2114
40
2.0000
50
324.1274
51
144.1274
0
LINE
8
PARAMETRIX
10
187.8634
20
-164.0394
11
186.5254
21
-165.8895
0
ARC
8
PARAMETRIX
10
188.1461
20
-167.0615
40
2.0000
50
144.1274
51
324.1274
0
LINE
8
PARAMETRIX
10
189.7667
20
-168.2335
11
191.1046
21
-166.3834
0
ARC
8
PARAMETRIX
10
110.5160
20
-165.2114
40
2.0000
50
35.8726
51
215.8726
0
LINE
8
PARAMETRIX
10
108.8954
20
-166.3834
11
110.2333
21
-168.2335
0
ARC
8
PARAMETRIX
10
111.8539
20
-167.0615
40
2.0000
50
215.8726
51
35.8726
0
LINE
8
PARAMETRIX
10
113.4746
20
-165.8895
11
112.1366
21
-164.0394
0
ARC
8
PARAMETRIX
10
150.0000
20
-52.7080
40
2.0000
50
0.0000
51
180.0000
0
LINE
8
PARAMETRIX
10
148.0000
20
-52.7080
11
148.0000
21
-54.9911
0
ARC
8
PARAMETRIX
10
150.0000
20
-54.9911
40
2.0000
50
180.0000
51
0.0000
0
LINE
8
PARAMETRIX
10
152.0000
20
-54.9911
11
152.0000
21
-52.7080
0
ARC
8
PARAMETRIX
10
110.5160
20
-78.4877
40
2.0000
50
144.1274
51
324.1274
0
LINE
8
PARAMETRIX
10
112.1366
20
-79.6597
11
113.4746
21
-77.8096
0
ARC
8
PARAMETRIX
10
111.8539
20
-76.6376
40
2.0000
50
324.1274
51
144.1274
0
LINE
8
PARAMETRIX
10
110.2333
20
-75.4656
11
108.8954
21
-77.3158
0
ARC
8
PARAMETRIX
10
189.4840
20
-78.4877
40
2.0000
50
215.8726
51
35.8726
0
LINE
8
PARAMETRIX
10
191.1046
20
-77.3158
11
189.7667
21
-75.4656
0
ARC
8
PARAMETRIX
10
188.1461
20
-76.6376
40
2.0000
50
35.8726
51
215.8726
0
LINE
8
PARAMETRIX
10
186.5254
20
-77.8096
11
187.8634
21
-79.6597
0
ARC
8
PARAMETRIX
10
17.9148
20
121.8496
40
2.0000
50
90.0000
51
270.0000
0
LINE
8
PARAMETRIX
10
17.9148
20
119.8496
11
29.6228
21
119.8496
0
ARC
8
PARAMETRIX
10
29.6228
20
121.8496
40
2.0000
50
270.0000
51
90.0000
0
LINE
8
PARAMETRIX
10
29.6228
20
123.8496
11
17.9148
21
123.8496
0
ARC
8
PARAMETRIX
10
282.0852
20
121.8496
40
2.0000
50
270.0000
51
90.0000
0
LINE
8
PARAMETRIX
10
282.0852
20
123.8496
11
270.3772
21
123.8496
0
ARC
8
PARAMETRIX
10
270.3772
20
121.8496
40
2.0000
50
90.0000
51
270.0000
0
LINE
8
PARAMETRIX
10
270.3772
20
119.8496
11
282.0852
21
119.8496
0
ARC
8
PARAMETRIX
10
150.0000
20
214.9911
40
2.0000
50
180.0000
51
0.0000
0
LINE
8
PARAMETRIX
10
152.0000
20
214.9911
11
152.0000
21
226.6991
0
ARC
8
PARAMETRIX
10
150.0000
20
226.6991
40
2.0000
50
0.0000
51
180.0000
0
LINE
8
PARAMETRIX
10
148.0000
20
226.6991
11
148.0000
21
214.9911
0
ARC
8
PARAMETRIX
10
53.6228
20
121.8496
40
2.0000
50
90.0000
51
270.0000
0
LINE
8
PARAMETRIX
10
53.6228
20
119.8496
11
55.9060
21
119.8496
0
ARC
8
PARAMETRIX
10
55.9060
20
121.8496
40
2.0000
50
270.0000
51
90.0000
0
LINE
8
PARAMETRIX
10
55.9060
20
123.8496
11
53.6228
21
123.8496
0
ARC
8
PARAMETRIX
10
91.1068
20
94.0698
40
2.0000
50
215.8726
51
35.8726
0
LINE
8
PARAMETRIX
10
92.7274
20
95.2418
11
91.3895
21
97.0919
0
ARC
8
PARAMETRIX
10
89.7689
20
95.9199
40
2.0000
50
35.8726
51
215.8726
0
LINE
8
PARAMETRIX
10
88.1482
20
94.7479
11
89.4861
21
92.8978
0
ARC
8
PARAMETRIX
10
91.1068
20
149.6293
40
2.0000
50
324.1274
51
144.1274
0
LINE
8
PARAMETRIX
10
89.4861
20
150.8013
11
88.1482
21
148.9512
0
ARC
8
PARAMETRIX
10
89.7689
20
147.7792
40
2.0000
50
144.1274
51
324.1274
0
LINE
8
PARAMETRIX
10
91.3895
20
146.6072
11
92.7274
21
148.4574
0
ARC
8
PARAMETRIX
10
246.3772
20
121.8496
40
2.0000
50
270.0000
51
90.0000
0
LINE
8
PARAMETRIX
10
246.3772
20
123.8496
11
244.0940
21
123.8496
0
ARC
8
PARAMETRIX
10
244.0940
20
121.8496
40
2.0000
50
90.0000
51
270.0000
0
LINE
8
PARAMETRIX
10
244.0940
20
119.8496
11
246.3772
21
119.8496
0
ARC
8
PARAMETRIX
10
208.8932
20
149.6293
40
2.0000
50
35.8726
51
215.8726
0
LINE
8
PARAMETRIX
10
207.2726
20
148.4574
11
208.6105
21
146.6072
0
ARC
8
PARAMETRIX
10
210.2311
20
147.7792
40
2.0000
50
215.8726
51
35.8726
0
LINE
8
PARAMETRIX
10
211.8518
20
148.9512
11
210.5139
21
150.8013
0
ARC
8
PARAMETRIX
10
208.8932
20
94.0698
40
2.0000
50
144.1274
51
324.1274
0
LINE
8
PARAMETRIX
10
210.5139
20
92.8978
11
211.8518
21
94.7479
0
ARC
8
PARAMETRIX
10
210.2311
20
95.9199
40
2.0000
50
324.1274
51
144.1274
0
LINE
8
PARAMETRIX
10
208.6105
20
97.0919
11
207.2726
21
95.2418
0
ARC
8
PARAMETRIX
10
150.0000
20
52.7080
40
2.0000
50
180.0000
51
0.0000
0
LINE
8
PARAMETRIX
10
152.0000
20
52.7080
11
152.0000
21
54.9911
0
ARC
8
PARAMETRIX
10
150.0000
20
54.9911
40
2.0000
50
0.0000
51
180.0000
0
LINE
8
PARAMETRIX
10
148.0000
20
54.9911
11
148.0000
21
52.7080
0
ARC
8
PARAMETRIX
10
189.4840
20
78.4877
40
2.0000
50
324.1274
51
144.1274
0
LINE
8
PARAMETRIX
10
187.8634
20
79.6597
11
186.5254
21
77.8096
0
ARC
8
PARAMETRIX
10
188.1461
20
76.6376
40
2.0000
50
144.1274
51
324.1274
0
LINE
8
PARAMETRIX
10
189.7667
20
75.4656
11
191.1046
21
77.3158
0
ARC
8
PARAMETRIX
10
110.5160
20
78.4877
40
2.0000
50
35.8726
51
215.8726
0
LINE
8
PARAMETRIX
10
108.8954
20
77.3158
11
110.2333
21
75.4656
0
ARC
8
PARAMETRIX
10
111.8539
20
76.6376
40
2.0000
50
215.8726
51
35.8726
0
LINE
8
PARAMETRIX
10
113.4746
20
77.8096
11
112.1366
21
79.6597
0
ARC
8
PARAMETRIX
10
150.0000
20
190.9911
40
2.0000
50
0.0000
51
180.0000
0
LINE
8
PARAMETRIX
10
148.0000
20
190.9911
11
148.0000
21
188.7080
0
ARC
8
PARAMETRIX
10
150.0000
20
188.7080
40
2.0000
50
180.0000
51
0.0000
0
LINE
8
PARAMETRIX
10
152.0000
20
188.7080
11
152.0000
21
190.9911
0
ARC
8
PARAMETRIX
10
110.5160
20
165.2114
40
2.0000
50
144.1274
51
324.1274
0
LINE
8
PARAMETRIX
10
112.1366
20
164.0394
11
113.4746
21
165.8895
0
ARC
8
PARAMETRIX
10
111.8539
20
167.0615
40
2.0000
50
324.1274
51
144.1274
0
LINE
8
PARAMETRIX
10
110.2333
20
168.2335
11
108.8954
21
166.3834
0
ARC
8
PARAMETRIX
10
189.4840
20
165.2114
40
2.0000
50
215.8726
51
35.8726
0
LINE
8
PARAMETRIX
10
191.1046
20
166.3834
11
189.7667
21
168.2335
0
ARC
8
PARAMETRIX
10
188.1461
20
167.0615
40
2.0000
50
35.8726
51
215.8726
0
LINE
8
PARAMETRIX
10
186.5254
20
165.8895
11
187.8634
21
164.0394
0
ARC
8
PARAMETRIX
10
150.0000
20
260.6991
40
2.0000
50
180.0000
51
0.0000
0
LINE
8
PARAMETRIX
10
152.0000
20
260.6991
11
152.0000
21
272.4071
0
ARC
8
PARAMETRIX
10
150.0000
20
272.4071
40
2.0000
50
0.0000
51
180.0000
0
LINE
8
PARAMETRIX
10
148.0000
20
272.4071
11
148.0000
21
260.6991
0
ENDSEC
0
EOF
