<svg width="417" height="546" viewBox="-56 -240 417 546" xmlns="http://www.w3.org/2000/svg"><path d="M 31.6228 46.4159 A 35.0000 35.0000 0 1 0 31.6228 76.4159 L 31.6228 92.1239 L 31.6228 125.2655 L 15.9148 125.2655 L -14.0852 125.2655 L -14.0852 241.2655 L 15.9148 241.2655 L 31.6228 241.2655 L 31.6228 274.4071 L 268.3772 274.4071 L 268.3772 241.2655 L 284.0852 241.2655 L 314.0852 241.2655 L 314.0852 125.2655 L 284.0852 125.2655 L 268.3772 125.2655 L 268.3772 92.1239 L 268.3772 76.4159 A 35.0000 35.0000 0 1 0 268.3772 46.4159 L 268.3772 30.7080 L 268.3772 -2.4336 L 284.0852 -2.4336 L 284.0852 -118.4336 L 268.3772 -118.4336 L 268.3772 -151.5752 L 268.3772 -167.2832 A 35.0000 35.0000 0 1 0 268.3772 -197.2832 L 268.3772 -212.9911 L 31.6228 -212.9911 L 31.6228 -197.2832 A 35.0000 35.0000 0 1 0 31.6228 -167.2832 L 31.6228 -151.5752 L 31.6228 -118.4336 L 15.9148 -118.4336 L 15.9148 -2.4336 L 31.6228 -2.4336 L 31.6228 30.7080 L 31.6228 46.4159 Z" stroke="green" stroke-width="1" fill="none" /><path d="M 31.6228 46.4159 A 35.0000 35.0000 0 1 0 31.6228 76.4159 L 31.6228 92.1239 L 31.6228 125.2655 L 15.9148 125.2655 L -14.0852 125.2655 L -14.0852 241.2655 L 15.9148 241.2655 L 31.6228 241.2655 L 31.6228 274.4071 L 268.3772 274.4071 L 268.3772 241.2655 L 284.0852 241.2655 L 314.0852 241.2655 L 314.0852 125.2655 L 284.0852 125.2655 L 268.3772 125.2655 L 268.3772 92.1239 L 268.3772 76.4159 A 35.0000 35.0000 0 1 0 268.3772 46.4159 L 268.3772 30.7080 L 268.3772 -2.4336 L 284.0852 -2.4336 L 284.0852 -118.4336 L 268.3772 -118.4336 L 268.3772 -151.5752 L 268.3772 -167.2832 A 35.0000 35.0000 0 1 0 268.3772 -197.2832 L 268.3772 -212.9911 L 31.6228 -212.9911 L 31.6228 -197.2832 A 35.0000 35.0000 0 1 0 31.6228 -167.2832 L 31.6228 -151.5752 L 31.6228 -118.4336 L 15.9148 -118.4336 L 15.9148 -2.4336 L 31.6228 -2.4336 L 31.6228 30.7080 L 31.6228 46.4159 Z" stroke="green" stroke-width="1" fill="none" /><path d="M 67.4826 135.9337 L 84.1476 147.9850 L 80.4657 153.0764 L 68.1600 170.0932 L 84.4224 181.8533 L 96.7281 164.8366 L 100.4099 159.7452 L 121.7293 175.1623 A 10.0000 10.0000 0 0 1 121.7293 191.3687 L 100.4099 206.7858 L 96.7281 201.6944 L 84.4224 184.6776 L 68.1600 196.4378 L 80.4657 213.4546 L 84.1476 218.5460 L 67.4826 230.5972 A 10.0000 10.0000 0 0 1 51.6228 222.4940 L 51.6228 187.9695 L 57.9060 187.9695 L 78.9060 187.9695 L 78.9060 178.5614 L 57.9060 178.5614 L 51.6228 178.5614 L 51.6228 144.0370 A 10.0000 10.0000 0 0 1 67.4826 135.9337 Z" stroke="green" stroke-width="1" fill="none" /><path d="M 232.5174 230.5972 L 215.8524 218.5460 L 219.5343 213.4546 L 231.8400 196.4378 L 215.5776 184.6776 L 203.2719 201.6944 L 199.5901 206.7858 L 178.2707 191.3687 A 10.0000 10.0000 0 0 1 178.2707 175.1623 L 199.5901 159.7452 L 203.2719 164.8366 L 215.5776 181.8533 L 231.8400 170.0932 L 219.5343 153.0764 L 215.8524 147.9850 L 232.5174 135.9337 A 10.0000 10.0000 0 0 1 248.3772 144.0370 L 248.3772 178.5614 L 242.0940 178.5614 L 221.0940 178.5614 L 221.0940 187.9695 L 242.0940 187.9695 L 248.3772 187.9695 L 248.3772 222.4940 A 10.0000 10.0000 0 0 1 232.5174 230.5972 Z" stroke="green" stroke-width="1" fill="none" /><path d="M 93.7219 236.3039 L 101.2128 230.8867 L 104.8947 235.9782 L 117.2004 252.9949 L 133.4628 241.2347 L 121.1571 224.2180 L 117.4752 219.1266 L 144.1401 199.8438 A 10.0000 10.0000 0 0 1 155.8599 199.8438 L 182.5248 219.1266 L 178.8429 224.2180 L 166.5372 241.2347 L 182.7996 252.9949 L 195.1053 235.9782 L 198.7872 230.8867 L 206.2781 236.3039 A 10.0000 10.0000 0 0 1 200.4183 254.4071 L 164.6361 254.4071 L 164.6361 248.1239 L 164.6361 227.1239 L 135.3639 227.1239 L 135.3639 248.1239 L 135.3639 254.4071 L 99.5817 254.4071 A 10.0000 10.0000 0 0 1 93.7219 236.3039 Z" stroke="green" stroke-width="1" fill="none" /><path d="M 206.2781 130.2271 L 198.7872 135.6442 L 195.1053 130.5528 L 182.7996 113.5361 L 166.5372 125.2962 L 178.8429 142.3130 L 182.5248 147.4044 L 155.8599 166.6871 A 10.0000 10.0000 0 0 1 144.1401 166.6871 L 117.4752 147.4044 L 121.1571 142.3130 L 133.4628 125.2962 L 117.2004 113.5361 L 104.8947 130.5528 L 101.2128 135.6442 L 93.7219 130.2271 A 10.0000 10.0000 0 0 1 99.5817 112.1239 L 135.3639 112.1239 L 135.3639 118.4071 L 135.3639 139.4071 L 164.6361 139.4071 L 164.6361 118.4071 L 164.6361 112.1239 L 200.4183 112.1239 A 10.0000 10.0000 0 0 1 206.2781 130.2271 Z" stroke="green" stroke-width="1" fill="none" /><path d="M 67.4826 -107.7654 L 84.1476 -95.7141 L 80.4657 -90.6227 L 68.1600 -73.6060 L 84.4224 -61.8458 L 96.7281 -78.8626 L 100.4099 -83.9540 L 121.7293 -68.5368 A 10.0000 10.0000 0 0 1 121.7293 -52.3304 L 100.4099 -36.9133 L 96.7281 -42.0047 L 84.4224 -59.0215 L 68.1600 -47.2613 L 80.4657 -30.2445 L 84.1476 -25.1531 L 67.4826 -13.1019 A 10.0000 10.0000 0 0 1 51.6228 -21.2051 L 51.6228 -55.7296 L 57.9060 -55.7296 L 78.9060 -55.7296 L 78.9060 -65.1377 L 57.9060 -65.1377 L 51.6228 -65.1377 L 51.6228 -99.6622 A 10.0000 10.0000 0 0 1 67.4826 -107.7654 Z" stroke="green" stroke-width="1" fill="none" /><path d="M 232.5174 -13.1019 L 215.8524 -25.1531 L 219.5343 -30.2445 L 231.8400 -47.2613 L 215.5776 -59.0215 L 203.2719 -42.0047 L 199.5901 -36.9133 L 178.2707 -52.3304 A 10.0000 10.0000 0 0 1 178.2707 -68.5368 L 199.5901 -83.9540 L 203.2719 -78.8626 L 215.5776 -61.8458 L 231.8400 -73.6060 L 219.5343 -90.6227 L 215.8524 -95.7141 L 232.5174 -107.7654 A 10.0000 10.0000 0 0 1 248.3772 -99.6622 L 248.3772 -65.1377 L 242.0940 -65.1377 L 221.0940 -65.1377 L 221.0940 -55.7296 L 242.0940 -55.7296 L 248.3772 -55.7296 L 248.3772 -21.2051 A 10.0000 10.0000 0 0 1 232.5174 -13.1019 Z" stroke="green" stroke-width="1" fill="none" /><path d="M 93.7219 -7.3953 L 101.2128 -12.8124 L 104.8947 -7.7210 L 117.2004 9.2958 L 133.4628 -2.4644 L 121.1571 -19.4811 L 117.4752 -24.5725 L 144.1401 -43.8553 A 10.0000 10.0000 0 0 1 155.8599 -43.8553 L 182.5248 -24.5725 L 178.8429 -19.4811 L 166.5372 -2.4644 L 182.7996 9.2958 L 195.1053 -7.7210 L 198.7872 -12.8124 L 206.2781 -7.3953 A 10.0000 10.0000 0 0 1 200.4183 10.7080 L 164.6361 10.7080 L 164.6361 4.4248 L 164.6361 -16.5752 L 135.3639 -16.5752 L 135.3639 4.4248 L 135.3639 10.7080 L 99.5817 10.7080 A 10.0000 10.0000 0 0 1 93.7219 -7.3953 Z" stroke="green" stroke-width="1" fill="none" /><path d="M 206.2781 -113.4720 L 198.7872 -108.0549 L 195.1053 -113.1463 L 182.7996 -130.1631 L 166.5372 -118.4029 L 178.8429 -101.3861 L 182.5248 -96.2947 L 155.8599 -77.0120 A 10.0000 10.0000 0 0 1 144.1401 -77.0120 L 117.4752 -96.2947 L 121.1571 -101.3861 L 133.4628 -118.4029 L 117.2004 -130.1631 L 104.8947 -113.1463 L 101.2128 -108.0549 L 93.7219 -113.4720 A 10.0000 10.0000 0 0 1 99.5817 -131.5752 L 135.3639 -131.5752 L 135.3639 -125.2920 L 135.3639 -104.2920 L 164.6361 -104.2920 L 164.6361 -125.2920 L 164.6361 -131.5752 L 200.4183 -131.5752 A 10.0000 10.0000 0 0 1 206.2781 -113.4720 Z" stroke="green" stroke-width="1" fill="none" /><circle cx="0.0000" cy="61.4159" r="15.0000" stroke="green" stroke-width="1" fill="none" /><circle cx="300.0000" cy="61.4159" r="15.0000" stroke="green" stroke-width="1" fill="none" /><circle cx="54.7222" cy="61.4159" r="7.5000" stroke="green" stroke-width="1" fill="none" /><circle cx="81.9444" cy="61.4159" r="7.5000" stroke="green" stroke-width="1" fill="none" /><circle cx="109.1667" cy="61.4159" r="7.5000" stroke="green" stroke-width="1" fill="none" /><circle cx="136.3889" cy="61.4159" r="7.5000" stroke="green" stroke-width="1" fill="none" /><circle cx="163.6111" cy="61.4159" r="7.5000" stroke="green" stroke-width="1" fill="none" /><circle cx="190.8333" cy="61.4159" r="7.5000" stroke="green" stroke-width="1" fill="none" /><circle cx="218.0556" cy="61.4159" r="7.5000" stroke="green" stroke-width="1" fill="none" /><circle cx="245.2778" cy="61.4159" r="7.5000" stroke="green" stroke-width="1" fill="none" /><circle cx="0.0000" cy="-182.2832" r="15.0000" stroke="green" stroke-width="1" fill="none" /><circle cx="300.0000" cy="-182.2832" r="15.0000" stroke="green" stroke-width="1" fill="none" /><circle cx="54.7222" cy="-182.2832" r="7.5000" stroke="green" stroke-width="1" fill="none" /><circle cx="81.9444" cy="-182.2832" r="7.5000" stroke="green" stroke-width="1" fill="none" /><circle cx="109.1667" cy="-182.2832" r="7.5000" stroke="green" stroke-width="1" fill="none" /><circle cx="136.3889" cy="-182.2832" r="7.5000" stroke="green" stroke-width="1" fill="none" /><circle cx="163.6111" cy="-182.2832" r="7.5000" stroke="green" stroke-width="1" fill="none" /><circle cx="190.8333" cy="-182.2832" r="7.5000" stroke="green" stroke-width="1" fill="none" /><circle cx="218.0556" cy="-182.2832" r="7.5000" stroke="green" stroke-width="1" fill="none" /><circle cx="245.2778" cy="-182.2832" r="7.5000" stroke="green" stroke-width="1" fill="none" /><circle cx="0.9148" cy="143.9655" r="7.5000" stroke="green" stroke-width="1" fill="none" /><circle cx="0.9148" cy="170.1655" r="7.5000" stroke="green" stroke-width="1" fill="none" /><circle cx="0.9148" cy="196.3655" r="7.5000" stroke="green" stroke-width="1" fill="none" /><circle cx="0.9148" cy="222.5655" r="7.5000" stroke="green" stroke-width="1" fill="none" /><circle cx="299.0852" cy="222.5655" r="7.5000" stroke="green" stroke-width="1" fill="none" /><circle cx="299.0852" cy="196.3655" r="7.5000" stroke="green" stroke-width="1" fill="none" /><circle cx="299.0852" cy="170.1655" r="7.5000" stroke="green" stroke-width="1" fill="none" /><circle cx="299.0852" cy="143.9655" r="7.5000" stroke="green" stroke-width="1" fill="none" /><path d="M 148.0000 90.1239 A 2.0000 2.0000 0 0 0 152.0000 90.1239 L 152.0000 78.4159 A 2.0000 2.0000 0 0 0 148.0000 78.4159 L 148.0000 90.1239 Z" stroke="green" stroke-width="1" fill="none" /><path d="M 148.0000 44.4159 A 2.0000 2.0000 0 0 0 152.0000 44.4159 L 152.0000 32.7080 A 2.0000 2.0000 0 0 0 148.0000 32.7080 L 148.0000 44.4159 Z" stroke="green" stroke-width="1" fill="none" /><path d="M 17.9148 181.2655 A 2.0000 2.0000 0 0 0 17.9148 185.2655 L 29.6228 185.2655 A 2.0000 2.0000 0 0 0 29.6228 181.2655 L 17.9148 181.2655 Z" stroke="green" stroke-width="1" fill="none" /><path d="M 282.0852 185.2655 A 2.0000 2.0000 0 0 0 282.0852 181.2655 L 270.3772 181.2655 A 2.0000 2.0000 0 0 0 270.3772 185.2655 L 282.0852 185.2655 Z" stroke="green" stroke-width="1" fill="none" /><path d="M 53.6228 181.2655 A 2.0000 2.0000 0 0 0 53.6228 185.2655 L 55.9060 185.2655 A 2.0000 2.0000 0 0 0 55.9060 181.2655 L 53.6228 181.2655 Z" stroke="green" stroke-width="1" fill="none" /><path d="M 89.4861 212.2172 A 2.0000 2.0000 0 1 0 92.7274 209.8733 L 91.3895 208.0232 A 2.0000 2.0000 0 1 0 88.1482 210.3671 L 89.4861 212.2172 Z" stroke="green" stroke-width="1" fill="none" /><path d="M 92.7274 156.6577 A 2.0000 2.0000 0 0 0 89.4861 154.3137 L 88.1482 156.1639 A 2.0000 2.0000 0 0 0 91.3895 158.5078 L 92.7274 156.6577 Z" stroke="green" stroke-width="1" fill="none" /><path d="M 246.3772 185.2655 A 2.0000 2.0000 0 0 0 246.3772 181.2655 L 244.0940 181.2655 A 2.0000 2.0000 0 0 0 244.0940 185.2655 L 246.3772 185.2655 Z" stroke="green" stroke-width="1" fill="none" /><path d="M 210.5139 154.3137 A 2.0000 2.0000 0 1 0 207.2726 156.6577 L 208.6105 158.5078 A 2.0000 2.0000 0 1 0 211.8518 156.1639 L 210.5139 154.3137 Z" stroke="green" stroke-width="1" fill="none" /><path d="M 207.2726 209.8733 A 2.0000 2.0000 0 0 0 210.5139 212.2172 L 211.8518 210.3671 A 2.0000 2.0000 0 1 0 208.6105 208.0232 L 207.2726 209.8733 Z" stroke="green" stroke-width="1" fill="none" /><path d="M 148.0000 252.4071 A 2.0000 2.0000 0 0 0 152.0000 252.4071 L 152.0000 250.1239 A 2.0000 2.0000 0 0 0 148.0000 250.1239 L 148.0000 252.4071 Z" stroke="green" stroke-width="1" fill="none" /><path d="M 191.1046 227.7993 A 2.0000 2.0000 0 0 0 187.8634 225.4553 L 186.5254 227.3055 A 2.0000 2.0000 0 1 0 189.7667 229.6494 L 191.1046 227.7993 Z" stroke="green" stroke-width="1" fill="none" /><path d="M 112.1366 225.4553 A 2.0000 2.0000 0 1 0 108.8954 227.7993 L 110.2333 229.6494 A 2.0000 2.0000 0 1 0 113.4746 227.3055 L 112.1366 225.4553 Z" stroke="green" stroke-width="1" fill="none" /><path d="M 152.0000 114.1239 A 2.0000 2.0000 0 0 0 148.0000 114.1239 L 148.0000 116.4071 A 2.0000 2.0000 0 0 0 152.0000 116.4071 L 152.0000 114.1239 Z" stroke="green" stroke-width="1" fill="none" /><path d="M 108.8954 138.7317 A 2.0000 2.0000 0 0 0 112.1366 141.0756 L 113.4746 139.2255 A 2.0000 2.0000 0 1 0 110.2333 136.8816 L 108.8954 138.7317 Z" stroke="green" stroke-width="1" fill="none" /><path d="M 187.8634 141.0756 A 2.0000 2.0000 0 0 0 191.1046 138.7317 L 189.7667 136.8816 A 2.0000 2.0000 0 1 0 186.5254 139.2255 L 187.8634 141.0756 Z" stroke="green" stroke-width="1" fill="none" /><path d="M 17.9148 -62.4336 A 2.0000 2.0000 0 0 0 17.9148 -58.4336 L 29.6228 -58.4336 A 2.0000 2.0000 0 0 0 29.6228 -62.4336 L 17.9148 -62.4336 Z" stroke="green" stroke-width="1" fill="none" /><path d="M 282.0852 -58.4336 A 2.0000 2.0000 0 0 0 282.0852 -62.4336 L 270.3772 -62.4336 A 2.0000 2.0000 0 0 0 270.3772 -58.4336 L 282.0852 -58.4336 Z" stroke="green" stroke-width="1" fill="none" /><path d="M 148.0000 -153.5752 A 2.0000 2.0000 0 0 0 152.0000 -153.5752 L 152.0000 -165.2832 A 2.0000 2.0000 0 0 0 148.0000 -165.2832 L 148.0000 -153.5752 Z" stroke="green" stroke-width="1" fill="none" /><path d="M 53.6228 -62.4336 A 2.0000 2.0000 0 0 0 53.6228 -58.4336 L 55.9060 -58.4336 A 2.0000 2.0000 0 0 0 55.9060 -62.4336 L 53.6228 -62.4336 Z" stroke="green" stroke-width="1" fill="none" /><path d="M 89.4861 -31.4819 A 2.0000 2.0000 0 0 0 92.7274 -33.8258 L 91.3895 -35.6759 A 2.0000 2.0000 0 1 0 88.1482 -33.3320 L 89.4861 -31.4819 Z" stroke="green" stroke-width="1" fill="none" /><path d="M 92.7274 -87.0414 A 2.0000 2.0000 0 0 0 89.4861 -89.3854 L 88.1482 -87.5352 A 2.0000 2.0000 0 0 0 91.3895 -85.1913 L 92.7274 -87.0414 Z" stroke="green" stroke-width="1" fill="none" /><path d="M 246.3772 -58.4336 A 2.0000 2.0000 0 0 0 246.3772 -62.4336 L 244.0940 -62.4336 A 2.0000 2.0000 0 0 0 244.0940 -58.4336 L 246.3772 -58.4336 Z" stroke="green" stroke-width="1" fill="none" /><path d="M 210.5139 -89.3854 A 2.0000 2.0000 0 0 0 207.2726 -87.0414 L 208.6105 -85.1913 A 2.0000 2.0000 0 1 0 211.8518 -87.5352 L 210.5139 -89.3854 Z" stroke="green" stroke-width="1" fill="none" /><path d="M 207.2726 -33.8258 A 2.0000 2.0000 0 1 0 210.5139 -31.4819 L 211.8518 -33.3320 A 2.0000 2.0000 0 1 0 208.6105 -35.6759 L 207.2726 -33.8258 Z" stroke="green" stroke-width="1" fill="none" /><path d="M 148.0000 8.7080 A 2.0000 2.0000 0 0 0 152.0000 8.7080 L 152.0000 6.4248 A 2.0000 2.0000 0 0 0 148.0000 6.4248 L 148.0000 8.7080 Z" stroke="green" stroke-width="1" fill="none" /><path d="M 191.1046 -15.8998 A 2.0000 2.0000 0 0 0 187.8634 -18.2438 L 186.5254 -16.3937 A 2.0000 2.0000 0 1 0 189.7667 -14.0497 L 191.1046 -15.8998 Z" stroke="green" stroke-width="1" fill="none" /><path d="M 112.1366 -18.2438 A 2.0000 2.0000 0 1 0 108.8954 -15.8998 L 110.2333 -14.0497 A 2.0000 2.0000 0 1 0 113.4746 -16.3937 L 112.1366 -18.2438 Z" stroke="green" stroke-width="1" fill="none" /><path d="M 152.0000 -129.5752 A 2.0000 2.0000 0 0 0 148.0000 -129.5752 L 148.0000 -127.2920 A 2.0000 2.0000 0 0 0 152.0000 -127.2920 L 152.0000 -129.5752 Z" stroke="green" stroke-width="1" fill="none" /><path d="M 108.8954 -104.9674 A 2.0000 2.0000 0 1 0 112.1366 -102.6235 L 113.4746 -104.4736 A 2.0000 2.0000 0 1 0 110.2333 -106.8175 L 108.8954 -104.9674 Z" stroke="green" stroke-width="1" fill="none" /><path d="M 187.8634 -102.6235 A 2.0000 2.0000 0 0 0 191.1046 -104.9674 L 189.7667 -106.8175 A 2.0000 2.0000 0 1 0 186.5254 -104.4736 L 187.8634 -102.6235 Z" stroke="green" stroke-width="1" fill="none" /><path d="M 148.0000 -199.2832 A 2.0000 2.0000 0 0 0 152.0000 -199.2832 L 152.0000 -210.9911 A 2.0000 2.0000 0 0 0 148.0000 -210.9911 L 148.0000 -199.2832 Z" stroke="green" stroke-width="1" fill="none" /></svg>