<svg width="427" height="235" viewBox="-32 -12 427 235" xmlns="http://www.w3.org/2000/svg"><path d="M 0.0000 204.2832 L 30.0000 204.2832 L 30.0000 202.2832 L 0.0000 202.2832 L 0.0000 204.2832 Z" stroke="green" stroke-width="1" fill="none" /><path d="M 30.0000 204.2832 A 11.0000 11.0000 0 0 0 41.0000 193.2832 L 39.0000 193.2832 A 9.0000 9.0000 0 0 1 30.0000 202.2832 L 30.0000 204.2832 Z" stroke="green" stroke-width="1" fill="none" /><path d="M 0.0000 202.2832 A 9.0000 9.0000 0 0 1 -9.0000 193.2832 L -11.0000 193.2832 A 11.0000 11.0000 0 0 0 -0.0000 204.2832 L 0.0000 202.2832 Z" stroke="green" stroke-width="1" fill="none" /><path d="M -9.0000 193.2832 L -9.0000 11.0000 L -11.0000 11.0000 L -11.0000 193.2832 L -9.0000 193.2832 Z" stroke="green" stroke-width="1" fill="none" /><path d="M -9.0000 11.0000 A 9.0000 9.0000 0 0 1 0.0000 2.0000 L 0.0000 0.0000 A 11.0000 11.0000 0 0 0 -11.0000 11.0000 L -9.0000 11.0000 Z" stroke="green" stroke-width="1" fill="none" /><path d="M 0.0000 2.0000 L 30.0000 2.0000 L 30.0000 0.0000 L 0.0000 0.0000 L 0.0000 2.0000 Z" stroke="green" stroke-width="1" fill="none" /><path d="M 30.0000 2.0000 A 9.0000 9.0000 0 0 1 39.0000 11.0000 L 41.0000 11.0000 A 11.0000 11.0000 0 0 0 30.0000 0.0000 L 30.0000 2.0000 Z" stroke="green" stroke-width="1" fill="none" /><path d="M 39.0000 11.0000 L 39.0000 193.2832 L 41.0000 193.2832 L 41.0000 11.0000 L 39.0000 11.0000 Z" stroke="green" stroke-width="1" fill="none" /><path d="M 120.0000 204.2832 L 356.7544 204.2832 L 356.7544 202.2832 L 120.0000 202.2832 L 120.0000 204.2832 Z" stroke="green" stroke-width="1" fill="none" /><path d="M 356.7544 204.2832 A 11.0000 11.0000 0 0 0 367.7544 193.2832 L 365.7544 193.2832 A 9.0000 9.0000 0 0 1 356.7544 202.2832 L 356.7544 204.2832 Z" stroke="green" stroke-width="1" fill="none" /><path d="M 367.7544 193.2832 L 367.7544 163.2832 L 365.7544 163.2832 L 365.7544 193.2832 L 367.7544 193.2832 Z" stroke="green" stroke-width="1" fill="none" /><path d="M 367.7544 163.2832 A 11.0000 11.0000 0 0 0 356.7544 152.2832 L 356.7544 154.2832 A 9.0000 9.0000 0 0 1 365.7544 163.2832 L 367.7544 163.2832 Z" stroke="green" stroke-width="1" fill="none" /><path d="M 120.0000 202.2832 A 9.0000 9.0000 0 0 1 111.0000 193.2832 L 109.0000 193.2832 A 11.0000 11.0000 0 0 0 120.0000 204.2832 L 120.0000 202.2832 Z" stroke="green" stroke-width="1" fill="none" /><path d="M 111.0000 193.2832 L 111.0000 163.2832 L 109.0000 163.2832 L 109.0000 193.2832 L 111.0000 193.2832 Z" stroke="green" stroke-width="1" fill="none" /><path d="M 111.0000 163.2832 A 9.0000 9.0000 0 0 1 120.0000 154.2832 L 120.0000 152.2832 A 11.0000 11.0000 0 0 0 109.0000 163.2832 L 111.0000 163.2832 Z" stroke="green" stroke-width="1" fill="none" /><path d="M 120.0000 154.2832 L 356.7544 154.2832 L 356.7544 152.2832 L 120.0000 152.2832 L 120.0000 154.2832 Z" stroke="green" stroke-width="1" fill="none" /></svg>