<svg width="230" height="1231" viewBox="-436 8 230 1231" xmlns="http://www.w3.org/2000/svg"><path d="M -334.9067 1000.0000 A 90.0000 90.0000 0 0 0 -334.9067 1180.0000 L -224.9067 1180.0000 L -224.9067 1000.0000 L -334.9067 1000.0000 Z" stroke="green" stroke-width="1" fill="none" /><circle cx="-334.9067" cy="1090.0000" r="20.0000" stroke="green" stroke-width="1" fill="none" /><path d="M -334.9067 690.0000 A 90.0000 90.0000 0 0 0 -334.9067 870.0000 L -224.9067 870.0000 L -224.9067 690.0000 L -334.9067 690.0000 Z" stroke="green" stroke-width="1" fill="none" /><circle cx="-334.9067" cy="780.0000" r="20.0000" stroke="green" stroke-width="1" fill="none" /><path d="M -334.9067 380.0000 A 90.0000 90.0000 0 0 0 -334.9067 560.0000 L -224.9067 560.0000 L -224.9067 380.0000 L -334.9067 380.0000 Z" stroke="green" stroke-width="1" fill="none" /><circle cx="-334.9067" cy="470.0000" r="20.0000" stroke="green" stroke-width="1" fill="none" /><path d="M -334.9067 70.0000 A 90.0000 90.0000 0 0 0 -334.9067 250.0000 L -224.9067 250.0000 L -224.9067 70.0000 L -334.9067 70.0000 Z" stroke="green" stroke-width="1" fill="none" /><circle cx="-334.9067" cy="160.0000" r="20.0000" stroke="green" stroke-width="1" fill="none" /></svg>