<svg width="473" height="276" viewBox="-234 -103 473 276" xmlns="http://www.w3.org/2000/svg"><path d="M 99.7756 40.5945 A 20.0000 20.0000 0 1 0 80.4920 63.5758 L 175.1310 142.9874 A 20.0000 20.0000 0 1 0 194.4147 120.0061 L 99.7756 40.5945 Z" stroke="green" stroke-width="1" fill="none" /><circle cx="80.0000" cy="43.5819" r="10.0000" stroke="green" stroke-width="1" fill="none" /><circle cx="194.9067" cy="140.0000" r="10.0000" stroke="green" stroke-width="1" fill="none" /><path d="M 99.7756 -79.4055 A 20.0000 20.0000 0 1 0 80.4920 -56.4242 L 175.1310 22.9874 A 20.0000 20.0000 0 1 0 194.4147 0.0061 L 99.7756 -79.4055 Z" stroke="green" stroke-width="1" fill="none" /><circle cx="80.0000" cy="-76.4181" r="10.0000" stroke="green" stroke-width="1" fill="none" /><circle cx="194.9067" cy="20.0000" r="10.0000" stroke="green" stroke-width="1" fill="none" /><path d="M -80.4920 63.5758 A 20.0000 20.0000 0 1 0 -99.7756 40.5945 L -194.4147 120.0061 A 20.0000 20.0000 0 1 0 -175.1310 142.9874 L -80.4920 63.5758 Z" stroke="green" stroke-width="1" fill="none" /><circle cx="-80.0000" cy="43.5819" r="10.0000" stroke="green" stroke-width="1" fill="none" /><circle cx="-194.9067" cy="140.0000" r="10.0000" stroke="green" stroke-width="1" fill="none" /><path d="M -80.4920 -56.4242 A 20.0000 20.0000 0 1 0 -99.7756 -79.4055 L -194.4147 0.0061 A 20.0000 20.0000 0 1 0 -175.1310 22.9874 L -80.4920 -56.4242 Z" stroke="green" stroke-width="1" fill="none" /><circle cx="-80.0000" cy="-76.4181" r="10.0000" stroke="green" stroke-width="1" fill="none" /><circle cx="-194.9067" cy="20.0000" r="10.0000" stroke="green" stroke-width="1" fill="none" /></svg>