<svg width="527" height="186" viewBox="-261 -106 527 186" xmlns="http://www.w3.org/2000/svg"><path d="M 234.9067 63.5819 L 194.9067 63.5819 A 20.0000 20.0000 0 0 1 194.9067 23.5819 L 224.9067 23.5819 L 224.9067 -56.4181 L 194.9067 -56.4181 A 20.0000 20.0000 0 0 1 194.9067 -96.4181 L 234.9067 -96.4181 L 234.9067 63.5819 Z" stroke="green" stroke-width="1" fill="none" /><circle cx="194.9067" cy="43.5819" r="10.0000" stroke="green" stroke-width="1" fill="none" /><circle cx="194.9067" cy="-76.4181" r="10.0000" stroke="green" stroke-width="1" fill="none" /><path d="M -234.9067 63.5819 L -194.9067 63.5819 A 20.0000 20.0000 0 0 0 -194.9067 23.5819 L -224.9067 23.5819 L -224.9067 -56.4181 L -194.9067 -56.4181 A 20.0000 20.0000 0 0 0 -194.9067 -96.4181 L -234.9067 -96.4181 L -234.9067 63.5819 Z" stroke="green" stroke-width="1" fill="none" /><circle cx="-194.9067" cy="43.5819" r="10.0000" stroke="green" stroke-width="1" fill="none" /><circle cx="-194.9067" cy="-76.4181" r="10.0000" stroke="green" stroke-width="1" fill="none" /></svg>