0
SECTION
2
ENTITIES
0
LINE
8
PARAMETRIX
10
0.0000
20
0.0000
11
20.0000
21
0.0000
0
LINE
8
PARAMETRIX
10
20.0000
20
0.0000
11
20.0000
21
1.0000
0
LINE
8
PARAMETRIX
10
20.0000
20
1.0000
11
0.0000
21
1.0000
0
LINE
8
PARAMETRIX
10
0.0000
20
1.0000
11
0.0000
21
0.0000
0
ARC
8
PARAMETRIX
10
20.0000
20
2.5000
40
2.5000
50
270.0000
51
0.0000
0
LINE
8
PARAMETRIX
10
22.5000
20
2.5000
11
21.5000
21
2.5000
0
ARC
8
PARAMETRIX
10
20.0000
20
2.5000
40
1.5000
50
270.0000
51
360.0000
0
LINE
8
PARAMETRIX
10
20.0000
20
1.0000
11
20.0000
21
0.0000
0
LINE
8
PARAMETRIX
10
22.5000
20
2.5000
11
22.5000
21
37.5000
0
LINE
8
PARAMETRIX
10
22.5000
20
37.5000
11
21.5000
21
37.5000
0
LINE
8
PARAMETRIX
10
21.5000
20
37.5000
11
21.5000
21
2.5000
0
LINE
8
PARAMETRIX
10
21.5000
20
2.5000
11
22.5000
21
2.5000
0
ARC
8
PARAMETRIX
10
0.0000
20
2.5000
40
1.5000
50
180.0000
51
270.0000
0
LINE
8
PARAMETRIX
10
-1.5000
20
2.5000
11
-2.5000
21
2.5000
0
ARC
8
PARAMETRIX
10
0.0000
20
2.5000
40
2.5000
50
180.0000
51
270.0000
0
LINE
8
PARAMETRIX
10
-0.0000
20
0.0000
11
0.0000
21
1.0000
0
LINE
8
PARAMETRIX
10
-1.5000
20
2.5000
11
-1.5000
21
37.5000
0
LINE
8
PARAMETRIX
10
-1.5000
20
37.5000
11
-2.5000
21
37.5000
0
LINE
8
PARAMETRIX
10
-2.5000
20
37.5000
11
-2.5000
21
2.5000
0
LINE
8
PARAMETRIX
10
-2.5000
20
2.5000
11
-1.5000
21
2.5000
0
LINE
8
PARAMETRIX
10
0.0000
20
55.0000
11
90.0000
21
55.0000
0
LINE
8
PARAMETRIX
10
90.0000
20
55.0000
11
90.0000
21
56.0000
0
LINE
8
PARAMETRIX
10
90.0000
20
56.0000
11
0.0000
21
56.0000
0
LINE
8
PARAMETRIX
10
0.0000
20
56.0000
11
0.0000
21
55.0000
0
ARC
8
PARAMETRIX
10
90.0000
20
57.5000
40
2.5000
50
270.0000
51
0.0000
0
LINE
8
PARAMETRIX
10
92.5000
20
57.5000
11
91.5000
21
57.5000
0
ARC
8
PARAMETRIX
10
90.0000
20
57.5000
40
1.5000
50
270.0000
51
0.0000
0
LINE
8
PARAMETRIX
10
90.0000
20
56.0000
11
90.0000
21
55.0000
0
LINE
8
PARAMETRIX
10
92.5000
20
57.5000
11
92.5000
21
67.5000
0
LINE
8
PARAMETRIX
10
92.5000
20
67.5000
11
91.5000
21
67.5000
0
LINE
8
PARAMETRIX
10
91.5000
20
67.5000
11
91.5000
21
57.5000
0
LINE
8
PARAMETRIX
10
91.5000
20
57.5000
11
92.5000
21
57.5000
0
ARC
8
PARAMETRIX
10
0.0000
20
57.5000
40
1.5000
50
180.0000
51
270.0000
0
LINE
8
PARAMETRIX
10
-1.5000
20
57.5000
11
-2.5000
21
57.5000
0
ARC
8
PARAMETRIX
10
0.0000
20
57.5000
40
2.5000
50
180.0000
51
270.0000
0
LINE
8
PARAMETRIX
10
-0.0000
20
55.0000
11
0.0000
21
56.0000
0
LINE
8
PARAMETRIX
10
-1.5000
20
57.5000
11
-1.5000
21
67.5000
0
LINE
8
PARAMETRIX
10
-1.5000
20
67.5000
11
-2.5000
21
67.5000
0
LINE
8
PARAMETRIX
10
-2.5000
20
67.5000
11
-2.5000
21
57.5000
0
LINE
8
PARAMETRIX
10
-2.5000
20
57.5000
11
-1.5000
21
57.5000
0
ENDSEC
0
EOF
