<svg width="69" height="51" viewBox="-5 -3 69 51" xmlns="http://www.w3.org/2000/svg"><path d="M 0.0000 37.5000 L 50.0000 37.5000 L 50.0000 35.0000 L 52.0000 35.0000 L 52.0000 31.4286 A 5.0000 5.0000 0 0 0 51.2453 28.7871 L 37.7358 7.0755 A 15.0000 15.0000 0 0 0 12.2642 7.0755 L -1.2453 28.7871 A 5.0000 5.0000 0 0 0 -2.0000 31.4286 L -2.0000 35.0000 L 0.0000 35.0000 L 0.0000 37.5000 Z" stroke="green" stroke-width="1" fill="none" /><circle cx="25.0000" cy="15.0000" r="8.0000" stroke="green" stroke-width="1" fill="none" /><path d="M -1.0500 33.0000 L 6.0500 33.0000 A 0.4500 0.4500 0 0 0 6.5000 32.5500 L 6.5000 32.4500 A 0.4500 0.4500 0 0 0 6.0500 32.0000 L -1.0500 32.0000 A 0.4500 0.4500 0 0 0 -1.5000 32.4500 L -1.5000 32.5500 A 0.4500 0.4500 0 0 0 -1.0500 33.0000 Z" stroke="green" stroke-width="1" fill="none" /><path d="M 7.9500 33.0000 L 24.0500 33.0000 A 0.4500 0.4500 0 0 0 24.5000 32.5500 L 24.5000 32.4500 A 0.4500 0.4500 0 0 0 24.0500 32.0000 L 7.9500 32.0000 A 0.4500 0.4500 0 0 0 7.5000 32.4500 L 7.5000 32.5500 A 0.4500 0.4500 0 0 0 7.9500 33.0000 Z" stroke="green" stroke-width="1" fill="none" /><path d="M 25.9500 33.0000 L 42.0500 33.0000 A 0.4500 0.4500 0 0 0 42.5000 32.5500 L 42.5000 32.4500 A 0.4500 0.4500 0 0 0 42.0500 32.0000 L 25.9500 32.0000 A 0.4500 0.4500 0 0 0 25.5000 32.4500 L 25.5000 32.5500 A 0.4500 0.4500 0 0 0 25.9500 33.0000 Z" stroke="green" stroke-width="1" fill="none" /><path d="M 43.9500 33.0000 L 51.0500 33.0000 A 0.4500 0.4500 0 0 0 51.5000 32.5500 L 51.5000 32.4500 A 0.4500 0.4500 0 0 0 51.0500 32.0000 L 43.9500 32.0000 A 0.4500 0.4500 0 0 0 43.5000 32.4500 L 43.5000 32.5500 A 0.4500 0.4500 0 0 0 43.9500 33.0000 Z" stroke="green" stroke-width="1" fill="none" /><path d="M -1.0500 31.0000 L 15.0500 31.0000 A 0.4500 0.4500 0 0 0 15.5000 30.5500 L 15.5000 30.4500 A 0.4500 0.4500 0 0 0 15.0500 30.0000 L -1.0500 30.0000 A 0.4500 0.4500 0 0 0 -1.5000 30.4500 L -1.5000 30.5500 A 0.4500 0.4500 0 0 0 -1.0500 31.0000 Z" stroke="green" stroke-width="1" fill="none" /><path d="M 16.9500 31.0000 L 33.0500 31.0000 A 0.4500 0.4500 0 0 0 33.5000 30.5500 L 33.5000 30.4500 A 0.4500 0.4500 0 0 0 33.0500 30.0000 L 16.9500 30.0000 A 0.4500 0.4500 0 0 0 16.5000 30.4500 L 16.5000 30.5500 A 0.4500 0.4500 0 0 0 16.9500 31.0000 Z" stroke="green" stroke-width="1" fill="none" /><path d="M 34.9500 31.0000 L 51.0500 31.0000 A 0.4500 0.4500 0 0 0 51.5000 30.5500 L 51.5000 30.4500 A 0.4500 0.4500 0 0 0 51.0500 30.0000 L 34.9500 30.0000 A 0.4500 0.4500 0 0 0 34.5000 30.4500 L 34.5000 30.5500 A 0.4500 0.4500 0 0 0 34.9500 31.0000 Z" stroke="green" stroke-width="1" fill="none" /><path d="M -0.1167 29.0000 L 6.6722 29.0000 A 0.4500 0.4500 0 0 0 7.1222 28.5500 L 7.1222 28.4500 A 0.4500 0.4500 0 0 0 6.6722 28.0000 L -0.1167 28.0000 A 0.4500 0.4500 0 0 0 -0.5667 28.4500 L -0.5667 28.5500 A 0.4500 0.4500 0 0 0 -0.1167 29.0000 Z" stroke="green" stroke-width="1" fill="none" /><path d="M 8.5722 29.0000 L 24.0500 29.0000 A 0.4500 0.4500 0 0 0 24.5000 28.5500 L 24.5000 28.4500 A 0.4500 0.4500 0 0 0 24.0500 28.0000 L 8.5722 28.0000 A 0.4500 0.4500 0 0 0 8.1222 28.4500 L 8.1222 28.5500 A 0.4500 0.4500 0 0 0 8.5722 29.0000 Z" stroke="green" stroke-width="1" fill="none" /><path d="M 25.9500 29.0000 L 41.4278 29.0000 A 0.4500 0.4500 0 0 0 41.8778 28.5500 L 41.8778 28.4500 A 0.4500 0.4500 0 0 0 41.4278 28.0000 L 25.9500 28.0000 A 0.4500 0.4500 0 0 0 25.5000 28.4500 L 25.5000 28.5500 A 0.4500 0.4500 0 0 0 25.9500 29.0000 Z" stroke="green" stroke-width="1" fill="none" /><path d="M 43.3278 29.0000 L 50.1167 29.0000 A 0.4500 0.4500 0 0 0 50.5667 28.5500 L 50.5667 28.4500 A 0.4500 0.4500 0 0 0 50.1167 28.0000 L 43.3278 28.0000 A 0.4500 0.4500 0 0 0 42.8778 28.4500 L 42.8778 28.5500 A 0.4500 0.4500 0 0 0 43.3278 29.0000 Z" stroke="green" stroke-width="1" fill="none" /><path d="M 1.1278 27.0000 L 15.7759 27.0000 A 0.4500 0.4500 0 0 0 16.2259 26.5500 L 16.2259 26.4500 A 0.4500 0.4500 0 0 0 15.7759 26.0000 L 1.1278 26.0000 A 0.4500 0.4500 0 0 0 0.6778 26.4500 L 0.6778 26.5500 A 0.4500 0.4500 0 0 0 1.1278 27.0000 Z" stroke="green" stroke-width="1" fill="none" /><path d="M 17.6759 27.0000 L 32.3241 27.0000 A 0.4500 0.4500 0 0 0 32.7741 26.5500 L 32.7741 26.4500 A 0.4500 0.4500 0 0 0 32.3241 26.0000 L 17.6759 26.0000 A 0.4500 0.4500 0 0 0 17.2259 26.4500 L 17.2259 26.5500 A 0.4500 0.4500 0 0 0 17.6759 27.0000 Z" stroke="green" stroke-width="1" fill="none" /><path d="M 34.2241 27.0000 L 48.8722 27.0000 A 0.4500 0.4500 0 0 0 49.3222 26.5500 L 49.3222 26.4500 A 0.4500 0.4500 0 0 0 48.8722 26.0000 L 34.2241 26.0000 A 0.4500 0.4500 0 0 0 33.7741 26.4500 L 33.7741 26.5500 A 0.4500 0.4500 0 0 0 34.2241 27.0000 Z" stroke="green" stroke-width="1" fill="none" /></svg>