0
SECTION
2
ENTITIES
0
LINE
8
PARAMETRIX
10
0.0000
20
0.0000
11
19.0000
21
0.0000
0
LINE
8
PARAMETRIX
10
19.0000
20
0.0000
11
19.0000
21
14.5000
0
ARC
8
PARAMETRIX
10
19.5000
20
14.5000
40
0.5000
50
90.0000
51
180.0000
0
LINE
8
PARAMETRIX
10
19.5000
20
15.0000
11
20.0000
21
15.0000
0
LINE
8
PARAMETRIX
10
20.0000
20
15.0000
11
20.0000
21
11.8584
0
LINE
8
PARAMETRIX
10
20.0000
20
11.8584
11
20.0000
21
8.1084
0
ARC
8
PARAMETRIX
10
25.0000
20
8.1084
40
5.0000
50
180.0000
51
208.0725
0
LINE
8
PARAMETRIX
10
20.5882
20
5.7555
11
31.7647
21
-15.2004
0
ARC
8
PARAMETRIX
10
45.0000
20
-8.1416
40
15.0000
50
208.0725
51
331.9275
0
LINE
8
PARAMETRIX
10
58.2353
20
-15.2004
11
69.4118
21
5.7555
0
ARC
8
PARAMETRIX
10
65.0000
20
8.1084
40
5.0000
50
331.9275
51
360.0000
0
LINE
8
PARAMETRIX
10
70.0000
20
8.1084
11
70.0000
21
11.8584
0
LINE
8
PARAMETRIX
10
70.0000
20
11.8584
11
70.0000
21
15.0000
0
LINE
8
PARAMETRIX
10
70.0000
20
15.0000
11
70.5000
21
15.0000
0
ARC
8
PARAMETRIX
10
70.5000
20
14.5000
40
0.5000
50
0.0000
51
90.0000
0
LINE
8
PARAMETRIX
10
71.0000
20
14.5000
11
71.0000
21
0.0000
0
LINE
8
PARAMETRIX
10
71.0000
20
0.0000
11
90.0000
21
0.0000
0
LINE
8
PARAMETRIX
10
90.0000
20
0.0000
11
93.1416
21
0.0000
0
LINE
8
PARAMETRIX
10
93.1416
20
0.0000
11
98.1416
21
0.0000
0
ARC
8
PARAMETRIX
10
98.1416
20
5.0000
40
5.0000
50
270.0000
51
0.0000
0
LINE
8
PARAMETRIX
10
103.1416
20
5.0000
11
103.1416
21
45.0000
0
ARC
8
PARAMETRIX
10
98.1416
20
45.0000
40
5.0000
50
0.0000
51
90.0000
0
LINE
8
PARAMETRIX
10
98.1416
20
50.0000
11
93.1416
21
50.0000
0
LINE
8
PARAMETRIX
10
93.1416
20
50.0000
11
90.0000
21
50.0000
0
LINE
8
PARAMETRIX
10
90.0000
20
50.0000
11
71.0000
21
50.0000
0
LINE
8
PARAMETRIX
10
71.0000
20
50.0000
11
71.0000
21
35.5000
0
ARC
8
PARAMETRIX
10
70.5000
20
35.5000
40
0.5000
50
270.0000
51
0.0000
0
LINE
8
PARAMETRIX
10
70.5000
20
35.0000
11
70.0000
21
35.0000
0
LINE
8
PARAMETRIX
10
70.0000
20
35.0000
11
70.0000
21
38.1416
0
LINE
8
PARAMETRIX
10
70.0000
20
38.1416
11
70.0000
21
41.8916
0
ARC
8
PARAMETRIX
10
65.0000
20
41.8916
40
5.0000
50
0.0000
51
28.0725
0
LINE
8
PARAMETRIX
10
69.4118
20
44.2445
11
58.2353
21
65.2004
0
ARC
8
PARAMETRIX
10
45.0000
20
58.1416
40
15.0000
50
28.0725
51
151.9275
0
LINE
8
PARAMETRIX
10
31.7647
20
65.2004
11
20.5882
21
44.2445
0
ARC
8
PARAMETRIX
10
25.0000
20
41.8916
40
5.0000
50
151.9275
51
180.0000
0
LINE
8
PARAMETRIX
10
20.0000
20
41.8916
11
20.0000
21
38.1416
0
LINE
8
PARAMETRIX
10
20.0000
20
38.1416
11
20.0000
21
35.0000
0
LINE
8
PARAMETRIX
10
20.0000
20
35.0000
11
19.5000
21
35.0000
0
ARC
8
PARAMETRIX
10
19.5000
20
35.5000
40
0.5000
50
180.0000
51
270.0000
0
LINE
8
PARAMETRIX
10
19.0000
20
35.5000
11
19.0000
21
50.0000
0
LINE
8
PARAMETRIX
10
19.0000
20
50.0000
11
0.0000
21
50.0000
0
LINE
8
PARAMETRIX
10
0.0000
20
50.0000
11
-3.1416
21
50.0000
0
LINE
8
PARAMETRIX
10
-3.1416
20
50.0000
11
-8.1416
21
50.0000
0
ARC
8
PARAMETRIX
10
-8.1416
20
45.0000
40
5.0000
50
90.0000
51
180.0000
0
LINE
8
PARAMETRIX
10
-13.1416
20
45.0000
11
-13.1416
21
5.0000
0
ARC
8
PARAMETRIX
10
-8.1416
20
5.0000
40
5.0000
50
180.0000
51
270.0000
0
LINE
8
PARAMETRIX
10
-8.1416
20
-0.0000
11
-3.1416
21
0.0000
0
LINE
8
PARAMETRIX
10
-3.1416
20
0.0000
11
0.0000
21
0.0000
0
LINE
8
PARAMETRIX
10
0.0000
20
0.0000
11
19.0000
21
0.0000
0
LINE
8
PARAMETRIX
10
19.0000
20
0.0000
11
19.0000
21
14.5000
0
ARC
8
PARAMETRIX
10
19.5000
20
14.5000
40
0.5000
50
90.0000
51
180.0000
0
LINE
8
PARAMETRIX
10
19.5000
20
15.0000
11
20.0000
21
15.0000
0
LINE
8
PARAMETRIX
10
20.0000
20
15.0000
11
20.0000
21
11.8584
0
LINE
8
PARAMETRIX
10
20.0000
20
11.8584
11
20.0000
21
8.1084
0
ARC
8
PARAMETRIX
10
25.0000
20
8.1084
40
5.0000
50
180.0000
51
208.0725
0
LINE
8
PARAMETRIX
10
20.5882
20
5.7555
11
31.7647
21
-15.2004
0
ARC
8
PARAMETRIX
10
45.0000
20
-8.1416
40
15.0000
50
208.0725
51
331.9275
0
LINE
8
PARAMETRIX
10
58.2353
20
-15.2004
11
69.4118
21
5.7555
0
ARC
8
PARAMETRIX
10
65.0000
20
8.1084
40
5.0000
50
331.9275
51
360.0000
0
LINE
8
PARAMETRIX
10
70.0000
20
8.1084
11
70.0000
21
11.8584
0
LINE
8
PARAMETRIX
10
70.0000
20
11.8584
11
70.0000
21
15.0000
0
LINE
8
PARAMETRIX
10
70.0000
20
15.0000
11
70.5000
21
15.0000
0
ARC
8
PARAMETRIX
10
70.5000
20
14.5000
40
0.5000
50
0.0000
51
90.0000
0
LINE
8
PARAMETRIX
10
71.0000
20
14.5000
11
71.0000
21
0.0000
0
LINE
8
PARAMETRIX
10
71.0000
20
0.0000
11
90.0000
21
0.0000
0
LINE
8
PARAMETRIX
10
90.0000
20
0.0000
11
93.1416
21
0.0000
0
LINE
8
PARAMETRIX
10
93.1416
20
0.0000
11
98.1416
21
0.0000
0
ARC
8
PARAMETRIX
10
98.1416
20
5.0000
40
5.0000
50
270.0000
51
0.0000
0
LINE
8
PARAMETRIX
10
103.1416
20
5.0000
11
103.1416
21
45.0000
0
ARC
8
PARAMETRIX
10
98.1416
20
45.0000
40
5.0000
50
0.0000
51
90.0000
0
LINE
8
PARAMETRIX
10
98.1416
20
50.0000
11
93.1416
21
50.0000
0
LINE
8
PARAMETRIX
10
93.1416
20
50.0000
11
90.0000
21
50.0000
0
LINE
8
PARAMETRIX
10
90.0000
20
50.0000
11
71.0000
21
50.0000
0
LINE
8
PARAMETRIX
10
71.0000
20
50.0000
11
71.0000
21
35.5000
0
ARC
8
PARAMETRIX
10
70.5000
20
35.5000
40
0.5000
50
270.0000
51
0.0000
0
LINE
8
PARAMETRIX
10
70.5000
20
35.0000
11
70.0000
21
35.0000
0
LINE
8
PARAMETRIX
10
70.0000
20
35.0000
11
70.0000
21
38.1416
0
LINE
8
PARAMETRIX
10
70.0000
20
38.1416
11
70.0000
21
41.8916
0
ARC
8
PARAMETRIX
10
65.0000
20
41.8916
40
5.0000
50
0.0000
51
28.0725
0
LINE
8
PARAMETRIX
10
69.4118
20
44.2445
11
58.2353
21
65.2004
0
ARC
8
PARAMETRIX
10
45.0000
20
58.1416
40
15.0000
50
28.0725
51
151.9275
0
LINE
8
PARAMETRIX
10
31.7647
20
65.2004
11
20.5882
21
44.2445
0
ARC
8
PARAMETRIX
10
25.0000
20
41.8916
40
5.0000
50
151.9275
51
180.0000
0
LINE
8
PARAMETRIX
10
20.0000
20
41.8916
11
20.0000
21
38.1416
0
LINE
8
PARAMETRIX
10
20.0000
20
38.1416
11
20.0000
21
35.0000
0
LINE
8
PARAMETRIX
10
20.0000
20
35.0000
11
19.5000
21
35.0000
0
ARC
8
PARAMETRIX
10
19.5000
20
35.5000
40
0.5000
50
180.0000
51
270.0000
0
LINE
8
PARAMETRIX
10
19.0000
20
35.5000
11
19.0000
21
50.0000
0
LINE
8
PARAMETRIX
10
19.0000
20
50.0000
11
0.0000
21
50.0000
0
LINE
8
PARAMETRIX
10
0.0000
20
50.0000
11
-3.1416
21
50.0000
0
LINE
8
PARAMETRIX
10
-3.1416
20
50.0000
11
-8.1416
21
50.0000
0
ARC
8
PARAMETRIX
10
-8.1416
20
45.0000
40
5.0000
50
90.0000
51
180.0000
0
LINE
8
PARAMETRIX
10
-13.1416
20
45.0000
11
-13.1416
21
5.0000
0
ARC
8
PARAMETRIX
10
-8.1416
20
5.0000
40
5.0000
50
180.0000
51
270.0000
0
LINE
8
PARAMETRIX
10
-8.1416
20
-0.0000
11
-3.1416
21
0.0000
0
LINE
8
PARAMETRIX
10
-3.1416
20
0.0000
11
0.0000
21
0.0000
0
CIRCLE
8
PARAMETRIX
10
10.0000
20
10.0000
40
3.0000
0
CIRCLE
8
PARAMETRIX
10
10.0000
20
40.0000
40
3.0000
0
CIRCLE
8
PARAMETRIX
10
80.0000
20
10.0000
40
3.0000
0
CIRCLE
8
PARAMETRIX
10
80.0000
20
40.0000
40
3.0000
0
CIRCLE
8
PARAMETRIX
10
45.0000
20
-8.1416
40
8.0000
0
LINE
8
PARAMETRIX
10
69.0500
20
9.8584
11
62.6167
21
9.8584
0
ARC
8
PARAMETRIX
10
62.6167
20
9.4084
40
0.4500
50
90.0000
51
180.0000
0
LINE
8
PARAMETRIX
10
62.1667
20
9.4084
11
62.1667
21
9.3084
0
ARC
8
PARAMETRIX
10
62.6167
20
9.3084
40
0.4500
50
180.0000
51
270.0000
0
LINE
8
PARAMETRIX
10
62.6167
20
8.8584
11
69.0500
21
8.8584
0
ARC
8
PARAMETRIX
10
69.0500
20
9.3084
40
0.4500
50
270.0000
51
0.0000
0
LINE
8
PARAMETRIX
10
69.5000
20
9.3084
11
69.5000
21
9.4084
0
ARC
8
PARAMETRIX
10
69.0500
20
9.4084
40
0.4500
50
0.0000
51
90.0000
0
LINE
8
PARAMETRIX
10
60.7167
20
9.8584
11
45.9500
21
9.8584
0
ARC
8
PARAMETRIX
10
45.9500
20
9.4084
40
0.4500
50
90.0000
51
180.0000
0
LINE
8
PARAMETRIX
10
45.5000
20
9.4084
11
45.5000
21
9.3084
0
ARC
8
PARAMETRIX
10
45.9500
20
9.3084
40
0.4500
50
180.0000
51
270.0000
0
LINE
8
PARAMETRIX
10
45.9500
20
8.8584
11
60.7167
21
8.8584
0
ARC
8
PARAMETRIX
10
60.7167
20
9.3084
40
0.4500
50
270.0000
51
0.0000
0
LINE
8
PARAMETRIX
10
61.1667
20
9.3084
11
61.1667
21
9.4084
0
ARC
8
PARAMETRIX
10
60.7167
20
9.4084
40
0.4500
50
0.0000
51
90.0000
0
LINE
8
PARAMETRIX
10
44.0500
20
9.8584
11
29.2833
21
9.8584
0
ARC
8
PARAMETRIX
10
29.2833
20
9.4084
40
0.4500
50
90.0000
51
180.0000
0
LINE
8
PARAMETRIX
10
28.8333
20
9.4084
11
28.8333
21
9.3084
0
ARC
8
PARAMETRIX
10
29.2833
20
9.3084
40
0.4500
50
180.0000
51
270.0000
0
LINE
8
PARAMETRIX
10
29.2833
20
8.8584
11
44.0500
21
8.8584
0
ARC
8
PARAMETRIX
10
44.0500
20
9.3084
40
0.4500
50
270.0000
51
0.0000
0
LINE
8
PARAMETRIX
10
44.5000
20
9.3084
11
44.5000
21
9.4084
0
ARC
8
PARAMETRIX
10
44.0500
20
9.4084
40
0.4500
50
0.0000
51
90.0000
0
LINE
8
PARAMETRIX
10
27.3833
20
9.8584
11
20.9500
21
9.8584
0
ARC
8
PARAMETRIX
10
20.9500
20
9.4084
40
0.4500
50
90.0000
51
180.0000
0
LINE
8
PARAMETRIX
10
20.5000
20
9.4084
11
20.5000
21
9.3084
0
ARC
8
PARAMETRIX
10
20.9500
20
9.3084
40
0.4500
50
180.0000
51
270.0000
0
LINE
8
PARAMETRIX
10
20.9500
20
8.8584
11
27.3833
21
8.8584
0
ARC
8
PARAMETRIX
10
27.3833
20
9.3084
40
0.4500
50
270.0000
51
0.0000
0
LINE
8
PARAMETRIX
10
27.8333
20
9.3084
11
27.8333
21
9.4084
0
ARC
8
PARAMETRIX
10
27.3833
20
9.4084
40
0.4500
50
0.0000
51
90.0000
0
LINE
8
PARAMETRIX
10
69.0500
20
7.8584
11
54.2833
21
7.8584
0
ARC
8
PARAMETRIX
10
54.2833
20
7.4084
40
0.4500
50
90.0000
51
180.0000
0
LINE
8
PARAMETRIX
10
53.8333
20
7.4084
11
53.8333
21
7.3084
0
ARC
8
PARAMETRIX
10
54.2833
20
7.3084
40
0.4500
50
180.0000
51
270.0000
0
LINE
8
PARAMETRIX
10
54.2833
20
6.8584
11
69.0500
21
6.8584
0
ARC
8
PARAMETRIX
10
69.0500
20
7.3084
40
0.4500
50
270.0000
51
0.0000
0
LINE
8
PARAMETRIX
10
69.5000
20
7.3084
11
69.5000
21
7.4084
0
ARC
8
PARAMETRIX
10
69.0500
20
7.4084
40
0.4500
50
0.0000
51
90.0000
0
LINE
8
PARAMETRIX
10
52.3833
20
7.8584
11
37.6167
21
7.8584
0
ARC
8
PARAMETRIX
10
37.6167
20
7.4084
40
0.4500
50
90.0000
51
180.0000
0
LINE
8
PARAMETRIX
10
37.1667
20
7.4084
11
37.1667
21
7.3084
0
ARC
8
PARAMETRIX
10
37.6167
20
7.3084
40
0.4500
50
180.0000
51
270.0000
0
LINE
8
PARAMETRIX
10
37.6167
20
6.8584
11
52.3833
21
6.8584
0
ARC
8
PARAMETRIX
10
52.3833
20
7.3084
40
0.4500
50
270.0000
51
360.0000
0
LINE
8
PARAMETRIX
10
52.8333
20
7.3084
11
52.8333
21
7.4084
0
ARC
8
PARAMETRIX
10
52.3833
20
7.4084
40
0.4500
50
360.0000
51
90.0000
0
LINE
8
PARAMETRIX
10
35.7167
20
7.8584
11
20.9500
21
7.8584
0
ARC
8
PARAMETRIX
10
20.9500
20
7.4084
40
0.4500
50
90.0000
51
180.0000
0
LINE
8
PARAMETRIX
10
20.5000
20
7.4084
11
20.5000
21
7.3084
0
ARC
8
PARAMETRIX
10
20.9500
20
7.3084
40
0.4500
50
180.0000
51
270.0000
0
LINE
8
PARAMETRIX
10
20.9500
20
6.8584
11
35.7167
21
6.8584
0
ARC
8
PARAMETRIX
10
35.7167
20
7.3084
40
0.4500
50
270.0000
51
360.0000
0
LINE
8
PARAMETRIX
10
36.1667
20
7.3084
11
36.1667
21
7.4084
0
ARC
8
PARAMETRIX
10
35.7167
20
7.4084
40
0.4500
50
360.0000
51
90.0000
0
LINE
8
PARAMETRIX
10
68.2500
20
5.8584
11
62.0833
21
5.8584
0
ARC
8
PARAMETRIX
10
62.0833
20
5.4084
40
0.4500
50
90.0000
51
180.0000
0
LINE
8
PARAMETRIX
10
61.6333
20
5.4084
11
61.6333
21
5.3084
0
ARC
8
PARAMETRIX
10
62.0833
20
5.3084
40
0.4500
50
180.0000
51
270.0000
0
LINE
8
PARAMETRIX
10
62.0833
20
4.8584
11
68.2500
21
4.8584
0
ARC
8
PARAMETRIX
10
68.2500
20
5.3084
40
0.4500
50
270.0000
51
0.0000
0
LINE
8
PARAMETRIX
10
68.7000
20
5.3084
11
68.7000
21
5.4084
0
ARC
8
PARAMETRIX
10
68.2500
20
5.4084
40
0.4500
50
360.0000
51
90.0000
0
LINE
8
PARAMETRIX
10
60.1833
20
5.8584
11
45.9500
21
5.8584
0
ARC
8
PARAMETRIX
10
45.9500
20
5.4084
40
0.4500
50
90.0000
51
180.0000
0
LINE
8
PARAMETRIX
10
45.5000
20
5.4084
11
45.5000
21
5.3084
0
ARC
8
PARAMETRIX
10
45.9500
20
5.3084
40
0.4500
50
180.0000
51
270.0000
0
LINE
8
PARAMETRIX
10
45.9500
20
4.8584
11
60.1833
21
4.8584
0
ARC
8
PARAMETRIX
10
60.1833
20
5.3084
40
0.4500
50
270.0000
51
0.0000
0
LINE
8
PARAMETRIX
10
60.6333
20
5.3084
11
60.6333
21
5.4084
0
ARC
8
PARAMETRIX
10
60.1833
20
5.4084
40
0.4500
50
360.0000
51
90.0000
0
LINE
8
PARAMETRIX
10
44.0500
20
5.8584
11
29.8167
21
5.8584
0
ARC
8
PARAMETRIX
10
29.8167
20
5.4084
40
0.4500
50
90.0000
51
180.0000
0
LINE
8
PARAMETRIX
10
29.3667
20
5.4084
11
29.3667
21
5.3084
0
ARC
8
PARAMETRIX
10
29.8167
20
5.3084
40
0.4500
50
180.0000
51
270.0000
0
LINE
8
PARAMETRIX
10
29.8167
20
4.8584
11
44.0500
21
4.8584
0
ARC
8
PARAMETRIX
10
44.0500
20
5.3084
40
0.4500
50
270.0000
51
0.0000
0
LINE
8
PARAMETRIX
10
44.5000
20
5.3084
11
44.5000
21
5.4084
0
ARC
8
PARAMETRIX
10
44.0500
20
5.4084
40
0.4500
50
360.0000
51
90.0000
0
LINE
8
PARAMETRIX
10
27.9167
20
5.8584
11
21.7500
21
5.8584
0
ARC
8
PARAMETRIX
10
21.7500
20
5.4084
40
0.4500
50
90.0000
51
180.0000
0
LINE
8
PARAMETRIX
10
21.3000
20
5.4084
11
21.3000
21
5.3084
0
ARC
8
PARAMETRIX
10
21.7500
20
5.3084
40
0.4500
50
180.0000
51
270.0000
0
LINE
8
PARAMETRIX
10
21.7500
20
4.8584
11
27.9167
21
4.8584
0
ARC
8
PARAMETRIX
10
27.9167
20
5.3084
40
0.4500
50
270.0000
51
0.0000
0
LINE
8
PARAMETRIX
10
28.3667
20
5.3084
11
28.3667
21
5.4084
0
ARC
8
PARAMETRIX
10
27.9167
20
5.4084
40
0.4500
50
0.0000
51
90.0000
0
LINE
8
PARAMETRIX
10
67.1833
20
3.8584
11
53.6611
21
3.8584
0
ARC
8
PARAMETRIX
10
53.6611
20
3.4084
40
0.4500
50
90.0000
51
180.0000
0
LINE
8
PARAMETRIX
10
53.2111
20
3.4084
11
53.2111
21
3.3084
0
ARC
8
PARAMETRIX
10
53.6611
20
3.3084
40
0.4500
50
180.0000
51
270.0000
0
LINE
8
PARAMETRIX
10
53.6611
20
2.8584
11
67.1833
21
2.8584
0
ARC
8
PARAMETRIX
10
67.1833
20
3.3084
40
0.4500
50
270.0000
51
0.0000
0
LINE
8
PARAMETRIX
10
67.6333
20
3.3084
11
67.6333
21
3.4084
0
ARC
8
PARAMETRIX
10
67.1833
20
3.4084
40
0.4500
50
0.0000
51
90.0000
0
LINE
8
PARAMETRIX
10
51.7611
20
3.8584
11
38.2389
21
3.8584
0
ARC
8
PARAMETRIX
10
38.2389
20
3.4084
40
0.4500
50
90.0000
51
180.0000
0
LINE
8
PARAMETRIX
10
37.7889
20
3.4084
11
37.7889
21
3.3084
0
ARC
8
PARAMETRIX
10
38.2389
20
3.3084
40
0.4500
50
180.0000
51
270.0000
0
LINE
8
PARAMETRIX
10
38.2389
20
2.8584
11
51.7611
21
2.8584
0
ARC
8
PARAMETRIX
10
51.7611
20
3.3084
40
0.4500
50
270.0000
51
0.0000
0
LINE
8
PARAMETRIX
10
52.2111
20
3.3084
11
52.2111
21
3.4084
0
ARC
8
PARAMETRIX
10
51.7611
20
3.4084
40
0.4500
50
0.0000
51
90.0000
0
LINE
8
PARAMETRIX
10
36.3389
20
3.8584
11
22.8167
21
3.8584
0
ARC
8
PARAMETRIX
10
22.8167
20
3.4084
40
0.4500
50
90.0000
51
180.0000
0
LINE
8
PARAMETRIX
10
22.3667
20
3.4084
11
22.3667
21
3.3084
0
ARC
8
PARAMETRIX
10
22.8167
20
3.3084
40
0.4500
50
180.0000
51
270.0000
0
LINE
8
PARAMETRIX
10
22.8167
20
2.8584
11
36.3389
21
2.8584
0
ARC
8
PARAMETRIX
10
36.3389
20
3.3084
40
0.4500
50
270.0000
51
0.0000
0
LINE
8
PARAMETRIX
10
36.7889
20
3.3084
11
36.7889
21
3.4084
0
ARC
8
PARAMETRIX
10
36.3389
20
3.4084
40
0.4500
50
0.0000
51
90.0000
0
CIRCLE
8
PARAMETRIX
10
45.0000
20
58.1416
40
8.0000
0
LINE
8
PARAMETRIX
10
20.9500
20
40.1416
11
27.3833
21
40.1416
0
ARC
8
PARAMETRIX
10
27.3833
20
40.5916
40
0.4500
50
270.0000
51
0.0000
0
LINE
8
PARAMETRIX
10
27.8333
20
40.5916
11
27.8333
21
40.6916
0
ARC
8
PARAMETRIX
10
27.3833
20
40.6916
40
0.4500
50
0.0000
51
90.0000
0
LINE
8
PARAMETRIX
10
27.3833
20
41.1416
11
20.9500
21
41.1416
0
ARC
8
PARAMETRIX
10
20.9500
20
40.6916
40
0.4500
50
90.0000
51
180.0000
0
LINE
8
PARAMETRIX
10
20.5000
20
40.6916
11
20.5000
21
40.5916
0
ARC
8
PARAMETRIX
10
20.9500
20
40.5916
40
0.4500
50
180.0000
51
270.0000
0
LINE
8
PARAMETRIX
10
29.2833
20
40.1416
11
44.0500
21
40.1416
0
ARC
8
PARAMETRIX
10
44.0500
20
40.5916
40
0.4500
50
270.0000
51
0.0000
0
LINE
8
PARAMETRIX
10
44.5000
20
40.5916
11
44.5000
21
40.6916
0
ARC
8
PARAMETRIX
10
44.0500
20
40.6916
40
0.4500
50
0.0000
51
90.0000
0
LINE
8
PARAMETRIX
10
44.0500
20
41.1416
11
29.2833
21
41.1416
0
ARC
8
PARAMETRIX
10
29.2833
20
40.6916
40
0.4500
50
90.0000
51
180.0000
0
LINE
8
PARAMETRIX
10
28.8333
20
40.6916
11
28.8333
21
40.5916
0
ARC
8
PARAMETRIX
10
29.2833
20
40.5916
40
0.4500
50
180.0000
51
270.0000
0
LINE
8
PARAMETRIX
10
45.9500
20
40.1416
11
60.7167
21
40.1416
0
ARC
8
PARAMETRIX
10
60.7167
20
40.5916
40
0.4500
50
270.0000
51
0.0000
0
LINE
8
PARAMETRIX
10
61.1667
20
40.5916
11
61.1667
21
40.6916
0
ARC
8
PARAMETRIX
10
60.7167
20
40.6916
40
0.4500
50
0.0000
51
90.0000
0
LINE
8
PARAMETRIX
10
60.7167
20
41.1416
11
45.9500
21
41.1416
0
ARC
8
PARAMETRIX
10
45.9500
20
40.6916
40
0.4500
50
90.0000
51
180.0000
0
LINE
8
PARAMETRIX
10
45.5000
20
40.6916
11
45.5000
21
40.5916
0
ARC
8
PARAMETRIX
10
45.9500
20
40.5916
40
0.4500
50
180.0000
51
270.0000
0
LINE
8
PARAMETRIX
10
62.6167
20
40.1416
11
69.0500
21
40.1416
0
ARC
8
PARAMETRIX
10
69.0500
20
40.5916
40
0.4500
50
270.0000
51
0.0000
0
LINE
8
PARAMETRIX
10
69.5000
20
40.5916
11
69.5000
21
40.6916
0
ARC
8
PARAMETRIX
10
69.0500
20
40.6916
40
0.4500
50
0.0000
51
90.0000
0
LINE
8
PARAMETRIX
10
69.0500
20
41.1416
11
62.6167
21
41.1416
0
ARC
8
PARAMETRIX
10
62.6167
20
40.6916
40
0.4500
50
90.0000
51
180.0000
0
LINE
8
PARAMETRIX
10
62.1667
20
40.6916
11
62.1667
21
40.5916
0
ARC
8
PARAMETRIX
10
62.6167
20
40.5916
40
0.4500
50
180.0000
51
270.0000
0
LINE
8
PARAMETRIX
10
20.9500
20
42.1416
11
35.7167
21
42.1416
0
ARC
8
PARAMETRIX
10
35.7167
20
42.5916
40
0.4500
50
270.0000
51
0.0000
0
LINE
8
PARAMETRIX
10
36.1667
20
42.5916
11
36.1667
21
42.6916
0
ARC
8
PARAMETRIX
10
35.7167
20
42.6916
40
0.4500
50
0.0000
51
90.0000
0
LINE
8
PARAMETRIX
10
35.7167
20
43.1416
11
20.9500
21
43.1416
0
ARC
8
PARAMETRIX
10
20.9500
20
42.6916
40
0.4500
50
90.0000
51
180.0000
0
LINE
8
PARAMETRIX
10
20.5000
20
42.6916
11
20.5000
21
42.5916
0
ARC
8
PARAMETRIX
10
20.9500
20
42.5916
40
0.4500
50
180.0000
51
270.0000
0
LINE
8
PARAMETRIX
10
37.6167
20
42.1416
11
52.3833
21
42.1416
0
ARC
8
PARAMETRIX
10
52.3833
20
42.5916
40
0.4500
50
270.0000
51
0.0000
0
LINE
8
PARAMETRIX
10
52.8333
20
42.5916
11
52.8333
21
42.6916
0
ARC
8
PARAMETRIX
10
52.3833
20
42.6916
40
0.4500
50
0.0000
51
90.0000
0
LINE
8
PARAMETRIX
10
52.3833
20
43.1416
11
37.6167
21
43.1416
0
ARC
8
PARAMETRIX
10
37.6167
20
42.6916
40
0.4500
50
90.0000
51
180.0000
0
LINE
8
PARAMETRIX
10
37.1667
20
42.6916
11
37.1667
21
42.5916
0
ARC
8
PARAMETRIX
10
37.6167
20
42.5916
40
0.4500
50
180.0000
51
270.0000
0
LINE
8
PARAMETRIX
10
54.2833
20
42.1416
11
69.0500
21
42.1416
0
ARC
8
PARAMETRIX
10
69.0500
20
42.5916
40
0.4500
50
270.0000
51
0.0000
0
LINE
8
PARAMETRIX
10
69.5000
20
42.5916
11
69.5000
21
42.6916
0
ARC
8
PARAMETRIX
10
69.0500
20
42.6916
40
0.4500
50
0.0000
51
90.0000
0
LINE
8
PARAMETRIX
10
69.0500
20
43.1416
11
54.2833
21
43.1416
0
ARC
8
PARAMETRIX
10
54.2833
20
42.6916
40
0.4500
50
90.0000
51
180.0000
0
LINE
8
PARAMETRIX
10
53.8333
20
42.6916
11
53.8333
21
42.5916
0
ARC
8
PARAMETRIX
10
54.2833
20
42.5916
40
0.4500
50
180.0000
51
270.0000
0
LINE
8
PARAMETRIX
10
21.7500
20
44.1416
11
27.9167
21
44.1416
0
ARC
8
PARAMETRIX
10
27.9167
20
44.5916
40
0.4500
50
270.0000
51
0.0000
0
LINE
8
PARAMETRIX
10
28.3667
20
44.5916
11
28.3667
21
44.6916
0
ARC
8
PARAMETRIX
10
27.9167
20
44.6916
40
0.4500
50
0.0000
51
90.0000
0
LINE
8
PARAMETRIX
10
27.9167
20
45.1416
11
21.7500
21
45.1416
0
ARC
8
PARAMETRIX
10
21.7500
20
44.6916
40
0.4500
50
90.0000
51
180.0000
0
LINE
8
PARAMETRIX
10
21.3000
20
44.6916
11
21.3000
21
44.5916
0
ARC
8
PARAMETRIX
10
21.7500
20
44.5916
40
0.4500
50
180.0000
51
270.0000
0
LINE
8
PARAMETRIX
10
29.8167
20
44.1416
11
44.0500
21
44.1416
0
ARC
8
PARAMETRIX
10
44.0500
20
44.5916
40
0.4500
50
270.0000
51
0.0000
0
LINE
8
PARAMETRIX
10
44.5000
20
44.5916
11
44.5000
21
44.6916
0
ARC
8
PARAMETRIX
10
44.0500
20
44.6916
40
0.4500
50
0.0000
51
90.0000
0
LINE
8
PARAMETRIX
10
44.0500
20
45.1416
11
29.8167
21
45.1416
0
ARC
8
PARAMETRIX
10
29.8167
20
44.6916
40
0.4500
50
90.0000
51
180.0000
0
LINE
8
PARAMETRIX
10
29.3667
20
44.6916
11
29.3667
21
44.5916
0
ARC
8
PARAMETRIX
10
29.8167
20
44.5916
40
0.4500
50
180.0000
51
270.0000
0
LINE
8
PARAMETRIX
10
45.9500
20
44.1416
11
60.1833
21
44.1416
0
ARC
8
PARAMETRIX
10
60.1833
20
44.5916
40
0.4500
50
270.0000
51
0.0000
0
LINE
8
PARAMETRIX
10
60.6333
20
44.5916
11
60.6333
21
44.6916
0
ARC
8
PARAMETRIX
10
60.1833
20
44.6916
40
0.4500
50
0.0000
51
90.0000
0
LINE
8
PARAMETRIX
10
60.1833
20
45.1416
11
45.9500
21
45.1416
0
ARC
8
PARAMETRIX
10
45.9500
20
44.6916
40
0.4500
50
90.0000
51
180.0000
0
LINE
8
PARAMETRIX
10
45.5000
20
44.6916
11
45.5000
21
44.5916
0
ARC
8
PARAMETRIX
10
45.9500
20
44.5916
40
0.4500
50
180.0000
51
270.0000
0
LINE
8
PARAMETRIX
10
62.0833
20
44.1416
11
68.2500
21
44.1416
0
ARC
8
PARAMETRIX
10
68.2500
20
44.5916
40
0.4500
50
270.0000
51
0.0000
0
LINE
8
PARAMETRIX
10
68.7000
20
44.5916
11
68.7000
21
44.6916
0
ARC
8
PARAMETRIX
10
68.2500
20
44.6916
40
0.4500
50
0.0000
51
90.0000
0
LINE
8
PARAMETRIX
10
68.2500
20
45.1416
11
62.0833
21
45.1416
0
ARC
8
PARAMETRIX
10
62.0833
20
44.6916
40
0.4500
50
90.0000
51
180.0000
0
LINE
8
PARAMETRIX
10
61.6333
20
44.6916
11
61.6333
21
44.5916
0
ARC
8
PARAMETRIX
10
62.0833
20
44.5916
40
0.4500
50
180.0000
51
270.0000
0
LINE
8
PARAMETRIX
10
22.8167
20
46.1416
11
36.3389
21
46.1416
0
ARC
8
PARAMETRIX
10
36.3389
20
46.5916
40
0.4500
50
270.0000
51
0.0000
0
LINE
8
PARAMETRIX
10
36.7889
20
46.5916
11
36.7889
21
46.6916
0
ARC
8
PARAMETRIX
10
36.3389
20
46.6916
40
0.4500
50
0.0000
51
90.0000
0
LINE
8
PARAMETRIX
10
36.3389
20
47.1416
11
22.8167
21
47.1416
0
ARC
8
PARAMETRIX
10
22.8167
20
46.6916
40
0.4500
50
90.0000
51
180.0000
0
LINE
8
PARAMETRIX
10
22.3667
20
46.6916
11
22.3667
21
46.5916
0
ARC
8
PARAMETRIX
10
22.8167
20
46.5916
40
0.4500
50
180.0000
51
270.0000
0
LINE
8
PARAMETRIX
10
38.2389
20
46.1416
11
51.7611
21
46.1416
0
ARC
8
PARAMETRIX
10
51.7611
20
46.5916
40
0.4500
50
270.0000
51
0.0000
0
LINE
8
PARAMETRIX
10
52.2111
20
46.5916
11
52.2111
21
46.6916
0
ARC
8
PARAMETRIX
10
51.7611
20
46.6916
40
0.4500
50
0.0000
51
90.0000
0
LINE
8
PARAMETRIX
10
51.7611
20
47.1416
11
38.2389
21
47.1416
0
ARC
8
PARAMETRIX
10
38.2389
20
46.6916
40
0.4500
50
90.0000
51
180.0000
0
LINE
8
PARAMETRIX
10
37.7889
20
46.6916
11
37.7889
21
46.5916
0
ARC
8
PARAMETRIX
10
38.2389
20
46.5916
40
0.4500
50
180.0000
51
270.0000
0
LINE
8
PARAMETRIX
10
53.6611
20
46.1416
11
67.1833
21
46.1416
0
ARC
8
PARAMETRIX
10
67.1833
20
46.5916
40
0.4500
50
270.0000
51
0.0000
0
LINE
8
PARAMETRIX
10
67.6333
20
46.5916
11
67.6333
21
46.6916
0
ARC
8
PARAMETRIX
10
67.1833
20
46.6916
40
0.4500
50
360.0000
51
90.0000
0
LINE
8
PARAMETRIX
10
67.1833
20
47.1416
11
53.6611
21
47.1416
0
ARC
8
PARAMETRIX
10
53.6611
20
46.6916
40
0.4500
50
90.0000
51
180.0000
0
LINE
8
PARAMETRIX
10
53.2111
20
46.6916
11
53.2111
21
46.5916
0
ARC
8
PARAMETRIX
10
53.6611
20
46.5916
40
0.4500
50
180.0000
51
270.0000
0
ARC
8
PARAMETRIX
10
45.0000
20
12.8584
40
1.0000
50
180.0000
51
0.0000
0
LINE
8
PARAMETRIX
10
46.0000
20
12.8584
11
46.0000
21
14.0000
0
ARC
8
PARAMETRIX
10
45.0000
20
14.0000
40
1.0000
50
0.0000
51
180.0000
0
LINE
8
PARAMETRIX
10
44.0000
20
14.0000
11
44.0000
21
12.8584
0
ARC
8
PARAMETRIX
10
92.1416
20
25.0000
40
1.0000
50
270.0000
51
90.0000
0
LINE
8
PARAMETRIX
10
92.1416
20
26.0000
11
91.0000
21
26.0000
0
ARC
8
PARAMETRIX
10
91.0000
20
25.0000
40
1.0000
50
90.0000
51
270.0000
0
LINE
8
PARAMETRIX
10
91.0000
20
24.0000
11
92.1416
21
24.0000
0
ARC
8
PARAMETRIX
10
45.0000
20
37.1416
40
1.0000
50
0.0000
51
180.0000
0
LINE
8
PARAMETRIX
10
44.0000
20
37.1416
11
44.0000
21
36.0000
0
ARC
8
PARAMETRIX
10
45.0000
20
36.0000
40
1.0000
50
180.0000
51
0.0000
0
LINE
8
PARAMETRIX
10
46.0000
20
36.0000
11
46.0000
21
37.1416
0
ARC
8
PARAMETRIX
10
-2.1416
20
25.0000
40
1.0000
50
90.0000
51
270.0000
0
LINE
8
PARAMETRIX
10
-2.1416
20
24.0000
11
-1.0000
21
24.0000
0
ARC
8
PARAMETRIX
10
-1.0000
20
25.0000
40
1.0000
50
270.0000
51
90.0000
0
LINE
8
PARAMETRIX
10
-1.0000
20
26.0000
11
-2.1416
21
26.0000
0
ENDSEC
0
EOF
