0
SECTION
2
ENTITIES
0
LINE
8
PARAMETRIX
10
0.0000
20
0.0000
11
50.0000
21
0.0000
0
LINE
8
PARAMETRIX
10
50.0000
20
0.0000
11
50.0000
21
2.5000
0
LINE
8
PARAMETRIX
10
50.0000
20
2.5000
11
52.0000
21
2.5000
0
LINE
8
PARAMETRIX
10
52.0000
20
2.5000
11
52.0000
21
6.0714
0
ARC
8
PARAMETRIX
10
47.0000
20
6.0714
40
5.0000
50
0.0000
51
31.8908
0
LINE
8
PARAMETRIX
10
51.2453
20
8.7129
11
37.7358
21
30.4245
0
ARC
8
PARAMETRIX
10
25.0000
20
22.5000
40
15.0000
50
31.8908
51
148.1092
0
LINE
8
PARAMETRIX
10
12.2642
20
30.4245
11
-1.2453
21
8.7129
0
ARC
8
PARAMETRIX
10
3.0000
20
6.0714
40
5.0000
50
148.1092
51
180.0000
0
LINE
8
PARAMETRIX
10
-2.0000
20
6.0714
11
-2.0000
21
2.5000
0
LINE
8
PARAMETRIX
10
-2.0000
20
2.5000
11
0.0000
21
2.5000
0
LINE
8
PARAMETRIX
10
0.0000
20
2.5000
11
0.0000
21
0.0000
0
CIRCLE
8
PARAMETRIX
10
25.0000
20
22.5000
40
8.0000
0
LINE
8
PARAMETRIX
10
-1.0500
20
4.5000
11
6.0500
21
4.5000
0
ARC
8
PARAMETRIX
10
6.0500
20
4.9500
40
0.4500
50
270.0000
51
0.0000
0
LINE
8
PARAMETRIX
10
6.5000
20
4.9500
11
6.5000
21
5.0500
0
ARC
8
PARAMETRIX
10
6.0500
20
5.0500
40
0.4500
50
360.0000
51
90.0000
0
LINE
8
PARAMETRIX
10
6.0500
20
5.5000
11
-1.0500
21
5.5000
0
ARC
8
PARAMETRIX
10
-1.0500
20
5.0500
40
0.4500
50
90.0000
51
180.0000
0
LINE
8
PARAMETRIX
10
-1.5000
20
5.0500
11
-1.5000
21
4.9500
0
ARC
8
PARAMETRIX
10
-1.0500
20
4.9500
40
0.4500
50
180.0000
51
270.0000
0
LINE
8
PARAMETRIX
10
7.9500
20
4.5000
11
24.0500
21
4.5000
0
ARC
8
PARAMETRIX
10
24.0500
20
4.9500
40
0.4500
50
270.0000
51
0.0000
0
LINE
8
PARAMETRIX
10
24.5000
20
4.9500
11
24.5000
21
5.0500
0
ARC
8
PARAMETRIX
10
24.0500
20
5.0500
40
0.4500
50
360.0000
51
90.0000
0
LINE
8
PARAMETRIX
10
24.0500
20
5.5000
11
7.9500
21
5.5000
0
ARC
8
PARAMETRIX
10
7.9500
20
5.0500
40
0.4500
50
90.0000
51
180.0000
0
LINE
8
PARAMETRIX
10
7.5000
20
5.0500
11
7.5000
21
4.9500
0
ARC
8
PARAMETRIX
10
7.9500
20
4.9500
40
0.4500
50
180.0000
51
270.0000
0
LINE
8
PARAMETRIX
10
25.9500
20
4.5000
11
42.0500
21
4.5000
0
ARC
8
PARAMETRIX
10
42.0500
20
4.9500
40
0.4500
50
270.0000
51
0.0000
0
LINE
8
PARAMETRIX
10
42.5000
20
4.9500
11
42.5000
21
5.0500
0
ARC
8
PARAMETRIX
10
42.0500
20
5.0500
40
0.4500
50
360.0000
51
90.0000
0
LINE
8
PARAMETRIX
10
42.0500
20
5.5000
11
25.9500
21
5.5000
0
ARC
8
PARAMETRIX
10
25.9500
20
5.0500
40
0.4500
50
90.0000
51
180.0000
0
LINE
8
PARAMETRIX
10
25.5000
20
5.0500
11
25.5000
21
4.9500
0
ARC
8
PARAMETRIX
10
25.9500
20
4.9500
40
0.4500
50
180.0000
51
270.0000
0
LINE
8
PARAMETRIX
10
43.9500
20
4.5000
11
51.0500
21
4.5000
0
ARC
8
PARAMETRIX
10
51.0500
20
4.9500
40
0.4500
50
270.0000
51
0.0000
0
LINE
8
PARAMETRIX
10
51.5000
20
4.9500
11
51.5000
21
5.0500
0
ARC
8
PARAMETRIX
10
51.0500
20
5.0500
40
0.4500
50
360.0000
51
90.0000
0
LINE
8
PARAMETRIX
10
51.0500
20
5.5000
11
43.9500
21
5.5000
0
ARC
8
PARAMETRIX
10
43.9500
20
5.0500
40
0.4500
50
90.0000
51
180.0000
0
LINE
8
PARAMETRIX
10
43.5000
20
5.0500
11
43.5000
21
4.9500
0
ARC
8
PARAMETRIX
10
43.9500
20
4.9500
40
0.4500
50
180.0000
51
270.0000
0
LINE
8
PARAMETRIX
10
-1.0500
20
6.5000
11
15.0500
21
6.5000
0
ARC
8
PARAMETRIX
10
15.0500
20
6.9500
40
0.4500
50
270.0000
51
0.0000
0
LINE
8
PARAMETRIX
10
15.5000
20
6.9500
11
15.5000
21
7.0500
0
ARC
8
PARAMETRIX
10
15.0500
20
7.0500
40
0.4500
50
360.0000
51
90.0000
0
LINE
8
PARAMETRIX
10
15.0500
20
7.5000
11
-1.0500
21
7.5000
0
ARC
8
PARAMETRIX
10
-1.0500
20
7.0500
40
0.4500
50
90.0000
51
180.0000
0
LINE
8
PARAMETRIX
10
-1.5000
20
7.0500
11
-1.5000
21
6.9500
0
ARC
8
PARAMETRIX
10
-1.0500
20
6.9500
40
0.4500
50
180.0000
51
270.0000
0
LINE
8
PARAMETRIX
10
16.9500
20
6.5000
11
33.0500
21
6.5000
0
ARC
8
PARAMETRIX
10
33.0500
20
6.9500
40
0.4500
50
270.0000
51
0.0000
0
LINE
8
PARAMETRIX
10
33.5000
20
6.9500
11
33.5000
21
7.0500
0
ARC
8
PARAMETRIX
10
33.0500
20
7.0500
40
0.4500
50
360.0000
51
90.0000
0
LINE
8
PARAMETRIX
10
33.0500
20
7.5000
11
16.9500
21
7.5000
0
ARC
8
PARAMETRIX
10
16.9500
20
7.0500
40
0.4500
50
90.0000
51
180.0000
0
LINE
8
PARAMETRIX
10
16.5000
20
7.0500
11
16.5000
21
6.9500
0
ARC
8
PARAMETRIX
10
16.9500
20
6.9500
40
0.4500
50
180.0000
51
270.0000
0
LINE
8
PARAMETRIX
10
34.9500
20
6.5000
11
51.0500
21
6.5000
0
ARC
8
PARAMETRIX
10
51.0500
20
6.9500
40
0.4500
50
270.0000
51
0.0000
0
LINE
8
PARAMETRIX
10
51.5000
20
6.9500
11
51.5000
21
7.0500
0
ARC
8
PARAMETRIX
10
51.0500
20
7.0500
40
0.4500
50
360.0000
51
90.0000
0
LINE
8
PARAMETRIX
10
51.0500
20
7.5000
11
34.9500
21
7.5000
0
ARC
8
PARAMETRIX
10
34.9500
20
7.0500
40
0.4500
50
90.0000
51
180.0000
0
LINE
8
PARAMETRIX
10
34.5000
20
7.0500
11
34.5000
21
6.9500
0
ARC
8
PARAMETRIX
10
34.9500
20
6.9500
40
0.4500
50
180.0000
51
270.0000
0
LINE
8
PARAMETRIX
10
-0.1167
20
8.5000
11
6.6722
21
8.5000
0
ARC
8
PARAMETRIX
10
6.6722
20
8.9500
40
0.4500
50
270.0000
51
0.0000
0
LINE
8
PARAMETRIX
10
7.1222
20
8.9500
11
7.1222
21
9.0500
0
ARC
8
PARAMETRIX
10
6.6722
20
9.0500
40
0.4500
50
0.0000
51
90.0000
0
LINE
8
PARAMETRIX
10
6.6722
20
9.5000
11
-0.1167
21
9.5000
0
ARC
8
PARAMETRIX
10
-0.1167
20
9.0500
40
0.4500
50
90.0000
51
180.0000
0
LINE
8
PARAMETRIX
10
-0.5667
20
9.0500
11
-0.5667
21
8.9500
0
ARC
8
PARAMETRIX
10
-0.1167
20
8.9500
40
0.4500
50
180.0000
51
270.0000
0
LINE
8
PARAMETRIX
10
8.5722
20
8.5000
11
24.0500
21
8.5000
0
ARC
8
PARAMETRIX
10
24.0500
20
8.9500
40
0.4500
50
270.0000
51
0.0000
0
LINE
8
PARAMETRIX
10
24.5000
20
8.9500
11
24.5000
21
9.0500
0
ARC
8
PARAMETRIX
10
24.0500
20
9.0500
40
0.4500
50
0.0000
51
90.0000
0
LINE
8
PARAMETRIX
10
24.0500
20
9.5000
11
8.5722
21
9.5000
0
ARC
8
PARAMETRIX
10
8.5722
20
9.0500
40
0.4500
50
90.0000
51
180.0000
0
LINE
8
PARAMETRIX
10
8.1222
20
9.0500
11
8.1222
21
8.9500
0
ARC
8
PARAMETRIX
10
8.5722
20
8.9500
40
0.4500
50
180.0000
51
270.0000
0
LINE
8
PARAMETRIX
10
25.9500
20
8.5000
11
41.4278
21
8.5000
0
ARC
8
PARAMETRIX
10
41.4278
20
8.9500
40
0.4500
50
270.0000
51
0.0000
0
LINE
8
PARAMETRIX
10
41.8778
20
8.9500
11
41.8778
21
9.0500
0
ARC
8
PARAMETRIX
10
41.4278
20
9.0500
40
0.4500
50
0.0000
51
90.0000
0
LINE
8
PARAMETRIX
10
41.4278
20
9.5000
11
25.9500
21
9.5000
0
ARC
8
PARAMETRIX
10
25.9500
20
9.0500
40
0.4500
50
90.0000
51
180.0000
0
LINE
8
PARAMETRIX
10
25.5000
20
9.0500
11
25.5000
21
8.9500
0
ARC
8
PARAMETRIX
10
25.9500
20
8.9500
40
0.4500
50
180.0000
51
270.0000
0
LINE
8
PARAMETRIX
10
43.3278
20
8.5000
11
50.1167
21
8.5000
0
ARC
8
PARAMETRIX
10
50.1167
20
8.9500
40
0.4500
50
270.0000
51
0.0000
0
LINE
8
PARAMETRIX
10
50.5667
20
8.9500
11
50.5667
21
9.0500
0
ARC
8
PARAMETRIX
10
50.1167
20
9.0500
40
0.4500
50
0.0000
51
90.0000
0
LINE
8
PARAMETRIX
10
50.1167
20
9.5000
11
43.3278
21
9.5000
0
ARC
8
PARAMETRIX
10
43.3278
20
9.0500
40
0.4500
50
90.0000
51
180.0000
0
LINE
8
PARAMETRIX
10
42.8778
20
9.0500
11
42.8778
21
8.9500
0
ARC
8
PARAMETRIX
10
43.3278
20
8.9500
40
0.4500
50
180.0000
51
270.0000
0
LINE
8
PARAMETRIX
10
1.1278
20
10.5000
11
15.7759
21
10.5000
0
ARC
8
PARAMETRIX
10
15.7759
20
10.9500
40
0.4500
50
270.0000
51
0.0000
0
LINE
8
PARAMETRIX
10
16.2259
20
10.9500
11
16.2259
21
11.0500
0
ARC
8
PARAMETRIX
10
15.7759
20
11.0500
40
0.4500
50
0.0000
51
90.0000
0
LINE
8
PARAMETRIX
10
15.7759
20
11.5000
11
1.1278
21
11.5000
0
ARC
8
PARAMETRIX
10
1.1278
20
11.0500
40
0.4500
50
90.0000
51
180.0000
0
LINE
8
PARAMETRIX
10
0.6778
20
11.0500
11
0.6778
21
10.9500
0
ARC
8
PARAMETRIX
10
1.1278
20
10.9500
40
0.4500
50
180.0000
51
270.0000
0
LINE
8
PARAMETRIX
10
17.6759
20
10.5000
11
32.3241
21
10.5000
0
ARC
8
PARAMETRIX
10
32.3241
20
10.9500
40
0.4500
50
270.0000
51
0.0000
0
LINE
8
PARAMETRIX
10
32.7741
20
10.9500
11
32.7741
21
11.0500
0
ARC
8
PARAMETRIX
10
32.3241
20
11.0500
40
0.4500
50
0.0000
51
90.0000
0
LINE
8
PARAMETRIX
10
32.3241
20
11.5000
11
17.6759
21
11.5000
0
ARC
8
PARAMETRIX
10
17.6759
20
11.0500
40
0.4500
50
90.0000
51
180.0000
0
LINE
8
PARAMETRIX
10
17.2259
20
11.0500
11
17.2259
21
10.9500
0
ARC
8
PARAMETRIX
10
17.6759
20
10.9500
40
0.4500
50
180.0000
51
270.0000
0
LINE
8
PARAMETRIX
10
34.2241
20
10.5000
11
48.8722
21
10.5000
0
ARC
8
PARAMETRIX
10
48.8722
20
10.9500
40
0.4500
50
270.0000
51
0.0000
0
LINE
8
PARAMETRIX
10
49.3222
20
10.9500
11
49.3222
21
11.0500
0
ARC
8
PARAMETRIX
10
48.8722
20
11.0500
40
0.4500
50
0.0000
51
90.0000
0
LINE
8
PARAMETRIX
10
48.8722
20
11.5000
11
34.2241
21
11.5000
0
ARC
8
PARAMETRIX
10
34.2241
20
11.0500
40
0.4500
50
90.0000
51
180.0000
0
LINE
8
PARAMETRIX
10
33.7741
20
11.0500
11
33.7741
21
10.9500
0
ARC
8
PARAMETRIX
10
34.2241
20
10.9500
40
0.4500
50
180.0000
51
270.0000
0
ENDSEC
0
EOF
