<svg width="48" height="65" viewBox="-2 -3 48 65" xmlns="http://www.w3.org/2000/svg"><path d="M 0.0000 0.0000 L 0.0000 50.0000 L 3.7500 50.0000 A 5.0000 5.0000 0 0 0 6.1029 49.4118 L 27.0588 38.2353 A 15.0000 15.0000 0 0 0 27.0588 11.7647 L 6.1029 0.5882 A 5.0000 5.0000 0 0 0 3.7500 0.0000 L 0.0000 0.0000 Z" stroke="green" stroke-width="1" fill="none" /><circle cx="20.0000" cy="25.0000" r="8.0000" stroke="green" stroke-width="1" fill="none" /><path d="M 2.0000 0.9500 L 2.0000 7.3833 A 0.4500 0.4500 0 0 0 2.4500 7.8333 L 2.5500 7.8333 A 0.4500 0.4500 0 0 0 3.0000 7.3833 L 3.0000 0.9500 A 0.4500 0.4500 0 0 0 2.5500 0.5000 L 2.4500 0.5000 A 0.4500 0.4500 0 0 0 2.0000 0.9500 Z" stroke="green" stroke-width="1" fill="none" /><path d="M 2.0000 9.2833 L 2.0000 24.0500 A 0.4500 0.4500 0 0 0 2.4500 24.5000 L 2.5500 24.5000 A 0.4500 0.4500 0 0 0 3.0000 24.0500 L 3.0000 9.2833 A 0.4500 0.4500 0 0 0 2.5500 8.8333 L 2.4500 8.8333 A 0.4500 0.4500 0 0 0 2.0000 9.2833 Z" stroke="green" stroke-width="1" fill="none" /><path d="M 2.0000 25.9500 L 2.0000 40.7167 A 0.4500 0.4500 0 0 0 2.4500 41.1667 L 2.5500 41.1667 A 0.4500 0.4500 0 0 0 3.0000 40.7167 L 3.0000 25.9500 A 0.4500 0.4500 0 0 0 2.5500 25.5000 L 2.4500 25.5000 A 0.4500 0.4500 0 0 0 2.0000 25.9500 Z" stroke="green" stroke-width="1" fill="none" /><path d="M 2.0000 42.6167 L 2.0000 49.0500 A 0.4500 0.4500 0 0 0 2.4500 49.5000 L 2.5500 49.5000 A 0.4500 0.4500 0 0 0 3.0000 49.0500 L 3.0000 42.6167 A 0.4500 0.4500 0 0 0 2.5500 42.1667 L 2.4500 42.1667 A 0.4500 0.4500 0 0 0 2.0000 42.6167 Z" stroke="green" stroke-width="1" fill="none" /><path d="M 4.0000 0.9500 L 4.0000 15.7167 A 0.4500 0.4500 0 0 0 4.4500 16.1667 L 4.5500 16.1667 A 0.4500 0.4500 0 0 0 5.0000 15.7167 L 5.0000 0.9500 A 0.4500 0.4500 0 0 0 4.5500 0.5000 L 4.4500 0.5000 A 0.4500 0.4500 0 0 0 4.0000 0.9500 Z" stroke="green" stroke-width="1" fill="none" /><path d="M 4.0000 17.6167 L 4.0000 32.3833 A 0.4500 0.4500 0 0 0 4.4500 32.8333 L 4.5500 32.8333 A 0.4500 0.4500 0 0 0 5.0000 32.3833 L 5.0000 17.6167 A 0.4500 0.4500 0 0 0 4.5500 17.1667 L 4.4500 17.1667 A 0.4500 0.4500 0 0 0 4.0000 17.6167 Z" stroke="green" stroke-width="1" fill="none" /><path d="M 4.0000 34.2833 L 4.0000 49.0500 A 0.4500 0.4500 0 0 0 4.4500 49.5000 L 4.5500 49.5000 A 0.4500 0.4500 0 0 0 5.0000 49.0500 L 5.0000 34.2833 A 0.4500 0.4500 0 0 0 4.5500 33.8333 L 4.4500 33.8333 A 0.4500 0.4500 0 0 0 4.0000 34.2833 Z" stroke="green" stroke-width="1" fill="none" /><path d="M 6.0000 1.7500 L 6.0000 7.9167 A 0.4500 0.4500 0 0 0 6.4500 8.3667 L 6.5500 8.3667 A 0.4500 0.4500 0 0 0 7.0000 7.9167 L 7.0000 1.7500 A 0.4500 0.4500 0 0 0 6.5500 1.3000 L 6.4500 1.3000 A 0.4500 0.4500 0 0 0 6.0000 1.7500 Z" stroke="green" stroke-width="1" fill="none" /><path d="M 6.0000 9.8167 L 6.0000 24.0500 A 0.4500 0.4500 0 0 0 6.4500 24.5000 L 6.5500 24.5000 A 0.4500 0.4500 0 0 0 7.0000 24.0500 L 7.0000 9.8167 A 0.4500 0.4500 0 0 0 6.5500 9.3667 L 6.4500 9.3667 A 0.4500 0.4500 0 0 0 6.0000 9.8167 Z" stroke="green" stroke-width="1" fill="none" /><path d="M 6.0000 25.9500 L 6.0000 40.1833 A 0.4500 0.4500 0 0 0 6.4500 40.6333 L 6.5500 40.6333 A 0.4500 0.4500 0 0 0 7.0000 40.1833 L 7.0000 25.9500 A 0.4500 0.4500 0 0 0 6.5500 25.5000 L 6.4500 25.5000 A 0.4500 0.4500 0 0 0 6.0000 25.9500 Z" stroke="green" stroke-width="1" fill="none" /><path d="M 6.0000 42.0833 L 6.0000 48.2500 A 0.4500 0.4500 0 0 0 6.4500 48.7000 L 6.5500 48.7000 A 0.4500 0.4500 0 0 0 7.0000 48.2500 L 7.0000 42.0833 A 0.4500 0.4500 0 0 0 6.5500 41.6333 L 6.4500 41.6333 A 0.4500 0.4500 0 0 0 6.0000 42.0833 Z" stroke="green" stroke-width="1" fill="none" /><path d="M 8.0000 2.8167 L 8.0000 16.3389 A 0.4500 0.4500 0 0 0 8.4500 16.7889 L 8.5500 16.7889 A 0.4500 0.4500 0 0 0 9.0000 16.3389 L 9.0000 2.8167 A 0.4500 0.4500 0 0 0 8.5500 2.3667 L 8.4500 2.3667 A 0.4500 0.4500 0 0 0 8.0000 2.8167 Z" stroke="green" stroke-width="1" fill="none" /><path d="M 8.0000 18.2389 L 8.0000 31.7611 A 0.4500 0.4500 0 0 0 8.4500 32.2111 L 8.5500 32.2111 A 0.4500 0.4500 0 0 0 9.0000 31.7611 L 9.0000 18.2389 A 0.4500 0.4500 0 0 0 8.5500 17.7889 L 8.4500 17.7889 A 0.4500 0.4500 0 0 0 8.0000 18.2389 Z" stroke="green" stroke-width="1" fill="none" /><path d="M 8.0000 33.6611 L 8.0000 47.1833 A 0.4500 0.4500 0 0 0 8.4500 47.6333 L 8.5500 47.6333 A 0.4500 0.4500 0 0 0 9.0000 47.1833 L 9.0000 33.6611 A 0.4500 0.4500 0 0 0 8.5500 33.2111 L 8.4500 33.2111 A 0.4500 0.4500 0 0 0 8.0000 33.6611 Z" stroke="green" stroke-width="1" fill="none" /></svg>