<svg width="138" height="116" viewBox="-20 -29 138 116" xmlns="http://www.w3.org/2000/svg"><path d="M 0.0000 50.0000 L 19.0000 50.0000 L 19.0000 35.5000 A 0.5000 0.5000 0 0 1 19.5000 35.0000 L 20.0000 35.0000 L 20.0000 38.1416 L 20.0000 41.8916 A 5.0000 5.0000 0 0 0 20.5882 44.2445 L 31.7647 65.2004 A 15.0000 15.0000 0 0 0 58.2353 65.2004 L 69.4118 44.2445 A 5.0000 5.0000 0 0 0 70.0000 41.8916 L 70.0000 38.1416 L 70.0000 35.0000 L 70.5000 35.0000 A 0.5000 0.5000 0 0 1 71.0000 35.5000 L 71.0000 50.0000 L 90.0000 50.0000 L 93.1416 50.0000 L 98.1416 50.0000 A 5.0000 5.0000 0 0 0 103.1416 45.0000 L 103.1416 5.0000 A 5.0000 5.0000 0 0 0 98.1416 0.0000 L 93.1416 0.0000 L 90.0000 0.0000 L 71.0000 0.0000 L 71.0000 14.5000 A 0.5000 0.5000 0 0 1 70.5000 15.0000 L 70.0000 15.0000 L 70.0000 11.8584 L 70.0000 8.1084 A 5.0000 5.0000 0 0 0 69.4118 5.7555 L 58.2353 -15.2004 A 15.0000 15.0000 0 0 0 31.7647 -15.2004 L 20.5882 5.7555 A 5.0000 5.0000 0 0 0 20.0000 8.1084 L 20.0000 11.8584 L 20.0000 15.0000 L 19.5000 15.0000 A 0.5000 0.5000 0 0 1 19.0000 14.5000 L 19.0000 0.0000 L 0.0000 0.0000 L -3.1416 0.0000 L -8.1416 0.0000 A 5.0000 5.0000 0 0 0 -13.1416 5.0000 L -13.1416 45.0000 A 5.0000 5.0000 0 0 0 -8.1416 50.0000 L -3.1416 50.0000 L 0.0000 50.0000 Z" stroke="green" stroke-width="1" fill="none" /><path d="M 0.0000 50.0000 L 19.0000 50.0000 L 19.0000 35.5000 A 0.5000 0.5000 0 0 1 19.5000 35.0000 L 20.0000 35.0000 L 20.0000 38.1416 L 20.0000 41.8916 A 5.0000 5.0000 0 0 0 20.5882 44.2445 L 31.7647 65.2004 A 15.0000 15.0000 0 0 0 58.2353 65.2004 L 69.4118 44.2445 A 5.0000 5.0000 0 0 0 70.0000 41.8916 L 70.0000 38.1416 L 70.0000 35.0000 L 70.5000 35.0000 A 0.5000 0.5000 0 0 1 71.0000 35.5000 L 71.0000 50.0000 L 90.0000 50.0000 L 93.1416 50.0000 L 98.1416 50.0000 A 5.0000 5.0000 0 0 0 103.1416 45.0000 L 103.1416 5.0000 A 5.0000 5.0000 0 0 0 98.1416 0.0000 L 93.1416 0.0000 L 90.0000 0.0000 L 71.0000 0.0000 L 71.0000 14.5000 A 0.5000 0.5000 0 0 1 70.5000 15.0000 L 70.0000 15.0000 L 70.0000 11.8584 L 70.0000 8.1084 A 5.0000 5.0000 0 0 0 69.4118 5.7555 L 58.2353 -15.2004 A 15.0000 15.0000 0 0 0 31.7647 -15.2004 L 20.5882 5.7555 A 5.0000 5.0000 0 0 0 20.0000 8.1084 L 20.0000 11.8584 L 20.0000 15.0000 L 19.5000 15.0000 A 0.5000 0.5000 0 0 1 19.0000 14.5000 L 19.0000 0.0000 L 0.0000 0.0000 L -3.1416 0.0000 L -8.1416 0.0000 A 5.0000 5.0000 0 0 0 -13.1416 5.0000 L -13.1416 45.0000 A 5.0000 5.0000 0 0 0 -8.1416 50.0000 L -3.1416 50.0000 L 0.0000 50.0000 Z" stroke="green" stroke-width="1" fill="none" /><circle cx="10.0000" cy="40.0000" r="3.0000" stroke="green" stroke-width="1" fill="none" /><circle cx="10.0000" cy="10.0000" r="3.0000" stroke="green" stroke-width="1" fill="none" /><circle cx="80.0000" cy="40.0000" r="3.0000" stroke="green" stroke-width="1" fill="none" /><circle cx="80.0000" cy="10.0000" r="3.0000" stroke="green" stroke-width="1" fill="none" /><circle cx="45.0000" cy="58.1416" r="8.0000" stroke="green" stroke-width="1" fill="none" /><path d="M 69.0500 40.1416 L 62.6167 40.1416 A 0.4500 0.4500 0 0 0 62.1667 40.5916 L 62.1667 40.6916 A 0.4500 0.4500 0 0 0 62.6167 41.1416 L 69.0500 41.1416 A 0.4500 0.4500 0 0 0 69.5000 40.6916 L 69.5000 40.5916 A 0.4500 0.4500 0 0 0 69.0500 40.1416 Z" stroke="green" stroke-width="1" fill="none" /><path d="M 60.7167 40.1416 L 45.9500 40.1416 A 0.4500 0.4500 0 0 0 45.5000 40.5916 L 45.5000 40.6916 A 0.4500 0.4500 0 0 0 45.9500 41.1416 L 60.7167 41.1416 A 0.4500 0.4500 0 0 0 61.1667 40.6916 L 61.1667 40.5916 A 0.4500 0.4500 0 0 0 60.7167 40.1416 Z" stroke="green" stroke-width="1" fill="none" /><path d="M 44.0500 40.1416 L 29.2833 40.1416 A 0.4500 0.4500 0 0 0 28.8333 40.5916 L 28.8333 40.6916 A 0.4500 0.4500 0 0 0 29.2833 41.1416 L 44.0500 41.1416 A 0.4500 0.4500 0 0 0 44.5000 40.6916 L 44.5000 40.5916 A 0.4500 0.4500 0 0 0 44.0500 40.1416 Z" stroke="green" stroke-width="1" fill="none" /><path d="M 27.3833 40.1416 L 20.9500 40.1416 A 0.4500 0.4500 0 0 0 20.5000 40.5916 L 20.5000 40.6916 A 0.4500 0.4500 0 0 0 20.9500 41.1416 L 27.3833 41.1416 A 0.4500 0.4500 0 0 0 27.8333 40.6916 L 27.8333 40.5916 A 0.4500 0.4500 0 0 0 27.3833 40.1416 Z" stroke="green" stroke-width="1" fill="none" /><path d="M 69.0500 42.1416 L 54.2833 42.1416 A 0.4500 0.4500 0 0 0 53.8333 42.5916 L 53.8333 42.6916 A 0.4500 0.4500 0 0 0 54.2833 43.1416 L 69.0500 43.1416 A 0.4500 0.4500 0 0 0 69.5000 42.6916 L 69.5000 42.5916 A 0.4500 0.4500 0 0 0 69.0500 42.1416 Z" stroke="green" stroke-width="1" fill="none" /><path d="M 52.3833 42.1416 L 37.6167 42.1416 A 0.4500 0.4500 0 0 0 37.1667 42.5916 L 37.1667 42.6916 A 0.4500 0.4500 0 0 0 37.6167 43.1416 L 52.3833 43.1416 A 0.4500 0.4500 0 0 0 52.8333 42.6916 L 52.8333 42.5916 A 0.4500 0.4500 0 0 0 52.3833 42.1416 Z" stroke="green" stroke-width="1" fill="none" /><path d="M 35.7167 42.1416 L 20.9500 42.1416 A 0.4500 0.4500 0 0 0 20.5000 42.5916 L 20.5000 42.6916 A 0.4500 0.4500 0 0 0 20.9500 43.1416 L 35.7167 43.1416 A 0.4500 0.4500 0 0 0 36.1667 42.6916 L 36.1667 42.5916 A 0.4500 0.4500 0 0 0 35.7167 42.1416 Z" stroke="green" stroke-width="1" fill="none" /><path d="M 68.2500 44.1416 L 62.0833 44.1416 A 0.4500 0.4500 0 0 0 61.6333 44.5916 L 61.6333 44.6916 A 0.4500 0.4500 0 0 0 62.0833 45.1416 L 68.2500 45.1416 A 0.4500 0.4500 0 0 0 68.7000 44.6916 L 68.7000 44.5916 A 0.4500 0.4500 0 0 0 68.2500 44.1416 Z" stroke="green" stroke-width="1" fill="none" /><path d="M 60.1833 44.1416 L 45.9500 44.1416 A 0.4500 0.4500 0 0 0 45.5000 44.5916 L 45.5000 44.6916 A 0.4500 0.4500 0 0 0 45.9500 45.1416 L 60.1833 45.1416 A 0.4500 0.4500 0 0 0 60.6333 44.6916 L 60.6333 44.5916 A 0.4500 0.4500 0 0 0 60.1833 44.1416 Z" stroke="green" stroke-width="1" fill="none" /><path d="M 44.0500 44.1416 L 29.8167 44.1416 A 0.4500 0.4500 0 0 0 29.3667 44.5916 L 29.3667 44.6916 A 0.4500 0.4500 0 0 0 29.8167 45.1416 L 44.0500 45.1416 A 0.4500 0.4500 0 0 0 44.5000 44.6916 L 44.5000 44.5916 A 0.4500 0.4500 0 0 0 44.0500 44.1416 Z" stroke="green" stroke-width="1" fill="none" /><path d="M 27.9167 44.1416 L 21.7500 44.1416 A 0.4500 0.4500 0 0 0 21.3000 44.5916 L 21.3000 44.6916 A 0.4500 0.4500 0 0 0 21.7500 45.1416 L 27.9167 45.1416 A 0.4500 0.4500 0 0 0 28.3667 44.6916 L 28.3667 44.5916 A 0.4500 0.4500 0 0 0 27.9167 44.1416 Z" stroke="green" stroke-width="1" fill="none" /><path d="M 67.1833 46.1416 L 53.6611 46.1416 A 0.4500 0.4500 0 0 0 53.2111 46.5916 L 53.2111 46.6916 A 0.4500 0.4500 0 0 0 53.6611 47.1416 L 67.1833 47.1416 A 0.4500 0.4500 0 0 0 67.6333 46.6916 L 67.6333 46.5916 A 0.4500 0.4500 0 0 0 67.1833 46.1416 Z" stroke="green" stroke-width="1" fill="none" /><path d="M 51.7611 46.1416 L 38.2389 46.1416 A 0.4500 0.4500 0 0 0 37.7889 46.5916 L 37.7889 46.6916 A 0.4500 0.4500 0 0 0 38.2389 47.1416 L 51.7611 47.1416 A 0.4500 0.4500 0 0 0 52.2111 46.6916 L 52.2111 46.5916 A 0.4500 0.4500 0 0 0 51.7611 46.1416 Z" stroke="green" stroke-width="1" fill="none" /><path d="M 36.3389 46.1416 L 22.8167 46.1416 A 0.4500 0.4500 0 0 0 22.3667 46.5916 L 22.3667 46.6916 A 0.4500 0.4500 0 0 0 22.8167 47.1416 L 36.3389 47.1416 A 0.4500 0.4500 0 0 0 36.7889 46.6916 L 36.7889 46.5916 A 0.4500 0.4500 0 0 0 36.3389 46.1416 Z" stroke="green" stroke-width="1" fill="none" /><circle cx="45.0000" cy="-8.1416" r="8.0000" stroke="green" stroke-width="1" fill="none" /><path d="M 20.9500 9.8584 L 27.3833 9.8584 A 0.4500 0.4500 0 0 0 27.8333 9.4084 L 27.8333 9.3084 A 0.4500 0.4500 0 0 0 27.3833 8.8584 L 20.9500 8.8584 A 0.4500 0.4500 0 0 0 20.5000 9.3084 L 20.5000 9.4084 A 0.4500 0.4500 0 0 0 20.9500 9.8584 Z" stroke="green" stroke-width="1" fill="none" /><path d="M 29.2833 9.8584 L 44.0500 9.8584 A 0.4500 0.4500 0 0 0 44.5000 9.4084 L 44.5000 9.3084 A 0.4500 0.4500 0 0 0 44.0500 8.8584 L 29.2833 8.8584 A 0.4500 0.4500 0 0 0 28.8333 9.3084 L 28.8333 9.4084 A 0.4500 0.4500 0 0 0 29.2833 9.8584 Z" stroke="green" stroke-width="1" fill="none" /><path d="M 45.9500 9.8584 L 60.7167 9.8584 A 0.4500 0.4500 0 0 0 61.1667 9.4084 L 61.1667 9.3084 A 0.4500 0.4500 0 0 0 60.7167 8.8584 L 45.9500 8.8584 A 0.4500 0.4500 0 0 0 45.5000 9.3084 L 45.5000 9.4084 A 0.4500 0.4500 0 0 0 45.9500 9.8584 Z" stroke="green" stroke-width="1" fill="none" /><path d="M 62.6167 9.8584 L 69.0500 9.8584 A 0.4500 0.4500 0 0 0 69.5000 9.4084 L 69.5000 9.3084 A 0.4500 0.4500 0 0 0 69.0500 8.8584 L 62.6167 8.8584 A 0.4500 0.4500 0 0 0 62.1667 9.3084 L 62.1667 9.4084 A 0.4500 0.4500 0 0 0 62.6167 9.8584 Z" stroke="green" stroke-width="1" fill="none" /><path d="M 20.9500 7.8584 L 35.7167 7.8584 A 0.4500 0.4500 0 0 0 36.1667 7.4084 L 36.1667 7.3084 A 0.4500 0.4500 0 0 0 35.7167 6.8584 L 20.9500 6.8584 A 0.4500 0.4500 0 0 0 20.5000 7.3084 L 20.5000 7.4084 A 0.4500 0.4500 0 0 0 20.9500 7.8584 Z" stroke="green" stroke-width="1" fill="none" /><path d="M 37.6167 7.8584 L 52.3833 7.8584 A 0.4500 0.4500 0 0 0 52.8333 7.4084 L 52.8333 7.3084 A 0.4500 0.4500 0 0 0 52.3833 6.8584 L 37.6167 6.8584 A 0.4500 0.4500 0 0 0 37.1667 7.3084 L 37.1667 7.4084 A 0.4500 0.4500 0 0 0 37.6167 7.8584 Z" stroke="green" stroke-width="1" fill="none" /><path d="M 54.2833 7.8584 L 69.0500 7.8584 A 0.4500 0.4500 0 0 0 69.5000 7.4084 L 69.5000 7.3084 A 0.4500 0.4500 0 0 0 69.0500 6.8584 L 54.2833 6.8584 A 0.4500 0.4500 0 0 0 53.8333 7.3084 L 53.8333 7.4084 A 0.4500 0.4500 0 0 0 54.2833 7.8584 Z" stroke="green" stroke-width="1" fill="none" /><path d="M 21.7500 5.8584 L 27.9167 5.8584 A 0.4500 0.4500 0 0 0 28.3667 5.4084 L 28.3667 5.3084 A 0.4500 0.4500 0 0 0 27.9167 4.8584 L 21.7500 4.8584 A 0.4500 0.4500 0 0 0 21.3000 5.3084 L 21.3000 5.4084 A 0.4500 0.4500 0 0 0 21.7500 5.8584 Z" stroke="green" stroke-width="1" fill="none" /><path d="M 29.8167 5.8584 L 44.0500 5.8584 A 0.4500 0.4500 0 0 0 44.5000 5.4084 L 44.5000 5.3084 A 0.4500 0.4500 0 0 0 44.0500 4.8584 L 29.8167 4.8584 A 0.4500 0.4500 0 0 0 29.3667 5.3084 L 29.3667 5.4084 A 0.4500 0.4500 0 0 0 29.8167 5.8584 Z" stroke="green" stroke-width="1" fill="none" /><path d="M 45.9500 5.8584 L 60.1833 5.8584 A 0.4500 0.4500 0 0 0 60.6333 5.4084 L 60.6333 5.3084 A 0.4500 0.4500 0 0 0 60.1833 4.8584 L 45.9500 4.8584 A 0.4500 0.4500 0 0 0 45.5000 5.3084 L 45.5000 5.4084 A 0.4500 0.4500 0 0 0 45.9500 5.8584 Z" stroke="green" stroke-width="1" fill="none" /><path d="M 62.0833 5.8584 L 68.2500 5.8584 A 0.4500 0.4500 0 0 0 68.7000 5.4084 L 68.7000 5.3084 A 0.4500 0.4500 0 0 0 68.2500 4.8584 L 62.0833 4.8584 A 0.4500 0.4500 0 0 0 61.6333 5.3084 L 61.6333 5.4084 A 0.4500 0.4500 0 0 0 62.0833 5.8584 Z" stroke="green" stroke-width="1" fill="none" /><path d="M 22.8167 3.8584 L 36.3389 3.8584 A 0.4500 0.4500 0 0 0 36.7889 3.4084 L 36.7889 3.3084 A 0.4500 0.4500 0 0 0 36.3389 2.8584 L 22.8167 2.8584 A 0.4500 0.4500 0 0 0 22.3667 3.3084 L 22.3667 3.4084 A 0.4500 0.4500 0 0 0 22.8167 3.8584 Z" stroke="green" stroke-width="1" fill="none" /><path d="M 38.2389 3.8584 L 51.7611 3.8584 A 0.4500 0.4500 0 0 0 52.2111 3.4084 L 52.2111 3.3084 A 0.4500 0.4500 0 0 0 51.7611 2.8584 L 38.2389 2.8584 A 0.4500 0.4500 0 0 0 37.7889 3.3084 L 37.7889 3.4084 A 0.4500 0.4500 0 0 0 38.2389 3.8584 Z" stroke="green" stroke-width="1" fill="none" /><path d="M 53.6611 3.8584 L 67.1833 3.8584 A 0.4500 0.4500 0 0 0 67.6333 3.4084 L 67.6333 3.3084 A 0.4500 0.4500 0 0 0 67.1833 2.8584 L 53.6611 2.8584 A 0.4500 0.4500 0 0 0 53.2111 3.3084 L 53.2111 3.4084 A 0.4500 0.4500 0 0 0 53.6611 3.8584 Z" stroke="green" stroke-width="1" fill="none" /><path d="M 44.0000 37.1416 A 1.0000 1.0000 0 0 0 46.0000 37.1416 L 46.0000 36.0000 A 1.0000 1.0000 0 0 0 44.0000 36.0000 L 44.0000 37.1416 Z" stroke="green" stroke-width="1" fill="none" /><path d="M 92.1416 26.0000 A 1.0000 1.0000 0 0 0 92.1416 24.0000 L 91.0000 24.0000 A 1.0000 1.0000 0 0 0 91.0000 26.0000 L 92.1416 26.0000 Z" stroke="green" stroke-width="1" fill="none" /><path d="M 46.0000 12.8584 A 1.0000 1.0000 0 0 0 44.0000 12.8584 L 44.0000 14.0000 A 1.0000 1.0000 0 0 0 46.0000 14.0000 L 46.0000 12.8584 Z" stroke="green" stroke-width="1" fill="none" /><path d="M -2.1416 24.0000 A 1.0000 1.0000 0 0 0 -2.1416 26.0000 L -1.0000 26.0000 A 1.0000 1.0000 0 0 0 -1.0000 24.0000 L -2.1416 24.0000 Z" stroke="green" stroke-width="1" fill="none" /></svg>