0
SECTION
2
ENTITIES
0
LINE
8
PARAMETRIX
10
0.0000
20
50.0000
11
0.0000
21
0.0000
0
LINE
8
PARAMETRIX
10
0.0000
20
0.0000
11
3.7500
21
0.0000
0
ARC
8
PARAMETRIX
10
3.7500
20
5.0000
40
5.0000
50
270.0000
51
298.0725
0
LINE
8
PARAMETRIX
10
6.1029
20
0.5882
11
27.0588
21
11.7647
0
ARC
8
PARAMETRIX
10
20.0000
20
25.0000
40
15.0000
50
298.0725
51
61.9275
0
LINE
8
PARAMETRIX
10
27.0588
20
38.2353
11
6.1029
21
49.4118
0
ARC
8
PARAMETRIX
10
3.7500
20
45.0000
40
5.0000
50
61.9275
51
90.0000
0
LINE
8
PARAMETRIX
10
3.7500
20
50.0000
11
0.0000
21
50.0000
0
CIRCLE
8
PARAMETRIX
10
20.0000
20
25.0000
40
8.0000
0
LINE
8
PARAMETRIX
10
2.0000
20
49.0500
11
2.0000
21
42.6167
0
ARC
8
PARAMETRIX
10
2.4500
20
42.6167
40
0.4500
50
180.0000
51
270.0000
0
LINE
8
PARAMETRIX
10
2.4500
20
42.1667
11
2.5500
21
42.1667
0
ARC
8
PARAMETRIX
10
2.5500
20
42.6167
40
0.4500
50
270.0000
51
0.0000
0
LINE
8
PARAMETRIX
10
3.0000
20
42.6167
11
3.0000
21
49.0500
0
ARC
8
PARAMETRIX
10
2.5500
20
49.0500
40
0.4500
50
0.0000
51
90.0000
0
LINE
8
PARAMETRIX
10
2.5500
20
49.5000
11
2.4500
21
49.5000
0
ARC
8
PARAMETRIX
10
2.4500
20
49.0500
40
0.4500
50
90.0000
51
180.0000
0
LINE
8
PARAMETRIX
10
2.0000
20
40.7167
11
2.0000
21
25.9500
0
ARC
8
PARAMETRIX
10
2.4500
20
25.9500
40
0.4500
50
180.0000
51
270.0000
0
LINE
8
PARAMETRIX
10
2.4500
20
25.5000
11
2.5500
21
25.5000
0
ARC
8
PARAMETRIX
10
2.5500
20
25.9500
40
0.4500
50
270.0000
51
360.0000
0
LINE
8
PARAMETRIX
10
3.0000
20
25.9500
11
3.0000
21
40.7167
0
ARC
8
PARAMETRIX
10
2.5500
20
40.7167
40
0.4500
50
0.0000
51
90.0000
0
LINE
8
PARAMETRIX
10
2.5500
20
41.1667
11
2.4500
21
41.1667
0
ARC
8
PARAMETRIX
10
2.4500
20
40.7167
40
0.4500
50
90.0000
51
180.0000
0
LINE
8
PARAMETRIX
10
2.0000
20
24.0500
11
2.0000
21
9.2833
0
ARC
8
PARAMETRIX
10
2.4500
20
9.2833
40
0.4500
50
180.0000
51
270.0000
0
LINE
8
PARAMETRIX
10
2.4500
20
8.8333
11
2.5500
21
8.8333
0
ARC
8
PARAMETRIX
10
2.5500
20
9.2833
40
0.4500
50
270.0000
51
0.0000
0
LINE
8
PARAMETRIX
10
3.0000
20
9.2833
11
3.0000
21
24.0500
0
ARC
8
PARAMETRIX
10
2.5500
20
24.0500
40
0.4500
50
0.0000
51
90.0000
0
LINE
8
PARAMETRIX
10
2.5500
20
24.5000
11
2.4500
21
24.5000
0
ARC
8
PARAMETRIX
10
2.4500
20
24.0500
40
0.4500
50
90.0000
51
180.0000
0
LINE
8
PARAMETRIX
10
2.0000
20
7.3833
11
2.0000
21
0.9500
0
ARC
8
PARAMETRIX
10
2.4500
20
0.9500
40
0.4500
50
180.0000
51
270.0000
0
LINE
8
PARAMETRIX
10
2.4500
20
0.5000
11
2.5500
21
0.5000
0
ARC
8
PARAMETRIX
10
2.5500
20
0.9500
40
0.4500
50
270.0000
51
0.0000
0
LINE
8
PARAMETRIX
10
3.0000
20
0.9500
11
3.0000
21
7.3833
0
ARC
8
PARAMETRIX
10
2.5500
20
7.3833
40
0.4500
50
360.0000
51
90.0000
0
LINE
8
PARAMETRIX
10
2.5500
20
7.8333
11
2.4500
21
7.8333
0
ARC
8
PARAMETRIX
10
2.4500
20
7.3833
40
0.4500
50
90.0000
51
180.0000
0
LINE
8
PARAMETRIX
10
4.0000
20
49.0500
11
4.0000
21
34.2833
0
ARC
8
PARAMETRIX
10
4.4500
20
34.2833
40
0.4500
50
180.0000
51
270.0000
0
LINE
8
PARAMETRIX
10
4.4500
20
33.8333
11
4.5500
21
33.8333
0
ARC
8
PARAMETRIX
10
4.5500
20
34.2833
40
0.4500
50
270.0000
51
0.0000
0
LINE
8
PARAMETRIX
10
5.0000
20
34.2833
11
5.0000
21
49.0500
0
ARC
8
PARAMETRIX
10
4.5500
20
49.0500
40
0.4500
50
0.0000
51
90.0000
0
LINE
8
PARAMETRIX
10
4.5500
20
49.5000
11
4.4500
21
49.5000
0
ARC
8
PARAMETRIX
10
4.4500
20
49.0500
40
0.4500
50
90.0000
51
180.0000
0
LINE
8
PARAMETRIX
10
4.0000
20
32.3833
11
4.0000
21
17.6167
0
ARC
8
PARAMETRIX
10
4.4500
20
17.6167
40
0.4500
50
180.0000
51
270.0000
0
LINE
8
PARAMETRIX
10
4.4500
20
17.1667
11
4.5500
21
17.1667
0
ARC
8
PARAMETRIX
10
4.5500
20
17.6167
40
0.4500
50
270.0000
51
0.0000
0
LINE
8
PARAMETRIX
10
5.0000
20
17.6167
11
5.0000
21
32.3833
0
ARC
8
PARAMETRIX
10
4.5500
20
32.3833
40
0.4500
50
0.0000
51
90.0000
0
LINE
8
PARAMETRIX
10
4.5500
20
32.8333
11
4.4500
21
32.8333
0
ARC
8
PARAMETRIX
10
4.4500
20
32.3833
40
0.4500
50
90.0000
51
180.0000
0
LINE
8
PARAMETRIX
10
4.0000
20
15.7167
11
4.0000
21
0.9500
0
ARC
8
PARAMETRIX
10
4.4500
20
0.9500
40
0.4500
50
180.0000
51
270.0000
0
LINE
8
PARAMETRIX
10
4.4500
20
0.5000
11
4.5500
21
0.5000
0
ARC
8
PARAMETRIX
10
4.5500
20
0.9500
40
0.4500
50
270.0000
51
0.0000
0
LINE
8
PARAMETRIX
10
5.0000
20
0.9500
11
5.0000
21
15.7167
0
ARC
8
PARAMETRIX
10
4.5500
20
15.7167
40
0.4500
50
0.0000
51
90.0000
0
LINE
8
PARAMETRIX
10
4.5500
20
16.1667
11
4.4500
21
16.1667
0
ARC
8
PARAMETRIX
10
4.4500
20
15.7167
40
0.4500
50
90.0000
51
180.0000
0
LINE
8
PARAMETRIX
10
6.0000
20
48.2500
11
6.0000
21
42.0833
0
ARC
8
PARAMETRIX
10
6.4500
20
42.0833
40
0.4500
50
180.0000
51
270.0000
0
LINE
8
PARAMETRIX
10
6.4500
20
41.6333
11
6.5500
21
41.6333
0
ARC
8
PARAMETRIX
10
6.5500
20
42.0833
40
0.4500
50
270.0000
51
0.0000
0
LINE
8
PARAMETRIX
10
7.0000
20
42.0833
11
7.0000
21
48.2500
0
ARC
8
PARAMETRIX
10
6.5500
20
48.2500
40
0.4500
50
0.0000
51
90.0000
0
LINE
8
PARAMETRIX
10
6.5500
20
48.7000
11
6.4500
21
48.7000
0
ARC
8
PARAMETRIX
10
6.4500
20
48.2500
40
0.4500
50
90.0000
51
180.0000
0
LINE
8
PARAMETRIX
10
6.0000
20
40.1833
11
6.0000
21
25.9500
0
ARC
8
PARAMETRIX
10
6.4500
20
25.9500
40
0.4500
50
180.0000
51
270.0000
0
LINE
8
PARAMETRIX
10
6.4500
20
25.5000
11
6.5500
21
25.5000
0
ARC
8
PARAMETRIX
10
6.5500
20
25.9500
40
0.4500
50
270.0000
51
0.0000
0
LINE
8
PARAMETRIX
10
7.0000
20
25.9500
11
7.0000
21
40.1833
0
ARC
8
PARAMETRIX
10
6.5500
20
40.1833
40
0.4500
50
0.0000
51
90.0000
0
LINE
8
PARAMETRIX
10
6.5500
20
40.6333
11
6.4500
21
40.6333
0
ARC
8
PARAMETRIX
10
6.4500
20
40.1833
40
0.4500
50
90.0000
51
180.0000
0
LINE
8
PARAMETRIX
10
6.0000
20
24.0500
11
6.0000
21
9.8167
0
ARC
8
PARAMETRIX
10
6.4500
20
9.8167
40
0.4500
50
180.0000
51
270.0000
0
LINE
8
PARAMETRIX
10
6.4500
20
9.3667
11
6.5500
21
9.3667
0
ARC
8
PARAMETRIX
10
6.5500
20
9.8167
40
0.4500
50
270.0000
51
0.0000
0
LINE
8
PARAMETRIX
10
7.0000
20
9.8167
11
7.0000
21
24.0500
0
ARC
8
PARAMETRIX
10
6.5500
20
24.0500
40
0.4500
50
0.0000
51
90.0000
0
LINE
8
PARAMETRIX
10
6.5500
20
24.5000
11
6.4500
21
24.5000
0
ARC
8
PARAMETRIX
10
6.4500
20
24.0500
40
0.4500
50
90.0000
51
180.0000
0
LINE
8
PARAMETRIX
10
6.0000
20
7.9167
11
6.0000
21
1.7500
0
ARC
8
PARAMETRIX
10
6.4500
20
1.7500
40
0.4500
50
180.0000
51
270.0000
0
LINE
8
PARAMETRIX
10
6.4500
20
1.3000
11
6.5500
21
1.3000
0
ARC
8
PARAMETRIX
10
6.5500
20
1.7500
40
0.4500
50
270.0000
51
0.0000
0
LINE
8
PARAMETRIX
10
7.0000
20
1.7500
11
7.0000
21
7.9167
0
ARC
8
PARAMETRIX
10
6.5500
20
7.9167
40
0.4500
50
0.0000
51
90.0000
0
LINE
8
PARAMETRIX
10
6.5500
20
8.3667
11
6.4500
21
8.3667
0
ARC
8
PARAMETRIX
10
6.4500
20
7.9167
40
0.4500
50
90.0000
51
180.0000
0
LINE
8
PARAMETRIX
10
8.0000
20
47.1833
11
8.0000
21
33.6611
0
ARC
8
PARAMETRIX
10
8.4500
20
33.6611
40
0.4500
50
180.0000
51
270.0000
0
LINE
8
PARAMETRIX
10
8.4500
20
33.2111
11
8.5500
21
33.2111
0
ARC
8
PARAMETRIX
10
8.5500
20
33.6611
40
0.4500
50
270.0000
51
0.0000
0
LINE
8
PARAMETRIX
10
9.0000
20
33.6611
11
9.0000
21
47.1833
0
ARC
8
PARAMETRIX
10
8.5500
20
47.1833
40
0.4500
50
0.0000
51
90.0000
0
LINE
8
PARAMETRIX
10
8.5500
20
47.6333
11
8.4500
21
47.6333
0
ARC
8
PARAMETRIX
10
8.4500
20
47.1833
40
0.4500
50
90.0000
51
180.0000
0
LINE
8
PARAMETRIX
10
8.0000
20
31.7611
11
8.0000
21
18.2389
0
ARC
8
PARAMETRIX
10
8.4500
20
18.2389
40
0.4500
50
180.0000
51
270.0000
0
LINE
8
PARAMETRIX
10
8.4500
20
17.7889
11
8.5500
21
17.7889
0
ARC
8
PARAMETRIX
10
8.5500
20
18.2389
40
0.4500
50
270.0000
51
0.0000
0
LINE
8
PARAMETRIX
10
9.0000
20
18.2389
11
9.0000
21
31.7611
0
ARC
8
PARAMETRIX
10
8.5500
20
31.7611
40
0.4500
50
0.0000
51
90.0000
0
LINE
8
PARAMETRIX
10
8.5500
20
32.2111
11
8.4500
21
32.2111
0
ARC
8
PARAMETRIX
10
8.4500
20
31.7611
40
0.4500
50
90.0000
51
180.0000
0
LINE
8
PARAMETRIX
10
8.0000
20
16.3389
11
8.0000
21
2.8167
0
ARC
8
PARAMETRIX
10
8.4500
20
2.8167
40
0.4500
50
180.0000
51
270.0000
0
LINE
8
PARAMETRIX
10
8.4500
20
2.3667
11
8.5500
21
2.3667
0
ARC
8
PARAMETRIX
10
8.5500
20
2.8167
40
0.4500
50
270.0000
51
0.0000
0
LINE
8
PARAMETRIX
10
9.0000
20
2.8167
11
9.0000
21
16.3389
0
ARC
8
PARAMETRIX
10
8.5500
20
16.3389
40
0.4500
50
0.0000
51
90.0000
0
LINE
8
PARAMETRIX
10
8.5500
20
16.7889
11
8.4500
21
16.7889
0
ARC
8
PARAMETRIX
10
8.4500
20
16.3389
40
0.4500
50
90.0000
51
180.0000
0
ENDSEC
0
EOF
