<svg width="115" height="84" viewBox="-8 -4 115 84" xmlns="http://www.w3.org/2000/svg"><path d="M 0.0000 67.5000 L 20.0000 67.5000 L 20.0000 66.5000 L 0.0000 66.5000 L 0.0000 67.5000 Z" stroke="green" stroke-width="1" fill="none" /><path d="M 20.0000 67.5000 A 2.5000 2.5000 0 0 0 22.5000 65.0000 L 21.5000 65.0000 A 1.5000 1.5000 0 0 1 20.0000 66.5000 L 20.0000 67.5000 Z" stroke="green" stroke-width="1" fill="none" /><path d="M 22.5000 65.0000 L 22.5000 30.0000 L 21.5000 30.0000 L 21.5000 65.0000 L 22.5000 65.0000 Z" stroke="green" stroke-width="1" fill="none" /><path d="M 0.0000 66.5000 A 1.5000 1.5000 0 0 1 -1.5000 65.0000 L -2.5000 65.0000 A 2.5000 2.5000 0 0 0 -0.0000 67.5000 L 0.0000 66.5000 Z" stroke="green" stroke-width="1" fill="none" /><path d="M -1.5000 65.0000 L -1.5000 30.0000 L -2.5000 30.0000 L -2.5000 65.0000 L -1.5000 65.0000 Z" stroke="green" stroke-width="1" fill="none" /><path d="M 0.0000 12.5000 L 90.0000 12.5000 L 90.0000 11.5000 L 0.0000 11.5000 L 0.0000 12.5000 Z" stroke="green" stroke-width="1" fill="none" /><path d="M 90.0000 12.5000 A 2.5000 2.5000 0 0 0 92.5000 10.0000 L 91.5000 10.0000 A 1.5000 1.5000 0 0 1 90.0000 11.5000 L 90.0000 12.5000 Z" stroke="green" stroke-width="1" fill="none" /><path d="M 92.5000 10.0000 L 92.5000 0.0000 L 91.5000 0.0000 L 91.5000 10.0000 L 92.5000 10.0000 Z" stroke="green" stroke-width="1" fill="none" /><path d="M 0.0000 11.5000 A 1.5000 1.5000 0 0 1 -1.5000 10.0000 L -2.5000 10.0000 A 2.5000 2.5000 0 0 0 -0.0000 12.5000 L 0.0000 11.5000 Z" stroke="green" stroke-width="1" fill="none" /><path d="M -1.5000 10.0000 L -1.5000 0.0000 L -2.5000 0.0000 L -2.5000 10.0000 L -1.5000 10.0000 Z" stroke="green" stroke-width="1" fill="none" /></svg>