<svg width="109" height="65" viewBox="-5 -3 109 65" xmlns="http://www.w3.org/2000/svg"><path d="M 0.0000 50.0000 L 19.0000 50.0000 L 19.0000 35.5000 A 0.5000 0.5000 0 0 1 19.5000 35.0000 L 20.0000 35.0000 L 70.0000 35.0000 L 70.5000 35.0000 A 0.5000 0.5000 0 0 1 71.0000 35.5000 L 71.0000 50.0000 L 90.0000 50.0000 L 90.0000 0.0000 L 71.0000 0.0000 L 71.0000 14.5000 A 0.5000 0.5000 0 0 1 70.5000 15.0000 L 70.0000 15.0000 L 20.0000 15.0000 L 19.5000 15.0000 A 0.5000 0.5000 0 0 1 19.0000 14.5000 L 19.0000 0.0000 L 0.0000 0.0000 L 0.0000 50.0000 Z" stroke="green" stroke-width="1" fill="none" /><circle cx="10.0000" cy="40.0000" r="3.0000" stroke="green" stroke-width="1" fill="none" /><circle cx="10.0000" cy="10.0000" r="3.0000" stroke="green" stroke-width="1" fill="none" /><circle cx="80.0000" cy="40.0000" r="3.0000" stroke="green" stroke-width="1" fill="none" /><circle cx="80.0000" cy="10.0000" r="3.0000" stroke="green" stroke-width="1" fill="none" /></svg>