0
SECTION
2
ENTITIES
0
CIRCLE
8
PARAMETRIX
10
0.0000
20
0.0000
40
42.0000
0
CIRCLE
8
PARAMETRIX
10
0.0000
20
0.0000
40
8.0000
0
CIRCLE
8
PARAMETRIX
10
10.0000
20
0.0000
40
1.0000
0
CIRCLE
8
PARAMETRIX
10
9.2388
20
3.8268
40
1.0000
0
CIRCLE
8
PARAMETRIX
10
7.0711
20
7.0711
40
1.0000
0
CIRCLE
8
PARAMETRIX
10
3.8268
20
9.2388
40
1.0000
0
CIRCLE
8
PARAMETRIX
10
0.0000
20
10.0000
40
1.0000
0
CIRCLE
8
PARAMETRIX
10
-3.8268
20
9.2388
40
1.0000
0
CIRCLE
8
PARAMETRIX
10
-7.0711
20
7.0711
40
1.0000
0
CIRCLE
8
PARAMETRIX
10
-9.2388
20
3.8268
40
1.0000
0
CIRCLE
8
PARAMETRIX
10
-10.0000
20
0.0000
40
1.0000
0
CIRCLE
8
PARAMETRIX
10
-9.2388
20
-3.8268
40
1.0000
0
CIRCLE
8
PARAMETRIX
10
-7.0711
20
-7.0711
40
1.0000
0
CIRCLE
8
PARAMETRIX
10
-3.8268
20
-9.2388
40
1.0000
0
CIRCLE
8
PARAMETRIX
10
-0.0000
20
-10.0000
40
1.0000
0
CIRCLE
8
PARAMETRIX
10
3.8268
20
-9.2388
40
1.0000
0
CIRCLE
8
PARAMETRIX
10
7.0711
20
-7.0711
40
1.0000
0
CIRCLE
8
PARAMETRIX
10
9.2388
20
-3.8268
40
1.0000
0
CIRCLE
8
PARAMETRIX
10
40.0000
20
0.0000
40
1.0000
0
CIRCLE
8
PARAMETRIX
10
36.9552
20
15.3073
40
1.0000
0
CIRCLE
8
PARAMETRIX
10
28.2843
20
28.2843
40
1.0000
0
CIRCLE
8
PARAMETRIX
10
15.3073
20
36.9552
40
1.0000
0
CIRCLE
8
PARAMETRIX
10
0.0000
20
40.0000
40
1.0000
0
CIRCLE
8
PARAMETRIX
10
-15.3073
20
36.9552
40
1.0000
0
CIRCLE
8
PARAMETRIX
10
-28.2843
20
28.2843
40
1.0000
0
CIRCLE
8
PARAMETRIX
10
-36.9552
20
15.3073
40
1.0000
0
CIRCLE
8
PARAMETRIX
10
-40.0000
20
0.0000
40
1.0000
0
CIRCLE
8
PARAMETRIX
10
-36.9552
20
-15.3073
40
1.0000
0
CIRCLE
8
PARAMETRIX
10
-28.2843
20
-28.2843
40
1.0000
0
CIRCLE
8
PARAMETRIX
10
-15.3073
20
-36.9552
40
1.0000
0
CIRCLE
8
PARAMETRIX
10
-0.0000
20
-40.0000
40
1.0000
0
CIRCLE
8
PARAMETRIX
10
15.3073
20
-36.9552
40
1.0000
0
CIRCLE
8
PARAMETRIX
10
28.2843
20
-28.2843
40
1.0000
0
CIRCLE
8
PARAMETRIX
10
36.9552
20
-15.3073
40
1.0000
0
LINE
8
PARAMETRIX
10
14.3091
20
1.5000
11
34.7095
21
1.5000
0
ARC
8
PARAMETRIX
10
34.7095
20
4.5000
40
3.0000
50
270.0000
51
7.3870
0
ARC
8
PARAMETRIX
10
0.0000
20
0.0000
40
38.0000
50
7.3870
51
64.6130
0
ARC
8
PARAMETRIX
10
15.0056
20
31.6201
40
3.0000
50
64.6130
51
162.0000
0
LINE
8
PARAMETRIX
10
12.1524
20
32.5472
11
5.8483
21
13.1452
0
ARC
8
PARAMETRIX
10
8.7015
20
12.2182
40
3.0000
50
162.0000
51
234.5424
0
ARC
8
PARAMETRIX
10
0.0000
20
-0.0000
40
12.0000
50
17.4576
51
54.5424
0
ARC
8
PARAMETRIX
10
14.3091
20
4.5000
40
3.0000
50
197.4576
51
270.0000
0
LINE
8
PARAMETRIX
10
2.9952
20
14.0723
11
9.2992
21
33.4742
0
ARC
8
PARAMETRIX
10
6.4461
20
34.4013
40
3.0000
50
342.0000
51
79.3870
0
ARC
8
PARAMETRIX
10
0.0000
20
0.0000
40
38.0000
50
79.3870
51
136.6130
0
ARC
8
PARAMETRIX
10
-25.4355
20
24.0423
40
3.0000
50
136.6130
51
234.0000
0
LINE
8
PARAMETRIX
10
-27.1989
20
21.6153
11
-10.6946
21
9.6242
0
ARC
8
PARAMETRIX
10
-8.9313
20
12.0512
40
3.0000
50
234.0000
51
306.5424
0
ARC
8
PARAMETRIX
10
-0.0000
20
0.0000
40
12.0000
50
89.4576
51
126.5424
0
ARC
8
PARAMETRIX
10
0.1420
20
14.9993
40
3.0000
50
269.4576
51
342.0000
0
LINE
8
PARAMETRIX
10
-12.4580
20
7.1971
11
-28.9623
21
19.1882
0
ARC
8
PARAMETRIX
10
-30.7256
20
16.7612
40
3.0000
50
54.0000
51
151.3870
0
ARC
8
PARAMETRIX
10
-0.0000
20
0.0000
40
38.0000
50
151.3870
51
208.6130
0
ARC
8
PARAMETRIX
10
-30.7256
20
-16.7612
40
3.0000
50
208.6130
51
306.0000
0
LINE
8
PARAMETRIX
10
-28.9623
20
-19.1882
11
-12.4580
21
-7.1971
0
ARC
8
PARAMETRIX
10
-14.2213
20
-4.7701
40
3.0000
50
306.0000
51
18.5424
0
ARC
8
PARAMETRIX
10
-0.0000
20
0.0000
40
12.0000
50
161.4576
51
198.5424
0
ARC
8
PARAMETRIX
10
-14.2213
20
4.7701
40
3.0000
50
341.4576
51
54.0000
0
LINE
8
PARAMETRIX
10
-10.6946
20
-9.6242
11
-27.1989
21
-21.6153
0
ARC
8
PARAMETRIX
10
-25.4355
20
-24.0423
40
3.0000
50
126.0000
51
223.3870
0
ARC
8
PARAMETRIX
10
0.0000
20
0.0000
40
38.0000
50
223.3870
51
280.6130
0
ARC
8
PARAMETRIX
10
6.4461
20
-34.4013
40
3.0000
50
280.6130
51
18.0000
0
LINE
8
PARAMETRIX
10
9.2992
20
-33.4742
11
2.9952
21
-14.0723
0
ARC
8
PARAMETRIX
10
0.1420
20
-14.9993
40
3.0000
50
18.0000
51
90.5424
0
ARC
8
PARAMETRIX
10
-0.0000
20
-0.0000
40
12.0000
50
233.4576
51
270.5424
0
ARC
8
PARAMETRIX
10
-8.9313
20
-12.0512
40
3.0000
50
53.4576
51
126.0000
0
LINE
8
PARAMETRIX
10
5.8483
20
-13.1452
11
12.1524
21
-32.5472
0
ARC
8
PARAMETRIX
10
15.0056
20
-31.6201
40
3.0000
50
198.0000
51
295.3870
0
ARC
8
PARAMETRIX
10
0.0000
20
-0.0000
40
38.0000
50
295.3870
51
352.6130
0
ARC
8
PARAMETRIX
10
34.7095
20
-4.5000
40
3.0000
50
352.6130
51
90.0000
0
LINE
8
PARAMETRIX
10
34.7095
20
-1.5000
11
14.3091
21
-1.5000
0
ARC
8
PARAMETRIX
10
14.3091
20
-4.5000
40
3.0000
50
90.0000
51
162.5424
0
ARC
8
PARAMETRIX
10
0.0000
20
0.0000
40
12.0000
50
305.4576
51
342.5424
0
ARC
8
PARAMETRIX
10
8.7015
20
-12.2182
40
3.0000
50
125.4576
51
198.0000
0
ENDSEC
0
EOF
