<svg width="102" height="102" viewBox="-47 -47 102 102" xmlns="http://www.w3.org/2000/svg"><circle cx="0.0000" cy="0.0000" r="42.0000" stroke="green" stroke-width="1" fill="none" /><circle cx="0.0000" cy="0.0000" r="8.0000" stroke="green" stroke-width="1" fill="none" /><circle cx="10.0000" cy="0.0000" r="1.0000" stroke="green" stroke-width="1" fill="none" /><circle cx="9.2388" cy="-3.8268" r="1.0000" stroke="green" stroke-width="1" fill="none" /><circle cx="7.0711" cy="-7.0711" r="1.0000" stroke="green" stroke-width="1" fill="none" /><circle cx="3.8268" cy="-9.2388" r="1.0000" stroke="green" stroke-width="1" fill="none" /><circle cx="0.0000" cy="-10.0000" r="1.0000" stroke="green" stroke-width="1" fill="none" /><circle cx="-3.8268" cy="-9.2388" r="1.0000" stroke="green" stroke-width="1" fill="none" /><circle cx="-7.0711" cy="-7.0711" r="1.0000" stroke="green" stroke-width="1" fill="none" /><circle cx="-9.2388" cy="-3.8268" r="1.0000" stroke="green" stroke-width="1" fill="none" /><circle cx="-10.0000" cy="-0.0000" r="1.0000" stroke="green" stroke-width="1" fill="none" /><circle cx="-9.2388" cy="3.8268" r="1.0000" stroke="green" stroke-width="1" fill="none" /><circle cx="-7.0711" cy="7.0711" r="1.0000" stroke="green" stroke-width="1" fill="none" /><circle cx="-3.8268" cy="9.2388" r="1.0000" stroke="green" stroke-width="1" fill="none" /><circle cx="-0.0000" cy="10.0000" r="1.0000" stroke="green" stroke-width="1" fill="none" /><circle cx="3.8268" cy="9.2388" r="1.0000" stroke="green" stroke-width="1" fill="none" /><circle cx="7.0711" cy="7.0711" r="1.0000" stroke="green" stroke-width="1" fill="none" /><circle cx="9.2388" cy="3.8268" r="1.0000" stroke="green" stroke-width="1" fill="none" /><circle cx="40.0000" cy="0.0000" r="1.0000" stroke="green" stroke-width="1" fill="none" /><circle cx="36.9552" cy="-15.3073" r="1.0000" stroke="green" stroke-width="1" fill="none" /><circle cx="28.2843" cy="-28.2843" r="1.0000" stroke="green" stroke-width="1" fill="none" /><circle cx="15.3073" cy="-36.9552" r="1.0000" stroke="green" stroke-width="1" fill="none" /><circle cx="0.0000" cy="-40.0000" r="1.0000" stroke="green" stroke-width="1" fill="none" /><circle cx="-15.3073" cy="-36.9552" r="1.0000" stroke="green" stroke-width="1" fill="none" /><circle cx="-28.2843" cy="-28.2843" r="1.0000" stroke="green" stroke-width="1" fill="none" /><circle cx="-36.9552" cy="-15.3073" r="1.0000" stroke="green" stroke-width="1" fill="none" /><circle cx="-40.0000" cy="-0.0000" r="1.0000" stroke="green" stroke-width="1" fill="none" /><circle cx="-36.9552" cy="15.3073" r="1.0000" stroke="green" stroke-width="1" fill="none" /><circle cx="-28.2843" cy="28.2843" r="1.0000" stroke="green" stroke-width="1" fill="none" /><circle cx="-15.3073" cy="36.9552" r="1.0000" stroke="green" stroke-width="1" fill="none" /><circle cx="-0.0000" cy="40.0000" r="1.0000" stroke="green" stroke-width="1" fill="none" /><circle cx="15.3073" cy="36.9552" r="1.0000" stroke="green" stroke-width="1" fill="none" /><circle cx="28.2843" cy="28.2843" r="1.0000" stroke="green" stroke-width="1" fill="none" /><circle cx="36.9552" cy="15.3073" r="1.0000" stroke="green" stroke-width="1" fill="none" /><path d="M 14.3091 -1.5000 L 34.7095 -1.5000 A 3.0000 3.0000 0 0 0 37.6846 -4.8857 A 38.0000 38.0000 0 0 0 16.2918 -34.3304 A 3.0000 3.0000 0 0 0 12.1524 -32.5472 L 5.8483 -13.1452 A 3.0000 3.0000 0 0 0 6.9612 -9.7745 A 12.0000 12.0000 0 0 1 11.4473 -3.6000 A 3.0000 3.0000 0 0 0 14.3091 -1.5000 Z" stroke="green" stroke-width="1" fill="none" /><path d="M 2.9952 -14.0723 L 9.2992 -33.4742 A 3.0000 3.0000 0 0 0 6.9986 -37.3500 A 38.0000 38.0000 0 0 0 -27.6157 -26.1031 A 3.0000 3.0000 0 0 0 -27.1989 -21.6153 L -10.6946 -9.6242 A 3.0000 3.0000 0 0 0 -7.1450 -9.6410 A 12.0000 12.0000 0 0 1 0.1136 -11.9995 A 3.0000 3.0000 0 0 0 2.9952 -14.0723 Z" stroke="green" stroke-width="1" fill="none" /><path d="M -12.4580 -7.1971 L -28.9623 -19.1882 A 3.0000 3.0000 0 0 0 -33.3592 -18.1978 A 38.0000 38.0000 0 0 0 -33.3592 18.1978 A 3.0000 3.0000 0 0 0 -28.9623 19.1882 L -12.4580 7.1971 A 3.0000 3.0000 0 0 0 -11.3771 3.8161 A 12.0000 12.0000 0 0 1 -11.3771 -3.8161 A 3.0000 3.0000 0 0 0 -12.4580 -7.1971 Z" stroke="green" stroke-width="1" fill="none" /><path d="M -10.6946 9.6242 L -27.1989 21.6153 A 3.0000 3.0000 0 0 0 -27.6157 26.1031 A 38.0000 38.0000 0 0 0 6.9986 37.3500 A 3.0000 3.0000 0 0 0 9.2992 33.4742 L 2.9952 14.0723 A 3.0000 3.0000 0 0 0 0.1136 11.9995 A 12.0000 12.0000 0 0 1 -7.1450 9.6410 A 3.0000 3.0000 0 0 0 -10.6946 9.6242 Z" stroke="green" stroke-width="1" fill="none" /><path d="M 5.8483 13.1452 L 12.1524 32.5472 A 3.0000 3.0000 0 0 0 16.2918 34.3304 A 38.0000 38.0000 0 0 0 37.6846 4.8857 A 3.0000 3.0000 0 0 0 34.7095 1.5000 L 14.3091 1.5000 A 3.0000 3.0000 0 0 0 11.4473 3.6000 A 12.0000 12.0000 0 0 1 6.9612 9.7745 A 3.0000 3.0000 0 0 0 5.8483 13.1452 Z" stroke="green" stroke-width="1" fill="none" /></svg>