0
SECTION
2
ENTITIES
0
CIRCLE
8
PARAMETRIX
10
0.0000
20
0.0000
40
18.5000
0
CIRCLE
8
PARAMETRIX
10
16.0000
20
0.0000
40
1.5000
0
CIRCLE
8
PARAMETRIX
10
11.3137
20
11.3137
40
1.5000
0
CIRCLE
8
PARAMETRIX
10
0.0000
20
16.0000
40
1.5000
0
CIRCLE
8
PARAMETRIX
10
-11.3137
20
11.3137
40
1.5000
0
CIRCLE
8
PARAMETRIX
10
-16.0000
20
0.0000
40
1.5000
0
CIRCLE
8
PARAMETRIX
10
-11.3137
20
-11.3137
40
1.5000
0
CIRCLE
8
PARAMETRIX
10
-0.0000
20
-16.0000
40
1.5000
0
CIRCLE
8
PARAMETRIX
10
11.3137
20
-11.3137
40
1.5000
0
LINE
8
PARAMETRIX
10
9.8273
20
-0.0000
11
11.9717
21
0.0000
0
ARC
8
PARAMETRIX
10
11.9717
20
1.0000
40
1.0000
50
270.0000
51
11.7000
0
LINE
8
PARAMETRIX
10
12.9509
20
1.2028
11
12.3634
21
4.0396
0
ARC
8
PARAMETRIX
10
11.3842
20
3.8368
40
1.0000
50
11.7000
51
113.4000
0
LINE
8
PARAMETRIX
10
10.9871
20
4.7545
11
9.0190
21
3.9029
0
ARC
8
PARAMETRIX
10
8.6219
20
4.8206
40
1.0000
50
214.2000
51
293.4000
0
LINE
8
PARAMETRIX
10
7.7948
20
4.2586
11
6.8290
21
5.6797
0
ARC
8
PARAMETRIX
10
7.6560
20
6.2418
40
1.0000
50
135.0000
51
214.2000
0
LINE
8
PARAMETRIX
10
6.9489
20
6.9489
11
8.4653
21
8.4653
0
ARC
8
PARAMETRIX
10
7.7582
20
9.1724
40
1.0000
50
315.0000
51
56.7000
0
LINE
8
PARAMETRIX
10
8.3072
20
10.0082
11
5.8859
21
11.5987
0
ARC
8
PARAMETRIX
10
5.3369
20
10.7629
40
1.0000
50
56.7000
51
158.4000
0
LINE
8
PARAMETRIX
10
4.4071
20
11.1310
11
3.6177
21
9.1372
0
ARC
8
PARAMETRIX
10
2.6879
20
9.5053
40
1.0000
50
259.2000
51
338.4000
0
LINE
8
PARAMETRIX
10
2.5005
20
8.5230
11
0.8126
21
8.8450
0
ARC
8
PARAMETRIX
10
1.0000
20
9.8273
40
1.0000
50
180.0000
51
259.2000
0
LINE
8
PARAMETRIX
10
0.0000
20
9.8273
11
0.0000
21
11.9717
0
ARC
8
PARAMETRIX
10
-1.0000
20
11.9717
40
1.0000
50
0.0000
51
101.7000
0
LINE
8
PARAMETRIX
10
-1.2028
20
12.9509
11
-4.0396
21
12.3634
0
ARC
8
PARAMETRIX
10
-3.8368
20
11.3842
40
1.0000
50
101.7000
51
203.4000
0
LINE
8
PARAMETRIX
10
-4.7545
20
10.9871
11
-3.9029
21
9.0190
0
ARC
8
PARAMETRIX
10
-4.8206
20
8.6219
40
1.0000
50
304.2000
51
23.4000
0
LINE
8
PARAMETRIX
10
-4.2586
20
7.7948
11
-5.6797
21
6.8290
0
ARC
8
PARAMETRIX
10
-6.2418
20
7.6560
40
1.0000
50
225.0000
51
304.2000
0
LINE
8
PARAMETRIX
10
-6.9489
20
6.9489
11
-8.4653
21
8.4653
0
ARC
8
PARAMETRIX
10
-9.1724
20
7.7582
40
1.0000
50
45.0000
51
146.7000
0
LINE
8
PARAMETRIX
10
-10.0082
20
8.3072
11
-11.5987
21
5.8859
0
ARC
8
PARAMETRIX
10
-10.7629
20
5.3369
40
1.0000
50
146.7000
51
248.4000
0
LINE
8
PARAMETRIX
10
-11.1310
20
4.4071
11
-9.1372
21
3.6177
0
ARC
8
PARAMETRIX
10
-9.5053
20
2.6879
40
1.0000
50
349.2000
51
68.4000
0
LINE
8
PARAMETRIX
10
-8.5230
20
2.5005
11
-8.8450
21
0.8126
0
ARC
8
PARAMETRIX
10
-9.8273
20
1.0000
40
1.0000
50
270.0000
51
349.2000
0
LINE
8
PARAMETRIX
10
-9.8273
20
0.0000
11
-11.9717
21
0.0000
0
ARC
8
PARAMETRIX
10
-11.9717
20
-1.0000
40
1.0000
50
90.0000
51
191.7000
0
LINE
8
PARAMETRIX
10
-12.9509
20
-1.2028
11
-12.3634
21
-4.0396
0
ARC
8
PARAMETRIX
10
-11.3842
20
-3.8368
40
1.0000
50
191.7000
51
293.4000
0
LINE
8
PARAMETRIX
10
-10.9871
20
-4.7545
11
-9.0190
21
-3.9029
0
ARC
8
PARAMETRIX
10
-8.6219
20
-4.8206
40
1.0000
50
34.2000
51
113.4000
0
LINE
8
PARAMETRIX
10
-7.7948
20
-4.2586
11
-6.8290
21
-5.6797
0
ARC
8
PARAMETRIX
10
-7.6560
20
-6.2418
40
1.0000
50
315.0000
51
34.2000
0
LINE
8
PARAMETRIX
10
-6.9489
20
-6.9489
11
-8.4653
21
-8.4653
0
ARC
8
PARAMETRIX
10
-7.7582
20
-9.1724
40
1.0000
50
135.0000
51
236.7000
0
LINE
8
PARAMETRIX
10
-8.3072
20
-10.0082
11
-5.8859
21
-11.5987
0
ARC
8
PARAMETRIX
10
-5.3369
20
-10.7629
40
1.0000
50
236.7000
51
338.4000
0
LINE
8
PARAMETRIX
10
-4.4071
20
-11.1310
11
-3.6177
21
-9.1372
0
ARC
8
PARAMETRIX
10
-2.6879
20
-9.5053
40
1.0000
50
79.2000
51
158.4000
0
LINE
8
PARAMETRIX
10
-2.5005
20
-8.5230
11
-0.8126
21
-8.8450
0
ARC
8
PARAMETRIX
10
-1.0000
20
-9.8273
40
1.0000
50
0.0000
51
79.2000
0
LINE
8
PARAMETRIX
10
-0.0000
20
-9.8273
11
-0.0000
21
-11.9717
0
ARC
8
PARAMETRIX
10
1.0000
20
-11.9717
40
1.0000
50
180.0000
51
281.7000
0
LINE
8
PARAMETRIX
10
1.2028
20
-12.9509
11
4.0396
21
-12.3634
0
ARC
8
PARAMETRIX
10
3.8368
20
-11.3842
40
1.0000
50
281.7000
51
23.4000
0
LINE
8
PARAMETRIX
10
4.7545
20
-10.9871
11
3.9029
21
-9.0190
0
ARC
8
PARAMETRIX
10
4.8206
20
-8.6219
40
1.0000
50
124.2000
51
203.4000
0
LINE
8
PARAMETRIX
10
4.2586
20
-7.7948
11
5.6797
21
-6.8290
0
ARC
8
PARAMETRIX
10
6.2418
20
-7.6560
40
1.0000
50
45.0000
51
124.2000
0
LINE
8
PARAMETRIX
10
6.9489
20
-6.9489
11
8.4653
21
-8.4653
0
ARC
8
PARAMETRIX
10
9.1724
20
-7.7582
40
1.0000
50
225.0000
51
326.7000
0
LINE
8
PARAMETRIX
10
10.0082
20
-8.3072
11
11.5987
21
-5.8859
0
ARC
8
PARAMETRIX
10
10.7629
20
-5.3369
40
1.0000
50
326.7000
51
68.4000
0
LINE
8
PARAMETRIX
10
11.1310
20
-4.4071
11
9.1372
21
-3.6177
0
ARC
8
PARAMETRIX
10
9.5053
20
-2.6879
40
1.0000
50
169.2000
51
248.4000
0
LINE
8
PARAMETRIX
10
8.5230
20
-2.5005
11
8.8450
21
-0.8126
0
ARC
8
PARAMETRIX
10
9.8273
20
-1.0000
40
1.0000
50
90.0000
51
169.2000
0
ENDSEC
0
EOF
