0
SECTION
2
ENTITIES
0
LINE
8
PARAMETRIX
10
9.6207
20
-0.0000
11
11.7815
21
0.0000
0
ARC
8
PARAMETRIX
10
11.7815
20
1.0000
40
1.0000
50
270.0000
51
11.2500
0
LINE
8
PARAMETRIX
10
12.7623
20
1.1951
11
12.2482
21
3.7798
0
ARC
8
PARAMETRIX
10
11.2674
20
3.5847
40
1.0000
50
11.2500
51
112.5000
0
LINE
8
PARAMETRIX
10
10.8847
20
4.5086
11
8.8883
21
3.6817
0
ARC
8
PARAMETRIX
10
8.5057
20
4.6056
40
1.0000
50
213.7500
51
292.5000
0
LINE
8
PARAMETRIX
10
7.6742
20
4.0500
11
6.6785
21
5.5402
0
ARC
8
PARAMETRIX
10
7.5100
20
6.0957
40
1.0000
50
135.0000
51
213.7500
0
LINE
8
PARAMETRIX
10
6.8028
20
6.8028
11
8.3308
21
8.3308
0
ARC
8
PARAMETRIX
10
7.6237
20
9.0379
40
1.0000
50
315.0000
51
56.2500
0
LINE
8
PARAMETRIX
10
8.1792
20
9.8694
11
5.9880
21
11.3335
0
ARC
8
PARAMETRIX
10
5.4325
20
10.5020
40
1.0000
50
56.2500
51
157.5000
0
LINE
8
PARAMETRIX
10
4.5086
20
10.8847
11
3.6817
21
8.8883
0
ARC
8
PARAMETRIX
10
2.7578
20
9.2710
40
1.0000
50
258.7500
51
337.5000
0
LINE
8
PARAMETRIX
10
2.5627
20
8.2902
11
0.8049
21
8.6399
0
ARC
8
PARAMETRIX
10
1.0000
20
9.6207
40
1.0000
50
180.0000
51
258.7500
0
LINE
8
PARAMETRIX
10
0.0000
20
9.6207
11
0.0000
21
11.7815
0
ARC
8
PARAMETRIX
10
-1.0000
20
11.7815
40
1.0000
50
0.0000
51
101.2500
0
LINE
8
PARAMETRIX
10
-1.1951
20
12.7623
11
-3.7798
21
12.2482
0
ARC
8
PARAMETRIX
10
-3.5847
20
11.2674
40
1.0000
50
101.2500
51
202.5000
0
LINE
8
PARAMETRIX
10
-4.5086
20
10.8847
11
-3.6817
21
8.8883
0
ARC
8
PARAMETRIX
10
-4.6056
20
8.5057
40
1.0000
50
303.7500
51
22.5000
0
LINE
8
PARAMETRIX
10
-4.0500
20
7.6742
11
-5.5402
21
6.6785
0
ARC
8
PARAMETRIX
10
-6.0957
20
7.5100
40
1.0000
50
225.0000
51
303.7500
0
LINE
8
PARAMETRIX
10
-6.8028
20
6.8028
11
-8.3308
21
8.3308
0
ARC
8
PARAMETRIX
10
-9.0379
20
7.6237
40
1.0000
50
45.0000
51
146.2500
0
LINE
8
PARAMETRIX
10
-9.8694
20
8.1792
11
-11.3335
21
5.9880
0
ARC
8
PARAMETRIX
10
-10.5020
20
5.4325
40
1.0000
50
146.2500
51
247.5000
0
LINE
8
PARAMETRIX
10
-10.8847
20
4.5086
11
-8.8883
21
3.6817
0
ARC
8
PARAMETRIX
10
-9.2710
20
2.7578
40
1.0000
50
348.7500
51
67.5000
0
LINE
8
PARAMETRIX
10
-8.2902
20
2.5627
11
-8.6399
21
0.8049
0
ARC
8
PARAMETRIX
10
-9.6207
20
1.0000
40
1.0000
50
270.0000
51
348.7500
0
LINE
8
PARAMETRIX
10
-9.6207
20
0.0000
11
-11.7815
21
0.0000
0
ARC
8
PARAMETRIX
10
-11.7815
20
-1.0000
40
1.0000
50
90.0000
51
191.2500
0
LINE
8
PARAMETRIX
10
-12.7623
20
-1.1951
11
-12.2482
21
-3.7798
0
ARC
8
PARAMETRIX
10
-11.2674
20
-3.5847
40
1.0000
50
191.2500
51
292.5000
0
LINE
8
PARAMETRIX
10
-10.8847
20
-4.5086
11
-8.8883
21
-3.6817
0
ARC
8
PARAMETRIX
10
-8.5057
20
-4.6056
40
1.0000
50
33.7500
51
112.5000
0
LINE
8
PARAMETRIX
10
-7.6742
20
-4.0500
11
-6.6785
21
-5.5402
0
ARC
8
PARAMETRIX
10
-7.5100
20
-6.0957
40
1.0000
50
315.0000
51
33.7500
0
LINE
8
PARAMETRIX
10
-6.8028
20
-6.8028
11
-8.3308
21
-8.3308
0
ARC
8
PARAMETRIX
10
-7.6237
20
-9.0379
40
1.0000
50
135.0000
51
236.2500
0
LINE
8
PARAMETRIX
10
-8.1792
20
-9.8694
11
-5.9880
21
-11.3335
0
ARC
8
PARAMETRIX
10
-5.4325
20
-10.5020
40
1.0000
50
236.2500
51
337.5000
0
LINE
8
PARAMETRIX
10
-4.5086
20
-10.8847
11
-3.6817
21
-8.8883
0
ARC
8
PARAMETRIX
10
-2.7578
20
-9.2710
40
1.0000
50
78.7500
51
157.5000
0
LINE
8
PARAMETRIX
10
-2.5627
20
-8.2902
11
-0.8049
21
-8.6399
0
ARC
8
PARAMETRIX
10
-1.0000
20
-9.6207
40
1.0000
50
0.0000
51
78.7500
0
LINE
8
PARAMETRIX
10
-0.0000
20
-9.6207
11
-0.0000
21
-11.7815
0
ARC
8
PARAMETRIX
10
1.0000
20
-11.7815
40
1.0000
50
180.0000
51
281.2500
0
LINE
8
PARAMETRIX
10
1.1951
20
-12.7623
11
3.7798
21
-12.2482
0
ARC
8
PARAMETRIX
10
3.5847
20
-11.2674
40
1.0000
50
281.2500
51
22.5000
0
LINE
8
PARAMETRIX
10
4.5086
20
-10.8847
11
3.6817
21
-8.8883
0
ARC
8
PARAMETRIX
10
4.6056
20
-8.5057
40
1.0000
50
123.7500
51
202.5000
0
LINE
8
PARAMETRIX
10
4.0500
20
-7.6742
11
5.5402
21
-6.6785
0
ARC
8
PARAMETRIX
10
6.0957
20
-7.5100
40
1.0000
50
45.0000
51
123.7500
0
LINE
8
PARAMETRIX
10
6.8028
20
-6.8028
11
8.3308
21
-8.3308
0
ARC
8
PARAMETRIX
10
9.0379
20
-7.6237
40
1.0000
50
225.0000
51
326.2500
0
LINE
8
PARAMETRIX
10
9.8694
20
-8.1792
11
11.3335
21
-5.9880
0
ARC
8
PARAMETRIX
10
10.5020
20
-5.4325
40
1.0000
50
326.2500
51
67.5000
0
LINE
8
PARAMETRIX
10
10.8847
20
-4.5086
11
8.8883
21
-3.6817
0
ARC
8
PARAMETRIX
10
9.2710
20
-2.7578
40
1.0000
50
168.7500
51
247.5000
0
LINE
8
PARAMETRIX
10
8.2902
20
-2.5627
11
8.6399
21
-0.8049
0
ARC
8
PARAMETRIX
10
9.6207
20
-1.0000
40
1.0000
50
90.0000
51
168.7500
0
CIRCLE
8
PARAMETRIX
10
0.0000
20
0.0000
40
3.5000
0
CIRCLE
8
PARAMETRIX
10
6.0000
20
0.0000
40
1.5000
0
CIRCLE
8
PARAMETRIX
10
1.8541
20
5.7063
40
1.5000
0
CIRCLE
8
PARAMETRIX
10
-4.8541
20
3.5267
40
1.5000
0
CIRCLE
8
PARAMETRIX
10
-4.8541
20
-3.5267
40
1.5000
0
CIRCLE
8
PARAMETRIX
10
1.8541
20
-5.7063
40
1.5000
0
ENDSEC
0
EOF
