<svg width="51" height="51" viewBox="-21 -21 51 51" xmlns="http://www.w3.org/2000/svg"><circle cx="0.0000" cy="0.0000" r="18.5000" stroke="green" stroke-width="1" fill="none" /><circle cx="16.0000" cy="0.0000" r="1.5000" stroke="green" stroke-width="1" fill="none" /><circle cx="11.3137" cy="-11.3137" r="1.5000" stroke="green" stroke-width="1" fill="none" /><circle cx="0.0000" cy="-16.0000" r="1.5000" stroke="green" stroke-width="1" fill="none" /><circle cx="-11.3137" cy="-11.3137" r="1.5000" stroke="green" stroke-width="1" fill="none" /><circle cx="-16.0000" cy="-0.0000" r="1.5000" stroke="green" stroke-width="1" fill="none" /><circle cx="-11.3137" cy="11.3137" r="1.5000" stroke="green" stroke-width="1" fill="none" /><circle cx="-0.0000" cy="16.0000" r="1.5000" stroke="green" stroke-width="1" fill="none" /><circle cx="11.3137" cy="11.3137" r="1.5000" stroke="green" stroke-width="1" fill="none" /><path d="M 9.8273 0.0000 L 11.9717 -0.0000 A 1.0000 1.0000 0 0 0 12.9509 -1.2028 L 12.3634 -4.0396 A 1.0000 1.0000 0 0 0 10.9871 -4.7545 L 9.0190 -3.9029 A 1.0000 1.0000 0 0 1 7.7948 -4.2586 L 6.8290 -5.6797 A 1.0000 1.0000 0 0 1 6.9489 -6.9489 L 8.4653 -8.4653 A 1.0000 1.0000 0 0 0 8.3072 -10.0082 L 5.8859 -11.5987 A 1.0000 1.0000 0 0 0 4.4071 -11.1310 L 3.6177 -9.1372 A 1.0000 1.0000 0 0 1 2.5005 -8.5230 L 0.8126 -8.8450 A 1.0000 1.0000 0 0 1 0.0000 -9.8273 L 0.0000 -11.9717 A 1.0000 1.0000 0 0 0 -1.2028 -12.9509 L -4.0396 -12.3634 A 1.0000 1.0000 0 0 0 -4.7545 -10.9871 L -3.9029 -9.0190 A 1.0000 1.0000 0 0 1 -4.2586 -7.7948 L -5.6797 -6.8290 A 1.0000 1.0000 0 0 1 -6.9489 -6.9489 L -8.4653 -8.4653 A 1.0000 1.0000 0 0 0 -10.0082 -8.3072 L -11.5987 -5.8859 A 1.0000 1.0000 0 0 0 -11.1310 -4.4071 L -9.1372 -3.6177 A 1.0000 1.0000 0 0 1 -8.5230 -2.5005 L -8.8450 -0.8126 A 1.0000 1.0000 0 0 1 -9.8273 -0.0000 L -11.9717 -0.0000 A 1.0000 1.0000 0 0 0 -12.9509 1.2028 L -12.3634 4.0396 A 1.0000 1.0000 0 0 0 -10.9871 4.7545 L -9.0190 3.9029 A 1.0000 1.0000 0 0 1 -7.7948 4.2586 L -6.8290 5.6797 A 1.0000 1.0000 0 0 1 -6.9489 6.9489 L -8.4653 8.4653 A 1.0000 1.0000 0 0 0 -8.3072 10.0082 L -5.8859 11.5987 A 1.0000 1.0000 0 0 0 -4.4071 11.1310 L -3.6177 9.1372 A 1.0000 1.0000 0 0 1 -2.5005 8.5230 L -0.8126 8.8450 A 1.0000 1.0000 0 0 1 -0.0000 9.8273 L -0.0000 11.9717 A 1.0000 1.0000 0 0 0 1.2028 12.9509 L 4.0396 12.3634 A 1.0000 1.0000 0 0 0 4.7545 10.9871 L 3.9029 9.0190 A 1.0000 1.0000 0 0 1 4.2586 7.7948 L 5.6797 6.8290 A 1.0000 1.0000 0 0 1 6.9489 6.9489 L 8.4653 8.4653 A 1.0000 1.0000 0 0 0 10.0082 8.3072 L 11.5987 5.8859 A 1.0000 1.0000 0 0 0 11.1310 4.4071 L 9.1372 3.6177 A 1.0000 1.0000 0 0 1 8.5230 2.5005 L 8.8450 0.8126 A 1.0000 1.0000 0 0 1 9.8273 0.0000 Z" stroke="green" stroke-width="1" fill="none" /></svg>