<svg width="38" height="38" viewBox="-15 -15 38 38" xmlns="http://www.w3.org/2000/svg"><path d="M 9.6207 0.0000 L 11.7815 -0.0000 A 1.0000 1.0000 0 0 0 12.7623 -1.1951 L 12.2482 -3.7798 A 1.0000 1.0000 0 0 0 10.8847 -4.5086 L 8.8883 -3.6817 A 1.0000 1.0000 0 0 1 7.6742 -4.0500 L 6.6785 -5.5402 A 1.0000 1.0000 0 0 1 6.8028 -6.8028 L 8.3308 -8.3308 A 1.0000 1.0000 0 0 0 8.1792 -9.8694 L 5.9880 -11.3335 A 1.0000 1.0000 0 0 0 4.5086 -10.8847 L 3.6817 -8.8883 A 1.0000 1.0000 0 0 1 2.5627 -8.2902 L 0.8049 -8.6399 A 1.0000 1.0000 0 0 1 0.0000 -9.6207 L 0.0000 -11.7815 A 1.0000 1.0000 0 0 0 -1.1951 -12.7623 L -3.7798 -12.2482 A 1.0000 1.0000 0 0 0 -4.5086 -10.8847 L -3.6817 -8.8883 A 1.0000 1.0000 0 0 1 -4.0500 -7.6742 L -5.5402 -6.6785 A 1.0000 1.0000 0 0 1 -6.8028 -6.8028 L -8.3308 -8.3308 A 1.0000 1.0000 0 0 0 -9.8694 -8.1792 L -11.3335 -5.9880 A 1.0000 1.0000 0 0 0 -10.8847 -4.5086 L -8.8883 -3.6817 A 1.0000 1.0000 0 0 1 -8.2902 -2.5627 L -8.6399 -0.8049 A 1.0000 1.0000 0 0 1 -9.6207 -0.0000 L -11.7815 -0.0000 A 1.0000 1.0000 0 0 0 -12.7623 1.1951 L -12.2482 3.7798 A 1.0000 1.0000 0 0 0 -10.8847 4.5086 L -8.8883 3.6817 A 1.0000 1.0000 0 0 1 -7.6742 4.0500 L -6.6785 5.5402 A 1.0000 1.0000 0 0 1 -6.8028 6.8028 L -8.3308 8.3308 A 1.0000 1.0000 0 0 0 -8.1792 9.8694 L -5.9880 11.3335 A 1.0000 1.0000 0 0 0 -4.5086 10.8847 L -3.6817 8.8883 A 1.0000 1.0000 0 0 1 -2.5627 8.2902 L -0.8049 8.6399 A 1.0000 1.0000 0 0 1 -0.0000 9.6207 L -0.0000 11.7815 A 1.0000 1.0000 0 0 0 1.1951 12.7623 L 3.7798 12.2482 A 1.0000 1.0000 0 0 0 4.5086 10.8847 L 3.6817 8.8883 A 1.0000 1.0000 0 0 1 4.0500 7.6742 L 5.5402 6.6785 A 1.0000 1.0000 0 0 1 6.8028 6.8028 L 8.3308 8.3308 A 1.0000 1.0000 0 0 0 9.8694 8.1792 L 11.3335 5.9880 A 1.0000 1.0000 0 0 0 10.8847 4.5086 L 8.8883 3.6817 A 1.0000 1.0000 0 0 1 8.2902 2.5627 L 8.6399 0.8049 A 1.0000 1.0000 0 0 1 9.6207 0.0000 Z" stroke="green" stroke-width="1" fill="none" /><circle cx="0.0000" cy="0.0000" r="3.5000" stroke="green" stroke-width="1" fill="none" /><circle cx="6.0000" cy="0.0000" r="1.5000" stroke="green" stroke-width="1" fill="none" /><circle cx="1.8541" cy="-5.7063" r="1.5000" stroke="green" stroke-width="1" fill="none" /><circle cx="-4.8541" cy="-3.5267" r="1.5000" stroke="green" stroke-width="1" fill="none" /><circle cx="-4.8541" cy="3.5267" r="1.5000" stroke="green" stroke-width="1" fill="none" /><circle cx="1.8541" cy="5.7063" r="1.5000" stroke="green" stroke-width="1" fill="none" /></svg>